G04*
G04 #@! TF.GenerationSoftware,Altium Limited,Altium Designer,23.1.1 (15)*
G04*
G04 Layer_Physical_Order=3*
G04 Layer_Color=16440176*
%FSLAX44Y44*%
%MOMM*%
G71*
G04*
G04 #@! TF.SameCoordinates,631E2AB2-323A-43FD-B920-02615E37C836*
G04*
G04*
G04 #@! TF.FilePolarity,Positive*
G04*
G01*
G75*
%ADD132C,3.4500*%
%ADD133C,2.3876*%
%ADD157C,0.0000*%
%ADD158C,1.3000*%
%ADD159C,2.2500*%
%ADD160C,1.6510*%
%ADD161R,1.6510X1.6510*%
%ADD162C,1.7250*%
%ADD163R,1.7250X1.7250*%
%ADD164C,1.8796*%
%ADD165R,1.8796X1.8796*%
%ADD166C,1.5610*%
%ADD167C,2.0260*%
G04:AMPARAMS|DCode=168|XSize=1.65mm|YSize=1.1mm|CornerRadius=0.55mm|HoleSize=0mm|Usage=FLASHONLY|Rotation=180.000|XOffset=0mm|YOffset=0mm|HoleType=Round|Shape=RoundedRectangle|*
%AMROUNDEDRECTD168*
21,1,1.6500,0.0000,0,0,180.0*
21,1,0.5500,1.1000,0,0,180.0*
1,1,1.1000,-0.2750,0.0000*
1,1,1.1000,0.2750,0.0000*
1,1,1.1000,0.2750,0.0000*
1,1,1.1000,-0.2750,0.0000*
%
%ADD168ROUNDEDRECTD168*%
G04:AMPARAMS|DCode=169|XSize=2.6mm|YSize=1.3mm|CornerRadius=0.65mm|HoleSize=0mm|Usage=FLASHONLY|Rotation=270.000|XOffset=0mm|YOffset=0mm|HoleType=Round|Shape=RoundedRectangle|*
%AMROUNDEDRECTD169*
21,1,2.6000,0.0000,0,0,270.0*
21,1,1.3000,1.3000,0,0,270.0*
1,1,1.3000,0.0000,-0.6500*
1,1,1.3000,0.0000,0.6500*
1,1,1.3000,0.0000,0.6500*
1,1,1.3000,0.0000,-0.6500*
%
%ADD169ROUNDEDRECTD169*%
%ADD170O,0.8500X0.5000*%
%ADD171C,0.6000*%
G04:AMPARAMS|DCode=172|XSize=2.3mm|YSize=1.2mm|CornerRadius=0.6mm|HoleSize=0mm|Usage=FLASHONLY|Rotation=270.000|XOffset=0mm|YOffset=0mm|HoleType=Round|Shape=RoundedRectangle|*
%AMROUNDEDRECTD172*
21,1,2.3000,0.0000,0,0,270.0*
21,1,1.1000,1.2000,0,0,270.0*
1,1,1.2000,0.0000,-0.5500*
1,1,1.2000,0.0000,0.5500*
1,1,1.2000,0.0000,0.5500*
1,1,1.2000,0.0000,-0.5500*
%
%ADD172ROUNDEDRECTD172*%
%ADD173C,0.4572*%
G36*
X660078Y926742D02*
X663247Y925430D01*
X666098Y923524D01*
X668524Y921099D01*
X670429Y918248D01*
X671741Y915079D01*
X672410Y911716D01*
Y910001D01*
Y20000D01*
Y18285D01*
X671741Y14922D01*
X670429Y11753D01*
X668524Y8902D01*
X666098Y6476D01*
X663247Y4571D01*
X660078Y3259D01*
X657366Y2719D01*
X15000D01*
Y15000D01*
X-15000D01*
Y2719D01*
X-657366D01*
X-660078Y3259D01*
X-663247Y4571D01*
X-666098Y6476D01*
X-668524Y8902D01*
X-670429Y11753D01*
X-671741Y14922D01*
X-672410Y18285D01*
Y20000D01*
Y910001D01*
Y911716D01*
X-671741Y915079D01*
X-670429Y918248D01*
X-668524Y921099D01*
X-666098Y923524D01*
X-663247Y925430D01*
X-660078Y926742D01*
X-657371Y927281D01*
X22022D01*
X22272Y926070D01*
X20382Y925287D01*
X18758Y924042D01*
X17513Y922419D01*
X16730Y920528D01*
X16463Y918500D01*
Y905500D01*
X16730Y903472D01*
X17513Y901581D01*
X18758Y899958D01*
X20382Y898713D01*
X22272Y897930D01*
X24300Y897663D01*
X26328Y897930D01*
X28219Y898713D01*
X29842Y899958D01*
X31087Y901581D01*
X31870Y903472D01*
X32137Y905500D01*
Y918500D01*
X31870Y920528D01*
X31087Y922419D01*
X29842Y924042D01*
X28219Y925287D01*
X26328Y926070D01*
X26578Y927281D01*
X108422D01*
X108672Y926070D01*
X106782Y925287D01*
X105158Y924042D01*
X103913Y922419D01*
X103130Y920528D01*
X102863Y918500D01*
Y905500D01*
X103130Y903472D01*
X103913Y901581D01*
X105158Y899958D01*
X106782Y898713D01*
X108672Y897930D01*
X110700Y897663D01*
X112728Y897930D01*
X114619Y898713D01*
X116242Y899958D01*
X117487Y901581D01*
X118270Y903472D01*
X118537Y905500D01*
Y918500D01*
X118270Y920528D01*
X117487Y922419D01*
X116242Y924042D01*
X114619Y925287D01*
X112728Y926070D01*
X112978Y927281D01*
X153522D01*
X153772Y926070D01*
X151882Y925287D01*
X150258Y924042D01*
X149013Y922419D01*
X148230Y920528D01*
X147963Y918500D01*
Y905500D01*
X148230Y903472D01*
X149013Y901581D01*
X150258Y899958D01*
X151882Y898713D01*
X153772Y897930D01*
X155800Y897663D01*
X157828Y897930D01*
X159719Y898713D01*
X161342Y899958D01*
X162587Y901581D01*
X163370Y903472D01*
X163637Y905500D01*
Y918500D01*
X163370Y920528D01*
X162587Y922419D01*
X161342Y924042D01*
X159719Y925287D01*
X157828Y926070D01*
X158078Y927281D01*
X239922D01*
X240172Y926070D01*
X238281Y925287D01*
X236658Y924042D01*
X235413Y922419D01*
X234630Y920528D01*
X234363Y918500D01*
Y905500D01*
X234630Y903472D01*
X235413Y901581D01*
X236658Y899958D01*
X238281Y898713D01*
X240172Y897930D01*
X242200Y897663D01*
X244228Y897930D01*
X246119Y898713D01*
X247742Y899958D01*
X248987Y901581D01*
X249770Y903472D01*
X250037Y905500D01*
Y918500D01*
X249770Y920528D01*
X248987Y922419D01*
X247742Y924042D01*
X246119Y925287D01*
X244228Y926070D01*
X244478Y927281D01*
X313750D01*
Y925999D01*
X337000Y925999D01*
X337000Y918000D01*
X326000Y918000D01*
X326000Y894000D01*
X408000Y894000D01*
X408000Y918000D01*
X397014D01*
X396987Y925097D01*
X397884Y925997D01*
X419250Y925995D01*
Y926383D01*
X420148Y927281D01*
X657371D01*
X660078Y926742D01*
D02*
G37*
G36*
X2389Y12938D02*
X2479D01*
X2700Y12912D01*
X2933Y12873D01*
X3192Y12821D01*
X3438Y12744D01*
X3684Y12640D01*
X3697D01*
X3710Y12627D01*
X3788Y12588D01*
X3891Y12510D01*
X4034Y12420D01*
X4189Y12303D01*
X4345Y12161D01*
X4487Y11992D01*
X4617Y11811D01*
X4630Y11785D01*
X4669Y11720D01*
X4720Y11617D01*
X4772Y11487D01*
X4824Y11319D01*
X4876Y11137D01*
X4915Y10930D01*
X4928Y10710D01*
Y10684D01*
Y10606D01*
X4915Y10503D01*
X4889Y10360D01*
X4863Y10205D01*
X4811Y10023D01*
X4746Y9855D01*
X4656Y9687D01*
X4643Y9674D01*
X4604Y9622D01*
X4539Y9544D01*
X4461Y9453D01*
X4345Y9350D01*
X4215Y9233D01*
X4060Y9129D01*
X3891Y9039D01*
X3917Y9026D01*
X3982Y9000D01*
X4073Y8935D01*
X4189Y8857D01*
X4319Y8767D01*
X4448Y8650D01*
X4591Y8508D01*
X4707Y8352D01*
X4720Y8326D01*
X4759Y8275D01*
X4811Y8184D01*
X4863Y8054D01*
X4915Y7899D01*
X4967Y7731D01*
X5005Y7523D01*
X5018Y7303D01*
Y7290D01*
Y7264D01*
Y7212D01*
X5005Y7135D01*
X4992Y7057D01*
X4979Y6953D01*
X4928Y6720D01*
X4837Y6461D01*
X4772Y6331D01*
X4694Y6189D01*
X4604Y6059D01*
X4513Y5930D01*
X4383Y5800D01*
X4254Y5671D01*
X4241Y5658D01*
X4215Y5645D01*
X4176Y5619D01*
X4112Y5580D01*
X4034Y5528D01*
X3943Y5476D01*
X3826Y5425D01*
X3697Y5360D01*
X3555Y5308D01*
X3386Y5243D01*
X3218Y5192D01*
X3023Y5153D01*
X2816Y5101D01*
X2583Y5075D01*
X2350Y5062D01*
X2091Y5049D01*
X1961D01*
X1857Y5062D01*
X1741D01*
X1598Y5088D01*
X1456Y5101D01*
X1287Y5127D01*
X938Y5204D01*
X562Y5308D01*
X199Y5464D01*
X31Y5554D01*
X-137Y5658D01*
X-150Y5671D01*
X-176Y5684D01*
X-215Y5723D01*
X-267Y5774D01*
X-332Y5839D01*
X-397Y5917D01*
X-474Y6008D01*
X-552Y6111D01*
X-630Y6228D01*
X-707Y6357D01*
X-785Y6500D01*
X-850Y6668D01*
X-915Y6837D01*
X-966Y7018D01*
X-992Y7225D01*
X-1018Y7433D01*
X575D01*
Y7407D01*
X601Y7342D01*
X627Y7251D01*
X666Y7135D01*
X718Y7018D01*
X795Y6888D01*
X899Y6772D01*
X1015Y6681D01*
X1028Y6668D01*
X1080Y6642D01*
X1171Y6617D01*
X1287Y6578D01*
X1430Y6526D01*
X1611Y6500D01*
X1832Y6474D01*
X2078Y6461D01*
X2194D01*
X2324Y6474D01*
X2479Y6500D01*
X2648Y6526D01*
X2829Y6578D01*
X2984Y6642D01*
X3127Y6733D01*
X3140Y6746D01*
X3179Y6785D01*
X3231Y6850D01*
X3295Y6927D01*
X3360Y7044D01*
X3412Y7161D01*
X3451Y7316D01*
X3464Y7471D01*
Y7484D01*
Y7536D01*
X3451Y7614D01*
X3425Y7705D01*
X3399Y7808D01*
X3347Y7925D01*
X3270Y8041D01*
X3179Y8145D01*
X3166Y8158D01*
X3127Y8184D01*
X3049Y8236D01*
X2959Y8288D01*
X2829Y8326D01*
X2661Y8378D01*
X2466Y8404D01*
X2246Y8417D01*
X782D01*
Y9700D01*
X2337D01*
X2440Y9712D01*
X2570Y9725D01*
X2713Y9751D01*
X2855Y9803D01*
X2984Y9855D01*
X3101Y9933D01*
X3114Y9946D01*
X3140Y9972D01*
X3192Y10036D01*
X3244Y10101D01*
X3282Y10205D01*
X3334Y10308D01*
X3360Y10438D01*
X3373Y10580D01*
Y10593D01*
Y10658D01*
X3360Y10736D01*
X3334Y10826D01*
X3295Y10930D01*
X3231Y11047D01*
X3153Y11163D01*
X3036Y11267D01*
X3023Y11280D01*
X2971Y11306D01*
X2894Y11358D01*
X2790Y11409D01*
X2661Y11448D01*
X2492Y11500D01*
X2311Y11526D01*
X2091Y11539D01*
X2000D01*
X1909Y11526D01*
X1793Y11513D01*
X1650Y11487D01*
X1495Y11461D01*
X1326Y11409D01*
X1171Y11345D01*
X1158Y11332D01*
X1106Y11306D01*
X1041Y11267D01*
X951Y11189D01*
X873Y11099D01*
X782Y10982D01*
X705Y10840D01*
X653Y10658D01*
X-953D01*
Y10671D01*
Y10684D01*
X-941Y10723D01*
Y10775D01*
X-915Y10904D01*
X-876Y11060D01*
X-824Y11241D01*
X-746Y11435D01*
X-643Y11643D01*
X-513Y11837D01*
X-500Y11863D01*
X-435Y11928D01*
X-345Y12018D01*
X-228Y12135D01*
X-73Y12264D01*
X109Y12394D01*
X329Y12536D01*
X562Y12653D01*
X575D01*
X588Y12666D01*
X627Y12679D01*
X679Y12705D01*
X743Y12718D01*
X834Y12744D01*
X1015Y12809D01*
X1262Y12860D01*
X1534Y12899D01*
X1832Y12938D01*
X2168Y12951D01*
X2324D01*
X2389Y12938D01*
D02*
G37*
%LPC*%
G36*
X297849Y922270D02*
X296151D01*
X294581Y921620D01*
X293380Y920419D01*
X292730Y918849D01*
Y917151D01*
X293380Y915581D01*
X294581Y914380D01*
X296151Y913730D01*
X297849D01*
X299419Y914380D01*
X300620Y915581D01*
X301270Y917151D01*
Y918849D01*
X300620Y920419D01*
X299419Y921620D01*
X297849Y922270D01*
D02*
G37*
G36*
X-423352Y917520D02*
X-426648D01*
X-429832Y916667D01*
X-432687Y915018D01*
X-435019Y912687D01*
X-436667Y909833D01*
X-437301Y907464D01*
X-438616D01*
X-438759Y907999D01*
X-439782Y909771D01*
X-441229Y911217D01*
X-443001Y912241D01*
X-444977Y912770D01*
X-447023D01*
X-448999Y912241D01*
X-450771Y911217D01*
X-452217Y909771D01*
X-453241Y907999D01*
X-453770Y906023D01*
Y903977D01*
X-453241Y902001D01*
X-452217Y900229D01*
X-450771Y898783D01*
X-448999Y897759D01*
X-447023Y897230D01*
X-444977D01*
X-443001Y897759D01*
X-441229Y898783D01*
X-439782Y900229D01*
X-438759Y902001D01*
X-438616Y902536D01*
X-437301D01*
X-436667Y900167D01*
X-435019Y897313D01*
X-432687Y894982D01*
X-429832Y893333D01*
X-426648Y892480D01*
X-423352D01*
X-420168Y893333D01*
X-417313Y894982D01*
X-414981Y897313D01*
X-413333Y900167D01*
X-412480Y903352D01*
Y906648D01*
X-413333Y909833D01*
X-414981Y912687D01*
X-417313Y915018D01*
X-420168Y916667D01*
X-423352Y917520D01*
D02*
G37*
G36*
X300849Y912270D02*
X299151D01*
X297581Y911620D01*
X296380Y910419D01*
X295730Y908849D01*
Y907151D01*
X296380Y905581D01*
X297581Y904380D01*
X299151Y903730D01*
X300849D01*
X302419Y904380D01*
X303620Y905581D01*
X304270Y907151D01*
Y908849D01*
X303620Y910419D01*
X302419Y911620D01*
X300849Y912270D01*
D02*
G37*
G36*
X-464977Y912770D02*
X-467023D01*
X-468999Y912241D01*
X-470771Y911217D01*
X-472217Y909771D01*
X-473241Y907999D01*
X-473770Y906023D01*
Y903977D01*
X-473241Y902001D01*
X-472217Y900229D01*
X-470771Y898783D01*
X-468999Y897759D01*
X-467023Y897230D01*
X-464977D01*
X-463001Y897759D01*
X-461229Y898783D01*
X-459782Y900229D01*
X-458759Y902001D01*
X-458230Y903977D01*
Y906023D01*
X-458759Y907999D01*
X-459782Y909771D01*
X-461229Y911217D01*
X-463001Y912241D01*
X-464977Y912770D01*
D02*
G37*
G36*
X-505352Y917520D02*
X-508648D01*
X-511833Y916667D01*
X-514687Y915018D01*
X-517019Y912687D01*
X-518667Y909833D01*
X-519520Y906648D01*
Y903352D01*
X-518667Y900167D01*
X-517019Y897313D01*
X-514687Y894982D01*
X-511833Y893333D01*
X-508648Y892480D01*
X-505352D01*
X-502168Y893333D01*
X-499313Y894982D01*
X-496982Y897313D01*
X-495333Y900167D01*
X-494699Y902536D01*
X-493384D01*
X-493241Y902001D01*
X-492218Y900229D01*
X-490771Y898783D01*
X-488999Y897759D01*
X-487023Y897230D01*
X-484977D01*
X-483001Y897759D01*
X-481229Y898783D01*
X-479782Y900229D01*
X-478759Y902001D01*
X-478230Y903977D01*
Y906023D01*
X-478759Y907999D01*
X-479782Y909771D01*
X-481229Y911217D01*
X-483001Y912241D01*
X-484977Y912770D01*
X-487023D01*
X-488999Y912241D01*
X-490771Y911217D01*
X-492218Y909771D01*
X-493241Y907999D01*
X-493384Y907464D01*
X-494699D01*
X-495333Y909833D01*
X-496982Y912687D01*
X-499313Y915018D01*
X-502168Y916667D01*
X-505352Y917520D01*
D02*
G37*
G36*
X472849Y902270D02*
X471151D01*
X469581Y901620D01*
X468380Y900419D01*
X467730Y898849D01*
Y897151D01*
X468380Y895581D01*
X469581Y894380D01*
X471151Y893730D01*
X472849D01*
X474419Y894380D01*
X475620Y895581D01*
X476270Y897151D01*
Y898849D01*
X475620Y900419D01*
X474419Y901620D01*
X472849Y902270D01*
D02*
G37*
G36*
X462849D02*
X461151D01*
X459581Y901620D01*
X458380Y900419D01*
X457730Y898849D01*
Y897151D01*
X458380Y895581D01*
X459581Y894380D01*
X461151Y893730D01*
X462849D01*
X464419Y894380D01*
X465620Y895581D01*
X466270Y897151D01*
Y898849D01*
X465620Y900419D01*
X464419Y901620D01*
X462849Y902270D01*
D02*
G37*
G36*
X450849D02*
X449151D01*
X447581Y901620D01*
X446380Y900419D01*
X445730Y898849D01*
Y897151D01*
X446380Y895581D01*
X447581Y894380D01*
X449151Y893730D01*
X450849D01*
X452419Y894380D01*
X453620Y895581D01*
X454270Y897151D01*
Y898849D01*
X453620Y900419D01*
X452419Y901620D01*
X450849Y902270D01*
D02*
G37*
G36*
X-19805Y911075D02*
X-22195D01*
X-24503Y910456D01*
X-26572Y909262D01*
X-28262Y907572D01*
X-29457Y905503D01*
X-30075Y903195D01*
Y900805D01*
X-29457Y898497D01*
X-28262Y896428D01*
X-26572Y894738D01*
X-24503Y893543D01*
X-22195Y892925D01*
X-19805D01*
X-17497Y893543D01*
X-15428Y894738D01*
X-13738Y896428D01*
X-12543Y898497D01*
X-11925Y900805D01*
Y903195D01*
X-12543Y905503D01*
X-13738Y907572D01*
X-15428Y909262D01*
X-17497Y910456D01*
X-19805Y911075D01*
D02*
G37*
G36*
X-116805D02*
X-119195D01*
X-121503Y910456D01*
X-123572Y909262D01*
X-125262Y907572D01*
X-126456Y905503D01*
X-127075Y903195D01*
Y900805D01*
X-126456Y898497D01*
X-125262Y896428D01*
X-123572Y894738D01*
X-121503Y893543D01*
X-119195Y892925D01*
X-116805D01*
X-114497Y893543D01*
X-112428Y894738D01*
X-110738Y896428D01*
X-109543Y898497D01*
X-108925Y900805D01*
Y903195D01*
X-109543Y905503D01*
X-110738Y907572D01*
X-112428Y909262D01*
X-114497Y910456D01*
X-116805Y911075D01*
D02*
G37*
G36*
X-342151Y895270D02*
X-343849D01*
X-345419Y894620D01*
X-346620Y893419D01*
X-347270Y891849D01*
Y890151D01*
X-346620Y888581D01*
X-345419Y887380D01*
X-343849Y886730D01*
X-342151D01*
X-340581Y887380D01*
X-339380Y888581D01*
X-338730Y890151D01*
Y891849D01*
X-339380Y893419D01*
X-340581Y894620D01*
X-342151Y895270D01*
D02*
G37*
G36*
X-392151Y889270D02*
X-393849D01*
X-395419Y888620D01*
X-396620Y887419D01*
X-397270Y885849D01*
Y884151D01*
X-396620Y882581D01*
X-395419Y881380D01*
X-393849Y880730D01*
X-392151D01*
X-390581Y881380D01*
X-389380Y882581D01*
X-388730Y884151D01*
Y885849D01*
X-389380Y887419D01*
X-390581Y888620D01*
X-392151Y889270D01*
D02*
G37*
G36*
X581970Y920000D02*
X578030D01*
X574166Y919231D01*
X570526Y917724D01*
X567251Y915535D01*
X564465Y912749D01*
X562276Y909473D01*
X560769Y905834D01*
X560000Y901970D01*
Y898030D01*
X560769Y894166D01*
X562276Y890526D01*
X564465Y887251D01*
X567251Y884465D01*
X570526Y882276D01*
X574166Y880769D01*
X578030Y880000D01*
X581970D01*
X585834Y880769D01*
X589473Y882276D01*
X592749Y884465D01*
X595535Y887251D01*
X597724Y890526D01*
X599231Y894166D01*
X600000Y898030D01*
Y901970D01*
X599231Y905834D01*
X597724Y909473D01*
X595535Y912749D01*
X592749Y915535D01*
X589473Y917724D01*
X585834Y919231D01*
X581970Y920000D01*
D02*
G37*
G36*
X-578030D02*
X-581970D01*
X-585834Y919231D01*
X-589474Y917724D01*
X-592749Y915535D01*
X-595535Y912749D01*
X-597724Y909473D01*
X-599231Y905834D01*
X-600000Y901970D01*
Y898030D01*
X-599231Y894166D01*
X-597724Y890526D01*
X-595535Y887251D01*
X-592749Y884465D01*
X-589474Y882276D01*
X-585834Y880769D01*
X-581970Y880000D01*
X-578030D01*
X-574166Y880769D01*
X-570527Y882276D01*
X-567251Y884465D01*
X-564465Y887251D01*
X-562276Y890526D01*
X-560769Y894166D01*
X-560000Y898030D01*
Y901970D01*
X-560769Y905834D01*
X-562276Y909473D01*
X-564465Y912749D01*
X-567251Y915535D01*
X-570527Y917724D01*
X-574166Y919231D01*
X-578030Y920000D01*
D02*
G37*
G36*
X196849Y890270D02*
X195151D01*
X193581Y889620D01*
X192380Y888419D01*
X191730Y886849D01*
Y885151D01*
X192380Y883581D01*
X193581Y882380D01*
X195151Y881730D01*
X196849D01*
X198419Y882380D01*
X198924Y881320D01*
X199118Y880852D01*
X200319Y879650D01*
X201889Y879000D01*
X203587D01*
X205157Y879650D01*
X206358Y880852D01*
X207008Y882421D01*
Y884120D01*
X206358Y885689D01*
X205157Y886890D01*
X203587Y887540D01*
X201889D01*
X200319Y886890D01*
X199814Y887951D01*
X199620Y888419D01*
X198419Y889620D01*
X196849Y890270D01*
D02*
G37*
G36*
X67119Y890020D02*
X65421D01*
X63851Y889370D01*
X62650Y888168D01*
X62000Y886599D01*
Y884900D01*
X62650Y883331D01*
X63851Y882130D01*
X65421Y881480D01*
X67119D01*
X68689Y882130D01*
X69180Y881063D01*
X69380Y880581D01*
X70581Y879380D01*
X72151Y878730D01*
X73849D01*
X75419Y879380D01*
X76620Y880581D01*
X77076Y881683D01*
X77270Y882151D01*
X78444Y881919D01*
X78444Y881293D01*
X78985Y879986D01*
X79986Y878985D01*
X81293Y878444D01*
X82707D01*
X84014Y878985D01*
X85015Y879986D01*
X85556Y881293D01*
Y882707D01*
X85015Y884014D01*
X84014Y885015D01*
X82707Y885556D01*
X81293D01*
X79986Y885015D01*
X78985Y884014D01*
X78444Y882707D01*
X77270Y882939D01*
X77270Y883347D01*
Y883849D01*
X76620Y885419D01*
X75419Y886620D01*
X73849Y887270D01*
X72151D01*
X70581Y886620D01*
X70090Y887686D01*
X69890Y888168D01*
X68689Y889370D01*
X67119Y890020D01*
D02*
G37*
G36*
X53707Y885556D02*
X52293D01*
X50986Y885015D01*
X49985Y884014D01*
X49444Y882707D01*
Y881293D01*
X49985Y879986D01*
X50986Y878985D01*
X52293Y878444D01*
X53707D01*
X55014Y878985D01*
X56015Y879986D01*
X56556Y881293D01*
Y882707D01*
X56015Y884014D01*
X55014Y885015D01*
X53707Y885556D01*
D02*
G37*
G36*
X164750Y885344D02*
X161250D01*
X159779Y885051D01*
X158532Y884218D01*
X157699Y882971D01*
X157406Y881500D01*
X157699Y880029D01*
X158532Y878782D01*
X159779Y877949D01*
X161250Y877656D01*
X164750D01*
X166221Y877949D01*
X167468Y878782D01*
X168301Y880029D01*
X168594Y881500D01*
X168301Y882971D01*
X167468Y884218D01*
X166221Y885051D01*
X164750Y885344D01*
D02*
G37*
G36*
X33250D02*
X29750D01*
X28279Y885051D01*
X27032Y884218D01*
X26199Y882971D01*
X25906Y881500D01*
X26199Y880029D01*
X27032Y878782D01*
X28279Y877949D01*
X29750Y877656D01*
X33250D01*
X34721Y877949D01*
X35968Y878782D01*
X36801Y880029D01*
X37094Y881500D01*
X36801Y882971D01*
X35968Y884218D01*
X34721Y885051D01*
X33250Y885344D01*
D02*
G37*
G36*
X213707Y884556D02*
X212293D01*
X210986Y884015D01*
X209985Y883014D01*
X209444Y881707D01*
Y880293D01*
X209985Y878986D01*
X210986Y877985D01*
X212293Y877444D01*
X213707D01*
X215014Y877985D01*
X216015Y878986D01*
X216556Y880293D01*
Y881707D01*
X216015Y883014D01*
X215014Y884015D01*
X213707Y884556D01*
D02*
G37*
G36*
X235849Y885770D02*
X234151D01*
X232581Y885120D01*
X231380Y883919D01*
X230730Y882349D01*
Y880651D01*
X231380Y879081D01*
X232581Y877880D01*
X234151Y877230D01*
X235849D01*
X237419Y877880D01*
X238620Y879081D01*
X239270Y880651D01*
Y882349D01*
X238620Y883919D01*
X237419Y885120D01*
X235849Y885770D01*
D02*
G37*
G36*
X104349D02*
X102651D01*
X101081Y885120D01*
X99880Y883919D01*
X99230Y882349D01*
Y880651D01*
X99880Y879081D01*
X101081Y877880D01*
X102651Y877230D01*
X104349D01*
X105919Y877880D01*
X107120Y879081D01*
X107770Y880651D01*
Y882349D01*
X107120Y883919D01*
X105919Y885120D01*
X104349Y885770D01*
D02*
G37*
G36*
X184707Y883556D02*
X183293D01*
X181986Y883015D01*
X180985Y882014D01*
X180444Y880707D01*
Y879293D01*
X180985Y877986D01*
X181986Y876985D01*
X183293Y876444D01*
X184707D01*
X186014Y876985D01*
X187015Y877986D01*
X187556Y879293D01*
Y880707D01*
X187015Y882014D01*
X186014Y883015D01*
X184707Y883556D01*
D02*
G37*
G36*
X310686Y891490D02*
X308987D01*
X307418Y890840D01*
X306217Y889639D01*
X305567Y888070D01*
Y886371D01*
X306217Y884802D01*
X307418Y883600D01*
X308987Y882950D01*
X310686D01*
X311229Y883175D01*
X311501Y882961D01*
X312075Y882151D01*
X311536Y880849D01*
Y879151D01*
X312186Y877581D01*
X313387Y876380D01*
X314957Y875730D01*
X316655D01*
X318225Y876380D01*
X319426Y877581D01*
X320076Y879151D01*
Y880849D01*
X319426Y882419D01*
X318225Y883620D01*
X316655Y884270D01*
X314957D01*
X314413Y884045D01*
X314142Y884259D01*
X313568Y885069D01*
X314107Y886371D01*
Y888070D01*
X313457Y889639D01*
X312255Y890840D01*
X310686Y891490D01*
D02*
G37*
G36*
X381849Y884540D02*
X380151D01*
X378581Y883890D01*
X377380Y882689D01*
X376730Y881119D01*
Y879421D01*
X376958Y878871D01*
X376836Y877613D01*
X376305Y877381D01*
X375265Y876951D01*
X374064Y875750D01*
X373414Y874180D01*
Y872481D01*
X374064Y870912D01*
X375265Y869711D01*
X376835Y869061D01*
X378533D01*
X380103Y869711D01*
X381304Y870912D01*
X381954Y872481D01*
Y874180D01*
X381726Y874730D01*
X381848Y875987D01*
X382379Y876219D01*
X383419Y876650D01*
X384620Y877851D01*
X385270Y879421D01*
Y881119D01*
X384620Y882689D01*
X383419Y883890D01*
X381849Y884540D01*
D02*
G37*
G36*
X301050Y871320D02*
X299351D01*
X297782Y870670D01*
X296580Y869468D01*
X295930Y867899D01*
Y866200D01*
X296580Y864631D01*
X297782Y863430D01*
X299351Y862780D01*
X301050D01*
X302619Y863430D01*
X303820Y864631D01*
X304470Y866200D01*
Y867899D01*
X303820Y869468D01*
X302619Y870670D01*
X301050Y871320D01*
D02*
G37*
G36*
X525849Y871270D02*
X524151D01*
X522581Y870620D01*
X521380Y869419D01*
X520730Y867849D01*
Y866151D01*
X521380Y864581D01*
X522581Y863380D01*
X524151Y862730D01*
X525849D01*
X527419Y863380D01*
X528620Y864581D01*
X529270Y866151D01*
Y867849D01*
X528620Y869419D01*
X527419Y870620D01*
X525849Y871270D01*
D02*
G37*
G36*
X515849D02*
X514151D01*
X512581Y870620D01*
X511380Y869419D01*
X510730Y867849D01*
Y866151D01*
X511380Y864581D01*
X512581Y863380D01*
X514151Y862730D01*
X515849D01*
X517419Y863380D01*
X518620Y864581D01*
X519270Y866151D01*
Y867849D01*
X518620Y869419D01*
X517419Y870620D01*
X515849Y871270D01*
D02*
G37*
G36*
X354099Y881520D02*
X352401D01*
X350831Y880870D01*
X349630Y879669D01*
X348980Y878099D01*
Y876401D01*
X349630Y874831D01*
X350500Y873961D01*
X350565Y872897D01*
X350397Y872435D01*
X349380Y871419D01*
X348730Y869849D01*
Y868151D01*
X349380Y866581D01*
X350397Y865565D01*
X350564Y865103D01*
X350500Y864039D01*
X349630Y863169D01*
X348980Y861599D01*
Y859901D01*
X349630Y858331D01*
X350574Y857388D01*
X350729Y856625D01*
X350574Y855862D01*
X349630Y854919D01*
X348980Y853349D01*
Y851651D01*
X349630Y850081D01*
X350831Y848880D01*
X352401Y848230D01*
X354099D01*
X355669Y848880D01*
X356870Y850081D01*
X357520Y851651D01*
Y853349D01*
X356870Y854919D01*
X355926Y855862D01*
X355771Y856625D01*
X355926Y857388D01*
X356870Y858331D01*
X357520Y859901D01*
Y861599D01*
X356870Y863169D01*
X355853Y864185D01*
X355686Y864647D01*
X355750Y865711D01*
X356539Y866500D01*
X357250Y866543D01*
X357961Y866500D01*
X359081Y865380D01*
X360651Y864730D01*
X362349D01*
X363919Y865380D01*
X364686Y866147D01*
X365944Y865610D01*
Y864421D01*
X366595Y862851D01*
X367796Y861650D01*
X369365Y861000D01*
X371064D01*
X372633Y861650D01*
X373834Y862851D01*
X374484Y864421D01*
Y866119D01*
X373834Y867689D01*
X372633Y868890D01*
X371064Y869540D01*
X369365D01*
X367796Y868890D01*
X367028Y868123D01*
X365770Y868660D01*
Y869849D01*
X365120Y871419D01*
X363919Y872620D01*
X362349Y873270D01*
X360651D01*
X359081Y872620D01*
X357961Y871500D01*
X357250Y871457D01*
X356539Y871500D01*
X355750Y872289D01*
X355685Y873353D01*
X355853Y873815D01*
X356870Y874831D01*
X357520Y876401D01*
Y878099D01*
X356870Y879669D01*
X355669Y880870D01*
X354099Y881520D01*
D02*
G37*
G36*
X-392151Y868270D02*
X-393849D01*
X-395419Y867620D01*
X-396620Y866419D01*
X-397270Y864849D01*
Y863151D01*
X-396620Y861581D01*
X-395419Y860380D01*
X-393849Y859730D01*
X-392151D01*
X-390581Y860380D01*
X-389380Y861581D01*
X-388730Y863151D01*
Y864849D01*
X-389380Y866419D01*
X-390581Y867620D01*
X-392151Y868270D01*
D02*
G37*
G36*
X439349Y867770D02*
X437651D01*
X436081Y867120D01*
X434880Y865919D01*
X434230Y864349D01*
Y862651D01*
X434880Y861081D01*
X436081Y859880D01*
X437651Y859230D01*
X439349D01*
X440919Y859880D01*
X442120Y861081D01*
X442770Y862651D01*
Y864349D01*
X442120Y865919D01*
X440919Y867120D01*
X439349Y867770D01*
D02*
G37*
G36*
X-245151Y866270D02*
X-246849D01*
X-248419Y865620D01*
X-249620Y864419D01*
X-250270Y862849D01*
Y861151D01*
X-249620Y859581D01*
X-248419Y858380D01*
X-246849Y857730D01*
X-245151D01*
X-243581Y858380D01*
X-242380Y859581D01*
X-241730Y861151D01*
Y862849D01*
X-242380Y864419D01*
X-243581Y865620D01*
X-245151Y866270D01*
D02*
G37*
G36*
X259849Y864270D02*
X258151D01*
X256581Y863620D01*
X255380Y862419D01*
X254730Y860849D01*
Y859151D01*
X255380Y857581D01*
X256581Y856380D01*
X258151Y855730D01*
X259849D01*
X261419Y856380D01*
X262620Y857581D01*
X263270Y859151D01*
Y860849D01*
X262620Y862419D01*
X261419Y863620D01*
X259849Y864270D01*
D02*
G37*
G36*
X242200Y874333D02*
X242167Y874328D01*
X237200D01*
X235433Y874096D01*
X233786Y873414D01*
X232372Y872328D01*
X231286Y870914D01*
X230604Y869267D01*
X230372Y867500D01*
X230604Y865733D01*
X231286Y864086D01*
X232372Y862672D01*
X233786Y861586D01*
X234867Y861139D01*
Y856000D01*
X235117Y854102D01*
X235850Y852334D01*
X237015Y850815D01*
X238534Y849650D01*
X240302Y848917D01*
X242200Y848667D01*
X244098Y848917D01*
X245866Y849650D01*
X247385Y850815D01*
X248550Y852334D01*
X249283Y854102D01*
X249533Y856000D01*
Y867000D01*
X249498Y867266D01*
X249528Y867500D01*
X249296Y869267D01*
X248614Y870914D01*
X247528Y872328D01*
X246114Y873414D01*
X244467Y874096D01*
X242700Y874328D01*
X242233D01*
X242200Y874333D01*
D02*
G37*
G36*
X155800D02*
X155767Y874328D01*
X155300D01*
X153533Y874096D01*
X151886Y873414D01*
X150472Y872328D01*
X149386Y870914D01*
X148704Y869267D01*
X148472Y867500D01*
X148502Y867266D01*
X148467Y867000D01*
Y856000D01*
X148717Y854102D01*
X149450Y852334D01*
X150615Y850815D01*
X152134Y849650D01*
X153902Y848917D01*
X155800Y848667D01*
X157698Y848917D01*
X159466Y849650D01*
X160985Y850815D01*
X162150Y852334D01*
X162883Y854102D01*
X163133Y856000D01*
Y861139D01*
X164214Y861586D01*
X165628Y862672D01*
X166714Y864086D01*
X167396Y865733D01*
X167628Y867500D01*
X167396Y869267D01*
X166714Y870914D01*
X165628Y872328D01*
X164214Y873414D01*
X162567Y874096D01*
X160800Y874328D01*
X155833D01*
X155800Y874333D01*
D02*
G37*
G36*
X110700D02*
X110667Y874328D01*
X105700D01*
X103933Y874096D01*
X102286Y873414D01*
X100872Y872328D01*
X99786Y870914D01*
X99104Y869267D01*
X98872Y867500D01*
X99104Y865733D01*
X99786Y864086D01*
X100872Y862672D01*
X102286Y861586D01*
X103367Y861138D01*
Y856000D01*
X103617Y854102D01*
X104350Y852334D01*
X105515Y850815D01*
X107034Y849650D01*
X108802Y848917D01*
X110700Y848667D01*
X112598Y848917D01*
X114366Y849650D01*
X115885Y850815D01*
X117050Y852334D01*
X117783Y854102D01*
X118033Y856000D01*
Y867000D01*
X117998Y867266D01*
X118028Y867500D01*
X117796Y869267D01*
X117114Y870914D01*
X116028Y872328D01*
X114614Y873414D01*
X112967Y874096D01*
X111200Y874328D01*
X110733D01*
X110700Y874333D01*
D02*
G37*
G36*
X24300D02*
X24267Y874328D01*
X23800D01*
X22033Y874096D01*
X20386Y873414D01*
X18972Y872328D01*
X17886Y870914D01*
X17204Y869267D01*
X16972Y867500D01*
X17002Y867266D01*
X16967Y867000D01*
Y856000D01*
X17217Y854102D01*
X17950Y852334D01*
X19115Y850815D01*
X20634Y849650D01*
X22402Y848917D01*
X24300Y848667D01*
X26198Y848917D01*
X27966Y849650D01*
X29485Y850815D01*
X30650Y852334D01*
X31383Y854102D01*
X31633Y856000D01*
Y861138D01*
X32714Y861586D01*
X34128Y862672D01*
X35214Y864086D01*
X35896Y865733D01*
X36128Y867500D01*
X35896Y869267D01*
X35214Y870914D01*
X34128Y872328D01*
X32714Y873414D01*
X31067Y874096D01*
X29300Y874328D01*
X24333D01*
X24300Y874333D01*
D02*
G37*
G36*
X439349Y856770D02*
X437651D01*
X436081Y856120D01*
X434880Y854919D01*
X434230Y853349D01*
Y851651D01*
X434880Y850081D01*
X436081Y848880D01*
X437651Y848230D01*
X439349D01*
X440919Y848880D01*
X442120Y850081D01*
X442770Y851651D01*
Y853349D01*
X442120Y854919D01*
X440919Y856120D01*
X439349Y856770D01*
D02*
G37*
G36*
X381599D02*
X379901D01*
X378331Y856120D01*
X377130Y854919D01*
X376480Y853349D01*
Y851651D01*
X377130Y850081D01*
X378331Y848880D01*
X379901Y848230D01*
X381599D01*
X383169Y848880D01*
X384370Y850081D01*
X385020Y851651D01*
Y853349D01*
X384370Y854919D01*
X383169Y856120D01*
X381599Y856770D01*
D02*
G37*
G36*
X559849Y855270D02*
X558151D01*
X556581Y854620D01*
X555380Y853419D01*
X554730Y851849D01*
Y850151D01*
X555380Y848581D01*
X556581Y847380D01*
X558151Y846730D01*
X559849D01*
X561419Y847380D01*
X562620Y848581D01*
X563270Y850151D01*
Y851849D01*
X562620Y853419D01*
X561419Y854620D01*
X559849Y855270D01*
D02*
G37*
G36*
X-218151D02*
X-219849D01*
X-221419Y854620D01*
X-222620Y853419D01*
X-223270Y851849D01*
Y850151D01*
X-222620Y848581D01*
X-221419Y847380D01*
X-219849Y846730D01*
X-218151D01*
X-216581Y847380D01*
X-215380Y848581D01*
X-214730Y850151D01*
Y851849D01*
X-215380Y853419D01*
X-216581Y854620D01*
X-218151Y855270D01*
D02*
G37*
G36*
X139849Y854270D02*
X138151D01*
X136581Y853620D01*
X135380Y852419D01*
X134730Y850849D01*
Y849151D01*
X135380Y847581D01*
X136581Y846380D01*
X138151Y845730D01*
X139849D01*
X141419Y846380D01*
X142620Y847581D01*
X143270Y849151D01*
Y850849D01*
X142620Y852419D01*
X141419Y853620D01*
X139849Y854270D01*
D02*
G37*
G36*
X192849Y847270D02*
X191151D01*
X189581Y846620D01*
X188380Y845419D01*
X187183Y845846D01*
X187014Y846015D01*
X185707Y846556D01*
X184293D01*
X182986Y846015D01*
X181985Y845014D01*
X181444Y843707D01*
Y842293D01*
X181985Y840986D01*
X182986Y839985D01*
X184293Y839444D01*
X185707D01*
X187014Y839985D01*
X187183Y840154D01*
X188380Y840581D01*
X189581Y839380D01*
X191151Y838730D01*
X192849D01*
X194419Y839380D01*
X195620Y840581D01*
X196270Y842151D01*
Y843849D01*
X195620Y845419D01*
X194419Y846620D01*
X192849Y847270D01*
D02*
G37*
G36*
X85707Y848862D02*
X84293D01*
X82986Y848321D01*
X81985Y847320D01*
X81444Y846013D01*
Y844599D01*
X81985Y843292D01*
X82986Y842291D01*
X84293Y841750D01*
X85707D01*
X87014Y842291D01*
X88015Y843292D01*
X88556Y844599D01*
Y846013D01*
X88015Y847320D01*
X87014Y848321D01*
X85707Y848862D01*
D02*
G37*
G36*
X-412151Y850270D02*
X-413849D01*
X-415419Y849620D01*
X-416620Y848419D01*
X-417270Y846849D01*
Y845151D01*
X-416620Y843581D01*
X-415419Y842380D01*
X-413849Y841730D01*
X-412151D01*
X-410581Y842380D01*
X-409380Y843581D01*
X-408730Y845151D01*
Y846849D01*
X-409380Y848419D01*
X-410581Y849620D01*
X-412151Y850270D01*
D02*
G37*
G36*
X-33151Y849270D02*
X-34849D01*
X-36419Y848620D01*
X-37620Y847419D01*
X-38270Y845849D01*
Y844151D01*
X-37620Y842581D01*
X-36419Y841380D01*
X-34849Y840730D01*
X-33151D01*
X-31581Y841380D01*
X-30380Y842581D01*
X-29730Y844151D01*
Y845849D01*
X-30380Y847419D01*
X-31581Y848620D01*
X-33151Y849270D01*
D02*
G37*
G36*
X53707Y847556D02*
X52293D01*
X50986Y847015D01*
X49985Y846014D01*
X49444Y844707D01*
Y843293D01*
X49985Y841986D01*
X50986Y840985D01*
X52293Y840444D01*
X53707D01*
X55014Y840985D01*
X56015Y841986D01*
X56556Y843293D01*
Y844707D01*
X56015Y846014D01*
X55014Y847015D01*
X53707Y847556D01*
D02*
G37*
G36*
X525849Y848270D02*
X524151D01*
X522581Y847620D01*
X521380Y846419D01*
X520730Y844849D01*
Y843151D01*
X521380Y841581D01*
X522581Y840380D01*
X524151Y839730D01*
X525849D01*
X527419Y840380D01*
X528620Y841581D01*
X529270Y843151D01*
Y844849D01*
X528620Y846419D01*
X527419Y847620D01*
X525849Y848270D01*
D02*
G37*
G36*
X-53151D02*
X-54849D01*
X-56419Y847620D01*
X-57620Y846419D01*
X-58270Y844849D01*
Y843151D01*
X-57620Y841581D01*
X-56419Y840380D01*
X-54849Y839730D01*
X-53151D01*
X-51581Y840380D01*
X-50380Y841581D01*
X-49730Y843151D01*
Y844849D01*
X-50380Y846419D01*
X-51581Y847620D01*
X-53151Y848270D01*
D02*
G37*
G36*
X214707Y846556D02*
X213293D01*
X211986Y846015D01*
X210985Y845014D01*
X210444Y843707D01*
Y842293D01*
X210985Y840986D01*
X211986Y839985D01*
X213293Y839444D01*
X214707D01*
X216014Y839985D01*
X217015Y840986D01*
X217556Y842293D01*
Y843707D01*
X217015Y845014D01*
X216014Y846015D01*
X214707Y846556D01*
D02*
G37*
G36*
X73300Y847720D02*
X71601D01*
X70032Y847070D01*
X68830Y845869D01*
X68180Y844300D01*
Y842601D01*
X68830Y841032D01*
X70032Y839830D01*
X71601Y839180D01*
X73300D01*
X74869Y839830D01*
X76070Y841032D01*
X76720Y842601D01*
Y844300D01*
X76070Y845869D01*
X74869Y847070D01*
X73300Y847720D01*
D02*
G37*
G36*
X568849Y847270D02*
X567151D01*
X565581Y846620D01*
X564380Y845419D01*
X563730Y843849D01*
Y842151D01*
X564380Y840581D01*
X565581Y839380D01*
X567151Y838730D01*
X568849D01*
X570419Y839380D01*
X571620Y840581D01*
X572270Y842151D01*
Y843849D01*
X571620Y845419D01*
X570419Y846620D01*
X568849Y847270D01*
D02*
G37*
G36*
X-233151Y845270D02*
X-234849D01*
X-236419Y844620D01*
X-237620Y843419D01*
X-238270Y841849D01*
Y840151D01*
X-237620Y838581D01*
X-236419Y837380D01*
X-234849Y836730D01*
X-233151D01*
X-231581Y837380D01*
X-230380Y838581D01*
X-229730Y840151D01*
Y841849D01*
X-230380Y843419D01*
X-231581Y844620D01*
X-233151Y845270D01*
D02*
G37*
G36*
X559849Y841250D02*
X558151D01*
X556581Y840600D01*
X555380Y839399D01*
X554730Y837829D01*
Y836131D01*
X555380Y834561D01*
X556581Y833360D01*
X558151Y832710D01*
X559849D01*
X561419Y833360D01*
X562620Y834561D01*
X563270Y836131D01*
Y837829D01*
X562620Y839399D01*
X561419Y840600D01*
X559849Y841250D01*
D02*
G37*
G36*
X354099Y840270D02*
X352401D01*
X350831Y839620D01*
X349630Y838419D01*
X348980Y836849D01*
Y835151D01*
X349630Y833581D01*
X350831Y832380D01*
X352401Y831730D01*
X354099D01*
X355669Y832380D01*
X356870Y833581D01*
X357520Y835151D01*
Y836849D01*
X356870Y838419D01*
X355669Y839620D01*
X354099Y840270D01*
D02*
G37*
G36*
X273869Y862492D02*
X272171D01*
X270601Y861842D01*
X269400Y860641D01*
X268750Y859072D01*
Y857373D01*
X269400Y855804D01*
X270601Y854603D01*
X272171Y853952D01*
X273095D01*
X273406Y853488D01*
Y851789D01*
X274056Y850220D01*
X275257Y849019D01*
X276739Y848405D01*
X277830Y847719D01*
Y846021D01*
X278480Y844451D01*
X279681Y843250D01*
X281250Y842600D01*
X282057D01*
X282997Y842399D01*
X283230Y841426D01*
Y840651D01*
X283880Y839081D01*
X285081Y837880D01*
X286651Y837230D01*
X287557D01*
X288443Y836943D01*
X288730Y836057D01*
Y835151D01*
X289380Y833581D01*
X290581Y832380D01*
X292151Y831730D01*
X293849D01*
X295419Y832380D01*
X296620Y833581D01*
X297270Y835151D01*
Y836849D01*
X296620Y838419D01*
X295419Y839620D01*
X293849Y840270D01*
X292943D01*
X292057Y840557D01*
X291770Y841443D01*
Y842349D01*
X291120Y843919D01*
X289919Y845120D01*
X288349Y845770D01*
X287543D01*
X286603Y845971D01*
X286370Y846943D01*
Y847719D01*
X285720Y849289D01*
X284519Y850490D01*
X283036Y851104D01*
X281946Y851789D01*
Y853488D01*
X281296Y855057D01*
X280094Y856258D01*
X278525Y856909D01*
X277600D01*
X277290Y857373D01*
Y859072D01*
X276640Y860641D01*
X275439Y861842D01*
X273869Y862492D01*
D02*
G37*
G36*
X278849Y838270D02*
X277151D01*
X275581Y837620D01*
X274380Y836419D01*
X273730Y834849D01*
Y833151D01*
X274380Y831581D01*
X275581Y830380D01*
X277151Y829730D01*
X278849D01*
X280419Y830380D01*
X281620Y831581D01*
X282270Y833151D01*
Y834849D01*
X281620Y836419D01*
X280419Y837620D01*
X278849Y838270D01*
D02*
G37*
G36*
X568849Y835302D02*
X567151D01*
X565581Y834652D01*
X564380Y833451D01*
X563730Y831881D01*
Y830183D01*
X564380Y828613D01*
X565581Y827412D01*
X567151Y826762D01*
X568849D01*
X570419Y827412D01*
X571620Y828613D01*
X572270Y830183D01*
Y831881D01*
X571620Y833451D01*
X570419Y834652D01*
X568849Y835302D01*
D02*
G37*
G36*
X525849Y835270D02*
X524151D01*
X522581Y834620D01*
X521380Y833419D01*
X520730Y831849D01*
Y830151D01*
X521380Y828581D01*
X522581Y827380D01*
X524151Y826730D01*
X525849D01*
X527419Y827380D01*
X528620Y828581D01*
X529270Y830151D01*
Y831849D01*
X528620Y833419D01*
X527419Y834620D01*
X525849Y835270D01*
D02*
G37*
G36*
X100707Y836556D02*
X99293D01*
X97986Y836015D01*
X96985Y835014D01*
X96444Y833707D01*
Y832293D01*
X96985Y830986D01*
X97700Y830271D01*
X97875Y829500D01*
X97700Y828729D01*
X96985Y828014D01*
X96444Y826707D01*
Y825293D01*
X96985Y823986D01*
X97986Y822985D01*
X99293Y822444D01*
X100707D01*
X102014Y822985D01*
X102729Y823700D01*
X103500Y823875D01*
X104271Y823700D01*
X104986Y822985D01*
X106293Y822444D01*
X107707D01*
X109014Y822985D01*
X110015Y823986D01*
X110556Y825293D01*
Y826707D01*
X110015Y828014D01*
X109014Y829015D01*
X107707Y829556D01*
X106293D01*
X104986Y829015D01*
X104271Y828300D01*
X103500Y828125D01*
X102729Y828300D01*
X102300Y828729D01*
X102125Y829500D01*
X102300Y830271D01*
X103015Y830986D01*
X103556Y832293D01*
Y833707D01*
X103015Y835014D01*
X102014Y836015D01*
X100707Y836556D01*
D02*
G37*
G36*
X235707Y834556D02*
X234293D01*
X232986Y834015D01*
X231985Y833014D01*
X231444Y831707D01*
Y830293D01*
X231637Y829826D01*
X230789Y828556D01*
X230293D01*
X228986Y828015D01*
X227985Y827014D01*
X227444Y825707D01*
Y824293D01*
X227985Y822986D01*
X228986Y821985D01*
X230293Y821444D01*
X231118D01*
X231370Y820174D01*
X230986Y820015D01*
X229985Y819014D01*
X229444Y817707D01*
Y816293D01*
X229637Y815826D01*
X229308Y814611D01*
X228952Y814415D01*
X227986Y814015D01*
X226985Y813014D01*
X226444Y811707D01*
Y810293D01*
X226985Y808986D01*
X227986Y807985D01*
X229293Y807444D01*
X230707D01*
X232014Y807985D01*
X232729Y808700D01*
X233500Y808875D01*
X234271Y808700D01*
X234986Y807985D01*
X236293Y807444D01*
X236374D01*
X237444Y806707D01*
X237444Y806271D01*
Y805293D01*
X237985Y803986D01*
X238276Y803695D01*
X237826Y802794D01*
X237619Y802556D01*
X236293D01*
X234986Y802015D01*
X233985Y801014D01*
X233444Y799707D01*
Y798293D01*
X233985Y796986D01*
X234986Y795985D01*
X236293Y795444D01*
X237707D01*
X239014Y795985D01*
X240015Y796986D01*
X240556Y798293D01*
Y799707D01*
X240015Y801014D01*
X239724Y801305D01*
X240174Y802206D01*
X240381Y802444D01*
X241707D01*
X243014Y802985D01*
X244015Y803986D01*
X244556Y805293D01*
Y806707D01*
X244015Y808014D01*
X243014Y809015D01*
X241707Y809556D01*
X241625D01*
X240556Y810293D01*
X240556Y810729D01*
Y811707D01*
X240363Y812174D01*
X241211Y813444D01*
X241707D01*
X243014Y813985D01*
X243693Y814664D01*
X244769Y813944D01*
X244730Y813849D01*
Y812151D01*
X245380Y810581D01*
X246581Y809380D01*
X248151Y808730D01*
X249849D01*
X251419Y809380D01*
X252620Y810581D01*
X253270Y812151D01*
Y813849D01*
X252620Y815419D01*
X251419Y816620D01*
X249849Y817270D01*
X248151D01*
X246581Y816620D01*
X245702Y815741D01*
X244817Y816167D01*
X244556Y816391D01*
Y817707D01*
X244015Y819014D01*
X243014Y820015D01*
X241707Y820556D01*
X240293D01*
X238986Y820015D01*
X237985Y819014D01*
X237687Y818295D01*
X236313D01*
X236015Y819014D01*
X235014Y820015D01*
X233707Y820556D01*
X232882D01*
X232630Y821826D01*
X233014Y821985D01*
X233729Y822700D01*
X234500Y822875D01*
X235271Y822700D01*
X235986Y821985D01*
X237293Y821444D01*
X238707D01*
X240014Y821985D01*
X241015Y822986D01*
X241556Y824293D01*
Y825707D01*
X241015Y827014D01*
X240014Y828015D01*
X239048Y828415D01*
X238692Y828611D01*
X238363Y829826D01*
X238556Y830293D01*
Y831707D01*
X238015Y833014D01*
X237014Y834015D01*
X235707Y834556D01*
D02*
G37*
G36*
X282849Y829270D02*
X281151D01*
X279581Y828620D01*
X278380Y827419D01*
X277730Y825849D01*
Y824151D01*
X278380Y822581D01*
X279581Y821380D01*
X281151Y820730D01*
X282849D01*
X284419Y821380D01*
X285620Y822581D01*
X286270Y824151D01*
Y825849D01*
X285620Y827419D01*
X284419Y828620D01*
X282849Y829270D01*
D02*
G37*
G36*
X559849Y828250D02*
X558151D01*
X556581Y827600D01*
X555380Y826399D01*
X554730Y824829D01*
Y823131D01*
X555380Y821561D01*
X556581Y820360D01*
X558151Y819710D01*
X559849D01*
X561419Y820360D01*
X562620Y821561D01*
X563270Y823131D01*
Y824829D01*
X562620Y826399D01*
X561419Y827600D01*
X559849Y828250D01*
D02*
G37*
G36*
X354099Y829270D02*
X352401D01*
X350831Y828620D01*
X349630Y827419D01*
X348980Y825849D01*
Y824151D01*
X349630Y822581D01*
X350831Y821380D01*
X352401Y820730D01*
X354099D01*
X355669Y821380D01*
X355960Y821671D01*
X356576Y821540D01*
X357305Y821220D01*
X357880Y819831D01*
X359081Y818630D01*
X360651Y817980D01*
X362349D01*
X363919Y818630D01*
X364862Y819574D01*
X365625Y819729D01*
X366388Y819574D01*
X367331Y818630D01*
X368901Y817980D01*
X370599D01*
X372169Y818630D01*
X373370Y819831D01*
X374020Y821401D01*
Y823099D01*
X373370Y824669D01*
X372169Y825870D01*
X370599Y826520D01*
X368901D01*
X367331Y825870D01*
X366388Y824927D01*
X365625Y824771D01*
X364862Y824927D01*
X363919Y825870D01*
X362349Y826520D01*
X360651D01*
X359081Y825870D01*
X358790Y825579D01*
X358174Y825710D01*
X357445Y826030D01*
X356870Y827419D01*
X355669Y828620D01*
X354099Y829270D01*
D02*
G37*
G36*
X255119Y826270D02*
X253421D01*
X251851Y825620D01*
X250650Y824419D01*
X250000Y822849D01*
Y821151D01*
X250650Y819581D01*
X251851Y818380D01*
X253421Y817730D01*
X255119D01*
X256689Y818380D01*
X257890Y819581D01*
X258540Y821151D01*
Y822849D01*
X257890Y824419D01*
X256689Y825620D01*
X255119Y826270D01*
D02*
G37*
G36*
X568849Y822302D02*
X567151D01*
X565581Y821652D01*
X564380Y820451D01*
X563730Y818881D01*
Y817183D01*
X564380Y815613D01*
X565581Y814412D01*
X567151Y813762D01*
X568849D01*
X570419Y814412D01*
X571620Y815613D01*
X572270Y817183D01*
Y818881D01*
X571620Y820451D01*
X570419Y821652D01*
X568849Y822302D01*
D02*
G37*
G36*
X525849Y822270D02*
X524151D01*
X522581Y821620D01*
X521380Y820419D01*
X520730Y818849D01*
Y817151D01*
X521380Y815581D01*
X522581Y814380D01*
X524151Y813730D01*
X525849D01*
X527419Y814380D01*
X528620Y815581D01*
X529270Y817151D01*
Y818849D01*
X528620Y820419D01*
X527419Y821620D01*
X525849Y822270D01*
D02*
G37*
G36*
X100707Y813556D02*
X99293D01*
X97986Y813015D01*
X97271Y812300D01*
X96500Y812125D01*
X95729Y812300D01*
X95014Y813015D01*
X93707Y813556D01*
X92293D01*
X90986Y813015D01*
X90271Y812300D01*
X89500Y812125D01*
X88729Y812300D01*
X88014Y813015D01*
X86707Y813556D01*
X85293D01*
X83986Y813015D01*
X82985Y812014D01*
X82444Y810707D01*
Y809293D01*
X82985Y807986D01*
X83700Y807271D01*
X83875Y806500D01*
X83700Y805729D01*
X82985Y805014D01*
X82444Y803707D01*
Y802293D01*
X82985Y800986D01*
X83700Y800271D01*
X83875Y799500D01*
X83700Y798729D01*
X82985Y798014D01*
X82444Y796707D01*
Y795293D01*
X82985Y793986D01*
X83986Y792985D01*
X85293Y792444D01*
X86707D01*
X88014Y792985D01*
X88729Y793700D01*
X89500Y793875D01*
X90271Y793700D01*
X90986Y792985D01*
X92293Y792444D01*
X93707D01*
X95014Y792985D01*
X95729Y793700D01*
X96500Y793875D01*
X97271Y793700D01*
X97986Y792985D01*
X99293Y792444D01*
X100707D01*
X102014Y792985D01*
X103015Y793986D01*
X103556Y795293D01*
Y796707D01*
X103015Y798014D01*
X102300Y798729D01*
X102125Y799500D01*
X102300Y800271D01*
X103015Y800986D01*
X103556Y802293D01*
Y803707D01*
X103015Y805014D01*
X102300Y805729D01*
X102125Y806500D01*
X102300Y807271D01*
X103015Y807986D01*
X103556Y809293D01*
Y810707D01*
X103015Y812014D01*
X102014Y813015D01*
X100707Y813556D01*
D02*
G37*
G36*
X392599Y821020D02*
X390901D01*
X389331Y820370D01*
X388130Y819169D01*
X387480Y817599D01*
Y816693D01*
X387193Y815807D01*
X386307Y815520D01*
X385401D01*
X383831Y814870D01*
X382630Y813669D01*
X381980Y812099D01*
Y810401D01*
X382630Y808831D01*
X383831Y807630D01*
X385401Y806980D01*
X387099D01*
X388669Y807630D01*
X389870Y808831D01*
X390520Y810401D01*
Y811307D01*
X390807Y812193D01*
X391693Y812480D01*
X392599D01*
X394169Y813130D01*
X395370Y814331D01*
X396020Y815901D01*
Y817599D01*
X395370Y819169D01*
X394169Y820370D01*
X392599Y821020D01*
D02*
G37*
G36*
X348599D02*
X346901D01*
X345331Y820370D01*
X344130Y819169D01*
X343480Y817599D01*
Y816693D01*
X343193Y815807D01*
X342307Y815520D01*
X341401D01*
X339831Y814870D01*
X338630Y813669D01*
X337980Y812099D01*
Y810401D01*
X338630Y808831D01*
X339831Y807630D01*
X341401Y806980D01*
X343099D01*
X344669Y807630D01*
X345870Y808831D01*
X346520Y810401D01*
Y811307D01*
X346807Y812193D01*
X347693Y812480D01*
X348599D01*
X350169Y813130D01*
X351370Y814331D01*
X352020Y815901D01*
Y817599D01*
X351370Y819169D01*
X350169Y820370D01*
X348599Y821020D01*
D02*
G37*
G36*
X169849Y815270D02*
X168151D01*
X166581Y814620D01*
X165380Y813419D01*
X164730Y811849D01*
Y810151D01*
X165380Y808581D01*
X166581Y807380D01*
X168151Y806730D01*
X169849D01*
X171419Y807380D01*
X172620Y808581D01*
X173270Y810151D01*
Y811849D01*
X172620Y813419D01*
X171419Y814620D01*
X169849Y815270D01*
D02*
G37*
G36*
X559849Y814250D02*
X558151D01*
X556581Y813600D01*
X555380Y812399D01*
X554730Y810829D01*
Y809131D01*
X555380Y807561D01*
X556581Y806360D01*
X558151Y805710D01*
X559849D01*
X561419Y806360D01*
X562620Y807561D01*
X563270Y809131D01*
Y810829D01*
X562620Y812399D01*
X561419Y813600D01*
X559849Y814250D01*
D02*
G37*
G36*
X568849Y809270D02*
X567151D01*
X565581Y808620D01*
X564380Y807419D01*
X563730Y805849D01*
Y804151D01*
X564380Y802581D01*
X565581Y801380D01*
X567151Y800730D01*
X568849D01*
X570419Y801380D01*
X571620Y802581D01*
X572270Y804151D01*
Y805849D01*
X571620Y807419D01*
X570419Y808620D01*
X568849Y809270D01*
D02*
G37*
G36*
X-447151Y808270D02*
X-448849D01*
X-450419Y807620D01*
X-451620Y806419D01*
X-452270Y804849D01*
Y803151D01*
X-451620Y801581D01*
X-450419Y800380D01*
X-448849Y799730D01*
X-447151D01*
X-445581Y800380D01*
X-444380Y801581D01*
X-443730Y803151D01*
Y804849D01*
X-444380Y806419D01*
X-445581Y807620D01*
X-447151Y808270D01*
D02*
G37*
G36*
X525849Y807270D02*
X524151D01*
X522581Y806620D01*
X521380Y805419D01*
X520730Y803849D01*
Y802151D01*
X521380Y800581D01*
X522581Y799380D01*
X524151Y798730D01*
X525849D01*
X527419Y799380D01*
X528620Y800581D01*
X529270Y802151D01*
Y803849D01*
X528620Y805419D01*
X527419Y806620D01*
X525849Y807270D01*
D02*
G37*
G36*
X306849Y806270D02*
X305151D01*
X303581Y805620D01*
X302380Y804419D01*
X301730Y802849D01*
Y801151D01*
X302380Y799581D01*
X303581Y798380D01*
X305151Y797730D01*
X306849D01*
X308419Y798380D01*
X309620Y799581D01*
X310270Y801151D01*
Y802849D01*
X309620Y804419D01*
X308419Y805620D01*
X306849Y806270D01*
D02*
G37*
G36*
X39849Y805270D02*
X38151D01*
X36581Y804620D01*
X35380Y803419D01*
X34730Y801849D01*
Y800151D01*
X35380Y798581D01*
X36581Y797380D01*
X38151Y796730D01*
X39849D01*
X41419Y797380D01*
X42620Y798581D01*
X43270Y800151D01*
Y801849D01*
X42620Y803419D01*
X41419Y804620D01*
X39849Y805270D01*
D02*
G37*
G36*
X2849Y799270D02*
X1151D01*
X-419Y798620D01*
X-1620Y797419D01*
X-2270Y795849D01*
Y794151D01*
X-1620Y792581D01*
X-419Y791380D01*
X1151Y790730D01*
X2849D01*
X4419Y791380D01*
X5620Y792581D01*
X6270Y794151D01*
Y795849D01*
X5620Y797419D01*
X4419Y798620D01*
X2849Y799270D01*
D02*
G37*
G36*
X624849Y796270D02*
X623151D01*
X621581Y795620D01*
X620380Y794419D01*
X619730Y792849D01*
Y791151D01*
X620380Y789581D01*
X621581Y788380D01*
X623151Y787730D01*
X624849D01*
X626419Y788380D01*
X627620Y789581D01*
X628270Y791151D01*
Y792849D01*
X627620Y794419D01*
X626419Y795620D01*
X624849Y796270D01*
D02*
G37*
G36*
X340707Y783556D02*
X339293D01*
X337986Y783015D01*
X337271Y782300D01*
X336500Y782125D01*
X335729Y782300D01*
X335014Y783015D01*
X333707Y783556D01*
X332293D01*
X330986Y783015D01*
X330271Y782300D01*
X329500Y782125D01*
X328729Y782300D01*
X328014Y783015D01*
X326707Y783556D01*
X325293D01*
X323986Y783015D01*
X322985Y782014D01*
X322444Y780707D01*
Y779293D01*
X322985Y777986D01*
X323986Y776985D01*
X324705Y776687D01*
Y775313D01*
X323986Y775015D01*
X322985Y774014D01*
X322444Y772707D01*
Y771293D01*
X322985Y769986D01*
X323986Y768985D01*
X325293Y768444D01*
X326707D01*
X328014Y768985D01*
X328729Y769700D01*
X329500Y769875D01*
X330271Y769700D01*
X330986Y768985D01*
X332293Y768444D01*
X333707D01*
X335014Y768985D01*
X335729Y769700D01*
X336500Y769875D01*
X337271Y769700D01*
X337986Y768985D01*
X339293Y768444D01*
X340707D01*
X342014Y768985D01*
X343015Y769986D01*
X343556Y771293D01*
Y772707D01*
X343015Y774014D01*
X342014Y775015D01*
X341295Y775313D01*
Y776687D01*
X342014Y776985D01*
X343015Y777986D01*
X343556Y779293D01*
Y780707D01*
X343015Y782014D01*
X342014Y783015D01*
X340707Y783556D01*
D02*
G37*
G36*
X378849Y782520D02*
X377151D01*
X375581Y781870D01*
X374380Y780669D01*
X373730Y779099D01*
Y777401D01*
X374380Y775831D01*
X375581Y774630D01*
X377151Y773980D01*
X378849D01*
X380419Y774630D01*
X381620Y775831D01*
X382270Y777401D01*
Y779099D01*
X381620Y780669D01*
X380419Y781870D01*
X378849Y782520D01*
D02*
G37*
G36*
X356849D02*
X355151D01*
X353581Y781870D01*
X352380Y780669D01*
X351730Y779099D01*
Y777401D01*
X352380Y775831D01*
X353581Y774630D01*
X355151Y773980D01*
X356849D01*
X358419Y774630D01*
X359620Y775831D01*
X360270Y777401D01*
Y779099D01*
X359620Y780669D01*
X358419Y781870D01*
X356849Y782520D01*
D02*
G37*
G36*
X-44151Y781270D02*
X-45849D01*
X-47419Y780620D01*
X-48620Y779419D01*
X-49270Y777849D01*
Y776151D01*
X-48620Y774581D01*
X-47419Y773380D01*
X-45849Y772730D01*
X-44151D01*
X-42581Y773380D01*
X-41380Y774581D01*
X-40730Y776151D01*
Y777849D01*
X-41380Y779419D01*
X-42581Y780620D01*
X-44151Y781270D01*
D02*
G37*
G36*
X413579Y776171D02*
X411881D01*
X410311Y775521D01*
X409110Y774319D01*
X408460Y772750D01*
Y771051D01*
X409110Y769482D01*
X410311Y768281D01*
X411881Y767631D01*
X413579D01*
X415149Y768281D01*
X416350Y769482D01*
X417000Y771051D01*
Y772750D01*
X416350Y774319D01*
X415149Y775521D01*
X413579Y776171D01*
D02*
G37*
G36*
X-244105Y783895D02*
X-263895D01*
Y764105D01*
X-244105D01*
Y783895D01*
D02*
G37*
G36*
X143849Y769270D02*
X142151D01*
X140581Y768620D01*
X139380Y767419D01*
X138730Y765849D01*
Y764151D01*
X139380Y762581D01*
X140581Y761380D01*
X142151Y760730D01*
X143849D01*
X145419Y761380D01*
X146620Y762581D01*
X147270Y764151D01*
Y765849D01*
X146620Y767419D01*
X145419Y768620D01*
X143849Y769270D01*
D02*
G37*
G36*
X-24151Y768270D02*
X-25849D01*
X-27419Y767620D01*
X-28620Y766419D01*
X-29270Y764849D01*
Y763151D01*
X-28620Y761581D01*
X-27419Y760380D01*
X-25849Y759730D01*
X-24151D01*
X-22581Y760380D01*
X-21380Y761581D01*
X-20730Y763151D01*
Y764849D01*
X-21380Y766419D01*
X-22581Y767620D01*
X-24151Y768270D01*
D02*
G37*
G36*
X243849Y767270D02*
X242151D01*
X240581Y766620D01*
X239380Y765419D01*
X238730Y763849D01*
Y762151D01*
X239380Y760581D01*
X240581Y759380D01*
X242151Y758730D01*
X243849D01*
X245419Y759380D01*
X246620Y760581D01*
X247270Y762151D01*
Y763849D01*
X246620Y765419D01*
X245419Y766620D01*
X243849Y767270D01*
D02*
G37*
G36*
X439849Y766270D02*
X438151D01*
X436581Y765620D01*
X435380Y764419D01*
X434730Y762849D01*
Y761151D01*
X435380Y759581D01*
X436581Y758380D01*
X438151Y757730D01*
X439849D01*
X441419Y758380D01*
X442620Y759581D01*
X443270Y761151D01*
Y762849D01*
X442620Y764419D01*
X441419Y765620D01*
X439849Y766270D01*
D02*
G37*
G36*
X304599Y763270D02*
X302901D01*
X301331Y762620D01*
X300130Y761419D01*
X299480Y759849D01*
Y758151D01*
X300130Y756581D01*
X301331Y755380D01*
X302901Y754730D01*
X304599D01*
X306169Y755380D01*
X307370Y756581D01*
X308020Y758151D01*
Y759849D01*
X307370Y761419D01*
X306169Y762620D01*
X304599Y763270D01*
D02*
G37*
G36*
X292849D02*
X291151D01*
X289581Y762620D01*
X288380Y761419D01*
X287730Y759849D01*
Y758151D01*
X288380Y756581D01*
X289581Y755380D01*
X291151Y754730D01*
X292849D01*
X294419Y755380D01*
X295620Y756581D01*
X296270Y758151D01*
Y759849D01*
X295620Y761419D01*
X294419Y762620D01*
X292849Y763270D01*
D02*
G37*
G36*
X615849Y760270D02*
X614151D01*
X612581Y759620D01*
X611380Y758419D01*
X610730Y756849D01*
Y755151D01*
X611380Y753581D01*
X612581Y752380D01*
X614151Y751730D01*
X615849D01*
X617419Y752380D01*
X618620Y753581D01*
X619270Y755151D01*
Y756849D01*
X618620Y758419D01*
X617419Y759620D01*
X615849Y760270D01*
D02*
G37*
G36*
X576849D02*
X575151D01*
X573581Y759620D01*
X572380Y758419D01*
X571730Y756849D01*
Y755151D01*
X572380Y753581D01*
X573581Y752380D01*
X575151Y751730D01*
X576849D01*
X578419Y752380D01*
X579620Y753581D01*
X580270Y755151D01*
Y756849D01*
X579620Y758419D01*
X578419Y759620D01*
X576849Y760270D01*
D02*
G37*
G36*
X398849Y757270D02*
X397151D01*
X395581Y756620D01*
X394380Y755419D01*
X393730Y753849D01*
Y752151D01*
X394380Y750581D01*
X395581Y749380D01*
X397151Y748730D01*
X398849D01*
X400419Y749380D01*
X401620Y750581D01*
X402270Y752151D01*
Y753849D01*
X401620Y755419D01*
X400419Y756620D01*
X398849Y757270D01*
D02*
G37*
G36*
X349849Y766275D02*
X348151D01*
X346581Y765625D01*
X345380Y764424D01*
X344730Y762854D01*
Y761156D01*
X345380Y759586D01*
X346581Y758385D01*
X347053Y758190D01*
Y756815D01*
X346581Y756620D01*
X345380Y755419D01*
X344730Y753849D01*
Y752151D01*
X345380Y750581D01*
X346581Y749380D01*
X348151Y748730D01*
X349849D01*
X351419Y749380D01*
X352620Y750581D01*
X353270Y752151D01*
Y753849D01*
X352620Y755419D01*
X351419Y756620D01*
X350947Y756815D01*
Y758190D01*
X351419Y758385D01*
X352620Y759586D01*
X353270Y761156D01*
Y762854D01*
X352620Y764424D01*
X351419Y765625D01*
X349849Y766275D01*
D02*
G37*
G36*
X17849Y757270D02*
X16151D01*
X14581Y756620D01*
X13380Y755419D01*
X12730Y753849D01*
Y752151D01*
X13380Y750581D01*
X14581Y749380D01*
X16151Y748730D01*
X17849D01*
X19419Y749380D01*
X20620Y750581D01*
X21270Y752151D01*
Y753849D01*
X20620Y755419D01*
X19419Y756620D01*
X17849Y757270D01*
D02*
G37*
G36*
X501849Y756270D02*
X500151D01*
X498581Y755620D01*
X497380Y754419D01*
X496730Y752849D01*
Y751151D01*
X497380Y749581D01*
X498581Y748380D01*
X500151Y747730D01*
X501849D01*
X503419Y748380D01*
X504620Y749581D01*
X505270Y751151D01*
Y752849D01*
X504620Y754419D01*
X503419Y755620D01*
X501849Y756270D01*
D02*
G37*
G36*
X318849Y754270D02*
X317151D01*
X315581Y753620D01*
X314380Y752419D01*
X313730Y750849D01*
Y749151D01*
X314380Y747581D01*
X315581Y746380D01*
X317151Y745730D01*
X318849D01*
X320419Y746380D01*
X321620Y747581D01*
X322270Y749151D01*
Y750849D01*
X321620Y752419D01*
X320419Y753620D01*
X318849Y754270D01*
D02*
G37*
G36*
X596849Y751270D02*
X595151D01*
X593581Y750620D01*
X592380Y749419D01*
X591730Y747849D01*
Y746151D01*
X592380Y744581D01*
X593581Y743380D01*
X595151Y742730D01*
X596849D01*
X598419Y743380D01*
X599620Y744581D01*
X600270Y746151D01*
Y747849D01*
X599620Y749419D01*
X598419Y750620D01*
X596849Y751270D01*
D02*
G37*
G36*
X438849D02*
X437151D01*
X435581Y750620D01*
X434380Y749419D01*
X433730Y747849D01*
Y746151D01*
X434380Y744581D01*
X435581Y743380D01*
X437151Y742730D01*
X438849D01*
X440419Y743380D01*
X441620Y744581D01*
X442270Y746151D01*
Y747849D01*
X441620Y749419D01*
X440419Y750620D01*
X438849Y751270D01*
D02*
G37*
G36*
X286849Y755270D02*
X285151D01*
X283581Y754620D01*
X282380Y753419D01*
X281730Y751849D01*
Y750151D01*
X282380Y748581D01*
X283147Y747815D01*
X283443Y747000D01*
X283147Y746185D01*
X282380Y745419D01*
X281730Y743849D01*
Y742151D01*
X282380Y740581D01*
X283581Y739380D01*
X285151Y738730D01*
X286849D01*
X288419Y739380D01*
X289620Y740581D01*
X290270Y742151D01*
Y743849D01*
X289620Y745419D01*
X288853Y746185D01*
X288557Y747000D01*
X288853Y747815D01*
X289620Y748581D01*
X290270Y750151D01*
Y751849D01*
X289620Y753419D01*
X288419Y754620D01*
X286849Y755270D01*
D02*
G37*
G36*
X373817Y751270D02*
X372119D01*
X370549Y750620D01*
X369348Y749419D01*
X368698Y747849D01*
Y746151D01*
X369348Y744581D01*
X370549Y743380D01*
X371254Y743088D01*
X371552Y741590D01*
X371380Y741419D01*
X370730Y739849D01*
Y739105D01*
X369460Y738579D01*
X369419Y738620D01*
X367849Y739270D01*
X366151D01*
X364581Y738620D01*
X363380Y737419D01*
X362730Y735849D01*
Y734151D01*
X363380Y732581D01*
X364581Y731380D01*
X366151Y730730D01*
X367849D01*
X369419Y731380D01*
X370620Y732581D01*
X371270Y734151D01*
Y734895D01*
X372540Y735421D01*
X372581Y735380D01*
X374151Y734730D01*
X375849D01*
X377419Y735380D01*
X378620Y736581D01*
X379270Y738151D01*
Y739849D01*
X378620Y741419D01*
X377419Y742620D01*
X376714Y742912D01*
X376416Y744410D01*
X376588Y744581D01*
X377238Y746151D01*
Y747849D01*
X376588Y749419D01*
X375387Y750620D01*
X373817Y751270D01*
D02*
G37*
G36*
X422579Y743270D02*
X420881D01*
X419311Y742620D01*
X418110Y741419D01*
X417460Y739849D01*
Y738151D01*
X417840Y737234D01*
X416867Y736263D01*
X416849Y736270D01*
X415151D01*
X413581Y735620D01*
X412380Y734419D01*
X411730Y732849D01*
Y731151D01*
X412380Y729581D01*
X413581Y728380D01*
X415151Y727730D01*
X416849D01*
X418419Y728380D01*
X419620Y729581D01*
X420270Y731151D01*
Y732849D01*
X419891Y733765D01*
X420863Y734737D01*
X420881Y734730D01*
X422579D01*
X424149Y735380D01*
X425350Y736581D01*
X426000Y738151D01*
Y739849D01*
X425350Y741419D01*
X424149Y742620D01*
X422579Y743270D01*
D02*
G37*
G36*
X440119Y736993D02*
X438421D01*
X436851Y736343D01*
X435650Y735142D01*
X435000Y733572D01*
Y731873D01*
X435650Y730304D01*
X436851Y729103D01*
X438421Y728453D01*
X440119D01*
X441689Y729103D01*
X442890Y730304D01*
X443540Y731873D01*
Y733572D01*
X442890Y735142D01*
X441689Y736343D01*
X440119Y736993D01*
D02*
G37*
G36*
X488849Y736270D02*
X487151D01*
X485581Y735620D01*
X484380Y734419D01*
X483730Y732849D01*
Y731151D01*
X484380Y729581D01*
X485581Y728380D01*
X487151Y727730D01*
X488849D01*
X490419Y728380D01*
X491620Y729581D01*
X492270Y731151D01*
Y732849D01*
X491620Y734419D01*
X490419Y735620D01*
X488849Y736270D01*
D02*
G37*
G36*
X400119Y735993D02*
X398421D01*
X396851Y735343D01*
X395650Y734142D01*
X395000Y732572D01*
Y730873D01*
X395650Y729304D01*
X396851Y728103D01*
X398421Y727453D01*
X400119D01*
X401689Y728103D01*
X402890Y729304D01*
X403540Y730873D01*
Y732572D01*
X402890Y734142D01*
X401689Y735343D01*
X400119Y735993D01*
D02*
G37*
G36*
X513849Y732270D02*
X512151D01*
X510581Y731620D01*
X509380Y730419D01*
X508730Y728849D01*
Y727151D01*
X509380Y725581D01*
X510581Y724380D01*
X512151Y723730D01*
X513849D01*
X515419Y724380D01*
X516620Y725581D01*
X517270Y727151D01*
Y728849D01*
X516620Y730419D01*
X515419Y731620D01*
X513849Y732270D01*
D02*
G37*
G36*
X-24151Y728270D02*
X-25849D01*
X-27419Y727620D01*
X-28620Y726419D01*
X-29270Y724849D01*
Y723151D01*
X-28620Y721581D01*
X-27419Y720380D01*
X-25849Y719730D01*
X-24151D01*
X-22581Y720380D01*
X-21380Y721581D01*
X-20730Y723151D01*
Y724849D01*
X-21380Y726419D01*
X-22581Y727620D01*
X-24151Y728270D01*
D02*
G37*
G36*
X405579Y717270D02*
X403881D01*
X402311Y716620D01*
X401110Y715419D01*
X400460Y713849D01*
Y712151D01*
X401110Y710581D01*
X402311Y709380D01*
X403881Y708730D01*
X405579D01*
X407149Y709380D01*
X408350Y710581D01*
X409000Y712151D01*
Y713849D01*
X408350Y715419D01*
X407149Y716620D01*
X405579Y717270D01*
D02*
G37*
G36*
X120849Y735984D02*
X119151D01*
X117581Y735334D01*
X116380Y734133D01*
X115730Y732563D01*
Y730865D01*
X116380Y729295D01*
X116767Y728909D01*
X117567Y728079D01*
X116767Y727249D01*
X116380Y726863D01*
X115730Y725293D01*
Y723595D01*
X116380Y722025D01*
X116767Y721639D01*
X117567Y720809D01*
X116767Y719979D01*
X116380Y719593D01*
X115730Y718023D01*
Y716325D01*
X116380Y714755D01*
X116767Y714369D01*
X117567Y713539D01*
X116767Y712709D01*
X116380Y712323D01*
X115730Y710753D01*
Y709055D01*
X116380Y707485D01*
X117581Y706284D01*
X119151Y705634D01*
X120849D01*
X122419Y706284D01*
X123620Y707485D01*
X124270Y709055D01*
Y710753D01*
X123620Y712323D01*
X123233Y712709D01*
X122433Y713539D01*
X123233Y714369D01*
X123620Y714755D01*
X124270Y716325D01*
Y718023D01*
X123620Y719593D01*
X123233Y719979D01*
X122433Y720809D01*
X123233Y721639D01*
X123620Y722025D01*
X124270Y723595D01*
Y725293D01*
X123620Y726863D01*
X123233Y727249D01*
X122433Y728079D01*
X123233Y728909D01*
X123620Y729295D01*
X124270Y730865D01*
Y732563D01*
X123620Y734133D01*
X122419Y735334D01*
X120849Y735984D01*
D02*
G37*
G36*
X-11151Y711270D02*
X-12849D01*
X-14419Y710620D01*
X-15620Y709419D01*
X-16270Y707849D01*
Y706151D01*
X-15620Y704581D01*
X-14419Y703380D01*
X-12849Y702730D01*
X-11151D01*
X-9581Y703380D01*
X-8380Y704581D01*
X-7730Y706151D01*
Y707849D01*
X-8380Y709419D01*
X-9581Y710620D01*
X-11151Y711270D01*
D02*
G37*
G36*
X-244105Y722295D02*
X-263895D01*
Y702505D01*
X-244105D01*
Y722295D01*
D02*
G37*
G36*
X476294Y645825D02*
X474596D01*
X473026Y645175D01*
X471825Y643974D01*
X471175Y642404D01*
Y640705D01*
X471825Y639136D01*
X473026Y637935D01*
X474596Y637285D01*
X476294D01*
X477864Y637935D01*
X479065Y639136D01*
X479715Y640705D01*
Y642404D01*
X479065Y643974D01*
X477864Y645175D01*
X476294Y645825D01*
D02*
G37*
G36*
X514849Y645270D02*
X513151D01*
X511581Y644620D01*
X510380Y643419D01*
X509730Y641849D01*
Y640151D01*
X510380Y638581D01*
X511581Y637380D01*
X513151Y636730D01*
X514849D01*
X516419Y637380D01*
X517620Y638581D01*
X518270Y640151D01*
Y641849D01*
X517620Y643419D01*
X516419Y644620D01*
X514849Y645270D01*
D02*
G37*
G36*
X501849Y644270D02*
X500151D01*
X498581Y643620D01*
X497380Y642419D01*
X496730Y640849D01*
Y639151D01*
X497380Y637581D01*
X498581Y636380D01*
X500151Y635730D01*
X501849D01*
X503419Y636380D01*
X504620Y637581D01*
X505270Y639151D01*
Y640849D01*
X504620Y642419D01*
X503419Y643620D01*
X501849Y644270D01*
D02*
G37*
G36*
X489849D02*
X488151D01*
X486581Y643620D01*
X485380Y642419D01*
X484730Y640849D01*
Y639151D01*
X485380Y637581D01*
X486581Y636380D01*
X488151Y635730D01*
X489849D01*
X491419Y636380D01*
X492620Y637581D01*
X493270Y639151D01*
Y640849D01*
X492620Y642419D01*
X491419Y643620D01*
X489849Y644270D01*
D02*
G37*
G36*
X532407Y627712D02*
X530709D01*
X529139Y627062D01*
X527938Y625861D01*
X527288Y624291D01*
Y622593D01*
X527938Y621023D01*
X529139Y619822D01*
X530709Y619172D01*
X532407D01*
X533977Y619822D01*
X535178Y621023D01*
X535828Y622593D01*
Y624291D01*
X535178Y625861D01*
X533977Y627062D01*
X532407Y627712D01*
D02*
G37*
G36*
X396849Y625270D02*
X395151D01*
X393581Y624620D01*
X392380Y623419D01*
X391730Y621849D01*
Y620151D01*
X392380Y618581D01*
X393581Y617380D01*
X395151Y616730D01*
X396849D01*
X398419Y617380D01*
X399620Y618581D01*
X400270Y620151D01*
Y621849D01*
X399620Y623419D01*
X398419Y624620D01*
X396849Y625270D01*
D02*
G37*
G36*
X386849D02*
X385151D01*
X383581Y624620D01*
X382380Y623419D01*
X381730Y621849D01*
Y620151D01*
X382380Y618581D01*
X383581Y617380D01*
X385151Y616730D01*
X386849D01*
X388419Y617380D01*
X389620Y618581D01*
X390270Y620151D01*
Y621849D01*
X389620Y623419D01*
X388419Y624620D01*
X386849Y625270D01*
D02*
G37*
G36*
X416849Y614270D02*
X415151D01*
X413581Y613620D01*
X412380Y612419D01*
X411730Y610849D01*
Y609596D01*
X410830Y608810D01*
X410557Y608707D01*
X409849Y609000D01*
X408151D01*
X406581Y608350D01*
X405380Y607149D01*
X404730Y605579D01*
Y603881D01*
X405380Y602311D01*
X406581Y601110D01*
X408151Y600460D01*
X409849D01*
X411419Y601110D01*
X412620Y602311D01*
X413270Y603881D01*
Y605134D01*
X414170Y605920D01*
X414443Y606023D01*
X415151Y605730D01*
X416849D01*
X418419Y606380D01*
X419620Y607581D01*
X420270Y609151D01*
Y610849D01*
X419620Y612419D01*
X418419Y613620D01*
X416849Y614270D01*
D02*
G37*
G36*
X630599Y601520D02*
X628901D01*
X627331Y600870D01*
X626130Y599669D01*
X625480Y598099D01*
Y596401D01*
X626130Y594831D01*
X627331Y593630D01*
X628901Y592980D01*
X630599D01*
X632169Y593630D01*
X633370Y594831D01*
X634020Y596401D01*
Y598099D01*
X633370Y599669D01*
X632169Y600870D01*
X630599Y601520D01*
D02*
G37*
G36*
X568880Y601301D02*
X567182D01*
X565612Y600651D01*
X564411Y599450D01*
X563761Y597880D01*
Y596182D01*
X564411Y594612D01*
X565612Y593411D01*
X567182Y592761D01*
X568880D01*
X570450Y593411D01*
X571651Y594612D01*
X572301Y596182D01*
Y597880D01*
X571651Y599450D01*
X570450Y600651D01*
X568880Y601301D01*
D02*
G37*
G36*
X-257151Y603270D02*
X-258849D01*
X-260419Y602620D01*
X-261620Y601419D01*
X-262270Y599849D01*
Y598151D01*
X-261620Y596581D01*
X-260419Y595380D01*
X-258849Y594730D01*
X-257151D01*
X-256173Y595135D01*
X-256112Y595120D01*
X-255000Y594302D01*
Y593151D01*
X-254350Y591581D01*
X-253149Y590380D01*
X-251579Y589730D01*
X-249881D01*
X-248311Y590380D01*
X-247110Y591581D01*
X-246460Y593151D01*
Y594849D01*
X-247110Y596419D01*
X-248311Y597620D01*
X-249881Y598270D01*
X-251579D01*
X-252557Y597865D01*
X-252617Y597880D01*
X-253730Y598698D01*
Y599849D01*
X-254380Y601419D01*
X-255581Y602620D01*
X-257151Y603270D01*
D02*
G37*
G36*
X397849Y578270D02*
X396151D01*
X394581Y577620D01*
X393380Y576419D01*
X392730Y574849D01*
Y573151D01*
X393380Y571581D01*
X394581Y570380D01*
X396151Y569730D01*
X397849D01*
X399419Y570380D01*
X400620Y571581D01*
X401270Y573151D01*
Y574849D01*
X400620Y576419D01*
X399419Y577620D01*
X397849Y578270D01*
D02*
G37*
G36*
X386849D02*
X385151D01*
X383581Y577620D01*
X382380Y576419D01*
X381730Y574849D01*
Y573151D01*
X382380Y571581D01*
X383581Y570380D01*
X385151Y569730D01*
X386849D01*
X388419Y570380D01*
X389620Y571581D01*
X390270Y573151D01*
Y574849D01*
X389620Y576419D01*
X388419Y577620D01*
X386849Y578270D01*
D02*
G37*
G36*
X280654Y581025D02*
X278146D01*
X275723Y580376D01*
X273552Y579122D01*
X271778Y577349D01*
X270524Y575177D01*
X269875Y572754D01*
Y570246D01*
X270524Y567823D01*
X271778Y565652D01*
X273552Y563878D01*
X275723Y562624D01*
X278146Y561975D01*
X280654D01*
X283076Y562624D01*
X285249Y563878D01*
X287022Y565652D01*
X288276Y567823D01*
X288925Y570246D01*
Y572754D01*
X288276Y575177D01*
X287022Y577349D01*
X285249Y579122D01*
X283076Y580376D01*
X280654Y581025D01*
D02*
G37*
G36*
X60325D02*
X41275D01*
Y561975D01*
X60325D01*
Y581025D01*
D02*
G37*
G36*
X1254D02*
X-1254D01*
X-3677Y580376D01*
X-5849Y579122D01*
X-7622Y577349D01*
X-8876Y575177D01*
X-9525Y572754D01*
Y570246D01*
X-8876Y567823D01*
X-7622Y565652D01*
X-5849Y563878D01*
X-3677Y562624D01*
X-1254Y561975D01*
X1254D01*
X3677Y562624D01*
X5849Y563878D01*
X7622Y565652D01*
X8876Y567823D01*
X9525Y570246D01*
Y572754D01*
X8876Y575177D01*
X7622Y577349D01*
X5849Y579122D01*
X3677Y580376D01*
X1254Y581025D01*
D02*
G37*
G36*
X-219075D02*
X-238125D01*
Y561975D01*
X-219075D01*
Y581025D01*
D02*
G37*
G36*
X-278146D02*
X-280654D01*
X-283076Y580376D01*
X-285249Y579122D01*
X-287022Y577349D01*
X-288276Y575177D01*
X-288925Y572754D01*
Y570246D01*
X-288276Y567823D01*
X-287022Y565652D01*
X-285249Y563878D01*
X-283076Y562624D01*
X-280654Y561975D01*
X-278146D01*
X-275723Y562624D01*
X-273552Y563878D01*
X-271778Y565652D01*
X-270524Y567823D01*
X-269875Y570246D01*
Y572754D01*
X-270524Y575177D01*
X-271778Y577349D01*
X-273552Y579122D01*
X-275723Y580376D01*
X-278146Y581025D01*
D02*
G37*
G36*
X-498475D02*
X-517525D01*
Y561975D01*
X-498475D01*
Y581025D01*
D02*
G37*
G36*
X479404Y582668D02*
X476595D01*
X473882Y581941D01*
X471450Y580536D01*
X469464Y578550D01*
X468059Y576118D01*
X467332Y573405D01*
Y570596D01*
X468059Y567882D01*
X469464Y565450D01*
X471450Y563464D01*
X473882Y562059D01*
X476595Y561332D01*
X479404D01*
X482118Y562059D01*
X484550Y563464D01*
X486536Y565450D01*
X487941Y567882D01*
X488668Y570596D01*
Y573405D01*
X487941Y576118D01*
X486536Y578550D01*
X484550Y580536D01*
X482118Y581941D01*
X479404Y582668D01*
D02*
G37*
G36*
X463268D02*
X441932D01*
Y561332D01*
X463268D01*
Y582668D01*
D02*
G37*
G36*
X280654Y555625D02*
X278146D01*
X275723Y554976D01*
X273552Y553722D01*
X271778Y551949D01*
X270524Y549776D01*
X269875Y547354D01*
Y544846D01*
X270524Y542424D01*
X271778Y540252D01*
X273552Y538478D01*
X275723Y537224D01*
X278146Y536575D01*
X280654D01*
X283076Y537224D01*
X285249Y538478D01*
X287022Y540252D01*
X288276Y542424D01*
X288925Y544846D01*
Y547354D01*
X288276Y549776D01*
X287022Y551949D01*
X285249Y553722D01*
X283076Y554976D01*
X280654Y555625D01*
D02*
G37*
G36*
X52054D02*
X49546D01*
X47123Y554976D01*
X44952Y553722D01*
X43178Y551949D01*
X41924Y549776D01*
X41275Y547354D01*
Y544846D01*
X41924Y542424D01*
X43178Y540252D01*
X44952Y538478D01*
X47123Y537224D01*
X49546Y536575D01*
X52054D01*
X54476Y537224D01*
X56649Y538478D01*
X58422Y540252D01*
X59676Y542424D01*
X60325Y544846D01*
Y547354D01*
X59676Y549776D01*
X58422Y551949D01*
X56649Y553722D01*
X54476Y554976D01*
X52054Y555625D01*
D02*
G37*
G36*
X1254D02*
X-1254D01*
X-3677Y554976D01*
X-5849Y553722D01*
X-7622Y551949D01*
X-8876Y549776D01*
X-9525Y547354D01*
Y544846D01*
X-8876Y542424D01*
X-7622Y540252D01*
X-5849Y538478D01*
X-3677Y537224D01*
X-1254Y536575D01*
X1254D01*
X3677Y537224D01*
X5849Y538478D01*
X7622Y540252D01*
X8876Y542424D01*
X9525Y544846D01*
Y547354D01*
X8876Y549776D01*
X7622Y551949D01*
X5849Y553722D01*
X3677Y554976D01*
X1254Y555625D01*
D02*
G37*
G36*
X-227346D02*
X-229854D01*
X-232276Y554976D01*
X-234449Y553722D01*
X-236222Y551949D01*
X-237476Y549776D01*
X-238125Y547354D01*
Y544846D01*
X-237476Y542424D01*
X-236222Y540252D01*
X-234449Y538478D01*
X-232276Y537224D01*
X-229854Y536575D01*
X-227346D01*
X-224923Y537224D01*
X-222752Y538478D01*
X-220978Y540252D01*
X-219724Y542424D01*
X-219075Y544846D01*
Y547354D01*
X-219724Y549776D01*
X-220978Y551949D01*
X-222752Y553722D01*
X-224923Y554976D01*
X-227346Y555625D01*
D02*
G37*
G36*
X-278146D02*
X-280654D01*
X-283076Y554976D01*
X-285249Y553722D01*
X-287022Y551949D01*
X-288276Y549776D01*
X-288925Y547354D01*
Y544846D01*
X-288276Y542424D01*
X-287022Y540252D01*
X-285249Y538478D01*
X-283076Y537224D01*
X-280654Y536575D01*
X-278146D01*
X-275723Y537224D01*
X-273552Y538478D01*
X-271778Y540252D01*
X-270524Y542424D01*
X-269875Y544846D01*
Y547354D01*
X-270524Y549776D01*
X-271778Y551949D01*
X-273552Y553722D01*
X-275723Y554976D01*
X-278146Y555625D01*
D02*
G37*
G36*
X-506746D02*
X-509254D01*
X-511676Y554976D01*
X-513848Y553722D01*
X-515622Y551949D01*
X-516876Y549776D01*
X-517525Y547354D01*
Y544846D01*
X-516876Y542424D01*
X-515622Y540252D01*
X-513848Y538478D01*
X-511676Y537224D01*
X-509254Y536575D01*
X-506746D01*
X-504324Y537224D01*
X-502151Y538478D01*
X-500378Y540252D01*
X-499124Y542424D01*
X-498475Y544846D01*
Y547354D01*
X-499124Y549776D01*
X-500378Y551949D01*
X-502151Y553722D01*
X-504324Y554976D01*
X-506746Y555625D01*
D02*
G37*
G36*
X595849Y535270D02*
X594151D01*
X592581Y534620D01*
X591380Y533419D01*
X590730Y531849D01*
Y530151D01*
X591380Y528581D01*
X592581Y527380D01*
X594151Y526730D01*
X595849D01*
X597419Y527380D01*
X598620Y528581D01*
X599270Y530151D01*
Y531849D01*
X598620Y533419D01*
X597419Y534620D01*
X595849Y535270D01*
D02*
G37*
G36*
X574849Y523270D02*
X573151D01*
X571581Y522620D01*
X570380Y521419D01*
X569730Y519849D01*
Y518151D01*
X570380Y516581D01*
X571581Y515380D01*
X573151Y514730D01*
X574849D01*
X576419Y515380D01*
X577620Y516581D01*
X578270Y518151D01*
Y519849D01*
X577620Y521419D01*
X576419Y522620D01*
X574849Y523270D01*
D02*
G37*
G36*
X280654Y530225D02*
X278146D01*
X275723Y529576D01*
X273552Y528322D01*
X271778Y526549D01*
X270524Y524376D01*
X269875Y521954D01*
Y519446D01*
X270524Y517024D01*
X271778Y514851D01*
X273552Y513078D01*
X275723Y511824D01*
X278146Y511175D01*
X280654D01*
X283076Y511824D01*
X285249Y513078D01*
X287022Y514851D01*
X288276Y517024D01*
X288925Y519446D01*
Y521954D01*
X288276Y524376D01*
X287022Y526549D01*
X285249Y528322D01*
X283076Y529576D01*
X280654Y530225D01*
D02*
G37*
G36*
X52054D02*
X49546D01*
X47123Y529576D01*
X44952Y528322D01*
X43178Y526549D01*
X41924Y524376D01*
X41275Y521954D01*
Y519446D01*
X41924Y517024D01*
X43178Y514851D01*
X44952Y513078D01*
X47123Y511824D01*
X49546Y511175D01*
X52054D01*
X54476Y511824D01*
X56649Y513078D01*
X58422Y514851D01*
X59676Y517024D01*
X60325Y519446D01*
Y521954D01*
X59676Y524376D01*
X58422Y526549D01*
X56649Y528322D01*
X54476Y529576D01*
X52054Y530225D01*
D02*
G37*
G36*
X1254D02*
X-1254D01*
X-3677Y529576D01*
X-5849Y528322D01*
X-7622Y526549D01*
X-8876Y524376D01*
X-9525Y521954D01*
Y519446D01*
X-8876Y517024D01*
X-7622Y514851D01*
X-5849Y513078D01*
X-3677Y511824D01*
X-1254Y511175D01*
X1254D01*
X3677Y511824D01*
X5849Y513078D01*
X7622Y514851D01*
X8876Y517024D01*
X9525Y519446D01*
Y521954D01*
X8876Y524376D01*
X7622Y526549D01*
X5849Y528322D01*
X3677Y529576D01*
X1254Y530225D01*
D02*
G37*
G36*
X-227346D02*
X-229854D01*
X-232276Y529576D01*
X-234449Y528322D01*
X-236222Y526549D01*
X-237476Y524376D01*
X-238125Y521954D01*
Y519446D01*
X-237476Y517024D01*
X-236222Y514851D01*
X-234449Y513078D01*
X-232276Y511824D01*
X-229854Y511175D01*
X-227346D01*
X-224923Y511824D01*
X-222752Y513078D01*
X-220978Y514851D01*
X-219724Y517024D01*
X-219075Y519446D01*
Y521954D01*
X-219724Y524376D01*
X-220978Y526549D01*
X-222752Y528322D01*
X-224923Y529576D01*
X-227346Y530225D01*
D02*
G37*
G36*
X-278146D02*
X-280654D01*
X-283076Y529576D01*
X-285249Y528322D01*
X-287022Y526549D01*
X-288276Y524376D01*
X-288925Y521954D01*
Y519446D01*
X-288276Y517024D01*
X-287022Y514851D01*
X-285249Y513078D01*
X-283076Y511824D01*
X-280654Y511175D01*
X-278146D01*
X-275723Y511824D01*
X-273552Y513078D01*
X-271778Y514851D01*
X-270524Y517024D01*
X-269875Y519446D01*
Y521954D01*
X-270524Y524376D01*
X-271778Y526549D01*
X-273552Y528322D01*
X-275723Y529576D01*
X-278146Y530225D01*
D02*
G37*
G36*
X-506746D02*
X-509254D01*
X-511676Y529576D01*
X-513848Y528322D01*
X-515622Y526549D01*
X-516876Y524376D01*
X-517525Y521954D01*
Y519446D01*
X-516876Y517024D01*
X-515622Y514851D01*
X-513848Y513078D01*
X-511676Y511824D01*
X-509254Y511175D01*
X-506746D01*
X-504324Y511824D01*
X-502151Y513078D01*
X-500378Y514851D01*
X-499124Y517024D01*
X-498475Y519446D01*
Y521954D01*
X-499124Y524376D01*
X-500378Y526549D01*
X-502151Y528322D01*
X-504324Y529576D01*
X-506746Y530225D01*
D02*
G37*
G36*
X499707Y512556D02*
X498293D01*
X496986Y512015D01*
X496271Y511300D01*
X495500Y511125D01*
X494729Y511300D01*
X494014Y512015D01*
X492707Y512556D01*
X491293D01*
X489986Y512015D01*
X489271Y511300D01*
X488500Y511125D01*
X487729Y511300D01*
X487014Y512015D01*
X485707Y512556D01*
X484293D01*
X482986Y512015D01*
X481985Y511014D01*
X481444Y509707D01*
Y508293D01*
X481985Y506986D01*
X482986Y505985D01*
X484293Y505444D01*
X484789D01*
X485637Y504174D01*
X485444Y503707D01*
Y502293D01*
X485985Y500986D01*
X486986Y499985D01*
X488293Y499444D01*
X489707D01*
X491014Y499985D01*
X491729Y500700D01*
X492500Y500875D01*
X493271Y500700D01*
X493986Y499985D01*
X495293Y499444D01*
X496707D01*
X498014Y499985D01*
X498729Y500700D01*
X499500Y500875D01*
X500271Y500700D01*
X500986Y499985D01*
X502293Y499444D01*
X503707D01*
X505014Y499985D01*
X506015Y500986D01*
X506556Y502293D01*
Y503707D01*
X506015Y505014D01*
X505014Y506015D01*
X503707Y506556D01*
X503211D01*
X502363Y507826D01*
X502556Y508293D01*
Y509707D01*
X502015Y511014D01*
X501014Y512015D01*
X499707Y512556D01*
D02*
G37*
G36*
X614849Y516270D02*
X613151D01*
X611581Y515620D01*
X610380Y514419D01*
X609730Y512849D01*
Y511151D01*
X610380Y509581D01*
X611581Y508380D01*
X613151Y507730D01*
X614849D01*
X616419Y508380D01*
X617620Y509581D01*
X618270Y511151D01*
Y512849D01*
X617620Y514419D01*
X616419Y515620D01*
X614849Y516270D01*
D02*
G37*
G36*
X393259Y514245D02*
X391844D01*
X390537Y513704D01*
X389537Y512704D01*
X388996Y511397D01*
Y509982D01*
X389537Y508675D01*
X390537Y507675D01*
X391844Y507133D01*
X393259D01*
X394566Y507675D01*
X395566Y508675D01*
X396107Y509982D01*
Y511397D01*
X395566Y512704D01*
X394566Y513704D01*
X393259Y514245D01*
D02*
G37*
G36*
X380707Y513556D02*
X379293D01*
X377986Y513015D01*
X376985Y512014D01*
X376444Y510707D01*
Y509293D01*
X376985Y507986D01*
X377986Y506985D01*
X379293Y506444D01*
X380707D01*
X382014Y506985D01*
X383015Y507986D01*
X383556Y509293D01*
Y510707D01*
X383015Y512014D01*
X382014Y513015D01*
X380707Y513556D01*
D02*
G37*
G36*
X166849Y512270D02*
X165151D01*
X163581Y511620D01*
X162380Y510419D01*
X161730Y508849D01*
Y507151D01*
X162380Y505581D01*
X163581Y504380D01*
X165151Y503730D01*
X166849D01*
X168419Y504380D01*
X169620Y505581D01*
X170270Y507151D01*
Y508849D01*
X169620Y510419D01*
X168419Y511620D01*
X166849Y512270D01*
D02*
G37*
G36*
X394707Y503556D02*
X393293D01*
X391986Y503015D01*
X390985Y502014D01*
X390444Y500707D01*
Y500211D01*
X389174Y499363D01*
X388707Y499556D01*
X387293D01*
X386826Y499363D01*
X385556Y500211D01*
Y500707D01*
X385015Y502014D01*
X384014Y503015D01*
X382707Y503556D01*
X381293D01*
X379986Y503015D01*
X378985Y502014D01*
X378444Y500707D01*
Y499293D01*
X378985Y497986D01*
X379700Y497271D01*
X379875Y496500D01*
X379700Y495729D01*
X378985Y495014D01*
X378444Y493707D01*
Y492293D01*
X378985Y490986D01*
X379986Y489985D01*
X381293Y489444D01*
X382707D01*
X384014Y489985D01*
X385015Y490986D01*
X385415Y491952D01*
X385611Y492308D01*
X386826Y492637D01*
X387293Y492444D01*
X388707D01*
X389174Y492637D01*
X390389Y492308D01*
X390585Y491952D01*
X390985Y490986D01*
X391986Y489985D01*
X393293Y489444D01*
X394707D01*
X396014Y489985D01*
X397015Y490986D01*
X397556Y492293D01*
Y493707D01*
X397015Y495014D01*
X396300Y495729D01*
X396125Y496500D01*
X396300Y497271D01*
X397015Y497986D01*
X397556Y499293D01*
Y500707D01*
X397015Y502014D01*
X396014Y503015D01*
X394707Y503556D01*
D02*
G37*
G36*
X454849Y499270D02*
X453151D01*
X451581Y498620D01*
X450380Y497419D01*
X449730Y495849D01*
Y494151D01*
X450380Y492581D01*
X451581Y491380D01*
X453151Y490730D01*
X454849D01*
X456419Y491380D01*
X457620Y492581D01*
X458270Y494151D01*
Y495849D01*
X457620Y497419D01*
X456419Y498620D01*
X454849Y499270D01*
D02*
G37*
G36*
X280654Y504825D02*
X278146D01*
X275723Y504176D01*
X273552Y502922D01*
X271778Y501148D01*
X270524Y498977D01*
X269875Y496554D01*
Y494046D01*
X270524Y491623D01*
X271778Y489451D01*
X273552Y487678D01*
X275723Y486424D01*
X278146Y485775D01*
X280654D01*
X283076Y486424D01*
X285249Y487678D01*
X287022Y489451D01*
X288276Y491623D01*
X288925Y494046D01*
Y496554D01*
X288276Y498977D01*
X287022Y501148D01*
X285249Y502922D01*
X283076Y504176D01*
X280654Y504825D01*
D02*
G37*
G36*
X52054D02*
X49546D01*
X47123Y504176D01*
X44952Y502922D01*
X43178Y501148D01*
X41924Y498977D01*
X41275Y496554D01*
Y494046D01*
X41924Y491623D01*
X43178Y489451D01*
X44952Y487678D01*
X47123Y486424D01*
X49546Y485775D01*
X52054D01*
X54476Y486424D01*
X56649Y487678D01*
X58422Y489451D01*
X59676Y491623D01*
X60325Y494046D01*
Y496554D01*
X59676Y498977D01*
X58422Y501148D01*
X56649Y502922D01*
X54476Y504176D01*
X52054Y504825D01*
D02*
G37*
G36*
X1254D02*
X-1254D01*
X-3677Y504176D01*
X-5849Y502922D01*
X-7622Y501148D01*
X-8876Y498977D01*
X-9525Y496554D01*
Y494046D01*
X-8876Y491623D01*
X-7622Y489451D01*
X-5849Y487678D01*
X-3677Y486424D01*
X-1254Y485775D01*
X1254D01*
X3677Y486424D01*
X5849Y487678D01*
X7622Y489451D01*
X8876Y491623D01*
X9525Y494046D01*
Y496554D01*
X8876Y498977D01*
X7622Y501148D01*
X5849Y502922D01*
X3677Y504176D01*
X1254Y504825D01*
D02*
G37*
G36*
X-227346D02*
X-229854D01*
X-232276Y504176D01*
X-234449Y502922D01*
X-236222Y501148D01*
X-237476Y498977D01*
X-238125Y496554D01*
Y494046D01*
X-237476Y491623D01*
X-236222Y489451D01*
X-234449Y487678D01*
X-232276Y486424D01*
X-229854Y485775D01*
X-227346D01*
X-224923Y486424D01*
X-222752Y487678D01*
X-220978Y489451D01*
X-219724Y491623D01*
X-219075Y494046D01*
Y496554D01*
X-219724Y498977D01*
X-220978Y501148D01*
X-222752Y502922D01*
X-224923Y504176D01*
X-227346Y504825D01*
D02*
G37*
G36*
X-278146D02*
X-280654D01*
X-283076Y504176D01*
X-285249Y502922D01*
X-287022Y501148D01*
X-288276Y498977D01*
X-288925Y496554D01*
Y494046D01*
X-288276Y491623D01*
X-287022Y489451D01*
X-285249Y487678D01*
X-283076Y486424D01*
X-280654Y485775D01*
X-278146D01*
X-275723Y486424D01*
X-273552Y487678D01*
X-271778Y489451D01*
X-270524Y491623D01*
X-269875Y494046D01*
Y496554D01*
X-270524Y498977D01*
X-271778Y501148D01*
X-273552Y502922D01*
X-275723Y504176D01*
X-278146Y504825D01*
D02*
G37*
G36*
X-506746D02*
X-509254D01*
X-511676Y504176D01*
X-513848Y502922D01*
X-515622Y501148D01*
X-516876Y498977D01*
X-517525Y496554D01*
Y494046D01*
X-516876Y491623D01*
X-515622Y489451D01*
X-513848Y487678D01*
X-511676Y486424D01*
X-509254Y485775D01*
X-506746D01*
X-504324Y486424D01*
X-502151Y487678D01*
X-500378Y489451D01*
X-499124Y491623D01*
X-498475Y494046D01*
Y496554D01*
X-499124Y498977D01*
X-500378Y501148D01*
X-502151Y502922D01*
X-504324Y504176D01*
X-506746Y504825D01*
D02*
G37*
G36*
X159849Y493270D02*
X158151D01*
X156581Y492620D01*
X155380Y491419D01*
X154730Y489849D01*
Y488151D01*
X155380Y486581D01*
X156581Y485380D01*
X158151Y484730D01*
X159849D01*
X161419Y485380D01*
X162620Y486581D01*
X163270Y488151D01*
Y489849D01*
X162620Y491419D01*
X161419Y492620D01*
X159849Y493270D01*
D02*
G37*
G36*
X428849Y479270D02*
X427151D01*
X425581Y478620D01*
X424380Y477419D01*
X423730Y475849D01*
Y474151D01*
X424380Y472581D01*
X425581Y471380D01*
X427151Y470730D01*
X428849D01*
X430419Y471380D01*
X431620Y472581D01*
X432270Y474151D01*
Y475849D01*
X431620Y477419D01*
X430419Y478620D01*
X428849Y479270D01*
D02*
G37*
G36*
X280654Y479425D02*
X278146D01*
X275723Y478776D01*
X273552Y477522D01*
X271778Y475748D01*
X270524Y473577D01*
X269875Y471154D01*
Y468646D01*
X270524Y466223D01*
X271778Y464052D01*
X273552Y462278D01*
X275723Y461024D01*
X278146Y460375D01*
X280654D01*
X283076Y461024D01*
X285249Y462278D01*
X287022Y464052D01*
X288276Y466223D01*
X288925Y468646D01*
Y471154D01*
X288276Y473577D01*
X287022Y475748D01*
X285249Y477522D01*
X283076Y478776D01*
X280654Y479425D01*
D02*
G37*
G36*
X52054D02*
X49546D01*
X47123Y478776D01*
X44952Y477522D01*
X43178Y475748D01*
X41924Y473577D01*
X41275Y471154D01*
Y468646D01*
X41924Y466223D01*
X43178Y464052D01*
X44952Y462278D01*
X47123Y461024D01*
X49546Y460375D01*
X52054D01*
X54476Y461024D01*
X56649Y462278D01*
X58422Y464052D01*
X59676Y466223D01*
X60325Y468646D01*
Y471154D01*
X59676Y473577D01*
X58422Y475748D01*
X56649Y477522D01*
X54476Y478776D01*
X52054Y479425D01*
D02*
G37*
G36*
X1254D02*
X-1254D01*
X-3677Y478776D01*
X-5849Y477522D01*
X-7622Y475748D01*
X-8876Y473577D01*
X-9525Y471154D01*
Y468646D01*
X-8876Y466223D01*
X-7622Y464052D01*
X-5849Y462278D01*
X-3677Y461024D01*
X-1254Y460375D01*
X1254D01*
X3677Y461024D01*
X5849Y462278D01*
X7622Y464052D01*
X8876Y466223D01*
X9525Y468646D01*
Y471154D01*
X8876Y473577D01*
X7622Y475748D01*
X5849Y477522D01*
X3677Y478776D01*
X1254Y479425D01*
D02*
G37*
G36*
X-227346D02*
X-229854D01*
X-232276Y478776D01*
X-234449Y477522D01*
X-236222Y475748D01*
X-237476Y473577D01*
X-238125Y471154D01*
Y468646D01*
X-237476Y466223D01*
X-236222Y464052D01*
X-234449Y462278D01*
X-232276Y461024D01*
X-229854Y460375D01*
X-227346D01*
X-224923Y461024D01*
X-222752Y462278D01*
X-220978Y464052D01*
X-219724Y466223D01*
X-219075Y468646D01*
Y471154D01*
X-219724Y473577D01*
X-220978Y475748D01*
X-222752Y477522D01*
X-224923Y478776D01*
X-227346Y479425D01*
D02*
G37*
G36*
X-278146D02*
X-280654D01*
X-283076Y478776D01*
X-285249Y477522D01*
X-287022Y475748D01*
X-288276Y473577D01*
X-288925Y471154D01*
Y468646D01*
X-288276Y466223D01*
X-287022Y464052D01*
X-285249Y462278D01*
X-283076Y461024D01*
X-280654Y460375D01*
X-278146D01*
X-275723Y461024D01*
X-273552Y462278D01*
X-271778Y464052D01*
X-270524Y466223D01*
X-269875Y468646D01*
Y471154D01*
X-270524Y473577D01*
X-271778Y475748D01*
X-273552Y477522D01*
X-275723Y478776D01*
X-278146Y479425D01*
D02*
G37*
G36*
X-506746D02*
X-509254D01*
X-511676Y478776D01*
X-513848Y477522D01*
X-515622Y475748D01*
X-516876Y473577D01*
X-517525Y471154D01*
Y468646D01*
X-516876Y466223D01*
X-515622Y464052D01*
X-513848Y462278D01*
X-511676Y461024D01*
X-509254Y460375D01*
X-506746D01*
X-504324Y461024D01*
X-502151Y462278D01*
X-500378Y464052D01*
X-499124Y466223D01*
X-498475Y468646D01*
Y471154D01*
X-499124Y473577D01*
X-500378Y475748D01*
X-502151Y477522D01*
X-504324Y478776D01*
X-506746Y479425D01*
D02*
G37*
G36*
X460849Y464270D02*
X459151D01*
X457581Y463620D01*
X456380Y462419D01*
X455730Y460849D01*
Y459151D01*
X456380Y457581D01*
X457581Y456380D01*
X459151Y455730D01*
X460849D01*
X462419Y456380D01*
X463620Y457581D01*
X464270Y459151D01*
Y460849D01*
X463620Y462419D01*
X462419Y463620D01*
X460849Y464270D01*
D02*
G37*
G36*
X427849D02*
X426151D01*
X424581Y463620D01*
X423380Y462419D01*
X422730Y460849D01*
Y459151D01*
X423380Y457581D01*
X424581Y456380D01*
X426151Y455730D01*
X427849D01*
X429419Y456380D01*
X430620Y457581D01*
X431270Y459151D01*
Y460849D01*
X430620Y462419D01*
X429419Y463620D01*
X427849Y464270D01*
D02*
G37*
G36*
X280654Y454025D02*
X278146D01*
X275723Y453376D01*
X273552Y452122D01*
X271778Y450349D01*
X270524Y448176D01*
X269875Y445754D01*
Y443246D01*
X270524Y440824D01*
X271778Y438652D01*
X273552Y436878D01*
X275723Y435624D01*
X278146Y434975D01*
X280654D01*
X283076Y435624D01*
X285249Y436878D01*
X287022Y438652D01*
X288276Y440824D01*
X288925Y443246D01*
Y445754D01*
X288276Y448176D01*
X287022Y450349D01*
X285249Y452122D01*
X283076Y453376D01*
X280654Y454025D01*
D02*
G37*
G36*
X52054D02*
X49546D01*
X47123Y453376D01*
X44952Y452122D01*
X43178Y450349D01*
X41924Y448176D01*
X41275Y445754D01*
Y443246D01*
X41924Y440824D01*
X43178Y438652D01*
X44952Y436878D01*
X47123Y435624D01*
X49546Y434975D01*
X52054D01*
X54476Y435624D01*
X56649Y436878D01*
X58422Y438652D01*
X59676Y440824D01*
X60325Y443246D01*
Y445754D01*
X59676Y448176D01*
X58422Y450349D01*
X56649Y452122D01*
X54476Y453376D01*
X52054Y454025D01*
D02*
G37*
G36*
X1254D02*
X-1254D01*
X-3677Y453376D01*
X-5849Y452122D01*
X-7622Y450349D01*
X-8876Y448176D01*
X-9525Y445754D01*
Y443246D01*
X-8876Y440824D01*
X-7622Y438652D01*
X-5849Y436878D01*
X-3677Y435624D01*
X-1254Y434975D01*
X1254D01*
X3677Y435624D01*
X5849Y436878D01*
X7622Y438652D01*
X8876Y440824D01*
X9525Y443246D01*
Y445754D01*
X8876Y448176D01*
X7622Y450349D01*
X5849Y452122D01*
X3677Y453376D01*
X1254Y454025D01*
D02*
G37*
G36*
X-227346D02*
X-229854D01*
X-232276Y453376D01*
X-234449Y452122D01*
X-236222Y450349D01*
X-237476Y448176D01*
X-238125Y445754D01*
Y443246D01*
X-237476Y440824D01*
X-236222Y438652D01*
X-234449Y436878D01*
X-232276Y435624D01*
X-229854Y434975D01*
X-227346D01*
X-224923Y435624D01*
X-222752Y436878D01*
X-220978Y438652D01*
X-219724Y440824D01*
X-219075Y443246D01*
Y445754D01*
X-219724Y448176D01*
X-220978Y450349D01*
X-222752Y452122D01*
X-224923Y453376D01*
X-227346Y454025D01*
D02*
G37*
G36*
X-278146D02*
X-280654D01*
X-283076Y453376D01*
X-285249Y452122D01*
X-287022Y450349D01*
X-288276Y448176D01*
X-288925Y445754D01*
Y443246D01*
X-288276Y440824D01*
X-287022Y438652D01*
X-285249Y436878D01*
X-283076Y435624D01*
X-280654Y434975D01*
X-278146D01*
X-275723Y435624D01*
X-273552Y436878D01*
X-271778Y438652D01*
X-270524Y440824D01*
X-269875Y443246D01*
Y445754D01*
X-270524Y448176D01*
X-271778Y450349D01*
X-273552Y452122D01*
X-275723Y453376D01*
X-278146Y454025D01*
D02*
G37*
G36*
X-506746D02*
X-509254D01*
X-511676Y453376D01*
X-513848Y452122D01*
X-515622Y450349D01*
X-516876Y448176D01*
X-517525Y445754D01*
Y443246D01*
X-516876Y440824D01*
X-515622Y438652D01*
X-513848Y436878D01*
X-511676Y435624D01*
X-509254Y434975D01*
X-506746D01*
X-504324Y435624D01*
X-502151Y436878D01*
X-500378Y438652D01*
X-499124Y440824D01*
X-498475Y443246D01*
Y445754D01*
X-499124Y448176D01*
X-500378Y450349D01*
X-502151Y452122D01*
X-504324Y453376D01*
X-506746Y454025D01*
D02*
G37*
G36*
X427849Y436270D02*
X426151D01*
X424581Y435620D01*
X423380Y434419D01*
X422730Y432849D01*
Y431151D01*
X423380Y429581D01*
X424581Y428380D01*
X426151Y427730D01*
X427849D01*
X429419Y428380D01*
X430620Y429581D01*
X431270Y431151D01*
Y432849D01*
X430620Y434419D01*
X429419Y435620D01*
X427849Y436270D01*
D02*
G37*
G36*
X513707Y426556D02*
X512293D01*
X510986Y426015D01*
X510271Y425300D01*
X509500Y425125D01*
X508729Y425300D01*
X508014Y426015D01*
X506707Y426556D01*
X505293D01*
X503986Y426015D01*
X502985Y425014D01*
X502444Y423707D01*
Y422293D01*
X502985Y420986D01*
X503700Y420271D01*
X503875Y419500D01*
X503700Y418729D01*
X502985Y418014D01*
X502444Y416707D01*
Y415293D01*
X502985Y413986D01*
X503986Y412985D01*
X505293Y412444D01*
X506707D01*
X508014Y412985D01*
X508729Y413700D01*
X509500Y413875D01*
X510271Y413700D01*
X510986Y412985D01*
X512293Y412444D01*
X513707D01*
X515014Y412985D01*
X516015Y413986D01*
X516556Y415293D01*
Y416707D01*
X516015Y418014D01*
X515300Y418729D01*
X515125Y419500D01*
X515300Y420271D01*
X516015Y420986D01*
X516556Y422293D01*
Y423707D01*
X516015Y425014D01*
X515014Y426015D01*
X513707Y426556D01*
D02*
G37*
G36*
X554707D02*
X553293D01*
X551986Y426015D01*
X551271Y425300D01*
X550500Y425125D01*
X549729Y425300D01*
X549014Y426015D01*
X547707Y426556D01*
X546293D01*
X544986Y426015D01*
X543985Y425014D01*
X543444Y423707D01*
Y422293D01*
X543985Y420986D01*
X544700Y420271D01*
X544875Y419500D01*
X544700Y418729D01*
X543985Y418014D01*
X543444Y416707D01*
Y415293D01*
X543985Y413986D01*
X544986Y412985D01*
X546293Y412444D01*
X547707D01*
X549014Y412985D01*
X549729Y413700D01*
X550500Y413875D01*
X551271Y413700D01*
X551986Y412985D01*
X553293Y412444D01*
X554707D01*
X556014Y412985D01*
X557015Y413986D01*
X557556Y415293D01*
Y416707D01*
X557015Y418014D01*
X556300Y418729D01*
X556125Y419500D01*
X556300Y420271D01*
X557015Y420986D01*
X557556Y422293D01*
Y423707D01*
X557015Y425014D01*
X556014Y426015D01*
X554707Y426556D01*
D02*
G37*
G36*
X280654Y428625D02*
X278146D01*
X275723Y427976D01*
X273552Y426722D01*
X271778Y424949D01*
X270524Y422776D01*
X269875Y420354D01*
Y417846D01*
X270524Y415424D01*
X271778Y413251D01*
X273552Y411478D01*
X275723Y410224D01*
X278146Y409575D01*
X280654D01*
X283076Y410224D01*
X285249Y411478D01*
X287022Y413251D01*
X288276Y415424D01*
X288925Y417846D01*
Y420354D01*
X288276Y422776D01*
X287022Y424949D01*
X285249Y426722D01*
X283076Y427976D01*
X280654Y428625D01*
D02*
G37*
G36*
X52054D02*
X49546D01*
X47123Y427976D01*
X44952Y426722D01*
X43178Y424949D01*
X41924Y422776D01*
X41275Y420354D01*
Y417846D01*
X41924Y415424D01*
X43178Y413251D01*
X44952Y411478D01*
X47123Y410224D01*
X49546Y409575D01*
X52054D01*
X54476Y410224D01*
X56649Y411478D01*
X58422Y413251D01*
X59676Y415424D01*
X60325Y417846D01*
Y420354D01*
X59676Y422776D01*
X58422Y424949D01*
X56649Y426722D01*
X54476Y427976D01*
X52054Y428625D01*
D02*
G37*
G36*
X1254D02*
X-1254D01*
X-3677Y427976D01*
X-5849Y426722D01*
X-7622Y424949D01*
X-8876Y422776D01*
X-9525Y420354D01*
Y417846D01*
X-8876Y415424D01*
X-7622Y413251D01*
X-5849Y411478D01*
X-3677Y410224D01*
X-1254Y409575D01*
X1254D01*
X3677Y410224D01*
X5849Y411478D01*
X7622Y413251D01*
X8876Y415424D01*
X9525Y417846D01*
Y420354D01*
X8876Y422776D01*
X7622Y424949D01*
X5849Y426722D01*
X3677Y427976D01*
X1254Y428625D01*
D02*
G37*
G36*
X-227346D02*
X-229854D01*
X-232276Y427976D01*
X-234449Y426722D01*
X-236222Y424949D01*
X-237476Y422776D01*
X-238125Y420354D01*
Y417846D01*
X-237476Y415424D01*
X-236222Y413251D01*
X-234449Y411478D01*
X-232276Y410224D01*
X-229854Y409575D01*
X-227346D01*
X-224923Y410224D01*
X-222752Y411478D01*
X-220978Y413251D01*
X-219724Y415424D01*
X-219075Y417846D01*
Y420354D01*
X-219724Y422776D01*
X-220978Y424949D01*
X-222752Y426722D01*
X-224923Y427976D01*
X-227346Y428625D01*
D02*
G37*
G36*
X-278146D02*
X-280654D01*
X-283076Y427976D01*
X-285249Y426722D01*
X-287022Y424949D01*
X-288276Y422776D01*
X-288925Y420354D01*
Y417846D01*
X-288276Y415424D01*
X-287022Y413251D01*
X-285249Y411478D01*
X-283076Y410224D01*
X-280654Y409575D01*
X-278146D01*
X-275723Y410224D01*
X-273552Y411478D01*
X-271778Y413251D01*
X-270524Y415424D01*
X-269875Y417846D01*
Y420354D01*
X-270524Y422776D01*
X-271778Y424949D01*
X-273552Y426722D01*
X-275723Y427976D01*
X-278146Y428625D01*
D02*
G37*
G36*
X-506746D02*
X-509254D01*
X-511676Y427976D01*
X-513848Y426722D01*
X-515622Y424949D01*
X-516876Y422776D01*
X-517525Y420354D01*
Y417846D01*
X-516876Y415424D01*
X-515622Y413251D01*
X-513848Y411478D01*
X-511676Y410224D01*
X-509254Y409575D01*
X-506746D01*
X-504324Y410224D01*
X-502151Y411478D01*
X-500378Y413251D01*
X-499124Y415424D01*
X-498475Y417846D01*
Y420354D01*
X-499124Y422776D01*
X-500378Y424949D01*
X-502151Y426722D01*
X-504324Y427976D01*
X-506746Y428625D01*
D02*
G37*
G36*
X473707Y406556D02*
X472293D01*
X470986Y406015D01*
X470271Y405300D01*
X469500Y405125D01*
X468729Y405300D01*
X468014Y406015D01*
X466707Y406556D01*
X465293D01*
X463986Y406015D01*
X463271Y405300D01*
X462500Y405125D01*
X461729Y405300D01*
X461014Y406015D01*
X459707Y406556D01*
X458293D01*
X456986Y406015D01*
X456271Y405300D01*
X455500Y405125D01*
X454729Y405300D01*
X454014Y406015D01*
X452707Y406556D01*
X451293D01*
X449986Y406015D01*
X449271Y405300D01*
X448500Y405125D01*
X447729Y405300D01*
X447014Y406015D01*
X445707Y406556D01*
X444293D01*
X442986Y406015D01*
X441985Y405014D01*
X441444Y403707D01*
Y402293D01*
X441985Y400986D01*
X442700Y400271D01*
X442875Y399500D01*
X442700Y398729D01*
X441985Y398014D01*
X441444Y396707D01*
Y395293D01*
X441985Y393986D01*
X442986Y392985D01*
X444293Y392444D01*
X445707D01*
X447014Y392985D01*
X447729Y393700D01*
X448500Y393875D01*
X449271Y393700D01*
X449986Y392985D01*
X451293Y392444D01*
X452707D01*
X454014Y392985D01*
X454729Y393700D01*
X455500Y393875D01*
X456271Y393700D01*
X456986Y392985D01*
X458293Y392444D01*
X459707D01*
X461014Y392985D01*
X461729Y393700D01*
X462500Y393875D01*
X463271Y393700D01*
X463986Y392985D01*
X465293Y392444D01*
X466707D01*
X468014Y392985D01*
X468729Y393700D01*
X469500Y393875D01*
X470271Y393700D01*
X470986Y392985D01*
X472293Y392444D01*
X473707D01*
X475014Y392985D01*
X475729Y393700D01*
X476500Y393875D01*
X477271Y393700D01*
X477986Y392985D01*
X479293Y392444D01*
X480707D01*
X482014Y392985D01*
X482729Y393700D01*
X483500Y393875D01*
X484271Y393700D01*
X484986Y392985D01*
X486293Y392444D01*
X487707D01*
X489014Y392985D01*
X489729Y393700D01*
X490500Y393875D01*
X491271Y393700D01*
X491986Y392985D01*
X493293Y392444D01*
X494707D01*
X496014Y392985D01*
X496729Y393700D01*
X497500Y393875D01*
X498271Y393700D01*
X498986Y392985D01*
X500293Y392444D01*
X501707D01*
X503014Y392985D01*
X504015Y393986D01*
X504556Y395293D01*
Y396707D01*
X504015Y398014D01*
X503300Y398729D01*
X503125Y399500D01*
X503300Y400271D01*
X504015Y400986D01*
X504556Y402293D01*
Y403707D01*
X504015Y405014D01*
X503014Y406015D01*
X501707Y406556D01*
X500293D01*
X498986Y406015D01*
X498271Y405300D01*
X497500Y405125D01*
X496729Y405300D01*
X496014Y406015D01*
X494707Y406556D01*
X493293D01*
X491986Y406015D01*
X491271Y405300D01*
X490500Y405125D01*
X489729Y405300D01*
X489014Y406015D01*
X487707Y406556D01*
X486293D01*
X484986Y406015D01*
X484271Y405300D01*
X483500Y405125D01*
X482729Y405300D01*
X482014Y406015D01*
X480707Y406556D01*
X479293D01*
X477986Y406015D01*
X477271Y405300D01*
X476500Y405125D01*
X475729Y405300D01*
X475014Y406015D01*
X473707Y406556D01*
D02*
G37*
G36*
X388849Y276270D02*
X387151D01*
X385581Y275620D01*
X384380Y274419D01*
X383730Y272849D01*
Y271151D01*
X384380Y269581D01*
X385581Y268380D01*
X387151Y267730D01*
X388849D01*
X390419Y268380D01*
X391620Y269581D01*
X392270Y271151D01*
Y272849D01*
X391620Y274419D01*
X390419Y275620D01*
X388849Y276270D01*
D02*
G37*
G36*
X355849Y271270D02*
X354151D01*
X352581Y270620D01*
X351380Y269419D01*
X350730Y267849D01*
Y266151D01*
X351380Y264581D01*
X352581Y263380D01*
X354151Y262730D01*
X355849D01*
X357419Y263380D01*
X358620Y264581D01*
X359270Y266151D01*
Y267849D01*
X358620Y269419D01*
X357419Y270620D01*
X355849Y271270D01*
D02*
G37*
G36*
X386934Y258185D02*
X385235D01*
X383666Y257535D01*
X382465Y256334D01*
X381815Y254765D01*
Y253066D01*
X382465Y251497D01*
X383666Y250296D01*
X385235Y249645D01*
X386934D01*
X388503Y250296D01*
X389705Y251497D01*
X390355Y253066D01*
Y254765D01*
X389705Y256334D01*
X388503Y257535D01*
X386934Y258185D01*
D02*
G37*
G36*
X356849Y250270D02*
X355151D01*
X353581Y249620D01*
X352380Y248419D01*
X351730Y246849D01*
Y245151D01*
X352380Y243581D01*
X353581Y242380D01*
X355151Y241730D01*
X356849D01*
X358419Y242380D01*
X359620Y243581D01*
X360270Y245151D01*
Y246849D01*
X359620Y248419D01*
X358419Y249620D01*
X356849Y250270D01*
D02*
G37*
G36*
X449707Y237556D02*
X448293D01*
X446986Y237015D01*
X445985Y236014D01*
X445444Y234707D01*
Y233293D01*
X445985Y231986D01*
X446700Y231271D01*
X446875Y230500D01*
X446700Y229729D01*
X446271Y229300D01*
X445500Y229125D01*
X444729Y229300D01*
X444014Y230015D01*
X442707Y230556D01*
X441293D01*
X439986Y230015D01*
X438985Y229014D01*
X438444Y227707D01*
Y226293D01*
X438985Y224986D01*
X439700Y224271D01*
X439875Y223500D01*
X439700Y222729D01*
X438985Y222014D01*
X438444Y220707D01*
Y219293D01*
X438985Y217986D01*
X439700Y217271D01*
X439875Y216500D01*
X439700Y215729D01*
X438985Y215014D01*
X438444Y213707D01*
Y212293D01*
X438985Y210986D01*
X439700Y210271D01*
X439875Y209500D01*
X439700Y208729D01*
X438985Y208014D01*
X438444Y206707D01*
Y205293D01*
X438985Y203986D01*
X439700Y203271D01*
X439875Y202500D01*
X439700Y201729D01*
X438985Y201014D01*
X438444Y199707D01*
Y198293D01*
X438985Y196986D01*
X439700Y196271D01*
X439875Y195500D01*
X439700Y194729D01*
X438985Y194014D01*
X438444Y192707D01*
Y191293D01*
X438985Y189986D01*
X439986Y188985D01*
X441293Y188444D01*
X442707D01*
X444014Y188985D01*
X445015Y189986D01*
X445556Y191293D01*
Y192707D01*
X445015Y194014D01*
X444300Y194729D01*
X444125Y195500D01*
X444300Y196271D01*
X445015Y196986D01*
X445556Y198293D01*
Y199707D01*
X445015Y201014D01*
X444300Y201729D01*
X444125Y202500D01*
X444300Y203271D01*
X445015Y203986D01*
X445556Y205293D01*
Y206707D01*
X445015Y208014D01*
X444300Y208729D01*
X444125Y209500D01*
X444300Y210271D01*
X445015Y210986D01*
X445556Y212293D01*
Y213707D01*
X445015Y215014D01*
X444300Y215729D01*
X444125Y216500D01*
X444300Y217271D01*
X444729Y217700D01*
X445500Y217875D01*
X446271Y217700D01*
X446986Y216985D01*
X448293Y216444D01*
X449707D01*
X451014Y216985D01*
X452015Y217986D01*
X452556Y219293D01*
Y220707D01*
X452015Y222014D01*
X451300Y222729D01*
X451125Y223500D01*
X451300Y224271D01*
X452015Y224986D01*
X452556Y226293D01*
Y227707D01*
X452015Y229014D01*
X451300Y229729D01*
X451125Y230500D01*
X451300Y231271D01*
X452015Y231986D01*
X452556Y233293D01*
Y234707D01*
X452015Y236014D01*
X451014Y237015D01*
X449707Y237556D01*
D02*
G37*
G36*
X384707Y222556D02*
X383293D01*
X381986Y222015D01*
X381271Y221300D01*
X380500Y221125D01*
X379729Y221300D01*
X379014Y222015D01*
X377707Y222556D01*
X376293D01*
X374986Y222015D01*
X374271Y221300D01*
X373500Y221125D01*
X372729Y221300D01*
X372014Y222015D01*
X370707Y222556D01*
X369293D01*
X367986Y222015D01*
X366985Y221014D01*
X366444Y219707D01*
Y218293D01*
X366985Y216986D01*
X367986Y215985D01*
X368109Y215934D01*
X368985Y215014D01*
X368733Y214406D01*
X368444Y213707D01*
Y212293D01*
X368985Y210986D01*
X369188Y210783D01*
X369203Y210606D01*
X368816Y209359D01*
X367986Y209015D01*
X366985Y208014D01*
X366444Y206707D01*
Y205293D01*
X366985Y203986D01*
X367986Y202985D01*
X369293Y202444D01*
X370707D01*
X372014Y202985D01*
X373015Y203986D01*
X373556Y205293D01*
Y206707D01*
X373015Y208014D01*
X372812Y208217D01*
X372797Y208394D01*
X373184Y209641D01*
X374014Y209985D01*
X374729Y210700D01*
X375500Y210875D01*
X376271Y210700D01*
X376986Y209985D01*
X378293Y209444D01*
X379707D01*
X381014Y209985D01*
X382015Y210986D01*
X382556Y212293D01*
Y213707D01*
X382222Y214513D01*
X383195Y215485D01*
X383293Y215444D01*
X384707D01*
X386014Y215985D01*
X387015Y216986D01*
X387556Y218293D01*
Y219707D01*
X387015Y221014D01*
X386014Y222015D01*
X384707Y222556D01*
D02*
G37*
G36*
X-516401Y208270D02*
X-518099D01*
X-519669Y207620D01*
X-520870Y206419D01*
X-521520Y204849D01*
Y203151D01*
X-520870Y201581D01*
X-519669Y200380D01*
X-518099Y199730D01*
X-516401D01*
X-514831Y200380D01*
X-513630Y201581D01*
X-512980Y203151D01*
Y204849D01*
X-513630Y206419D01*
X-514831Y207620D01*
X-516401Y208270D01*
D02*
G37*
G36*
X205299Y236530D02*
X201651D01*
X198073Y235818D01*
X194702Y234422D01*
X191669Y232395D01*
X189090Y229816D01*
X187063Y226782D01*
X185667Y223412D01*
X184955Y219834D01*
Y216186D01*
X185667Y212608D01*
X187063Y209237D01*
X189090Y206204D01*
X191669Y203625D01*
X194702Y201598D01*
X198073Y200202D01*
X201651Y199490D01*
X205299D01*
X208877Y200202D01*
X212248Y201598D01*
X215281Y203625D01*
X217860Y206204D01*
X219887Y209237D01*
X221283Y212608D01*
X221995Y216186D01*
Y219834D01*
X221283Y223412D01*
X219887Y226782D01*
X217860Y229816D01*
X215281Y232395D01*
X212248Y234422D01*
X208877Y235818D01*
X205299Y236530D01*
D02*
G37*
G36*
X393707Y202556D02*
X392293D01*
X390986Y202015D01*
X389985Y201014D01*
X389444Y199707D01*
Y198293D01*
X389985Y196986D01*
X390986Y195985D01*
X391109Y195934D01*
X391682Y195352D01*
X391326Y194211D01*
X390113Y193915D01*
X390014Y194015D01*
X388707Y194556D01*
X387293D01*
X385986Y194015D01*
X384985Y193014D01*
X384444Y191707D01*
Y190625D01*
X384008Y189992D01*
X383374Y189556D01*
X382293D01*
X380986Y189015D01*
X379985Y188014D01*
X379444Y186707D01*
Y185293D01*
X379637Y184826D01*
X379308Y183611D01*
X378952Y183415D01*
X377986Y183015D01*
X376985Y182014D01*
X376444Y180707D01*
Y179293D01*
X376985Y177986D01*
X377986Y176985D01*
X379293Y176444D01*
X380707D01*
X382014Y176985D01*
X383015Y177986D01*
X383556Y179293D01*
Y180118D01*
X384826Y180370D01*
X384985Y179986D01*
X385986Y178985D01*
X387293Y178444D01*
X388707D01*
X390014Y178985D01*
X390217Y179188D01*
X390394Y179203D01*
X391641Y178816D01*
X391985Y177986D01*
X392986Y176985D01*
X394293Y176444D01*
X395707D01*
X397014Y176985D01*
X398015Y177986D01*
X398556Y179293D01*
Y180707D01*
X398015Y182014D01*
X397014Y183015D01*
X396891Y183066D01*
X396015Y183986D01*
X396267Y184594D01*
X396556Y185293D01*
Y186707D01*
X396015Y188014D01*
X395806Y188223D01*
X395792Y188434D01*
X396178Y189647D01*
X397029Y190000D01*
X398029Y191000D01*
X398571Y192307D01*
Y193722D01*
X398029Y195029D01*
X397029Y196029D01*
X396905Y196080D01*
X396015Y196986D01*
X396274Y197612D01*
X396556Y198293D01*
Y199707D01*
X396015Y201014D01*
X395014Y202015D01*
X393707Y202556D01*
D02*
G37*
G36*
X361707Y190556D02*
X360293D01*
X358986Y190015D01*
X357985Y189014D01*
X357444Y187707D01*
Y186293D01*
X357985Y184986D01*
X358986Y183985D01*
X360293Y183444D01*
X361707D01*
X363014Y183985D01*
X364015Y184986D01*
X364556Y186293D01*
Y187707D01*
X364015Y189014D01*
X363014Y190015D01*
X361707Y190556D01*
D02*
G37*
G36*
X-516401Y179520D02*
X-518099D01*
X-519669Y178870D01*
X-520870Y177669D01*
X-521520Y176099D01*
Y174401D01*
X-520870Y172831D01*
X-519669Y171630D01*
X-518099Y170980D01*
X-516401D01*
X-514831Y171630D01*
X-513630Y172831D01*
X-512980Y174401D01*
Y176099D01*
X-513630Y177669D01*
X-514831Y178870D01*
X-516401Y179520D01*
D02*
G37*
G36*
X-545684Y177270D02*
X-547383D01*
X-548952Y176620D01*
X-550153Y175419D01*
X-550803Y173849D01*
Y172151D01*
X-551005Y171848D01*
X-552226D01*
X-553795Y171198D01*
X-554996Y169997D01*
X-555647Y168428D01*
Y166729D01*
X-554996Y165160D01*
X-553795Y163958D01*
X-552226Y163308D01*
X-550527D01*
X-548958Y163958D01*
X-547757Y165160D01*
X-547107Y166729D01*
Y168428D01*
X-546905Y168730D01*
X-545684D01*
X-544114Y169380D01*
X-542913Y170581D01*
X-542263Y172151D01*
Y173849D01*
X-542913Y175419D01*
X-544114Y176620D01*
X-545684Y177270D01*
D02*
G37*
G36*
X-527151Y138270D02*
X-528849D01*
X-530419Y137620D01*
X-531620Y136419D01*
X-532270Y134849D01*
Y133151D01*
X-531620Y131581D01*
X-530419Y130380D01*
X-528849Y129730D01*
X-527151D01*
X-525581Y130380D01*
X-524380Y131581D01*
X-523730Y133151D01*
Y134849D01*
X-524380Y136419D01*
X-525581Y137620D01*
X-527151Y138270D01*
D02*
G37*
G36*
X-551151Y107270D02*
X-552849D01*
X-554419Y106620D01*
X-555620Y105419D01*
X-556270Y103849D01*
Y102151D01*
X-555620Y100581D01*
X-554419Y99380D01*
X-552849Y98730D01*
X-551151D01*
X-549581Y99380D01*
X-548380Y100581D01*
X-547730Y102151D01*
Y103849D01*
X-548380Y105419D01*
X-549581Y106620D01*
X-551151Y107270D01*
D02*
G37*
G36*
X-558151Y90270D02*
X-559849D01*
X-561419Y89620D01*
X-562620Y88419D01*
X-563270Y86849D01*
Y85151D01*
X-562620Y83581D01*
X-561419Y82380D01*
X-559849Y81730D01*
X-558151D01*
X-556581Y82380D01*
X-555380Y83581D01*
X-554730Y85151D01*
Y86849D01*
X-555380Y88419D01*
X-556581Y89620D01*
X-558151Y90270D01*
D02*
G37*
G36*
X353895Y81295D02*
X334105D01*
Y61505D01*
X353895D01*
Y81295D01*
D02*
G37*
G36*
X287510Y71198D02*
X284032D01*
X280673Y70298D01*
X277661Y68559D01*
X275202Y66100D01*
X273463Y63088D01*
X272563Y59729D01*
Y56251D01*
X273463Y52892D01*
X275202Y49880D01*
X277661Y47421D01*
X280673Y45682D01*
X284032Y44782D01*
X287510D01*
X290869Y45682D01*
X293881Y47421D01*
X296340Y49880D01*
X298079Y52892D01*
X298979Y56251D01*
Y59729D01*
X298079Y63088D01*
X296340Y66100D01*
X293881Y68559D01*
X290869Y70298D01*
X287510Y71198D01*
D02*
G37*
G36*
X-347151Y76510D02*
X-350799D01*
X-354377Y75798D01*
X-357747Y74402D01*
X-360781Y72375D01*
X-363360Y69796D01*
X-365387Y66762D01*
X-366783Y63392D01*
X-367495Y59814D01*
Y56166D01*
X-366783Y52588D01*
X-365387Y49218D01*
X-363360Y46184D01*
X-360781Y43605D01*
X-357747Y41578D01*
X-354377Y40182D01*
X-350799Y39470D01*
X-347151D01*
X-343573Y40182D01*
X-340202Y41578D01*
X-337169Y43605D01*
X-334590Y46184D01*
X-332563Y49218D01*
X-331167Y52588D01*
X-330455Y56166D01*
Y59814D01*
X-331167Y63392D01*
X-332563Y66762D01*
X-334590Y69796D01*
X-337169Y72375D01*
X-340202Y74402D01*
X-343573Y75798D01*
X-347151Y76510D01*
D02*
G37*
G36*
X345303Y55895D02*
X342697D01*
X340181Y55221D01*
X337924Y53918D01*
X336082Y52076D01*
X334779Y49819D01*
X334105Y47303D01*
Y44697D01*
X334779Y42181D01*
X336082Y39924D01*
X337924Y38082D01*
X340181Y36779D01*
X342697Y36105D01*
X345303D01*
X347819Y36779D01*
X350076Y38082D01*
X351918Y39924D01*
X353221Y42181D01*
X353895Y44697D01*
Y47303D01*
X353221Y49819D01*
X351918Y52076D01*
X350076Y53918D01*
X347819Y55221D01*
X345303Y55895D01*
D02*
G37*
G36*
X581970Y70000D02*
X578030D01*
X574166Y69231D01*
X570526Y67724D01*
X567251Y65535D01*
X564465Y62749D01*
X562276Y59474D01*
X560769Y55834D01*
X560000Y51970D01*
Y48030D01*
X560769Y44166D01*
X562276Y40526D01*
X564465Y37251D01*
X567251Y34465D01*
X570526Y32276D01*
X574166Y30769D01*
X578030Y30000D01*
X581970D01*
X585834Y30769D01*
X589473Y32276D01*
X592749Y34465D01*
X595535Y37251D01*
X597724Y40526D01*
X599231Y44166D01*
X600000Y48030D01*
Y51970D01*
X599231Y55834D01*
X597724Y59474D01*
X595535Y62749D01*
X592749Y65535D01*
X589473Y67724D01*
X585834Y69231D01*
X581970Y70000D01*
D02*
G37*
G36*
X-578028Y70025D02*
X-581972D01*
X-585841Y69255D01*
X-589485Y67746D01*
X-592765Y65554D01*
X-595555Y62765D01*
X-597746Y59485D01*
X-599255Y55841D01*
X-600025Y51972D01*
Y48028D01*
X-599255Y44159D01*
X-597746Y40515D01*
X-595555Y37235D01*
X-592765Y34446D01*
X-589485Y32254D01*
X-585841Y30745D01*
X-581972Y29975D01*
X-578028D01*
X-574159Y30745D01*
X-570515Y32254D01*
X-567235Y34446D01*
X-564446Y37235D01*
X-562254Y40515D01*
X-560745Y44159D01*
X-559975Y48028D01*
Y51972D01*
X-560745Y55841D01*
X-562254Y59485D01*
X-564446Y62765D01*
X-567235Y65554D01*
X-570515Y67746D01*
X-574159Y69255D01*
X-578028Y70025D01*
D02*
G37*
%LPD*%
D132*
X-348975Y57990D02*
D03*
X203475Y218010D02*
D03*
D133*
X285771Y57990D02*
D03*
D157*
X600000Y900000D02*
G03*
X600000Y900000I-20000J0D01*
G01*
X-559975Y50000D02*
G03*
X-559975Y50000I-20025J0D01*
G01*
X-560000Y900000D02*
G03*
X-560000Y900000I-20000J0D01*
G01*
X600000Y50000D02*
G03*
X600000Y50000I-20000J0D01*
G01*
D158*
X-446000Y905000D02*
D03*
X-466000D02*
D03*
X-486000D02*
D03*
D159*
X-425000D02*
D03*
X-507000D02*
D03*
D160*
X279400Y419100D02*
D03*
Y546100D02*
D03*
Y520700D02*
D03*
Y571500D02*
D03*
Y469900D02*
D03*
Y444500D02*
D03*
Y495300D02*
D03*
Y393700D02*
D03*
X50800Y520700D02*
D03*
Y393700D02*
D03*
Y495300D02*
D03*
Y444500D02*
D03*
Y419100D02*
D03*
Y469900D02*
D03*
Y546100D02*
D03*
X-279400Y419100D02*
D03*
Y546100D02*
D03*
Y520700D02*
D03*
Y571500D02*
D03*
Y469900D02*
D03*
Y444500D02*
D03*
Y495300D02*
D03*
Y393700D02*
D03*
X-508000Y520700D02*
D03*
Y393700D02*
D03*
Y495300D02*
D03*
Y444500D02*
D03*
Y419100D02*
D03*
Y469900D02*
D03*
Y546100D02*
D03*
X-228600D02*
D03*
Y469900D02*
D03*
Y419100D02*
D03*
Y444500D02*
D03*
Y495300D02*
D03*
Y393700D02*
D03*
Y520700D02*
D03*
X0Y393700D02*
D03*
Y495300D02*
D03*
Y444500D02*
D03*
Y469900D02*
D03*
Y571500D02*
D03*
Y520700D02*
D03*
Y546100D02*
D03*
Y419100D02*
D03*
D161*
X50800Y571500D02*
D03*
X-508000D02*
D03*
X-228600D02*
D03*
D162*
X344000Y46000D02*
D03*
X-254000Y748600D02*
D03*
Y687000D02*
D03*
D163*
X344000Y71400D02*
D03*
X-254000Y774000D02*
D03*
Y712400D02*
D03*
D164*
X503400Y572000D02*
D03*
X478000D02*
D03*
D165*
X452600D02*
D03*
D166*
X-118000Y902000D02*
D03*
X-163000D02*
D03*
X-21000D02*
D03*
X-66000D02*
D03*
D167*
X-105450Y877100D02*
D03*
X-175550D02*
D03*
X-8450D02*
D03*
X-78550D02*
D03*
D168*
X158050Y867500D02*
D03*
X239950D02*
D03*
X108450D02*
D03*
X26550D02*
D03*
D169*
X155800Y912000D02*
D03*
X242200D02*
D03*
X110700D02*
D03*
X24300D02*
D03*
D170*
X163000Y881500D02*
D03*
X31500D02*
D03*
D171*
X235000D02*
D03*
X103500D02*
D03*
X-219000Y851000D02*
D03*
X72450Y843450D02*
D03*
X73000Y883000D02*
D03*
X66270Y885750D02*
D03*
X192000Y843000D02*
D03*
X196000Y886000D02*
D03*
X202738Y883270D02*
D03*
X309837Y887220D02*
D03*
X353000Y869000D02*
D03*
X315806Y880000D02*
D03*
X615000Y756000D02*
D03*
X576000D02*
D03*
X559000Y836980D02*
D03*
X-448000Y804000D02*
D03*
X-552000Y103000D02*
D03*
X-559000Y86000D02*
D03*
X531558Y623442D02*
D03*
X-528000Y134000D02*
D03*
X273020Y858222D02*
D03*
X282100Y846870D02*
D03*
X277676Y852639D02*
D03*
X293000Y836000D02*
D03*
X287500Y841500D02*
D03*
X143000Y765000D02*
D03*
X139000Y850000D02*
D03*
X17000Y753000D02*
D03*
X-234000Y841000D02*
D03*
X-246000Y862000D02*
D03*
X-34000Y845000D02*
D03*
X-54000Y844000D02*
D03*
X-258000Y599000D02*
D03*
X-250730Y594000D02*
D03*
X-413000Y846000D02*
D03*
X488000Y732000D02*
D03*
X501000Y752000D02*
D03*
X514000Y641000D02*
D03*
X513000Y728000D02*
D03*
X489000Y640000D02*
D03*
X501000D02*
D03*
X475445Y641555D02*
D03*
X169000Y811000D02*
D03*
X39000Y801000D02*
D03*
X427000Y432000D02*
D03*
X306000Y802000D02*
D03*
X375000Y739000D02*
D03*
X399270Y731723D02*
D03*
X404730Y713000D02*
D03*
X370214Y865270D02*
D03*
X377684Y873331D02*
D03*
X412730Y771901D02*
D03*
X278000Y834000D02*
D03*
X282000Y825000D02*
D03*
X259000Y860000D02*
D03*
X462000Y898000D02*
D03*
X2000Y795000D02*
D03*
X286000Y743000D02*
D03*
Y751000D02*
D03*
X292000Y759000D02*
D03*
X596000Y747000D02*
D03*
X525000Y803000D02*
D03*
Y818000D02*
D03*
Y831000D02*
D03*
Y844000D02*
D03*
X300200Y867050D02*
D03*
X378000Y778250D02*
D03*
X356000D02*
D03*
X318000Y750000D02*
D03*
X398000Y753000D02*
D03*
X349000D02*
D03*
Y762005D02*
D03*
X439270Y732723D02*
D03*
X421730Y739000D02*
D03*
X416000Y732000D02*
D03*
X439000Y762000D02*
D03*
X-343000Y891000D02*
D03*
X381000Y880270D02*
D03*
X472000Y898000D02*
D03*
X450000D02*
D03*
X629750Y597250D02*
D03*
X595000Y531000D02*
D03*
X568031Y597031D02*
D03*
X369750Y822250D02*
D03*
X361500D02*
D03*
X353250Y877250D02*
D03*
Y860750D02*
D03*
X559000Y809980D02*
D03*
Y823980D02*
D03*
Y851000D02*
D03*
X372968Y747000D02*
D03*
X416000Y610000D02*
D03*
X574000Y519000D02*
D03*
X614000Y512000D02*
D03*
X409000Y604730D02*
D03*
X386000Y621000D02*
D03*
X396000D02*
D03*
X243000Y763000D02*
D03*
X254270Y822000D02*
D03*
X249000Y813000D02*
D03*
X297000Y918000D02*
D03*
X397000Y574000D02*
D03*
X386000D02*
D03*
X-45000Y777000D02*
D03*
X568000Y805000D02*
D03*
Y818032D02*
D03*
Y831032D02*
D03*
Y843000D02*
D03*
X624000Y792000D02*
D03*
X-393000Y885000D02*
D03*
Y864000D02*
D03*
X515000Y867000D02*
D03*
X525000D02*
D03*
X367000Y735000D02*
D03*
X303750Y759000D02*
D03*
X386250Y811250D02*
D03*
X391750Y816750D02*
D03*
X438000Y747000D02*
D03*
X347750Y816750D02*
D03*
X353250Y836000D02*
D03*
X361500Y869000D02*
D03*
X380750Y852500D02*
D03*
X353250Y825000D02*
D03*
X159000Y489000D02*
D03*
X353250Y852500D02*
D03*
X342250Y811250D02*
D03*
X300000Y908000D02*
D03*
X438500Y852500D02*
D03*
Y863500D02*
D03*
X166000Y508000D02*
D03*
X120000Y731714D02*
D03*
Y724444D02*
D03*
Y709904D02*
D03*
Y717174D02*
D03*
X386085Y253915D02*
D03*
X-551377Y167578D02*
D03*
X-546533Y173000D02*
D03*
X-12000Y707000D02*
D03*
X-25000Y724000D02*
D03*
X454000Y495000D02*
D03*
X427000Y460000D02*
D03*
X460000D02*
D03*
X428000Y475000D02*
D03*
X355000Y267000D02*
D03*
X356000Y246000D02*
D03*
X388000Y272000D02*
D03*
X-25000Y764000D02*
D03*
X-517250Y204000D02*
D03*
Y175250D02*
D03*
D172*
X155800Y861500D02*
D03*
X242200D02*
D03*
X110700D02*
D03*
X24300D02*
D03*
D173*
X53000Y844000D02*
D03*
X85000Y845306D02*
D03*
X53000Y882000D02*
D03*
X82000D02*
D03*
X185000Y843000D02*
D03*
X214000D02*
D03*
X213000Y881000D02*
D03*
X184000Y880000D02*
D03*
X-162354Y178470D02*
D03*
X-567354Y28470D02*
D03*
X-27354Y388470D02*
D03*
X137646Y898469D02*
D03*
X512645Y808469D02*
D03*
X92646Y88470D02*
D03*
X512645Y388470D02*
D03*
X-492354Y598470D02*
D03*
X197646Y298470D02*
D03*
X-57354Y88470D02*
D03*
X-327354Y268470D02*
D03*
X-627354Y868469D02*
D03*
X137646Y598470D02*
D03*
X-597354Y88470D02*
D03*
X-282354Y238470D02*
D03*
X-642354Y58470D02*
D03*
X2646Y28470D02*
D03*
X407645Y538470D02*
D03*
X-222354Y718469D02*
D03*
X587645Y118470D02*
D03*
X-417354Y388470D02*
D03*
X422645D02*
D03*
X-312354Y178470D02*
D03*
X272646Y328470D02*
D03*
X-492354Y298470D02*
D03*
X182646Y328470D02*
D03*
X587645Y478470D02*
D03*
X-417354Y748469D02*
D03*
X-72354Y358470D02*
D03*
X-12354Y178470D02*
D03*
X-327354Y208470D02*
D03*
X572645Y88470D02*
D03*
X227646Y238470D02*
D03*
X2646Y688469D02*
D03*
X-177354Y748469D02*
D03*
X17646Y598470D02*
D03*
X527645Y58470D02*
D03*
X-207354Y148470D02*
D03*
X-432354Y358470D02*
D03*
X-267354Y268470D02*
D03*
X542645Y328470D02*
D03*
X317646Y298470D02*
D03*
X32646Y208470D02*
D03*
X-477354Y88470D02*
D03*
X152646Y568470D02*
D03*
X-537354Y388470D02*
D03*
X-597354Y328470D02*
D03*
X-177354D02*
D03*
X-582354Y178470D02*
D03*
X47646Y118470D02*
D03*
X272646Y148470D02*
D03*
X-582354Y478470D02*
D03*
X-72354Y238470D02*
D03*
X-522354Y538470D02*
D03*
X-222354Y178470D02*
D03*
X-267354Y88470D02*
D03*
X-432354Y598470D02*
D03*
X632645Y568470D02*
D03*
X32646Y328470D02*
D03*
X-372354Y58470D02*
D03*
X212646Y328470D02*
D03*
X-417354Y268470D02*
D03*
X-282354Y718469D02*
D03*
X-162354Y238470D02*
D03*
X212646Y148470D02*
D03*
X-537354Y688469D02*
D03*
X-207354D02*
D03*
X-372354Y598470D02*
D03*
X-612354Y238470D02*
D03*
X32646Y148470D02*
D03*
X557645Y718469D02*
D03*
X632645Y328470D02*
D03*
X647645Y478470D02*
D03*
X-267354Y28470D02*
D03*
X647645Y598470D02*
D03*
X617645Y238470D02*
D03*
X-387354Y688469D02*
D03*
X-537354Y568470D02*
D03*
X-642354Y238470D02*
D03*
X182646Y28470D02*
D03*
X-657354Y868469D02*
D03*
X257646Y298470D02*
D03*
X-657354Y448470D02*
D03*
X62646Y388470D02*
D03*
X272646Y268470D02*
D03*
X-402354Y418470D02*
D03*
X572645Y28470D02*
D03*
X-42354Y118470D02*
D03*
X287646Y298470D02*
D03*
X512645Y148470D02*
D03*
X32646Y568470D02*
D03*
X-582354Y298470D02*
D03*
X107646Y238470D02*
D03*
X-642354Y298470D02*
D03*
X-267354Y568470D02*
D03*
X-87354Y448470D02*
D03*
X92646Y28470D02*
D03*
X-87354Y208470D02*
D03*
X-522354Y898469D02*
D03*
X-627354Y388470D02*
D03*
X-132354Y718469D02*
D03*
X-12354Y298470D02*
D03*
X-222354Y238470D02*
D03*
X-57354Y688469D02*
D03*
X-147354Y748469D02*
D03*
X-642354Y538470D02*
D03*
X-417354Y88470D02*
D03*
X-312354Y58470D02*
D03*
X-642354Y838469D02*
D03*
X-327354Y88470D02*
D03*
X-117354Y808469D02*
D03*
X-342354Y478470D02*
D03*
X-297354Y808469D02*
D03*
X77646Y58470D02*
D03*
X-432354D02*
D03*
X-282354Y298470D02*
D03*
X-222354D02*
D03*
X-627354Y88470D02*
D03*
X-612354Y778469D02*
D03*
X-57354Y28470D02*
D03*
X62646Y88470D02*
D03*
X-177354Y388470D02*
D03*
X122646Y688469D02*
D03*
X47646Y178470D02*
D03*
X-522354Y58470D02*
D03*
X-12354Y598470D02*
D03*
X-627354Y208470D02*
D03*
X-612354Y538470D02*
D03*
X-177354Y208470D02*
D03*
X-312354Y238470D02*
D03*
X122646Y268470D02*
D03*
X-102354Y238470D02*
D03*
X-252354Y298470D02*
D03*
X-87354Y748469D02*
D03*
X437645Y538470D02*
D03*
X-537354Y28470D02*
D03*
X-522354Y838469D02*
D03*
X-252354Y58470D02*
D03*
X122646Y148470D02*
D03*
X-552354Y58470D02*
D03*
X647645Y778469D02*
D03*
X242646Y88470D02*
D03*
X-177354Y808469D02*
D03*
X-417354D02*
D03*
X-372354Y238470D02*
D03*
X137646Y58470D02*
D03*
X362646Y328470D02*
D03*
X-642354Y478470D02*
D03*
X-582354Y418470D02*
D03*
X497645Y118470D02*
D03*
X437645D02*
D03*
X-372354Y298470D02*
D03*
X317646Y718469D02*
D03*
X-222354Y58470D02*
D03*
X-237354Y208470D02*
D03*
X-597354Y808469D02*
D03*
X-297354Y628470D02*
D03*
X17646Y538470D02*
D03*
X317646Y238470D02*
D03*
X-627354Y808469D02*
D03*
X-612354Y298470D02*
D03*
X-162354Y598470D02*
D03*
X647645Y898469D02*
D03*
X-147354Y268470D02*
D03*
X242646Y328470D02*
D03*
X-102354Y358470D02*
D03*
X-252354D02*
D03*
X-192354Y58470D02*
D03*
X-27354Y688469D02*
D03*
X-207354Y208470D02*
D03*
X557645Y358470D02*
D03*
X-267354Y868469D02*
D03*
X-177354Y628470D02*
D03*
X-402354Y118470D02*
D03*
X-207354Y868469D02*
D03*
X512645Y88470D02*
D03*
X92646Y208470D02*
D03*
X497645Y58470D02*
D03*
X-297354Y328470D02*
D03*
X47646Y238470D02*
D03*
X-552354Y838469D02*
D03*
X62646Y208470D02*
D03*
X-432354Y838469D02*
D03*
X-57354Y148470D02*
D03*
X-132354Y238470D02*
D03*
X-612354Y898469D02*
D03*
X542645Y88470D02*
D03*
X-57354Y748469D02*
D03*
X-312354Y418470D02*
D03*
X-597354Y688469D02*
D03*
X272646Y88470D02*
D03*
X557645Y178470D02*
D03*
X197646Y538470D02*
D03*
X-477354Y748469D02*
D03*
X332646Y268470D02*
D03*
X-627354Y328470D02*
D03*
X-117354Y268470D02*
D03*
X452645Y28470D02*
D03*
X107646Y298470D02*
D03*
X602645Y88470D02*
D03*
X2646Y268470D02*
D03*
X242646D02*
D03*
X332646Y328470D02*
D03*
X647645Y58470D02*
D03*
X197646Y178470D02*
D03*
X617645Y358470D02*
D03*
X122646Y328470D02*
D03*
X632645Y688469D02*
D03*
X107646Y358470D02*
D03*
X-207354Y448470D02*
D03*
X-132354Y298470D02*
D03*
X-387354Y28470D02*
D03*
X-612354Y418470D02*
D03*
X-102354Y178470D02*
D03*
X-342354Y118470D02*
D03*
X-492354Y238470D02*
D03*
X2646Y88470D02*
D03*
X-327354Y388470D02*
D03*
X632645Y448470D02*
D03*
X-87354Y388470D02*
D03*
X-597354Y208470D02*
D03*
X617645Y658469D02*
D03*
X152646Y808469D02*
D03*
X-387354Y328470D02*
D03*
X-567354Y808469D02*
D03*
X77646Y358470D02*
D03*
X-72354Y58470D02*
D03*
X647645Y418470D02*
D03*
X-312354Y298470D02*
D03*
X-612354Y118470D02*
D03*
X-552354D02*
D03*
X-447354Y388470D02*
D03*
X-132354Y418470D02*
D03*
X-312354Y538470D02*
D03*
X-402354Y898469D02*
D03*
X-387354Y88470D02*
D03*
X317646Y358470D02*
D03*
X197646D02*
D03*
X-387354Y208470D02*
D03*
X167646Y58470D02*
D03*
X617645Y898469D02*
D03*
X-27354Y268470D02*
D03*
X-192354Y298470D02*
D03*
X-147354Y628470D02*
D03*
Y208470D02*
D03*
X-462354Y238470D02*
D03*
X-357354Y88470D02*
D03*
X-552354Y358470D02*
D03*
X152646Y328470D02*
D03*
X47646Y298470D02*
D03*
X-267354Y688469D02*
D03*
X-642354Y358470D02*
D03*
X302646Y28470D02*
D03*
X632645Y268470D02*
D03*
X-162354Y58470D02*
D03*
X632645Y208470D02*
D03*
X182646Y508470D02*
D03*
X-87354Y688469D02*
D03*
X-117354Y88470D02*
D03*
X-447354Y688469D02*
D03*
X92646Y268470D02*
D03*
X-657354Y568470D02*
D03*
X227646Y538470D02*
D03*
X62646Y268470D02*
D03*
X-102354Y838469D02*
D03*
X-597354Y568470D02*
D03*
X17646Y238470D02*
D03*
Y478470D02*
D03*
X-162354Y718469D02*
D03*
X-297354Y148470D02*
D03*
X-327354Y748469D02*
D03*
X392645Y328470D02*
D03*
X572645Y148470D02*
D03*
X542645D02*
D03*
X647645Y358470D02*
D03*
X-642354Y178470D02*
D03*
X-147354Y328470D02*
D03*
X-372354Y718469D02*
D03*
X-492354Y538470D02*
D03*
X-597354Y148470D02*
D03*
X137646Y178470D02*
D03*
X-237354Y328470D02*
D03*
X-447354Y748469D02*
D03*
X-177354Y88470D02*
D03*
X-312354Y478470D02*
D03*
X-402354Y238470D02*
D03*
X-237354Y268470D02*
D03*
X302646D02*
D03*
X617645Y118470D02*
D03*
X-357354Y448470D02*
D03*
X632645Y868469D02*
D03*
X542645Y388470D02*
D03*
X617645Y178470D02*
D03*
X-372354Y418470D02*
D03*
X617645D02*
D03*
X62646Y148470D02*
D03*
X-282354Y778469D02*
D03*
X-237354Y148470D02*
D03*
X-207354Y388470D02*
D03*
X-177354Y148470D02*
D03*
X167646Y358470D02*
D03*
X-417354Y148470D02*
D03*
X-357354Y328470D02*
D03*
X-612354Y358470D02*
D03*
X-402354Y178470D02*
D03*
Y298470D02*
D03*
X-207354Y28470D02*
D03*
X527645Y778469D02*
D03*
X362646Y28470D02*
D03*
X-552354Y298470D02*
D03*
X-537354Y268470D02*
D03*
X92646Y388470D02*
D03*
X-237354Y28470D02*
D03*
X-117354Y208470D02*
D03*
X-492354Y358470D02*
D03*
X17646D02*
D03*
X-477354Y448470D02*
D03*
X152646Y148470D02*
D03*
X-87354Y268470D02*
D03*
X602645Y388470D02*
D03*
X-132354Y118470D02*
D03*
X-612354Y58470D02*
D03*
X-597354Y868469D02*
D03*
X152646Y88470D02*
D03*
X632645Y508470D02*
D03*
X647645Y298470D02*
D03*
X-267354Y148470D02*
D03*
X317646Y58470D02*
D03*
X-402354Y658469D02*
D03*
X-42354Y178470D02*
D03*
X-372354Y538470D02*
D03*
X107646Y58470D02*
D03*
X572645Y388470D02*
D03*
X-57354Y868469D02*
D03*
X-372354Y778469D02*
D03*
X167646Y118470D02*
D03*
X392645Y28470D02*
D03*
X-282354Y358470D02*
D03*
X2646Y148470D02*
D03*
X-372354Y118470D02*
D03*
X107646D02*
D03*
X137646D02*
D03*
X-612354Y478470D02*
D03*
X122646Y28470D02*
D03*
X-162354Y118470D02*
D03*
X-642354Y718469D02*
D03*
X-537354Y628470D02*
D03*
X-87354Y28470D02*
D03*
X242646D02*
D03*
X-27354D02*
D03*
X-582354Y718469D02*
D03*
X-462354Y658469D02*
D03*
X-192354Y238470D02*
D03*
X-147354Y688469D02*
D03*
X-492354Y478470D02*
D03*
X-87354Y808469D02*
D03*
X557645Y478470D02*
D03*
X-462354Y358470D02*
D03*
X-147354Y448470D02*
D03*
X-462354Y58470D02*
D03*
X-312354Y598470D02*
D03*
X107646Y538470D02*
D03*
X-177354Y268470D02*
D03*
X-402354Y58470D02*
D03*
X137646Y238470D02*
D03*
X557645Y658469D02*
D03*
X-252354Y898469D02*
D03*
X602645Y328470D02*
D03*
X-432354Y658469D02*
D03*
X-657354Y688469D02*
D03*
X572645Y568470D02*
D03*
X-522354Y478470D02*
D03*
X62646Y688469D02*
D03*
X-342354Y718469D02*
D03*
X-462354Y418470D02*
D03*
X-267354Y748469D02*
D03*
X407645Y118470D02*
D03*
X167646Y238470D02*
D03*
X272646Y508470D02*
D03*
X-492354Y658469D02*
D03*
X-597354Y628470D02*
D03*
X-102354Y298470D02*
D03*
X-327354Y448470D02*
D03*
X-432354Y478470D02*
D03*
X-252354Y178470D02*
D03*
X542645Y568470D02*
D03*
X137646Y358470D02*
D03*
X-657354Y508470D02*
D03*
X-522354Y298470D02*
D03*
X-282354Y118470D02*
D03*
X-177354Y448470D02*
D03*
X632645Y628470D02*
D03*
X-477354D02*
D03*
X-657354Y208470D02*
D03*
X-102354Y778469D02*
D03*
X-657354Y808469D02*
D03*
X-522354Y658469D02*
D03*
X-117354Y28470D02*
D03*
X302646Y688469D02*
D03*
X-297354Y88470D02*
D03*
X257646Y718469D02*
D03*
X-132354Y778469D02*
D03*
X32646Y268470D02*
D03*
X-567354Y88470D02*
D03*
X-132354Y178470D02*
D03*
X47646Y838469D02*
D03*
X-27354Y148470D02*
D03*
X437645Y658469D02*
D03*
X407645Y58470D02*
D03*
X542645Y28470D02*
D03*
X482645D02*
D03*
X287646Y358470D02*
D03*
X-612354Y658469D02*
D03*
X632645Y748469D02*
D03*
X647645Y238470D02*
D03*
X-642354Y598470D02*
D03*
X122646Y208470D02*
D03*
X-192354Y118470D02*
D03*
X-117354Y748469D02*
D03*
X-162354Y778469D02*
D03*
X-657354Y88470D02*
D03*
X-432354Y778469D02*
D03*
X587645Y358470D02*
D03*
X-627354Y508470D02*
D03*
X-477354Y328470D02*
D03*
X-327354Y688469D02*
D03*
X-267354Y628470D02*
D03*
X77646Y118470D02*
D03*
X-57354Y388470D02*
D03*
X-357354Y148470D02*
D03*
X-342354Y298470D02*
D03*
X122646Y388470D02*
D03*
X-297354D02*
D03*
X-507354Y688469D02*
D03*
X257646Y238470D02*
D03*
X152646Y208470D02*
D03*
X-117354Y628470D02*
D03*
X212646Y508470D02*
D03*
X-342354Y238470D02*
D03*
X377645Y58470D02*
D03*
X152646Y268470D02*
D03*
X467645Y838469D02*
D03*
X227646Y358470D02*
D03*
X-417354Y628470D02*
D03*
Y688469D02*
D03*
X-147354Y28470D02*
D03*
X-102354Y58470D02*
D03*
X227646Y178470D02*
D03*
X-522354Y238470D02*
D03*
X-297354Y28470D02*
D03*
X332646D02*
D03*
X-627354Y448470D02*
D03*
X-162354Y298470D02*
D03*
X257646Y58470D02*
D03*
X-372354Y358470D02*
D03*
X-597354Y268470D02*
D03*
X-282354Y58470D02*
D03*
X-162354Y418470D02*
D03*
X632645Y148470D02*
D03*
X-642354Y898469D02*
D03*
X587645Y778469D02*
D03*
X-372354Y838469D02*
D03*
X-387354Y388470D02*
D03*
X-102354Y898469D02*
D03*
X-522354Y358470D02*
D03*
X-42354D02*
D03*
X-222354Y598470D02*
D03*
X-147354Y868469D02*
D03*
X-42354Y298470D02*
D03*
X-582354Y238470D02*
D03*
X-627354Y688469D02*
D03*
X-447354Y28470D02*
D03*
X-312354Y778469D02*
D03*
X77646Y538470D02*
D03*
X-42354Y58470D02*
D03*
X257646Y118470D02*
D03*
X62646Y28470D02*
D03*
X-27354Y448470D02*
D03*
X-342354Y838469D02*
D03*
X-87354Y328470D02*
D03*
X-327354Y808469D02*
D03*
X482645Y88470D02*
D03*
X-177354Y28470D02*
D03*
X-117354Y328470D02*
D03*
X-237354Y628470D02*
D03*
X-357354Y748469D02*
D03*
X-537354Y328470D02*
D03*
X-27354Y868469D02*
D03*
X-12354Y118470D02*
D03*
X-657354Y148470D02*
D03*
X-447354Y208470D02*
D03*
X572645Y448470D02*
D03*
X107646Y598470D02*
D03*
X-297354Y268470D02*
D03*
X-57354Y448470D02*
D03*
X-192354Y178470D02*
D03*
X332646Y88470D02*
D03*
X-162354Y358470D02*
D03*
X362646Y508470D02*
D03*
X-162354Y838469D02*
D03*
X-537354Y868469D02*
D03*
X-582354Y538470D02*
D03*
X-402354Y478470D02*
D03*
X17646Y118470D02*
D03*
X-642354Y418470D02*
D03*
X212646Y28470D02*
D03*
X362646Y568470D02*
D03*
X452645Y448470D02*
D03*
X-387354Y148470D02*
D03*
X-657354Y328470D02*
D03*
X512645Y28470D02*
D03*
X167646Y658469D02*
D03*
X302646Y388470D02*
D03*
X77646Y178470D02*
D03*
X-507354Y328470D02*
D03*
X467645Y118470D02*
D03*
X-207354Y328470D02*
D03*
X-282354Y178470D02*
D03*
X557645Y58470D02*
D03*
X-627354Y568470D02*
D03*
X32646Y688469D02*
D03*
X-657354Y628470D02*
D03*
X-447354Y328470D02*
D03*
X-207354Y808469D02*
D03*
X-117354Y448470D02*
D03*
X-507354Y268470D02*
D03*
X-357354Y808469D02*
D03*
X-237354Y88470D02*
D03*
X-402354Y358470D02*
D03*
X-327354Y328470D02*
D03*
X-582354Y598470D02*
D03*
X422645Y28470D02*
D03*
X437645Y58470D02*
D03*
X-492354Y718469D02*
D03*
X572645Y208470D02*
D03*
X212646Y748469D02*
D03*
X272646Y28470D02*
D03*
X-117354Y148470D02*
D03*
X-207354Y748469D02*
D03*
X-147354Y148470D02*
D03*
X302646Y328470D02*
D03*
X-462354Y598470D02*
D03*
X-72354Y838469D02*
D03*
X-432354Y298470D02*
D03*
X-357354Y268470D02*
D03*
X-462354Y538470D02*
D03*
X-582354Y358470D02*
D03*
Y838469D02*
D03*
X-357354Y688469D02*
D03*
X47646Y358470D02*
D03*
X-327354Y148470D02*
D03*
X-447354Y88470D02*
D03*
X227646Y298470D02*
D03*
X-507354Y28470D02*
D03*
X-372354Y478470D02*
D03*
X212646Y268470D02*
D03*
X92646Y328470D02*
D03*
X632645Y388470D02*
D03*
X-372354Y898469D02*
D03*
X-612354Y178470D02*
D03*
X2646Y208470D02*
D03*
X392645Y88470D02*
D03*
X-87354D02*
D03*
X47646Y58470D02*
D03*
X-222354Y358470D02*
D03*
X152646Y28470D02*
D03*
X647645Y658469D02*
D03*
X527645Y118470D02*
D03*
X-612354Y718469D02*
D03*
X-507354Y868469D02*
D03*
X287646Y238470D02*
D03*
X152646Y508470D02*
D03*
X77646Y598470D02*
D03*
X-72354D02*
D03*
X647645Y718469D02*
D03*
X272646Y208470D02*
D03*
X-432354Y538470D02*
D03*
X17646Y298470D02*
D03*
X347646D02*
D03*
X-357354Y28470D02*
D03*
X-102354Y118470D02*
D03*
X182646Y388470D02*
D03*
X-342354Y598470D02*
D03*
X-102354Y718469D02*
D03*
X467645Y58470D02*
D03*
X-342354Y358470D02*
D03*
X-147354Y88470D02*
D03*
X257646Y538470D02*
D03*
X47646Y778469D02*
D03*
X122646Y88470D02*
D03*
X542645Y268470D02*
D03*
X-627354Y628470D02*
D03*
X-312354Y718469D02*
D03*
X77646Y238470D02*
D03*
X122646Y808469D02*
D03*
X602645Y448470D02*
D03*
X212646Y388470D02*
D03*
X-477354D02*
D03*
X-357354D02*
D03*
X-567354Y868469D02*
D03*
X377645Y118470D02*
D03*
X-477354Y688469D02*
D03*
X182646Y148470D02*
D03*
X-477354Y28470D02*
D03*
X32646D02*
D03*
X-27354Y328470D02*
D03*
X-597354Y748469D02*
D03*
X647645Y118470D02*
D03*
X182646Y88470D02*
D03*
X-192354Y898469D02*
D03*
X-507354Y628470D02*
D03*
X-72354Y718469D02*
D03*
X-597354Y388470D02*
D03*
X-417354Y28470D02*
D03*
X92646Y148470D02*
D03*
X452645Y88470D02*
D03*
X-417354Y448470D02*
D03*
X-462354Y298470D02*
D03*
X-657354Y268470D02*
D03*
X-552354Y418470D02*
D03*
X-417354Y208470D02*
D03*
X377645Y538470D02*
D03*
X-657354Y748469D02*
D03*
X242646Y208470D02*
D03*
X-12354Y358470D02*
D03*
X-267354Y208470D02*
D03*
X-627354Y748469D02*
D03*
X-642354Y118470D02*
D03*
X452645Y508470D02*
D03*
X77646Y298470D02*
D03*
X-552354Y898469D02*
D03*
X107646Y178470D02*
D03*
X-312354Y838469D02*
D03*
X602645Y28470D02*
D03*
X302646Y88470D02*
D03*
X-222354Y118470D02*
D03*
X-327354Y628470D02*
D03*
X32646Y88470D02*
D03*
X-417354Y328470D02*
D03*
X422645Y628470D02*
D03*
X-597354Y508470D02*
D03*
X-642354Y658469D02*
D03*
X-57354Y268470D02*
D03*
X-597354Y28470D02*
D03*
X-582354Y118470D02*
D03*
X-72354D02*
D03*
X-657354Y28470D02*
D03*
X-297354Y688469D02*
D03*
X287646Y478470D02*
D03*
X-582354Y778469D02*
D03*
X-207354Y88470D02*
D03*
X647645Y538470D02*
D03*
X-72354D02*
D03*
X257646Y358470D02*
D03*
X-252354Y238470D02*
D03*
X392645Y388470D02*
D03*
X-342354Y418470D02*
D03*
X242646Y508470D02*
D03*
X167646Y178470D02*
D03*
X-267354Y808469D02*
D03*
X632645Y88470D02*
D03*
X-72354Y298470D02*
D03*
X-627354Y268470D02*
D03*
X617645Y478470D02*
D03*
X-132354Y58470D02*
D03*
X242646Y388470D02*
D03*
X167646Y598470D02*
D03*
X-312354Y358470D02*
D03*
X602645Y628470D02*
D03*
X-522354Y718469D02*
D03*
X-267354Y328470D02*
D03*
X242646Y148470D02*
D03*
X-432354Y418470D02*
D03*
X-462354Y478470D02*
D03*
X-612354Y838469D02*
D03*
X-72354Y778469D02*
D03*
X92646Y688469D02*
D03*
X17646Y58470D02*
D03*
X-222354Y898469D02*
D03*
X-612354Y598470D02*
D03*
X167646Y298470D02*
D03*
X-597354Y448470D02*
D03*
X-312354Y118470D02*
D03*
X182646Y208470D02*
D03*
X557645Y118470D02*
D03*
X-447354Y268470D02*
D03*
X-147354Y388470D02*
D03*
X-447354Y448470D02*
D03*
X17646Y178470D02*
D03*
X182646Y268470D02*
D03*
X377645Y298470D02*
D03*
X-477354Y268470D02*
D03*
X-342354Y778469D02*
D03*
X647645Y178470D02*
D03*
X422645Y88470D02*
D03*
X-87354Y148470D02*
D03*
X-27354Y88470D02*
D03*
X62646Y328470D02*
D03*
X-387354Y448470D02*
D03*
X572645Y628470D02*
D03*
X-252354Y118470D02*
D03*
X-297354Y448470D02*
D03*
X-192354Y358470D02*
D03*
X-297354Y748469D02*
D03*
X2646Y328470D02*
D03*
X-207354Y628470D02*
D03*
X-177354Y688469D02*
D03*
X47646Y598470D02*
D03*
X-447354Y628470D02*
D03*
X-642354Y778469D02*
D03*
X-42354Y238470D02*
D03*
X347646Y58470D02*
D03*
X-522354Y598470D02*
D03*
X-327354Y28470D02*
D03*
X-12354Y838469D02*
D03*
X572645Y328470D02*
D03*
X-282354Y598470D02*
D03*
X-132354Y358470D02*
D03*
X-12354Y538470D02*
D03*
Y58470D02*
D03*
X362646Y88470D02*
D03*
X-357354Y208470D02*
D03*
X137646Y298470D02*
D03*
X-387354Y268470D02*
D03*
X-582354Y658469D02*
D03*
X-342354Y178470D02*
D03*
X617645Y58470D02*
D03*
X-297354Y208470D02*
D03*
X-657354Y388470D02*
D03*
X617645Y298470D02*
D03*
X-117354Y688469D02*
D03*
X182646Y748469D02*
D03*
X-207354Y268470D02*
D03*
X-357354Y628470D02*
D03*
X-627354Y148470D02*
D03*
X-267354Y388470D02*
D03*
X-27354Y808469D02*
D03*
X-57354Y208470D02*
D03*
Y328470D02*
D03*
X212646Y88470D02*
D03*
X-475000Y786000D02*
D03*
X-489000Y794000D02*
D03*
Y804000D02*
D03*
X-554000Y91000D02*
D03*
X-550000Y96000D02*
D03*
X243000Y487000D02*
D03*
X242000Y458000D02*
D03*
X-449000Y837000D02*
D03*
X-463000D02*
D03*
X429365Y203353D02*
D03*
X484000Y236000D02*
D03*
Y228000D02*
D03*
X490000Y217000D02*
D03*
Y210000D02*
D03*
Y231000D02*
D03*
Y224000D02*
D03*
X469000Y217000D02*
D03*
X476000D02*
D03*
X483000D02*
D03*
X477000Y238000D02*
D03*
X463000Y241000D02*
D03*
X456000D02*
D03*
X490000Y203000D02*
D03*
X449000Y234000D02*
D03*
X442000Y227000D02*
D03*
X449000D02*
D03*
Y220000D02*
D03*
X442000D02*
D03*
Y213000D02*
D03*
Y206000D02*
D03*
Y199000D02*
D03*
Y192000D02*
D03*
X609000Y441000D02*
D03*
X602000D02*
D03*
X609000Y434000D02*
D03*
X602000D02*
D03*
X609000Y427000D02*
D03*
X602000D02*
D03*
X609000Y420000D02*
D03*
X602000D02*
D03*
X321000Y405000D02*
D03*
X393000Y381000D02*
D03*
X386000D02*
D03*
X353000Y374000D02*
D03*
X351000Y381000D02*
D03*
X-522000Y778000D02*
D03*
X-554000Y749000D02*
D03*
X476000Y726000D02*
D03*
X231000Y825000D02*
D03*
X107000Y826000D02*
D03*
X429518Y210071D02*
D03*
X489000Y503000D02*
D03*
X499000Y509000D02*
D03*
X492000D02*
D03*
X503000Y503000D02*
D03*
X496000D02*
D03*
X382000Y500000D02*
D03*
X394000D02*
D03*
X392551Y510689D02*
D03*
X380000Y510000D02*
D03*
X100000Y810000D02*
D03*
Y803000D02*
D03*
Y796000D02*
D03*
X93000D02*
D03*
Y810000D02*
D03*
X86000D02*
D03*
X237000Y799000D02*
D03*
X241000Y806000D02*
D03*
X237000Y811000D02*
D03*
X395015Y193014D02*
D03*
X393000Y199000D02*
D03*
X494000Y403000D02*
D03*
X333000Y772000D02*
D03*
X326000Y780000D02*
D03*
X235000Y831000D02*
D03*
X238000Y825000D02*
D03*
X93000Y803000D02*
D03*
X86000D02*
D03*
Y796000D02*
D03*
X230000Y811000D02*
D03*
X513000Y416000D02*
D03*
X384000Y219000D02*
D03*
X370000Y206000D02*
D03*
X372000Y213000D02*
D03*
X370000Y219000D02*
D03*
X379000Y213000D02*
D03*
X380000Y180000D02*
D03*
X429000Y488000D02*
D03*
X436000D02*
D03*
X443000D02*
D03*
X340000Y772000D02*
D03*
X394000Y493000D02*
D03*
X388000Y496000D02*
D03*
X382000Y493000D02*
D03*
X553000Y464000D02*
D03*
X595000Y580000D02*
D03*
X309000Y902000D02*
D03*
X310000Y917000D02*
D03*
Y924000D02*
D03*
X-281000Y899000D02*
D03*
X522000Y696000D02*
D03*
Y688000D02*
D03*
Y680000D02*
D03*
X588000Y507000D02*
D03*
X602000D02*
D03*
X41000Y773000D02*
D03*
X36000Y780000D02*
D03*
X31000Y788000D02*
D03*
X16000D02*
D03*
X5000Y786000D02*
D03*
X-31000Y729000D02*
D03*
X-31000Y738000D02*
D03*
Y747000D02*
D03*
X-31000Y755000D02*
D03*
X76000Y755000D02*
D03*
X64000Y760000D02*
D03*
X68000Y754000D02*
D03*
X62000Y698000D02*
D03*
X55000Y698000D02*
D03*
X48000Y698000D02*
D03*
X439000Y791000D02*
D03*
X432000D02*
D03*
X439000Y798000D02*
D03*
X304000Y774000D02*
D03*
Y781000D02*
D03*
Y788000D02*
D03*
Y795000D02*
D03*
X318000Y774000D02*
D03*
X311000D02*
D03*
Y781000D02*
D03*
Y788000D02*
D03*
Y795000D02*
D03*
X467000Y556000D02*
D03*
X511000Y547000D02*
D03*
X659000Y855000D02*
D03*
X625000Y856000D02*
D03*
X511000Y777000D02*
D03*
X522000Y672000D02*
D03*
X408000Y652000D02*
D03*
X436000Y700000D02*
D03*
X190000Y623000D02*
D03*
X223000Y633000D02*
D03*
X-78000Y639000D02*
D03*
X-32000Y638000D02*
D03*
X3000Y639000D02*
D03*
X32000D02*
D03*
X123000D02*
D03*
X94000D02*
D03*
X63000D02*
D03*
X250000Y673000D02*
D03*
X289000Y633000D02*
D03*
X323000Y538000D02*
D03*
X85000Y488000D02*
D03*
X-402000Y521000D02*
D03*
X-107000Y520000D02*
D03*
X-79000Y487000D02*
D03*
X-148000Y493000D02*
D03*
X-247000Y467000D02*
D03*
X-254000Y432000D02*
D03*
X25000Y433000D02*
D03*
X573000Y247000D02*
D03*
Y229000D02*
D03*
X-533000Y502000D02*
D03*
X-537000Y458000D02*
D03*
X-148000Y468000D02*
D03*
X-87000D02*
D03*
X95000Y458000D02*
D03*
X172000D02*
D03*
X473000Y491000D02*
D03*
X496000Y524000D02*
D03*
X514000D02*
D03*
X488692Y604084D02*
D03*
X467000Y589000D02*
D03*
X462000Y611000D02*
D03*
X375000Y618000D02*
D03*
X336000Y643000D02*
D03*
X359000Y652000D02*
D03*
Y667000D02*
D03*
X374000D02*
D03*
Y686000D02*
D03*
Y726000D02*
D03*
X379000Y842000D02*
D03*
Y835000D02*
D03*
X309000Y867000D02*
D03*
X382000Y891000D02*
D03*
X375000D02*
D03*
X430000Y911000D02*
D03*
X494000D02*
D03*
Y918000D02*
D03*
Y925000D02*
D03*
X430000Y918000D02*
D03*
Y925000D02*
D03*
X-214000Y920000D02*
D03*
Y913000D02*
D03*
Y905000D02*
D03*
X-246000D02*
D03*
Y913000D02*
D03*
Y920000D02*
D03*
X-321000Y899000D02*
D03*
X-393000Y923000D02*
D03*
X-400000Y923000D02*
D03*
X-407000Y923000D02*
D03*
X-412000Y821000D02*
D03*
X-412000Y828000D02*
D03*
X-412000Y835000D02*
D03*
X-276000Y827000D02*
D03*
X-276000Y834000D02*
D03*
X-276000Y841000D02*
D03*
X-289000Y899000D02*
D03*
X-209000Y891000D02*
D03*
X-223000D02*
D03*
X-216000D02*
D03*
X-212000Y823000D02*
D03*
X16000Y833000D02*
D03*
X13000Y843000D02*
D03*
X43000Y881000D02*
D03*
X40000Y844000D02*
D03*
X95000Y847000D02*
D03*
Y881000D02*
D03*
X174000Y881000D02*
D03*
X172000Y843000D02*
D03*
X225000Y845000D02*
D03*
X226000Y880000D02*
D03*
X660000Y818000D02*
D03*
X660000Y830000D02*
D03*
X568000Y607000D02*
D03*
X568000Y614000D02*
D03*
Y621000D02*
D03*
X595000Y507000D02*
D03*
X526000Y477000D02*
D03*
X517000D02*
D03*
X541000Y443000D02*
D03*
X432000Y798000D02*
D03*
X309000Y895000D02*
D03*
Y880000D02*
D03*
X277000Y883000D02*
D03*
X367000Y847000D02*
D03*
X326000Y772000D02*
D03*
X340000Y780000D02*
D03*
X333000D02*
D03*
X432000Y784000D02*
D03*
X403000Y777000D02*
D03*
X360000Y891000D02*
D03*
X353000D02*
D03*
X361500Y830500D02*
D03*
X372500Y841500D02*
D03*
X361171Y841533D02*
D03*
X367000Y836000D02*
D03*
X353250Y844250D02*
D03*
X417000Y175000D02*
D03*
Y168000D02*
D03*
X358000Y239000D02*
D03*
X360000Y219000D02*
D03*
X346000D02*
D03*
X353000D02*
D03*
X344000Y239000D02*
D03*
X351000D02*
D03*
X377000Y219000D02*
D03*
X-530000Y217000D02*
D03*
X-520000D02*
D03*
X-505000Y222000D02*
D03*
X-510000Y217000D02*
D03*
X-525000Y202000D02*
D03*
X-505000Y212000D02*
D03*
X-510000Y207000D02*
D03*
X-470000Y217000D02*
D03*
X-465000Y222000D02*
D03*
X-500000Y217000D02*
D03*
Y227000D02*
D03*
X-495000Y222000D02*
D03*
Y232000D02*
D03*
X-465000D02*
D03*
X-470000Y227000D02*
D03*
X379000Y446000D02*
D03*
Y453000D02*
D03*
X422000Y283000D02*
D03*
Y262000D02*
D03*
X395000Y273000D02*
D03*
X402000D02*
D03*
Y261000D02*
D03*
X399000Y267000D02*
D03*
X361000Y187000D02*
D03*
X395000Y180000D02*
D03*
X383000Y186000D02*
D03*
X388000Y182000D02*
D03*
X393000Y186000D02*
D03*
X485000Y509000D02*
D03*
X534000Y443000D02*
D03*
X527000Y444000D02*
D03*
X519000D02*
D03*
X490000Y447000D02*
D03*
Y454000D02*
D03*
X497000Y447000D02*
D03*
X546000Y464000D02*
D03*
X548000Y458000D02*
D03*
X555000D02*
D03*
X541000Y504000D02*
D03*
X534000Y504000D02*
D03*
X527000D02*
D03*
X520000Y504000D02*
D03*
X522000Y498000D02*
D03*
X530000Y498000D02*
D03*
X537000D02*
D03*
X544000D02*
D03*
X541000Y492000D02*
D03*
X544000Y486000D02*
D03*
X541000Y479000D02*
D03*
X534000D02*
D03*
X537000Y486000D02*
D03*
X534000Y492000D02*
D03*
X541000Y429000D02*
D03*
Y436000D02*
D03*
X534000D02*
D03*
Y429000D02*
D03*
X351000Y446000D02*
D03*
X358000D02*
D03*
X365000Y446000D02*
D03*
X372000D02*
D03*
Y453000D02*
D03*
X365000Y453000D02*
D03*
X358000Y453000D02*
D03*
X351000D02*
D03*
X443000Y496000D02*
D03*
X436000D02*
D03*
X429000D02*
D03*
X473000Y396000D02*
D03*
X554000Y416000D02*
D03*
X547000D02*
D03*
X554000Y423000D02*
D03*
X547000D02*
D03*
X506000Y416000D02*
D03*
X513000Y423000D02*
D03*
X506000D02*
D03*
X459000Y396000D02*
D03*
X445000Y403000D02*
D03*
X452000Y396000D02*
D03*
Y403000D02*
D03*
X445000Y396000D02*
D03*
X459000Y403000D02*
D03*
X487000D02*
D03*
X501000D02*
D03*
X487000Y396000D02*
D03*
X494000D02*
D03*
X501000D02*
D03*
X480000D02*
D03*
X466000D02*
D03*
X480000Y403000D02*
D03*
X473000Y403000D02*
D03*
X466000Y403000D02*
D03*
X-515000Y212000D02*
D03*
X-525000D02*
D03*
X-530000Y207000D02*
D03*
X-505000Y202000D02*
D03*
X-485000Y232000D02*
D03*
X-475000D02*
D03*
X-479861Y227076D02*
D03*
X-490000Y227000D02*
D03*
X241000Y817000D02*
D03*
X233000D02*
D03*
X392000Y265000D02*
D03*
X422000Y269000D02*
D03*
Y290000D02*
D03*
X346000Y233000D02*
D03*
Y226000D02*
D03*
X353000D02*
D03*
Y233000D02*
D03*
X403000Y168000D02*
D03*
X410000D02*
D03*
Y175000D02*
D03*
X403000D02*
D03*
X511000Y283000D02*
D03*
X501000D02*
D03*
X491000D02*
D03*
X481000D02*
D03*
X471000D02*
D03*
X422000Y276000D02*
D03*
X388000Y191000D02*
D03*
X95000Y898000D02*
D03*
X100000Y826000D02*
D03*
Y833000D02*
D03*
M02*
