G04*
G04 #@! TF.GenerationSoftware,Altium Limited,Altium Designer,23.3.1 (30)*
G04*
G04 Layer_Color=8388736*
%FSLAX43Y43*%
%MOMM*%
G71*
G04*
G04 #@! TF.SameCoordinates,D808C254-9F92-4D33-8E88-3B856B9356EB*
G04*
G04*
G04 #@! TF.FilePolarity,Negative*
G04*
G01*
G75*
%ADD42R,0.700X1.000*%
%ADD56R,0.800X0.550*%
G04:AMPARAMS|DCode=57|XSize=0.25mm|YSize=0.6mm|CornerRadius=0.05mm|HoleSize=0mm|Usage=FLASHONLY|Rotation=270.000|XOffset=0mm|YOffset=0mm|HoleType=Round|Shape=RoundedRectangle|*
%AMROUNDEDRECTD57*
21,1,0.250,0.500,0,0,270.0*
21,1,0.150,0.600,0,0,270.0*
1,1,0.100,-0.250,-0.075*
1,1,0.100,-0.250,0.075*
1,1,0.100,0.250,0.075*
1,1,0.100,0.250,-0.075*
%
%ADD57ROUNDEDRECTD57*%
%ADD58R,2.606X1.703*%
%ADD59R,2.200X2.200*%
%ADD60C,0.270*%
G04:AMPARAMS|DCode=61|XSize=1.25mm|YSize=0.25mm|CornerRadius=0.125mm|HoleSize=0mm|Usage=FLASHONLY|Rotation=0.000|XOffset=0mm|YOffset=0mm|HoleType=Round|Shape=RoundedRectangle|*
%AMROUNDEDRECTD61*
21,1,1.250,0.000,0,0,0.0*
21,1,1.000,0.250,0,0,0.0*
1,1,0.250,0.500,0.000*
1,1,0.250,-0.500,0.000*
1,1,0.250,-0.500,0.000*
1,1,0.250,0.500,0.000*
%
%ADD61ROUNDEDRECTD61*%
%ADD62C,0.250*%
%ADD63R,7.468X6.477*%
%ADD71R,1.703X2.606*%
%ADD72C,0.750*%
G04:AMPARAMS|DCode=73|XSize=0.707mm|YSize=1mm|CornerRadius=0mm|HoleSize=0mm|Usage=FLASHONLY|Rotation=89.313|XOffset=0mm|YOffset=0mm|HoleType=Round|Shape=Rectangle|*
%AMROTATEDRECTD73*
4,1,4,0.496,-0.360,-0.504,-0.348,-0.496,0.360,0.504,0.348,0.496,-0.360,0.0*
%
%ADD73ROTATEDRECTD73*%

%ADD74C,1.302*%
%ADD75R,0.617X0.552*%
%ADD76R,0.402X0.622*%
%ADD77R,0.702X1.302*%
%ADD78R,1.252X0.702*%
%ADD79R,0.402X0.552*%
%ADD80R,0.702X1.352*%
%ADD81R,0.952X0.552*%
%ADD82R,1.802X2.702*%
%ADD83R,4.202X3.602*%
%ADD84R,0.552X1.202*%
%ADD85R,1.302X1.902*%
%ADD86R,0.702X1.652*%
%ADD87R,1.852X1.352*%
%ADD88R,1.452X1.052*%
%ADD89R,0.852X1.002*%
%ADD90R,0.622X0.652*%
%ADD91R,0.952X0.302*%
%ADD92R,0.302X0.952*%
%ADD93R,2.802X2.802*%
%ADD94R,0.602X0.502*%
%ADD95R,1.002X0.902*%
%ADD96R,0.802X0.702*%
%ADD97R,0.802X1.102*%
%ADD98R,0.702X0.702*%
%ADD99R,0.700X2.700*%
%ADD100R,0.400X0.900*%
%ADD101R,0.902X0.902*%
%ADD102R,0.952X0.752*%
%ADD103R,1.002X0.852*%
%ADD104R,2.502X0.862*%
%ADD105R,1.152X0.882*%
%ADD106R,1.002X1.032*%
%ADD107R,0.802X3.432*%
%ADD108R,0.962X2.902*%
%ADD109R,1.242X1.932*%
%ADD110R,0.802X1.202*%
%ADD111R,1.000X5.500*%
%ADD112R,1.600X3.000*%
%ADD113R,0.370X1.000*%
%ADD114R,0.370X0.900*%
%ADD115R,3.502X1.082*%
%ADD116R,0.652X0.622*%
%ADD117R,0.722X0.722*%
%ADD118C,1.102*%
%ADD119R,0.722X0.722*%
%ADD120R,1.052X1.452*%
%ADD121R,0.305X0.127*%
%ADD122C,2.352*%
%ADD123C,1.402*%
%ADD124R,1.753X1.753*%
%ADD125C,1.753*%
%ADD126R,1.827X1.827*%
%ADD127C,1.827*%
%ADD128R,1.981X1.981*%
%ADD129C,1.981*%
%ADD130C,2.128*%
%ADD131C,1.663*%
%ADD132C,2.388*%
%ADD133C,3.450*%
G04:AMPARAMS|DCode=134|XSize=2.402mm|YSize=1.302mm|CornerRadius=0.651mm|HoleSize=0mm|Usage=FLASHONLY|Rotation=270.000|XOffset=0mm|YOffset=0mm|HoleType=Round|Shape=RoundedRectangle|*
%AMROUNDEDRECTD134*
21,1,2.402,0.000,0,0,270.0*
21,1,1.100,1.302,0,0,270.0*
1,1,1.302,0.000,-0.550*
1,1,1.302,0.000,0.550*
1,1,1.302,0.000,0.550*
1,1,1.302,0.000,-0.550*
%
%ADD134ROUNDEDRECTD134*%
%ADD135C,0.702*%
%ADD136O,0.952X0.602*%
G04:AMPARAMS|DCode=137|XSize=2.702mm|YSize=1.402mm|CornerRadius=0.701mm|HoleSize=0mm|Usage=FLASHONLY|Rotation=270.000|XOffset=0mm|YOffset=0mm|HoleType=Round|Shape=RoundedRectangle|*
%AMROUNDEDRECTD137*
21,1,2.702,0.000,0,0,270.0*
21,1,1.300,1.402,0,0,270.0*
1,1,1.402,0.000,-0.650*
1,1,1.402,0.000,0.650*
1,1,1.402,0.000,0.650*
1,1,1.402,0.000,-0.650*
%
%ADD137ROUNDEDRECTD137*%
G04:AMPARAMS|DCode=138|XSize=1.752mm|YSize=1.202mm|CornerRadius=0.601mm|HoleSize=0mm|Usage=FLASHONLY|Rotation=0.000|XOffset=0mm|YOffset=0mm|HoleType=Round|Shape=RoundedRectangle|*
%AMROUNDEDRECTD138*
21,1,1.752,0.000,0,0,0.0*
21,1,0.550,1.202,0,0,0.0*
1,1,1.202,0.275,0.000*
1,1,1.202,-0.275,0.000*
1,1,1.202,-0.275,0.000*
1,1,1.202,0.275,0.000*
%
%ADD138ROUNDEDRECTD138*%
%ADD139C,0.102*%
%ADD140C,0.092*%
G36*
X5750Y74710D02*
Y74680D01*
X5727Y74625D01*
X5685Y74582D01*
X5630Y74560D01*
X5570D01*
X5515Y74582D01*
X5473Y74625D01*
X5450Y74680D01*
Y74710D01*
Y75410D01*
X5750D01*
Y74710D01*
D02*
G37*
G36*
X5250D02*
Y74680D01*
X5227Y74625D01*
X5185Y74582D01*
X5130Y74560D01*
X5070D01*
X5015Y74582D01*
X4973Y74625D01*
X4950Y74680D01*
Y74710D01*
X4950D01*
Y75410D01*
X5250D01*
Y74710D01*
D02*
G37*
G36*
X4750D02*
Y74680D01*
X4727Y74625D01*
X4685Y74582D01*
X4630Y74560D01*
X4570D01*
X4515Y74582D01*
X4473Y74625D01*
X4450Y74680D01*
Y74710D01*
Y75410D01*
X4750D01*
Y74710D01*
D02*
G37*
G36*
X4250D02*
Y74680D01*
X4227Y74625D01*
X4185Y74582D01*
X4130Y74560D01*
X4070D01*
X4015Y74582D01*
X3973Y74625D01*
X3950Y74680D01*
Y74710D01*
Y75410D01*
X4250D01*
Y74710D01*
D02*
G37*
G36*
X3750D02*
Y74680D01*
X3727Y74625D01*
X3685Y74582D01*
X3630Y74560D01*
X3570D01*
X3515Y74582D01*
X3473Y74625D01*
X3450Y74680D01*
Y74710D01*
Y75410D01*
X3750D01*
X3750Y74710D01*
D02*
G37*
G36*
X3250D02*
Y74680D01*
X3227Y74625D01*
X3185Y74582D01*
X3130Y74560D01*
X3070D01*
X3015Y74582D01*
X2973Y74625D01*
X2950Y74680D01*
Y74710D01*
Y75410D01*
X3250D01*
Y74710D01*
D02*
G37*
G36*
X6725Y74135D02*
X5995D01*
X5940Y74157D01*
X5898Y74200D01*
X5875Y74255D01*
Y74285D01*
Y74314D01*
X5898Y74369D01*
X5940Y74412D01*
X5995Y74435D01*
X6725D01*
Y74135D01*
D02*
G37*
G36*
X2760Y74412D02*
X2802Y74369D01*
X2825Y74314D01*
Y74285D01*
Y74255D01*
X2802Y74200D01*
X2760Y74157D01*
X2705Y74135D01*
X1975D01*
Y74435D01*
X2705D01*
X2760Y74412D01*
D02*
G37*
G36*
X6725Y73635D02*
X6025Y73635D01*
X5995D01*
X5940Y73657D01*
X5898Y73700D01*
X5875Y73755D01*
Y73785D01*
Y73814D01*
X5898Y73869D01*
X5940Y73912D01*
X5995Y73935D01*
X6725D01*
Y73635D01*
D02*
G37*
G36*
X2760Y73912D02*
X2802Y73869D01*
X2825Y73814D01*
Y73785D01*
Y73755D01*
X2802Y73700D01*
X2760Y73657D01*
X2705Y73635D01*
X2675D01*
Y73635D01*
X1975D01*
Y73935D01*
X2705D01*
X2760Y73912D01*
D02*
G37*
G36*
X6725Y73135D02*
X5995D01*
X5940Y73157D01*
X5898Y73200D01*
X5875Y73255D01*
Y73285D01*
Y73314D01*
X5898Y73369D01*
X5940Y73412D01*
X5995Y73435D01*
X6725D01*
Y73135D01*
D02*
G37*
G36*
X2760Y73412D02*
X2802Y73369D01*
X2825Y73314D01*
Y73285D01*
Y73255D01*
X2802Y73200D01*
X2760Y73157D01*
X2705Y73135D01*
X1975D01*
Y73435D01*
X2705D01*
X2760Y73412D01*
D02*
G37*
G36*
X6725Y72635D02*
X5995D01*
X5940Y72657D01*
X5898Y72700D01*
X5875Y72755D01*
Y72785D01*
Y72814D01*
X5898Y72869D01*
X5940Y72912D01*
X5995Y72935D01*
X6725D01*
Y72635D01*
D02*
G37*
G36*
X2760Y72912D02*
X2802Y72869D01*
X2825Y72814D01*
Y72785D01*
Y72755D01*
X2802Y72700D01*
X2760Y72657D01*
X2705Y72635D01*
X1975D01*
Y72935D01*
X2705D01*
X2760Y72912D01*
D02*
G37*
G36*
X6725Y72135D02*
X5995D01*
X5940Y72157D01*
X5898Y72200D01*
X5875Y72255D01*
Y72285D01*
Y72314D01*
X5898Y72369D01*
X5940Y72412D01*
X5995Y72435D01*
X6025D01*
Y72435D01*
X6725D01*
Y72135D01*
D02*
G37*
G36*
X2675Y72435D02*
X2705D01*
X2760Y72412D01*
X2802Y72369D01*
X2825Y72314D01*
Y72285D01*
Y72255D01*
X2802Y72200D01*
X2760Y72157D01*
X2705Y72135D01*
X1975D01*
Y72435D01*
X2675Y72435D01*
D02*
G37*
G36*
X5625Y74060D02*
Y71760D01*
X3075D01*
Y74310D01*
X5375D01*
X5625Y74060D01*
D02*
G37*
G36*
X6725Y71635D02*
X5995D01*
X5940Y71657D01*
X5898Y71700D01*
X5875Y71755D01*
Y71785D01*
Y71814D01*
X5898Y71869D01*
X5940Y71912D01*
X5995Y71935D01*
X6725D01*
Y71635D01*
D02*
G37*
G36*
X2760Y71912D02*
X2802Y71869D01*
X2825Y71814D01*
Y71785D01*
Y71755D01*
X2802Y71700D01*
X2760Y71657D01*
X2705Y71635D01*
X1975D01*
Y71935D01*
X2705D01*
X2760Y71912D01*
D02*
G37*
G36*
X5685Y71487D02*
X5727Y71445D01*
X5750Y71389D01*
Y71360D01*
Y70660D01*
X5450D01*
Y71360D01*
Y71389D01*
X5473Y71445D01*
X5515Y71487D01*
X5570Y71510D01*
X5630D01*
X5685Y71487D01*
D02*
G37*
G36*
X5185D02*
X5227Y71445D01*
X5250Y71389D01*
Y71360D01*
Y70660D01*
X4950D01*
X4950Y71360D01*
Y71389D01*
X4973Y71445D01*
X5015Y71487D01*
X5070Y71510D01*
X5130D01*
X5185Y71487D01*
D02*
G37*
G36*
X4685D02*
X4727Y71445D01*
X4750Y71389D01*
Y71360D01*
Y70660D01*
X4450D01*
Y71360D01*
Y71389D01*
X4473Y71445D01*
X4515Y71487D01*
X4570Y71510D01*
X4630D01*
X4685Y71487D01*
D02*
G37*
G36*
X4185D02*
X4227Y71445D01*
X4250Y71389D01*
Y71360D01*
Y70660D01*
X3950D01*
Y71360D01*
Y71389D01*
X3973Y71445D01*
X4015Y71487D01*
X4070Y71510D01*
X4130D01*
X4185Y71487D01*
D02*
G37*
G36*
X3685D02*
X3727Y71445D01*
X3750Y71389D01*
Y71360D01*
X3750D01*
Y70660D01*
X3450D01*
Y71360D01*
Y71389D01*
X3473Y71445D01*
X3515Y71487D01*
X3570Y71510D01*
X3630D01*
X3685Y71487D01*
D02*
G37*
G36*
X3185D02*
X3227Y71445D01*
X3250Y71389D01*
Y71360D01*
Y70660D01*
X2950D01*
Y71360D01*
Y71389D01*
X2973Y71445D01*
X3015Y71487D01*
X3070Y71510D01*
X3130D01*
X3185Y71487D01*
D02*
G37*
G36*
X40263Y48292D02*
X40277Y48278D01*
X40285Y48260D01*
Y48250D01*
Y47150D01*
Y47140D01*
X40277Y47122D01*
X40263Y47108D01*
X40245Y47100D01*
X40025D01*
X40007Y47108D01*
X39993Y47122D01*
X39985Y47140D01*
Y47150D01*
Y48250D01*
Y48260D01*
X39993Y48278D01*
X40007Y48292D01*
X40025Y48300D01*
X40245D01*
X40263Y48292D01*
D02*
G37*
G36*
X40763D02*
X40777Y48278D01*
X40785Y48260D01*
Y48250D01*
Y45950D01*
Y45940D01*
X40777Y45922D01*
X40763Y45908D01*
X40745Y45900D01*
X40575D01*
X40557Y45908D01*
X40543Y45922D01*
X40535Y45940D01*
Y45950D01*
Y48250D01*
Y48260D01*
X40543Y48278D01*
X40557Y48292D01*
X40575Y48300D01*
X40745D01*
X40763Y48292D01*
D02*
G37*
G36*
X40263Y46792D02*
X40277Y46778D01*
X40285Y46760D01*
Y46750D01*
Y45950D01*
Y45940D01*
X40277Y45922D01*
X40263Y45908D01*
X40245Y45900D01*
X40025D01*
X40007Y45908D01*
X39993Y45922D01*
X39985Y45940D01*
Y45950D01*
Y46750D01*
Y46760D01*
X39993Y46778D01*
X40007Y46792D01*
X40025Y46800D01*
X40245D01*
X40263Y46792D01*
D02*
G37*
D42*
X33750Y71200D02*
D03*
Y65200D02*
D03*
X30050Y71200D02*
D03*
Y65200D02*
D03*
D56*
X-45600Y81350D02*
D03*
Y80400D02*
D03*
Y79450D02*
D03*
X-48000D02*
D03*
Y80400D02*
D03*
Y81350D02*
D03*
D57*
X41575Y47850D02*
D03*
Y47350D02*
D03*
Y46850D02*
D03*
Y46350D02*
D03*
D58*
X21600Y41851D02*
D03*
Y39749D02*
D03*
X37600Y41551D02*
D03*
Y39449D02*
D03*
X34100Y41551D02*
D03*
Y39449D02*
D03*
X-34200Y41951D02*
D03*
Y39849D02*
D03*
X-6300Y41851D02*
D03*
Y39749D02*
D03*
D59*
X4350Y73035D02*
D03*
D60*
X6315Y74285D02*
D03*
X6300Y73785D02*
D03*
Y73285D02*
D03*
X6315Y72785D02*
D03*
X6300Y72285D02*
D03*
Y71785D02*
D03*
X5600Y71069D02*
D03*
X5100Y71085D02*
D03*
X4600D02*
D03*
X4100Y71069D02*
D03*
X3600Y71085D02*
D03*
X3100D02*
D03*
X2125Y71785D02*
D03*
X2400Y72285D02*
D03*
Y72785D02*
D03*
X2385Y73285D02*
D03*
X2400Y73785D02*
D03*
Y74285D02*
D03*
X3100Y75260D02*
D03*
X3600Y74985D02*
D03*
X4100D02*
D03*
X4600Y75000D02*
D03*
X5100Y74985D02*
D03*
X5600D02*
D03*
D61*
X-52725Y18650D02*
D03*
X-50725D02*
D03*
Y19150D02*
D03*
X-52725D02*
D03*
D62*
X-51725Y18650D02*
D03*
Y19150D02*
D03*
D63*
X32412Y13800D02*
D03*
X-46963D02*
D03*
D71*
X45549Y20000D02*
D03*
X47651D02*
D03*
X56649Y43100D02*
D03*
X58751D02*
D03*
D72*
X-64625Y91000D02*
G03*
X-64625Y91000I-375J0D01*
G01*
Y2000D02*
G03*
X-64625Y2000I-375J0D01*
G01*
X65375D02*
G03*
X65375Y2000I-375J0D01*
G01*
D73*
X-54662Y12718D02*
D03*
D74*
X-42200Y78300D02*
D03*
X55880Y16510D02*
D03*
Y21590D02*
D03*
Y29210D02*
D03*
Y26670D02*
D03*
Y19050D02*
D03*
Y24130D02*
D03*
X49300Y49100D02*
D03*
X37300Y50200D02*
D03*
X36000Y19700D02*
D03*
X10800Y81400D02*
D03*
X38800Y17200D02*
D03*
X25600Y27600D02*
D03*
X36600D02*
D03*
X22600Y80100D02*
D03*
X10229Y72200D02*
D03*
X8400Y71000D02*
D03*
X10200Y74500D02*
D03*
X2400Y69400D02*
D03*
X8400Y73300D02*
D03*
X56100Y54300D02*
D03*
X62425Y54350D02*
D03*
X-700Y79500D02*
D03*
X-52200Y15000D02*
D03*
X-57600Y22600D02*
D03*
D75*
X-54208Y10575D02*
D03*
Y9925D02*
D03*
Y9275D02*
D03*
Y8625D02*
D03*
X-51392D02*
D03*
Y9275D02*
D03*
Y9925D02*
D03*
Y10575D02*
D03*
D76*
X-55875Y19840D02*
D03*
X-55375D02*
D03*
X-54875D02*
D03*
Y17960D02*
D03*
X-55375D02*
D03*
X-55875D02*
D03*
D77*
X60450Y57050D02*
D03*
X59500D02*
D03*
X58550D02*
D03*
Y54550D02*
D03*
X59500D02*
D03*
X60450D02*
D03*
D78*
X7550Y80950D02*
D03*
Y81900D02*
D03*
Y82850D02*
D03*
X5050D02*
D03*
Y80950D02*
D03*
X-45550Y71950D02*
D03*
Y73850D02*
D03*
X-43050D02*
D03*
Y72900D02*
D03*
Y71950D02*
D03*
X18250Y80450D02*
D03*
Y82350D02*
D03*
X20750D02*
D03*
Y81400D02*
D03*
Y80450D02*
D03*
D79*
X27100Y87725D02*
D03*
X26600D02*
D03*
X26100D02*
D03*
X27100Y89075D02*
D03*
X26100D02*
D03*
X26600D02*
D03*
X28100D02*
D03*
X28600D02*
D03*
X29100D02*
D03*
X28100Y87725D02*
D03*
X29100D02*
D03*
X28600D02*
D03*
D80*
X57595Y61265D02*
D03*
X58865D02*
D03*
X60135D02*
D03*
X61405D02*
D03*
X57595Y66915D02*
D03*
X58865D02*
D03*
X60135D02*
D03*
X61405D02*
D03*
D81*
X53750Y45150D02*
D03*
Y46100D02*
D03*
Y47050D02*
D03*
X50850D02*
D03*
Y46100D02*
D03*
Y45150D02*
D03*
D82*
X52300Y46100D02*
D03*
D83*
X49435Y68500D02*
D03*
D84*
X51340Y65700D02*
D03*
X50070D02*
D03*
X48800D02*
D03*
X47530D02*
D03*
Y71300D02*
D03*
X48800D02*
D03*
X50070D02*
D03*
X51340D02*
D03*
D85*
X-20300Y91400D02*
D03*
X-25900D02*
D03*
X43900Y91825D02*
D03*
X48500D02*
D03*
D86*
X-24600Y87525D02*
D03*
X-23600D02*
D03*
X-22600D02*
D03*
X-21600D02*
D03*
X47200Y87950D02*
D03*
X46200D02*
D03*
X45200D02*
D03*
D87*
X-49300Y9200D02*
D03*
Y6400D02*
D03*
D88*
X49300Y43600D02*
D03*
Y42000D02*
D03*
X36600Y47900D02*
D03*
Y46300D02*
D03*
X40700Y18300D02*
D03*
Y19900D02*
D03*
X47500Y43600D02*
D03*
Y42000D02*
D03*
X2400Y76400D02*
D03*
Y78000D02*
D03*
X39025Y43300D02*
D03*
Y44900D02*
D03*
X38375Y47900D02*
D03*
Y46300D02*
D03*
X45100Y43600D02*
D03*
Y42000D02*
D03*
D89*
X14550Y72300D02*
D03*
X13250D02*
D03*
X-22650Y80400D02*
D03*
X-23950D02*
D03*
X-22650Y81600D02*
D03*
X-23950D02*
D03*
X-7850Y16800D02*
D03*
X-9150D02*
D03*
X-350Y73500D02*
D03*
X-1650D02*
D03*
X-270Y77750D02*
D03*
X-1570D02*
D03*
X-270Y76500D02*
D03*
X-1570D02*
D03*
X62175Y68865D02*
D03*
X60875D02*
D03*
X60125Y59690D02*
D03*
X61425D02*
D03*
X58950D02*
D03*
X57650D02*
D03*
X57000Y68890D02*
D03*
X58300D02*
D03*
X40750Y49400D02*
D03*
X42050D02*
D03*
X13450Y75600D02*
D03*
X12150D02*
D03*
X47850Y46800D02*
D03*
X46550D02*
D03*
D90*
X47300Y45700D02*
D03*
X46500D02*
D03*
X28500Y89975D02*
D03*
X27700D02*
D03*
X30200D02*
D03*
X29400D02*
D03*
X26000D02*
D03*
X26800D02*
D03*
X29200Y86900D02*
D03*
X28400D02*
D03*
X26100D02*
D03*
X26900D02*
D03*
X-21100Y83100D02*
D03*
X-21900D02*
D03*
X3800Y81000D02*
D03*
X3000D02*
D03*
X58200Y80500D02*
D03*
X57400D02*
D03*
Y81800D02*
D03*
X58200D02*
D03*
Y84300D02*
D03*
X57400D02*
D03*
X58200Y83100D02*
D03*
X57400D02*
D03*
X52550Y87525D02*
D03*
X53350D02*
D03*
X50750Y87550D02*
D03*
X51550D02*
D03*
X16100Y80400D02*
D03*
X16900D02*
D03*
X60160Y17780D02*
D03*
X60960D02*
D03*
X59100Y24100D02*
D03*
X58300D02*
D03*
X59220Y25400D02*
D03*
X58420D02*
D03*
X59055Y17780D02*
D03*
X58255D02*
D03*
X60160Y25400D02*
D03*
X60960D02*
D03*
X59055Y15240D02*
D03*
X58255D02*
D03*
X59055Y20320D02*
D03*
X58255D02*
D03*
X59055Y29210D02*
D03*
X58255D02*
D03*
X60160Y15240D02*
D03*
X60960D02*
D03*
X-6000Y16800D02*
D03*
X-6800D02*
D03*
X60160Y20320D02*
D03*
X60960D02*
D03*
X280Y72425D02*
D03*
X-520D02*
D03*
Y71575D02*
D03*
X280D02*
D03*
Y70725D02*
D03*
X-520D02*
D03*
Y69875D02*
D03*
X280D02*
D03*
X44500Y46800D02*
D03*
X43700D02*
D03*
X44400Y45700D02*
D03*
X45200D02*
D03*
X44500Y47800D02*
D03*
X43700D02*
D03*
X24400Y84000D02*
D03*
X23600D02*
D03*
X16225Y82475D02*
D03*
X15425D02*
D03*
Y83325D02*
D03*
X16225D02*
D03*
X3075Y82450D02*
D03*
X2275D02*
D03*
X11550Y84375D02*
D03*
X10750D02*
D03*
X3075Y83325D02*
D03*
X2275D02*
D03*
X55644Y47050D02*
D03*
X54844D02*
D03*
X35400Y21200D02*
D03*
X34600D02*
D03*
X54200Y81700D02*
D03*
X53400D02*
D03*
X54200Y80300D02*
D03*
X53400D02*
D03*
X54200Y83100D02*
D03*
X53400D02*
D03*
X54200Y84400D02*
D03*
X53400D02*
D03*
X55900Y81700D02*
D03*
X55100D02*
D03*
X55900Y80300D02*
D03*
X55100D02*
D03*
X55900Y83100D02*
D03*
X55100D02*
D03*
X55900Y84400D02*
D03*
X55100D02*
D03*
X49800Y61400D02*
D03*
X49000D02*
D03*
X49800Y59600D02*
D03*
X49000D02*
D03*
X40500Y51600D02*
D03*
X39700D02*
D03*
X49200D02*
D03*
X48400D02*
D03*
X-41500Y72900D02*
D03*
X-40700D02*
D03*
X-56000Y14900D02*
D03*
X-56800D02*
D03*
X-56000Y15800D02*
D03*
X-56800D02*
D03*
X16400Y78300D02*
D03*
X15600D02*
D03*
Y74600D02*
D03*
X16400D02*
D03*
X-53800Y82400D02*
D03*
X-53000D02*
D03*
D91*
X43170Y22025D02*
D03*
Y22425D02*
D03*
Y22825D02*
D03*
Y23225D02*
D03*
Y23625D02*
D03*
Y24025D02*
D03*
Y24425D02*
D03*
X39270D02*
D03*
Y24025D02*
D03*
Y23625D02*
D03*
Y23225D02*
D03*
Y22825D02*
D03*
Y22425D02*
D03*
Y22025D02*
D03*
D92*
X42420Y25175D02*
D03*
X42020D02*
D03*
X41620D02*
D03*
X41220D02*
D03*
X40820D02*
D03*
X40420D02*
D03*
X40020D02*
D03*
Y21275D02*
D03*
X40420D02*
D03*
X40820D02*
D03*
X41220D02*
D03*
X41620D02*
D03*
X42020D02*
D03*
X42420D02*
D03*
D93*
X41220Y23225D02*
D03*
D94*
X16950Y77150D02*
D03*
Y76500D02*
D03*
Y75850D02*
D03*
X15050D02*
D03*
Y76500D02*
D03*
Y77150D02*
D03*
D95*
X57025Y71115D02*
D03*
X59025Y72065D02*
D03*
Y70165D02*
D03*
X62175Y71115D02*
D03*
X60175Y70165D02*
D03*
Y72065D02*
D03*
D96*
X-23300Y85100D02*
D03*
Y83200D02*
D03*
X-25300D02*
D03*
D97*
Y84900D02*
D03*
D98*
X40000Y88000D02*
D03*
X41100Y85800D02*
D03*
X40000Y86900D02*
D03*
X36150Y88000D02*
D03*
X32300Y92100D02*
D03*
Y90600D02*
D03*
X32300Y89100D02*
D03*
Y88000D02*
D03*
Y86900D02*
D03*
Y85800D02*
D03*
Y84700D02*
D03*
Y83600D02*
D03*
Y82500D02*
D03*
Y81400D02*
D03*
Y80300D02*
D03*
Y79200D02*
D03*
X33400Y92100D02*
D03*
X33400Y89100D02*
D03*
Y88000D02*
D03*
Y86900D02*
D03*
Y85800D02*
D03*
Y84700D02*
D03*
Y83600D02*
D03*
Y82500D02*
D03*
Y81400D02*
D03*
Y80300D02*
D03*
Y79200D02*
D03*
X34500Y89100D02*
D03*
Y88000D02*
D03*
Y86900D02*
D03*
Y85800D02*
D03*
Y84700D02*
D03*
Y83600D02*
D03*
Y82500D02*
D03*
Y80300D02*
D03*
Y79200D02*
D03*
X35600Y81400D02*
D03*
Y80300D02*
D03*
Y79200D02*
D03*
X36700Y89100D02*
D03*
X36150Y85800D02*
D03*
Y83600D02*
D03*
X36700Y81400D02*
D03*
Y80300D02*
D03*
Y79200D02*
D03*
X37800Y81400D02*
D03*
Y80300D02*
D03*
Y79200D02*
D03*
X38900Y89100D02*
D03*
Y88000D02*
D03*
Y86900D02*
D03*
Y85800D02*
D03*
Y84700D02*
D03*
Y83600D02*
D03*
Y82500D02*
D03*
Y80300D02*
D03*
Y79200D02*
D03*
X40000Y92100D02*
D03*
X40000Y89100D02*
D03*
Y85800D02*
D03*
Y80300D02*
D03*
X41100Y92100D02*
D03*
Y90600D02*
D03*
Y89100D02*
D03*
Y88000D02*
D03*
Y86900D02*
D03*
Y79200D02*
D03*
X36150Y84700D02*
D03*
X37250Y88000D02*
D03*
Y85800D02*
D03*
Y83600D02*
D03*
Y84700D02*
D03*
X40000Y84700D02*
D03*
Y83600D02*
D03*
Y82500D02*
D03*
X41100D02*
D03*
Y83600D02*
D03*
Y84700D02*
D03*
Y81400D02*
D03*
Y80300D02*
D03*
X40000Y79200D02*
D03*
Y81400D02*
D03*
D99*
X53950Y91000D02*
D03*
X50150D02*
D03*
D100*
X51050Y88700D02*
D03*
X53050D02*
D03*
X52550D02*
D03*
X52050D02*
D03*
X51550D02*
D03*
D101*
X52200Y51600D02*
D03*
X50600D02*
D03*
X59855Y16510D02*
D03*
X58255D02*
D03*
X59855Y19050D02*
D03*
X58255D02*
D03*
X59855Y26670D02*
D03*
X58255D02*
D03*
Y21590D02*
D03*
X59855D02*
D03*
X51600Y61400D02*
D03*
X53200D02*
D03*
X51600Y59600D02*
D03*
X53200D02*
D03*
X43200Y51600D02*
D03*
X41600D02*
D03*
D102*
X27800Y91175D02*
D03*
Y92025D02*
D03*
X26350Y91175D02*
D03*
Y92025D02*
D03*
D103*
X22300Y81450D02*
D03*
Y82750D02*
D03*
X33600Y76350D02*
D03*
Y75050D02*
D03*
X9100Y83050D02*
D03*
Y81750D02*
D03*
X900Y76550D02*
D03*
Y77850D02*
D03*
X60875Y73290D02*
D03*
Y74590D02*
D03*
X58350D02*
D03*
Y73290D02*
D03*
X62125Y74590D02*
D03*
Y73290D02*
D03*
X57075Y74590D02*
D03*
Y73290D02*
D03*
D104*
X60368Y80493D02*
D03*
Y81762D02*
D03*
Y83033D02*
D03*
Y84302D02*
D03*
Y85573D02*
D03*
X64268D02*
D03*
Y84302D02*
D03*
Y83033D02*
D03*
Y81762D02*
D03*
Y80493D02*
D03*
D105*
X-33905Y78775D02*
D03*
D106*
X-38170Y78850D02*
D03*
D107*
X-27520Y80050D02*
D03*
X-40480D02*
D03*
D108*
X-27600Y90815D02*
D03*
D109*
X-40260Y91300D02*
D03*
D110*
X-28680Y91315D02*
D03*
X-29780D02*
D03*
X-30880D02*
D03*
X-31980D02*
D03*
X-33080D02*
D03*
X-34180D02*
D03*
X-35280D02*
D03*
X-36380D02*
D03*
D111*
X20300Y7450D02*
D03*
X22300D02*
D03*
D112*
X17900Y5200D02*
D03*
X24700D02*
D03*
D113*
X22525Y85450D02*
D03*
X22025D02*
D03*
X21525D02*
D03*
X21025D02*
D03*
X20525D02*
D03*
X20025D02*
D03*
X19525D02*
D03*
X19025D02*
D03*
X18525D02*
D03*
X18025D02*
D03*
X17525D02*
D03*
X17025D02*
D03*
X3875D02*
D03*
X4375D02*
D03*
X4875D02*
D03*
X5375D02*
D03*
X5875D02*
D03*
X6375D02*
D03*
X6875D02*
D03*
X7375D02*
D03*
X7875D02*
D03*
X8375D02*
D03*
X8875D02*
D03*
X9375D02*
D03*
D114*
X17275Y87050D02*
D03*
X17775D02*
D03*
X18275D02*
D03*
X18775D02*
D03*
X19275D02*
D03*
X19775D02*
D03*
X20275D02*
D03*
X20775D02*
D03*
X21275D02*
D03*
X21775D02*
D03*
X22275D02*
D03*
X22775D02*
D03*
X9625D02*
D03*
X9125D02*
D03*
X8625D02*
D03*
X8125D02*
D03*
X7625D02*
D03*
X7125D02*
D03*
X6625D02*
D03*
X6125D02*
D03*
X5625D02*
D03*
X5125D02*
D03*
X4625D02*
D03*
X4125D02*
D03*
D115*
X42050Y44635D02*
D03*
Y42265D02*
D03*
D116*
X52700Y64600D02*
D03*
Y65400D02*
D03*
X30300Y88100D02*
D03*
Y88900D02*
D03*
X-53340Y41110D02*
D03*
Y41910D02*
D03*
X5900Y78200D02*
D03*
Y79000D02*
D03*
X19100Y78800D02*
D03*
Y78000D02*
D03*
X2540Y41910D02*
D03*
Y41110D02*
D03*
X-25400Y41910D02*
D03*
Y41110D02*
D03*
X19900Y78800D02*
D03*
Y78000D02*
D03*
X6700Y79000D02*
D03*
Y78200D02*
D03*
X42900Y28300D02*
D03*
Y29100D02*
D03*
X49105Y29725D02*
D03*
Y28925D02*
D03*
X50075Y31375D02*
D03*
Y30575D02*
D03*
X51100Y31375D02*
D03*
Y30575D02*
D03*
X47130Y31400D02*
D03*
Y30600D02*
D03*
X47130Y29725D02*
D03*
Y28925D02*
D03*
X48100Y31400D02*
D03*
Y30600D02*
D03*
X50070Y29700D02*
D03*
Y28900D02*
D03*
X41500Y28300D02*
D03*
Y29100D02*
D03*
X49105Y31400D02*
D03*
Y30600D02*
D03*
X48100Y29725D02*
D03*
Y28925D02*
D03*
X51100Y29700D02*
D03*
Y28900D02*
D03*
X45400Y46800D02*
D03*
Y47600D02*
D03*
X49725Y46975D02*
D03*
Y47775D02*
D03*
Y45325D02*
D03*
Y46125D02*
D03*
X-57600Y18900D02*
D03*
Y19700D02*
D03*
X-56125Y21450D02*
D03*
Y20650D02*
D03*
X37250Y75500D02*
D03*
Y76300D02*
D03*
X-42200Y86200D02*
D03*
Y85400D02*
D03*
X-41300D02*
D03*
Y86200D02*
D03*
X60468Y51571D02*
D03*
Y52371D02*
D03*
X58561Y51571D02*
D03*
Y52371D02*
D03*
D117*
X25550Y76400D02*
D03*
X26450D02*
D03*
X36650Y24300D02*
D03*
X37550D02*
D03*
X60975Y58515D02*
D03*
X60075D02*
D03*
X58100Y58525D02*
D03*
X59000D02*
D03*
X16125Y84275D02*
D03*
X15225D02*
D03*
X2075D02*
D03*
X2975D02*
D03*
X-55125Y20750D02*
D03*
X-54225D02*
D03*
X-46950Y72000D02*
D03*
X-47850D02*
D03*
X32450Y76400D02*
D03*
X31550D02*
D03*
D118*
X-65000Y91000D02*
D03*
Y2000D02*
D03*
X65000D02*
D03*
D119*
X42900Y27350D02*
D03*
Y26450D02*
D03*
X41500Y27350D02*
D03*
Y26450D02*
D03*
X62950Y60890D02*
D03*
Y61790D02*
D03*
X59511Y52411D02*
D03*
Y51511D02*
D03*
D120*
X36100Y22900D02*
D03*
X37700D02*
D03*
X50900Y43400D02*
D03*
X52500D02*
D03*
X50850Y48700D02*
D03*
X52450D02*
D03*
X47500Y22800D02*
D03*
X45900D02*
D03*
X-300Y75000D02*
D03*
X-1900D02*
D03*
D121*
X60456Y53357D02*
D03*
Y53707D02*
D03*
X58551Y53369D02*
D03*
Y53719D02*
D03*
D122*
X-50700Y90500D02*
D03*
X-42500D02*
D03*
D123*
X-48600D02*
D03*
X-46600D02*
D03*
X-44600D02*
D03*
D124*
X5080Y57150D02*
D03*
X-50800D02*
D03*
X-22860D02*
D03*
D125*
X5080Y54610D02*
D03*
Y46990D02*
D03*
Y41910D02*
D03*
Y44450D02*
D03*
Y49530D02*
D03*
Y39370D02*
D03*
Y52070D02*
D03*
X27940Y39370D02*
D03*
Y49530D02*
D03*
Y44450D02*
D03*
Y46990D02*
D03*
Y57150D02*
D03*
Y52070D02*
D03*
Y54610D02*
D03*
Y41910D02*
D03*
X-50800Y54610D02*
D03*
Y46990D02*
D03*
Y41910D02*
D03*
Y44450D02*
D03*
Y49530D02*
D03*
Y39370D02*
D03*
Y52070D02*
D03*
X-27940Y39370D02*
D03*
Y49530D02*
D03*
Y44450D02*
D03*
Y46990D02*
D03*
Y57150D02*
D03*
Y52070D02*
D03*
Y54610D02*
D03*
Y41910D02*
D03*
X0D02*
D03*
Y54610D02*
D03*
Y52070D02*
D03*
Y57150D02*
D03*
Y46990D02*
D03*
Y44450D02*
D03*
Y49530D02*
D03*
Y39370D02*
D03*
X-22860Y52070D02*
D03*
Y39370D02*
D03*
Y49530D02*
D03*
Y44450D02*
D03*
Y41910D02*
D03*
Y46990D02*
D03*
Y54610D02*
D03*
D126*
X34400Y7140D02*
D03*
X-25400Y77400D02*
D03*
Y71240D02*
D03*
D127*
X34400Y4600D02*
D03*
X-25400Y74860D02*
D03*
Y68700D02*
D03*
D128*
X45260Y57200D02*
D03*
D129*
X47800D02*
D03*
X50340D02*
D03*
D130*
X-17555Y87710D02*
D03*
X-10545D02*
D03*
X-7855D02*
D03*
X-845D02*
D03*
D131*
X-16300Y90200D02*
D03*
X-11800D02*
D03*
X-6600D02*
D03*
X-2100D02*
D03*
D132*
X28577Y5799D02*
D03*
D133*
X20347Y21801D02*
D03*
X-34897Y5799D02*
D03*
D134*
X24220Y86150D02*
D03*
X15580D02*
D03*
X2430D02*
D03*
X11070D02*
D03*
D135*
X23500Y88150D02*
D03*
X10350D02*
D03*
D136*
X16300D02*
D03*
X3150D02*
D03*
D137*
X24220Y91200D02*
D03*
X15580D02*
D03*
X2430D02*
D03*
X11070D02*
D03*
D138*
X23995Y86750D02*
D03*
X15805D02*
D03*
X2655D02*
D03*
X10845D02*
D03*
D139*
X-58000Y5000D02*
D03*
X58000Y90000D02*
D03*
X-58000D02*
D03*
X58000Y5000D02*
D03*
D140*
X-43050Y82850D02*
D03*
M02*
