G04*
G04 #@! TF.GenerationSoftware,Altium Limited,Altium Designer,23.3.1 (30)*
G04*
G04 Layer_Physical_Order=2*
G04 Layer_Color=36540*
%FSLAX43Y43*%
%MOMM*%
G71*
G04*
G04 #@! TF.SameCoordinates,D808C254-9F92-4D33-8E88-3B856B9356EB*
G04*
G04*
G04 #@! TF.FilePolarity,Positive*
G04*
G01*
G75*
%ADD12C,0.600*%
%ADD13C,0.200*%
%ADD17C,0.152*%
%ADD148C,0.400*%
%ADD149C,0.500*%
%ADD154C,0.203*%
%ADD155C,0.335*%
%ADD156C,0.300*%
%ADD158C,0.000*%
%ADD159C,2.250*%
%ADD162C,1.651*%
%ADD164C,1.725*%
%ADD166C,1.880*%
%ADD167C,2.026*%
%ADD168C,1.561*%
%ADD170C,0.600*%
%ADD174C,0.457*%
%ADD175C,1.500*%
%ADD176C,1.200*%
%ADD177C,2.000*%
G36*
X66008Y92674D02*
X66325Y92543D01*
X66610Y92352D01*
X66852Y92110D01*
X67043Y91825D01*
X67174Y91508D01*
X67241Y91172D01*
Y91000D01*
Y2000D01*
Y1829D01*
X67174Y1492D01*
X67043Y1175D01*
X66852Y890D01*
X66610Y648D01*
X66325Y457D01*
X66008Y326D01*
X65737Y272D01*
X1500D01*
Y1500D01*
X-1500D01*
Y272D01*
X-65737D01*
X-66008Y326D01*
X-66325Y457D01*
X-66610Y648D01*
X-66852Y890D01*
X-67043Y1175D01*
X-67174Y1492D01*
X-67241Y1829D01*
Y2000D01*
Y91000D01*
Y91172D01*
X-67174Y91508D01*
X-67043Y91825D01*
X-66852Y92110D01*
X-66610Y92352D01*
X-66325Y92543D01*
X-66008Y92674D01*
X-65737Y92728D01*
X2202D01*
X2227Y92607D01*
X2038Y92529D01*
X1876Y92404D01*
X1751Y92242D01*
X1673Y92053D01*
X1646Y91850D01*
Y90550D01*
X1673Y90347D01*
X1751Y90158D01*
X1876Y89996D01*
X2038Y89871D01*
X2227Y89793D01*
X2430Y89766D01*
X2633Y89793D01*
X2822Y89871D01*
X2984Y89996D01*
X3109Y90158D01*
X3187Y90347D01*
X3214Y90550D01*
Y91850D01*
X3187Y92053D01*
X3109Y92242D01*
X2984Y92404D01*
X2822Y92529D01*
X2633Y92607D01*
X2658Y92728D01*
X10842D01*
X10867Y92607D01*
X10678Y92529D01*
X10516Y92404D01*
X10391Y92242D01*
X10313Y92053D01*
X10286Y91850D01*
Y90550D01*
X10313Y90347D01*
X10391Y90158D01*
X10516Y89996D01*
X10678Y89871D01*
X10867Y89793D01*
X11070Y89766D01*
X11273Y89793D01*
X11462Y89871D01*
X11624Y89996D01*
X11749Y90158D01*
X11827Y90347D01*
X11854Y90550D01*
Y91850D01*
X11827Y92053D01*
X11749Y92242D01*
X11624Y92404D01*
X11462Y92529D01*
X11273Y92607D01*
X11298Y92728D01*
X15352D01*
X15377Y92607D01*
X15188Y92529D01*
X15026Y92404D01*
X14901Y92242D01*
X14823Y92053D01*
X14796Y91850D01*
Y90550D01*
X14823Y90347D01*
X14901Y90158D01*
X15026Y89996D01*
X15188Y89871D01*
X15377Y89793D01*
X15580Y89766D01*
X15783Y89793D01*
X15972Y89871D01*
X16134Y89996D01*
X16259Y90158D01*
X16337Y90347D01*
X16364Y90550D01*
Y91850D01*
X16337Y92053D01*
X16259Y92242D01*
X16134Y92404D01*
X15972Y92529D01*
X15783Y92607D01*
X15808Y92728D01*
X23992D01*
X24017Y92607D01*
X23828Y92529D01*
X23666Y92404D01*
X23541Y92242D01*
X23463Y92053D01*
X23436Y91850D01*
Y90550D01*
X23463Y90347D01*
X23541Y90158D01*
X23666Y89996D01*
X23828Y89871D01*
X24017Y89793D01*
X24220Y89766D01*
X24423Y89793D01*
X24612Y89871D01*
X24774Y89996D01*
X24899Y90158D01*
X24977Y90347D01*
X25004Y90550D01*
Y91850D01*
X24977Y92053D01*
X24899Y92242D01*
X24774Y92404D01*
X24612Y92529D01*
X24423Y92607D01*
X24448Y92728D01*
X31375D01*
Y92600D01*
X33700Y92600D01*
X33700Y91800D01*
X32600Y91800D01*
X32600Y89400D01*
X40800Y89400D01*
X40800Y91800D01*
X39701D01*
X39699Y92510D01*
X39788Y92600D01*
X41925Y92600D01*
Y92638D01*
X42015Y92728D01*
X65737D01*
X66008Y92674D01*
D02*
G37*
G36*
X-463Y1287D02*
X-453D01*
X-432Y1285D01*
X-407Y1281D01*
X-381Y1276D01*
X-356Y1268D01*
X-331Y1258D01*
X-330D01*
X-328Y1256D01*
X-321Y1252D01*
X-310Y1245D01*
X-297Y1236D01*
X-282Y1224D01*
X-267Y1208D01*
X-253Y1193D01*
X-242Y1173D01*
X-240Y1171D01*
X-236Y1164D01*
X-233Y1154D01*
X-226Y1140D01*
X-221Y1123D01*
X-217Y1103D01*
X-213Y1081D01*
X-212Y1058D01*
Y1057D01*
Y1055D01*
Y1048D01*
X-213Y1036D01*
X-214Y1022D01*
X-217Y1005D01*
X-221Y988D01*
X-226Y970D01*
X-233Y952D01*
X-234Y949D01*
X-236Y944D01*
X-242Y935D01*
X-249Y925D01*
X-258Y912D01*
X-271Y899D01*
X-287Y884D01*
X-306Y870D01*
X-309Y869D01*
X-317Y864D01*
X-328Y857D01*
X-345Y848D01*
X-367Y838D01*
X-393Y825D01*
X-424Y813D01*
X-460Y800D01*
X-462D01*
X-463Y799D01*
X-467Y798D01*
X-472Y796D01*
X-484Y791D01*
X-499Y786D01*
X-516Y780D01*
X-534Y772D01*
X-551Y764D01*
X-567Y756D01*
X-568Y755D01*
X-573Y752D01*
X-578Y748D01*
X-586Y743D01*
X-604Y729D01*
X-612Y721D01*
X-619Y712D01*
Y711D01*
X-621Y708D01*
X-624Y703D01*
X-626Y695D01*
X-629Y686D01*
X-631Y676D01*
X-633Y664D01*
X-634Y651D01*
X-220D01*
Y511D01*
X-788D01*
Y620D01*
Y621D01*
Y625D01*
Y632D01*
X-787Y640D01*
Y650D01*
X-786Y662D01*
X-783Y675D01*
X-780Y689D01*
X-774Y719D01*
X-764Y750D01*
X-749Y781D01*
X-740Y795D01*
X-730Y809D01*
X-729Y811D01*
X-727Y812D01*
X-723Y816D01*
X-718Y821D01*
X-713Y827D01*
X-705Y834D01*
X-696Y842D01*
X-685Y851D01*
X-673Y860D01*
X-660Y869D01*
X-644Y878D01*
X-628Y887D01*
X-609Y897D01*
X-590Y906D01*
X-569Y916D01*
X-546Y923D01*
X-545D01*
X-542Y925D01*
X-538Y926D01*
X-533Y927D01*
X-520Y932D01*
X-503Y938D01*
X-485Y944D01*
X-467Y952D01*
X-449Y960D01*
X-433Y967D01*
X-432Y969D01*
X-427Y971D01*
X-420Y975D01*
X-413Y982D01*
X-394Y995D01*
X-388Y1002D01*
X-381Y1010D01*
X-380Y1011D01*
X-379Y1014D01*
X-376Y1019D01*
X-374Y1024D01*
X-371Y1032D01*
X-370Y1041D01*
X-367Y1050D01*
Y1061D01*
Y1062D01*
Y1067D01*
X-369Y1075D01*
X-371Y1084D01*
X-375Y1096D01*
X-380Y1106D01*
X-388Y1116D01*
X-398Y1127D01*
X-400Y1128D01*
X-403Y1131D01*
X-411Y1134D01*
X-420Y1140D01*
X-433Y1145D01*
X-448Y1149D01*
X-466Y1151D01*
X-486Y1153D01*
X-495D01*
X-507Y1151D01*
X-520Y1149D01*
X-536Y1145D01*
X-551Y1140D01*
X-567Y1133D01*
X-582Y1123D01*
X-584Y1122D01*
X-589Y1118D01*
X-594Y1110D01*
X-602Y1101D01*
X-609Y1089D01*
X-617Y1074D01*
X-622Y1057D01*
X-626Y1036D01*
X-784D01*
Y1037D01*
Y1039D01*
Y1042D01*
X-783Y1048D01*
X-782Y1061D01*
X-779Y1077D01*
X-775Y1096D01*
X-770Y1116D01*
X-761Y1138D01*
X-751Y1160D01*
Y1162D01*
X-749Y1163D01*
X-744Y1169D01*
X-736Y1181D01*
X-726Y1194D01*
X-712Y1208D01*
X-695Y1224D01*
X-676Y1239D01*
X-652Y1254D01*
X-651D01*
X-650Y1255D01*
X-646Y1258D01*
X-641Y1259D01*
X-634Y1261D01*
X-626Y1265D01*
X-607Y1272D01*
X-582Y1277D01*
X-554Y1283D01*
X-523Y1287D01*
X-486Y1289D01*
X-471D01*
X-463Y1287D01*
D02*
G37*
%LPC*%
G36*
X29785Y92227D02*
X29615D01*
X29458Y92162D01*
X29338Y92042D01*
X29273Y91885D01*
Y91715D01*
X29338Y91558D01*
X29458Y91438D01*
X29615Y91373D01*
X29785D01*
X29942Y91438D01*
X30062Y91558D01*
X30127Y91715D01*
Y91885D01*
X30062Y92042D01*
X29942Y92162D01*
X29785Y92227D01*
D02*
G37*
G36*
X-42335Y91752D02*
X-42665D01*
X-42983Y91667D01*
X-43269Y91502D01*
X-43502Y91269D01*
X-43667Y90983D01*
X-43730Y90746D01*
X-43862D01*
X-43876Y90800D01*
X-43978Y90977D01*
X-44123Y91122D01*
X-44300Y91224D01*
X-44498Y91277D01*
X-44702D01*
X-44900Y91224D01*
X-45077Y91122D01*
X-45222Y90977D01*
X-45324Y90800D01*
X-45377Y90602D01*
Y90398D01*
X-45324Y90200D01*
X-45222Y90023D01*
X-45077Y89878D01*
X-44900Y89776D01*
X-44702Y89723D01*
X-44498D01*
X-44300Y89776D01*
X-44123Y89878D01*
X-43978Y90023D01*
X-43876Y90200D01*
X-43862Y90254D01*
X-43730D01*
X-43667Y90017D01*
X-43502Y89731D01*
X-43269Y89498D01*
X-42983Y89333D01*
X-42665Y89248D01*
X-42335D01*
X-42017Y89333D01*
X-41731Y89498D01*
X-41498Y89731D01*
X-41333Y90017D01*
X-41248Y90335D01*
Y90665D01*
X-41333Y90983D01*
X-41498Y91269D01*
X-41731Y91502D01*
X-42017Y91667D01*
X-42335Y91752D01*
D02*
G37*
G36*
X-50802Y91777D02*
X-50868D01*
X-51193Y91690D01*
X-51484Y91522D01*
X-51722Y91284D01*
X-51890Y90993D01*
X-51977Y90668D01*
Y90602D01*
X-50802D01*
Y91777D01*
D02*
G37*
G36*
X30085Y91227D02*
X29915D01*
X29758Y91162D01*
X29638Y91042D01*
X29573Y90885D01*
Y90715D01*
X29638Y90558D01*
X29758Y90438D01*
X29915Y90373D01*
X30085D01*
X30242Y90438D01*
X30362Y90558D01*
X30427Y90715D01*
Y90885D01*
X30362Y91042D01*
X30242Y91162D01*
X30085Y91227D01*
D02*
G37*
G36*
X-46498Y91277D02*
X-46702D01*
X-46900Y91224D01*
X-47077Y91122D01*
X-47222Y90977D01*
X-47324Y90800D01*
X-47377Y90602D01*
Y90398D01*
X-47324Y90200D01*
X-47222Y90023D01*
X-47077Y89878D01*
X-46900Y89776D01*
X-46702Y89723D01*
X-46498D01*
X-46300Y89776D01*
X-46123Y89878D01*
X-45978Y90023D01*
X-45876Y90200D01*
X-45823Y90398D01*
Y90602D01*
X-45876Y90800D01*
X-45978Y90977D01*
X-46123Y91122D01*
X-46300Y91224D01*
X-46498Y91277D01*
D02*
G37*
G36*
X-50532Y91777D02*
X-50598D01*
Y90500D01*
Y89223D01*
X-50532D01*
X-50207Y89310D01*
X-49916Y89478D01*
X-49678Y89716D01*
X-49510Y90007D01*
X-49457Y90205D01*
X-49325D01*
X-49324Y90200D01*
X-49222Y90023D01*
X-49077Y89878D01*
X-48900Y89776D01*
X-48702Y89723D01*
X-48498D01*
X-48300Y89776D01*
X-48123Y89878D01*
X-47978Y90023D01*
X-47876Y90200D01*
X-47823Y90398D01*
Y90602D01*
X-47876Y90800D01*
X-47978Y90977D01*
X-48123Y91122D01*
X-48300Y91224D01*
X-48498Y91277D01*
X-48702D01*
X-48900Y91224D01*
X-49077Y91122D01*
X-49222Y90977D01*
X-49324Y90800D01*
X-49325Y90795D01*
X-49457D01*
X-49510Y90993D01*
X-49678Y91284D01*
X-49916Y91522D01*
X-50207Y91690D01*
X-50532Y91777D01*
D02*
G37*
G36*
X47285Y90227D02*
X47115D01*
X46958Y90162D01*
X46838Y90042D01*
X46773Y89885D01*
Y89715D01*
X46838Y89558D01*
X46958Y89438D01*
X47115Y89373D01*
X47285D01*
X47442Y89438D01*
X47562Y89558D01*
X47627Y89715D01*
Y89885D01*
X47562Y90042D01*
X47442Y90162D01*
X47285Y90227D01*
D02*
G37*
G36*
X46285D02*
X46115D01*
X45958Y90162D01*
X45838Y90042D01*
X45773Y89885D01*
Y89715D01*
X45838Y89558D01*
X45958Y89438D01*
X46115Y89373D01*
X46285D01*
X46442Y89438D01*
X46562Y89558D01*
X46627Y89715D01*
Y89885D01*
X46562Y90042D01*
X46442Y90162D01*
X46285Y90227D01*
D02*
G37*
G36*
X45085D02*
X44915D01*
X44758Y90162D01*
X44638Y90042D01*
X44573Y89885D01*
Y89715D01*
X44638Y89558D01*
X44758Y89438D01*
X44915Y89373D01*
X45085D01*
X45242Y89438D01*
X45362Y89558D01*
X45427Y89715D01*
Y89885D01*
X45362Y90042D01*
X45242Y90162D01*
X45085Y90227D01*
D02*
G37*
G36*
X-1981Y91107D02*
X-2219D01*
X-2450Y91046D01*
X-2657Y90926D01*
X-2826Y90757D01*
X-2946Y90550D01*
X-3007Y90319D01*
Y90081D01*
X-2946Y89850D01*
X-2826Y89643D01*
X-2657Y89474D01*
X-2450Y89354D01*
X-2219Y89293D01*
X-1981D01*
X-1750Y89354D01*
X-1543Y89474D01*
X-1374Y89643D01*
X-1254Y89850D01*
X-1192Y90081D01*
Y90319D01*
X-1254Y90550D01*
X-1374Y90757D01*
X-1543Y90926D01*
X-1750Y91046D01*
X-1981Y91107D01*
D02*
G37*
G36*
X-11681D02*
X-11919D01*
X-12150Y91046D01*
X-12357Y90926D01*
X-12526Y90757D01*
X-12646Y90550D01*
X-12708Y90319D01*
Y90081D01*
X-12646Y89850D01*
X-12526Y89643D01*
X-12357Y89474D01*
X-12150Y89354D01*
X-11919Y89293D01*
X-11681D01*
X-11450Y89354D01*
X-11243Y89474D01*
X-11074Y89643D01*
X-10954Y89850D01*
X-10892Y90081D01*
Y90319D01*
X-10954Y90550D01*
X-11074Y90757D01*
X-11243Y90926D01*
X-11450Y91046D01*
X-11681Y91107D01*
D02*
G37*
G36*
X-50802Y90398D02*
X-51977D01*
Y90332D01*
X-51890Y90007D01*
X-51722Y89716D01*
X-51484Y89478D01*
X-51193Y89310D01*
X-50868Y89223D01*
X-50802D01*
Y90398D01*
D02*
G37*
G36*
X19685Y89027D02*
X19515D01*
X19358Y88962D01*
X19238Y88842D01*
X19173Y88685D01*
Y88537D01*
X18300D01*
X18300Y88537D01*
X18203Y88497D01*
X18203Y88497D01*
X18003Y88297D01*
X18003Y88297D01*
X17963Y88200D01*
X17963Y88200D01*
Y84200D01*
X18003Y84103D01*
X18003Y84103D01*
X18203Y83903D01*
X18300Y83863D01*
X18300Y83863D01*
X18730D01*
X18745Y83869D01*
X18761Y83866D01*
X18792Y83888D01*
X18827Y83903D01*
X18924Y83936D01*
X18956Y83940D01*
X18958Y83938D01*
X19115Y83873D01*
X19285D01*
X19442Y83938D01*
X19444Y83940D01*
X19476Y83936D01*
X19573Y83903D01*
X19608Y83888D01*
X19639Y83866D01*
X19655Y83869D01*
X19670Y83863D01*
X21043Y83863D01*
X22741Y82164D01*
X22689Y82037D01*
X21800D01*
X21703Y81997D01*
X21663Y81900D01*
Y81433D01*
X17170D01*
X17142Y81462D01*
X16985Y81527D01*
X16815D01*
X16658Y81462D01*
X16538Y81342D01*
X16473Y81185D01*
Y81015D01*
X16538Y80858D01*
X16658Y80738D01*
X16815Y80673D01*
X16985D01*
X17142Y80738D01*
X17170Y80767D01*
X21663D01*
Y79100D01*
X21703Y79003D01*
X21715Y78998D01*
Y72100D01*
X21746Y71871D01*
X21834Y71658D01*
X21975Y71475D01*
X32815Y60634D01*
Y41300D01*
X32846Y41071D01*
X32934Y40858D01*
X33075Y40675D01*
X37475Y36275D01*
X37475Y36275D01*
X37658Y36134D01*
X37871Y36046D01*
X38100Y36015D01*
X38100Y36015D01*
X42134D01*
X44915Y33234D01*
Y27900D01*
X44946Y27671D01*
X45034Y27458D01*
X45175Y27275D01*
X49310Y23139D01*
Y20163D01*
X47631Y18485D01*
X45444D01*
X45397Y18603D01*
X45437Y18700D01*
Y23800D01*
X45397Y23897D01*
X45300Y23937D01*
X44285D01*
Y32003D01*
X44254Y32232D01*
X44166Y32446D01*
X44025Y32629D01*
X41829Y34825D01*
X41646Y34966D01*
X41432Y35054D01*
X41203Y35085D01*
X37066D01*
X31785Y40366D01*
Y58000D01*
X31785Y58000D01*
X31754Y58229D01*
X31666Y58442D01*
X31525Y58625D01*
X31525Y58625D01*
X14198Y75953D01*
X14258Y76073D01*
X14385D01*
X14542Y76138D01*
X14662Y76258D01*
X14727Y76415D01*
Y76585D01*
X14662Y76742D01*
X14542Y76862D01*
X14385Y76927D01*
X14215D01*
X14058Y76862D01*
X13938Y76742D01*
X13873Y76585D01*
Y76458D01*
X13753Y76398D01*
X11237Y78913D01*
Y81300D01*
X11197Y81397D01*
X11100Y81437D01*
X8300D01*
X8203Y81397D01*
X8163Y81300D01*
Y80479D01*
X8067Y80400D01*
X4204D01*
X4142Y80462D01*
X3985Y80527D01*
X3815D01*
X3658Y80462D01*
X3538Y80342D01*
X3473Y80185D01*
Y80015D01*
X3538Y79858D01*
X3658Y79738D01*
X3815Y79673D01*
X3985D01*
X4142Y79738D01*
X4204Y79800D01*
X7943D01*
X8163Y79580D01*
Y79400D01*
X8203Y79303D01*
X9703Y77803D01*
X9800Y77763D01*
X9800Y77763D01*
X9887D01*
X30015Y57634D01*
Y40000D01*
X30046Y39771D01*
X30134Y39558D01*
X30275Y39375D01*
X36075Y33575D01*
X36075Y33575D01*
X36258Y33434D01*
X36471Y33346D01*
X36700Y33315D01*
X36700Y33315D01*
X40837D01*
X42515Y31637D01*
Y22800D01*
X42546Y22571D01*
X42634Y22358D01*
X42728Y22236D01*
Y21935D01*
X42768Y21838D01*
X43663Y20943D01*
Y19100D01*
X43663Y19100D01*
X43703Y19003D01*
X43703Y19003D01*
X44094Y18612D01*
X44090Y18570D01*
X44056Y18485D01*
X43866D01*
X39937Y22413D01*
Y22700D01*
X39897Y22797D01*
X39800Y22837D01*
X36700D01*
X36603Y22797D01*
X36563Y22700D01*
Y20200D01*
X36603Y20103D01*
X36700Y20063D01*
X37300D01*
X37300Y20063D01*
X37397Y20103D01*
X37397Y20103D01*
X38257Y20963D01*
X38887D01*
X39311Y20538D01*
X39303Y20497D01*
X37503Y18697D01*
X37463Y18600D01*
X37463Y18600D01*
Y15200D01*
X37463Y15200D01*
X37503Y15103D01*
X38503Y14103D01*
X38600Y14063D01*
X38600Y14063D01*
X39800D01*
X39802Y14063D01*
X49000D01*
X49294Y14102D01*
X49568Y14216D01*
X49804Y14396D01*
X53504Y18096D01*
X53684Y18332D01*
X53798Y18606D01*
X53837Y18900D01*
Y34200D01*
X53798Y34494D01*
X53684Y34768D01*
X53504Y35004D01*
X49704Y38804D01*
X49468Y38984D01*
X49345Y39036D01*
X49370Y39163D01*
X50400D01*
X50497Y39203D01*
X50537Y39300D01*
Y40600D01*
X50497Y40697D01*
X50400Y40737D01*
X49784D01*
Y40800D01*
X49755Y40947D01*
X49672Y41072D01*
X49672Y41072D01*
X48084Y42659D01*
Y44836D01*
X48055Y44984D01*
X47972Y45108D01*
X47972Y45108D01*
X45784Y47296D01*
Y49312D01*
X45827Y49415D01*
Y49585D01*
X45762Y49742D01*
X45642Y49862D01*
X45485Y49927D01*
X45315D01*
X45158Y49862D01*
X45038Y49742D01*
X44973Y49585D01*
Y49415D01*
X45016Y49312D01*
Y47136D01*
X45016Y47136D01*
X45045Y46989D01*
X45128Y46865D01*
X47316Y44677D01*
Y42500D01*
X47316Y42500D01*
X47345Y42353D01*
X47428Y42228D01*
X48802Y40855D01*
X48753Y40737D01*
X48500D01*
X48400Y40698D01*
X48300Y40737D01*
X44300D01*
X44203Y40697D01*
X44163Y40600D01*
Y40415D01*
X44144Y40371D01*
Y40229D01*
X44163Y40185D01*
X44163Y39715D01*
X44144Y39671D01*
Y39529D01*
X44163Y39485D01*
Y39000D01*
X44163Y39000D01*
X44203Y38903D01*
X44203Y38903D01*
X46203Y36903D01*
X46300Y36863D01*
X46300Y36863D01*
X48300D01*
X48302Y36863D01*
X48429D01*
X51563Y33729D01*
Y19371D01*
X48529Y16337D01*
X39937D01*
X39937Y19746D01*
X40055Y19794D01*
X42875Y16975D01*
X43058Y16834D01*
X43271Y16746D01*
X43500Y16715D01*
X47998D01*
X48227Y16746D01*
X48440Y16834D01*
X48623Y16975D01*
X50820Y19171D01*
X50960Y19354D01*
X51049Y19568D01*
X51079Y19797D01*
Y23506D01*
X51049Y23735D01*
X50960Y23948D01*
X50820Y24131D01*
X46685Y28266D01*
Y33600D01*
X46654Y33829D01*
X46566Y34042D01*
X46425Y34225D01*
X43125Y37525D01*
X42942Y37666D01*
X42729Y37754D01*
X42500Y37785D01*
X38466D01*
X34585Y41666D01*
Y61000D01*
X34554Y61229D01*
X34466Y61442D01*
X34325Y61625D01*
X23485Y72466D01*
Y78963D01*
X23800D01*
X23800Y78963D01*
X23897Y79003D01*
X23897Y79003D01*
X24472Y79578D01*
X24559D01*
X24687Y79603D01*
X24795Y79675D01*
X24987Y79867D01*
X30330D01*
X30358Y79838D01*
X30515Y79773D01*
X30685D01*
X30842Y79838D01*
X30962Y79958D01*
X31027Y80115D01*
Y80285D01*
X30962Y80442D01*
X30842Y80562D01*
X30685Y80627D01*
X30515D01*
X30358Y80562D01*
X30330Y80533D01*
X24849D01*
X24721Y80508D01*
X24664Y80470D01*
X24537Y80534D01*
Y80879D01*
X24658Y80938D01*
X24815Y80873D01*
X24985D01*
X25142Y80938D01*
X25262Y81058D01*
X25266Y81069D01*
X32211D01*
X32369Y80911D01*
Y78437D01*
X32300D01*
X32203Y78397D01*
X32163Y78300D01*
Y76900D01*
X32203Y76803D01*
X32300Y76763D01*
X32567D01*
Y74400D01*
X32592Y74210D01*
X32665Y74033D01*
X32782Y73882D01*
X32838Y73838D01*
X32882Y73782D01*
X42667Y63996D01*
Y56000D01*
X42692Y55810D01*
X42765Y55633D01*
X42882Y55481D01*
X47963Y50400D01*
Y50000D01*
X48003Y49903D01*
X48100Y49863D01*
X50600D01*
X50697Y49903D01*
X50737Y50000D01*
Y51300D01*
X50697Y51397D01*
X50600Y51437D01*
X49000D01*
X44421Y56016D01*
X44470Y56133D01*
X46327D01*
Y58267D01*
X44193D01*
X44133Y58369D01*
Y62785D01*
X44251Y62834D01*
X45092Y61992D01*
X45233Y61898D01*
X45400Y61865D01*
X49600D01*
X49767Y61898D01*
X49908Y61992D01*
X51400Y63484D01*
X52848Y62036D01*
X55489Y59395D01*
X55630Y59301D01*
X55797Y59268D01*
X56803D01*
X56833Y59274D01*
X59218Y56889D01*
Y56250D01*
X59218Y56250D01*
X59218Y56250D01*
Y53421D01*
X59138Y53342D01*
X59073Y53185D01*
Y53015D01*
X59138Y52858D01*
X59258Y52738D01*
X59415Y52673D01*
X59585D01*
X59742Y52738D01*
X59862Y52858D01*
X59927Y53015D01*
Y53185D01*
X59862Y53342D01*
X59782Y53421D01*
Y56133D01*
X62947Y59298D01*
X63060D01*
X63217Y59363D01*
X63337Y59483D01*
X63402Y59640D01*
Y59810D01*
X63337Y59967D01*
X63217Y60087D01*
X63060Y60152D01*
X62890D01*
X62733Y60087D01*
X62613Y59967D01*
X62548Y59810D01*
Y59697D01*
X59903Y57052D01*
X59765Y57094D01*
X59761Y57114D01*
X59700Y57206D01*
X59700Y57206D01*
X57232Y59673D01*
X57238Y59703D01*
X57230Y59745D01*
Y59788D01*
X57214Y59828D01*
X57205Y59870D01*
X57181Y59905D01*
X57165Y59945D01*
X57135Y59975D01*
X57111Y60011D01*
X57075Y60035D01*
X57045Y60065D01*
X57005Y60082D01*
X56970Y60105D01*
X56928Y60114D01*
X56888Y60130D01*
X56845D01*
X56803Y60138D01*
X55977D01*
X53464Y62652D01*
X52016Y64100D01*
X54608Y66692D01*
X54702Y66833D01*
X54735Y67000D01*
Y76520D01*
X56980Y78765D01*
X62400D01*
X62442Y78773D01*
X62485D01*
X62525Y78789D01*
X62567Y78798D01*
X62602Y78822D01*
X62642Y78838D01*
X62672Y78868D01*
X62708Y78892D01*
X62732Y78928D01*
X62762Y78958D01*
X62778Y78998D01*
X62802Y79033D01*
X62811Y79075D01*
X62827Y79115D01*
Y79158D01*
X62835Y79200D01*
X62827Y79242D01*
Y79285D01*
X62811Y79325D01*
X62802Y79367D01*
X62778Y79402D01*
X62762Y79442D01*
X62732Y79472D01*
X62708Y79508D01*
X62672Y79532D01*
X62642Y79562D01*
X62602Y79578D01*
X62567Y79602D01*
X62525Y79611D01*
X62485Y79627D01*
X62442D01*
X62400Y79635D01*
X57031D01*
Y80134D01*
X57042Y80138D01*
X57162Y80258D01*
X57227Y80415D01*
Y80585D01*
X57162Y80742D01*
X57042Y80862D01*
X57031Y80866D01*
Y81437D01*
X57042Y81441D01*
X57162Y81561D01*
X57227Y81718D01*
Y81888D01*
X57162Y82045D01*
X57042Y82165D01*
X57031Y82170D01*
Y82737D01*
X57042Y82741D01*
X57162Y82861D01*
X57227Y83018D01*
Y83188D01*
X57162Y83345D01*
X57042Y83465D01*
X57031Y83470D01*
Y83934D01*
X57042Y83938D01*
X57162Y84058D01*
X57227Y84215D01*
Y84385D01*
X57162Y84542D01*
X57042Y84662D01*
X56885Y84727D01*
X56715D01*
X56558Y84662D01*
X56438Y84542D01*
X56373Y84385D01*
Y84215D01*
X56438Y84058D01*
X56558Y83938D01*
X56569Y83934D01*
Y83470D01*
X56558Y83465D01*
X56438Y83345D01*
X56373Y83188D01*
Y83018D01*
X56438Y82861D01*
X56558Y82741D01*
X56569Y82737D01*
Y82170D01*
X56558Y82165D01*
X56438Y82045D01*
X56373Y81888D01*
Y81718D01*
X56438Y81561D01*
X56558Y81441D01*
X56569Y81437D01*
Y80866D01*
X56558Y80862D01*
X56438Y80742D01*
X56373Y80585D01*
Y80415D01*
X56438Y80258D01*
X56558Y80138D01*
X56569Y80134D01*
Y79559D01*
X56492Y79508D01*
X53992Y77008D01*
X53898Y76867D01*
X53865Y76700D01*
Y67180D01*
X51092Y64408D01*
X50654Y63970D01*
X50527Y64022D01*
Y64085D01*
X50462Y64242D01*
X50342Y64362D01*
X50185Y64427D01*
X50015D01*
X49858Y64362D01*
X49738Y64242D01*
X49673Y64085D01*
Y63915D01*
X49738Y63758D01*
X49858Y63638D01*
X50015Y63573D01*
X50078D01*
X50130Y63446D01*
X49420Y62735D01*
X45580D01*
X44133Y64182D01*
Y64300D01*
X44133Y64300D01*
X44108Y64490D01*
X44035Y64667D01*
X43918Y64818D01*
X34033Y74704D01*
Y76763D01*
X34300D01*
X34397Y76803D01*
X34437Y76900D01*
Y78300D01*
X34397Y78397D01*
X34300Y78437D01*
X32831D01*
Y81007D01*
X32814Y81096D01*
X32764Y81171D01*
X32656Y81278D01*
X32705Y81396D01*
X33517D01*
X33798Y81115D01*
Y81040D01*
X33863Y80883D01*
X33983Y80763D01*
X34140Y80698D01*
X34310D01*
X34467Y80763D01*
X34587Y80883D01*
X34652Y81040D01*
Y81131D01*
X34681Y81219D01*
X34769Y81248D01*
X34860D01*
X35017Y81313D01*
X35137Y81433D01*
X35202Y81590D01*
Y81760D01*
X35137Y81917D01*
X35017Y82037D01*
X34860Y82102D01*
X34690D01*
X34533Y82037D01*
X34413Y81917D01*
X34348Y81760D01*
Y81669D01*
X34319Y81581D01*
X34231Y81552D01*
X34140D01*
X34055Y81517D01*
X33779Y81793D01*
X33703Y81844D01*
X33614Y81862D01*
X26126D01*
X25854Y82134D01*
Y82285D01*
X25789Y82442D01*
X25669Y82562D01*
X25512Y82627D01*
X25342D01*
X25185Y82562D01*
X25065Y82442D01*
X25000Y82285D01*
Y82115D01*
X25065Y81958D01*
X25185Y81838D01*
X25342Y81773D01*
X25512D01*
X25543Y81786D01*
X25680Y81649D01*
X25631Y81531D01*
X25266D01*
X25262Y81542D01*
X25142Y81662D01*
X24985Y81727D01*
X24815D01*
X24658Y81662D01*
X24537Y81721D01*
Y81900D01*
X24497Y81997D01*
X24400Y82037D01*
X24215D01*
X24171Y82056D01*
X24130D01*
X24077Y82183D01*
X24197Y82303D01*
X24197Y82303D01*
X24237Y82400D01*
X24237Y82400D01*
Y83400D01*
X24197Y83497D01*
X24100Y83537D01*
X23157D01*
X22401Y84294D01*
X22396Y84296D01*
X22296Y84396D01*
X22294Y84401D01*
X21737Y84957D01*
Y88200D01*
X21737Y88200D01*
X21697Y88297D01*
X21697Y88297D01*
X21497Y88497D01*
X21497Y88497D01*
X21400Y88537D01*
X21400Y88537D01*
X20701D01*
X20656Y88519D01*
X20636Y88569D01*
X20516Y88689D01*
X20359Y88754D01*
X20189D01*
X20032Y88689D01*
X19981Y88795D01*
X19962Y88842D01*
X19842Y88962D01*
X19685Y89027D01*
D02*
G37*
G36*
X-39215Y88927D02*
X-39385D01*
X-39542Y88862D01*
X-39662Y88742D01*
X-39727Y88585D01*
Y88415D01*
X-39662Y88258D01*
X-39542Y88138D01*
X-39385Y88073D01*
X-39215D01*
X-39058Y88138D01*
X-38938Y88258D01*
X-38873Y88415D01*
Y88585D01*
X-38938Y88742D01*
X-39058Y88862D01*
X-39215Y88927D01*
D02*
G37*
G36*
X58197Y92000D02*
X57803D01*
X57417Y91923D01*
X57053Y91772D01*
X56725Y91553D01*
X56446Y91275D01*
X56228Y90947D01*
X56077Y90583D01*
X56000Y90197D01*
Y89803D01*
X56077Y89417D01*
X56228Y89053D01*
X56446Y88725D01*
X56725Y88447D01*
X57053Y88228D01*
X57417Y88077D01*
X57803Y88000D01*
X58197D01*
X58583Y88077D01*
X58947Y88228D01*
X59275Y88447D01*
X59554Y88725D01*
X59772Y89053D01*
X59923Y89417D01*
X60000Y89803D01*
Y90197D01*
X59923Y90583D01*
X59772Y90947D01*
X59554Y91275D01*
X59275Y91553D01*
X58947Y91772D01*
X58583Y91923D01*
X58197Y92000D01*
D02*
G37*
G36*
X-57803D02*
X-58197D01*
X-58583Y91923D01*
X-58947Y91772D01*
X-59275Y91553D01*
X-59554Y91275D01*
X-59772Y90947D01*
X-59923Y90583D01*
X-60000Y90197D01*
Y89803D01*
X-59923Y89417D01*
X-59772Y89053D01*
X-59554Y88725D01*
X-59275Y88447D01*
X-58947Y88228D01*
X-58583Y88077D01*
X-58197Y88000D01*
X-57803D01*
X-57417Y88077D01*
X-57053Y88228D01*
X-56725Y88447D01*
X-56446Y88725D01*
X-56228Y89053D01*
X-56077Y89417D01*
X-56000Y89803D01*
Y90197D01*
X-56077Y90583D01*
X-56228Y90947D01*
X-56446Y91275D01*
X-56725Y91553D01*
X-57053Y91772D01*
X-57417Y91923D01*
X-57803Y92000D01*
D02*
G37*
G36*
X16475Y88534D02*
X16125D01*
X15978Y88505D01*
X15853Y88422D01*
X15770Y88297D01*
X15741Y88150D01*
X15770Y88003D01*
X15853Y87878D01*
X15978Y87795D01*
X16125Y87766D01*
X16475D01*
X16622Y87795D01*
X16747Y87878D01*
X16830Y88003D01*
X16859Y88150D01*
X16830Y88297D01*
X16747Y88422D01*
X16622Y88505D01*
X16475Y88534D01*
D02*
G37*
G36*
X3325D02*
X2975D01*
X2828Y88505D01*
X2703Y88422D01*
X2620Y88297D01*
X2591Y88150D01*
X2620Y88003D01*
X2703Y87878D01*
X2828Y87795D01*
X2975Y87766D01*
X3325D01*
X3472Y87795D01*
X3597Y87878D01*
X3680Y88003D01*
X3709Y88150D01*
X3680Y88297D01*
X3597Y88422D01*
X3472Y88505D01*
X3325Y88534D01*
D02*
G37*
G36*
X23585Y88577D02*
X23415D01*
X23258Y88512D01*
X23138Y88392D01*
X23073Y88235D01*
Y88065D01*
X23138Y87908D01*
X23258Y87788D01*
X23415Y87723D01*
X23585D01*
X23742Y87788D01*
X23862Y87908D01*
X23927Y88065D01*
Y88235D01*
X23862Y88392D01*
X23742Y88512D01*
X23585Y88577D01*
D02*
G37*
G36*
X10435D02*
X10265D01*
X10108Y88512D01*
X9988Y88392D01*
X9923Y88235D01*
Y88065D01*
X9988Y87908D01*
X10108Y87788D01*
X10265Y87723D01*
X10435D01*
X10592Y87788D01*
X10712Y87908D01*
X10777Y88065D01*
Y88235D01*
X10712Y88392D01*
X10592Y88512D01*
X10435Y88577D01*
D02*
G37*
G36*
X31069Y89149D02*
X30899D01*
X30742Y89084D01*
X30622Y88964D01*
X30557Y88807D01*
Y88637D01*
X30622Y88480D01*
X30742Y88360D01*
X30899Y88295D01*
X31069D01*
X31123Y88318D01*
X31150Y88296D01*
X31208Y88215D01*
X31154Y88085D01*
Y87915D01*
X31219Y87758D01*
X31339Y87638D01*
X31496Y87573D01*
X31666D01*
X31822Y87638D01*
X31943Y87758D01*
X32008Y87915D01*
Y88085D01*
X31943Y88242D01*
X31822Y88362D01*
X31666Y88427D01*
X31496D01*
X31441Y88404D01*
X31414Y88426D01*
X31357Y88507D01*
X31411Y88637D01*
Y88807D01*
X31346Y88964D01*
X31226Y89084D01*
X31069Y89149D01*
D02*
G37*
G36*
X38185Y88454D02*
X38015D01*
X37858Y88389D01*
X37738Y88269D01*
X37673Y88112D01*
Y87942D01*
X37696Y87887D01*
X37684Y87761D01*
X37630Y87738D01*
X37527Y87695D01*
X37406Y87575D01*
X37341Y87418D01*
Y87248D01*
X37406Y87091D01*
X37527Y86971D01*
X37683Y86906D01*
X37853D01*
X38010Y86971D01*
X38130Y87091D01*
X38195Y87248D01*
Y87418D01*
X38173Y87473D01*
X38185Y87599D01*
X38238Y87622D01*
X38342Y87665D01*
X38462Y87785D01*
X38527Y87942D01*
Y88112D01*
X38462Y88269D01*
X38342Y88389D01*
X38185Y88454D01*
D02*
G37*
G36*
X30105Y87132D02*
X29935D01*
X29778Y87067D01*
X29658Y86947D01*
X29593Y86790D01*
Y86620D01*
X29658Y86463D01*
X29778Y86343D01*
X29935Y86278D01*
X30105D01*
X30262Y86343D01*
X30382Y86463D01*
X30447Y86620D01*
Y86790D01*
X30382Y86947D01*
X30262Y87067D01*
X30105Y87132D01*
D02*
G37*
G36*
X-39215Y86827D02*
X-39385D01*
X-39542Y86762D01*
X-39662Y86642D01*
X-39727Y86485D01*
Y86315D01*
X-39662Y86158D01*
X-39542Y86038D01*
X-39385Y85973D01*
X-39215D01*
X-39058Y86038D01*
X-38938Y86158D01*
X-38873Y86315D01*
Y86485D01*
X-38938Y86642D01*
X-39058Y86762D01*
X-39215Y86827D01*
D02*
G37*
G36*
X52585Y87127D02*
X52415D01*
X52258Y87062D01*
X52138Y86942D01*
X52073Y86785D01*
Y86615D01*
X52138Y86458D01*
X52202Y86395D01*
X51739Y85932D01*
X51622Y85980D01*
Y86288D01*
X51742Y86338D01*
X51862Y86458D01*
X51927Y86615D01*
Y86785D01*
X51862Y86942D01*
X51742Y87062D01*
X51585Y87127D01*
X51415D01*
X51258Y87062D01*
X51138Y86942D01*
X51073Y86785D01*
Y86615D01*
X51138Y86458D01*
X51207Y86389D01*
Y85795D01*
X48419Y83007D01*
X36800D01*
X36721Y82991D01*
X36653Y82947D01*
X36653Y82946D01*
X36323Y82616D01*
X36235Y82652D01*
X36065D01*
X35908Y82587D01*
X35879Y82558D01*
X35817Y82571D01*
X35745Y82603D01*
X35687Y82742D01*
X35567Y82862D01*
X35410Y82927D01*
X35240D01*
X35083Y82862D01*
X34963Y82742D01*
X34898Y82585D01*
Y82415D01*
X34963Y82258D01*
X35083Y82138D01*
X35240Y82073D01*
X35410D01*
X35567Y82138D01*
X35596Y82167D01*
X35658Y82154D01*
X35730Y82122D01*
X35788Y81983D01*
X35908Y81863D01*
X36065Y81798D01*
X36235D01*
X36392Y81863D01*
X36486Y81957D01*
X36562Y81973D01*
X36639Y81957D01*
X36733Y81863D01*
X36890Y81798D01*
X37060D01*
X37217Y81863D01*
X37337Y81983D01*
X37402Y82140D01*
Y82238D01*
X37457Y82293D01*
X48600D01*
X48600Y82293D01*
X48679Y82309D01*
X48746Y82354D01*
X52561Y86168D01*
X52561Y86168D01*
X52606Y86235D01*
X52616Y86286D01*
X52742Y86338D01*
X52862Y86458D01*
X52927Y86615D01*
Y86785D01*
X52862Y86942D01*
X52742Y87062D01*
X52585Y87127D01*
D02*
G37*
G36*
X43935Y86777D02*
X43765D01*
X43608Y86712D01*
X43488Y86592D01*
X43423Y86435D01*
Y86265D01*
X43488Y86108D01*
X43608Y85988D01*
X43765Y85923D01*
X43935D01*
X44092Y85988D01*
X44212Y86108D01*
X44277Y86265D01*
Y86435D01*
X44212Y86592D01*
X44092Y86712D01*
X43935Y86777D01*
D02*
G37*
G36*
X-24515Y86627D02*
X-24685D01*
X-24842Y86562D01*
X-24962Y86442D01*
X-25027Y86285D01*
Y86115D01*
X-24962Y85958D01*
X-24842Y85838D01*
X-24685Y85773D01*
X-24515D01*
X-24358Y85838D01*
X-24238Y85958D01*
X-24173Y86115D01*
Y86285D01*
X-24238Y86442D01*
X-24358Y86562D01*
X-24515Y86627D01*
D02*
G37*
G36*
X35410Y88152D02*
X35240D01*
X35083Y88087D01*
X34963Y87967D01*
X34898Y87810D01*
Y87640D01*
X34963Y87483D01*
X35050Y87396D01*
X35056Y87290D01*
X35040Y87244D01*
X34938Y87142D01*
X34873Y86985D01*
Y86815D01*
X34938Y86658D01*
X35040Y86556D01*
X35056Y86510D01*
X35050Y86404D01*
X34963Y86317D01*
X34898Y86160D01*
Y85990D01*
X34963Y85833D01*
X35057Y85739D01*
X35073Y85662D01*
X35057Y85586D01*
X34963Y85492D01*
X34959Y85483D01*
X30147D01*
X28565Y87065D01*
X28489Y87115D01*
X28400Y87133D01*
X26800D01*
X26711Y87115D01*
X26635Y87065D01*
X25994Y86423D01*
X25985Y86427D01*
X25815D01*
X25658Y86362D01*
X25538Y86242D01*
X25473Y86085D01*
Y85915D01*
X25538Y85758D01*
X25658Y85638D01*
X25815Y85573D01*
X25985D01*
X26142Y85638D01*
X26262Y85758D01*
X26327Y85915D01*
Y86085D01*
X26323Y86094D01*
X26897Y86667D01*
X28303D01*
X29885Y85085D01*
X29961Y85035D01*
X30050Y85017D01*
X34959D01*
X34963Y85008D01*
X35083Y84888D01*
X35240Y84823D01*
X35410D01*
X35567Y84888D01*
X35687Y85008D01*
X35752Y85165D01*
Y85335D01*
X35687Y85492D01*
X35593Y85586D01*
X35577Y85662D01*
X35593Y85739D01*
X35687Y85833D01*
X35752Y85990D01*
Y86160D01*
X35687Y86317D01*
X35585Y86419D01*
X35569Y86465D01*
X35575Y86571D01*
X35654Y86650D01*
X35725Y86654D01*
X35796Y86650D01*
X35908Y86538D01*
X36065Y86473D01*
X36235D01*
X36392Y86538D01*
X36469Y86615D01*
X36594Y86561D01*
Y86442D01*
X36659Y86285D01*
X36780Y86165D01*
X36937Y86100D01*
X37106D01*
X37263Y86165D01*
X37383Y86285D01*
X37448Y86442D01*
Y86612D01*
X37383Y86769D01*
X37263Y86889D01*
X37106Y86954D01*
X36937D01*
X36780Y86889D01*
X36703Y86812D01*
X36577Y86866D01*
Y86985D01*
X36512Y87142D01*
X36392Y87262D01*
X36235Y87327D01*
X36065D01*
X35908Y87262D01*
X35796Y87150D01*
X35725Y87146D01*
X35654Y87150D01*
X35575Y87229D01*
X35569Y87335D01*
X35585Y87381D01*
X35687Y87483D01*
X35752Y87640D01*
Y87810D01*
X35687Y87967D01*
X35567Y88087D01*
X35410Y88152D01*
D02*
G37*
G36*
X24220Y87433D02*
X24217Y87433D01*
X23720D01*
X23543Y87410D01*
X23379Y87341D01*
X23237Y87233D01*
X23129Y87091D01*
X23060Y86927D01*
X23037Y86750D01*
X23060Y86573D01*
X23129Y86409D01*
X23237Y86267D01*
X23379Y86159D01*
X23487Y86114D01*
Y85600D01*
X23512Y85410D01*
X23585Y85233D01*
X23701Y85081D01*
X23853Y84965D01*
X24030Y84892D01*
X24220Y84867D01*
X24410Y84892D01*
X24587Y84965D01*
X24739Y85081D01*
X24855Y85233D01*
X24928Y85410D01*
X24953Y85600D01*
Y86700D01*
X24950Y86727D01*
X24953Y86750D01*
X24930Y86927D01*
X24861Y87091D01*
X24753Y87233D01*
X24611Y87341D01*
X24447Y87410D01*
X24270Y87433D01*
X24223D01*
X24220Y87433D01*
D02*
G37*
G36*
X15580D02*
X15577Y87433D01*
X15530D01*
X15353Y87410D01*
X15189Y87341D01*
X15047Y87233D01*
X14939Y87091D01*
X14870Y86927D01*
X14847Y86750D01*
X14850Y86727D01*
X14847Y86700D01*
Y85600D01*
X14872Y85410D01*
X14945Y85233D01*
X15061Y85081D01*
X15213Y84965D01*
X15390Y84892D01*
X15580Y84867D01*
X15770Y84892D01*
X15947Y84965D01*
X16098Y85081D01*
X16215Y85233D01*
X16288Y85410D01*
X16313Y85600D01*
Y86114D01*
X16421Y86159D01*
X16563Y86267D01*
X16671Y86409D01*
X16740Y86573D01*
X16763Y86750D01*
X16740Y86927D01*
X16671Y87091D01*
X16563Y87233D01*
X16421Y87341D01*
X16257Y87410D01*
X16080Y87433D01*
X15583D01*
X15580Y87433D01*
D02*
G37*
G36*
X11070D02*
X11067Y87433D01*
X10570D01*
X10393Y87410D01*
X10229Y87341D01*
X10087Y87233D01*
X9979Y87091D01*
X9910Y86927D01*
X9887Y86750D01*
X9910Y86573D01*
X9979Y86409D01*
X10087Y86267D01*
X10229Y86159D01*
X10337Y86114D01*
Y85600D01*
X10362Y85410D01*
X10435Y85233D01*
X10552Y85081D01*
X10703Y84965D01*
X10880Y84892D01*
X11070Y84867D01*
X11260Y84892D01*
X11437Y84965D01*
X11589Y85081D01*
X11705Y85233D01*
X11778Y85410D01*
X11803Y85600D01*
Y86700D01*
X11800Y86727D01*
X11803Y86750D01*
X11780Y86927D01*
X11711Y87091D01*
X11603Y87233D01*
X11461Y87341D01*
X11297Y87410D01*
X11120Y87433D01*
X11073D01*
X11070Y87433D01*
D02*
G37*
G36*
X2430D02*
X2427Y87433D01*
X2380D01*
X2203Y87410D01*
X2039Y87341D01*
X1897Y87233D01*
X1789Y87091D01*
X1720Y86927D01*
X1697Y86750D01*
X1700Y86727D01*
X1697Y86700D01*
Y85600D01*
X1722Y85410D01*
X1795Y85233D01*
X1911Y85081D01*
X2063Y84965D01*
X2240Y84892D01*
X2430Y84867D01*
X2620Y84892D01*
X2797Y84965D01*
X2949Y85081D01*
X3065Y85233D01*
X3138Y85410D01*
X3163Y85600D01*
Y86114D01*
X3271Y86159D01*
X3413Y86267D01*
X3521Y86409D01*
X3590Y86573D01*
X3613Y86750D01*
X3590Y86927D01*
X3521Y87091D01*
X3413Y87233D01*
X3271Y87341D01*
X3107Y87410D01*
X2930Y87433D01*
X2433D01*
X2430Y87433D01*
D02*
G37*
G36*
X43935Y85677D02*
X43765D01*
X43608Y85612D01*
X43488Y85492D01*
X43423Y85335D01*
Y85165D01*
X43488Y85008D01*
X43608Y84888D01*
X43765Y84823D01*
X43935D01*
X44092Y84888D01*
X44212Y85008D01*
X44277Y85165D01*
Y85335D01*
X44212Y85492D01*
X44092Y85612D01*
X43935Y85677D01*
D02*
G37*
G36*
X38160D02*
X37990D01*
X37833Y85612D01*
X37713Y85492D01*
X37648Y85335D01*
Y85165D01*
X37713Y85008D01*
X37833Y84888D01*
X37990Y84823D01*
X38160D01*
X38317Y84888D01*
X38437Y85008D01*
X38502Y85165D01*
Y85335D01*
X38437Y85492D01*
X38317Y85612D01*
X38160Y85677D01*
D02*
G37*
G36*
X55985Y85527D02*
X55815D01*
X55658Y85462D01*
X55538Y85342D01*
X55473Y85185D01*
Y85015D01*
X55538Y84858D01*
X55658Y84738D01*
X55815Y84673D01*
X55985D01*
X56142Y84738D01*
X56262Y84858D01*
X56327Y85015D01*
Y85185D01*
X56262Y85342D01*
X56142Y85462D01*
X55985Y85527D01*
D02*
G37*
G36*
X13985Y85427D02*
X13815D01*
X13658Y85362D01*
X13538Y85242D01*
X13473Y85085D01*
Y84915D01*
X13538Y84758D01*
X13658Y84638D01*
X13815Y84573D01*
X13985D01*
X14142Y84638D01*
X14262Y84758D01*
X14327Y84915D01*
Y85085D01*
X14262Y85242D01*
X14142Y85362D01*
X13985Y85427D01*
D02*
G37*
G36*
X-3315Y84927D02*
X-3485D01*
X-3642Y84862D01*
X-3762Y84742D01*
X-3827Y84585D01*
Y84415D01*
X-3762Y84258D01*
X-3642Y84138D01*
X-3485Y84073D01*
X-3315D01*
X-3158Y84138D01*
X-3038Y84258D01*
X-2973Y84415D01*
Y84585D01*
X-3038Y84742D01*
X-3158Y84862D01*
X-3315Y84927D01*
D02*
G37*
G36*
X52585Y84827D02*
X52415D01*
X52258Y84762D01*
X52138Y84642D01*
X52073Y84485D01*
Y84315D01*
X52138Y84158D01*
X52258Y84038D01*
X52415Y83973D01*
X52585D01*
X52742Y84038D01*
X52862Y84158D01*
X52927Y84315D01*
Y84485D01*
X52862Y84642D01*
X52742Y84762D01*
X52585Y84827D01*
D02*
G37*
G36*
X-5315D02*
X-5485D01*
X-5642Y84762D01*
X-5762Y84642D01*
X-5827Y84485D01*
Y84315D01*
X-5762Y84158D01*
X-5642Y84038D01*
X-5485Y83973D01*
X-5315D01*
X-5158Y84038D01*
X-5038Y84158D01*
X-4973Y84315D01*
Y84485D01*
X-5038Y84642D01*
X-5158Y84762D01*
X-5315Y84827D01*
D02*
G37*
G36*
X-23315Y84527D02*
X-23485D01*
X-23642Y84462D01*
X-23762Y84342D01*
X-23827Y84185D01*
Y84015D01*
X-23762Y83858D01*
X-23642Y83738D01*
X-23485Y83673D01*
X-23315D01*
X-23158Y83738D01*
X-23038Y83858D01*
X-22973Y84015D01*
Y84185D01*
X-23038Y84342D01*
X-23158Y84462D01*
X-23315Y84527D01*
D02*
G37*
G36*
X55985Y84125D02*
X55815D01*
X55658Y84060D01*
X55538Y83940D01*
X55473Y83783D01*
Y83613D01*
X55538Y83456D01*
X55658Y83336D01*
X55815Y83271D01*
X55985D01*
X56142Y83336D01*
X56262Y83456D01*
X56327Y83613D01*
Y83783D01*
X56262Y83940D01*
X56142Y84060D01*
X55985Y84125D01*
D02*
G37*
G36*
X35410Y84027D02*
X35240D01*
X35083Y83962D01*
X34963Y83842D01*
X34935Y83775D01*
X34543D01*
X34455Y83757D01*
X34380Y83707D01*
X33404Y82731D01*
X28566D01*
X28562Y82742D01*
X28442Y82862D01*
X28285Y82927D01*
X28115D01*
X27958Y82862D01*
X27838Y82742D01*
X27773Y82585D01*
Y82415D01*
X27838Y82258D01*
X27958Y82138D01*
X28115Y82073D01*
X28285D01*
X28442Y82138D01*
X28562Y82258D01*
X28566Y82269D01*
X33500D01*
X33589Y82286D01*
X33664Y82336D01*
X34639Y83312D01*
X35009D01*
X35083Y83238D01*
X35240Y83173D01*
X35410D01*
X35567Y83238D01*
X35687Y83358D01*
X35752Y83515D01*
Y83685D01*
X35687Y83842D01*
X35567Y83962D01*
X35410Y84027D01*
D02*
G37*
G36*
X27387Y86249D02*
X27217D01*
X27060Y86184D01*
X26940Y86064D01*
X26875Y85907D01*
Y85737D01*
X26940Y85580D01*
X27060Y85460D01*
X27217Y85395D01*
X27310D01*
X27341Y85349D01*
Y85179D01*
X27406Y85022D01*
X27526Y84902D01*
X27674Y84840D01*
X27783Y84772D01*
Y84602D01*
X27848Y84445D01*
X27968Y84325D01*
X28125Y84260D01*
X28206D01*
X28300Y84240D01*
X28323Y84143D01*
Y84065D01*
X28388Y83908D01*
X28508Y83788D01*
X28665Y83723D01*
X28756D01*
X28844Y83694D01*
X28873Y83606D01*
Y83515D01*
X28938Y83358D01*
X29058Y83238D01*
X29215Y83173D01*
X29385D01*
X29542Y83238D01*
X29662Y83358D01*
X29727Y83515D01*
Y83685D01*
X29662Y83842D01*
X29542Y83962D01*
X29385Y84027D01*
X29294D01*
X29206Y84056D01*
X29177Y84144D01*
Y84235D01*
X29112Y84392D01*
X28992Y84512D01*
X28835Y84577D01*
X28754D01*
X28660Y84597D01*
X28637Y84694D01*
Y84772D01*
X28572Y84929D01*
X28452Y85049D01*
X28304Y85110D01*
X28195Y85179D01*
Y85349D01*
X28130Y85506D01*
X28009Y85626D01*
X27852Y85691D01*
X27760D01*
X27729Y85737D01*
Y85907D01*
X27664Y86064D01*
X27544Y86184D01*
X27387Y86249D01*
D02*
G37*
G36*
X27885Y83827D02*
X27715D01*
X27558Y83762D01*
X27438Y83642D01*
X27373Y83485D01*
Y83315D01*
X27438Y83158D01*
X27558Y83038D01*
X27715Y82973D01*
X27885D01*
X28042Y83038D01*
X28162Y83158D01*
X28227Y83315D01*
Y83485D01*
X28162Y83642D01*
X28042Y83762D01*
X27885Y83827D01*
D02*
G37*
G36*
X52585Y83527D02*
X52415D01*
X52258Y83462D01*
X52138Y83342D01*
X52073Y83185D01*
Y83015D01*
X52138Y82858D01*
X52258Y82738D01*
X52415Y82673D01*
X52585D01*
X52742Y82738D01*
X52862Y82858D01*
X52927Y83015D01*
Y83185D01*
X52862Y83342D01*
X52742Y83462D01*
X52585Y83527D01*
D02*
G37*
G36*
X6712Y89002D02*
X6542D01*
X6385Y88937D01*
X6265Y88817D01*
X6200Y88660D01*
Y88637D01*
X5200D01*
X5103Y88597D01*
X5103Y88597D01*
X4903Y88397D01*
X4863Y88300D01*
X4863Y88300D01*
Y84300D01*
X4903Y84203D01*
X4903Y84203D01*
X5103Y84003D01*
X5200Y83963D01*
X5200Y83963D01*
X6747Y83963D01*
X6760Y83968D01*
X6774Y83965D01*
X6807Y83987D01*
X6844Y84003D01*
X6967Y84019D01*
X7003Y83983D01*
X7160Y83918D01*
X7330D01*
X7487Y83983D01*
X7523Y84019D01*
X7646Y84003D01*
X7683Y83987D01*
X7716Y83965D01*
X7730Y83968D01*
X7743Y83963D01*
X7843D01*
X9603Y82203D01*
X9700Y82163D01*
X9700Y82163D01*
X10800D01*
X10800Y82163D01*
X10897Y82203D01*
X11297Y82603D01*
X11337Y82700D01*
X11337Y82700D01*
Y83600D01*
X11297Y83697D01*
X11200Y83737D01*
X10057Y83737D01*
X8637Y85157D01*
Y88300D01*
X8597Y88397D01*
X8597Y88397D01*
X8397Y88597D01*
X8300Y88637D01*
X8300Y88637D01*
X7794D01*
X7781Y88632D01*
X7767Y88635D01*
X7733Y88613D01*
X7696Y88597D01*
X7574Y88630D01*
X7542Y88662D01*
X7385Y88727D01*
X7215D01*
X7058Y88662D01*
X7009Y88769D01*
X6989Y88817D01*
X6869Y88937D01*
X6712Y89002D01*
D02*
G37*
G36*
X55985Y82825D02*
X55815D01*
X55658Y82760D01*
X55538Y82640D01*
X55473Y82483D01*
Y82313D01*
X55538Y82156D01*
X55658Y82036D01*
X55815Y81971D01*
X55985D01*
X56142Y82036D01*
X56262Y82156D01*
X56327Y82313D01*
Y82483D01*
X56262Y82640D01*
X56142Y82760D01*
X55985Y82825D01*
D02*
G37*
G36*
X52585Y82227D02*
X52415D01*
X52258Y82162D01*
X52138Y82042D01*
X52134Y82031D01*
X47550D01*
X47461Y82014D01*
X47386Y81964D01*
X42844Y77422D01*
X41639D01*
X41635Y77432D01*
X41515Y77552D01*
X41358Y77617D01*
X41188D01*
X41031Y77552D01*
X40911Y77432D01*
X40846Y77275D01*
Y77105D01*
X40911Y76948D01*
X41031Y76828D01*
X41188Y76763D01*
X41358D01*
X41515Y76828D01*
X41635Y76948D01*
X41639Y76959D01*
X42940D01*
X43029Y76976D01*
X43104Y77026D01*
X47646Y81569D01*
X52134D01*
X52138Y81558D01*
X52258Y81438D01*
X52415Y81373D01*
X52585D01*
X52742Y81438D01*
X52862Y81558D01*
X52927Y81715D01*
Y81885D01*
X52862Y82042D01*
X52742Y82162D01*
X52585Y82227D01*
D02*
G37*
G36*
X39260Y82102D02*
X39090D01*
X38933Y82037D01*
X38813Y81917D01*
X38748Y81760D01*
Y81669D01*
X38719Y81581D01*
X38631Y81552D01*
X38540D01*
X38383Y81487D01*
X38263Y81367D01*
X38198Y81210D01*
Y81040D01*
X38263Y80883D01*
X38383Y80763D01*
X38540Y80698D01*
X38710D01*
X38867Y80763D01*
X38987Y80883D01*
X39052Y81040D01*
Y81131D01*
X39081Y81219D01*
X39169Y81248D01*
X39260D01*
X39417Y81313D01*
X39537Y81433D01*
X39602Y81590D01*
Y81760D01*
X39537Y81917D01*
X39417Y82037D01*
X39260Y82102D01*
D02*
G37*
G36*
X55985Y81425D02*
X55815D01*
X55658Y81360D01*
X55538Y81240D01*
X55473Y81083D01*
Y80913D01*
X55538Y80756D01*
X55658Y80636D01*
X55815Y80571D01*
X55985D01*
X56142Y80636D01*
X56262Y80756D01*
X56327Y80913D01*
Y81083D01*
X56262Y81240D01*
X56142Y81360D01*
X55985Y81425D01*
D02*
G37*
G36*
X52585Y80727D02*
X52415D01*
X52258Y80662D01*
X52138Y80542D01*
X52134Y80531D01*
X49400D01*
X49311Y80514D01*
X49236Y80464D01*
X43895Y75123D01*
X43885Y75127D01*
X43715D01*
X43558Y75062D01*
X43438Y74942D01*
X43434Y74931D01*
X40215D01*
X40162Y75058D01*
X40227Y75215D01*
Y75385D01*
X40162Y75542D01*
X40042Y75662D01*
X39885Y75727D01*
X39715D01*
X39558Y75662D01*
X39438Y75542D01*
X39434Y75531D01*
X35266D01*
X35262Y75542D01*
X35142Y75662D01*
X35095Y75682D01*
Y75819D01*
X35142Y75839D01*
X35262Y75959D01*
X35266Y75969D01*
X43534D01*
X43538Y75958D01*
X43658Y75838D01*
X43815Y75773D01*
X43985D01*
X44142Y75838D01*
X44262Y75958D01*
X44327Y76115D01*
Y76285D01*
X44262Y76442D01*
X44142Y76562D01*
X43985Y76627D01*
X43815D01*
X43658Y76562D01*
X43538Y76442D01*
X43534Y76432D01*
X35266D01*
X35262Y76442D01*
X35142Y76562D01*
X34985Y76628D01*
X34815D01*
X34658Y76562D01*
X34538Y76442D01*
X34473Y76285D01*
Y76116D01*
X34538Y75959D01*
X34658Y75839D01*
X34705Y75819D01*
Y75682D01*
X34658Y75662D01*
X34538Y75542D01*
X34473Y75385D01*
Y75215D01*
X34538Y75058D01*
X34658Y74938D01*
X34815Y74873D01*
X34985D01*
X35142Y74938D01*
X35262Y75058D01*
X35266Y75069D01*
X36882D01*
X36935Y74942D01*
X36870Y74785D01*
Y74615D01*
X36935Y74458D01*
X37055Y74338D01*
X37125Y74309D01*
X37155Y74159D01*
X37138Y74142D01*
X37073Y73985D01*
Y73910D01*
X36946Y73858D01*
X36942Y73862D01*
X36785Y73927D01*
X36615D01*
X36458Y73862D01*
X36338Y73742D01*
X36273Y73585D01*
Y73415D01*
X36338Y73258D01*
X36458Y73138D01*
X36615Y73073D01*
X36785D01*
X36942Y73138D01*
X37062Y73258D01*
X37127Y73415D01*
Y73490D01*
X37254Y73542D01*
X37258Y73538D01*
X37415Y73473D01*
X37585D01*
X37742Y73538D01*
X37862Y73658D01*
X37866Y73669D01*
X39677D01*
X39703Y73542D01*
X39685Y73534D01*
X39565Y73414D01*
X39500Y73257D01*
Y73087D01*
X39565Y72930D01*
X39685Y72810D01*
X39842Y72745D01*
X40012D01*
X40169Y72810D01*
X40289Y72930D01*
X40354Y73087D01*
Y73257D01*
X40289Y73414D01*
X40169Y73534D01*
X40151Y73542D01*
X40177Y73669D01*
X41299D01*
X41316Y73638D01*
X41338Y73542D01*
X41238Y73442D01*
X41173Y73285D01*
Y73115D01*
X41238Y72958D01*
X41358Y72838D01*
X41515Y72773D01*
X41685D01*
X41842Y72838D01*
X41962Y72958D01*
X42027Y73115D01*
Y73285D01*
X41989Y73377D01*
X42086Y73474D01*
X42088Y73473D01*
X42258D01*
X42415Y73538D01*
X42535Y73658D01*
X42600Y73815D01*
Y73985D01*
X42535Y74142D01*
X42415Y74262D01*
X42258Y74327D01*
X42088D01*
X41931Y74262D01*
X41811Y74142D01*
X41807Y74131D01*
X37866D01*
X37862Y74142D01*
X37742Y74262D01*
X37715Y74409D01*
X37764Y74469D01*
X43434D01*
X43438Y74458D01*
X43558Y74338D01*
X43715Y74273D01*
X43885D01*
X44042Y74338D01*
X44162Y74458D01*
X44227Y74615D01*
Y74785D01*
X44223Y74795D01*
X49496Y80069D01*
X52134D01*
X52138Y80058D01*
X52258Y79938D01*
X52415Y79873D01*
X52585D01*
X52742Y79938D01*
X52862Y80058D01*
X52927Y80215D01*
Y80385D01*
X52862Y80542D01*
X52742Y80662D01*
X52585Y80727D01*
D02*
G37*
G36*
X285Y79927D02*
X115D01*
X-42Y79862D01*
X-162Y79742D01*
X-227Y79585D01*
Y79415D01*
X-162Y79258D01*
X-42Y79138D01*
X115Y79073D01*
X285D01*
X442Y79138D01*
X562Y79258D01*
X627Y79415D01*
Y79585D01*
X562Y79742D01*
X442Y79862D01*
X285Y79927D01*
D02*
G37*
G36*
X37885Y78252D02*
X37715D01*
X37558Y78187D01*
X37438Y78067D01*
X37373Y77910D01*
Y77740D01*
X37438Y77583D01*
X37558Y77463D01*
X37715Y77398D01*
X37885D01*
X38042Y77463D01*
X38162Y77583D01*
X38227Y77740D01*
Y77910D01*
X38162Y78067D01*
X38042Y78187D01*
X37885Y78252D01*
D02*
G37*
G36*
X35685D02*
X35515D01*
X35358Y78187D01*
X35238Y78067D01*
X35173Y77910D01*
Y77740D01*
X35238Y77583D01*
X35358Y77463D01*
X35515Y77398D01*
X35685D01*
X35842Y77463D01*
X35962Y77583D01*
X36027Y77740D01*
Y77910D01*
X35962Y78067D01*
X35842Y78187D01*
X35685Y78252D01*
D02*
G37*
G36*
X-24410Y78390D02*
X-26389D01*
Y76410D01*
X-24410D01*
Y78390D01*
D02*
G37*
G36*
X-2415Y76827D02*
X-2585D01*
X-2742Y76762D01*
X-2862Y76642D01*
X-2927Y76485D01*
Y76315D01*
X-2862Y76158D01*
X-2742Y76038D01*
X-2585Y75973D01*
X-2415D01*
X-2258Y76038D01*
X-2138Y76158D01*
X-2073Y76315D01*
Y76485D01*
X-2138Y76642D01*
X-2258Y76762D01*
X-2415Y76827D01*
D02*
G37*
G36*
X24385Y76727D02*
X24215D01*
X24058Y76662D01*
X23938Y76542D01*
X23873Y76385D01*
Y76215D01*
X23938Y76058D01*
X24058Y75938D01*
X24215Y75873D01*
X24385D01*
X24542Y75938D01*
X24662Y76058D01*
X24727Y76215D01*
Y76385D01*
X24662Y76542D01*
X24542Y76662D01*
X24385Y76727D01*
D02*
G37*
G36*
X30460Y76327D02*
X30290D01*
X30133Y76262D01*
X30013Y76142D01*
X29948Y75985D01*
Y75815D01*
X30013Y75658D01*
X30133Y75538D01*
X30290Y75473D01*
X30460D01*
X30617Y75538D01*
X30737Y75658D01*
X30802Y75815D01*
Y75985D01*
X30737Y76142D01*
X30617Y76262D01*
X30460Y76327D01*
D02*
G37*
G36*
X29285D02*
X29115D01*
X28958Y76262D01*
X28838Y76142D01*
X28773Y75985D01*
Y75815D01*
X28838Y75658D01*
X28958Y75538D01*
X29115Y75473D01*
X29285D01*
X29442Y75538D01*
X29562Y75658D01*
X29627Y75815D01*
Y75985D01*
X29562Y76142D01*
X29442Y76262D01*
X29285Y76327D01*
D02*
G37*
G36*
X61585Y76027D02*
X61415D01*
X61258Y75962D01*
X61138Y75842D01*
X61073Y75685D01*
Y75515D01*
X61138Y75358D01*
X61258Y75238D01*
X61415Y75173D01*
X61585D01*
X61742Y75238D01*
X61862Y75358D01*
X61927Y75515D01*
Y75685D01*
X61862Y75842D01*
X61742Y75962D01*
X61585Y76027D01*
D02*
G37*
G36*
X57685D02*
X57515D01*
X57358Y75962D01*
X57238Y75842D01*
X57173Y75685D01*
Y75515D01*
X57238Y75358D01*
X57358Y75238D01*
X57515Y75173D01*
X57685D01*
X57842Y75238D01*
X57962Y75358D01*
X58027Y75515D01*
Y75685D01*
X57962Y75842D01*
X57842Y75962D01*
X57685Y76027D01*
D02*
G37*
G36*
X1785Y75727D02*
X1615D01*
X1458Y75662D01*
X1338Y75542D01*
X1273Y75385D01*
Y75215D01*
X1338Y75058D01*
X1458Y74938D01*
X1615Y74873D01*
X1785D01*
X1942Y74938D01*
X2062Y75058D01*
X2127Y75215D01*
Y75385D01*
X2062Y75542D01*
X1942Y75662D01*
X1785Y75727D01*
D02*
G37*
G36*
X50185Y75627D02*
X50015D01*
X49858Y75562D01*
X49738Y75442D01*
X49673Y75285D01*
Y75115D01*
X49738Y74958D01*
X49858Y74838D01*
X50015Y74773D01*
X50185D01*
X50342Y74838D01*
X50462Y74958D01*
X50527Y75115D01*
Y75285D01*
X50462Y75442D01*
X50342Y75562D01*
X50185Y75627D01*
D02*
G37*
G36*
X31885Y75427D02*
X31715D01*
X31558Y75362D01*
X31438Y75242D01*
X31373Y75085D01*
Y74915D01*
X31438Y74758D01*
X31558Y74638D01*
X31715Y74573D01*
X31885D01*
X32042Y74638D01*
X32162Y74758D01*
X32227Y74915D01*
Y75085D01*
X32162Y75242D01*
X32042Y75362D01*
X31885Y75427D01*
D02*
G37*
G36*
X59685Y75127D02*
X59515D01*
X59358Y75062D01*
X59238Y74942D01*
X59173Y74785D01*
Y74615D01*
X59238Y74458D01*
X59358Y74338D01*
X59515Y74273D01*
X59685D01*
X59842Y74338D01*
X59962Y74458D01*
X60027Y74615D01*
Y74785D01*
X59962Y74942D01*
X59842Y75062D01*
X59685Y75127D01*
D02*
G37*
G36*
X28685Y75527D02*
X28515D01*
X28358Y75462D01*
X28238Y75342D01*
X28173Y75185D01*
Y75015D01*
X28238Y74858D01*
X28315Y74781D01*
X28344Y74700D01*
X28315Y74619D01*
X28238Y74542D01*
X28173Y74385D01*
Y74215D01*
X28238Y74058D01*
X28358Y73938D01*
X28515Y73873D01*
X28685D01*
X28842Y73938D01*
X28962Y74058D01*
X29027Y74215D01*
Y74385D01*
X28962Y74542D01*
X28885Y74619D01*
X28856Y74700D01*
X28885Y74781D01*
X28962Y74858D01*
X29027Y75015D01*
Y75185D01*
X28962Y75342D01*
X28842Y75462D01*
X28685Y75527D01*
D02*
G37*
G36*
X44012Y73699D02*
X43842D01*
X43685Y73634D01*
X43565Y73514D01*
X43500Y73357D01*
Y73187D01*
X43565Y73030D01*
X43685Y72910D01*
X43842Y72845D01*
X44012D01*
X44169Y72910D01*
X44289Y73030D01*
X44354Y73187D01*
Y73357D01*
X44289Y73514D01*
X44169Y73634D01*
X44012Y73699D01*
D02*
G37*
G36*
X48885Y73627D02*
X48715D01*
X48558Y73562D01*
X48438Y73442D01*
X48373Y73285D01*
Y73115D01*
X48438Y72958D01*
X48558Y72838D01*
X48715Y72773D01*
X48885D01*
X49042Y72838D01*
X49162Y72958D01*
X49227Y73115D01*
Y73285D01*
X49162Y73442D01*
X49042Y73562D01*
X48885Y73627D01*
D02*
G37*
G36*
X51385Y73227D02*
X51215D01*
X51058Y73162D01*
X50938Y73042D01*
X50873Y72885D01*
Y72715D01*
X50938Y72558D01*
X51058Y72438D01*
X51215Y72373D01*
X51385D01*
X51542Y72438D01*
X51662Y72558D01*
X51727Y72715D01*
Y72885D01*
X51662Y73042D01*
X51542Y73162D01*
X51385Y73227D01*
D02*
G37*
G36*
X-2415Y72827D02*
X-2585D01*
X-2742Y72762D01*
X-2862Y72642D01*
X-2927Y72485D01*
Y72315D01*
X-2862Y72158D01*
X-2742Y72038D01*
X-2585Y71973D01*
X-2415D01*
X-2258Y72038D01*
X-2138Y72158D01*
X-2073Y72315D01*
Y72485D01*
X-2138Y72642D01*
X-2258Y72762D01*
X-2415Y72827D01*
D02*
G37*
G36*
X40558Y71727D02*
X40388D01*
X40231Y71662D01*
X40111Y71542D01*
X40046Y71385D01*
Y71215D01*
X40111Y71058D01*
X40231Y70938D01*
X40388Y70873D01*
X40558D01*
X40715Y70938D01*
X40835Y71058D01*
X40900Y71215D01*
Y71385D01*
X40835Y71542D01*
X40715Y71662D01*
X40558Y71727D01*
D02*
G37*
G36*
X12085Y73598D02*
X11915D01*
X11758Y73533D01*
X11638Y73413D01*
X11573Y73256D01*
Y73086D01*
X11638Y72930D01*
X11677Y72891D01*
X11757Y72808D01*
X11677Y72725D01*
X11638Y72686D01*
X11573Y72529D01*
Y72359D01*
X11638Y72203D01*
X11677Y72164D01*
X11757Y72081D01*
X11677Y71998D01*
X11638Y71959D01*
X11573Y71802D01*
Y71632D01*
X11638Y71476D01*
X11677Y71437D01*
X11757Y71354D01*
X11677Y71271D01*
X11638Y71232D01*
X11573Y71075D01*
Y70905D01*
X11638Y70749D01*
X11758Y70628D01*
X11915Y70563D01*
X12085D01*
X12242Y70628D01*
X12362Y70749D01*
X12427Y70905D01*
Y71075D01*
X12362Y71232D01*
X12323Y71271D01*
X12243Y71354D01*
X12323Y71437D01*
X12362Y71476D01*
X12427Y71632D01*
Y71802D01*
X12362Y71959D01*
X12323Y71998D01*
X12243Y72081D01*
X12323Y72164D01*
X12362Y72203D01*
X12427Y72359D01*
Y72529D01*
X12362Y72686D01*
X12323Y72725D01*
X12243Y72808D01*
X12323Y72891D01*
X12362Y72930D01*
X12427Y73086D01*
Y73256D01*
X12362Y73413D01*
X12242Y73533D01*
X12085Y73598D01*
D02*
G37*
G36*
X-1115Y71127D02*
X-1285D01*
X-1442Y71062D01*
X-1562Y70942D01*
X-1627Y70785D01*
Y70615D01*
X-1562Y70458D01*
X-1442Y70338D01*
X-1285Y70273D01*
X-1115D01*
X-958Y70338D01*
X-838Y70458D01*
X-773Y70615D01*
Y70785D01*
X-838Y70942D01*
X-958Y71062D01*
X-1115Y71127D01*
D02*
G37*
G36*
X-24410Y72229D02*
X-26389D01*
Y70251D01*
X-24410D01*
Y72229D01*
D02*
G37*
G36*
X47629Y64582D02*
X47460D01*
X47303Y64517D01*
X47183Y64397D01*
X47118Y64240D01*
Y64071D01*
X47183Y63914D01*
X47303Y63793D01*
X47460Y63728D01*
X47629D01*
X47786Y63793D01*
X47907Y63914D01*
X47972Y64071D01*
Y64240D01*
X47907Y64397D01*
X47786Y64517D01*
X47629Y64582D01*
D02*
G37*
G36*
X48985Y64427D02*
X48815D01*
X48658Y64362D01*
X48538Y64242D01*
X48473Y64085D01*
Y63915D01*
X48538Y63758D01*
X48658Y63638D01*
X48815Y63573D01*
X48985D01*
X49142Y63638D01*
X49262Y63758D01*
X49327Y63915D01*
Y64085D01*
X49262Y64242D01*
X49142Y64362D01*
X48985Y64427D01*
D02*
G37*
G36*
X39685Y62527D02*
X39515D01*
X39358Y62462D01*
X39238Y62342D01*
X39173Y62185D01*
Y62015D01*
X39238Y61858D01*
X39358Y61738D01*
X39515Y61673D01*
X39685D01*
X39842Y61738D01*
X39962Y61858D01*
X40027Y62015D01*
Y62185D01*
X39962Y62342D01*
X39842Y62462D01*
X39685Y62527D01*
D02*
G37*
G36*
X38685D02*
X38515D01*
X38358Y62462D01*
X38238Y62342D01*
X38173Y62185D01*
Y62015D01*
X38238Y61858D01*
X38358Y61738D01*
X38515Y61673D01*
X38685D01*
X38842Y61738D01*
X38962Y61858D01*
X39027Y62015D01*
Y62185D01*
X38962Y62342D01*
X38842Y62462D01*
X38685Y62527D01*
D02*
G37*
G36*
X41685Y61427D02*
X41515D01*
X41358Y61362D01*
X41238Y61242D01*
X41173Y61085D01*
Y60960D01*
X41083Y60881D01*
X41056Y60871D01*
X40985Y60900D01*
X40815D01*
X40658Y60835D01*
X40538Y60715D01*
X40473Y60558D01*
Y60388D01*
X40538Y60231D01*
X40658Y60111D01*
X40815Y60046D01*
X40985D01*
X41142Y60111D01*
X41262Y60231D01*
X41327Y60388D01*
Y60513D01*
X41417Y60592D01*
X41444Y60602D01*
X41515Y60573D01*
X41685D01*
X41842Y60638D01*
X41962Y60758D01*
X42027Y60915D01*
Y61085D01*
X41962Y61242D01*
X41842Y61362D01*
X41685Y61427D01*
D02*
G37*
G36*
X-25715Y60327D02*
X-25885D01*
X-26042Y60262D01*
X-26162Y60142D01*
X-26227Y59985D01*
Y59815D01*
X-26162Y59658D01*
X-26042Y59538D01*
X-25885Y59473D01*
X-25715D01*
X-25617Y59513D01*
X-25611Y59512D01*
X-25500Y59430D01*
Y59315D01*
X-25435Y59158D01*
X-25315Y59038D01*
X-25158Y58973D01*
X-24988D01*
X-24831Y59038D01*
X-24711Y59158D01*
X-24646Y59315D01*
Y59485D01*
X-24711Y59642D01*
X-24831Y59762D01*
X-24988Y59827D01*
X-25158D01*
X-25256Y59787D01*
X-25262Y59788D01*
X-25373Y59870D01*
Y59985D01*
X-25438Y60142D01*
X-25558Y60262D01*
X-25715Y60327D01*
D02*
G37*
G36*
X39785Y57827D02*
X39615D01*
X39458Y57762D01*
X39338Y57642D01*
X39273Y57485D01*
Y57315D01*
X39338Y57158D01*
X39458Y57038D01*
X39615Y56973D01*
X39785D01*
X39942Y57038D01*
X40062Y57158D01*
X40127Y57315D01*
Y57485D01*
X40062Y57642D01*
X39942Y57762D01*
X39785Y57827D01*
D02*
G37*
G36*
X38685D02*
X38515D01*
X38358Y57762D01*
X38238Y57642D01*
X38173Y57485D01*
Y57315D01*
X38238Y57158D01*
X38358Y57038D01*
X38515Y56973D01*
X38685D01*
X38842Y57038D01*
X38962Y57158D01*
X39027Y57315D01*
Y57485D01*
X38962Y57642D01*
X38842Y57762D01*
X38685Y57827D01*
D02*
G37*
G36*
X28065Y58103D02*
X27815D01*
X27572Y58038D01*
X27355Y57912D01*
X27178Y57735D01*
X27052Y57518D01*
X26987Y57275D01*
Y57025D01*
X27052Y56782D01*
X27178Y56565D01*
X27355Y56388D01*
X27572Y56262D01*
X27815Y56197D01*
X28065D01*
X28308Y56262D01*
X28525Y56388D01*
X28702Y56565D01*
X28828Y56782D01*
X28892Y57025D01*
Y57275D01*
X28828Y57518D01*
X28702Y57735D01*
X28525Y57912D01*
X28308Y58038D01*
X28065Y58103D01*
D02*
G37*
G36*
X6032D02*
X4128D01*
Y56197D01*
X6032D01*
Y58103D01*
D02*
G37*
G36*
X125D02*
X-125D01*
X-368Y58038D01*
X-585Y57912D01*
X-762Y57735D01*
X-888Y57518D01*
X-952Y57275D01*
Y57025D01*
X-888Y56782D01*
X-762Y56565D01*
X-585Y56388D01*
X-368Y56262D01*
X-125Y56197D01*
X125D01*
X368Y56262D01*
X585Y56388D01*
X762Y56565D01*
X888Y56782D01*
X952Y57025D01*
Y57275D01*
X888Y57518D01*
X762Y57735D01*
X585Y57912D01*
X368Y58038D01*
X125Y58103D01*
D02*
G37*
G36*
X-21907D02*
X-23812D01*
Y56197D01*
X-21907D01*
Y58103D01*
D02*
G37*
G36*
X-27815D02*
X-28065D01*
X-28308Y58038D01*
X-28525Y57912D01*
X-28702Y57735D01*
X-28828Y57518D01*
X-28892Y57275D01*
Y57025D01*
X-28828Y56782D01*
X-28702Y56565D01*
X-28525Y56388D01*
X-28308Y56262D01*
X-28065Y56197D01*
X-27815D01*
X-27572Y56262D01*
X-27355Y56388D01*
X-27178Y56565D01*
X-27052Y56782D01*
X-26987Y57025D01*
Y57275D01*
X-27052Y57518D01*
X-27178Y57735D01*
X-27355Y57912D01*
X-27572Y58038D01*
X-27815Y58103D01*
D02*
G37*
G36*
X-49847D02*
X-51752D01*
Y56197D01*
X-49847D01*
Y58103D01*
D02*
G37*
G36*
X47940Y58267D02*
X47660D01*
X47388Y58194D01*
X47145Y58054D01*
X46946Y57855D01*
X46806Y57612D01*
X46733Y57340D01*
Y57060D01*
X46806Y56788D01*
X46946Y56545D01*
X47145Y56346D01*
X47388Y56206D01*
X47660Y56133D01*
X47940D01*
X48212Y56206D01*
X48455Y56346D01*
X48654Y56545D01*
X48794Y56788D01*
X48867Y57060D01*
Y57340D01*
X48794Y57612D01*
X48654Y57855D01*
X48455Y58054D01*
X48212Y58194D01*
X47940Y58267D01*
D02*
G37*
G36*
X28065Y55562D02*
X27815D01*
X27572Y55498D01*
X27355Y55372D01*
X27178Y55195D01*
X27052Y54978D01*
X26987Y54735D01*
Y54485D01*
X27052Y54242D01*
X27178Y54025D01*
X27355Y53848D01*
X27572Y53722D01*
X27815Y53658D01*
X28065D01*
X28308Y53722D01*
X28525Y53848D01*
X28702Y54025D01*
X28828Y54242D01*
X28892Y54485D01*
Y54735D01*
X28828Y54978D01*
X28702Y55195D01*
X28525Y55372D01*
X28308Y55498D01*
X28065Y55562D01*
D02*
G37*
G36*
X5205D02*
X4955D01*
X4712Y55498D01*
X4495Y55372D01*
X4318Y55195D01*
X4192Y54978D01*
X4128Y54735D01*
Y54485D01*
X4192Y54242D01*
X4318Y54025D01*
X4495Y53848D01*
X4712Y53722D01*
X4955Y53658D01*
X5205D01*
X5448Y53722D01*
X5665Y53848D01*
X5842Y54025D01*
X5968Y54242D01*
X6032Y54485D01*
Y54735D01*
X5968Y54978D01*
X5842Y55195D01*
X5665Y55372D01*
X5448Y55498D01*
X5205Y55562D01*
D02*
G37*
G36*
X125D02*
X-125D01*
X-368Y55498D01*
X-585Y55372D01*
X-762Y55195D01*
X-888Y54978D01*
X-952Y54735D01*
Y54485D01*
X-888Y54242D01*
X-762Y54025D01*
X-585Y53848D01*
X-368Y53722D01*
X-125Y53658D01*
X125D01*
X368Y53722D01*
X585Y53848D01*
X762Y54025D01*
X888Y54242D01*
X952Y54485D01*
Y54735D01*
X888Y54978D01*
X762Y55195D01*
X585Y55372D01*
X368Y55498D01*
X125Y55562D01*
D02*
G37*
G36*
X-22735D02*
X-22985D01*
X-23228Y55498D01*
X-23445Y55372D01*
X-23622Y55195D01*
X-23748Y54978D01*
X-23812Y54735D01*
Y54485D01*
X-23748Y54242D01*
X-23622Y54025D01*
X-23445Y53848D01*
X-23228Y53722D01*
X-22985Y53658D01*
X-22735D01*
X-22492Y53722D01*
X-22275Y53848D01*
X-22098Y54025D01*
X-21972Y54242D01*
X-21907Y54485D01*
Y54735D01*
X-21972Y54978D01*
X-22098Y55195D01*
X-22275Y55372D01*
X-22492Y55498D01*
X-22735Y55562D01*
D02*
G37*
G36*
X-27815D02*
X-28065D01*
X-28308Y55498D01*
X-28525Y55372D01*
X-28702Y55195D01*
X-28828Y54978D01*
X-28892Y54735D01*
Y54485D01*
X-28828Y54242D01*
X-28702Y54025D01*
X-28525Y53848D01*
X-28308Y53722D01*
X-28065Y53658D01*
X-27815D01*
X-27572Y53722D01*
X-27355Y53848D01*
X-27178Y54025D01*
X-27052Y54242D01*
X-26987Y54485D01*
Y54735D01*
X-27052Y54978D01*
X-27178Y55195D01*
X-27355Y55372D01*
X-27572Y55498D01*
X-27815Y55562D01*
D02*
G37*
G36*
X-50675D02*
X-50925D01*
X-51168Y55498D01*
X-51385Y55372D01*
X-51562Y55195D01*
X-51688Y54978D01*
X-51752Y54735D01*
Y54485D01*
X-51688Y54242D01*
X-51562Y54025D01*
X-51385Y53848D01*
X-51168Y53722D01*
X-50925Y53658D01*
X-50675D01*
X-50432Y53722D01*
X-50215Y53848D01*
X-50038Y54025D01*
X-49912Y54242D01*
X-49847Y54485D01*
Y54735D01*
X-49912Y54978D01*
X-50038Y55195D01*
X-50215Y55372D01*
X-50432Y55498D01*
X-50675Y55562D01*
D02*
G37*
G36*
X57485Y52327D02*
X57315D01*
X57158Y52262D01*
X57038Y52142D01*
X56973Y51985D01*
Y51815D01*
X57038Y51658D01*
X57158Y51538D01*
X57315Y51473D01*
X57485D01*
X57642Y51538D01*
X57762Y51658D01*
X57827Y51815D01*
Y51985D01*
X57762Y52142D01*
X57642Y52262D01*
X57485Y52327D01*
D02*
G37*
G36*
X28065Y53022D02*
X27815D01*
X27572Y52958D01*
X27355Y52832D01*
X27178Y52655D01*
X27052Y52438D01*
X26987Y52195D01*
Y51945D01*
X27052Y51702D01*
X27178Y51485D01*
X27355Y51308D01*
X27572Y51182D01*
X27815Y51118D01*
X28065D01*
X28308Y51182D01*
X28525Y51308D01*
X28702Y51485D01*
X28828Y51702D01*
X28892Y51945D01*
Y52195D01*
X28828Y52438D01*
X28702Y52655D01*
X28525Y52832D01*
X28308Y52958D01*
X28065Y53022D01*
D02*
G37*
G36*
X5205D02*
X4955D01*
X4712Y52958D01*
X4495Y52832D01*
X4318Y52655D01*
X4192Y52438D01*
X4128Y52195D01*
Y51945D01*
X4192Y51702D01*
X4318Y51485D01*
X4495Y51308D01*
X4712Y51182D01*
X4955Y51118D01*
X5205D01*
X5448Y51182D01*
X5665Y51308D01*
X5842Y51485D01*
X5968Y51702D01*
X6032Y51945D01*
Y52195D01*
X5968Y52438D01*
X5842Y52655D01*
X5665Y52832D01*
X5448Y52958D01*
X5205Y53022D01*
D02*
G37*
G36*
X125D02*
X-125D01*
X-368Y52958D01*
X-585Y52832D01*
X-762Y52655D01*
X-888Y52438D01*
X-952Y52195D01*
Y51945D01*
X-888Y51702D01*
X-762Y51485D01*
X-585Y51308D01*
X-368Y51182D01*
X-125Y51118D01*
X125D01*
X368Y51182D01*
X585Y51308D01*
X762Y51485D01*
X888Y51702D01*
X952Y51945D01*
Y52195D01*
X888Y52438D01*
X762Y52655D01*
X585Y52832D01*
X368Y52958D01*
X125Y53022D01*
D02*
G37*
G36*
X-22735D02*
X-22985D01*
X-23228Y52958D01*
X-23445Y52832D01*
X-23622Y52655D01*
X-23748Y52438D01*
X-23812Y52195D01*
Y51945D01*
X-23748Y51702D01*
X-23622Y51485D01*
X-23445Y51308D01*
X-23228Y51182D01*
X-22985Y51118D01*
X-22735D01*
X-22492Y51182D01*
X-22275Y51308D01*
X-22098Y51485D01*
X-21972Y51702D01*
X-21907Y51945D01*
Y52195D01*
X-21972Y52438D01*
X-22098Y52655D01*
X-22275Y52832D01*
X-22492Y52958D01*
X-22735Y53022D01*
D02*
G37*
G36*
X-27815D02*
X-28065D01*
X-28308Y52958D01*
X-28525Y52832D01*
X-28702Y52655D01*
X-28828Y52438D01*
X-28892Y52195D01*
Y51945D01*
X-28828Y51702D01*
X-28702Y51485D01*
X-28525Y51308D01*
X-28308Y51182D01*
X-28065Y51118D01*
X-27815D01*
X-27572Y51182D01*
X-27355Y51308D01*
X-27178Y51485D01*
X-27052Y51702D01*
X-26987Y51945D01*
Y52195D01*
X-27052Y52438D01*
X-27178Y52655D01*
X-27355Y52832D01*
X-27572Y52958D01*
X-27815Y53022D01*
D02*
G37*
G36*
X-50675D02*
X-50925D01*
X-51168Y52958D01*
X-51385Y52832D01*
X-51562Y52655D01*
X-51688Y52438D01*
X-51752Y52195D01*
Y51945D01*
X-51688Y51702D01*
X-51562Y51485D01*
X-51385Y51308D01*
X-51168Y51182D01*
X-50925Y51118D01*
X-50675D01*
X-50432Y51182D01*
X-50215Y51308D01*
X-50038Y51485D01*
X-49912Y51702D01*
X-49847Y51945D01*
Y52195D01*
X-49912Y52438D01*
X-50038Y52655D01*
X-50215Y52832D01*
X-50432Y52958D01*
X-50675Y53022D01*
D02*
G37*
G36*
X61485Y51627D02*
X61315D01*
X61158Y51562D01*
X61038Y51442D01*
X60973Y51285D01*
Y51115D01*
X61038Y50958D01*
X61158Y50838D01*
X61315Y50773D01*
X61485D01*
X61642Y50838D01*
X61762Y50958D01*
X61827Y51115D01*
Y51285D01*
X61762Y51442D01*
X61642Y51562D01*
X61485Y51627D01*
D02*
G37*
G36*
X39326Y51425D02*
X39184D01*
X39054Y51370D01*
X38954Y51270D01*
X38900Y51140D01*
Y50998D01*
X38954Y50868D01*
X39054Y50767D01*
X39184Y50713D01*
X39326D01*
X39457Y50767D01*
X39557Y50868D01*
X39611Y50998D01*
Y51140D01*
X39557Y51270D01*
X39457Y51370D01*
X39326Y51425D01*
D02*
G37*
G36*
X38071Y51356D02*
X37929D01*
X37799Y51301D01*
X37699Y51201D01*
X37644Y51071D01*
Y50929D01*
X37699Y50799D01*
X37799Y50699D01*
X37929Y50644D01*
X38071D01*
X38201Y50699D01*
X38301Y50799D01*
X38356Y50929D01*
Y51071D01*
X38301Y51201D01*
X38201Y51301D01*
X38071Y51356D01*
D02*
G37*
G36*
X16685Y51227D02*
X16515D01*
X16358Y51162D01*
X16238Y51042D01*
X16173Y50885D01*
Y50715D01*
X16238Y50558D01*
X16358Y50438D01*
X16515Y50373D01*
X16685D01*
X16842Y50438D01*
X16962Y50558D01*
X17027Y50715D01*
Y50885D01*
X16962Y51042D01*
X16842Y51162D01*
X16685Y51227D01*
D02*
G37*
G36*
X39471Y50356D02*
X39329D01*
X39199Y50301D01*
X39099Y50201D01*
X39044Y50071D01*
Y50021D01*
X38917Y49936D01*
X38871Y49956D01*
X38729D01*
X38683Y49936D01*
X38556Y50021D01*
Y50071D01*
X38501Y50201D01*
X38401Y50301D01*
X38271Y50356D01*
X38129D01*
X37999Y50301D01*
X37899Y50201D01*
X37844Y50071D01*
Y49929D01*
X37899Y49799D01*
X37970Y49727D01*
X37988Y49650D01*
X37970Y49573D01*
X37899Y49501D01*
X37844Y49371D01*
Y49229D01*
X37899Y49099D01*
X37999Y48999D01*
X38129Y48944D01*
X38271D01*
X38401Y48999D01*
X38501Y49099D01*
X38541Y49195D01*
X38561Y49231D01*
X38683Y49264D01*
X38729Y49244D01*
X38871D01*
X38917Y49264D01*
X39039Y49231D01*
X39059Y49195D01*
X39099Y49099D01*
X39199Y48999D01*
X39329Y48944D01*
X39471D01*
X39601Y48999D01*
X39701Y49099D01*
X39756Y49229D01*
Y49371D01*
X39701Y49501D01*
X39630Y49573D01*
X39612Y49650D01*
X39630Y49727D01*
X39701Y49799D01*
X39756Y49929D01*
Y50071D01*
X39701Y50201D01*
X39601Y50301D01*
X39471Y50356D01*
D02*
G37*
G36*
X28065Y50482D02*
X27815D01*
X27572Y50418D01*
X27355Y50292D01*
X27178Y50115D01*
X27052Y49898D01*
X26987Y49655D01*
Y49405D01*
X27052Y49162D01*
X27178Y48945D01*
X27355Y48768D01*
X27572Y48642D01*
X27815Y48577D01*
X28065D01*
X28308Y48642D01*
X28525Y48768D01*
X28702Y48945D01*
X28828Y49162D01*
X28892Y49405D01*
Y49655D01*
X28828Y49898D01*
X28702Y50115D01*
X28525Y50292D01*
X28308Y50418D01*
X28065Y50482D01*
D02*
G37*
G36*
X5205D02*
X4955D01*
X4712Y50418D01*
X4495Y50292D01*
X4318Y50115D01*
X4192Y49898D01*
X4128Y49655D01*
Y49405D01*
X4192Y49162D01*
X4318Y48945D01*
X4495Y48768D01*
X4712Y48642D01*
X4955Y48577D01*
X5205D01*
X5448Y48642D01*
X5665Y48768D01*
X5842Y48945D01*
X5968Y49162D01*
X6032Y49405D01*
Y49655D01*
X5968Y49898D01*
X5842Y50115D01*
X5665Y50292D01*
X5448Y50418D01*
X5205Y50482D01*
D02*
G37*
G36*
X125D02*
X-125D01*
X-368Y50418D01*
X-585Y50292D01*
X-762Y50115D01*
X-888Y49898D01*
X-952Y49655D01*
Y49405D01*
X-888Y49162D01*
X-762Y48945D01*
X-585Y48768D01*
X-368Y48642D01*
X-125Y48577D01*
X125D01*
X368Y48642D01*
X585Y48768D01*
X762Y48945D01*
X888Y49162D01*
X952Y49405D01*
Y49655D01*
X888Y49898D01*
X762Y50115D01*
X585Y50292D01*
X368Y50418D01*
X125Y50482D01*
D02*
G37*
G36*
X-22735D02*
X-22985D01*
X-23228Y50418D01*
X-23445Y50292D01*
X-23622Y50115D01*
X-23748Y49898D01*
X-23812Y49655D01*
Y49405D01*
X-23748Y49162D01*
X-23622Y48945D01*
X-23445Y48768D01*
X-23228Y48642D01*
X-22985Y48577D01*
X-22735D01*
X-22492Y48642D01*
X-22275Y48768D01*
X-22098Y48945D01*
X-21972Y49162D01*
X-21907Y49405D01*
Y49655D01*
X-21972Y49898D01*
X-22098Y50115D01*
X-22275Y50292D01*
X-22492Y50418D01*
X-22735Y50482D01*
D02*
G37*
G36*
X-27815D02*
X-28065D01*
X-28308Y50418D01*
X-28525Y50292D01*
X-28702Y50115D01*
X-28828Y49898D01*
X-28892Y49655D01*
Y49405D01*
X-28828Y49162D01*
X-28702Y48945D01*
X-28525Y48768D01*
X-28308Y48642D01*
X-28065Y48577D01*
X-27815D01*
X-27572Y48642D01*
X-27355Y48768D01*
X-27178Y48945D01*
X-27052Y49162D01*
X-26987Y49405D01*
Y49655D01*
X-27052Y49898D01*
X-27178Y50115D01*
X-27355Y50292D01*
X-27572Y50418D01*
X-27815Y50482D01*
D02*
G37*
G36*
X-50675D02*
X-50925D01*
X-51168Y50418D01*
X-51385Y50292D01*
X-51562Y50115D01*
X-51688Y49898D01*
X-51752Y49655D01*
Y49405D01*
X-51688Y49162D01*
X-51562Y48945D01*
X-51385Y48768D01*
X-51168Y48642D01*
X-50925Y48577D01*
X-50675D01*
X-50432Y48642D01*
X-50215Y48768D01*
X-50038Y48945D01*
X-49912Y49162D01*
X-49847Y49405D01*
Y49655D01*
X-49912Y49898D01*
X-50038Y50115D01*
X-50215Y50292D01*
X-50432Y50418D01*
X-50675Y50482D01*
D02*
G37*
G36*
X15985Y49327D02*
X15815D01*
X15658Y49262D01*
X15538Y49142D01*
X15473Y48985D01*
Y48815D01*
X15538Y48658D01*
X15658Y48538D01*
X15815Y48473D01*
X15985D01*
X16142Y48538D01*
X16262Y48658D01*
X16327Y48815D01*
Y48985D01*
X16262Y49142D01*
X16142Y49262D01*
X15985Y49327D01*
D02*
G37*
G36*
X46585Y48727D02*
X46415D01*
X46258Y48662D01*
X46138Y48542D01*
X46073Y48385D01*
Y48215D01*
X46138Y48058D01*
X46258Y47938D01*
X46415Y47873D01*
X46585D01*
X46742Y47938D01*
X46862Y48058D01*
X46927Y48215D01*
Y48385D01*
X46862Y48542D01*
X46742Y48662D01*
X46585Y48727D01*
D02*
G37*
G36*
X42885Y47927D02*
X42715D01*
X42558Y47862D01*
X42438Y47742D01*
X42373Y47585D01*
Y47415D01*
X42438Y47258D01*
X42558Y47138D01*
X42715Y47073D01*
X42885D01*
X43042Y47138D01*
X43162Y47258D01*
X43227Y47415D01*
Y47585D01*
X43162Y47742D01*
X43042Y47862D01*
X42885Y47927D01*
D02*
G37*
G36*
X28065Y47943D02*
X27815D01*
X27572Y47878D01*
X27355Y47752D01*
X27178Y47575D01*
X27052Y47358D01*
X26987Y47115D01*
Y46865D01*
X27052Y46622D01*
X27178Y46405D01*
X27355Y46228D01*
X27572Y46102D01*
X27815Y46037D01*
X28065D01*
X28308Y46102D01*
X28525Y46228D01*
X28702Y46405D01*
X28828Y46622D01*
X28892Y46865D01*
Y47115D01*
X28828Y47358D01*
X28702Y47575D01*
X28525Y47752D01*
X28308Y47878D01*
X28065Y47943D01*
D02*
G37*
G36*
X5205D02*
X4955D01*
X4712Y47878D01*
X4495Y47752D01*
X4318Y47575D01*
X4192Y47358D01*
X4128Y47115D01*
Y46865D01*
X4192Y46622D01*
X4318Y46405D01*
X4495Y46228D01*
X4712Y46102D01*
X4955Y46037D01*
X5205D01*
X5448Y46102D01*
X5665Y46228D01*
X5842Y46405D01*
X5968Y46622D01*
X6032Y46865D01*
Y47115D01*
X5968Y47358D01*
X5842Y47575D01*
X5665Y47752D01*
X5448Y47878D01*
X5205Y47943D01*
D02*
G37*
G36*
X125D02*
X-125D01*
X-368Y47878D01*
X-585Y47752D01*
X-762Y47575D01*
X-888Y47358D01*
X-952Y47115D01*
Y46865D01*
X-888Y46622D01*
X-762Y46405D01*
X-585Y46228D01*
X-368Y46102D01*
X-125Y46037D01*
X125D01*
X368Y46102D01*
X585Y46228D01*
X762Y46405D01*
X888Y46622D01*
X952Y46865D01*
Y47115D01*
X888Y47358D01*
X762Y47575D01*
X585Y47752D01*
X368Y47878D01*
X125Y47943D01*
D02*
G37*
G36*
X-22735D02*
X-22985D01*
X-23228Y47878D01*
X-23445Y47752D01*
X-23622Y47575D01*
X-23748Y47358D01*
X-23812Y47115D01*
Y46865D01*
X-23748Y46622D01*
X-23622Y46405D01*
X-23445Y46228D01*
X-23228Y46102D01*
X-22985Y46037D01*
X-22735D01*
X-22492Y46102D01*
X-22275Y46228D01*
X-22098Y46405D01*
X-21972Y46622D01*
X-21907Y46865D01*
Y47115D01*
X-21972Y47358D01*
X-22098Y47575D01*
X-22275Y47752D01*
X-22492Y47878D01*
X-22735Y47943D01*
D02*
G37*
G36*
X-27815D02*
X-28065D01*
X-28308Y47878D01*
X-28525Y47752D01*
X-28702Y47575D01*
X-28828Y47358D01*
X-28892Y47115D01*
Y46865D01*
X-28828Y46622D01*
X-28702Y46405D01*
X-28525Y46228D01*
X-28308Y46102D01*
X-28065Y46037D01*
X-27815D01*
X-27572Y46102D01*
X-27355Y46228D01*
X-27178Y46405D01*
X-27052Y46622D01*
X-26987Y46865D01*
Y47115D01*
X-27052Y47358D01*
X-27178Y47575D01*
X-27355Y47752D01*
X-27572Y47878D01*
X-27815Y47943D01*
D02*
G37*
G36*
X-50675D02*
X-50925D01*
X-51168Y47878D01*
X-51385Y47752D01*
X-51562Y47575D01*
X-51688Y47358D01*
X-51752Y47115D01*
Y46865D01*
X-51688Y46622D01*
X-51562Y46405D01*
X-51385Y46228D01*
X-51168Y46102D01*
X-50925Y46037D01*
X-50675D01*
X-50432Y46102D01*
X-50215Y46228D01*
X-50038Y46405D01*
X-49912Y46622D01*
X-49847Y46865D01*
Y47115D01*
X-49912Y47358D01*
X-50038Y47575D01*
X-50215Y47752D01*
X-50432Y47878D01*
X-50675Y47943D01*
D02*
G37*
G36*
X42785Y46427D02*
X42615D01*
X42458Y46362D01*
X42338Y46242D01*
X42273Y46085D01*
Y45915D01*
X42338Y45758D01*
X42458Y45638D01*
X42615Y45573D01*
X42785D01*
X42942Y45638D01*
X43062Y45758D01*
X43127Y45915D01*
Y46085D01*
X43062Y46242D01*
X42942Y46362D01*
X42785Y46427D01*
D02*
G37*
G36*
X28065Y45403D02*
X27815D01*
X27572Y45338D01*
X27355Y45212D01*
X27178Y45035D01*
X27052Y44818D01*
X26987Y44575D01*
Y44325D01*
X27052Y44082D01*
X27178Y43865D01*
X27355Y43688D01*
X27572Y43562D01*
X27815Y43498D01*
X28065D01*
X28308Y43562D01*
X28525Y43688D01*
X28702Y43865D01*
X28828Y44082D01*
X28892Y44325D01*
Y44575D01*
X28828Y44818D01*
X28702Y45035D01*
X28525Y45212D01*
X28308Y45338D01*
X28065Y45403D01*
D02*
G37*
G36*
X5205D02*
X4955D01*
X4712Y45338D01*
X4495Y45212D01*
X4318Y45035D01*
X4192Y44818D01*
X4128Y44575D01*
Y44325D01*
X4192Y44082D01*
X4318Y43865D01*
X4495Y43688D01*
X4712Y43562D01*
X4955Y43498D01*
X5205D01*
X5448Y43562D01*
X5665Y43688D01*
X5842Y43865D01*
X5968Y44082D01*
X6032Y44325D01*
Y44575D01*
X5968Y44818D01*
X5842Y45035D01*
X5665Y45212D01*
X5448Y45338D01*
X5205Y45403D01*
D02*
G37*
G36*
X125D02*
X-125D01*
X-368Y45338D01*
X-585Y45212D01*
X-762Y45035D01*
X-888Y44818D01*
X-952Y44575D01*
Y44325D01*
X-888Y44082D01*
X-762Y43865D01*
X-585Y43688D01*
X-368Y43562D01*
X-125Y43498D01*
X125D01*
X368Y43562D01*
X585Y43688D01*
X762Y43865D01*
X888Y44082D01*
X952Y44325D01*
Y44575D01*
X888Y44818D01*
X762Y45035D01*
X585Y45212D01*
X368Y45338D01*
X125Y45403D01*
D02*
G37*
G36*
X-22735D02*
X-22985D01*
X-23228Y45338D01*
X-23445Y45212D01*
X-23622Y45035D01*
X-23748Y44818D01*
X-23812Y44575D01*
Y44325D01*
X-23748Y44082D01*
X-23622Y43865D01*
X-23445Y43688D01*
X-23228Y43562D01*
X-22985Y43498D01*
X-22735D01*
X-22492Y43562D01*
X-22275Y43688D01*
X-22098Y43865D01*
X-21972Y44082D01*
X-21907Y44325D01*
Y44575D01*
X-21972Y44818D01*
X-22098Y45035D01*
X-22275Y45212D01*
X-22492Y45338D01*
X-22735Y45403D01*
D02*
G37*
G36*
X-27815D02*
X-28065D01*
X-28308Y45338D01*
X-28525Y45212D01*
X-28702Y45035D01*
X-28828Y44818D01*
X-28892Y44575D01*
Y44325D01*
X-28828Y44082D01*
X-28702Y43865D01*
X-28525Y43688D01*
X-28308Y43562D01*
X-28065Y43498D01*
X-27815D01*
X-27572Y43562D01*
X-27355Y43688D01*
X-27178Y43865D01*
X-27052Y44082D01*
X-26987Y44325D01*
Y44575D01*
X-27052Y44818D01*
X-27178Y45035D01*
X-27355Y45212D01*
X-27572Y45338D01*
X-27815Y45403D01*
D02*
G37*
G36*
X-50675D02*
X-50925D01*
X-51168Y45338D01*
X-51385Y45212D01*
X-51562Y45035D01*
X-51688Y44818D01*
X-51752Y44575D01*
Y44325D01*
X-51688Y44082D01*
X-51562Y43865D01*
X-51385Y43688D01*
X-51168Y43562D01*
X-50925Y43498D01*
X-50675D01*
X-50432Y43562D01*
X-50215Y43688D01*
X-50038Y43865D01*
X-49912Y44082D01*
X-49847Y44325D01*
Y44575D01*
X-49912Y44818D01*
X-50038Y45035D01*
X-50215Y45212D01*
X-50432Y45338D01*
X-50675Y45403D01*
D02*
G37*
G36*
X42785Y43627D02*
X42615D01*
X42458Y43562D01*
X42338Y43442D01*
X42273Y43285D01*
Y43115D01*
X42338Y42958D01*
X42458Y42838D01*
X42615Y42773D01*
X42785D01*
X42942Y42838D01*
X43062Y42958D01*
X43127Y43115D01*
Y43285D01*
X43062Y43442D01*
X42942Y43562D01*
X42785Y43627D01*
D02*
G37*
G36*
X54303Y42737D02*
X54274Y42726D01*
X54249D01*
X54143Y42682D01*
X54057D01*
X53951Y42726D01*
X53926D01*
X53897Y42737D01*
X53897Y42737D01*
X53603D01*
X53603Y42737D01*
X53574Y42726D01*
X53549D01*
X53443Y42682D01*
X53357D01*
X53251Y42726D01*
X53226D01*
X53197Y42737D01*
X53197Y42737D01*
X50300D01*
X50203Y42697D01*
X50163Y42600D01*
Y41300D01*
X50203Y41203D01*
X50300Y41163D01*
X55600D01*
X55697Y41203D01*
X55737Y41300D01*
Y41485D01*
X55756Y41529D01*
Y41671D01*
X55737Y41715D01*
Y42185D01*
X55756Y42229D01*
Y42371D01*
X55737Y42415D01*
Y42600D01*
X55697Y42697D01*
X55600Y42737D01*
X54303D01*
X54303Y42737D01*
D02*
G37*
G36*
X-25900Y89535D02*
X-34400D01*
X-34567Y89502D01*
X-34708Y89408D01*
X-39080Y85035D01*
X-41300D01*
X-41342Y85027D01*
X-41385D01*
X-41425Y85011D01*
X-41467Y85002D01*
X-41502Y84978D01*
X-41542Y84962D01*
X-41572Y84932D01*
X-41608Y84908D01*
X-43358Y83158D01*
X-45108Y81408D01*
X-45202Y81267D01*
X-45235Y81100D01*
Y80400D01*
X-45227Y80358D01*
Y80315D01*
X-45211Y80275D01*
X-45202Y80233D01*
X-45178Y80198D01*
X-45162Y80158D01*
X-45132Y80128D01*
X-45108Y80092D01*
X-45072Y80068D01*
X-45042Y80038D01*
X-45002Y80022D01*
X-44967Y79998D01*
X-44925Y79989D01*
X-44885Y79973D01*
X-44842D01*
X-44800Y79965D01*
X-44758Y79973D01*
X-44715D01*
X-44675Y79989D01*
X-44633Y79998D01*
X-44598Y80022D01*
X-44558Y80038D01*
X-44528Y80068D01*
X-44492Y80092D01*
X-44468Y80128D01*
X-44438Y80158D01*
X-44422Y80198D01*
X-44398Y80233D01*
X-44389Y80275D01*
X-44373Y80315D01*
Y80358D01*
X-44365Y80400D01*
Y80920D01*
X-42742Y82542D01*
X-41120Y84165D01*
X-38900D01*
X-38733Y84198D01*
X-38592Y84292D01*
X-34220Y88665D01*
X-26080D01*
X-22208Y84792D01*
X-22208Y84792D01*
X-20235Y82820D01*
Y43880D01*
X-21569Y42546D01*
X-22149D01*
X-22275Y42672D01*
X-22492Y42798D01*
X-22735Y42862D01*
X-22985D01*
X-23228Y42798D01*
X-23445Y42672D01*
X-23622Y42495D01*
X-23748Y42278D01*
X-23812Y42035D01*
Y41785D01*
X-23748Y41542D01*
X-23622Y41325D01*
X-23445Y41148D01*
X-23228Y41022D01*
X-22985Y40958D01*
X-22735D01*
X-22492Y41022D01*
X-22275Y41148D01*
X-22098Y41325D01*
X-21972Y41542D01*
X-21937Y41676D01*
X-21389D01*
X-21222Y41709D01*
X-21081Y41803D01*
X-19492Y43392D01*
X-19398Y43533D01*
X-19365Y43700D01*
Y83000D01*
X-19398Y83167D01*
X-19492Y83308D01*
X-21592Y85408D01*
X-21592Y85408D01*
X-25592Y89408D01*
X-25733Y89502D01*
X-25900Y89535D01*
D02*
G37*
G36*
X28065Y42862D02*
X27815D01*
X27572Y42798D01*
X27355Y42672D01*
X27178Y42495D01*
X27052Y42278D01*
X26987Y42035D01*
Y41785D01*
X27052Y41542D01*
X27178Y41325D01*
X27355Y41148D01*
X27572Y41022D01*
X27815Y40958D01*
X28065D01*
X28308Y41022D01*
X28525Y41148D01*
X28702Y41325D01*
X28828Y41542D01*
X28892Y41785D01*
Y42035D01*
X28828Y42278D01*
X28702Y42495D01*
X28525Y42672D01*
X28308Y42798D01*
X28065Y42862D01*
D02*
G37*
G36*
X5205D02*
X4955D01*
X4712Y42798D01*
X4495Y42672D01*
X4318Y42495D01*
X4192Y42278D01*
X4128Y42035D01*
Y41785D01*
X4192Y41542D01*
X4318Y41325D01*
X4495Y41148D01*
X4712Y41022D01*
X4955Y40958D01*
X5205D01*
X5448Y41022D01*
X5665Y41148D01*
X5842Y41325D01*
X5968Y41542D01*
X6032Y41785D01*
Y42035D01*
X5968Y42278D01*
X5842Y42495D01*
X5665Y42672D01*
X5448Y42798D01*
X5205Y42862D01*
D02*
G37*
G36*
X-4415Y78127D02*
X-4585D01*
X-4742Y78062D01*
X-4862Y77942D01*
X-4927Y77785D01*
Y77615D01*
X-4884Y77512D01*
Y43800D01*
X-4884Y43800D01*
X-4855Y43653D01*
X-4772Y43528D01*
X-2882Y41638D01*
X-2882Y41638D01*
X-2757Y41555D01*
X-2610Y41526D01*
X-878D01*
X-762Y41325D01*
X-585Y41148D01*
X-368Y41022D01*
X-125Y40958D01*
X125D01*
X368Y41022D01*
X585Y41148D01*
X762Y41325D01*
X888Y41542D01*
X952Y41785D01*
Y42035D01*
X888Y42278D01*
X762Y42495D01*
X585Y42672D01*
X368Y42798D01*
X125Y42862D01*
X-125D01*
X-368Y42798D01*
X-585Y42672D01*
X-762Y42495D01*
X-878Y42294D01*
X-2451D01*
X-4116Y43959D01*
Y77512D01*
X-4073Y77615D01*
Y77785D01*
X-4138Y77942D01*
X-4258Y78062D01*
X-4415Y78127D01*
D02*
G37*
G36*
X-27815Y42862D02*
X-28065D01*
X-28308Y42798D01*
X-28525Y42672D01*
X-28702Y42495D01*
X-28828Y42278D01*
X-28892Y42035D01*
Y41785D01*
X-28828Y41542D01*
X-28702Y41325D01*
X-28525Y41148D01*
X-28308Y41022D01*
X-28065Y40958D01*
X-27815D01*
X-27572Y41022D01*
X-27355Y41148D01*
X-27178Y41325D01*
X-27052Y41542D01*
X-26987Y41785D01*
Y42035D01*
X-27052Y42278D01*
X-27178Y42495D01*
X-27355Y42672D01*
X-27572Y42798D01*
X-27815Y42862D01*
D02*
G37*
G36*
X-50675D02*
X-50925D01*
X-51168Y42798D01*
X-51385Y42672D01*
X-51562Y42495D01*
X-51688Y42278D01*
X-51752Y42035D01*
Y41785D01*
X-51688Y41542D01*
X-51562Y41325D01*
X-51385Y41148D01*
X-51168Y41022D01*
X-50925Y40958D01*
X-50675D01*
X-50432Y41022D01*
X-50215Y41148D01*
X-50038Y41325D01*
X-49912Y41542D01*
X-49847Y41785D01*
Y42035D01*
X-49912Y42278D01*
X-50038Y42495D01*
X-50215Y42672D01*
X-50432Y42798D01*
X-50675Y42862D01*
D02*
G37*
G36*
X38885Y27627D02*
X38715D01*
X38558Y27562D01*
X38438Y27442D01*
X38373Y27285D01*
Y27115D01*
X38438Y26958D01*
X38558Y26838D01*
X38715Y26773D01*
X38885D01*
X39042Y26838D01*
X39162Y26958D01*
X39227Y27115D01*
Y27285D01*
X39162Y27442D01*
X39042Y27562D01*
X38885Y27627D01*
D02*
G37*
G36*
X35585Y27127D02*
X35415D01*
X35258Y27062D01*
X35138Y26942D01*
X35073Y26785D01*
Y26615D01*
X35138Y26458D01*
X35258Y26338D01*
X35415Y26273D01*
X35585D01*
X35742Y26338D01*
X35862Y26458D01*
X35927Y26615D01*
Y26785D01*
X35862Y26942D01*
X35742Y27062D01*
X35585Y27127D01*
D02*
G37*
G36*
X38693Y25819D02*
X38524D01*
X38367Y25754D01*
X38246Y25633D01*
X38181Y25476D01*
Y25307D01*
X38246Y25150D01*
X38367Y25030D01*
X38524Y24965D01*
X38693D01*
X38850Y25030D01*
X38970Y25150D01*
X39035Y25307D01*
Y25476D01*
X38970Y25633D01*
X38850Y25754D01*
X38693Y25819D01*
D02*
G37*
G36*
X35685Y25027D02*
X35515D01*
X35358Y24962D01*
X35238Y24842D01*
X35173Y24685D01*
Y24515D01*
X35238Y24358D01*
X35358Y24238D01*
X35515Y24173D01*
X35685D01*
X35842Y24238D01*
X35962Y24358D01*
X36027Y24515D01*
Y24685D01*
X35962Y24842D01*
X35842Y24962D01*
X35685Y25027D01*
D02*
G37*
G36*
X-51640Y20827D02*
X-51810D01*
X-51967Y20762D01*
X-52087Y20642D01*
X-52152Y20485D01*
Y20315D01*
X-52087Y20158D01*
X-51967Y20038D01*
X-51810Y19973D01*
X-51640D01*
X-51483Y20038D01*
X-51363Y20158D01*
X-51298Y20315D01*
Y20485D01*
X-51363Y20642D01*
X-51483Y20762D01*
X-51640Y20827D01*
D02*
G37*
G36*
X20530Y23653D02*
X20165D01*
X19807Y23582D01*
X19470Y23442D01*
X19167Y23240D01*
X18909Y22982D01*
X18706Y22678D01*
X18567Y22341D01*
X18496Y21983D01*
Y21619D01*
X18567Y21261D01*
X18706Y20924D01*
X18909Y20620D01*
X19167Y20362D01*
X19470Y20160D01*
X19807Y20020D01*
X20165Y19949D01*
X20530D01*
X20888Y20020D01*
X21225Y20160D01*
X21528Y20362D01*
X21786Y20620D01*
X21989Y20924D01*
X22128Y21261D01*
X22199Y21619D01*
Y21983D01*
X22128Y22341D01*
X21989Y22678D01*
X21786Y22982D01*
X21528Y23240D01*
X21225Y23442D01*
X20888Y23582D01*
X20530Y23653D01*
D02*
G37*
G36*
X36171Y19056D02*
X36029D01*
X35899Y19001D01*
X35799Y18901D01*
X35744Y18771D01*
Y18629D01*
X35799Y18499D01*
X35899Y18399D01*
X36029Y18344D01*
X36171D01*
X36301Y18399D01*
X36401Y18499D01*
X36456Y18629D01*
Y18771D01*
X36401Y18901D01*
X36301Y19001D01*
X36171Y19056D01*
D02*
G37*
G36*
X-51640Y17952D02*
X-51810D01*
X-51967Y17887D01*
X-52087Y17767D01*
X-52152Y17610D01*
Y17440D01*
X-52087Y17283D01*
X-51967Y17163D01*
X-51810Y17098D01*
X-51640D01*
X-51483Y17163D01*
X-51363Y17283D01*
X-51298Y17440D01*
Y17610D01*
X-51363Y17767D01*
X-51483Y17887D01*
X-51640Y17952D01*
D02*
G37*
G36*
X-54568Y17727D02*
X-54738D01*
X-54895Y17662D01*
X-55015Y17542D01*
X-55080Y17385D01*
Y17215D01*
X-55101Y17185D01*
X-55223D01*
X-55380Y17120D01*
X-55500Y17000D01*
X-55565Y16843D01*
Y16673D01*
X-55500Y16516D01*
X-55380Y16396D01*
X-55223Y16331D01*
X-55053D01*
X-54896Y16396D01*
X-54776Y16516D01*
X-54711Y16673D01*
Y16843D01*
X-54690Y16873D01*
X-54568D01*
X-54411Y16938D01*
X-54291Y17058D01*
X-54226Y17215D01*
Y17385D01*
X-54291Y17542D01*
X-54411Y17662D01*
X-54568Y17727D01*
D02*
G37*
G36*
X-52715Y13827D02*
X-52885D01*
X-53042Y13762D01*
X-53162Y13642D01*
X-53227Y13485D01*
Y13315D01*
X-53162Y13158D01*
X-53042Y13038D01*
X-52885Y12973D01*
X-52715D01*
X-52558Y13038D01*
X-52438Y13158D01*
X-52373Y13315D01*
Y13485D01*
X-52438Y13642D01*
X-52558Y13762D01*
X-52715Y13827D01*
D02*
G37*
G36*
X-55115Y10727D02*
X-55285D01*
X-55442Y10662D01*
X-55562Y10542D01*
X-55627Y10385D01*
Y10215D01*
X-55562Y10058D01*
X-55442Y9938D01*
X-55285Y9873D01*
X-55115D01*
X-54958Y9938D01*
X-54838Y10058D01*
X-54773Y10215D01*
Y10385D01*
X-54838Y10542D01*
X-54958Y10662D01*
X-55115Y10727D01*
D02*
G37*
G36*
X-55815Y9027D02*
X-55985D01*
X-56142Y8962D01*
X-56262Y8842D01*
X-56327Y8685D01*
Y8515D01*
X-56262Y8358D01*
X-56142Y8238D01*
X-55985Y8173D01*
X-55815D01*
X-55658Y8238D01*
X-55538Y8358D01*
X-55473Y8515D01*
Y8685D01*
X-55538Y8842D01*
X-55658Y8962D01*
X-55815Y9027D01*
D02*
G37*
G36*
X35389Y8130D02*
X33410D01*
Y6150D01*
X35389D01*
Y8130D01*
D02*
G37*
G36*
X28751Y7120D02*
X28403D01*
X28067Y7030D01*
X27766Y6856D01*
X27520Y6610D01*
X27346Y6309D01*
X27256Y5973D01*
Y5625D01*
X27346Y5289D01*
X27520Y4988D01*
X27766Y4742D01*
X28067Y4568D01*
X28403Y4478D01*
X28751D01*
X29087Y4568D01*
X29388Y4742D01*
X29634Y4988D01*
X29808Y5289D01*
X29898Y5625D01*
Y5973D01*
X29808Y6309D01*
X29634Y6610D01*
X29388Y6856D01*
X29087Y7030D01*
X28751Y7120D01*
D02*
G37*
G36*
X-34715Y7651D02*
X-35080D01*
X-35438Y7580D01*
X-35775Y7440D01*
X-36078Y7238D01*
X-36336Y6980D01*
X-36539Y6676D01*
X-36678Y6339D01*
X-36749Y5981D01*
Y5617D01*
X-36678Y5259D01*
X-36539Y4922D01*
X-36336Y4618D01*
X-36078Y4360D01*
X-35775Y4158D01*
X-35438Y4018D01*
X-35080Y3947D01*
X-34715D01*
X-34357Y4018D01*
X-34020Y4158D01*
X-33717Y4360D01*
X-33459Y4618D01*
X-33256Y4922D01*
X-33117Y5259D01*
X-33046Y5617D01*
Y5981D01*
X-33117Y6339D01*
X-33256Y6676D01*
X-33459Y6980D01*
X-33717Y7238D01*
X-34020Y7440D01*
X-34357Y7580D01*
X-34715Y7651D01*
D02*
G37*
G36*
X34530Y5589D02*
X34270D01*
X34018Y5522D01*
X33792Y5392D01*
X33608Y5208D01*
X33478Y4982D01*
X33410Y4730D01*
Y4470D01*
X33478Y4218D01*
X33608Y3992D01*
X33792Y3808D01*
X34018Y3678D01*
X34270Y3611D01*
X34530D01*
X34782Y3678D01*
X35008Y3808D01*
X35192Y3992D01*
X35322Y4218D01*
X35389Y4470D01*
Y4730D01*
X35322Y4982D01*
X35192Y5208D01*
X35008Y5392D01*
X34782Y5522D01*
X34530Y5589D01*
D02*
G37*
G36*
X58197Y7000D02*
X57803D01*
X57417Y6923D01*
X57053Y6772D01*
X56725Y6554D01*
X56446Y6275D01*
X56228Y5947D01*
X56077Y5583D01*
X56000Y5197D01*
Y4803D01*
X56077Y4417D01*
X56228Y4053D01*
X56446Y3725D01*
X56725Y3447D01*
X57053Y3228D01*
X57417Y3077D01*
X57803Y3000D01*
X58197D01*
X58583Y3077D01*
X58947Y3228D01*
X59275Y3447D01*
X59554Y3725D01*
X59772Y4053D01*
X59923Y4417D01*
X60000Y4803D01*
Y5197D01*
X59923Y5583D01*
X59772Y5947D01*
X59554Y6275D01*
X59275Y6554D01*
X58947Y6772D01*
X58583Y6923D01*
X58197Y7000D01*
D02*
G37*
G36*
X-57803Y7003D02*
X-58197D01*
X-58584Y6926D01*
X-58949Y6775D01*
X-59277Y6555D01*
X-59555Y6277D01*
X-59775Y5949D01*
X-59926Y5584D01*
X-60002Y5197D01*
Y4803D01*
X-59926Y4416D01*
X-59775Y4051D01*
X-59555Y3723D01*
X-59277Y3445D01*
X-58949Y3225D01*
X-58584Y3074D01*
X-58197Y2997D01*
X-57803D01*
X-57416Y3074D01*
X-57051Y3225D01*
X-56723Y3445D01*
X-56445Y3723D01*
X-56225Y4051D01*
X-56074Y4416D01*
X-55998Y4803D01*
Y5197D01*
X-56074Y5584D01*
X-56225Y5949D01*
X-56445Y6277D01*
X-56723Y6555D01*
X-57051Y6775D01*
X-57416Y6926D01*
X-57803Y7003D01*
D02*
G37*
%LPD*%
G36*
X21600Y88200D02*
Y84900D01*
X22196Y84304D01*
X22199Y84299D01*
X22299Y84199D01*
X22304Y84196D01*
X23100Y83400D01*
X24100D01*
Y82400D01*
X23900Y82200D01*
X22900D01*
X21100Y84000D01*
X19670Y84000D01*
X19591Y84127D01*
X19627Y84215D01*
Y84385D01*
X19562Y84542D01*
X19442Y84662D01*
X19285Y84727D01*
X19115D01*
X18958Y84662D01*
X18838Y84542D01*
X18773Y84385D01*
Y84215D01*
X18809Y84127D01*
X18730Y84000D01*
X18300D01*
X18100Y84200D01*
Y88200D01*
X18300Y88400D01*
X19221D01*
X19238Y88358D01*
X19358Y88238D01*
X19515Y88173D01*
X19685D01*
X19842Y88238D01*
X19892Y88132D01*
X19912Y88085D01*
X20032Y87965D01*
X20189Y87900D01*
X20359D01*
X20516Y87965D01*
X20636Y88085D01*
X20701Y88242D01*
Y88400D01*
X21400D01*
X21600Y88200D01*
D02*
G37*
G36*
X24400Y79700D02*
X23800Y79100D01*
X21800D01*
Y81900D01*
X24400D01*
Y79700D01*
D02*
G37*
G36*
X11100Y77900D02*
X9800Y77900D01*
X8300Y79400D01*
Y81300D01*
X11100D01*
Y77900D01*
D02*
G37*
G36*
X34300Y76900D02*
X32300D01*
Y78300D01*
X34300D01*
Y76900D01*
D02*
G37*
G36*
X50600Y50000D02*
X48100D01*
Y51300D01*
X50600D01*
Y50000D01*
D02*
G37*
G36*
X50400Y39300D02*
X48500D01*
Y40600D01*
X50400D01*
Y39300D01*
D02*
G37*
G36*
X48300Y37000D02*
X46300D01*
X44300Y39000D01*
X44300Y40600D01*
X48300D01*
Y37000D01*
D02*
G37*
G36*
X39800Y21100D02*
X38200D01*
X37300Y20200D01*
X36700D01*
Y22700D01*
X39800D01*
Y21100D01*
D02*
G37*
G36*
X45300Y18700D02*
X44200D01*
X43800Y19100D01*
Y21000D01*
X42865Y21935D01*
Y23800D01*
X45300D01*
Y18700D01*
D02*
G37*
G36*
X39800Y20049D02*
X39800Y14200D01*
X38600D01*
X37600Y15200D01*
Y18600D01*
X39400Y20400D01*
X39449D01*
X39800Y20049D01*
D02*
G37*
G36*
X8500Y88300D02*
Y85100D01*
X10000Y83600D01*
X11200Y83600D01*
Y82700D01*
X10800Y82300D01*
X9700D01*
X7900Y84100D01*
X7743D01*
X7658Y84227D01*
X7672Y84260D01*
Y84430D01*
X7607Y84587D01*
X7487Y84707D01*
X7330Y84772D01*
X7160D01*
X7003Y84707D01*
X6883Y84587D01*
X6818Y84430D01*
Y84260D01*
X6832Y84227D01*
X6747Y84100D01*
X5200Y84100D01*
X5000Y84300D01*
Y88300D01*
X5200Y88500D01*
X6200D01*
Y88490D01*
X6265Y88333D01*
X6385Y88213D01*
X6542Y88148D01*
X6712D01*
X6869Y88213D01*
X6918Y88106D01*
X6938Y88058D01*
X7058Y87938D01*
X7215Y87873D01*
X7385D01*
X7542Y87938D01*
X7662Y88058D01*
X7727Y88215D01*
Y88385D01*
X7723Y88394D01*
X7794Y88500D01*
X8300D01*
X8500Y88300D01*
D02*
G37*
G36*
X55600Y41300D02*
X50300D01*
Y42600D01*
X53197D01*
X53199Y42599D01*
X53329Y42544D01*
X53471D01*
X53601Y42599D01*
X53603Y42600D01*
X53897D01*
X53899Y42599D01*
X54029Y42544D01*
X54171D01*
X54301Y42599D01*
X54303Y42600D01*
X55600D01*
Y41300D01*
D02*
G37*
D12*
X-38900Y84600D02*
X-34400Y89100D01*
X-41300Y84600D02*
X-38900D01*
X-43050Y82850D02*
X-41300Y84600D01*
X-21900Y85100D02*
Y85100D01*
X-33100Y89100D02*
X-25900D01*
X-21900Y85100D01*
X-34400Y89100D02*
X-33100D01*
X-44800Y81100D02*
X-43050Y82850D01*
X-21900Y85100D02*
X-19800Y83000D01*
X54300Y67000D02*
Y76700D01*
X51400Y64100D02*
X54300Y67000D01*
X-19800Y43700D02*
Y83000D01*
X-44800Y80400D02*
Y81100D01*
X53156Y62344D02*
X55797Y59703D01*
X51400Y64100D02*
X53156Y62344D01*
X49600Y62300D02*
X51400Y64100D01*
X45400Y62300D02*
X49600D01*
X55797Y59703D02*
X56803D01*
X43400Y64300D02*
X45400Y62300D01*
X33300Y74400D02*
X33400Y74300D01*
X-22860Y41910D02*
X-22659Y42111D01*
X-21389D01*
X-19800Y43700D01*
X54300Y76700D02*
X56800Y79200D01*
X62400D01*
D13*
X34977Y75377D02*
X35053Y75300D01*
X32307Y81300D02*
X32600Y81007D01*
Y78000D02*
Y81007D01*
X24900Y81300D02*
X32307D01*
X43800Y74700D02*
X49400Y80300D01*
X52500D01*
X56800Y79200D02*
Y80500D01*
Y79100D02*
Y79200D01*
X37500Y73900D02*
X42173D01*
X42940Y77190D02*
X47550Y81800D01*
X41273Y77190D02*
X42940D01*
X28200Y82500D02*
X33500D01*
X34543Y83543D01*
X47550Y81800D02*
X52500D01*
X35053Y75300D02*
X39800D01*
X34900D02*
X34977Y75377D01*
X34900Y76201D02*
X34900Y76200D01*
X43900D01*
X43900Y76200D01*
X37297Y74700D02*
X43800D01*
X35268Y83543D02*
X35325Y83600D01*
X34543Y83543D02*
X35268D01*
X56800Y80500D02*
X56800Y80500D01*
Y81803D01*
Y83103D01*
Y84300D01*
D17*
X36225Y82225D02*
X36800Y82800D01*
X48505D02*
X51414Y85709D01*
X36800Y82800D02*
X48505D01*
X48600Y82500D02*
X52414Y86314D01*
X36975Y82225D02*
X37096D01*
X37371Y82500D01*
X48600D01*
X51414Y85709D02*
Y86614D01*
X52414Y86314D02*
Y86614D01*
X52500Y86700D01*
X51414Y86614D02*
X51500Y86700D01*
X36150Y82225D02*
X36225D01*
D148*
X16900Y81100D02*
X23000D01*
X23700Y79900D02*
X23711Y79911D01*
X24559D01*
X24849Y80200D02*
X30600D01*
X24559Y79911D02*
X24849Y80200D01*
D149*
X45400Y49462D02*
X45419Y49481D01*
X47700Y42500D02*
Y44836D01*
X45400Y47136D02*
Y49462D01*
Y47136D02*
X47700Y44836D01*
X49400Y40300D02*
Y40800D01*
X47700Y42500D02*
X49400Y40800D01*
X-2610Y41910D02*
X0D01*
X-4500Y43800D02*
Y77700D01*
Y43800D02*
X-2610Y41910D01*
D154*
X25900Y86000D02*
X26800Y86900D01*
X28400D01*
X25458Y82200D02*
X26029Y81629D01*
X33614D02*
X34118Y81125D01*
X26029Y81629D02*
X33614D01*
X30050Y85250D02*
X35325D01*
X28400Y86900D02*
X30050Y85250D01*
X35325D02*
X35325Y85250D01*
X34118Y81125D02*
X34225D01*
X25427Y82200D02*
X25458D01*
D155*
X8067Y80100D02*
X8567Y79600D01*
X3900Y80100D02*
X8067D01*
X8567Y79600D02*
X8600D01*
D156*
X59500Y56250D02*
Y57006D01*
X56803Y59703D02*
X59500Y57006D01*
Y56250D02*
X62975Y59725D01*
X59500Y53100D02*
Y56250D01*
D158*
X60000Y90000D02*
G03*
X60000Y90000I-2000J0D01*
G01*
X-55998Y5000D02*
G03*
X-55998Y5000I-2003J0D01*
G01*
X-56000Y90000D02*
G03*
X-56000Y90000I-2000J0D01*
G01*
X60000Y5000D02*
G03*
X60000Y5000I-2000J0D01*
G01*
D159*
X-50700Y90500D02*
D03*
D162*
X5080Y39370D02*
D03*
X27940D02*
D03*
X-50800D02*
D03*
X-27940D02*
D03*
X0Y41910D02*
D03*
Y39370D02*
D03*
X-22860D02*
D03*
Y41910D02*
D03*
D164*
X-25400Y74860D02*
D03*
Y68700D02*
D03*
D166*
X50340Y57200D02*
D03*
D167*
X-17555Y87710D02*
D03*
X-10545D02*
D03*
X-7855D02*
D03*
X-845D02*
D03*
D168*
X-16300Y90200D02*
D03*
X-6600D02*
D03*
D170*
X-43050Y82850D02*
D03*
X-33100Y89100D02*
D03*
X-21900Y85100D02*
D03*
X-44800Y80400D02*
D03*
X53156Y62344D02*
D03*
X-41300Y84600D02*
D03*
X51400Y64100D02*
D03*
X16900Y81100D02*
D03*
X3900Y80100D02*
D03*
X30600Y80200D02*
D03*
X37500Y73900D02*
D03*
X41273Y77190D02*
D03*
X28200Y82500D02*
D03*
X25900Y86000D02*
D03*
X52500Y80300D02*
D03*
Y81800D02*
D03*
X39800Y75300D02*
D03*
X34900D02*
D03*
Y76201D02*
D03*
X42173Y73900D02*
D03*
X43900Y76200D02*
D03*
X62975Y59725D02*
D03*
X59500Y53100D02*
D03*
X56803Y59703D02*
D03*
X36975Y82225D02*
D03*
X36150D02*
D03*
X37297Y74700D02*
D03*
X25427Y82200D02*
D03*
X24900Y81300D02*
D03*
X-4500Y77700D02*
D03*
X56800Y80500D02*
D03*
Y81803D02*
D03*
Y83103D02*
D03*
Y84300D02*
D03*
X62400Y79200D02*
D03*
X51500Y86700D02*
D03*
X52500D02*
D03*
X43800Y74700D02*
D03*
X35325Y83600D02*
D03*
Y85250D02*
D03*
X34225Y81125D02*
D03*
X45400Y49500D02*
D03*
D174*
X-26735Y74847D02*
D03*
X-47735Y26847D02*
D03*
X-28235Y29847D02*
D03*
X-29735Y68847D02*
D03*
X-41735Y26847D02*
D03*
X24265Y32847D02*
D03*
X-20735Y62847D02*
D03*
X-53735Y56847D02*
D03*
X4765Y77847D02*
D03*
X-55235Y89847D02*
D03*
X-40235Y5847D02*
D03*
X27265Y20847D02*
D03*
X-40235Y41847D02*
D03*
X-64235Y29847D02*
D03*
X-49235Y23847D02*
D03*
X-37235Y5847D02*
D03*
X63265Y44847D02*
D03*
X4765Y29847D02*
D03*
X40765Y5847D02*
D03*
X58765Y77847D02*
D03*
X-37235Y83847D02*
D03*
X-17735Y2847D02*
D03*
X-50735Y32847D02*
D03*
X-34235Y59847D02*
D03*
X-62735Y8847D02*
D03*
X21265Y38847D02*
D03*
X18265Y14847D02*
D03*
X-50735Y62847D02*
D03*
X36265Y8847D02*
D03*
X61765Y5847D02*
D03*
X-62735Y14847D02*
D03*
X-35735Y44847D02*
D03*
X-2735Y68847D02*
D03*
X-5735Y26847D02*
D03*
X-2735D02*
D03*
X15265Y50847D02*
D03*
X57265Y14847D02*
D03*
X-22235Y17847D02*
D03*
X-23735Y8847D02*
D03*
X-59735Y38847D02*
D03*
X-28235Y59847D02*
D03*
X6265Y2847D02*
D03*
X-35735Y38847D02*
D03*
X13765Y23847D02*
D03*
X64765Y11847D02*
D03*
X-29735Y44847D02*
D03*
X-1235Y53847D02*
D03*
X-40235Y89847D02*
D03*
X-26735Y14847D02*
D03*
X16765Y11847D02*
D03*
Y59847D02*
D03*
X-62735Y44847D02*
D03*
X-61235Y29847D02*
D03*
X3265Y14847D02*
D03*
X21265D02*
D03*
X-49235Y71847D02*
D03*
X3265Y8847D02*
D03*
X-11735Y14847D02*
D03*
X-8735Y74847D02*
D03*
X-47735Y62847D02*
D03*
X63265Y56847D02*
D03*
X52765Y11847D02*
D03*
X-64235Y71847D02*
D03*
X-61235Y83847D02*
D03*
X-11735Y2847D02*
D03*
X-64235Y77847D02*
D03*
X-31235Y47847D02*
D03*
X19765Y29847D02*
D03*
X55765Y11847D02*
D03*
X9265Y2847D02*
D03*
X-59735Y20847D02*
D03*
X-26735Y8847D02*
D03*
X-13235Y71847D02*
D03*
X-17735Y62847D02*
D03*
X40765Y53847D02*
D03*
X6265Y20847D02*
D03*
X-19235Y5847D02*
D03*
X-13235Y23847D02*
D03*
X-49235Y29847D02*
D03*
X-32735Y74847D02*
D03*
X42265Y38847D02*
D03*
X-14735Y68847D02*
D03*
X-2735Y14847D02*
D03*
X10765Y59847D02*
D03*
X-28235Y17847D02*
D03*
X-46235Y47847D02*
D03*
X13765Y59847D02*
D03*
X-10235Y83847D02*
D03*
X12265Y20847D02*
D03*
X16765Y17847D02*
D03*
X-31235Y11847D02*
D03*
X9265Y68847D02*
D03*
X-5735Y86847D02*
D03*
X-2735Y2847D02*
D03*
X-50735Y86847D02*
D03*
X-43235Y5847D02*
D03*
X-56735Y2847D02*
D03*
X-52235Y65847D02*
D03*
X-43235Y59847D02*
D03*
X10765Y35847D02*
D03*
X-58235Y23847D02*
D03*
X61765Y47847D02*
D03*
X-61235Y89847D02*
D03*
X30265Y38847D02*
D03*
X25765Y29847D02*
D03*
X-53735Y68847D02*
D03*
X-58235Y29847D02*
D03*
X43765Y11847D02*
D03*
X-19235D02*
D03*
X61765Y23847D02*
D03*
X-35735Y14847D02*
D03*
X4765Y5847D02*
D03*
X19765Y35847D02*
D03*
X1765Y17847D02*
D03*
X-38735Y26847D02*
D03*
X-37235Y89847D02*
D03*
X-8735Y14847D02*
D03*
X1765Y47847D02*
D03*
X-43235Y35847D02*
D03*
X43765Y53847D02*
D03*
X-16235Y23847D02*
D03*
X-35735Y8847D02*
D03*
X-16235Y11847D02*
D03*
X19765Y17847D02*
D03*
X24265Y26847D02*
D03*
X-37235Y11847D02*
D03*
X-11735Y44847D02*
D03*
X43765Y5847D02*
D03*
X12265Y32847D02*
D03*
X61765Y29847D02*
D03*
X-65735Y86847D02*
D03*
X63265D02*
D03*
X60265Y62847D02*
D03*
X-61235Y65847D02*
D03*
X-26735Y38847D02*
D03*
X-38735Y44847D02*
D03*
X15265Y56847D02*
D03*
X-40235Y47847D02*
D03*
X55765Y5847D02*
D03*
X-41735Y44847D02*
D03*
X16765Y35847D02*
D03*
X28765Y23847D02*
D03*
X61765Y11847D02*
D03*
X-22235Y35847D02*
D03*
X6265Y26847D02*
D03*
X-64235Y41847D02*
D03*
X13765Y29847D02*
D03*
X-43235Y83847D02*
D03*
X-10235Y5847D02*
D03*
X1765Y29847D02*
D03*
X-58235Y77847D02*
D03*
X-46235Y59847D02*
D03*
X22765Y29847D02*
D03*
X42265Y62847D02*
D03*
X64765Y5847D02*
D03*
X51265Y38847D02*
D03*
X42265Y2847D02*
D03*
X-62735Y32847D02*
D03*
X-64235Y59847D02*
D03*
X-2735Y44847D02*
D03*
X-32735Y14847D02*
D03*
X-61235Y35847D02*
D03*
Y59847D02*
D03*
X-29735Y26847D02*
D03*
X-11735Y74847D02*
D03*
X13765Y89847D02*
D03*
X-20735Y68847D02*
D03*
X-34235Y71847D02*
D03*
Y83847D02*
D03*
X63265Y26847D02*
D03*
X1765Y53847D02*
D03*
X61765Y17847D02*
D03*
X18265Y8847D02*
D03*
X-53735Y38847D02*
D03*
X45265Y44847D02*
D03*
X-5735Y32847D02*
D03*
X7765Y5847D02*
D03*
X-22235Y71847D02*
D03*
X4765Y59847D02*
D03*
X-29735Y32847D02*
D03*
X-62735Y86847D02*
D03*
X60265Y8847D02*
D03*
X-26735Y20847D02*
D03*
X-16235Y71847D02*
D03*
X-31235Y59847D02*
D03*
X27265Y14847D02*
D03*
X-46235Y23847D02*
D03*
X58765Y35847D02*
D03*
X-14735Y44847D02*
D03*
X-29735Y2847D02*
D03*
X63265Y8847D02*
D03*
X-10235Y35847D02*
D03*
X-17735Y26847D02*
D03*
X-62735Y50847D02*
D03*
X-64235Y5847D02*
D03*
X64765Y71847D02*
D03*
X58765Y11847D02*
D03*
X-1235Y29847D02*
D03*
X24265Y14847D02*
D03*
X15265Y2847D02*
D03*
X-13235Y41847D02*
D03*
X-19235Y89847D02*
D03*
X-29735Y14847D02*
D03*
X-56735Y80847D02*
D03*
X-65735Y74847D02*
D03*
X-43235Y53847D02*
D03*
X12265Y68847D02*
D03*
X-62735Y62847D02*
D03*
X-40235Y35847D02*
D03*
X-7235Y53847D02*
D03*
X64765Y59847D02*
D03*
X-4235Y23847D02*
D03*
X-49235Y59847D02*
D03*
X-19235Y17847D02*
D03*
X3265Y20847D02*
D03*
X-34235Y47847D02*
D03*
X-53735Y26847D02*
D03*
X-65735Y20847D02*
D03*
X-16235Y41847D02*
D03*
X-23735Y32847D02*
D03*
X60265Y38847D02*
D03*
X-65735Y68847D02*
D03*
X9265Y20847D02*
D03*
X-37235Y23847D02*
D03*
X-34235D02*
D03*
X-62735Y56847D02*
D03*
X-41735Y2847D02*
D03*
X-40235Y11847D02*
D03*
X33265Y26847D02*
D03*
X-52235Y29847D02*
D03*
X31765D02*
D03*
X39265Y38847D02*
D03*
X37765Y29847D02*
D03*
X52765Y5847D02*
D03*
X-64235Y47847D02*
D03*
X-47735Y8847D02*
D03*
X-65735Y32847D02*
D03*
X39265Y8847D02*
D03*
X27265Y50847D02*
D03*
X-58235Y65847D02*
D03*
X55765D02*
D03*
X45265Y8847D02*
D03*
X-34235Y17847D02*
D03*
X1765Y23847D02*
D03*
X-20735Y14847D02*
D03*
X49765Y11847D02*
D03*
X-25235Y17847D02*
D03*
X-41735Y8847D02*
D03*
X-62735Y38847D02*
D03*
X12265D02*
D03*
X16765Y5847D02*
D03*
X21265Y26847D02*
D03*
X9265Y38847D02*
D03*
X7765Y11847D02*
D03*
X-62735Y26847D02*
D03*
X57265Y32847D02*
D03*
X-1235Y35847D02*
D03*
X7765D02*
D03*
X-34235Y77847D02*
D03*
X-17735Y68847D02*
D03*
X24265Y8847D02*
D03*
X25765Y23847D02*
D03*
X-65735Y14847D02*
D03*
X42265Y8847D02*
D03*
X-44735Y26847D02*
D03*
X-25235Y5847D02*
D03*
X-31235Y83847D02*
D03*
X49765Y5847D02*
D03*
X24265Y2847D02*
D03*
X33265Y32847D02*
D03*
X-11735Y8847D02*
D03*
X-16235Y77847D02*
D03*
X-47735Y32847D02*
D03*
X-62735Y68847D02*
D03*
X-55235Y11847D02*
D03*
X57265Y44847D02*
D03*
X-32735Y80847D02*
D03*
X15265Y20847D02*
D03*
X-64235Y11847D02*
D03*
X54265Y56847D02*
D03*
X27265Y2847D02*
D03*
X15265Y32847D02*
D03*
X-7235Y83847D02*
D03*
X-16235Y17847D02*
D03*
X-17735Y20847D02*
D03*
X-31235Y23847D02*
D03*
X63265Y20847D02*
D03*
X25765Y5847D02*
D03*
X-37235Y41847D02*
D03*
X64765Y65847D02*
D03*
X-58235Y59847D02*
D03*
X-40235Y23847D02*
D03*
X-59735Y80847D02*
D03*
X-47735Y44847D02*
D03*
X-61235Y5847D02*
D03*
X-35735Y2847D02*
D03*
X-50735Y68847D02*
D03*
X-65735Y26847D02*
D03*
X37765Y11847D02*
D03*
X33265Y2847D02*
D03*
X-5735Y68847D02*
D03*
X-31235Y71847D02*
D03*
X37765Y53847D02*
D03*
X-13235Y77847D02*
D03*
X-14735Y26847D02*
D03*
X-11735Y62847D02*
D03*
X-44735Y8847D02*
D03*
X-32735Y20847D02*
D03*
X3265Y56847D02*
D03*
X-31235Y29847D02*
D03*
X57265Y56847D02*
D03*
X-58235Y47847D02*
D03*
X-41735Y68847D02*
D03*
X61765Y35847D02*
D03*
X48265Y2847D02*
D03*
X-50735Y26847D02*
D03*
X-43235Y47847D02*
D03*
X7765Y53847D02*
D03*
X-7235Y59847D02*
D03*
X-37235Y47847D02*
D03*
X28765D02*
D03*
X24265Y50847D02*
D03*
X13765Y17847D02*
D03*
X-32735Y68847D02*
D03*
X-22235Y89847D02*
D03*
X-2735Y80847D02*
D03*
X-5735Y8847D02*
D03*
X25765Y53847D02*
D03*
X-8735Y80847D02*
D03*
X54265Y26847D02*
D03*
X-47735Y68847D02*
D03*
X-34235Y11847D02*
D03*
X-8735Y8847D02*
D03*
X-62735Y80847D02*
D03*
X-58235Y71847D02*
D03*
X-16235Y29847D02*
D03*
X-64235Y83847D02*
D03*
X-49235Y47847D02*
D03*
X16765Y23847D02*
D03*
X-8735Y38847D02*
D03*
X-35735Y68847D02*
D03*
X-65735Y8847D02*
D03*
X-34235Y35847D02*
D03*
X265Y2847D02*
D03*
X-22235Y23847D02*
D03*
X21265Y50847D02*
D03*
X-20735Y80847D02*
D03*
X25765Y11847D02*
D03*
X63265Y50847D02*
D03*
X-59735Y62847D02*
D03*
X60265Y2847D02*
D03*
X-43235Y29847D02*
D03*
X-65735Y2847D02*
D03*
X18265Y50847D02*
D03*
X-1235Y83847D02*
D03*
X-5735Y74847D02*
D03*
X-65735Y38847D02*
D03*
Y44847D02*
D03*
X-32735Y26847D02*
D03*
X10765Y53847D02*
D03*
X21265Y2847D02*
D03*
X3265Y26847D02*
D03*
X-7235Y35847D02*
D03*
X-10235Y23847D02*
D03*
X9265Y32847D02*
D03*
X18265Y38847D02*
D03*
X7765Y29847D02*
D03*
X51265Y80847D02*
D03*
X-59735Y50847D02*
D03*
X15265Y14847D02*
D03*
X-46235Y65847D02*
D03*
X-23735Y26847D02*
D03*
X9265D02*
D03*
X36265Y2847D02*
D03*
X-38735Y68847D02*
D03*
X46765Y5847D02*
D03*
X7765Y23847D02*
D03*
X265Y14847D02*
D03*
X-26735Y32847D02*
D03*
X-19235Y35847D02*
D03*
X-49235Y53847D02*
D03*
X7765Y17847D02*
D03*
X63265Y14847D02*
D03*
X18265Y2847D02*
D03*
X-37235Y53847D02*
D03*
X-7235Y71847D02*
D03*
X-55235Y5847D02*
D03*
X-19235Y29847D02*
D03*
X-14735Y20847D02*
D03*
X-28235Y11847D02*
D03*
X6265Y32847D02*
D03*
X-37235Y71847D02*
D03*
X265Y20847D02*
D03*
X-29735Y38847D02*
D03*
X-22235Y11847D02*
D03*
X27265Y26847D02*
D03*
X-47735Y38847D02*
D03*
X19765Y53847D02*
D03*
X-52235Y83847D02*
D03*
X-59735Y86847D02*
D03*
X-64235Y65847D02*
D03*
X1765Y35847D02*
D03*
X-28235Y77847D02*
D03*
X46765Y11847D02*
D03*
X-26735Y56847D02*
D03*
Y86847D02*
D03*
X52765Y77847D02*
D03*
X-34235Y29847D02*
D03*
X-59735Y74847D02*
D03*
X-35735Y62847D02*
D03*
X63265Y38847D02*
D03*
X-28235Y71847D02*
D03*
X9265Y8847D02*
D03*
X-31235Y53847D02*
D03*
X-8735Y26847D02*
D03*
X64765Y89847D02*
D03*
X-4235Y17847D02*
D03*
X-44735Y62847D02*
D03*
X39265Y32847D02*
D03*
X-23735Y2847D02*
D03*
X36265Y32847D02*
D03*
X-19235Y23847D02*
D03*
X-44735Y2847D02*
D03*
X-58235Y17847D02*
D03*
X4765Y11847D02*
D03*
X-61235Y71847D02*
D03*
X-17735Y44847D02*
D03*
X-32735Y2847D02*
D03*
X18265Y74847D02*
D03*
X64765Y47847D02*
D03*
X-25235Y23847D02*
D03*
X-22235Y29847D02*
D03*
X-38735Y38847D02*
D03*
X-10235Y89847D02*
D03*
X-16235Y83847D02*
D03*
X-10235Y17847D02*
D03*
X-49235Y35847D02*
D03*
X-1235Y17847D02*
D03*
X-41735Y14847D02*
D03*
X-25235Y35847D02*
D03*
X-44735Y68847D02*
D03*
X63265Y32847D02*
D03*
X54265Y2847D02*
D03*
X-11735Y26847D02*
D03*
X60265Y32847D02*
D03*
X-5735Y44847D02*
D03*
X-59735Y2847D02*
D03*
X-4235Y29847D02*
D03*
X34765D02*
D03*
X-44735Y44847D02*
D03*
X-26735Y2847D02*
D03*
X-14735Y62847D02*
D03*
X-58235Y11847D02*
D03*
X-53735Y62847D02*
D03*
X-2735Y38847D02*
D03*
X-64235Y23847D02*
D03*
X-23735Y20847D02*
D03*
X22765Y23847D02*
D03*
X57265Y38847D02*
D03*
X-61235Y53847D02*
D03*
X-65735Y50847D02*
D03*
X-4235Y5847D02*
D03*
X64765Y53847D02*
D03*
X-41735Y80847D02*
D03*
X-46235Y41847D02*
D03*
X61765Y65847D02*
D03*
X-8735Y68847D02*
D03*
X-40235Y17847D02*
D03*
X-46235Y35847D02*
D03*
X-8735Y32847D02*
D03*
X-11735Y80847D02*
D03*
Y32847D02*
D03*
X1765Y5847D02*
D03*
X-16235Y35847D02*
D03*
X-64235D02*
D03*
X21265Y32847D02*
D03*
X-13235Y17847D02*
D03*
X12265Y8847D02*
D03*
X51265D02*
D03*
X-43235Y41847D02*
D03*
X-4235Y11847D02*
D03*
X-52235Y59847D02*
D03*
X-61235Y23847D02*
D03*
X63265Y68847D02*
D03*
X-28235Y23847D02*
D03*
X-23735Y14847D02*
D03*
X1765Y11847D02*
D03*
X64765Y35847D02*
D03*
X6265Y8847D02*
D03*
X-59735Y56847D02*
D03*
X63265Y74847D02*
D03*
X-52235Y47847D02*
D03*
X10765Y11847D02*
D03*
X265Y8847D02*
D03*
X4765Y83847D02*
D03*
X-1235Y11847D02*
D03*
X-65735Y62847D02*
D03*
X-14735Y8847D02*
D03*
X-5735Y2847D02*
D03*
X-47735Y74847D02*
D03*
X-1235Y5847D02*
D03*
X54265Y8847D02*
D03*
X6265Y14847D02*
D03*
X57265Y20847D02*
D03*
X-17735Y38847D02*
D03*
X-5735D02*
D03*
X55765Y35847D02*
D03*
X30265Y68847D02*
D03*
X-32735Y62847D02*
D03*
X54265Y38847D02*
D03*
X6265Y68847D02*
D03*
X-61235Y17847D02*
D03*
X-11735Y68847D02*
D03*
X46765Y83847D02*
D03*
X-58235D02*
D03*
X265Y32847D02*
D03*
X-52235Y5847D02*
D03*
X-46235Y53847D02*
D03*
X-17735Y74847D02*
D03*
X-26735Y68847D02*
D03*
X-10235Y29847D02*
D03*
X-5735Y14847D02*
D03*
X3265Y2847D02*
D03*
X-26735Y62847D02*
D03*
X-20735Y2847D02*
D03*
X-26735Y26847D02*
D03*
X25765Y35847D02*
D03*
X-37235Y77847D02*
D03*
X18265Y20847D02*
D03*
X-59735Y44847D02*
D03*
X-13235Y5847D02*
D03*
X57265Y8847D02*
D03*
X15265Y80847D02*
D03*
X16765Y29847D02*
D03*
X-13235Y35847D02*
D03*
X-17735Y14847D02*
D03*
X-20735Y44847D02*
D03*
X-41735Y38847D02*
D03*
X-64235Y53847D02*
D03*
X-25235Y29847D02*
D03*
X-49235Y65847D02*
D03*
X-28235Y5847D02*
D03*
X-2735Y86847D02*
D03*
X-38735Y8847D02*
D03*
X-25235Y89847D02*
D03*
X-44735Y38847D02*
D03*
X51265Y14847D02*
D03*
X-7235Y5847D02*
D03*
X-20735Y38847D02*
D03*
X-56735Y8847D02*
D03*
X-37235Y35847D02*
D03*
X30265Y8847D02*
D03*
X51265Y2847D02*
D03*
X-2735Y8847D02*
D03*
X-5735Y20847D02*
D03*
X58765Y47847D02*
D03*
X-31235Y17847D02*
D03*
X30265Y2847D02*
D03*
X36265Y50847D02*
D03*
X30265Y32847D02*
D03*
X-23735Y62847D02*
D03*
X-41735Y32847D02*
D03*
X-52235Y71847D02*
D03*
X34765Y5847D02*
D03*
X10765D02*
D03*
X13765Y11847D02*
D03*
X55765Y71847D02*
D03*
X-43235Y65847D02*
D03*
X-14735Y32847D02*
D03*
Y14847D02*
D03*
X-50735Y2847D02*
D03*
X-16235Y5847D02*
D03*
X28765Y35847D02*
D03*
X-16235Y59847D02*
D03*
X61765Y89847D02*
D03*
X-17735Y8847D02*
D03*
X-4235Y35847D02*
D03*
X12265Y80847D02*
D03*
X24265Y38847D02*
D03*
X-58235Y41847D02*
D03*
Y53847D02*
D03*
X-41735Y62847D02*
D03*
X10765Y23847D02*
D03*
X-7235Y29847D02*
D03*
X1765Y59847D02*
D03*
X10765Y29847D02*
D03*
X-10235Y77847D02*
D03*
X25765Y71847D02*
D03*
X36265Y56847D02*
D03*
X60265Y44847D02*
D03*
X-20735Y26847D02*
D03*
X15265Y8847D02*
D03*
X16765Y65847D02*
D03*
X-44735Y32847D02*
D03*
X-53735Y86847D02*
D03*
X-40235Y29847D02*
D03*
X-55235Y35847D02*
D03*
X39265Y2847D02*
D03*
X10765Y17847D02*
D03*
X-47735Y2847D02*
D03*
X-29735Y74847D02*
D03*
X-52235Y23847D02*
D03*
X-29735Y62847D02*
D03*
X-52235Y53847D02*
D03*
X54265Y14847D02*
D03*
X43765Y65847D02*
D03*
X-26735Y80847D02*
D03*
X-52235Y89847D02*
D03*
X21265Y74847D02*
D03*
X-61235Y77847D02*
D03*
X-14735Y2847D02*
D03*
X-10235Y71847D02*
D03*
X27265Y32847D02*
D03*
X31765Y5847D02*
D03*
X63265Y62847D02*
D03*
X-14735Y86847D02*
D03*
X-28235Y35847D02*
D03*
X-8735Y44847D02*
D03*
X-31235Y5847D02*
D03*
X-46235D02*
D03*
X-7235Y11847D02*
D03*
X-44735Y20847D02*
D03*
X-41735Y74847D02*
D03*
X64765Y77847D02*
D03*
X-65735Y56847D02*
D03*
X-62735Y20847D02*
D03*
X15265Y26847D02*
D03*
X31765Y23847D02*
D03*
X55765Y47847D02*
D03*
X-53735Y2847D02*
D03*
X-64235Y17847D02*
D03*
X-41735Y20847D02*
D03*
X9265Y14847D02*
D03*
X-7235Y77847D02*
D03*
X-35735Y80847D02*
D03*
X-8735Y2847D02*
D03*
X-62735Y74847D02*
D03*
X64765Y23847D02*
D03*
X-64235Y89847D02*
D03*
X-31235Y35847D02*
D03*
X45265Y2847D02*
D03*
X61765Y41847D02*
D03*
X18265Y32847D02*
D03*
X-20735Y86847D02*
D03*
X7765Y59847D02*
D03*
X-59735Y32847D02*
D03*
X-61235Y41847D02*
D03*
X22765Y35847D02*
D03*
X-38735Y20847D02*
D03*
X13765Y5847D02*
D03*
X-56735Y86847D02*
D03*
X4765Y23847D02*
D03*
X54265Y32847D02*
D03*
X-59735Y68847D02*
D03*
X-44735Y74847D02*
D03*
X-35735Y32847D02*
D03*
X21265Y8847D02*
D03*
X-55235Y41847D02*
D03*
X27265Y8847D02*
D03*
X-20735D02*
D03*
X-17735Y80847D02*
D03*
X-43235Y77847D02*
D03*
X28765Y29847D02*
D03*
X-35735Y26847D02*
D03*
X22765Y17847D02*
D03*
X-37235Y29847D02*
D03*
X37765Y5847D02*
D03*
X-20735Y20847D02*
D03*
X4765Y17847D02*
D03*
X57265Y2847D02*
D03*
X-65735Y80847D02*
D03*
X-29735D02*
D03*
X-8735Y20847D02*
D03*
X-58235Y35847D02*
D03*
X64765Y41847D02*
D03*
X-55235Y83847D02*
D03*
X30265Y26847D02*
D03*
X-59735Y8847D02*
D03*
Y26847D02*
D03*
X-31235Y77847D02*
D03*
X31765Y35847D02*
D03*
X48265Y8847D02*
D03*
X-61235Y11847D02*
D03*
X-59735Y14847D02*
D03*
X-20735Y32847D02*
D03*
X3265Y68847D02*
D03*
X4765Y35847D02*
D03*
X18265Y26847D02*
D03*
X64765Y17847D02*
D03*
X57265Y62847D02*
D03*
X-32735Y44847D02*
D03*
X40765Y11847D02*
D03*
X-14735Y74847D02*
D03*
X-38735Y2847D02*
D03*
Y14847D02*
D03*
X-1235Y59847D02*
D03*
X-46235Y29847D02*
D03*
X-29735Y20847D02*
D03*
X-61235Y47847D02*
D03*
X265Y68847D02*
D03*
X-7235Y23847D02*
D03*
X-13235Y29847D02*
D03*
X-32735Y8847D02*
D03*
X-38735Y32847D02*
D03*
X-11735Y20847D02*
D03*
X3265Y32847D02*
D03*
X-13235Y11847D02*
D03*
X-35735Y20847D02*
D03*
X-14735Y38847D02*
D03*
X12265Y2847D02*
D03*
X24265Y20847D02*
D03*
X-52235Y35847D02*
D03*
X-22235Y5847D02*
D03*
X55765Y17847D02*
D03*
X-55235Y29847D02*
D03*
X265Y26847D02*
D03*
X12265Y14847D02*
D03*
X6265Y38847D02*
D03*
X-10235Y11847D02*
D03*
X22765Y53847D02*
D03*
X-35735Y74847D02*
D03*
X-25235Y11847D02*
D03*
X-22235Y59847D02*
D03*
X-37235D02*
D03*
X12265Y26847D02*
D03*
X-2735Y32847D02*
D03*
X64765Y29847D02*
D03*
X13765Y35847D02*
D03*
X33265Y8847D02*
D03*
X31765Y71847D02*
D03*
X-40235Y65847D02*
D03*
X-53735Y32847D02*
D03*
X-32735D02*
D03*
X-20735Y74847D02*
D03*
X-17735Y32847D02*
D03*
X45265Y50847D02*
D03*
X-29735Y8847D02*
D03*
X-27600Y82700D02*
D03*
X-41200Y82100D02*
D03*
X5300Y84400D02*
D03*
X8500Y84531D02*
D03*
X5300Y88200D02*
D03*
X8200D02*
D03*
X18500Y84300D02*
D03*
X21400D02*
D03*
X21300Y88100D02*
D03*
X18400Y88000D02*
D03*
X-47500Y78600D02*
D03*
X-48900Y79400D02*
D03*
Y80400D02*
D03*
X-55400Y9100D02*
D03*
X-55000Y9600D02*
D03*
X24300Y48700D02*
D03*
X24200Y45800D02*
D03*
X-44900Y83700D02*
D03*
X-46300D02*
D03*
X42937Y20335D02*
D03*
X48400Y23600D02*
D03*
Y22800D02*
D03*
X49000Y21700D02*
D03*
Y21000D02*
D03*
Y23100D02*
D03*
Y22400D02*
D03*
X46900Y21700D02*
D03*
X47600D02*
D03*
X48300D02*
D03*
X47700Y23800D02*
D03*
X46300Y24100D02*
D03*
X45600D02*
D03*
X49000Y20300D02*
D03*
X44900Y23400D02*
D03*
X44200Y22700D02*
D03*
X44900D02*
D03*
Y22000D02*
D03*
X44200D02*
D03*
Y21300D02*
D03*
Y20600D02*
D03*
Y19900D02*
D03*
Y19200D02*
D03*
X60900Y44100D02*
D03*
X60200D02*
D03*
X60900Y43400D02*
D03*
X60200D02*
D03*
X60900Y42700D02*
D03*
X60200D02*
D03*
X60900Y42000D02*
D03*
X60200D02*
D03*
X32100Y40500D02*
D03*
X39300Y38100D02*
D03*
X38600D02*
D03*
X35300Y37400D02*
D03*
X35100Y38100D02*
D03*
X-52200Y77800D02*
D03*
X-55400Y74900D02*
D03*
X47600Y72600D02*
D03*
X23100Y82500D02*
D03*
X10700Y82600D02*
D03*
X42952Y21007D02*
D03*
X48900Y50300D02*
D03*
X49900Y50900D02*
D03*
X49200D02*
D03*
X50300Y50300D02*
D03*
X49600D02*
D03*
X10000Y81000D02*
D03*
Y80300D02*
D03*
Y79600D02*
D03*
X9300D02*
D03*
Y81000D02*
D03*
X8600D02*
D03*
X23700Y79900D02*
D03*
X24100Y80600D02*
D03*
X23700Y81100D02*
D03*
X39501Y19301D02*
D03*
X39300Y19900D02*
D03*
X49400Y40300D02*
D03*
X33300Y77200D02*
D03*
X32600Y78000D02*
D03*
X23500Y83100D02*
D03*
X23800Y82500D02*
D03*
X9300Y80300D02*
D03*
X8600D02*
D03*
Y79600D02*
D03*
X23000Y81100D02*
D03*
X51300Y41600D02*
D03*
X38400Y21900D02*
D03*
X37000Y20600D02*
D03*
X37200Y21300D02*
D03*
X37000Y21900D02*
D03*
X37900Y21300D02*
D03*
X38000Y18000D02*
D03*
X42900Y48800D02*
D03*
X43600D02*
D03*
X44300D02*
D03*
X34000Y77200D02*
D03*
X55300Y46400D02*
D03*
X59500Y58000D02*
D03*
X30900Y90200D02*
D03*
X31000Y91700D02*
D03*
Y92400D02*
D03*
X-28100Y89900D02*
D03*
X52200Y69600D02*
D03*
Y68800D02*
D03*
Y68000D02*
D03*
X58800Y50700D02*
D03*
X60200D02*
D03*
X4100Y77300D02*
D03*
X3600Y78000D02*
D03*
X3100Y78800D02*
D03*
X1600D02*
D03*
X500Y78600D02*
D03*
X-3100Y72900D02*
D03*
X-3100Y73800D02*
D03*
Y74700D02*
D03*
X-3100Y75500D02*
D03*
X7600Y75500D02*
D03*
X6400Y76000D02*
D03*
X6800Y75400D02*
D03*
X6200Y69800D02*
D03*
X5500Y69800D02*
D03*
X4800Y69800D02*
D03*
X43900Y79100D02*
D03*
X43200D02*
D03*
X43900Y79800D02*
D03*
X30400Y77400D02*
D03*
Y78100D02*
D03*
Y78800D02*
D03*
Y79500D02*
D03*
X31800Y77400D02*
D03*
X31100D02*
D03*
Y78100D02*
D03*
Y78800D02*
D03*
Y79500D02*
D03*
X46700Y55600D02*
D03*
X51100Y54700D02*
D03*
X65900Y85500D02*
D03*
X62500Y85600D02*
D03*
X51100Y77700D02*
D03*
X52200Y67200D02*
D03*
X40800Y65200D02*
D03*
X43600Y70000D02*
D03*
X19000Y62300D02*
D03*
X22300Y63300D02*
D03*
X-7800Y63900D02*
D03*
X-3200Y63800D02*
D03*
X300Y63900D02*
D03*
X3200D02*
D03*
X12300D02*
D03*
X9400D02*
D03*
X6300D02*
D03*
X25000Y67300D02*
D03*
X28900Y63300D02*
D03*
X32300Y53800D02*
D03*
X8500Y48800D02*
D03*
X-40200Y52100D02*
D03*
X-10700Y52000D02*
D03*
X-7900Y48700D02*
D03*
X-14800Y49300D02*
D03*
X-24700Y46700D02*
D03*
X-25400Y43200D02*
D03*
X2500Y43300D02*
D03*
X57300Y24700D02*
D03*
Y22900D02*
D03*
X-53300Y50200D02*
D03*
X-53700Y45800D02*
D03*
X-14800Y46800D02*
D03*
X-8700D02*
D03*
X9500Y45800D02*
D03*
X17200D02*
D03*
X47300Y49100D02*
D03*
X49600Y52400D02*
D03*
X51400D02*
D03*
X48869Y60408D02*
D03*
X46700Y58900D02*
D03*
X46200Y61100D02*
D03*
X37500Y61800D02*
D03*
X33600Y64300D02*
D03*
X35900Y65200D02*
D03*
Y66700D02*
D03*
X37400D02*
D03*
Y68600D02*
D03*
Y72600D02*
D03*
X37900Y84200D02*
D03*
Y83500D02*
D03*
X30900Y86700D02*
D03*
X38200Y89100D02*
D03*
X37500D02*
D03*
X43000Y91100D02*
D03*
X49400D02*
D03*
Y91800D02*
D03*
Y92500D02*
D03*
X43000Y91800D02*
D03*
Y92500D02*
D03*
X-21400Y92000D02*
D03*
Y91300D02*
D03*
Y90500D02*
D03*
X-24600D02*
D03*
Y91300D02*
D03*
Y92000D02*
D03*
X-32100Y89900D02*
D03*
X-39300Y92300D02*
D03*
X-40000Y92300D02*
D03*
X-40700Y92300D02*
D03*
X-41200Y82800D02*
D03*
X-41200Y83500D02*
D03*
X-27600Y83400D02*
D03*
X-27600Y84100D02*
D03*
X-28900Y89900D02*
D03*
X-20900Y89100D02*
D03*
X-22300D02*
D03*
X-21600D02*
D03*
X-21200Y82300D02*
D03*
X1600Y83300D02*
D03*
X1300Y84300D02*
D03*
X4300Y88100D02*
D03*
X4000Y84400D02*
D03*
X9500Y84700D02*
D03*
Y88100D02*
D03*
X17400Y88100D02*
D03*
X17200Y84300D02*
D03*
X22500Y84500D02*
D03*
X22600Y88000D02*
D03*
X66000Y81800D02*
D03*
X66000Y83000D02*
D03*
X56800Y60700D02*
D03*
X56800Y61400D02*
D03*
Y62100D02*
D03*
X59500Y50700D02*
D03*
X52600Y47700D02*
D03*
X51700D02*
D03*
X54100Y44300D02*
D03*
X43200Y79800D02*
D03*
X30900Y89500D02*
D03*
Y88000D02*
D03*
X27700Y88300D02*
D03*
X36700Y84700D02*
D03*
X32600Y77200D02*
D03*
X34000Y78000D02*
D03*
X33300D02*
D03*
X43200Y78400D02*
D03*
X40300Y77700D02*
D03*
X36000Y89100D02*
D03*
X35300D02*
D03*
X36150Y83050D02*
D03*
X37250Y84150D02*
D03*
X36117Y84153D02*
D03*
X36700Y83600D02*
D03*
X35325Y84425D02*
D03*
X41700Y17500D02*
D03*
Y16800D02*
D03*
X35800Y23900D02*
D03*
X36000Y21900D02*
D03*
X34600D02*
D03*
X35300D02*
D03*
X34400Y23900D02*
D03*
X35100D02*
D03*
X37700Y21900D02*
D03*
X-53000Y21700D02*
D03*
X-52000D02*
D03*
X-50500Y22200D02*
D03*
X-51000Y21700D02*
D03*
X-52500Y20200D02*
D03*
X-50500Y21200D02*
D03*
X-51000Y20700D02*
D03*
X-47000Y21700D02*
D03*
X-46500Y22200D02*
D03*
X-50000Y21700D02*
D03*
Y22700D02*
D03*
X-49500Y22200D02*
D03*
Y23200D02*
D03*
X-46500D02*
D03*
X-47000Y22700D02*
D03*
X37900Y44600D02*
D03*
Y45300D02*
D03*
X42200Y28300D02*
D03*
Y26200D02*
D03*
X39500Y27300D02*
D03*
X40200D02*
D03*
Y26100D02*
D03*
X39900Y26700D02*
D03*
X39500Y18000D02*
D03*
X38300Y18600D02*
D03*
X38800Y18200D02*
D03*
X39300Y18600D02*
D03*
X48500Y50900D02*
D03*
X53400Y44300D02*
D03*
X52700Y44400D02*
D03*
X51900D02*
D03*
X49000Y44700D02*
D03*
Y45400D02*
D03*
X49700Y44700D02*
D03*
X54600Y46400D02*
D03*
X54800Y45800D02*
D03*
X55500D02*
D03*
X54100Y50400D02*
D03*
X53400Y50400D02*
D03*
X52700D02*
D03*
X52000Y50400D02*
D03*
X52200Y49800D02*
D03*
X53000Y49800D02*
D03*
X53700D02*
D03*
X54400D02*
D03*
X54100Y49200D02*
D03*
X54400Y48600D02*
D03*
X54100Y47900D02*
D03*
X53400D02*
D03*
X53700Y48600D02*
D03*
X53400Y49200D02*
D03*
X54100Y42900D02*
D03*
Y43600D02*
D03*
X53400D02*
D03*
Y42900D02*
D03*
X35100Y44600D02*
D03*
X35800D02*
D03*
X36500Y44600D02*
D03*
X37200D02*
D03*
Y45300D02*
D03*
X36500Y45300D02*
D03*
X35800Y45300D02*
D03*
X35100D02*
D03*
X44300Y49600D02*
D03*
X43600D02*
D03*
X42900D02*
D03*
X47300Y39600D02*
D03*
X55400Y41600D02*
D03*
X54700D02*
D03*
X55400Y42300D02*
D03*
X54700D02*
D03*
X50600Y41600D02*
D03*
X51300Y42300D02*
D03*
X50600D02*
D03*
X45900Y39600D02*
D03*
X44500Y40300D02*
D03*
X45200Y39600D02*
D03*
Y40300D02*
D03*
X44500Y39600D02*
D03*
X45900Y40300D02*
D03*
X48700D02*
D03*
X50100D02*
D03*
X48700Y39600D02*
D03*
X49400D02*
D03*
X50100D02*
D03*
X48000D02*
D03*
X46600D02*
D03*
X48000Y40300D02*
D03*
X47300Y40300D02*
D03*
X46600Y40300D02*
D03*
X-51500Y21200D02*
D03*
X-52500D02*
D03*
X-53000Y20700D02*
D03*
X-50500Y20200D02*
D03*
X-48500Y23200D02*
D03*
X-47500D02*
D03*
X-47986Y22708D02*
D03*
X-49000Y22700D02*
D03*
X24100Y81700D02*
D03*
X23300D02*
D03*
X39200Y26500D02*
D03*
X42200Y26900D02*
D03*
Y29000D02*
D03*
X34600Y23300D02*
D03*
Y22600D02*
D03*
X35300D02*
D03*
Y23300D02*
D03*
X40300Y16800D02*
D03*
X41000D02*
D03*
Y17500D02*
D03*
X40300D02*
D03*
X51100Y28300D02*
D03*
X50100D02*
D03*
X49100D02*
D03*
X48100D02*
D03*
X47100D02*
D03*
X42200Y27600D02*
D03*
X38800Y19100D02*
D03*
X9500Y89800D02*
D03*
X10000Y82600D02*
D03*
Y83300D02*
D03*
D175*
Y78900D02*
X30900Y58000D01*
Y40000D02*
Y58000D01*
Y40000D02*
X36700Y34200D01*
X41203D01*
X43400Y32003D01*
Y22800D02*
Y32003D01*
Y22800D02*
X44200Y22000D01*
X43500Y17600D02*
X47998D01*
X50194Y19797D01*
Y23506D01*
X45800Y27900D02*
Y33600D01*
Y27900D02*
X50194Y23506D01*
X39243Y21857D02*
X43500Y17600D01*
X22600Y72100D02*
Y79300D01*
Y72100D02*
X33700Y61000D01*
Y41300D02*
Y61000D01*
X38100Y36900D02*
X42500D01*
X33700Y41300D02*
X38100Y36900D01*
X42500D02*
X45800Y33600D01*
D176*
X33300Y74400D02*
Y77200D01*
X33400Y74300D02*
X43400Y64300D01*
Y56000D02*
Y64300D01*
Y56000D02*
X48500Y50900D01*
D177*
X46900Y38000D02*
X48900D01*
X52700Y34200D01*
Y18900D02*
Y34200D01*
X39100Y15200D02*
X49000D01*
X52700Y18900D01*
M02*
