G04*
G04 #@! TF.GenerationSoftware,Altium Limited,Altium Designer,23.1.1 (15)*
G04*
G04 Layer_Color=8421504*
%FSLAX44Y44*%
%MOMM*%
G71*
G04*
G04 #@! TF.SameCoordinates,631E2AB2-323A-43FD-B920-02615E37C836*
G04*
G04*
G04 #@! TF.FilePolarity,Positive*
G04*
G01*
G75*
%ADD20R,0.5150X0.4500*%
%ADD21R,0.3000X0.5200*%
%ADD22R,0.6000X1.2000*%
%ADD23R,1.1500X0.6000*%
%ADD24R,0.3000X0.4500*%
%ADD25R,0.6000X1.2500*%
%ADD26R,1.7000X2.6000*%
%ADD27R,0.8500X0.4500*%
%ADD28R,0.4500X1.1000*%
%ADD29R,4.1000X3.5000*%
%ADD30R,1.2000X1.8000*%
%ADD31R,0.6000X1.5500*%
%ADD32R,1.7500X1.2500*%
%ADD33R,1.3500X0.9500*%
%ADD34R,0.7500X0.9000*%
%ADD35R,0.5200X0.5500*%
%ADD36R,2.7000X2.7000*%
%ADD37R,0.2000X0.8500*%
%ADD38R,0.8500X0.2000*%
%ADD39R,0.5000X0.4000*%
%ADD40R,0.9000X0.8000*%
%ADD41R,0.7000X1.0000*%
%ADD42R,0.7000X0.6000*%
%ADD43R,0.6000X0.6000*%
%ADD44R,0.3000X0.8000*%
%ADD45R,0.6000X2.6000*%
%ADD46R,0.8000X0.8000*%
%ADD47R,0.8500X0.6500*%
%ADD48R,0.9000X0.7500*%
%ADD49R,2.4000X0.7600*%
%ADD50R,0.8000X0.5500*%
G04:AMPARAMS|DCode=51|XSize=0.25mm|YSize=0.6mm|CornerRadius=0.05mm|HoleSize=0mm|Usage=FLASHONLY|Rotation=270.000|XOffset=0mm|YOffset=0mm|HoleType=Round|Shape=RoundedRectangle|*
%AMROUNDEDRECTD51*
21,1,0.2500,0.5000,0,0,270.0*
21,1,0.1500,0.6000,0,0,270.0*
1,1,0.1000,-0.2500,-0.0750*
1,1,0.1000,-0.2500,0.0750*
1,1,0.1000,0.2500,0.0750*
1,1,0.1000,0.2500,-0.0750*
%
%ADD51ROUNDEDRECTD51*%
%ADD52R,1.7029X2.6062*%
%ADD53C,0.2700*%
%ADD54R,2.2000X2.2000*%
%ADD55C,0.2500*%
G04:AMPARAMS|DCode=56|XSize=1.25mm|YSize=0.25mm|CornerRadius=0.125mm|HoleSize=0mm|Usage=FLASHONLY|Rotation=0.000|XOffset=0mm|YOffset=0mm|HoleType=Round|Shape=RoundedRectangle|*
%AMROUNDEDRECTD56*
21,1,1.2500,0.0000,0,0,0.0*
21,1,1.0000,0.2500,0,0,0.0*
1,1,0.2500,0.5000,0.0000*
1,1,0.2500,-0.5000,0.0000*
1,1,0.2500,-0.5000,0.0000*
1,1,0.2500,0.5000,0.0000*
%
%ADD56ROUNDEDRECTD56*%
%ADD57R,7.4676X6.4770*%
%ADD58R,0.2700X0.8000*%
%ADD59R,0.2700X0.9000*%
%ADD60R,3.4000X0.9800*%
%ADD61R,0.5500X0.5200*%
%ADD62R,0.6200X0.6200*%
%ADD63R,0.7000X1.7500*%
%ADD64R,1.5000X1.3000*%
%ADD65R,0.8000X1.5000*%
%ADD66R,0.8000X1.4000*%
%ADD67R,1.5500X1.0000*%
%ADD68R,1.0000X1.5500*%
%ADD69R,0.6200X0.6200*%
%ADD70R,0.9500X1.3500*%
%ADD71R,2.6062X1.7029*%
G36*
X57500Y747095D02*
Y746797D01*
X57272Y746246D01*
X56850Y745824D01*
X56298Y745595D01*
X55702D01*
X55150Y745824D01*
X54728Y746246D01*
X54500Y746797D01*
Y747095D01*
Y754095D01*
X57500D01*
Y747095D01*
D02*
G37*
G36*
X52500D02*
Y746797D01*
X52272Y746246D01*
X51850Y745824D01*
X51298Y745595D01*
X50702D01*
X50150Y745824D01*
X49728Y746246D01*
X49500Y746797D01*
Y747095D01*
X49500D01*
Y754095D01*
X52500D01*
Y747095D01*
D02*
G37*
G36*
X47500D02*
Y746797D01*
X47272Y746246D01*
X46850Y745824D01*
X46298Y745595D01*
X45702D01*
X45150Y745824D01*
X44728Y746246D01*
X44500Y746797D01*
Y747095D01*
Y754095D01*
X47500D01*
Y747095D01*
D02*
G37*
G36*
X42500D02*
Y746797D01*
X42272Y746246D01*
X41850Y745824D01*
X41298Y745595D01*
X40702D01*
X40150Y745824D01*
X39728Y746246D01*
X39500Y746797D01*
Y747095D01*
Y754095D01*
X42500D01*
Y747095D01*
D02*
G37*
G36*
X37500D02*
Y746797D01*
X37272Y746246D01*
X36850Y745824D01*
X36298Y745595D01*
X35702D01*
X35150Y745824D01*
X34728Y746246D01*
X34500Y746797D01*
Y747095D01*
Y754095D01*
X37500D01*
X37500Y747095D01*
D02*
G37*
G36*
X32500D02*
Y746797D01*
X32272Y746246D01*
X31850Y745824D01*
X31298Y745595D01*
X30702D01*
X30150Y745824D01*
X29728Y746246D01*
X29500Y746797D01*
Y747095D01*
Y754095D01*
X32500D01*
Y747095D01*
D02*
G37*
G36*
X67250Y741345D02*
X59952D01*
X59400Y741574D01*
X58978Y741996D01*
X58750Y742547D01*
Y742845D01*
Y743144D01*
X58978Y743695D01*
X59400Y744117D01*
X59952Y744345D01*
X67250D01*
Y741345D01*
D02*
G37*
G36*
X27600Y744117D02*
X28022Y743695D01*
X28250Y743144D01*
Y742845D01*
Y742547D01*
X28022Y741996D01*
X27600Y741574D01*
X27048Y741345D01*
X19750D01*
Y744345D01*
X27048D01*
X27600Y744117D01*
D02*
G37*
G36*
X67250Y736345D02*
X60250Y736345D01*
X59952D01*
X59400Y736574D01*
X58978Y736996D01*
X58750Y737547D01*
Y737845D01*
Y738144D01*
X58978Y738695D01*
X59400Y739117D01*
X59952Y739345D01*
X67250D01*
Y736345D01*
D02*
G37*
G36*
X27600Y739117D02*
X28022Y738695D01*
X28250Y738144D01*
Y737845D01*
Y737547D01*
X28022Y736996D01*
X27600Y736574D01*
X27048Y736345D01*
X26750D01*
Y736345D01*
X19750D01*
Y739345D01*
X27048D01*
X27600Y739117D01*
D02*
G37*
G36*
X67250Y731345D02*
X59952D01*
X59400Y731574D01*
X58978Y731996D01*
X58750Y732547D01*
Y732845D01*
Y733144D01*
X58978Y733695D01*
X59400Y734117D01*
X59952Y734345D01*
X67250D01*
Y731345D01*
D02*
G37*
G36*
X27600Y734117D02*
X28022Y733695D01*
X28250Y733144D01*
Y732845D01*
Y732547D01*
X28022Y731996D01*
X27600Y731574D01*
X27048Y731345D01*
X19750D01*
Y734345D01*
X27048D01*
X27600Y734117D01*
D02*
G37*
G36*
X67250Y726345D02*
X59952D01*
X59400Y726574D01*
X58978Y726996D01*
X58750Y727547D01*
Y727845D01*
Y728144D01*
X58978Y728695D01*
X59400Y729117D01*
X59952Y729345D01*
X67250D01*
Y726345D01*
D02*
G37*
G36*
X27600Y729117D02*
X28022Y728695D01*
X28250Y728144D01*
Y727845D01*
Y727547D01*
X28022Y726996D01*
X27600Y726574D01*
X27048Y726345D01*
X19750D01*
Y729345D01*
X27048D01*
X27600Y729117D01*
D02*
G37*
G36*
X67250Y721345D02*
X59952D01*
X59400Y721574D01*
X58978Y721996D01*
X58750Y722547D01*
Y722845D01*
Y723144D01*
X58978Y723695D01*
X59400Y724117D01*
X59952Y724345D01*
X60250D01*
Y724345D01*
X67250D01*
Y721345D01*
D02*
G37*
G36*
X26750Y724345D02*
X27048D01*
X27600Y724117D01*
X28022Y723695D01*
X28250Y723144D01*
Y722845D01*
Y722547D01*
X28022Y721996D01*
X27600Y721574D01*
X27048Y721345D01*
X19750D01*
Y724345D01*
X26750Y724345D01*
D02*
G37*
G36*
X56250Y740595D02*
Y717595D01*
X30750D01*
Y743095D01*
X53750D01*
X56250Y740595D01*
D02*
G37*
G36*
X67250Y716345D02*
X59952D01*
X59400Y716574D01*
X58978Y716996D01*
X58750Y717547D01*
Y717845D01*
Y718144D01*
X58978Y718695D01*
X59400Y719117D01*
X59952Y719345D01*
X67250D01*
Y716345D01*
D02*
G37*
G36*
X27600Y719117D02*
X28022Y718695D01*
X28250Y718144D01*
Y717845D01*
Y717547D01*
X28022Y716996D01*
X27600Y716574D01*
X27048Y716345D01*
X19750D01*
Y719345D01*
X27048D01*
X27600Y719117D01*
D02*
G37*
G36*
X56850Y714867D02*
X57272Y714445D01*
X57500Y713894D01*
Y713595D01*
Y706595D01*
X54500D01*
Y713595D01*
Y713894D01*
X54728Y714445D01*
X55150Y714867D01*
X55702Y715095D01*
X56298D01*
X56850Y714867D01*
D02*
G37*
G36*
X51850D02*
X52272Y714445D01*
X52500Y713894D01*
Y713595D01*
Y706595D01*
X49500D01*
X49500Y713595D01*
Y713894D01*
X49728Y714445D01*
X50150Y714867D01*
X50702Y715095D01*
X51298D01*
X51850Y714867D01*
D02*
G37*
G36*
X46850D02*
X47272Y714445D01*
X47500Y713894D01*
Y713595D01*
Y706595D01*
X44500D01*
Y713595D01*
Y713894D01*
X44728Y714445D01*
X45150Y714867D01*
X45702Y715095D01*
X46298D01*
X46850Y714867D01*
D02*
G37*
G36*
X41850D02*
X42272Y714445D01*
X42500Y713894D01*
Y713595D01*
Y706595D01*
X39500D01*
Y713595D01*
Y713894D01*
X39728Y714445D01*
X40150Y714867D01*
X40702Y715095D01*
X41298D01*
X41850Y714867D01*
D02*
G37*
G36*
X36850D02*
X37272Y714445D01*
X37500Y713894D01*
Y713595D01*
X37500D01*
Y706595D01*
X34500D01*
Y713595D01*
Y713894D01*
X34728Y714445D01*
X35150Y714867D01*
X35702Y715095D01*
X36298D01*
X36850Y714867D01*
D02*
G37*
G36*
X31850D02*
X32272Y714445D01*
X32500Y713894D01*
Y713595D01*
Y706595D01*
X29500D01*
Y713595D01*
Y713894D01*
X29728Y714445D01*
X30150Y714867D01*
X30702Y715095D01*
X31298D01*
X31850Y714867D01*
D02*
G37*
G36*
X402633Y482929D02*
X402774Y482788D01*
X402850Y482604D01*
Y482505D01*
Y478255D01*
Y478156D01*
X402774Y477972D01*
X402633Y477831D01*
X402449Y477755D01*
X400251D01*
X400067Y477831D01*
X399926Y477972D01*
X399850Y478156D01*
Y478255D01*
Y482505D01*
Y482604D01*
X399926Y482788D01*
X400067Y482929D01*
X400251Y483005D01*
X402449D01*
X402633Y482929D01*
D02*
G37*
G36*
X407633Y482824D02*
X407774Y482683D01*
X407850Y482500D01*
Y482400D01*
Y476800D01*
Y476701D01*
X407774Y476517D01*
X407633Y476376D01*
X407449Y476300D01*
X405751D01*
X405567Y476376D01*
X405426Y476517D01*
X405350Y476701D01*
Y476800D01*
Y482400D01*
Y482500D01*
X405426Y482683D01*
X405567Y482824D01*
X405751Y482900D01*
X407449D01*
X407633Y482824D01*
D02*
G37*
G36*
X402633Y476179D02*
X402774Y476038D01*
X402850Y475854D01*
Y475755D01*
Y471505D01*
Y471406D01*
X402774Y471222D01*
X402633Y471081D01*
X402449Y471005D01*
X400251D01*
X400067Y471081D01*
X399926Y471222D01*
X399850Y471406D01*
Y471505D01*
Y475755D01*
Y475854D01*
X399926Y476038D01*
X400067Y476179D01*
X400251Y476255D01*
X402449D01*
X402633Y476179D01*
D02*
G37*
G36*
X407633Y474224D02*
X407774Y474083D01*
X407850Y473899D01*
Y473800D01*
Y468200D01*
Y468101D01*
X407774Y467917D01*
X407633Y467776D01*
X407449Y467700D01*
X405751D01*
X405567Y467776D01*
X405426Y467917D01*
X405350Y468101D01*
Y468200D01*
Y473800D01*
Y473899D01*
X405426Y474083D01*
X405567Y474224D01*
X405751Y474300D01*
X407449D01*
X407633Y474224D01*
D02*
G37*
G36*
Y465624D02*
X407774Y465483D01*
X407850Y465299D01*
Y465200D01*
Y459600D01*
Y459501D01*
X407774Y459317D01*
X407633Y459176D01*
X407449Y459100D01*
X405751D01*
X405567Y459176D01*
X405426Y459317D01*
X405350Y459501D01*
Y459600D01*
Y465200D01*
Y465299D01*
X405426Y465483D01*
X405567Y465624D01*
X405751Y465700D01*
X407449D01*
X407633Y465624D01*
D02*
G37*
G36*
X402633Y466924D02*
X402774Y466783D01*
X402850Y466600D01*
Y466500D01*
Y459500D01*
Y459401D01*
X402774Y459217D01*
X402633Y459076D01*
X402449Y459000D01*
X400251D01*
X400067Y459076D01*
X399926Y459217D01*
X399850Y459401D01*
Y459500D01*
Y466500D01*
Y466600D01*
X399926Y466783D01*
X400067Y466924D01*
X400251Y467000D01*
X402449D01*
X402633Y466924D01*
D02*
G37*
D20*
X-513920Y105750D02*
D03*
Y99250D02*
D03*
Y92750D02*
D03*
Y86250D02*
D03*
X-542080D02*
D03*
Y92750D02*
D03*
Y99250D02*
D03*
Y105750D02*
D03*
D21*
X-558750Y179600D02*
D03*
X-553750D02*
D03*
X-548750D02*
D03*
Y198400D02*
D03*
X-553750D02*
D03*
X-558750D02*
D03*
D22*
X604500Y545500D02*
D03*
X595000D02*
D03*
X585500D02*
D03*
Y570500D02*
D03*
X595000D02*
D03*
X604500D02*
D03*
D23*
X50500Y809500D02*
D03*
Y828500D02*
D03*
X75500D02*
D03*
Y819000D02*
D03*
Y809500D02*
D03*
X-430500Y719500D02*
D03*
Y729000D02*
D03*
Y738500D02*
D03*
X-455500D02*
D03*
Y719500D02*
D03*
X207500Y804500D02*
D03*
Y814000D02*
D03*
Y823500D02*
D03*
X182500D02*
D03*
Y804500D02*
D03*
D24*
X266000Y890750D02*
D03*
X261000D02*
D03*
X271000D02*
D03*
X261000Y877250D02*
D03*
X266000D02*
D03*
X271000D02*
D03*
X286000D02*
D03*
X291000D02*
D03*
X281000D02*
D03*
X291000Y890750D02*
D03*
X286000D02*
D03*
X281000D02*
D03*
D25*
X614050Y669150D02*
D03*
X601350D02*
D03*
X588650D02*
D03*
X575950D02*
D03*
X614050Y612650D02*
D03*
X601350D02*
D03*
X588650D02*
D03*
X575950D02*
D03*
D26*
X523000Y461000D02*
D03*
D27*
X508500Y451500D02*
D03*
Y461000D02*
D03*
Y470500D02*
D03*
X537500D02*
D03*
Y461000D02*
D03*
Y451500D02*
D03*
D28*
X513400Y713000D02*
D03*
X500700D02*
D03*
X488000D02*
D03*
X475300D02*
D03*
Y657000D02*
D03*
X488000D02*
D03*
X500700D02*
D03*
X513400D02*
D03*
D29*
X494350Y685000D02*
D03*
D30*
X-259000Y914000D02*
D03*
X-203000D02*
D03*
X485000Y918250D02*
D03*
X439000D02*
D03*
D31*
X-216000Y875250D02*
D03*
X-226000D02*
D03*
X-236000D02*
D03*
X-246000D02*
D03*
X452000Y879500D02*
D03*
X462000D02*
D03*
X472000D02*
D03*
D32*
X-493000Y64000D02*
D03*
Y92000D02*
D03*
D33*
X493000Y420000D02*
D03*
Y436000D02*
D03*
X366000Y463000D02*
D03*
Y479000D02*
D03*
X407000Y199000D02*
D03*
Y183000D02*
D03*
X475000Y420000D02*
D03*
Y436000D02*
D03*
X24000Y780000D02*
D03*
Y764000D02*
D03*
X390250Y449000D02*
D03*
Y433000D02*
D03*
X383750Y463000D02*
D03*
Y479000D02*
D03*
X451000Y420000D02*
D03*
Y436000D02*
D03*
D34*
X132500Y723000D02*
D03*
X145500D02*
D03*
X420500Y494000D02*
D03*
X407500D02*
D03*
X-239500Y804000D02*
D03*
X-226500D02*
D03*
X-239500Y816000D02*
D03*
X-226500D02*
D03*
X-91500Y168000D02*
D03*
X-78500D02*
D03*
X-16500Y735000D02*
D03*
X-3500D02*
D03*
X-15700Y777500D02*
D03*
X-2700D02*
D03*
X-15700Y765000D02*
D03*
X-2700D02*
D03*
X608750Y688650D02*
D03*
X621750D02*
D03*
X614250Y596900D02*
D03*
X601250D02*
D03*
X576500D02*
D03*
X589500D02*
D03*
X583000Y688900D02*
D03*
X570000D02*
D03*
X121500Y756000D02*
D03*
X134500D02*
D03*
D35*
X-530000Y824000D02*
D03*
X-538000D02*
D03*
X277000Y899750D02*
D03*
X285000D02*
D03*
X294000D02*
D03*
X302000D02*
D03*
X268000D02*
D03*
X260000D02*
D03*
X284000Y869000D02*
D03*
X292000D02*
D03*
X269000D02*
D03*
X261000D02*
D03*
X-219000Y831000D02*
D03*
X-211000D02*
D03*
X30000Y810000D02*
D03*
X38000D02*
D03*
X574000Y805000D02*
D03*
X582000D02*
D03*
Y818000D02*
D03*
X574000D02*
D03*
Y843000D02*
D03*
X582000D02*
D03*
X574000Y831000D02*
D03*
X582000D02*
D03*
X533500Y875250D02*
D03*
X525500D02*
D03*
X515500Y875500D02*
D03*
X507500D02*
D03*
X169000Y804000D02*
D03*
X161000D02*
D03*
X609600Y177800D02*
D03*
X601600D02*
D03*
X583000Y241000D02*
D03*
X591000D02*
D03*
X584200Y254000D02*
D03*
X592200D02*
D03*
X582550Y177800D02*
D03*
X590550D02*
D03*
X609600Y254000D02*
D03*
X601600D02*
D03*
X582550Y152400D02*
D03*
X590550D02*
D03*
X582550Y203200D02*
D03*
X590550D02*
D03*
X582550Y292100D02*
D03*
X590550D02*
D03*
X609600Y152400D02*
D03*
X601600D02*
D03*
X-68000Y168000D02*
D03*
X-60000D02*
D03*
X609600Y203200D02*
D03*
X601600D02*
D03*
X-5200Y724250D02*
D03*
X2800D02*
D03*
Y715750D02*
D03*
X-5200D02*
D03*
Y707250D02*
D03*
X2800D02*
D03*
Y698750D02*
D03*
X-5200D02*
D03*
X437000Y468000D02*
D03*
X445000D02*
D03*
X451000Y457000D02*
D03*
X443000D02*
D03*
X437000Y478000D02*
D03*
X445000D02*
D03*
X236000Y840000D02*
D03*
X244000D02*
D03*
X154250Y824750D02*
D03*
X162250D02*
D03*
Y833250D02*
D03*
X154250D02*
D03*
X22750Y824500D02*
D03*
X30750D02*
D03*
X107500Y843750D02*
D03*
X115500D02*
D03*
X22750Y833250D02*
D03*
X30750D02*
D03*
X548441Y470495D02*
D03*
X556441D02*
D03*
X346000Y212000D02*
D03*
X354000D02*
D03*
X534000Y817000D02*
D03*
X542000D02*
D03*
X534000Y803000D02*
D03*
X542000D02*
D03*
X534000Y831000D02*
D03*
X542000D02*
D03*
X534000Y844000D02*
D03*
X542000D02*
D03*
X551000Y817000D02*
D03*
X559000D02*
D03*
X551000Y803000D02*
D03*
X559000D02*
D03*
X551000Y831000D02*
D03*
X559000D02*
D03*
X551000Y844000D02*
D03*
X559000D02*
D03*
X490000Y614000D02*
D03*
X498000D02*
D03*
X490000Y596000D02*
D03*
X498000D02*
D03*
X397000Y516000D02*
D03*
X405000D02*
D03*
X484000D02*
D03*
X492000D02*
D03*
X-407000Y729000D02*
D03*
X-415000D02*
D03*
X-568000Y149000D02*
D03*
X-560000D02*
D03*
X-568000Y158000D02*
D03*
X-560000D02*
D03*
X156000Y783000D02*
D03*
X164000D02*
D03*
Y746000D02*
D03*
X156000D02*
D03*
D36*
X412200Y232250D02*
D03*
D37*
X424200Y212750D02*
D03*
X420200D02*
D03*
X416200D02*
D03*
X412200D02*
D03*
X408200D02*
D03*
X404200D02*
D03*
X400200D02*
D03*
Y251750D02*
D03*
X404200D02*
D03*
X408200D02*
D03*
X412200D02*
D03*
X416200D02*
D03*
X420200D02*
D03*
X424200D02*
D03*
D38*
X392700Y220250D02*
D03*
Y224250D02*
D03*
Y228250D02*
D03*
Y232250D02*
D03*
Y236250D02*
D03*
Y240250D02*
D03*
Y244250D02*
D03*
X431700D02*
D03*
Y240250D02*
D03*
Y236250D02*
D03*
Y232250D02*
D03*
Y228250D02*
D03*
Y224250D02*
D03*
Y220250D02*
D03*
D39*
X150500Y771500D02*
D03*
Y765000D02*
D03*
Y758500D02*
D03*
X169500D02*
D03*
Y765000D02*
D03*
Y771500D02*
D03*
D40*
X590250Y701650D02*
D03*
Y720650D02*
D03*
X570250Y711150D02*
D03*
X601750Y720650D02*
D03*
Y701650D02*
D03*
X621750Y711150D02*
D03*
D41*
X-253000Y849000D02*
D03*
X300500Y652000D02*
D03*
Y712000D02*
D03*
X337500Y652000D02*
D03*
Y712000D02*
D03*
D42*
X-253000Y832000D02*
D03*
X-233000D02*
D03*
Y851000D02*
D03*
D43*
X400000Y814000D02*
D03*
Y792000D02*
D03*
X411000Y803000D02*
D03*
Y814000D02*
D03*
Y847000D02*
D03*
Y836000D02*
D03*
Y825000D02*
D03*
X400000D02*
D03*
Y836000D02*
D03*
Y847000D02*
D03*
X372500Y847000D02*
D03*
Y836000D02*
D03*
Y858000D02*
D03*
Y880000D02*
D03*
X361500Y847000D02*
D03*
X411000Y792000D02*
D03*
Y869000D02*
D03*
Y880000D02*
D03*
Y891000D02*
D03*
Y906000D02*
D03*
Y921000D02*
D03*
X400000Y803000D02*
D03*
Y858000D02*
D03*
Y891000D02*
D03*
X400000Y921000D02*
D03*
X389000Y792000D02*
D03*
Y803000D02*
D03*
Y825000D02*
D03*
Y836000D02*
D03*
Y847000D02*
D03*
Y858000D02*
D03*
Y869000D02*
D03*
Y880000D02*
D03*
Y891000D02*
D03*
X378000Y792000D02*
D03*
Y803000D02*
D03*
Y814000D02*
D03*
X367000Y792000D02*
D03*
Y803000D02*
D03*
Y814000D02*
D03*
X361500Y836000D02*
D03*
Y858000D02*
D03*
X367000Y891000D02*
D03*
X356000Y792000D02*
D03*
Y803000D02*
D03*
Y814000D02*
D03*
X345000Y792000D02*
D03*
Y803000D02*
D03*
Y825000D02*
D03*
Y836000D02*
D03*
Y847000D02*
D03*
Y858000D02*
D03*
Y869000D02*
D03*
Y880000D02*
D03*
Y891000D02*
D03*
X334000Y792000D02*
D03*
Y803000D02*
D03*
Y814000D02*
D03*
Y825000D02*
D03*
Y836000D02*
D03*
Y847000D02*
D03*
Y858000D02*
D03*
Y869000D02*
D03*
Y880000D02*
D03*
Y891000D02*
D03*
X334000Y921000D02*
D03*
X323000Y792000D02*
D03*
Y803000D02*
D03*
Y814000D02*
D03*
Y825000D02*
D03*
Y836000D02*
D03*
Y847000D02*
D03*
Y858000D02*
D03*
Y869000D02*
D03*
Y880000D02*
D03*
Y891000D02*
D03*
X323000Y906000D02*
D03*
Y921000D02*
D03*
X361500Y880000D02*
D03*
X400000Y869000D02*
D03*
X411000Y858000D02*
D03*
X400000Y880000D02*
D03*
D44*
X515500Y887000D02*
D03*
X520500D02*
D03*
X525500D02*
D03*
X530500D02*
D03*
X510500D02*
D03*
D45*
X501500Y910000D02*
D03*
X539500D02*
D03*
D46*
X506000Y516000D02*
D03*
X522000D02*
D03*
X582550Y165100D02*
D03*
X598550D02*
D03*
X582550Y190500D02*
D03*
X598550D02*
D03*
X582550Y266700D02*
D03*
X598550D02*
D03*
Y215900D02*
D03*
X582550D02*
D03*
X532000Y614000D02*
D03*
X516000D02*
D03*
X532000Y596000D02*
D03*
X516000D02*
D03*
X416000Y516000D02*
D03*
X432000D02*
D03*
D47*
X263500Y920250D02*
D03*
Y911750D02*
D03*
X278000Y920250D02*
D03*
Y911750D02*
D03*
D48*
X223000Y827500D02*
D03*
Y814500D02*
D03*
X91000Y817500D02*
D03*
Y830500D02*
D03*
X9000Y778500D02*
D03*
Y765500D02*
D03*
X608750Y745900D02*
D03*
Y732900D02*
D03*
X583500D02*
D03*
Y745900D02*
D03*
X621250Y732900D02*
D03*
Y745900D02*
D03*
X570750Y732900D02*
D03*
Y745900D02*
D03*
D49*
X642675Y804925D02*
D03*
Y817625D02*
D03*
Y830325D02*
D03*
Y843025D02*
D03*
Y855725D02*
D03*
X603675D02*
D03*
Y843025D02*
D03*
Y830325D02*
D03*
Y817625D02*
D03*
Y804925D02*
D03*
D50*
X-480000Y813500D02*
D03*
Y804000D02*
D03*
Y794500D02*
D03*
X-456000D02*
D03*
Y804000D02*
D03*
Y813500D02*
D03*
D51*
X415750Y463500D02*
D03*
Y468500D02*
D03*
Y473500D02*
D03*
Y478500D02*
D03*
D52*
X587506Y431000D02*
D03*
X566494D02*
D03*
X476506Y200000D02*
D03*
X455494D02*
D03*
D53*
X56000Y749845D02*
D03*
X51000D02*
D03*
X46000Y750000D02*
D03*
X41000Y749845D02*
D03*
X36000D02*
D03*
X31000Y752595D02*
D03*
X24000Y742845D02*
D03*
Y737845D02*
D03*
X23845Y732845D02*
D03*
X24000Y727845D02*
D03*
Y722845D02*
D03*
X21250Y717845D02*
D03*
X31000Y710845D02*
D03*
X36000D02*
D03*
X41000Y710691D02*
D03*
X46000Y710845D02*
D03*
X51000D02*
D03*
X56000Y710691D02*
D03*
X63000Y717845D02*
D03*
Y722845D02*
D03*
X63155Y727845D02*
D03*
X63000Y732845D02*
D03*
Y737845D02*
D03*
X63155Y742845D02*
D03*
D54*
X43500Y730345D02*
D03*
D55*
X-517250Y191500D02*
D03*
Y186500D02*
D03*
D56*
X-527250Y191500D02*
D03*
X-507250D02*
D03*
Y186500D02*
D03*
X-527250D02*
D03*
D57*
X-469625Y138000D02*
D03*
X324125D02*
D03*
D58*
X227750Y870500D02*
D03*
X222750D02*
D03*
X217750D02*
D03*
X212750D02*
D03*
X207750D02*
D03*
X202750D02*
D03*
X197750D02*
D03*
X192750D02*
D03*
X187750D02*
D03*
X182750D02*
D03*
X177750D02*
D03*
X172750D02*
D03*
X41250D02*
D03*
X46250D02*
D03*
X51250D02*
D03*
X56250D02*
D03*
X61250D02*
D03*
X66250D02*
D03*
X71250D02*
D03*
X76250D02*
D03*
X81250D02*
D03*
X86250D02*
D03*
X91250D02*
D03*
X96250D02*
D03*
D59*
X170250Y854500D02*
D03*
X175250D02*
D03*
X180250D02*
D03*
X185250D02*
D03*
X190250D02*
D03*
X195250D02*
D03*
X200250D02*
D03*
X205250D02*
D03*
X210250D02*
D03*
X215250D02*
D03*
X220250D02*
D03*
X225250D02*
D03*
X93750D02*
D03*
X88750D02*
D03*
X83750D02*
D03*
X78750D02*
D03*
X73750D02*
D03*
X68750D02*
D03*
X63750D02*
D03*
X58750D02*
D03*
X53750D02*
D03*
X48750D02*
D03*
X43750D02*
D03*
X38750D02*
D03*
D60*
X420500Y422650D02*
D03*
Y446350D02*
D03*
D61*
X527000Y654000D02*
D03*
Y646000D02*
D03*
X303000Y889000D02*
D03*
Y881000D02*
D03*
X-533400Y419100D02*
D03*
Y411100D02*
D03*
X59000Y790000D02*
D03*
Y782000D02*
D03*
X191000Y780000D02*
D03*
Y788000D02*
D03*
X25400Y411100D02*
D03*
Y419100D02*
D03*
X-254000Y411100D02*
D03*
Y419100D02*
D03*
X199000Y780000D02*
D03*
Y788000D02*
D03*
X67000Y782000D02*
D03*
Y790000D02*
D03*
X429000Y291000D02*
D03*
Y283000D02*
D03*
X491050Y289250D02*
D03*
Y297250D02*
D03*
X500750Y305750D02*
D03*
Y313750D02*
D03*
X511000Y305750D02*
D03*
Y313750D02*
D03*
X471300Y306000D02*
D03*
Y314000D02*
D03*
X471300Y289250D02*
D03*
Y297250D02*
D03*
X481000Y306000D02*
D03*
Y314000D02*
D03*
X500700Y289000D02*
D03*
Y297000D02*
D03*
X415000Y291000D02*
D03*
Y283000D02*
D03*
X491050Y306000D02*
D03*
Y314000D02*
D03*
X481000Y289250D02*
D03*
Y297250D02*
D03*
X511000Y289000D02*
D03*
Y297000D02*
D03*
X454000Y476000D02*
D03*
Y468000D02*
D03*
X497250Y477750D02*
D03*
Y469750D02*
D03*
Y461250D02*
D03*
Y453250D02*
D03*
X-576000Y197000D02*
D03*
Y189000D02*
D03*
X-561250Y206500D02*
D03*
Y214500D02*
D03*
X372500Y763000D02*
D03*
Y755000D02*
D03*
X-422000Y854000D02*
D03*
Y862000D02*
D03*
X-413000D02*
D03*
Y854000D02*
D03*
X604677Y523709D02*
D03*
Y515709D02*
D03*
X585610Y523709D02*
D03*
Y515709D02*
D03*
D62*
X-478500Y720000D02*
D03*
X-469500D02*
D03*
X375500Y243000D02*
D03*
X366500D02*
D03*
X600750Y585150D02*
D03*
X609750D02*
D03*
X590000Y585250D02*
D03*
X581000D02*
D03*
X152250Y842750D02*
D03*
X161250D02*
D03*
X29750D02*
D03*
X20750D02*
D03*
X-542250Y207500D02*
D03*
X-551250D02*
D03*
D63*
X-375750Y912250D02*
D03*
X-364750D02*
D03*
X-353750D02*
D03*
X-342750D02*
D03*
X-331750D02*
D03*
X-320750D02*
D03*
X-309750D02*
D03*
X-298750D02*
D03*
D64*
X-285750Y910000D02*
D03*
X-400250D02*
D03*
D65*
X-284000Y835000D02*
D03*
D66*
X-403500Y828500D02*
D03*
D67*
X-287000Y820000D02*
D03*
D68*
X-399500Y804250D02*
D03*
D69*
X429000Y264500D02*
D03*
Y273500D02*
D03*
X415000Y264500D02*
D03*
Y273500D02*
D03*
X629500Y617900D02*
D03*
Y608900D02*
D03*
X595112Y515114D02*
D03*
Y524114D02*
D03*
D70*
X377000Y229000D02*
D03*
X361000D02*
D03*
X525000Y434000D02*
D03*
X509000D02*
D03*
X524500Y487000D02*
D03*
X508500D02*
D03*
X459000Y228000D02*
D03*
X475000D02*
D03*
X-19000Y750000D02*
D03*
X-3000D02*
D03*
D71*
X376000Y394494D02*
D03*
Y415506D02*
D03*
X341000Y394494D02*
D03*
Y415506D02*
D03*
M02*
