M48
;Layer_Color=9474304
;FILE_FORMAT=4:4
METRIC,LZ
;TYPE=PLATED
T1F00S00C0.1999
T2F00S00C0.3000
T3F00S00C0.3048
T5F00S00C1.0160
;TYPE=NON_PLATED
T6F00S00C0.6500
T7F00S00C0.9500
T8F00S00C3.0480
%
T01
X0009017Y00059436
X00099314Y00059944
X00141478Y00061468
X00185353Y0007239
X00199076Y0007112
X0020574Y0007239
X00170737Y0012243
X00166Y00117747
X00107696Y00134874
X00278384Y0002413
T02
X00066656Y00171457
Y00184144
X00085554
X00093154
X00101028
X00118697Y00187438
X00126296Y00187561
X0013365Y00185643
X00141101Y00184144
X00148701
X00165918
X00173518
X00181113Y00184287
Y00171713
X00173518Y00171457
X00165918
X00135729
X0012894Y00168039
X00121341
X00113741
X0008564Y00171457
X00203617Y00175182
X00210884Y00177404
X00218007Y00180054
X0022496Y00183124
X00231701Y00186633
X0023813Y00190686
X00244307Y00195113
X0025021Y001999
X002558Y00205049
X00260703Y00210856
X00264639Y00217358
X0026753Y00224386
X00269309Y00231775
X00256907Y00234427
X00255108Y00227043
X00251741Y00220229
X00247087Y0021422
X00241497Y00209072
X00235551Y00204338
X0022928Y00200045
X00222715Y00196216
X00215892Y00192869
X00208845Y00190024
X00201596Y00187738
X0033731Y00206433
X0033251Y00212326
X00328627Y00218859
X00325747Y00225893
X00323932Y00233272
X0033635Y00235679
X00338279Y00228327
X00341599Y00221491
X0034622Y00215457
X00351719Y00210212
X00357602Y00205399
X00363807Y00201012
X00370306Y00197072
X00377066Y00193598
X00384087Y00190689
X00391308Y00188319
X00389036Y00175772
X00396428Y00174003
X00381788Y00178057
X0037473Y00180874
X00367845Y00184093
X00361157Y00187703
X00354747Y00191786
X00348651Y00196324
X00342825Y00201205
X00398677Y00186461
X00406159Y00185126
X00413716Y00184319
X00421312Y00184072
X00428912
X00436508Y00184331
X00444105Y00184144
X00451325Y00186517
X00458853Y00187561
X00466453
X00474053
X00480841Y00184144
X00488439Y00184331
X00496037Y00184144
X00503581Y00185065
X00511177Y00185312
X00518686Y00184144
X0051594Y00171457
X0050038Y00170434
X00478559Y00170239
X00471284Y00168039
X00463686Y00168215
X00456088Y00168039
X004493Y00171457
X00426647Y00171385
X00419047Y00171425
X00411455Y00171757
X00403909Y00172664
X0032741Y00936868
X0031481
X0030221
X00301992Y00949941
X00314592
X00327192
X00259472Y00950027
X00247914Y00950147
X00237236Y00950214
X00240268Y00937073
X00252868
X00263652Y00937006
X00286277Y00999204
X0029972Y0100965
T03
X00010305Y0004826
X00039116Y0004463
X0004572Y00041148
X0005207Y00043688
X00053074Y00032766
X00061456Y00026162
X00071882Y00024638
X00079756Y00024892
X0009017Y00022352
X00099568Y00023114
Y00016256
Y00009652
X00107696Y00022606
X00118618Y00025146
X00127
X00136652Y00023368
X00139337Y00009144
X00146558Y00032766
X00149352Y00073914
X00155956Y00077216
X00164338Y0007112
X00136652Y00071882
Y00079248
Y00086614
Y0009398
Y00101346
X00110744Y00106934
X00098806Y00106426
Y00099314
X00084328Y00101092
Y00093726
Y0008636
Y00078994
Y00071628
Y00064262
X00099822Y00045212
Y000381
X00061359Y0001016
X00049675
X00044196Y00064516
Y00074168
Y0008382
X00046344Y00092036
X00041402Y00098806
X0004191Y0011557
X0003175
X000381Y001357
X000508
X000635Y001397
X0006223Y0012827
X000635Y001524
X000508Y001641
X000381
X000254
Y001915
X000381
X000508
X000635Y002032
Y002199
Y002286
X000508
Y002199
X000381
Y002286
Y002413
Y00254
X000254Y002286
Y002199
X000127Y0022987
Y0026924
Y002794
Y003048
Y003302
X00012845Y0035433
X000381Y003556
X000635
X0007493Y0035941
X000889Y003556
Y00381
X001143
X0012573Y0038735
X001651Y00381
X0016637Y0036449
X0018034
Y0039243
X0020955Y0037338
X0020828Y0036449
Y0035179
X0020955Y0033909
X00211012Y00323819
X0020896Y003092
X0020955Y0029337
X0020066
X0017907Y002921
X0016637Y0029337
Y0028194
X0014732Y0028575
X00147955Y002667
X00127
X00120904Y0028448
X001016Y002921
X0009652Y002667
X0008763
X00060582Y0028184
X00049022Y00282448
X00051528Y00306274
X00040124Y00304781
X000381Y00381
X000635
X000127
X001143Y0032512
X00167005Y0032258
X001651Y00349885
X0014732
X002413Y003556
X00254Y0036703
X002667Y003556
X002794Y0036703
X002921Y003556
X003048Y0036703
X003175Y003556
Y00381
X003302Y003937
X003048
X002794
X00254
X002413Y00381
X002667
X002921
X003429
X003302Y003683
X003429Y003556
X0033909Y003302
X003302Y003175
Y003048
X00338455Y00278765
Y00266065
X003175
Y00278765
X00296545Y0028575
X0027559Y0028448
Y002667
X00254
Y00285115
Y003175
X0025527Y003302
X002667
X002794Y003175
X003048
X003175Y003302
X002921
X002667Y003048
X0027178Y0021082
X00282085Y0021971
X00294785Y0021717
X002921Y002286
X0031115
X00311404Y00202184
X00321455Y0021082
X0032131Y0019304
X0032385Y0016891
X0033782
X00348245Y0016776
X0034925Y0014224
X0034163
X0033401
X0035687
X00358249Y00129595
X00350629
X00357124Y0011176
X0036449
X0036195Y0009779
X0035306
X0034925Y0009017
X0035814
X0036195Y0008382
X0035306
X0032004Y0006527
Y0005765
X0031623Y0004876
X0030861
X0026924Y0004318
Y0007747
Y0008509
Y0009271
X0026162
X0026289Y0007366
X002794Y0007493
Y0008255
Y0009017
X0028702
Y0008255
Y0007493
X0029591Y0010337
X003048Y0009906
X00292572Y00118618
X00285728Y00137137
X003048Y0013335
X0024765Y0013589
X0023241Y0013335
X0021717Y0014732
X002159Y001651
X00224536Y00171196
X0023622Y0017399
X0025019Y0017272
Y0018415
X0026035Y0019685
X002286Y002286
X002159
X002032
Y002413
X002159
X002286
X001778
Y002286
X001651
Y0021336
X001778
X002032
X00147955Y002159
X001397
X00127
X001143
X001016
X000889
X001016Y0020066
X001143
X00127
X001397
X00147955
X00145034Y00160274
X00134874Y00160528
X00143002Y00137922
X0016764Y00154686
X00167386Y00163322
X0017653Y0015748
X00176276Y00146558
X00189738Y0014605
X00192786Y0012065
X00199898
X0021082Y001143
X00237635Y0009779
X00225552Y00071882
X0018161Y0009017
X00092964Y00111506
Y0011811
X00099568
X00096774Y00138684
X0008955Y00132476
X00086614Y0015875
X00103632Y00158496
X00107442Y00148844
X000254Y001357
X0001143Y00127
X0000889Y0009779
X0001905
X0025019Y0000635
X0025781Y0000889
X0036068Y0001193
Y0001955
Y0002717
Y0003479
X0039116Y00106204
Y001143
Y0012319
X003937Y0021336
X00379875Y0021209
X0037592Y002286
X003683Y002413
X0039243Y0024257
X003937Y00266065
X0038481Y002921
X0037973Y0030353
Y0032385
X003937Y0034671
Y003683
Y003937
X00416814Y00362458
X0041529Y0033782
X0041783Y0032385
X00399288Y00339344
X00406146Y00256794
X0041275Y0024384
X00405275Y0022733
X004191Y0021209
X00439166Y0021082
X00433898Y00201889
X00431038Y00195072
X00446278Y00193802
X00444246Y0023495
X00469646Y0025908
Y0027178
Y0028321
X00483616Y002921
X00503936Y0030607
X00501674Y00321964
X00496316Y003302
X0050927Y00328168
X0052197Y00322818
X00535225Y003175
X0053975Y003302
X005588
Y003048
Y002794
X0053975
Y0025273
X005588Y00254
Y002286
Y002199
X005461
X005334
X005207
Y002032
X005334Y001918
X005461
X005588
Y001637
X005461
X005334
X005207Y001524
X0051054Y0015748
X004953Y0016002
X0047498Y0016256
X00448903Y00148622
X0044196Y0014224
X0042926Y00142494
Y00115824
X0043942
X004191Y0012446
X00417068Y00164084
X004064Y0016383
X00404005Y0019812
X00486503Y00213834
X0049911Y00209804
X00497586Y0024257
X00509016Y0024384
X005207Y002413
X0052324Y001357
X005334
X005461
X005588
X0055753Y0011557
X00572915Y0012192
X0057277Y0009271
X0053213Y00087359
X00528465Y0010033
X0052324Y0012192
X0054102
X00511955Y0008636
X0050038Y0009779
X0048514Y0010922
X00490474Y0007874
X00472585Y0008001
X00463695Y0005715
X00443375Y00052832
Y00062992
Y00073152
Y00083312
X00430421Y00045466
X00476395Y0003683
X00482346Y00024892
X00476395Y0001016
X005207Y000127
Y000381
X00534815Y0004445
X00527195Y0006731
X00505605
X0049276Y0005969
X00501795Y0004826
X00575455Y0004572
X0055753Y0035433
X0053721
X0053213Y003429
X005588Y00381
X0048445Y00376348
X00468376Y0037465
X00474726Y0036576
X0049022Y0040767
X004953Y004191
X00508Y004318
Y004572
Y004826
X0050546Y0051435
X0050038Y0052451
X00514064Y0055432
X00527378Y00546086
X0054737Y0054229
X0054991Y0055245
X0054102Y005588
X005588
X0056134Y0054102
X005588Y00508
X0054864Y0050927
X005588Y004826
X00558165Y004572
X005588Y004318
X00538734Y0040894
X004699Y004191
Y004445
X0046355Y0046863
X0042545Y0047879
Y0049276
X0041656Y0049403
X0041275Y004826
X0042418Y0050673
X004191Y0051435
X0039878
X0042545Y0053975
X0043561Y0055626
X004191Y0056134
X0042672Y005715
X004191Y005842
X0042672Y0060452
X0043815Y00603885
X0044323Y0057912
X0045847Y0057658
X0047498Y0057785
X00485264Y00581481
X0048514Y00572484
X00477757Y00548366
X004572Y0053594
X0046355Y0061595
X00465455Y00633095
X00461328Y00649287
X0046101Y006604
X0048895
X00488315Y00649605
Y00633095
X0048895Y00615725
X00492121Y00603754
X0048387Y00602901
X00516125Y00607695
X0052451Y0060325
X0053467Y00603885
X0054737Y0058928
X0055499
X0052578Y0057785
X0052959Y0057023
X00514985Y00622935
Y0064008
X0051562Y0065151
X0051689Y0066294
X00526415Y0066339
X0053467Y0066294
X005461Y0067691
X0055499
X00559228Y0069054
X00560705Y006985
Y007112
X005588Y007366
X005334
X00509625Y00733468
X0050546Y0074041
X0049149Y0074549
X00479425Y007493
X0047117Y0074295
X004572Y007493
X0044196Y0074422
X004318Y007493
X0042926Y00769969
X0044069
X0046101Y00770255
X00499885Y0076962
X00497205Y0078105
X0050292Y0079121
X005334Y007874
X005588
Y00762
X0053721
X00510094Y0076073
X00512477Y00716946
X00509044Y00702569
X0050673Y0068707
X00492284
X00486501Y00701326
X0048641Y0071755
X0047625Y0072009
Y007112
X00467838Y00704058
X0046228Y0072009
X0042545Y007239
X004064
Y007493
X00404837Y00769969
X00430219Y00690883
X004445Y0069596
X0042672Y0065913
X0042418Y0065024
X0040767Y0065278
X00410707Y0066548
X0039878Y0063373
X0041831Y0061674
X0042545Y0045466
X0041275Y0042926
X0042418Y0041656
X004445Y004191
X00523566Y00686643
X00528983Y00704617
X0039497Y0069723
Y0071755
X00381Y007239
X003556
Y007493
X0033528Y0074803
X00334645Y00729615
X0032131Y0072771
X0031369Y007366
X00313055Y0076073
X0032258Y0077724
X002921
X00292735Y0078994
X0028321Y00789305
X00288925Y00753745
X0028956Y0073152
Y0069723
X0028194Y0068199
X00293116Y00671322
X00300228
X0031369Y006604
Y0064135
X0033274
Y006604
X00355918Y00658177
X003556Y006731
X0037211Y0067183
X00369566Y00655604
X0036322Y00642312
X003556Y0063731
X0036195Y0061976
X0037592Y0061595
Y0063119
X0039116Y0064262
Y0058928
X0039624Y0058039
X0039497Y005588
X003937Y0053975
X003683
X00363855Y005588
X0036322Y0058166
X003429Y006096
X003175
X002921
X00295703Y00628814
X00303548Y00630816
X0029845Y0058039
X0030226Y005461
X002921Y0053975
X0027178Y0054229
X0026035Y0053975
X002413
Y005588
Y005842
X00227965
X002159Y0055626
Y0053975
X001905Y0056261
X0018923Y005715
X00192405Y0057912
X0018923Y005969
X0015613Y00593598
X00154686Y00559562
X00155702Y00548386
X0014224Y0053848
X0014859Y0051054
X0018161Y0050927
X0017653Y0048006
X001778Y004699
X0017145Y0045847
X00165735Y004826
X00200133Y00490248
X00208915Y0049403
X0020955Y0048006
Y004699
X0020828Y0045847
Y0044704
X0021209Y0043688
X001651Y004318
X0017653Y0041783
X0017145Y0041021
X0014732Y0041275
X0012573Y0042291
X0011811Y0043053
X0010033Y0044323
X0009525Y0045339
X0010414Y0046355
X00102616Y00475996
X0009906Y0048514
X0011938Y004953
X00121158Y00473456
X00127478Y00455452
X0007239Y004699
X0004971Y00478598
X0003556Y0048006
X000381Y004572
X000127
Y004318
X000381
X000635
X0007493Y004191
X000635Y004064
X000381
X000127
X000889
X00055337Y00491813
X00054864Y00515874
X0004953Y0052832
X00057912Y00536194
X00038354Y00541528
X0003302Y0053213
X000127Y0055372
Y005715
Y006096
Y00635
X0004191
X000635
X0006858Y0061849
X00072644Y00602996
X0005969Y0059055
X0004064
X00065532Y00576834
X00078146Y00548508
X0010033Y0053594
X0011049
X00110998Y00511048
X001143Y005588
Y0061722
X001016
X0009017Y0061595
X000889Y00635
X0009017Y0065532
X0007112
X00076835Y0066802
X00060325
X00070485Y0068072
X00076835Y0069342
X00060325
X00070485Y0070612
X0008636
X00076835Y0071882
X00060325
X0005715Y0073533
X0005588Y007747
X0006477Y0078613
X0004191Y0078867
X00020955Y007874
X0002032Y00762
X000127Y0071882
X0003556Y0069342
X0002159Y0066802
X0001016Y0067183
X000889Y006858
X0011049Y0068453
X00119126Y0068961
X0011811Y0070612
X00134089Y00705766
X001397Y0071755
X0013589Y0073025
X001397Y00741045
X0014478Y007493
X0013208Y0074803
X0011938Y0073406
X0010414Y0075057
X0012319Y0077597
X0012827Y0078359
X0016256Y0075692
X0017145Y0071882
X0019431Y0072517
Y007366
Y007112
X0019812Y0068326
X0020701
X0023114
X0022733Y0067691
X00242167Y00680222
X00249555Y0067691
Y00663575
X00266774Y00711274
X00253627Y00733905
X00234315Y0073406
X0022352Y007366
X0023368Y0078994
X003429Y007874
X0035941Y00770255
X00380365
X0039497Y00769969
X00381Y007493
X003683Y0070485
X0035814Y0069723
X0035179Y0068834
X0036449Y006858
X00381Y0068834
X0033909Y0068199
X0032512Y0069342
X002667Y006096
X0026416Y0050419
X00274955Y0050165
X0028575
X00301752Y0050292
X0032258Y0050419
X0033274Y0051689
X003429Y00508
X003683
X0038735Y0050927
X003937Y004953
X0038608Y0048641
X003937Y0047752
Y0045593
X0038354Y0043561
X00384434Y0041783
X0039243Y004191
X0034925Y00412115
X003302Y004191
Y004318
X003175Y004445
Y00462915
X00338455
X00296545
X0027559
Y004445
X002667Y004318
X002794Y004191
X003048
X002921Y004064
X002667
X00254Y004191
X00254635Y00462915
X002413Y0050419
X0032893Y0055372
X003429Y0053975
X003175Y004064
X001905Y006477
X0017399Y006604
X0018542Y006731
X00172363Y0068314
X00145524Y00683867
X0014351Y006731
X00142748Y0063754
X0015621Y0064897
X00110744Y00655574
X001143Y00635
X00125476Y00626872
X0013462Y0061595
X001397Y008128
Y008382
Y008636
X00127Y008763
X001524
X001778
X002032
X001905Y008636
X001651
X001524Y008509
X00127
Y008255
X001524
X001651Y008382
X001778Y008509
X002032
X001905Y008382
X001778Y008255
X002032
X001905Y008128
X0019177Y00800735
X001651Y008128
X001143Y0079756
X0009398Y0079883
X0008636Y0081153
Y008255
Y0083439
X0007747Y0084201
X00072073Y0084963
X0007493Y0086995
X00083375Y00880512
X0006604Y0090043
X0007747Y0091567
X0006985Y0093218
X0007239Y009652
X000508
X000254
Y009144
X000508
Y00889
X0004191Y0086741
X000254Y008636
X0003937Y0083947
X0003429Y0081915
X00020955Y008128
X0005588Y0079756
X00127Y00906748
Y009271
Y009525
X001524
X001778
Y009271
Y00906748
X001905Y009144
X002032Y009271
Y009398
Y009525
Y009652
X002159
X002286
X002413
Y009906
X002286Y00981075
X002159Y009906
X001905
X001651
X0015113Y0098044
X00127583Y00981002
X001397Y009652
X001143
X001651
X001905
Y009398
X001651
X001524Y009271
Y00906748
X001651Y009144
X001397
Y009398
X0011684Y01016
X0011557Y010414
X001397
Y010668
X001651
X001905
X002159
X0024003
X0025Y010541
Y010414
Y010287
Y01016
X002667
X0027815Y010287
Y010414
Y010541
X0030605
Y010414
Y010287
X003175Y0100965
X003302Y01016
Y0098806
Y009779
X003556Y0096647
X0035687Y0094615
X0037719Y00945515
X00377074Y00925086
X00356839Y00925162
X003302Y009144
X00328868Y00905469
X003048Y009144
X002794
X002667Y009017
X00254Y009144
X0024003Y0091059
X0023622Y0088011
X00236616Y00857125
X0023622Y0084709
Y0083566
X0024003Y0079629
X003048Y008001
X003175
X003429
X00356235Y0079883
X00377415Y00798933
X00377148Y00819962
X00357505Y0081915
X00356544Y00841421
X00356679Y00861881
X00377117Y00861835
X00377102Y00883057
X0037839Y0090242
X0035645Y00882822
X0032893Y0086233
X003302Y008382
X00309245
X003048Y008128
X003302
X0037911Y00839938
X00298768Y00865823
X00289747Y00867725
X002794Y008636
X0026543
X0025273Y0087122
X002794Y0088265
X003048
X0037719Y0096774
X0038354Y0099822
X0039624Y0099949
X0039116Y010287
X00381
X00359918Y01028954
X00360045Y01052195
X00370838
X00381Y010541
X0039497
X0034417Y0105664
X003342Y010541
X00334264Y01040638
X0033909Y0104521
X00347374Y01041761
X0034417Y0106934
X00360172Y01004824
X0035687Y0099568
X0022606Y0101981
Y0104013
X0020193
X0019685Y0101981
X001651Y01016
Y010414
X001143Y010668
X000889
X000635
Y010414
X0008636
Y01016
X000635
X000381
X000127Y01021715
X00070076Y00995467
X0040767Y0099949
X0041148Y010287
X0040132
X0042926Y0102616
X0044577
X0046228Y0102235
Y0099822
X0045212Y00997986
X0046101Y00965835
X00461092Y00946165
X0048118Y00946165
X004826Y0096647
X0049403
X00508Y0096012
X0050673Y0094361
X00506965Y00933243
X0053213Y0093599
X0052705Y0094488
X00532765Y009652
X005588
Y009398
Y009144
Y00889
Y008636
X005334
X0052451Y0086614
Y0085725
X0052832Y0083185
X0051562Y00826516
X0050927Y008382
X00479953Y00820341
X00480695Y00798195
X004953Y008001
X0046355Y0079756
X00419174Y00798617
X00398215
X00398098Y00819867
X00419095Y00820152
X004191Y0084074
X0039878
X00398145Y0086233
X00398153Y00883095
X00398245Y00903755
X00399864Y00922683
X004191Y0092456
X00420806Y00943615
X00440055Y00945515
Y00925195
X00461852Y00923876
X00480508Y00924774
X00481096Y00903509
X00481829Y00884004
X00461043Y00882943
X00440067Y00882906
X00439876Y00862033
X004191Y00861695
X00419735Y0088138
X00418465Y0090424
X00441488Y00903475
X0046101Y0090424
Y00861695
X00461067Y00840994
X0044018Y00840766
X00440139Y00819962
X0052832Y0080899
X005588Y008128
Y008382
X0053213Y0088773
X0052832Y009017
X00508317Y00887412
X00510697Y00988217
X0051943Y00982726
X0052324Y0102235
X005334Y0101473
X005461Y0102616
X00570865Y0102235
X00554736Y010033
X0053086Y0104267
X0051562Y0103378
X0051435Y010541
X0052324Y0106934
X004826Y010541
X0046228Y0105537
X0046609Y0106934
X004318Y010541
X004064
X00398235Y00967461
X004191Y0096774
X00441753Y00964545
X00397812Y00946281
X0049276Y0103251
T05
X004064Y000254
X004318
X005715Y002413
Y002667
Y002921
Y003175
Y003429
Y003683
Y003937
Y004191
Y004445
Y004699
Y004953
Y005207
Y007239
Y007493
Y007747
X000127
Y008001
Y008255
Y008509
Y008763
Y009017
Y009271
Y009525
Y009779
Y010033
X005715
Y009779
Y009525
Y009271
Y009017
Y008763
Y008509
Y008255
Y008001
T06
X0016795Y0004928
X0022575
T07
X0004455Y00653221
X0004455Y00721221
T08
X000254Y000254
X005588Y0002413
X000254Y010541
X005588
M30
