M48
;Layer_Color=9474304
;FILE_FORMAT=4:3
METRIC,LZ
;TYPE=PLATED
T3F00S00C0.600
T4F00S00C0.700
;TYPE=NON_PLATED
T12F00S00C0.500
%
G90
G05
T03
G00X0116165Y0167953
M15
G01Y0166653
M16
G00X0124805Y0167953
M15
G01Y0166653
M16
G00X0129315Y0167953
M15
G01Y0166653
M16
G00X0137955Y0167953
M15
G01Y0166653
M16
T04
G00X0116765Y0167903
M15
G01X0116215
M16
G00X0116165Y0173003
M15
G01Y0171703
M16
G00X0124805Y0173003
M15
G01Y0171703
M16
G00X0129315Y0173003
M15
G01Y0171703
M16
G00X0129915Y0167903
M15
G01X0129365
M16
G00X0124205Y0167903
M15
G01X0124755
M16
G00X0137355Y0167903
M15
G01X0137905
M16
G00X0137955Y0173003
M15
G01Y0171703
M16
T12
G00X011706Y0169303
M15
G01X011671
M16
G00X013021Y0169303
M15
G01X012986
M16
M17
M30
