M48
;Layer_Color=9474304
;FILE_FORMAT=4:4
METRIC,LZ
;TYPE=PLATED
T3F00S00C0.6000
T4F00S00C0.7000
;TYPE=NON_PLATED
T12F00S00C0.5000
%
G90
G05
T03
G00X000243Y00868
M15
G01Y00855
M16
G00X001107Y00868
M15
G01Y00855
M16
G00X001558Y00868
M15
G01Y00855
M16
G00X002422Y00868
M15
G01Y00855
M16
T04
G00X000303Y008675
M15
G01X000248
M16
G00X000243Y009185
M15
G01Y009055
M16
G00X001107Y009185
M15
G01Y009055
M16
G00X001558Y009185
M15
G01Y009055
M16
G00X001618Y008675
M15
G01X001563
M16
G00X001047Y008675
M15
G01X001102
M16
G00X002362Y008675
M15
G01X002417
M16
G00X002422Y009185
M15
G01Y009055
M16
T12
G00X0003325Y008815
M15
G01X0002975
M16
G00X0016475Y008815
M15
G01X0016125
M16
M17
M30
