M48
;Layer_Color=9474304
;FILE_FORMAT=4:3
METRIC,LZ
;TYPE=PLATED
T1F00S00C0.203
T2F00S00C0.300
T5F00S00C0.800
T6F00S00C0.889
T7F00S00C1.016
T8F00S00C1.041
T9F00S00C1.150
T10F00S00C1.351
T11F00S00C1.500
;TYPE=NON_PLATED
T13F00S00C0.600
T14F00S00C2.388
T15F00S00C3.400
T16F00S00C3.450
%
T01
X0048Y0084
X00495Y0087
X00525
X0051Y009
X0048
X00495Y0093
X00525
X00555
X00585
X0058735Y0090753
X0058335Y0090253
X0057Y009
X0054
Y0084
X0057
X006
X0063
X0066
X0069
X0072
X0075
X0078
X00765Y0087
X00735
X00705
X00675
X0066Y009
X0069
X0072
X0075
X0078
X00765Y0093
X00735
X0072Y0096
X0075
X0078
Y0102
X0075
X0072
X0069
X0066735Y0102853
X0067235Y0103353
Y0104353
X00675Y0105
X0066735Y0103853
X0065749Y0103861
X0066235Y0104353
X0065235
X0064235
X00645Y0105
X0064735Y0103853
X0063735
Y0102853
X0064235Y0103353
X0063235
X0062735Y0102853
X0063235Y0102353
X0062735Y0101853
X0063235Y0101353
X0061235
Y0102353
X0061735Y0102853
X0062235Y0102353
X0060735Y0102853
Y0101853
X00615Y0105
X006Y0108
X0063
X0066
X0069
X0072
X0075
X0078
X00765Y0105
X00735
Y0099
Y0111
X00705
X00675
X00645
X00615
X00585
X00555
X00525
X00495
X0051Y0114
X0048
X00495Y0117
X00525
X00555
X00585
X00615
X00645
X00675
X00705
X00735
X00765
X0078Y0114
X0075
X0072
X0069
X0066
X0063
X006
X0054
Y0108
X0051
X0048
X00495Y0105
X00525
X00555
X0054Y0102
X0051
X0048
X00495Y0099
X00525
X00555
X0054Y0096
X0051
X0048
X00585Y0087
X00615
X00765Y0111
X00795
X00825
X00855
X00885
X00915
X00945
X00975
X01005
X01035
X01065
X01095
X01125
X01155
X01185
X0117Y0108
X0114
X0111
X0108
X0105
X0102
X0099
X0096
X0093
X009
X0087
X0084
X0081
X00795Y0105
X00825
X00855
X00885
X00915
X00945
X00975
X01005
X01035
X01065
X01095
X0108Y0102
X0105
X0102
X0099
X0096
X0093
X009
X0087
X0084
X0081
X00795Y0099
X00825
X00855
X00885
X00915
X00945
X00975
X01005
X01035
X0102Y0096
X0105
X0108
X0111
X0114
X0117
X01155Y0099
X01125
X01095
Y0093
X01125
X01155
X01185
X0117Y009
X0114
X0111
X0108
X0105
X0102
X0099
X0096
X0093
X009
X0087
X0084
X0081
X00825Y0093
X00795
X0081Y0096
X0084
X0087
X009
X0093
X0096
X0099
X00975Y0093
X00945
X00915
X00885
X00855
Y0087
X00885
X00915
X00945
X00975
X01005
X01035
X01065
X01095
X01125
X01155
X01185
X0117Y0084
X0114
X0111
X0108
X0105
X0102
X0099
X0096
X0093
X009
X0087
X0084
X0081
X00825Y0087
X01005Y0093
X01035
X01065
X0114Y0102
X0117
X01155Y0105
X01185
Y0099
X0117Y0114
X0114
X0111
X0108
X0105
X0102
X0099
X0096
X0093
X009
X0087
X0084
X0081
X00795Y0117
X00825
X00855
X00885
X00915
X00945
X00975
X01005
X01035
X01065
X01095
X01125
X01155
X01185
X01215
X01245
X01275
X01305
X01335
X01365
X01395
X01425
X01455
X0147Y0114
X015
X0153
X01515Y0111
X01485
X01455
X01425
X01395
X01365
X01335
X01305
X01275
X01245
X01215
X012Y0108
X0123
X0126
X0129
X0132
X0135
X0138
X0141
X0144
X0147
X0148135Y0105053
X0148835
X0149535
X0149035Y0104453
Y0103753
Y0103053
X0149735
X0150735
X0151435
X0152135
X0151635Y0102453
X0150935
X0150735Y0101753
X0149835Y0099853
X0152035Y0099753
X0151735Y0099153
X0152535Y0099353
X0153235Y0099153
X0153035Y0099753
X0153237Y0100454
X0153035Y0101053
X0152535Y0100253
X0154035Y0098653
X0154735
X0155435
Y0097953
X0154735
X0154035
X01545Y0093
X01575
X0156Y009
X0153
X015
X0147
X0144
X0141
X0138
X0135
X0132
X0129
X0126
X0123
X012
X01215Y0087
X01245
X01275
X01305
X0129Y0084
X0132
X0135
X0138
X0141
X0144
X0147
X015
X0153
X0156
X01545Y0087
X01575
X01515
X01485
X01455
X01395
Y0093
X0141Y0096
X0138
X0135
X0132
X0129
X0126
X0123
X012
X01215Y0093
X01245
X01275
X01305
Y0099
X01335
X01365
X0138Y0102
X0141
X01425Y0105
X01395
X01365
X01305
X01275
X01245
X01215
X012Y0102
X0123
X0126
X0129
X0132
X01275Y0099
X01245
X01215
X012Y0084
X0123
X0126
Y0114
X0129
X0132
X0135
X0138
X0141
X0144
X0149035Y0118553
X0153235Y0108453
X0153935
X0153635Y0107853
X0152935Y0107653
X0153935Y0107253
X0155935Y0107353
Y0108053
Y0108753
Y0109453
Y0110153
X0158635Y0104553
Y0103853
X0157935
Y0103153
X0158635
X0157935Y0102453
Y0101753
Y0101053
Y0100353
X0156672Y0101488
X0156687Y010216
X0148335Y0103053
Y0103753
Y0104453
X01455Y0105
X01515Y0093
X0123Y0114
X012
X0160835Y0109453
X0161835
X0162835
X0163835
X0164835
X0168Y0108
X0171035Y0105853
Y0104053
X0171Y0102
X01695Y0099
X0171Y0096
X0168
X0165
X01665Y0093
X01695
X01725
X01755
X01785
X0177Y009
X0174
X0171
X0168
X0165
X0162
X0159
X01605Y0087
X01635
X01665
X01695
X0168Y0084
X0165
X0162
X0159
X01605Y0093
X01635
X0162735Y0101453
Y0102153
Y0102853
Y0103553
Y0104253
X0162135Y0103953
Y0104753
X0161435Y0104953
X0160035Y0105253
X0159335
X0160635Y0102853
X0161335
X0162035
X01755Y0105
X01785
X0177Y0108
X01755Y0111
X01785
X0177Y0114
X0174
X0171
X0168
X01695Y0117
X01725
X01755
X01785
X0177Y0102
X01755Y0099
X01785
X0177Y0096
X01755Y0087
X01785
X0174Y0084
X0171
Y012
X0174
X0177
X01755Y0123
X0174635Y0123153
Y0123853
Y0124553
Y0125253
X0173935
Y0124553
Y0123853
Y0123153
X0174Y0126
X0177
X01755Y0129
X01785
X0177Y0132
X0173935Y0131853
X0173235
X0172535
X01725Y0129
X01695
X0167835Y0129053
X0167135
X0167435Y0129753
X0168135
X0167835Y0130353
X0167135
X0167435Y0130953
X0166735
X0165935Y0130953
X0165735Y0131553
X0166435Y0131553
X0167135
X0167835Y0131553
X0168135Y0130953
X0168335Y0127553
X0169035
X0169235Y0126953
X0168535
X0167835Y0125453
X0167135
Y0124753
Y0124053
X0167835
Y0124753
X0168435Y0123453
Y0122753
X0169135
Y0123453
X0165035
Y0122753
X0164335
Y0123453
X0163835Y0121453
X0163135
X0162435
X0161735
Y0120753
X0162435
X0163135
X0163835
X0165Y012
X0168
X0166435Y0125553
X0165635
X0163435Y0125853
X0162735
Y0126553
X0159Y0126
X0158935Y0121453
X0159635
Y0120753
X0158935
X0160335
X0161035
Y0121453
X0160335Y0121453
X0161035Y0130253
X0162635Y0131453
X0163335
X0164035
X0163635Y0132053
X0162935
X0162235Y0132053
X0163335Y0133553
X0165135
X0164835Y0135853
X0160435Y0136753
Y0140053
X0159935Y0142253
X0162605Y0141561
X0170535Y0141853
X0170535Y0142553
Y0143253
X0171Y0144
X0174
X0177
X01785Y0141
X0177Y0138
X01785Y0135
X0173235Y0139153
X0171Y0138
X0168
X01695Y0147
X0165935Y0148353
X0165935Y0149153
Y0149953
Y0150753
X01695Y0153
X0161335Y0153753
X0177Y0156
X01785Y0153
X0177Y015
X01785Y0147
X01755
X0171Y0126
X0166335Y0128853
X0165435
X0159Y0132
X01785Y0123
X0158235Y0121453
Y0120753
X0156Y012
X0153
X0153035Y0119253
X0152335
X0148835
X0145835Y0121653
X0144Y012
X0138
X0135
X0132
X0126
X0123
X012
X0123235Y0126953
X0122235Y0129953
X01215Y0135
X01245
Y0141
X01275
X01305
X0129Y0138
Y0132
X0132
X0135
X0138
X0138035Y0129853
X0137935Y0126953
X01425Y0129
X0141Y0132
X01395Y0135
X01365
X01335
X0132735Y0143453
X0136035Y0144453
X0142635
X0147335Y0145453
X0149635Y0146353
Y0147853
X0151135
Y0149753
Y0153753
X01455Y0153
X0144Y015
X0138735Y0148453
X01395Y0153
X0135Y0156
X0132
X01305Y0147
X0126035Y0145053
X0123135
X0120035
X012Y015
X0119935Y0150953
X0119235Y0150953
X0123Y015
X0126
X0121335Y0156653
X0120535Y0156553
X0120135Y0157153
X01215Y0141
X0130935Y0126953
X0148835Y0126453
Y0125753
X0149535
Y0126453
X0150235Y0126453
Y0125753
X0150935
X0151635
Y0126453
X0150935
X0151935Y0130453
Y0131153
X0152535Y0130753
X0153135Y0130453
Y0131153
X0152991Y0132222
X0151735Y0132153
X015Y0132
X01515Y0135
X01545
X01575
X0157335Y0130753
X0156635
Y0129953
X0157335
X0158035
Y0130753
X0156Y0144
X0154535Y0146353
X01575Y0147
X0157335Y0151153
X0151235Y0142953
X015Y0138
X0146035Y0134953
X0146335Y0158353
X0147035
X0147735
X0145535Y0158553
X0144835
X0144135
X0117835Y0158453
X0118535Y0150953
X0117Y015
X0114
X0111
X0108
X0105
X0102
X0099
X0096
X0093
X00915Y0153
X0093Y0156
X0096
X0099
X0102
X0105
X0108
X0110635Y0155853
X0110635Y0156653
X0110635Y0154953
X0110635Y0154053
X01065Y0153
X01035
X01005
X00975
X0096Y0144
X0093
X009
X0087
X0084
X0081
X00795Y0141
X00825
X00855
X0087Y0138
X00825Y0135
Y0129
X00795
X0081Y0126
X0084
X0088335Y0124353
X0089035Y0127853
X0093Y0126
X0096
X0099
X0098935Y0127953
Y0130453
X0103035Y0133153
X01065Y0135
X0105835Y0129853
X0105035Y0127953
X0105Y0126
X0102
X01005Y0123
X00975
X0096Y012
X0093
X0087
X0084
X0099
X0105
X0108
X0111
Y0126
X0108
X0116235Y0124453
X01155Y0129
Y0135
X01125
Y0141
X01155
X01185
X0117Y0138
X0116935Y0145053
X0114035
X0110535Y0144953
X0105935Y0145053
X01065Y0141
X0102Y0144
X0099
X00975Y0141
X00915
X0087Y015
X0084
X0081
X00795Y0153
X00825
X00855
X0087Y0156
X0084
X0081
X0078
X00765Y0153
X0078Y015
X0075
X0072
X0069
X0066
X0063
X006
X00615Y0147
X00645
X00675
X00705
X00735
X0072Y0144
X0069
X0066
X0063
X006
X00615Y0141
X00645
X00675
X00705
Y0135
X00675
X00645
X00615
X006Y0138
X0054
X0051
X0048
X00495Y0141
X00525
X00555
X0054Y0144
X0051
X0048
X00495Y0147
X00525
X00555
X0054Y015
X0051
X0048
X00495Y0153
X00525
X00555
X0054Y0156
X0051
X0048
X0058335Y0156053
X00615Y0153
X00645
X0066Y0156
X0069
X0072
X0078Y0144
X00765Y0141
Y0135
X0073535Y0133253
X00735Y0129
X00705
X00675
X00645
X00615
X0060435Y0131353
X0060035Y0126953
X00585Y0123
X00555
X00525
X00495
X0051Y0126
X0048
X00495Y0129
X00525
X00555
X0054Y0132
X0051
X0048
X00495Y0135
X00525
X00555
X0054Y0126
Y012
X0051
X0048
X006
X0066
X0069
X0072
X0075
X0078
X00765Y0123
X00735
X00705
X00675
X0066Y0126
X0069
X0072
X0075
X0078
X00765Y0129
Y0159
X0078Y0162
X00765Y0165
X0072535Y0164653
X0072535Y0163953
X0072535Y0163253
X0072Y0162
X00705Y0165
X0068835Y0164853
X0067435
X0064835Y0161553
Y0160553
X0066235Y0159753
X00705Y0159
X0061535Y0158953
X00555Y0159
X00525
X00495
X0051Y0162
X0054
X0057
X00555Y0165
X00525
X00495
X0048Y0168
X0051
X0054
X0057
X006
X0063
X00615Y0165
X00585
Y0171
X00615
X00525
X00495
X0048Y0162
X00735Y0171
X0073735Y0173453
X0074435Y0173453
X0073035
X00765Y0171
X0081635Y0171053
X0084835
X0085635Y0171053
X00885Y0171
X0089135Y0171653
Y0172453
Y0173153
X0092335
Y0172453
Y0171653
X00915Y0171
X0091435Y0170253
X0092135
X0092835
X00945Y0171
X0093Y0168
X0092535Y0163453
X0093Y0162
X0096
X00975Y0159
X01005
X01035
X01065
X0105Y0162
X0102
X01035Y0165
X01065
X0108Y0168
X0111
X01125Y0165
X0115035Y0165453
X0115335Y0164453
X0117735Y0165553
X0119035Y0165553
X01185Y0165
X0118035Y0169253
X0119035Y0169353
X01185Y0159
X0117335Y0159153
X0116835Y0159953
X0115335
X0114235Y0159753
X0111Y0162
X01035Y0171
X0099Y0168
X00975Y0165
X0086135Y0165253
X0086135Y0164553
X0086135Y0163853
X0087Y0162
X0084
X0081
X00795Y0165
X00825
Y0159
X00795
X00855
X0087Y0168
X0121935Y0169353
X0123235Y0169253
X0123235Y0170953
X01275Y0171
X0131135Y0169253
X0132135Y0169153
X0135035Y0169253
X0136335Y0169153
X0136235Y0165653
X0135135Y0165453
X0132235
X0130935
X0129Y0162
X0126
X0123735Y0162153
Y0161453
Y0160753
X0123035
Y0161453
X0122335
Y0160753
Y0162153
X0123035
X0123735Y0163753
X0124435
X0123735Y0164453
X0123235Y0165853
X0122235Y0165684
X0137235Y0164253
X0137535Y0163653
X0136835
X0137035Y0162853
X0137835
X0137435Y0162253
X0136735
X0137835Y0161753
X0137435Y0161053
X0144135Y0160653
X0144835
Y0159953
X0144135
Y0159253
X0144835
X0146335Y0159153
X0147035
X0147735
X0154035Y0158853
X0156935Y0159553
Y0160253
X0157635
Y0160953
X0156935
X0151635Y0164653
Y0165353
X0150985Y0165303
X0150435Y0165853
Y0164753
X0149885Y0164203
X0149853Y0165306
X014906Y0165578
X0149035Y0170253
X0149735
X0151235
X0151935
X0156735Y0172253
Y0172953
Y0173653
X0144735Y0173553
Y0172853
X0144635Y0171353
Y0170653
Y0169153
Y0167853
X0141435Y0169453
X01605Y0165
X0165Y0162
X0164835Y0158853
X01665Y0159
X01725
X01785
X0179735Y0162953
X0179735Y0164153
X0179635Y0166653
X0176235Y0166753
X0177Y0168
X01785Y0171
X01755
X0163135Y0172253
Y0172953
Y0173653
T02
X0057835Y0089753
X0058535Y0091453
X0060935Y0094553
X006201Y0098678
Y0101553
X0059082Y0098453
X0058598Y0097911
X0149335Y0105753
X0149235Y0107853
X0152535Y0108353
X0152344Y0106545
X0160235Y0129453
X0159135Y0130653
X0171135Y0133053
X0173235Y0134253
X0175135Y0132353
X017671Y0140878
X0170538Y0140856
X0166891Y0143497
X0165135Y0145253
X0163835Y0145153
X0162635
X016128Y0145308
X0162535Y0154353
X0165035Y0153953
X0163835Y0156353
X0171335Y0156753
X0173335Y0155853
X0175235Y0156753
X0157635Y0157353
X0157535Y0155853
X0157662Y0154425
X0155908Y0155053
X0155335Y0154353
X0153662Y0154325
X0153535Y0156453
X0151032Y0155853
X0151235Y0155053
X0150435Y0154653
X0148635Y0156453
Y0157354
X0145535Y0156153
X014411Y0157053
X0142935
X0142335Y0156253
Y0155453
X0138035Y0157453
X0128035Y0157653
X0125735Y0154324
Y0153597
Y015287
Y0152143
X0130335Y0131953
X0129635Y0130053
X0156535Y0128653
X0156435Y0127153
Y0124353
X0153435Y0138553
X0152335
Y0143253
X0153335
X0154635Y0141626
X0155335Y0142153
X0154208Y0152453
X0155008Y0158343
X0115435Y0156453
X0111235Y0157553
Y0153553
X0112535Y0151853
X0088662Y0140553
X0087935Y0141053
X0068935Y0161553
X0070685Y0164003
X0072435Y0165753
X0074435Y0167553
Y0169653
X0080635Y0170253
X0089135Y0167353
X0090335Y0165253
X0091835Y0166253
X0108335Y0165553
X0110335Y0165653
X0109235Y0158853
X0113935Y0160653
X0117635Y0161253
X012098Y0165498
X0121035Y0169453
X0120362Y0169728
X0127635Y0166153
X0132935Y0165453
X0133335Y0169753
X0134009Y016948
X0139635Y0167153
X0141037Y0166975
X0141503Y0166417
X0141945Y016584
X0142485Y0165303
X0143035Y0164753
X0141535Y0164553
X0141935Y0163653
X0139162Y0163353
X0138635Y0162453
X0144335Y0161353
X014796Y0162278
X014851Y0162828
X014906Y0163653
X0149885Y0163378
X015071
X015236Y0162278
X015291Y0162828
X015181Y0166403
X0150757Y016768
X0149885Y0168053
X0149035Y0168053
X014906Y0167228
Y0166403
Y0164753
Y0168878
X0151504Y0168486
X0151835Y016918
X0145316Y0169153
X0144719Y0169875
X0143755Y0167858
X0143735Y0171953
X0143435Y0172953
X0158735Y0170953
X0157585Y0167503
Y0166403
X0151535Y0158978
X0149335
X0130635Y0162253
X0166235Y0162953
Y0164253
Y0165553
Y0167853
X0165235
X0169635Y0166253
Y0164851
Y0163551
Y0162151
X0170535Y0161653
Y0162956
Y0164256
Y0165453
X0166235Y0161453
X0176135Y0160353
X0160935Y0170953
X0159935
T05
X0065135Y0171653
X0067135
X0069135
T06
X0141675Y0120523
Y0123063
Y0125603
Y0128143
Y0130683
Y0133223
Y0135763
Y0138303
X0118815
Y0135763
Y0133223
Y0130683
Y0128143
Y0125603
Y0123063
Y0120523
X0113735
Y0123063
Y0125603
Y0128143
Y0130683
Y0133223
Y0135763
Y0138303
X0090875
Y0135763
Y0133223
Y0130683
Y0128143
Y0125603
Y0123063
Y0120523
X0085795
Y0123063
Y0125603
Y0128143
Y0130683
Y0133223
Y0135763
Y0138303
X0062935
Y0135763
Y0133223
Y0130683
Y0128143
Y0125603
Y0123063
Y0120523
T07
X0158995Y0138353
X0161535
X0164075
T08
X0097435Y0171353
X0101935
X0107135
X0111635
T09
X0148135Y0085753
Y0088293
X0088335Y0149853
Y0152393
Y0156013
Y0158553
T10
X009618Y0168863
X010319
X010588
X011289
T11
X0063035Y0171653
X0071235
T13
X0124085Y0169303
X0137235
T14
X0142312Y0086952
T15
X0055735Y0086153
X0171735
X0055735Y0171153
X0171735
T16
X0078838Y0086952
X0134083Y0102954
M30
