M48
;Layer_Color=9474304
;FILE_FORMAT=4:4
METRIC,LZ
;TYPE=PLATED
T1F00S00C0.2032
T2F00S00C0.3000
T5F00S00C0.8000
T6F00S00C0.8890
T7F00S00C1.0160
T8F00S00C1.0408
T9F00S00C1.1500
T10F00S00C1.3508
T11F00S00C1.5000
;TYPE=NON_PLATED
T13F00S00C0.6000
T14F00S00C2.3876
T15F00S00C3.4000
T16F00S00C3.4500
%
T01
X-00657354Y0002847
X-00642354Y0005847
X-00612354
X-00597354Y0008847
X-00627354
X-00657354
X-00642354Y0011847
X-00612354
X-00582354
X-00552354
X-0055Y00096
X-00554Y00091
X-00567354Y0008847
X-00552354Y0005847
X-00522354
X-00537354Y0002847
X-00567354
X-00597354
X-00507354
X-00477354
X-00447354
X-00417354
X-00387354
X-00357354
X-00372354Y0005847
X-00402354
X-00432354
X-00462354
X-00477354Y0008847
X-00447354
X-00417354
X-00387354
X-00357354
X-00372354Y0011847
X-00402354
X-00417354Y0014847
X-00387354
X-00357354
Y0020847
X-00387354
X-00417354
X-00447354
X-0047Y00217
X-00465Y00222
Y00232
X-00462354Y0023847
X-0047Y00227
X-00479861Y00227076
X-00475Y00232
X-00485
X-00495
X-00492354Y0023847
X-0049Y00227
X-005
Y00217
X-00495Y00222
X-00505
X-0051Y00217
X-00505Y00212
X-0051Y00207
X-00505Y00202
X-00525
Y00212
X-0052Y00217
X-00515Y00212
X-0053Y00217
Y00207
X-00522354Y0023847
X-00537354Y0026847
X-00507354
X-00477354
X-00447354
X-00417354
X-00387354
X-00357354
X-00372354Y0023847
X-00402354
Y0017847
Y0029847
X-00372354
X-00387354Y0032847
X-00357354
X-00372354Y0035847
X-00402354
X-00432354
X-00462354
X-00492354
X-00522354
X-00552354
X-00582354
X-00612354
X-00642354
X-00627354Y0032847
X-00597354
X-00582354Y0029847
X-00612354
X-00642354
X-00657354Y0032847
Y0026847
X-00627354
X-00597354
X-00612354Y0023847
X-00642354
X-00627354Y0020847
X-00597354
X-00582354Y0017847
X-00612354
X-00642354
X-00657354Y0020847
Y0014847
X-00627354
X-00597354
X-00582354Y0023847
X-00552354Y0029847
X-00522354
X-00492354
X-00462354
X-00432354
X-00447354Y0032847
X-00477354
X-00507354
X-00537354
X-00417354
X-00327354
X-00297354
X-00267354
X-00237354
X-00207354
X-00177354
X-00147354
X-00117354
X-00087354
X-00057354
X-00027354
X00002646
X00032646
X00047646Y0029847
X00017646
X-00012354
X-00042354
X-00072354
X-00102354
X-00132354
X-00162354
X-00192354
X-00222354
X-00252354
X-00282354
X-00312354
X-00342354
X-00327354Y0026847
X-00297354
X-00267354
X-00237354
X-00207354
X-00177354
X-00147354
X-00117354
X-00087354
X-00057354
X-00027354
X00002646
X00032646
X00047646Y0023847
X00017646
X00032646Y0020847
X00002646
X-00012354Y0017847
X-00042354
X-00057354Y0014847
X-00027354
X00002646
X00032646
X00047646Y0011847
X00017646
X-00012354
X-00042354
X-00072354
X-00102354
X-00132354
X-00162354
X-00192354
X-00222354
X-00252354
X-00282354
X-00312354
X-00342354
X-00327354Y0008847
X-00297354
X-00267354
X-00237354
X-00207354
X-00177354
X-00147354
X-00117354
X-00087354
X-00057354
X-00027354
X00002646
X00032646
X00047646Y0005847
X00017646
X-00012354
X-00042354
X-00072354
X-00102354
X-00132354
X-00162354
X-00192354
X-00222354
X-00252354
X-00282354
X-00312354
X-00297354Y0002847
X-00267354
X-00237354
X-00207354
X-00177354
X-00147354
X-00117354
X-00087354
X-00057354
X-00027354
X00002646
X00032646
X00047646Y0017847
X00017646
X-00057354Y0020847
X-00087354
X-00117354
X-00147354
X-00177354
X-00207354
X-00237354
X-00267354
X-00297354
X-00327354
X-00312354Y0017847
X-00282354
X-00252354
X-00222354
X-00192354
X-00162354
X-00132354
X-00102354
X-00117354Y0014847
X-00147354
X-00177354
X-00207354
X-00237354
X-00267354
X-00297354
X-00327354
X-00342354Y0017847
Y0023847
X-00312354
X-00282354
X-00252354
X-00222354
X-00192354
X-00162354
X-00132354
X-00102354
X-00072354
X-00042354
Y0035847
X-00072354
X-00102354
X-00132354
X-00162354
X-00192354
X-00222354
X-00252354
X-00282354
X-00312354
X-00342354
X-00012354
X00017646
X00047646
X-00087354Y0014847
X-00327354Y0002847
X00062646
X00092646
X00122646
X00152646
X00182646
X00212646
X00242646
X00272646
X00302646
X00332646
X00362646
X00392645
X00422645
X00407645Y0005847
X00377645
X00347646
X00317646
X00332646Y0008847
X00302646
X00272646
X00242646
X00212646
X00182646
X00152646
X00122646
X00092646
X00062646
X00077646Y0005847
X00107646
X00137646
X00167646
Y0011847
X00137646
X00107646
X00077646
X00062646Y0014847
X00092646
X00122646
X00152646
X00182646
X00212646
X00242646
X00272646
X00257646Y0011847
Y0005847
X00362646Y0008847
X00392645
X00422645
X00437645Y0011847
X00407645
X00377645
X0038Y0018
X00383Y00186
X00388Y00182
X00395Y0018
X00393Y00186
X00395015Y00193014
X00393Y00199
X00388Y00191
X00403Y00175
X0041
X00417
Y00168
X0041
X00403
X00361Y00187
X0037Y00206
X00372Y00213
X00379
X00377Y00219
X00384
X0037
X0036
X00353
X00346
Y00226
Y00233
X00353
Y00226
X00351Y00239
X00358
X00344
X00317646Y0023847
X00287646
X00257646
X00227646
X00242646Y0026847
X00272646
X00302646
X00332646
X00317646Y0029847
X00287646
X00257646
X00227646
X00197646
X00167646
X00137646
X00107646
X00077646
X00092646Y0026847
X00122646
X00152646
X00182646
X00212646
Y0032847
X00182646
X00152646
X00122646
X00092646
X00062646
X00077646Y0035847
X00107646
X00137646
X00167646
X00197646
X00227646
X00257646
X00287646
X00317646
X00332646Y0032847
X00362646
X00392645
X00377645Y0029847
X00347646
X00395Y00273
X00402
X00399Y00267
X00392Y00265
X00402Y00261
X00422Y00262
Y00269
Y00276
Y00283
Y0029
X00449Y00234
Y00227
X00442
Y0022
X00449
X00442Y00213
Y00206
Y00199
Y00192
X00429365Y00203353
X00429518Y00210071
X00272646Y0020847
X00242646
X00227646Y0017847
X00197646
X00167646
X00137646
X00107646
X00077646
X00092646Y0020847
X00062646
X00077646Y0023847
X00107646
X00137646
X00167646
X00152646Y0020847
X00122646
X00182646
X00242646Y0032847
X00272646
X00302646
X00353Y00374
X00062646Y0026847
X00437645Y0005847
X00467645
X00497645
X00527645
X00557645
X00572645Y0008847
X00542645
X00512645
X00482645
X00452645
X00467645Y0011847
X00497645
X00527645
X00557645
X00587645
X00617645
X00647645
X00632645Y0014847
X00617645Y0017847
X00647645
X00632645Y0020847
X00617645Y0023847
X00647645
X00632645Y0026847
X00647645Y0029847
X00617645
X00632645Y0032847
X00602645
X00572645
X00542645
X00557645Y0035847
X00587645
X00617645
X00647645
X00573Y00247
Y00229
X00572645Y0020847
X00557645Y0017847
X00572645Y0014847
X00542645
X00512645
X0049Y00203
Y0021
Y00217
Y00224
Y00231
X00484Y00228
Y00236
X00477Y00238
X00463Y00241
X00456
X00469Y00217
X00476
X00483
X00481Y00283
X00491
X00501
X00511
X00471
X00542645Y0026847
X00602645Y0008847
X00632645
X00647645Y0005847
X00617645
X00602645Y0002847
X00572645
X00542645
X00512645
X00482645
X00452645
X00452Y00396
X00459
Y00403
X00452
X00466
Y00396
X00473
X0048
X00487
Y00403
X0048
X00473Y00403
X00494Y00403
X00501
Y00396
X00494
X00512645Y0038847
X00513Y00416
X00506
Y00423
X00513
X00519Y00444
X00527
X00534Y00443
X00541
Y00436
Y00429
X00534
Y00436
X00547Y00423
Y00416
X00554
Y00423
X00555Y00458
X00548
X00546Y00464
X00553
X00557645Y0047847
X00541Y00479
X00534
X00537Y00486
X00544
X00541Y00492
X00534
X00537Y00498
X0053
X00522Y00498
X0052Y00504
X00527Y00504
X00534
X00541Y00504
X00544Y00498
X00526Y00477
X00517
X00503Y00503
X00496
X00489
X00492Y00509
X00499
X00485Y00509
X00496Y00524
X00514
X00511Y00547
X00467Y00556
Y00589
X00462Y00611
X00488692Y00604084
X00568Y00607
X00568Y00614
Y00621
X00572645Y0062847
X00602645
X00632645
X00647645Y0059847
X00632645Y0056847
X00647645Y0053847
X00632645Y0050847
X00602Y00507
X00595
X00588
X00587645Y0047847
X00617645
X00647645
X00632645Y0044847
X00602645
X00602Y00441
X00609
Y00434
Y00427
X00602
Y00434
Y0042
X00609
X00617645Y0041847
X00647645
X00632645Y0038847
X00602645
X00572645
X00542645
X00572645Y0044847
X00497Y00447
X0049
Y00454
X00452645Y0044847
Y0050847
X00473Y00491
X00542645Y0056847
X00572645
X00595Y0058
X00617645Y00658469
X00647645
X00632645Y00688469
X00647645Y00718469
X00632645Y00748469
X00557645Y00718469
X00522Y00696
Y00688
Y0068
X00522Y00672
X00557645Y00658469
X00476Y00726
X00436Y007
X00437645Y00658469
X00408Y00652
X00422645Y0062847
X00375Y00618
X00359Y00652
Y00667
X00374
Y00686
Y00726
X00317646Y00718469
X00302646Y00688469
X0025Y00673
X00257646Y00718469
X00212646Y00748469
X00182646
X00167646Y00658469
X0019Y00623
X00223Y00633
X00289
X00336Y00643
X00362646Y0056847
X00377645Y0053847
X00407645
X00437645
X00436Y00496
X00429
Y00488
X00436
X00443
Y00496
X00394Y00493
Y005
X00388Y00496
X00382Y00493
Y005
X0038Y0051
X00392551Y00510689
X00362646Y0050847
X00365Y00453
Y00446
X00372
X00379
Y00453
X00372
X00358
Y00446
X00351
Y00453
Y00381
X00386
X00393
X00392645Y0038847
X00422645
X00445Y00396
Y00403
X00321Y00405
X00302646Y0038847
X00242646
X00212646
X00182646
X00122646
X00092646
X00062646
X00095Y00458
X00085Y00488
X00077646Y0053847
X00107646
Y0059847
X00137646
X00167646
X00152646Y0056847
Y0050847
X00182646
X00212646
X00242646
X00243Y00487
X00242Y00458
X00287646Y0047847
X00272646Y0050847
X00257646Y0053847
X00227646
X00197646
X00172Y00458
X00123Y00639
X00094
X00063
X00062646Y00688469
X00062Y00698
X00055Y00698
X00092646Y00688469
X00122646
X00076Y00755
X00068Y00754
X00064Y0076
X00077646Y0059847
X00323Y00538
X00326Y00772
X00333
X0034
X00318Y00774
X00311
X00304
X00041Y00773
X00048Y00698
X00032646Y00688469
X00002646
X-00027354
X-00057354
X-00087354
X-00117354
X-00147354
X-00177354
X-00207354
X-00222354Y00718469
X-00207354Y00748469
X-00177354
X-00147354
X-00117354
X-00087354
X-00057354
X-00031Y00747
X-00031Y00755
X-00031Y00738
X-00031Y00729
X-00072354Y00718469
X-00102354
X-00132354
X-00162354
X-00177354Y0062847
X-00147354
X-00117354
X-00078Y00639
X-00072354Y0059847
X-00012354
X00017646
X00047646
X00032646Y0056847
X00017646Y0053847
X-00012354
X-00072354
X-00107Y0052
X-00079Y00487
X-00087Y00468
X-00087354Y0044847
X-00057354
X-00027354
Y0038847
X-00057354
X-00087354
X-00147354
X-00177354
X-00207354
Y0044847
X-00177354
X-00147354
X-00148Y00468
Y00493
X-00117354Y0044847
X-00132354Y0041847
X-00162354
X-00254Y00432
X-00247Y00467
X-00297354Y0044847
X-00327354
X-00342354Y0047847
X-00312354
Y0041847
X-00342354
X-00327354Y0038847
X-00297354
X-00267354
Y0056847
X-00282354Y0059847
X-00312354
X-00342354
X-00327354Y0062847
X-00297354
X-00267354
X-00237354
X-00207354
X-00222354Y0059847
X-00162354
X-00032Y00638
X00003Y00639
X00032
X00017646Y0047847
X00025Y00433
X-00312354Y0053847
X-00327354Y00688469
X-00297354
X-00267354
X-00282354Y00718469
X-00312354
X-00342354
X-00327354Y00748469
X-00297354
X-00267354
X-00357354
X-00372354Y00718469
X-00387354Y00688469
X-00417354
X-00447354
X-00477354
X-00507354
X-00537354
X-00522354Y00658469
X-00492354
X-00462354
X-00432354
X-00402354
X-00417354Y0062847
X-00447354
X-00477354
X-00507354
X-00537354
X-00522354Y0059847
X-00492354
X-00462354
X-00432354
X-00372354
X-00357354Y0062847
Y00688469
X-00417354Y00748469
X-00447354
X-00477354
X-00492354Y00718469
X-00522354
X-00582354
X-00612354
X-00642354
X-00657354Y00688469
X-00627354
X-00597354
X-00612354Y00658469
X-00642354
X-00657354Y0062847
X-00627354
X-00597354
X-00582354Y0059847
X-00612354
X-00642354
X-00657354Y0056847
X-00627354
X-00597354
X-00612354Y0053847
X-00642354
X-00657354Y0050847
X-00627354
X-00597354
X-00582354Y0047847
X-00612354
X-00642354
X-00657354Y0044847
X-00627354
X-00597354
X-00582354Y0041847
X-00612354
X-00642354
X-00627354Y0038847
X-00597354
X-00537354
X-00552354Y0041847
X-00537Y00458
X-00522354Y0047847
X-00492354
X-00462354
X-00432354
X-00402354
X-00372354
X-00357354Y0044847
X-00387354
X-00417354
X-00447354
X-00477354
X-00462354Y0041847
X-00432354
X-00402354
X-00372354
X-00387354Y0038847
X-00417354
X-00447354
X-00477354
X-00357354
X-00372354Y0053847
X-00402Y00521
X-00432354Y0053847
X-00462354
X-00492354
X-00522354
X-00537354Y0056847
X-00533Y00502
X-00582354Y0053847
Y00658469
X-00597354Y00748469
X-00627354
X-00657354
X-00554Y00749
X-00657354Y0038847
X-00642354Y00778469
X-00612354
X-00582354
X-00597354Y00808469
X-00627354
X-00657354
X-00642354Y00838469
X-00612354
X-00582354
X-00552354
X-00522354
X-00537354Y00868469
X-00507354
X-00522354Y00898469
X-00552354
X-00567354Y00868469
X-00597354
X-00627354
X-00657354
X-00642354Y00898469
X-00612354
X-00567354Y00808469
X-00522Y00778
X-00489Y00794
Y00804
X-00475Y00786
X-00432354Y00778469
X-00417354Y00808469
X-00412Y00821
X-00412Y00828
X-00412Y00835
X-00432354Y00838469
X-00449Y00837
X-00463
X-00372354Y00838469
X-00357354Y00808469
X-00372354Y00778469
Y00898469
X-00402354
X-004Y00923
X-00393Y00923
X-00407
X-00321Y00899
X-00289
X-00281Y00899
X-00252354Y00898469
X-00246Y00905
Y00913
Y0092
X-00214
Y00913
Y00905
X-00222354Y00898469
X-00223Y00891
X-00216
X-00209
X-00192354Y00898469
X-00207354Y00868469
X-00212Y00823
X-00207354Y00808469
X-00177354
X-00162354Y00778469
X-00132354
X-00102354
X-00072354
X-00087354Y00808469
X-00117354
X-00102354Y00838469
X-00072354
X-00057354Y00868469
X-00027354
X-00012354Y00838469
X00013Y00843
X00016Y00833
X0004Y00844
X00053Y00844
X00047646Y00838469
X00043Y00881
X00053Y00882
X00047646Y00778469
X00036Y0078
X00031Y00788
X00016
X00005Y00786
X-00027354Y00808469
X-00102354Y00898469
X-00147354Y00868469
X-00162354Y00838469
X-00276Y00841
X-00276Y00834
X-00276Y00827
X-00267354Y00808469
X-00297354
X-00327354
X-00312354Y00778469
X-00282354
X-00342354
Y00838469
X-00312354
X-00267354Y00868469
X00082Y00882
X00095Y00881
X00095Y00898
X00137646Y00898469
X00174Y00881
X00184Y0088
X00213Y00881
X00226Y0088
X00225Y00845
X00214Y00843
X00185
X00172
X00152646Y00808469
X00122646
X001Y0081
Y00803
Y00796
X00093
Y00803
X00086
Y00796
Y0081
X00093
X001Y00826
X00107
X001Y00833
X00095Y00847
X00085Y00845306
X00235Y00831
X00238Y00825
X00231
X00233Y00817
X00241
X00237Y00811
X0023
X00241Y00806
X00237Y00799
X00304Y00795
X00311
Y00788
X00304
Y00781
X00311
X00326Y0078
X00333
X0034
X00403Y00777
X00432Y00784
Y00791
X00439
Y00798
X00432
X00379Y00835
Y00842
X003725Y008415
X00367Y00847
Y00836
X003615Y008305
X00361171Y00841533
X0035325Y0084425
X00353Y00891
X0036
X00375
X00382
X0043Y00911
Y00918
Y00925
X0031Y00924
Y00917
X00309Y00902
Y00895
Y0088
Y00867
X00277Y00883
X00467645Y00838469
X00512645Y00808469
X00511Y00777
X00527645Y00778469
X00587645
X00647645
X0066Y00818
X0066Y0083
X00659Y00855
X00625Y00856
X00632645Y00868469
X00647645Y00898469
X00617645
X00494Y00911
Y00918
Y00925
T02
X-00559Y00086
X-00552Y00103
X-00528Y00134
X-0051725Y0017525
Y00204
X-00546533Y00173
X-00551377Y00167578
X00356Y00246
X00355Y00267
X00388Y00272
X00386085Y00253915
X0046Y0046
X00454Y00495
X00574Y00519
X00595Y00531
X00614Y00512
X0062975Y0059725
X00568031Y00597031
X00531558Y00623442
X00514Y00641
X00501Y0064
X00489
X00475445Y00641555
X00488Y00732
X00513Y00728
X00501Y00752
X00576Y00756
X00596Y00747
X00615Y00756
X00439Y00762
X00438Y00747
X0043927Y00732723
X0042173Y00739
X00416Y00732
X0039927Y00731723
X00398Y00753
X00372968Y00747
X00375Y00739
X00367Y00735
X00349Y00753
Y00762005
X00318Y0075
X0030375Y00759
X00292
X00286Y00751
Y00743
X00243Y00763
X00143Y00765
X0012Y00731714
Y00724444
Y00717174
Y00709904
X00166Y00508
X00159Y00489
X00428Y00475
X00427Y0046
Y00432
X00397Y00574
X00386
Y00621
X00396
X00409Y0060473
X00416Y0061
X0040473Y00713
X0041273Y00771901
X00017Y00753
X-00025Y00764
Y00724
X-00012Y00707
X-0025073Y00594
X-00258Y00599
X-00448Y00804
X-00413Y00846
X-00393Y00864
Y00885
X-00343Y00891
X-00246Y00862
X-00234Y00841
X-00219Y00851
X-00054Y00844
X-00034Y00845
X-00045Y00777
X00002Y00795
X00039Y00801
X0007245Y0084345
X00073Y00883
X0006627Y0088575
X00139Y0085
X00192Y00843
X00196Y00886
X00202738Y0088327
X00259Y0086
X0027302Y00858222
X00277676Y00852639
X002821Y0084687
X002875Y008415
X00293Y00836
X00278Y00834
X00282Y00825
X0025427Y00822
X00249Y00813
X00306Y00802
X0034225Y0081125
X0034775Y0081675
X0035325Y00825
X003615Y0082225
X0036975
X0038625Y0081125
X0039175Y0081675
X0038075Y008525
X00370214Y0086527
X003615Y00869
X00353Y00869
X0035325Y0086075
Y008525
Y00836
Y0087725
X00377684Y00873331
X00381Y0088027
X00315806Y0088
X00309837Y0088722
X003002Y0086705
X003Y00908
X00297Y00918
X0045Y00898
X004385Y008635
Y008525
X00378Y0077825
X00356
X00169Y00811
X00525Y00818
Y00831
Y00844
Y00867
X00515
X00559Y00851
Y0083698
Y0082398
Y0080998
X00568Y00805
Y00818032
Y00831032
Y00843
X00525Y00803
X00624Y00792
X00472Y00898
X00462
T05
X-00486Y00905
X-00466
X-00446
T06
X002794Y003937
Y004191
Y004445
Y004699
Y004953
Y005207
Y005461
Y005715
X000508
Y005461
Y005207
Y004953
Y004699
Y004445
Y004191
Y003937
X0
Y004191
Y004445
Y004699
Y004953
Y005207
Y005461
Y005715
X-002286
Y005461
Y005207
Y004953
Y004699
Y004445
Y004191
Y003937
X-002794
Y004191
Y004445
Y004699
Y004953
Y005207
Y005461
Y005715
X-00508
Y005461
Y005207
Y004953
Y004699
Y004445
Y004191
Y003937
T07
X004526Y00572
X00478
X005034
T08
X-00163Y00902
X-00118
X-00066
X-00021
T09
X00344Y00046
Y000714
X-00254Y00687
Y007124
Y007486
Y00774
T10
X-0017555Y008771
X-0010545
X-0007855
X-0000845
T11
X-00507Y00905
X-00425
T13
X001035Y008815
X00235
T14
X00285771Y0005799
T15
X-0058Y0005
X0058
X-0058Y009
X0058
T16
X-00348975Y0005799
X00203475Y0021801
M30
