G04*
G04 #@! TF.GenerationSoftware,Altium Limited,Altium Designer,23.1.1 (15)*
G04*
G04 Layer_Physical_Order=2*
G04 Layer_Color=36540*
%FSLAX44Y44*%
%MOMM*%
G71*
G04*
G04 #@! TF.SameCoordinates,52DFFBC7-DF18-43FC-A01C-1C5016B87F82*
G04*
G04*
G04 #@! TF.FilePolarity,Positive*
G04*
G01*
G75*
%ADD149C,0.6500*%
G04:AMPARAMS|DCode=150|XSize=1mm|YSize=2.1mm|CornerRadius=0.5mm|HoleSize=0mm|Usage=FLASHONLY|Rotation=0.000|XOffset=0mm|YOffset=0mm|HoleType=Round|Shape=RoundedRectangle|*
%AMROUNDEDRECTD150*
21,1,1.0000,1.1000,0,0,0.0*
21,1,0.0000,2.1000,0,0,0.0*
1,1,1.0000,0.0000,-0.5500*
1,1,1.0000,0.0000,-0.5500*
1,1,1.0000,0.0000,0.5500*
1,1,1.0000,0.0000,0.5500*
%
%ADD150ROUNDEDRECTD150*%
G04:AMPARAMS|DCode=151|XSize=1mm|YSize=1.8mm|CornerRadius=0.5mm|HoleSize=0mm|Usage=FLASHONLY|Rotation=0.000|XOffset=0mm|YOffset=0mm|HoleType=Round|Shape=RoundedRectangle|*
%AMROUNDEDRECTD151*
21,1,1.0000,0.8000,0,0,0.0*
21,1,0.0000,1.8000,0,0,0.0*
1,1,1.0000,0.0000,-0.4000*
1,1,1.0000,0.0000,-0.4000*
1,1,1.0000,0.0000,0.4000*
1,1,1.0000,0.0000,0.4000*
%
%ADD151ROUNDEDRECTD151*%
%ADD169C,0.4750*%
%ADD170C,1.8796*%
%ADD171C,3.0480*%
%ADD172C,0.5000*%
%ADD173C,0.6000*%
%ADD175C,0.4599*%
%ADD176C,0.5648*%
G36*
X581610Y1011710D02*
X580408Y1011302D01*
X580014Y1011814D01*
X577520Y1013728D01*
X574617Y1014931D01*
X574040Y1015007D01*
Y1003300D01*
Y991593D01*
X574617Y991669D01*
X577520Y992872D01*
X580014Y994786D01*
X580408Y995298D01*
X581610Y994890D01*
Y985169D01*
X580340Y984738D01*
X579471Y985871D01*
X577136Y987662D01*
X574417Y988788D01*
X571500Y989172D01*
X568582Y988788D01*
X565864Y987662D01*
X563529Y985871D01*
X561738Y983536D01*
X560612Y980817D01*
X560228Y977900D01*
X560612Y974983D01*
X561738Y972264D01*
X563529Y969929D01*
X565864Y968138D01*
X568582Y967012D01*
X571500Y966628D01*
X574417Y967012D01*
X577136Y968138D01*
X579471Y969929D01*
X580340Y971062D01*
X581610Y970631D01*
Y959769D01*
X580340Y959338D01*
X579471Y960471D01*
X577136Y962262D01*
X574417Y963388D01*
X571500Y963772D01*
X568582Y963388D01*
X565864Y962262D01*
X563529Y960471D01*
X561738Y958136D01*
X560612Y955417D01*
X560228Y952500D01*
X560612Y949583D01*
X561738Y946864D01*
X563529Y944529D01*
X565864Y942738D01*
X568582Y941612D01*
X571500Y941228D01*
X574417Y941612D01*
X577136Y942738D01*
X579471Y944529D01*
X580340Y945662D01*
X581610Y945231D01*
Y934369D01*
X580340Y933938D01*
X579471Y935071D01*
X577136Y936862D01*
X574417Y937988D01*
X571500Y938372D01*
X568582Y937988D01*
X565864Y936862D01*
X563529Y935071D01*
X561738Y932736D01*
X560612Y930017D01*
X560228Y927100D01*
X560612Y924183D01*
X561738Y921464D01*
X563529Y919129D01*
X565864Y917338D01*
X568582Y916212D01*
X571500Y915828D01*
X574417Y916212D01*
X577136Y917338D01*
X579471Y919129D01*
X580340Y920262D01*
X581610Y919831D01*
Y908969D01*
X580340Y908538D01*
X579471Y909671D01*
X577136Y911462D01*
X574417Y912588D01*
X571500Y912972D01*
X568582Y912588D01*
X565864Y911462D01*
X563529Y909671D01*
X561738Y907336D01*
X560612Y904617D01*
X560228Y901700D01*
X560612Y898783D01*
X561738Y896064D01*
X563529Y893729D01*
X565864Y891938D01*
X568582Y890812D01*
X571500Y890428D01*
X574417Y890812D01*
X577136Y891938D01*
X579471Y893729D01*
X580340Y894862D01*
X581610Y894431D01*
Y883569D01*
X580340Y883138D01*
X579471Y884271D01*
X577136Y886062D01*
X574417Y887188D01*
X571500Y887572D01*
X568582Y887188D01*
X565864Y886062D01*
X563529Y884271D01*
X561738Y881936D01*
X560612Y879218D01*
X560228Y876300D01*
X560612Y873382D01*
X561738Y870664D01*
X563529Y868329D01*
X565864Y866538D01*
X568582Y865412D01*
X571500Y865028D01*
X574417Y865412D01*
X577136Y866538D01*
X579471Y868329D01*
X580340Y869462D01*
X581610Y869031D01*
Y858169D01*
X580340Y857738D01*
X579471Y858871D01*
X577136Y860662D01*
X574417Y861788D01*
X571500Y862172D01*
X568582Y861788D01*
X565864Y860662D01*
X563529Y858871D01*
X561738Y856536D01*
X560612Y853818D01*
X560228Y850900D01*
X560612Y847982D01*
X561738Y845264D01*
X563529Y842929D01*
X565864Y841138D01*
X568582Y840012D01*
X571500Y839628D01*
X574417Y840012D01*
X577136Y841138D01*
X579471Y842929D01*
X580340Y844062D01*
X581610Y843631D01*
Y832769D01*
X580340Y832338D01*
X579471Y833471D01*
X577136Y835262D01*
X574417Y836388D01*
X571500Y836772D01*
X568582Y836388D01*
X565864Y835262D01*
X563529Y833471D01*
X561738Y831136D01*
X560612Y828418D01*
X560228Y825500D01*
X560612Y822582D01*
X561738Y819864D01*
X563529Y817529D01*
X565864Y815738D01*
X568582Y814612D01*
X571500Y814228D01*
X574417Y814612D01*
X577136Y815738D01*
X579471Y817529D01*
X580340Y818662D01*
X581610Y818231D01*
Y807369D01*
X580340Y806938D01*
X579471Y808071D01*
X577136Y809862D01*
X574417Y810988D01*
X571500Y811372D01*
X568582Y810988D01*
X565864Y809862D01*
X563529Y808071D01*
X561738Y805736D01*
X560612Y803018D01*
X560228Y800100D01*
X560612Y797182D01*
X561738Y794464D01*
X563529Y792129D01*
X565864Y790338D01*
X568582Y789212D01*
X571500Y788828D01*
X574417Y789212D01*
X577136Y790338D01*
X579471Y792129D01*
X580340Y793262D01*
X581610Y792831D01*
Y781969D01*
X580340Y781538D01*
X579471Y782671D01*
X577136Y784462D01*
X574417Y785588D01*
X571500Y785972D01*
X568582Y785588D01*
X565864Y784462D01*
X563529Y782671D01*
X561738Y780336D01*
X560612Y777617D01*
X560228Y774700D01*
X560612Y771783D01*
X561738Y769064D01*
X563529Y766729D01*
X565864Y764938D01*
X568582Y763812D01*
X571500Y763428D01*
X574417Y763812D01*
X577136Y764938D01*
X579471Y766729D01*
X580340Y767862D01*
X581610Y767431D01*
Y756569D01*
X580340Y756138D01*
X579471Y757271D01*
X577136Y759062D01*
X574417Y760188D01*
X571500Y760572D01*
X568582Y760188D01*
X565864Y759062D01*
X563529Y757271D01*
X561738Y754936D01*
X560612Y752217D01*
X560228Y749300D01*
X560612Y746383D01*
X561738Y743664D01*
X563529Y741329D01*
X565864Y739538D01*
X568582Y738412D01*
X571500Y738028D01*
X574417Y738412D01*
X577136Y739538D01*
X579471Y741329D01*
X580340Y742462D01*
X581610Y742031D01*
Y731169D01*
X580340Y730738D01*
X579471Y731871D01*
X577136Y733662D01*
X574417Y734788D01*
X571500Y735172D01*
X568582Y734788D01*
X565864Y733662D01*
X563529Y731871D01*
X561738Y729536D01*
X560612Y726817D01*
X560228Y723900D01*
X560612Y720983D01*
X561738Y718264D01*
X563529Y715929D01*
X565864Y714138D01*
X568582Y713012D01*
X569180Y712933D01*
X569595Y711835D01*
X569595D01*
Y673100D01*
X539115D01*
Y592455D01*
X569595D01*
Y532130D01*
X568554Y531577D01*
X565864Y530462D01*
X563529Y528671D01*
X561738Y526336D01*
X560612Y523618D01*
X560228Y520700D01*
X560612Y517783D01*
X561738Y515064D01*
X563529Y512729D01*
X565864Y510938D01*
X568582Y509812D01*
X571500Y509428D01*
X574417Y509812D01*
X577136Y510938D01*
X579471Y512729D01*
X580340Y513862D01*
X581610Y513431D01*
Y502569D01*
X580340Y502138D01*
X579471Y503271D01*
X577136Y505062D01*
X574417Y506188D01*
X571500Y506572D01*
X568582Y506188D01*
X565864Y505062D01*
X563529Y503271D01*
X561738Y500936D01*
X560612Y498218D01*
X560228Y495300D01*
X560612Y492383D01*
X561738Y489664D01*
X563529Y487329D01*
X565864Y485538D01*
X568582Y484412D01*
X571500Y484028D01*
X574417Y484412D01*
X577136Y485538D01*
X579471Y487329D01*
X580340Y488462D01*
X581610Y488031D01*
Y477169D01*
X580340Y476738D01*
X579471Y477871D01*
X577136Y479662D01*
X574417Y480788D01*
X571500Y481172D01*
X568582Y480788D01*
X565864Y479662D01*
X563529Y477871D01*
X561738Y475536D01*
X560612Y472817D01*
X560228Y469900D01*
X560612Y466982D01*
X561738Y464264D01*
X563529Y461929D01*
X565864Y460138D01*
X568582Y459012D01*
X571500Y458628D01*
X574417Y459012D01*
X577136Y460138D01*
X579471Y461929D01*
X580340Y463062D01*
X581610Y462631D01*
Y451769D01*
X580340Y451338D01*
X579471Y452471D01*
X577136Y454262D01*
X574417Y455388D01*
X571500Y455772D01*
X568582Y455388D01*
X565864Y454262D01*
X563529Y452471D01*
X561738Y450136D01*
X560612Y447417D01*
X560228Y444500D01*
X560612Y441582D01*
X561738Y438864D01*
X563529Y436529D01*
X565864Y434738D01*
X568582Y433612D01*
X571500Y433228D01*
X574417Y433612D01*
X577136Y434738D01*
X579471Y436529D01*
X580340Y437662D01*
X581610Y437231D01*
Y426369D01*
X580340Y425938D01*
X579471Y427071D01*
X577136Y428862D01*
X574417Y429988D01*
X571500Y430372D01*
X568582Y429988D01*
X565864Y428862D01*
X563529Y427071D01*
X561738Y424736D01*
X560612Y422018D01*
X560228Y419100D01*
X560612Y416183D01*
X561738Y413464D01*
X563529Y411129D01*
X565864Y409338D01*
X568582Y408212D01*
X571500Y407828D01*
X574417Y408212D01*
X577136Y409338D01*
X579471Y411129D01*
X580340Y412262D01*
X581610Y411831D01*
Y400969D01*
X580340Y400538D01*
X579471Y401671D01*
X577136Y403462D01*
X574417Y404588D01*
X571500Y404972D01*
X568582Y404588D01*
X565864Y403462D01*
X563529Y401671D01*
X561738Y399336D01*
X560612Y396618D01*
X560228Y393700D01*
X560612Y390783D01*
X561738Y388064D01*
X563529Y385729D01*
X565864Y383938D01*
X568582Y382812D01*
X571500Y382428D01*
X574417Y382812D01*
X577136Y383938D01*
X579471Y385729D01*
X580340Y386862D01*
X581610Y386431D01*
Y375569D01*
X580340Y375138D01*
X579471Y376271D01*
X577136Y378062D01*
X574417Y379188D01*
X571500Y379572D01*
X568582Y379188D01*
X565864Y378062D01*
X563529Y376271D01*
X561738Y373936D01*
X560612Y371217D01*
X560228Y368300D01*
X560612Y365382D01*
X561738Y362664D01*
X563529Y360329D01*
X565864Y358538D01*
X568582Y357412D01*
X571500Y357028D01*
X574417Y357412D01*
X577136Y358538D01*
X579471Y360329D01*
X580340Y361462D01*
X581610Y361031D01*
Y350169D01*
X580340Y349738D01*
X579471Y350871D01*
X577136Y352662D01*
X574417Y353788D01*
X571500Y354172D01*
X568582Y353788D01*
X565864Y352662D01*
X563529Y350871D01*
X561738Y348536D01*
X560612Y345817D01*
X560228Y342900D01*
X560612Y339982D01*
X561738Y337264D01*
X563529Y334929D01*
X565864Y333138D01*
X568582Y332012D01*
X571500Y331628D01*
X574417Y332012D01*
X577136Y333138D01*
X579471Y334929D01*
X580340Y336062D01*
X581610Y335631D01*
Y324769D01*
X580340Y324338D01*
X579471Y325471D01*
X577136Y327262D01*
X574417Y328388D01*
X571500Y328772D01*
X568582Y328388D01*
X565864Y327262D01*
X563529Y325471D01*
X561738Y323136D01*
X560612Y320418D01*
X560228Y317500D01*
X560612Y314583D01*
X561738Y311864D01*
X563529Y309529D01*
X565864Y307738D01*
X568582Y306612D01*
X571500Y306228D01*
X574417Y306612D01*
X577136Y307738D01*
X579471Y309529D01*
X580340Y310662D01*
X581610Y310231D01*
Y299369D01*
X580340Y298938D01*
X579471Y300071D01*
X577136Y301862D01*
X574417Y302988D01*
X571500Y303372D01*
X568582Y302988D01*
X565864Y301862D01*
X563529Y300071D01*
X561738Y297736D01*
X560612Y295018D01*
X560228Y292100D01*
X560612Y289182D01*
X561738Y286464D01*
X563529Y284129D01*
X565864Y282338D01*
X568582Y281212D01*
X571500Y280828D01*
X574417Y281212D01*
X577136Y282338D01*
X579471Y284129D01*
X580340Y285262D01*
X581610Y284831D01*
Y273969D01*
X580340Y273538D01*
X579471Y274671D01*
X577136Y276462D01*
X574417Y277588D01*
X571500Y277972D01*
X568582Y277588D01*
X565864Y276462D01*
X563529Y274671D01*
X561738Y272336D01*
X560612Y269618D01*
X560228Y266700D01*
X560612Y263783D01*
X561738Y261064D01*
X563529Y258729D01*
X565864Y256938D01*
X568582Y255812D01*
X571500Y255428D01*
X574417Y255812D01*
X577136Y256938D01*
X579471Y258729D01*
X580340Y259862D01*
X581610Y259431D01*
Y249710D01*
X580408Y249302D01*
X580014Y249814D01*
X577520Y251728D01*
X574617Y252931D01*
X574040Y253007D01*
Y241300D01*
Y229593D01*
X574617Y229669D01*
X577520Y230872D01*
X580014Y232786D01*
X580408Y233298D01*
X581610Y232890D01*
Y223570D01*
X568960D01*
X567969Y223373D01*
X567129Y222811D01*
X566567Y221971D01*
X566370Y220980D01*
Y188570D01*
X522478D01*
Y167030D01*
X566370D01*
Y134620D01*
X566567Y133629D01*
X567129Y132789D01*
X567969Y132227D01*
X568960Y132030D01*
X581610D01*
Y2590D01*
X255186D01*
X254475Y3750D01*
X254612Y4070D01*
X256014Y4555D01*
X257810Y4198D01*
X259606Y4555D01*
X261128Y5572D01*
X262145Y7094D01*
X262502Y8890D01*
X262145Y10686D01*
X261128Y12208D01*
X259606Y13225D01*
X257810Y13582D01*
X256014Y13225D01*
X254492Y12208D01*
X253475Y10686D01*
X252555Y10304D01*
X251986Y10685D01*
X250190Y11042D01*
X248394Y10685D01*
X248006Y10426D01*
X246887Y11025D01*
Y16480D01*
X246653Y18249D01*
X245971Y19898D01*
X244884Y21314D01*
X243468Y22401D01*
X241819Y23084D01*
X240050Y23317D01*
X238281Y23084D01*
X236632Y22401D01*
X235216Y21314D01*
X234129Y19898D01*
X233446Y18249D01*
X233214Y16480D01*
Y8480D01*
X233446Y6711D01*
X234129Y5062D01*
X235052Y3860D01*
X234699Y2590D01*
X159002D01*
X158648Y3860D01*
X159571Y5062D01*
X160254Y6711D01*
X160487Y8480D01*
Y16480D01*
X160254Y18249D01*
X159571Y19898D01*
X158484Y21314D01*
X157068Y22401D01*
X155419Y23084D01*
X153650Y23317D01*
X151881Y23084D01*
X150232Y22401D01*
X148816Y21314D01*
X147729Y19898D01*
X147046Y18249D01*
X146813Y16480D01*
Y8480D01*
X147046Y6711D01*
X147729Y5062D01*
X148652Y3860D01*
X148299Y2590D01*
X2590D01*
Y132030D01*
X15240D01*
X16231Y132227D01*
X17071Y132789D01*
X17633Y133629D01*
X17830Y134620D01*
Y167030D01*
X61080D01*
Y188570D01*
X17830D01*
Y220980D01*
X17633Y221971D01*
X17071Y222811D01*
X16231Y223373D01*
X15240Y223570D01*
X2590D01*
Y767431D01*
X3860Y767862D01*
X4729Y766729D01*
X7064Y764938D01*
X9783Y763812D01*
X12700Y763428D01*
X15618Y763812D01*
X18336Y764938D01*
X20671Y766729D01*
X22462Y769064D01*
X23588Y771783D01*
X23972Y774700D01*
X23588Y777617D01*
X22462Y780336D01*
X20671Y782671D01*
X18336Y784462D01*
X15618Y785588D01*
X12700Y785972D01*
X9783Y785588D01*
X7064Y784462D01*
X4729Y782671D01*
X3860Y781538D01*
X2590Y781969D01*
Y792831D01*
X3860Y793262D01*
X4729Y792129D01*
X7064Y790338D01*
X9783Y789212D01*
X12700Y788828D01*
X15618Y789212D01*
X18336Y790338D01*
X20671Y792129D01*
X22462Y794464D01*
X23588Y797182D01*
X23972Y800100D01*
X23588Y803018D01*
X22462Y805736D01*
X20671Y808071D01*
X18336Y809862D01*
X15618Y810988D01*
X12700Y811372D01*
X9783Y810988D01*
X7064Y809862D01*
X4729Y808071D01*
X3860Y806938D01*
X2590Y807369D01*
Y818231D01*
X3860Y818662D01*
X4729Y817529D01*
X7064Y815738D01*
X9783Y814612D01*
X12700Y814228D01*
X15618Y814612D01*
X18336Y815738D01*
X20671Y817529D01*
X22462Y819864D01*
X23588Y822582D01*
X23972Y825500D01*
X23588Y828418D01*
X22462Y831136D01*
X20671Y833471D01*
X18336Y835262D01*
X15618Y836388D01*
X12700Y836772D01*
X9783Y836388D01*
X7064Y835262D01*
X4729Y833471D01*
X3860Y832338D01*
X2590Y832769D01*
Y843631D01*
X3860Y844062D01*
X4729Y842929D01*
X7064Y841138D01*
X9783Y840012D01*
X12700Y839628D01*
X15618Y840012D01*
X18336Y841138D01*
X20671Y842929D01*
X22462Y845264D01*
X23588Y847982D01*
X23972Y850900D01*
X23588Y853818D01*
X22462Y856536D01*
X20671Y858871D01*
X18336Y860662D01*
X15618Y861788D01*
X12700Y862172D01*
X9783Y861788D01*
X7064Y860662D01*
X4729Y858871D01*
X3860Y857738D01*
X2590Y858169D01*
Y867890D01*
X3792Y868298D01*
X4186Y867786D01*
X6679Y865872D01*
X9584Y864669D01*
X10160Y864593D01*
Y876300D01*
Y888007D01*
X9584Y887931D01*
X6679Y886728D01*
X4186Y884814D01*
X3792Y884302D01*
X2590Y884710D01*
Y894431D01*
X3860Y894862D01*
X4729Y893729D01*
X7064Y891938D01*
X9783Y890812D01*
X12700Y890428D01*
X15618Y890812D01*
X18336Y891938D01*
X20671Y893729D01*
X22462Y896064D01*
X23588Y898783D01*
X23972Y901700D01*
X23588Y904617D01*
X22462Y907336D01*
X20671Y909671D01*
X18336Y911462D01*
X15618Y912588D01*
X12700Y912972D01*
X9783Y912588D01*
X7064Y911462D01*
X4729Y909671D01*
X3860Y908538D01*
X2590Y908969D01*
Y919831D01*
X3860Y920262D01*
X4729Y919129D01*
X7064Y917338D01*
X9783Y916212D01*
X12700Y915828D01*
X15618Y916212D01*
X18336Y917338D01*
X20671Y919129D01*
X22462Y921464D01*
X23588Y924183D01*
X23972Y927100D01*
X23588Y930017D01*
X22462Y932736D01*
X20671Y935071D01*
X18336Y936862D01*
X15618Y937988D01*
X12700Y938372D01*
X9783Y937988D01*
X7064Y936862D01*
X4729Y935071D01*
X3860Y933938D01*
X2590Y934369D01*
Y945231D01*
X3860Y945662D01*
X4729Y944529D01*
X7064Y942738D01*
X9783Y941612D01*
X12700Y941228D01*
X15618Y941612D01*
X18336Y942738D01*
X20671Y944529D01*
X22462Y946864D01*
X23588Y949583D01*
X23972Y952500D01*
X23588Y955417D01*
X22462Y958136D01*
X20671Y960471D01*
X18336Y962262D01*
X15618Y963388D01*
X12700Y963772D01*
X9783Y963388D01*
X7064Y962262D01*
X4729Y960471D01*
X3860Y959338D01*
X2590Y959769D01*
Y970631D01*
X3860Y971062D01*
X4729Y969929D01*
X7064Y968138D01*
X9783Y967012D01*
X12700Y966628D01*
X15618Y967012D01*
X18336Y968138D01*
X20671Y969929D01*
X22462Y972264D01*
X23588Y974983D01*
X23972Y977900D01*
X23588Y980817D01*
X22462Y983536D01*
X20671Y985871D01*
X18336Y987662D01*
X15618Y988788D01*
X12700Y989172D01*
X9783Y988788D01*
X7064Y987662D01*
X4729Y985871D01*
X3860Y984738D01*
X2590Y985169D01*
Y996031D01*
X3860Y996462D01*
X4729Y995329D01*
X7064Y993538D01*
X9783Y992412D01*
X12700Y992028D01*
X15618Y992412D01*
X18336Y993538D01*
X20671Y995329D01*
X22462Y997664D01*
X23588Y1000383D01*
X23972Y1003300D01*
X23588Y1006217D01*
X22462Y1008936D01*
X20671Y1011271D01*
X18336Y1013062D01*
X15618Y1014188D01*
X12700Y1014572D01*
X9783Y1014188D01*
X7064Y1013062D01*
X4729Y1011271D01*
X3860Y1010138D01*
X2590Y1010569D01*
Y1076910D01*
X246330D01*
Y1064260D01*
X246527Y1063269D01*
X247089Y1062429D01*
X247929Y1061867D01*
X248920Y1061670D01*
X281330D01*
Y1018370D01*
X302870D01*
Y1061670D01*
X335280D01*
X336271Y1061867D01*
X337111Y1062429D01*
X337673Y1063269D01*
X337870Y1064260D01*
Y1076910D01*
X581610D01*
Y1011710D01*
D02*
G37*
%LPC*%
G36*
X394970Y1058792D02*
X393174Y1058435D01*
X391652Y1057418D01*
X390635Y1055896D01*
X390278Y1054100D01*
X390635Y1052304D01*
X391652Y1050782D01*
X393174Y1049765D01*
X394970Y1049408D01*
X396766Y1049765D01*
X398288Y1050782D01*
X399305Y1052304D01*
X399662Y1054100D01*
X399305Y1055896D01*
X398288Y1057418D01*
X396766Y1058435D01*
X394970Y1058792D01*
D02*
G37*
G36*
X370838Y1056887D02*
X369042Y1056530D01*
X367520Y1055513D01*
X366502Y1053991D01*
X366145Y1052195D01*
X366502Y1050399D01*
X367520Y1048877D01*
X369042Y1047860D01*
X370838Y1047503D01*
X372633Y1047860D01*
X374155Y1048877D01*
X375173Y1050399D01*
X375530Y1052195D01*
X375173Y1053991D01*
X374155Y1055513D01*
X372633Y1056530D01*
X370838Y1056887D01*
D02*
G37*
G36*
X360045D02*
X358249Y1056530D01*
X356727Y1055513D01*
X355710Y1053991D01*
X355353Y1052195D01*
X355710Y1050399D01*
X356727Y1048877D01*
X358249Y1047860D01*
X360045Y1047503D01*
X361841Y1047860D01*
X363363Y1048877D01*
X364380Y1050399D01*
X364737Y1052195D01*
X364380Y1053991D01*
X363363Y1055513D01*
X361841Y1056530D01*
X360045Y1056887D01*
D02*
G37*
G36*
X347374Y1046453D02*
X345579Y1046096D01*
X344057Y1045079D01*
X343040Y1043556D01*
X342682Y1041761D01*
X343040Y1039965D01*
X344057Y1038443D01*
X345579Y1037426D01*
X347374Y1037069D01*
X349170Y1037426D01*
X350692Y1038443D01*
X351710Y1039965D01*
X352067Y1041761D01*
X351710Y1043556D01*
X350692Y1045079D01*
X349170Y1046096D01*
X347374Y1046453D01*
D02*
G37*
G36*
X560301Y1071379D02*
X557299D01*
X557102Y1071340D01*
X556901D01*
X553957Y1070754D01*
X553771Y1070677D01*
X553574Y1070638D01*
X550801Y1069490D01*
X550634Y1069378D01*
X550448Y1069301D01*
X547952Y1067633D01*
X547810Y1067491D01*
X547643Y1067380D01*
X545520Y1065257D01*
X545409Y1065090D01*
X545267Y1064948D01*
X543599Y1062452D01*
X543522Y1062266D01*
X543410Y1062099D01*
X542262Y1059326D01*
X542223Y1059129D01*
X542146Y1058943D01*
X541560Y1055999D01*
Y1055798D01*
X541521Y1055601D01*
Y1052599D01*
X541560Y1052402D01*
Y1052201D01*
X542146Y1049257D01*
X542223Y1049071D01*
X542262Y1048874D01*
X543410Y1046101D01*
X543522Y1045934D01*
X543599Y1045748D01*
X545267Y1043252D01*
X545409Y1043110D01*
X545520Y1042943D01*
X547643Y1040820D01*
X547810Y1040709D01*
X547952Y1040567D01*
X550448Y1038899D01*
X550634Y1038822D01*
X550801Y1038710D01*
X553574Y1037562D01*
X553771Y1037523D01*
X553957Y1037446D01*
X556901Y1036860D01*
X557102D01*
X557299Y1036821D01*
X560301D01*
X560498Y1036860D01*
X560699D01*
X563643Y1037446D01*
X563829Y1037523D01*
X564026Y1037562D01*
X566799Y1038710D01*
X566966Y1038822D01*
X567152Y1038899D01*
X569648Y1040567D01*
X569790Y1040709D01*
X569957Y1040820D01*
X572080Y1042943D01*
X572191Y1043110D01*
X572333Y1043252D01*
X574001Y1045748D01*
X574078Y1045934D01*
X574189Y1046101D01*
X575338Y1048874D01*
X575378Y1049071D01*
X575454Y1049257D01*
X576040Y1052201D01*
Y1052402D01*
X576079Y1052599D01*
Y1055601D01*
X576040Y1055798D01*
Y1055999D01*
X575454Y1058943D01*
X575378Y1059129D01*
X575338Y1059326D01*
X574189Y1062099D01*
X574078Y1062266D01*
X574001Y1062452D01*
X572333Y1064948D01*
X572191Y1065090D01*
X572080Y1065257D01*
X569957Y1067380D01*
X569790Y1067491D01*
X569648Y1067633D01*
X567152Y1069301D01*
X566966Y1069378D01*
X566799Y1069490D01*
X564026Y1070638D01*
X563829Y1070677D01*
X563643Y1070754D01*
X560699Y1071340D01*
X560498D01*
X560301Y1071379D01*
D02*
G37*
G36*
X26901D02*
X23899D01*
X23702Y1071340D01*
X23501D01*
X20557Y1070754D01*
X20371Y1070677D01*
X20174Y1070638D01*
X17401Y1069490D01*
X17234Y1069378D01*
X17048Y1069301D01*
X14552Y1067633D01*
X14410Y1067491D01*
X14243Y1067380D01*
X12120Y1065257D01*
X12009Y1065090D01*
X11867Y1064948D01*
X10199Y1062452D01*
X10122Y1062266D01*
X10010Y1062099D01*
X8862Y1059326D01*
X8823Y1059129D01*
X8746Y1058943D01*
X8160Y1055999D01*
Y1055798D01*
X8121Y1055601D01*
X8121Y1054100D01*
Y1052599D01*
X8160Y1052402D01*
Y1052201D01*
X8746Y1049257D01*
X8823Y1049071D01*
X8862Y1048874D01*
X10010Y1046101D01*
X10122Y1045934D01*
X10199Y1045748D01*
X11867Y1043252D01*
X12009Y1043110D01*
X12120Y1042943D01*
X14243Y1040820D01*
X14410Y1040709D01*
X14552Y1040567D01*
X17048Y1038899D01*
X17234Y1038822D01*
X17401Y1038710D01*
X20174Y1037562D01*
X20371Y1037523D01*
X20557Y1037446D01*
X23501Y1036860D01*
X23702D01*
X23899Y1036821D01*
X26901D01*
X27098Y1036860D01*
X27299D01*
X30243Y1037446D01*
X30429Y1037523D01*
X30626Y1037562D01*
X33399Y1038710D01*
X33566Y1038822D01*
X33752Y1038899D01*
X36248Y1040567D01*
X36390Y1040709D01*
X36557Y1040820D01*
X38680Y1042943D01*
X38791Y1043110D01*
X38933Y1043252D01*
X40601Y1045748D01*
X40678Y1045934D01*
X40789Y1046101D01*
X41938Y1048874D01*
X41978Y1049071D01*
X42054Y1049257D01*
X42640Y1052201D01*
Y1052402D01*
X42679Y1052599D01*
Y1055601D01*
X42640Y1055798D01*
Y1055999D01*
X42054Y1058943D01*
X41978Y1059129D01*
X41938Y1059326D01*
X40789Y1062099D01*
X40678Y1062266D01*
X40601Y1062452D01*
X38933Y1064948D01*
X38791Y1065090D01*
X38680Y1065257D01*
X36557Y1067380D01*
X36390Y1067491D01*
X36248Y1067633D01*
X33752Y1069301D01*
X33566Y1069378D01*
X33399Y1069490D01*
X30626Y1070638D01*
X30429Y1070677D01*
X30243Y1070754D01*
X27299Y1071340D01*
X27098D01*
X26901Y1071379D01*
D02*
G37*
G36*
X411480Y1033392D02*
X409684Y1033035D01*
X408162Y1032018D01*
X407145Y1030496D01*
X407047Y1030005D01*
X405753D01*
X405655Y1030496D01*
X404638Y1032018D01*
X403116Y1033035D01*
X401320Y1033392D01*
X399524Y1033035D01*
X398002Y1032018D01*
X396985Y1030496D01*
X396628Y1028700D01*
X396985Y1026904D01*
X398002Y1025382D01*
X399524Y1024365D01*
X401320Y1024008D01*
X403116Y1024365D01*
X404638Y1025382D01*
X405655Y1026904D01*
X405753Y1027395D01*
X407047D01*
X407145Y1026904D01*
X408162Y1025382D01*
X409684Y1024365D01*
X411480Y1024008D01*
X413276Y1024365D01*
X414798Y1025382D01*
X415815Y1026904D01*
X416172Y1028700D01*
X415815Y1030496D01*
X414798Y1032018D01*
X413276Y1033035D01*
X411480Y1033392D01*
D02*
G37*
G36*
X359918Y1033646D02*
X358122Y1033289D01*
X356600Y1032272D01*
X355583Y1030750D01*
X355226Y1028954D01*
X355583Y1027158D01*
X356600Y1025636D01*
X358122Y1024619D01*
X359918Y1024262D01*
X361714Y1024619D01*
X363236Y1025636D01*
X364253Y1027158D01*
X364610Y1028954D01*
X364253Y1030750D01*
X363236Y1032272D01*
X361714Y1033289D01*
X359918Y1033646D01*
D02*
G37*
G36*
X568960Y1015007D02*
X568383Y1014931D01*
X565480Y1013728D01*
X562986Y1011814D01*
X561072Y1009321D01*
X559869Y1006416D01*
X559793Y1005840D01*
X568960D01*
Y1015007D01*
D02*
G37*
G36*
X360172Y1009516D02*
X358376Y1009159D01*
X356854Y1008142D01*
X355837Y1006620D01*
X355480Y1004824D01*
X355837Y1003028D01*
X356854Y1001506D01*
X358376Y1000489D01*
X360172Y1000132D01*
X361968Y1000489D01*
X363490Y1001506D01*
X364507Y1003028D01*
X364864Y1004824D01*
X364507Y1006620D01*
X363490Y1008142D01*
X361968Y1009159D01*
X360172Y1009516D01*
D02*
G37*
G36*
X462280Y1002912D02*
X460484Y1002555D01*
X458962Y1001538D01*
X457945Y1000016D01*
X457824Y999408D01*
X456529D01*
X456455Y999781D01*
X455438Y1001304D01*
X453916Y1002321D01*
X452120Y1002678D01*
X450324Y1002321D01*
X448802Y1001304D01*
X447785Y999781D01*
X447428Y997986D01*
X447785Y996190D01*
X448802Y994668D01*
X450324Y993651D01*
X452120Y993294D01*
X453916Y993651D01*
X455438Y994668D01*
X456455Y996190D01*
X456576Y996798D01*
X457871D01*
X457945Y996424D01*
X458962Y994902D01*
X460484Y993885D01*
X462280Y993528D01*
X464076Y993885D01*
X465598Y994902D01*
X466615Y996424D01*
X466972Y998220D01*
X466615Y1000016D01*
X465598Y1001538D01*
X464076Y1002555D01*
X462280Y1002912D01*
D02*
G37*
G36*
X407670Y1004182D02*
X405874Y1003825D01*
X404352Y1002808D01*
X403335Y1001286D01*
X402978Y999490D01*
X403335Y997694D01*
X404352Y996172D01*
X405874Y995155D01*
X407670Y994798D01*
X409466Y995155D01*
X410988Y996172D01*
X412005Y997694D01*
X412362Y999490D01*
X412005Y1001286D01*
X410988Y1002808D01*
X409466Y1003825D01*
X407670Y1004182D01*
D02*
G37*
G36*
X396240D02*
X394444Y1003825D01*
X392922Y1002808D01*
X391905Y1001286D01*
X391548Y999490D01*
X391905Y997694D01*
X392922Y996172D01*
X394444Y995155D01*
X396240Y994798D01*
X398036Y995155D01*
X399558Y996172D01*
X400575Y997694D01*
X400932Y999490D01*
X400575Y1001286D01*
X399558Y1002808D01*
X398036Y1003825D01*
X396240Y1004182D01*
D02*
G37*
G36*
X568960Y1000760D02*
X559793D01*
X559869Y1000183D01*
X561072Y997280D01*
X562986Y994786D01*
X565480Y992872D01*
X568383Y991669D01*
X568960Y991593D01*
Y1000760D01*
D02*
G37*
G36*
X70076Y1000159D02*
X68280Y999802D01*
X66758Y998785D01*
X65741Y997262D01*
X65384Y995467D01*
X65741Y993671D01*
X66758Y992149D01*
X68280Y991132D01*
X70076Y990775D01*
X71871Y991132D01*
X73394Y992149D01*
X74411Y993671D01*
X74768Y995467D01*
X74411Y997262D01*
X73394Y998785D01*
X71871Y999802D01*
X70076Y1000159D01*
D02*
G37*
G36*
X510697Y992909D02*
X508901Y992552D01*
X507379Y991535D01*
X506362Y990013D01*
X506005Y988217D01*
X506362Y986422D01*
X507379Y984899D01*
X508901Y983882D01*
X510697Y983525D01*
X512493Y983882D01*
X513873Y984804D01*
X514438Y984590D01*
X515023Y984162D01*
X514738Y982726D01*
X515095Y980930D01*
X516112Y979408D01*
X517634Y978391D01*
X519430Y978034D01*
X521226Y978391D01*
X522748Y979408D01*
X523765Y980930D01*
X524122Y982726D01*
X523765Y984522D01*
X522748Y986044D01*
X521226Y987061D01*
X519430Y987418D01*
X517634Y987061D01*
X516255Y986139D01*
X515689Y986353D01*
X515104Y986781D01*
X515389Y988217D01*
X515032Y990013D01*
X514015Y991535D01*
X512493Y992552D01*
X510697Y992909D01*
D02*
G37*
G36*
X127583Y985694D02*
X125787Y985337D01*
X124265Y984320D01*
X123247Y982797D01*
X122890Y981002D01*
X123247Y979206D01*
X124265Y977684D01*
X125787Y976667D01*
X127583Y976310D01*
X129378Y976667D01*
X130900Y977684D01*
X131917Y979206D01*
X132275Y981002D01*
X131917Y982797D01*
X130900Y984320D01*
X129378Y985337D01*
X127583Y985694D01*
D02*
G37*
G36*
X506730Y948302D02*
X504934Y947945D01*
X503412Y946928D01*
X502395Y945406D01*
X502038Y943610D01*
X502395Y941814D01*
X503412Y940292D01*
X504934Y939275D01*
X506062Y939051D01*
Y937756D01*
X505169Y937578D01*
X503647Y936561D01*
X502630Y935039D01*
X502272Y933243D01*
X502630Y931448D01*
X503647Y929925D01*
X505169Y928908D01*
X506965Y928551D01*
X508760Y928908D01*
X510283Y929925D01*
X511300Y931448D01*
X511657Y933243D01*
X511300Y935039D01*
X510283Y936561D01*
X508760Y937578D01*
X507633Y937803D01*
Y939097D01*
X508526Y939275D01*
X510048Y940292D01*
X511065Y941814D01*
X511422Y943610D01*
X511065Y945406D01*
X510048Y946928D01*
X508526Y947945D01*
X506730Y948302D01*
D02*
G37*
G36*
X69850Y936872D02*
X68054Y936515D01*
X66532Y935498D01*
X65515Y933976D01*
X65158Y932180D01*
X65515Y930384D01*
X66532Y928862D01*
X68054Y927845D01*
X69850Y927488D01*
X71646Y927845D01*
X73168Y928862D01*
X74185Y930384D01*
X74542Y932180D01*
X74185Y933976D01*
X73168Y935498D01*
X71646Y936515D01*
X69850Y936872D01*
D02*
G37*
G36*
X240030Y915282D02*
X238234Y914925D01*
X236712Y913908D01*
X235695Y912386D01*
X235338Y910590D01*
X235695Y908794D01*
X236712Y907272D01*
X238234Y906255D01*
X240030Y905898D01*
X241826Y906255D01*
X243348Y907272D01*
X244365Y908794D01*
X244722Y910590D01*
X244365Y912386D01*
X243348Y913908D01*
X241826Y914925D01*
X240030Y915282D01*
D02*
G37*
G36*
X328868Y910162D02*
X327073Y909804D01*
X325551Y908787D01*
X324534Y907265D01*
X324176Y905469D01*
X324534Y903674D01*
X325551Y902151D01*
X327073Y901134D01*
X328868Y900777D01*
X330664Y901134D01*
X332186Y902151D01*
X333204Y903674D01*
X333561Y905469D01*
X333204Y907265D01*
X332186Y908787D01*
X330664Y909804D01*
X328868Y910162D01*
D02*
G37*
G36*
X66040Y905122D02*
X64244Y904765D01*
X62722Y903748D01*
X61705Y902226D01*
X61348Y900430D01*
X61705Y898634D01*
X62722Y897112D01*
X64244Y896095D01*
X66040Y895738D01*
X67836Y896095D01*
X69358Y897112D01*
X70375Y898634D01*
X70732Y900430D01*
X70375Y902226D01*
X69358Y903748D01*
X67836Y904765D01*
X66040Y905122D01*
D02*
G37*
G36*
X532130Y892422D02*
X530334Y892065D01*
X528812Y891048D01*
X527795Y889526D01*
X527438Y887730D01*
X527795Y885934D01*
X528812Y884412D01*
X530334Y883395D01*
X532130Y883038D01*
X533926Y883395D01*
X535448Y884412D01*
X536465Y885934D01*
X536822Y887730D01*
X536465Y889526D01*
X535448Y891048D01*
X533926Y892065D01*
X532130Y892422D01*
D02*
G37*
G36*
X508317Y892105D02*
X506522Y891748D01*
X505000Y890730D01*
X503983Y889208D01*
X503625Y887412D01*
X503983Y885617D01*
X505000Y884095D01*
X506522Y883077D01*
X508317Y882720D01*
X510113Y883077D01*
X511635Y884095D01*
X512653Y885617D01*
X513010Y887412D01*
X512653Y889208D01*
X511635Y890730D01*
X510113Y891748D01*
X508317Y892105D01*
D02*
G37*
G36*
X15240Y888007D02*
Y878840D01*
X24407D01*
X24331Y879417D01*
X23128Y882320D01*
X21214Y884814D01*
X18721Y886728D01*
X15817Y887931D01*
X15240Y888007D01*
D02*
G37*
G36*
X83375Y885204D02*
X81579Y884847D01*
X80057Y883830D01*
X79040Y882308D01*
X78683Y880512D01*
X79040Y878717D01*
X80057Y877194D01*
X81579Y876177D01*
X83375Y875820D01*
X85170Y876177D01*
X86693Y877194D01*
X87710Y878717D01*
X88067Y880512D01*
X87710Y882308D01*
X86693Y883830D01*
X85170Y884847D01*
X83375Y885204D01*
D02*
G37*
G36*
X236220Y884802D02*
X234424Y884445D01*
X232902Y883428D01*
X231885Y881906D01*
X231528Y880110D01*
X231885Y878314D01*
X232902Y876792D01*
X234424Y875775D01*
X236220Y875418D01*
X238016Y875775D01*
X239538Y876792D01*
X240555Y878314D01*
X240912Y880110D01*
X240555Y881906D01*
X239538Y883428D01*
X238016Y884445D01*
X236220Y884802D01*
D02*
G37*
G36*
X74930Y874642D02*
X73134Y874285D01*
X71612Y873268D01*
X70595Y871746D01*
X70238Y869950D01*
X70595Y868154D01*
X71612Y866632D01*
X73134Y865615D01*
X74930Y865258D01*
X76726Y865615D01*
X78248Y866632D01*
X79265Y868154D01*
X79622Y869950D01*
X79265Y871746D01*
X78248Y873268D01*
X76726Y874285D01*
X74930Y874642D01*
D02*
G37*
G36*
X24407Y873760D02*
X15240D01*
Y864593D01*
X15817Y864669D01*
X18721Y865872D01*
X21214Y867786D01*
X23128Y870279D01*
X24331Y873184D01*
X24407Y873760D01*
D02*
G37*
G36*
X289747Y872417D02*
X287952Y872060D01*
X286430Y871043D01*
X285412Y869520D01*
X285055Y867725D01*
X285412Y865929D01*
X286430Y864407D01*
X287952Y863390D01*
X289747Y863033D01*
X291543Y863390D01*
X293065Y864407D01*
X294411Y864135D01*
X294433Y864027D01*
X295450Y862505D01*
X296972Y861488D01*
X298768Y861130D01*
X300563Y861488D01*
X302085Y862505D01*
X303102Y864027D01*
X303460Y865823D01*
X303102Y867618D01*
X302085Y869140D01*
X300563Y870157D01*
X298768Y870515D01*
X296972Y870157D01*
X295450Y869140D01*
X294104Y869412D01*
X294082Y869520D01*
X293065Y871043D01*
X291543Y872060D01*
X289747Y872417D01*
D02*
G37*
G36*
X265430Y868292D02*
X263634Y867935D01*
X262112Y866918D01*
X261095Y865396D01*
X260738Y863600D01*
X261095Y861804D01*
X262112Y860282D01*
X263634Y859265D01*
X265430Y858908D01*
X267226Y859265D01*
X268748Y860282D01*
X269765Y861804D01*
X270122Y863600D01*
X269765Y865396D01*
X268748Y866918D01*
X267226Y867935D01*
X265430Y868292D01*
D02*
G37*
G36*
X524510Y870832D02*
X522714Y870475D01*
X521192Y869458D01*
X520175Y867936D01*
X519818Y866140D01*
X520175Y864344D01*
X521192Y862822D01*
X521736Y862459D01*
Y860931D01*
X521192Y860568D01*
X520175Y859046D01*
X519818Y857250D01*
X520175Y855454D01*
X521192Y853932D01*
X522714Y852915D01*
X524510Y852558D01*
X526306Y852915D01*
X527828Y853932D01*
X528845Y855454D01*
X529202Y857250D01*
X528845Y859046D01*
X527828Y860568D01*
X527284Y860931D01*
Y862459D01*
X527828Y862822D01*
X528845Y864344D01*
X529202Y866140D01*
X528845Y867936D01*
X527828Y869458D01*
X526306Y870475D01*
X524510Y870832D01*
D02*
G37*
G36*
X236616Y861817D02*
X234821Y861460D01*
X233298Y860443D01*
X232281Y858921D01*
X231924Y857125D01*
X232281Y855330D01*
X233298Y853807D01*
X234811Y852797D01*
X234820Y852749D01*
X234799Y851500D01*
X234424Y851425D01*
X232902Y850408D01*
X231885Y848886D01*
X231528Y847090D01*
X231885Y845294D01*
X232902Y843772D01*
X234424Y842755D01*
X236220Y842398D01*
X238016Y842755D01*
X239538Y843772D01*
X240555Y845294D01*
X240912Y847090D01*
X240555Y848886D01*
X239538Y850408D01*
X238025Y851418D01*
X238016Y851467D01*
X238037Y852716D01*
X238412Y852790D01*
X239934Y853807D01*
X240951Y855330D01*
X241308Y857125D01*
X240951Y858921D01*
X239934Y860443D01*
X238412Y861460D01*
X236616Y861817D01*
D02*
G37*
G36*
X72073Y854322D02*
X70277Y853965D01*
X68755Y852948D01*
X67737Y851426D01*
X67380Y849630D01*
X67737Y847834D01*
X68755Y846312D01*
X70277Y845295D01*
X72073Y844938D01*
X72409Y845005D01*
X73172Y843862D01*
X73135Y843806D01*
X72778Y842010D01*
X73135Y840214D01*
X74152Y838692D01*
X75674Y837675D01*
X77470Y837318D01*
X79266Y837675D01*
X80788Y838692D01*
X81805Y840214D01*
X82162Y842010D01*
X81805Y843806D01*
X80788Y845328D01*
X79266Y846345D01*
X77470Y846702D01*
X77134Y846635D01*
X76370Y847778D01*
X76407Y847834D01*
X76765Y849630D01*
X76407Y851426D01*
X75390Y852948D01*
X73868Y853965D01*
X72073Y854322D01*
D02*
G37*
G36*
X236220Y840352D02*
X234424Y839995D01*
X232902Y838978D01*
X231885Y837456D01*
X231528Y835660D01*
X231885Y833864D01*
X232902Y832342D01*
X234424Y831325D01*
X236220Y830968D01*
X238016Y831325D01*
X239538Y832342D01*
X240555Y833864D01*
X240912Y835660D01*
X240555Y837456D01*
X239538Y838978D01*
X238016Y839995D01*
X236220Y840352D01*
D02*
G37*
G36*
X515620Y831208D02*
X513824Y830851D01*
X512302Y829834D01*
X511285Y828312D01*
X510928Y826516D01*
X511285Y824720D01*
X512302Y823198D01*
X513824Y822181D01*
X515620Y821824D01*
X517416Y822181D01*
X518938Y823198D01*
X519955Y824720D01*
X520312Y826516D01*
X519955Y828312D01*
X518938Y829834D01*
X517416Y830851D01*
X515620Y831208D01*
D02*
G37*
G36*
X86360Y839082D02*
X84564Y838725D01*
X83042Y837708D01*
X82025Y836186D01*
X81668Y834390D01*
X82025Y832594D01*
X83042Y831072D01*
X83586Y830709D01*
Y829181D01*
X83042Y828818D01*
X82025Y827296D01*
X81668Y825500D01*
X82025Y823704D01*
X83042Y822182D01*
X84564Y821165D01*
X86360Y820808D01*
X88156Y821165D01*
X89678Y822182D01*
X90695Y823704D01*
X91052Y825500D01*
X90695Y827296D01*
X89678Y828818D01*
X89134Y829181D01*
Y830709D01*
X89678Y831072D01*
X90695Y832594D01*
X91052Y834390D01*
X90695Y836186D01*
X89678Y837708D01*
X88156Y838725D01*
X86360Y839082D01*
D02*
G37*
G36*
X191770Y805427D02*
X189974Y805070D01*
X188452Y804053D01*
X187435Y802531D01*
X187078Y800735D01*
X187435Y798939D01*
X188452Y797417D01*
X189974Y796400D01*
X191770Y796043D01*
X193566Y796400D01*
X195088Y797417D01*
X196105Y798939D01*
X196462Y800735D01*
X196105Y802531D01*
X195088Y804053D01*
X193566Y805070D01*
X191770Y805427D01*
D02*
G37*
G36*
X292735Y794632D02*
X290939Y794275D01*
X289417Y793258D01*
X288524Y791921D01*
X287687Y791746D01*
X287109Y791754D01*
X286528Y792623D01*
X285006Y793640D01*
X283210Y793997D01*
X281414Y793640D01*
X279892Y792623D01*
X278875Y791101D01*
X278518Y789305D01*
X278875Y787509D01*
X279892Y785987D01*
X281414Y784970D01*
X283210Y784613D01*
X285006Y784970D01*
X286528Y785987D01*
X287421Y787324D01*
X288258Y787499D01*
X288836Y787491D01*
X289417Y786622D01*
X290939Y785605D01*
X292735Y785248D01*
X294531Y785605D01*
X296053Y786622D01*
X297070Y788144D01*
X297427Y789940D01*
X297070Y791736D01*
X296053Y793258D01*
X294531Y794275D01*
X292735Y794632D01*
D02*
G37*
G36*
X240030Y800982D02*
X238234Y800625D01*
X236712Y799608D01*
X235695Y798086D01*
X235338Y796290D01*
X235695Y794494D01*
X236712Y792972D01*
X238234Y791955D01*
X240030Y791598D01*
X241826Y791955D01*
X243348Y792972D01*
X244365Y794494D01*
X244722Y796290D01*
X244365Y798086D01*
X243348Y799608D01*
X241826Y800625D01*
X240030Y800982D01*
D02*
G37*
G36*
X404837Y774661D02*
X403041Y774304D01*
X401519Y773287D01*
X400577Y771878D01*
X399903Y771818D01*
X399229Y771878D01*
X398288Y773287D01*
X396766Y774304D01*
X394970Y774661D01*
X393174Y774304D01*
X391652Y773287D01*
X390635Y771765D01*
X390278Y769969D01*
X390635Y768173D01*
X391652Y766651D01*
X393174Y765634D01*
X394970Y765277D01*
X396766Y765634D01*
X398288Y766651D01*
X399229Y768060D01*
X399903Y768120D01*
X400577Y768060D01*
X401519Y766651D01*
X403041Y765634D01*
X404837Y765277D01*
X406632Y765634D01*
X408154Y766651D01*
X409171Y768173D01*
X409529Y769969D01*
X409171Y771765D01*
X408154Y773287D01*
X406632Y774304D01*
X404837Y774661D01*
D02*
G37*
G36*
X123190Y780662D02*
X121394Y780305D01*
X119872Y779288D01*
X118855Y777766D01*
X118498Y775970D01*
X118855Y774174D01*
X119872Y772652D01*
X121394Y771635D01*
X123190Y771278D01*
X124986Y771635D01*
X126508Y772652D01*
X127525Y774174D01*
X127882Y775970D01*
X127525Y777766D01*
X126508Y779288D01*
X124986Y780305D01*
X123190Y780662D01*
D02*
G37*
G36*
X440690Y774661D02*
X438894Y774304D01*
X437372Y773287D01*
X436355Y771765D01*
X435998Y769969D01*
X436355Y768173D01*
X437372Y766651D01*
X438894Y765634D01*
X440690Y765277D01*
X442486Y765634D01*
X444008Y766651D01*
X445025Y768173D01*
X445382Y769969D01*
X445025Y771765D01*
X444008Y773287D01*
X442486Y774304D01*
X440690Y774661D01*
D02*
G37*
G36*
X429260D02*
X427464Y774304D01*
X425942Y773287D01*
X424925Y771765D01*
X424568Y769969D01*
X424925Y768173D01*
X425942Y766651D01*
X427464Y765634D01*
X429260Y765277D01*
X431056Y765634D01*
X432578Y766651D01*
X433595Y768173D01*
X433952Y769969D01*
X433595Y771765D01*
X432578Y773287D01*
X431056Y774304D01*
X429260Y774661D01*
D02*
G37*
G36*
X499885Y774312D02*
X498090Y773955D01*
X496568Y772938D01*
X495550Y771416D01*
X495193Y769620D01*
X495550Y767824D01*
X496568Y766302D01*
X498090Y765285D01*
X499885Y764928D01*
X501681Y765285D01*
X503203Y766302D01*
X504221Y767824D01*
X504578Y769620D01*
X504221Y771416D01*
X503203Y772938D01*
X501681Y773955D01*
X499885Y774312D01*
D02*
G37*
G36*
X510094Y765422D02*
X508299Y765065D01*
X506777Y764048D01*
X505760Y762526D01*
X505402Y760730D01*
X505760Y758934D01*
X506777Y757412D01*
X508299Y756395D01*
X510094Y756038D01*
X511890Y756395D01*
X513412Y757412D01*
X514430Y758934D01*
X514787Y760730D01*
X514430Y762526D01*
X513412Y764048D01*
X511890Y765065D01*
X510094Y765422D01*
D02*
G37*
G36*
X144780Y753992D02*
X142984Y753635D01*
X141462Y752618D01*
X140445Y751096D01*
X140088Y749300D01*
X140445Y747504D01*
X141462Y745982D01*
X142984Y744965D01*
X144780Y744608D01*
X146576Y744965D01*
X148098Y745982D01*
X149115Y747504D01*
X149472Y749300D01*
X149115Y751096D01*
X148098Y752618D01*
X146576Y753635D01*
X144780Y753992D01*
D02*
G37*
G36*
X234315Y738752D02*
X232519Y738395D01*
X230997Y737378D01*
X229980Y735856D01*
X229623Y734060D01*
X229980Y732264D01*
X230997Y730742D01*
X232519Y729725D01*
X234315Y729368D01*
X236111Y729725D01*
X237633Y730742D01*
X238650Y732264D01*
X239007Y734060D01*
X238650Y735856D01*
X237633Y737378D01*
X236111Y738395D01*
X234315Y738752D01*
D02*
G37*
G36*
X253627Y738597D02*
X251831Y738240D01*
X250309Y737223D01*
X249292Y735701D01*
X248934Y733905D01*
X249292Y732110D01*
X250309Y730587D01*
X251831Y729570D01*
X253627Y729213D01*
X255422Y729570D01*
X256945Y730587D01*
X257962Y732110D01*
X258319Y733905D01*
X257962Y735701D01*
X256945Y737223D01*
X255422Y738240D01*
X253627Y738597D01*
D02*
G37*
G36*
X505460Y745102D02*
X503664Y744745D01*
X502142Y743728D01*
X501125Y742206D01*
X500768Y740410D01*
X501125Y738614D01*
X502142Y737092D01*
X503664Y736075D01*
X504233Y735962D01*
X505290Y735263D01*
X504933Y733468D01*
X505290Y731672D01*
X506307Y730150D01*
X507830Y729133D01*
X509625Y728776D01*
X511421Y729133D01*
X512943Y730150D01*
X513960Y731672D01*
X514318Y733468D01*
X513960Y735263D01*
X512943Y736786D01*
X511421Y737803D01*
X510852Y737916D01*
X509795Y738614D01*
X510152Y740410D01*
X509795Y742206D01*
X508778Y743728D01*
X507256Y744745D01*
X505460Y745102D01*
D02*
G37*
G36*
X135890Y734942D02*
X134094Y734585D01*
X132572Y733568D01*
X131555Y732046D01*
X131198Y730250D01*
X131555Y728454D01*
X132572Y726932D01*
X134094Y725915D01*
X135890Y725558D01*
X137686Y725915D01*
X139208Y726932D01*
X140225Y728454D01*
X140582Y730250D01*
X140225Y732046D01*
X139208Y733568D01*
X137686Y734585D01*
X135890Y734942D01*
D02*
G37*
G36*
X44550Y727805D02*
X42846Y727581D01*
X41258Y726923D01*
X39894Y725877D01*
X38848Y724513D01*
X38190Y722925D01*
X37966Y721221D01*
X38190Y719517D01*
X38848Y717929D01*
X39894Y716565D01*
X41258Y715519D01*
X42846Y714861D01*
X44550Y714636D01*
X46254Y714861D01*
X47842Y715519D01*
X49206Y716565D01*
X50252Y717929D01*
X50910Y719517D01*
X51134Y721221D01*
X50910Y722925D01*
X50252Y724513D01*
X49206Y725877D01*
X47842Y726923D01*
X46254Y727581D01*
X44550Y727805D01*
D02*
G37*
G36*
X486410Y722242D02*
X484614Y721885D01*
X483092Y720868D01*
X482075Y719346D01*
X481718Y717550D01*
X482075Y715754D01*
X483092Y714232D01*
X484614Y713215D01*
X486410Y712858D01*
X488206Y713215D01*
X489728Y714232D01*
X490745Y715754D01*
X491102Y717550D01*
X490745Y719346D01*
X489728Y720868D01*
X488206Y721885D01*
X486410Y722242D01*
D02*
G37*
G36*
X512477Y721639D02*
X510681Y721282D01*
X509159Y720264D01*
X508142Y718742D01*
X507784Y716946D01*
X508142Y715151D01*
X509159Y713629D01*
X510681Y712611D01*
X512477Y712254D01*
X514272Y712611D01*
X515794Y713629D01*
X516811Y715151D01*
X517169Y716946D01*
X516811Y718742D01*
X515794Y720264D01*
X514272Y721282D01*
X512477Y721639D01*
D02*
G37*
G36*
X266774Y715966D02*
X264978Y715609D01*
X263456Y714592D01*
X262439Y713069D01*
X262082Y711274D01*
X262439Y709478D01*
X263456Y707956D01*
X264978Y706939D01*
X266774Y706581D01*
X268569Y706939D01*
X270092Y707956D01*
X271109Y709478D01*
X271466Y711274D01*
X271109Y713069D01*
X270092Y714592D01*
X268569Y715609D01*
X266774Y715966D01*
D02*
G37*
G36*
X476250Y715892D02*
X474454Y715535D01*
X472932Y714518D01*
X471915Y712996D01*
X471558Y711200D01*
X471915Y709404D01*
X472932Y707882D01*
X474454Y706865D01*
X476250Y706508D01*
X478046Y706865D01*
X479568Y707882D01*
X480585Y709404D01*
X480942Y711200D01*
X480585Y712996D01*
X479568Y714518D01*
X478046Y715535D01*
X476250Y715892D01*
D02*
G37*
G36*
X118110Y710812D02*
X116314Y710455D01*
X114792Y709438D01*
X113775Y707916D01*
X113418Y706120D01*
X113775Y704324D01*
X114792Y702802D01*
X116314Y701785D01*
X118110Y701428D01*
X119906Y701785D01*
X121428Y702802D01*
X122445Y704324D01*
X122802Y706120D01*
X122445Y707916D01*
X121428Y709438D01*
X119906Y710455D01*
X118110Y710812D01*
D02*
G37*
G36*
X134089Y710458D02*
X132294Y710100D01*
X130771Y709083D01*
X129754Y707561D01*
X129397Y705766D01*
X129754Y703970D01*
X130771Y702448D01*
X132294Y701431D01*
X134089Y701073D01*
X135885Y701431D01*
X137407Y702448D01*
X138424Y703970D01*
X138781Y705766D01*
X138424Y707561D01*
X137407Y709083D01*
X135885Y710100D01*
X134089Y710458D01*
D02*
G37*
G36*
X368300Y709542D02*
X366504Y709185D01*
X364982Y708168D01*
X363965Y706646D01*
X363608Y704850D01*
X363965Y703054D01*
X364982Y701532D01*
X366504Y700515D01*
X368300Y700158D01*
X370096Y700515D01*
X371618Y701532D01*
X372635Y703054D01*
X372992Y704850D01*
X372635Y706646D01*
X371618Y708168D01*
X370096Y709185D01*
X368300Y709542D01*
D02*
G37*
G36*
X467838Y708750D02*
X466042Y708393D01*
X464520Y707376D01*
X463503Y705854D01*
X463146Y704058D01*
X463503Y702262D01*
X464520Y700740D01*
X466042Y699723D01*
X467838Y699366D01*
X469633Y699723D01*
X471156Y700740D01*
X472173Y702262D01*
X472530Y704058D01*
X472173Y705854D01*
X471156Y707376D01*
X469633Y708393D01*
X467838Y708750D01*
D02*
G37*
G36*
X509044Y707261D02*
X507248Y706904D01*
X505726Y705887D01*
X504709Y704364D01*
X504351Y702569D01*
X504709Y700773D01*
X505726Y699251D01*
X507248Y698234D01*
X509044Y697877D01*
X510839Y698234D01*
X512361Y699251D01*
X513379Y700773D01*
X513736Y702569D01*
X513379Y704364D01*
X512361Y705887D01*
X510839Y706904D01*
X509044Y707261D01*
D02*
G37*
G36*
X486501Y706018D02*
X484706Y705661D01*
X483183Y704644D01*
X482166Y703122D01*
X481809Y701326D01*
X482166Y699530D01*
X483183Y698008D01*
X484706Y696991D01*
X486501Y696634D01*
X488297Y696991D01*
X489819Y698008D01*
X490836Y699530D01*
X491193Y701326D01*
X490836Y703122D01*
X489819Y704644D01*
X488297Y705661D01*
X486501Y706018D01*
D02*
G37*
G36*
X444500Y700652D02*
X442704Y700295D01*
X441182Y699278D01*
X440165Y697756D01*
X439808Y695960D01*
X440165Y694164D01*
X441182Y692642D01*
X442704Y691625D01*
X444500Y691268D01*
X446296Y691625D01*
X447818Y692642D01*
X448835Y694164D01*
X449192Y695960D01*
X448835Y697756D01*
X447818Y699278D01*
X446296Y700295D01*
X444500Y700652D01*
D02*
G37*
G36*
X76835Y698112D02*
X75039Y697755D01*
X73517Y696738D01*
X72500Y695216D01*
X72143Y693420D01*
X72500Y691624D01*
X73517Y690102D01*
X75039Y689085D01*
X76835Y688728D01*
X78631Y689085D01*
X80153Y690102D01*
X81170Y691624D01*
X81527Y693420D01*
X81170Y695216D01*
X80153Y696738D01*
X78631Y697755D01*
X76835Y698112D01*
D02*
G37*
G36*
X60325D02*
X58529Y697755D01*
X57007Y696738D01*
X55990Y695216D01*
X55633Y693420D01*
X55990Y691624D01*
X57007Y690102D01*
X58529Y689085D01*
X60325Y688728D01*
X62121Y689085D01*
X63643Y690102D01*
X64660Y691624D01*
X65017Y693420D01*
X64660Y695216D01*
X63643Y696738D01*
X62121Y697755D01*
X60325Y698112D01*
D02*
G37*
G36*
X35560D02*
X33764Y697755D01*
X32242Y696738D01*
X31225Y695216D01*
X30868Y693420D01*
X31225Y691624D01*
X32242Y690102D01*
X33764Y689085D01*
X35560Y688728D01*
X37356Y689085D01*
X38878Y690102D01*
X39895Y691624D01*
X40252Y693420D01*
X39895Y695216D01*
X38878Y696738D01*
X37356Y697755D01*
X35560Y698112D01*
D02*
G37*
G36*
X430219Y695575D02*
X428423Y695218D01*
X426901Y694201D01*
X425884Y692678D01*
X425526Y690883D01*
X425884Y689087D01*
X426901Y687565D01*
X428423Y686548D01*
X430219Y686191D01*
X432014Y686548D01*
X433536Y687565D01*
X434554Y689087D01*
X434911Y690883D01*
X434554Y692678D01*
X433536Y694201D01*
X432014Y695218D01*
X430219Y695575D01*
D02*
G37*
G36*
X207010Y687952D02*
X205214Y687595D01*
X203692Y686578D01*
X203329Y686034D01*
X201801D01*
X201438Y686578D01*
X199916Y687595D01*
X198120Y687952D01*
X196324Y687595D01*
X194802Y686578D01*
X193785Y685056D01*
X193428Y683260D01*
X193785Y681464D01*
X194802Y679942D01*
X196324Y678925D01*
X198120Y678568D01*
X199916Y678925D01*
X201438Y679942D01*
X201801Y680486D01*
X203329D01*
X203692Y679942D01*
X205214Y678925D01*
X207010Y678568D01*
X208806Y678925D01*
X210328Y679942D01*
X211345Y681464D01*
X211702Y683260D01*
X211345Y685056D01*
X210328Y686578D01*
X208806Y687595D01*
X207010Y687952D01*
D02*
G37*
G36*
X559228Y695232D02*
X557432Y694875D01*
X555910Y693858D01*
X554893Y692336D01*
X554536Y690540D01*
X554893Y688744D01*
X555910Y687222D01*
X557432Y686205D01*
X559228Y685848D01*
X561024Y686205D01*
X562546Y687222D01*
X563563Y688744D01*
X563920Y690540D01*
X563563Y692336D01*
X562546Y693858D01*
X561024Y694875D01*
X559228Y695232D01*
D02*
G37*
G36*
X119126Y694302D02*
X117330Y693945D01*
X115808Y692928D01*
X114791Y691406D01*
X114434Y689610D01*
X114791Y687814D01*
X115808Y686292D01*
X117330Y685275D01*
X119126Y684918D01*
X120922Y685275D01*
X122444Y686292D01*
X123461Y687814D01*
X123818Y689610D01*
X123461Y691406D01*
X122444Y692928D01*
X120922Y693945D01*
X119126Y694302D01*
D02*
G37*
G36*
X506730Y691762D02*
X504934Y691405D01*
X503412Y690388D01*
X502395Y688866D01*
X502038Y687070D01*
X502395Y685274D01*
X503412Y683752D01*
X504934Y682735D01*
X506730Y682378D01*
X508526Y682735D01*
X510048Y683752D01*
X511065Y685274D01*
X511422Y687070D01*
X511065Y688866D01*
X510048Y690388D01*
X508526Y691405D01*
X506730Y691762D01*
D02*
G37*
G36*
X492284D02*
X490488Y691405D01*
X488966Y690388D01*
X487949Y688866D01*
X487592Y687070D01*
X487949Y685274D01*
X488966Y683752D01*
X490488Y682735D01*
X492284Y682378D01*
X494080Y682735D01*
X495602Y683752D01*
X496619Y685274D01*
X496976Y687070D01*
X496619Y688866D01*
X495602Y690388D01*
X494080Y691405D01*
X492284Y691762D01*
D02*
G37*
G36*
X523566Y691335D02*
X521770Y690978D01*
X520248Y689961D01*
X519231Y688438D01*
X518873Y686643D01*
X519231Y684847D01*
X520248Y683325D01*
X521770Y682308D01*
X523566Y681951D01*
X525361Y682308D01*
X526884Y683325D01*
X527901Y684847D01*
X528258Y686643D01*
X527901Y688438D01*
X526884Y689961D01*
X525361Y690978D01*
X523566Y691335D01*
D02*
G37*
G36*
X145524Y688559D02*
X143728Y688202D01*
X142206Y687185D01*
X141189Y685663D01*
X140831Y683867D01*
X141189Y682072D01*
X142206Y680549D01*
X143728Y679532D01*
X145524Y679175D01*
X147319Y679532D01*
X148841Y680549D01*
X149859Y682072D01*
X150216Y683867D01*
X149859Y685663D01*
X148841Y687185D01*
X147319Y688202D01*
X145524Y688559D01*
D02*
G37*
G36*
X172363Y687832D02*
X170568Y687475D01*
X169046Y686458D01*
X168028Y684936D01*
X167671Y683140D01*
X168028Y681345D01*
X169046Y679822D01*
X170568Y678805D01*
X172363Y678448D01*
X174159Y678805D01*
X175681Y679822D01*
X176698Y681345D01*
X177055Y683140D01*
X176698Y684936D01*
X175681Y686458D01*
X174159Y687475D01*
X172363Y687832D01*
D02*
G37*
G36*
X242167Y684914D02*
X240372Y684557D01*
X238850Y683540D01*
X237833Y682018D01*
X237475Y680222D01*
X237833Y678426D01*
X238850Y676904D01*
X240372Y675887D01*
X242167Y675530D01*
X243963Y675887D01*
X245485Y676904D01*
X246502Y678426D01*
X246860Y680222D01*
X246502Y682018D01*
X245485Y683540D01*
X243963Y684557D01*
X242167Y684914D01*
D02*
G37*
G36*
X300228Y676014D02*
X298432Y675657D01*
X296910Y674640D01*
X296434D01*
X294912Y675657D01*
X293116Y676014D01*
X291320Y675657D01*
X289798Y674640D01*
X288781Y673118D01*
X288424Y671322D01*
X288781Y669526D01*
X289798Y668004D01*
X291320Y666987D01*
X293116Y666630D01*
X294912Y666987D01*
X296434Y668004D01*
X296910D01*
X298432Y666987D01*
X300228Y666630D01*
X302024Y666987D01*
X303546Y668004D01*
X304563Y669526D01*
X304920Y671322D01*
X304563Y673118D01*
X303546Y674640D01*
X302024Y675657D01*
X300228Y676014D01*
D02*
G37*
G36*
X231140Y687952D02*
X229344Y687595D01*
X227822Y686578D01*
X226805Y685056D01*
X226448Y683260D01*
X226799Y681497D01*
X225534Y681245D01*
X224012Y680228D01*
X222995Y678706D01*
X222638Y676910D01*
X222995Y675114D01*
X224012Y673592D01*
X225534Y672575D01*
X227330Y672218D01*
X229126Y672575D01*
X230648Y673592D01*
X231665Y675114D01*
X232022Y676910D01*
X231671Y678673D01*
X232936Y678925D01*
X234458Y679942D01*
X235475Y681464D01*
X235832Y683260D01*
X235475Y685056D01*
X234458Y686578D01*
X232936Y687595D01*
X231140Y687952D01*
D02*
G37*
G36*
X143510Y677792D02*
X141714Y677435D01*
X140192Y676418D01*
X139175Y674896D01*
X138818Y673100D01*
X139175Y671304D01*
X140192Y669782D01*
X141714Y668765D01*
X143510Y668408D01*
X145306Y668765D01*
X146828Y669782D01*
X147845Y671304D01*
X148202Y673100D01*
X147845Y674896D01*
X146828Y676418D01*
X145306Y677435D01*
X143510Y677792D01*
D02*
G37*
G36*
X526415Y668082D02*
X524619Y667725D01*
X523097Y666708D01*
X522266Y665464D01*
X521245Y665292D01*
X520817Y665346D01*
X520208Y666258D01*
X518686Y667275D01*
X516890Y667632D01*
X515094Y667275D01*
X513572Y666258D01*
X512555Y664736D01*
X512198Y662940D01*
X512555Y661144D01*
X513572Y659622D01*
X515094Y658605D01*
X516890Y658248D01*
X518686Y658605D01*
X520208Y659622D01*
X521039Y660866D01*
X522060Y661038D01*
X522488Y660984D01*
X523097Y660072D01*
X524619Y659055D01*
X526415Y658697D01*
X528211Y659055D01*
X529733Y660072D01*
X530750Y661594D01*
X531107Y663390D01*
X530750Y665185D01*
X529733Y666708D01*
X528211Y667725D01*
X526415Y668082D01*
D02*
G37*
G36*
X76835Y672712D02*
X75039Y672355D01*
X73517Y671338D01*
X72500Y669816D01*
X72143Y668020D01*
X72500Y666224D01*
X73517Y664702D01*
X75039Y663685D01*
X76835Y663328D01*
X78631Y663685D01*
X80153Y664702D01*
X81170Y666224D01*
X81527Y668020D01*
X81170Y669816D01*
X80153Y671338D01*
X78631Y672355D01*
X76835Y672712D01*
D02*
G37*
G36*
X60325D02*
X58529Y672355D01*
X57007Y671338D01*
X55990Y669816D01*
X55633Y668020D01*
X55990Y666224D01*
X57007Y664702D01*
X58529Y663685D01*
X60325Y663328D01*
X62121Y663685D01*
X63643Y664702D01*
X64660Y666224D01*
X65017Y668020D01*
X64660Y669816D01*
X63643Y671338D01*
X62121Y672355D01*
X60325Y672712D01*
D02*
G37*
G36*
X21590D02*
X19794Y672355D01*
X18272Y671338D01*
X17255Y669816D01*
X16898Y668020D01*
X17255Y666224D01*
X18272Y664702D01*
X19794Y663685D01*
X21590Y663328D01*
X23386Y663685D01*
X24908Y664702D01*
X25925Y666224D01*
X26282Y668020D01*
X25925Y669816D01*
X24908Y671338D01*
X23386Y672355D01*
X21590Y672712D01*
D02*
G37*
G36*
X410707Y670172D02*
X408912Y669815D01*
X407390Y668798D01*
X406372Y667276D01*
X406015Y665480D01*
X406372Y663684D01*
X407390Y662162D01*
X408912Y661145D01*
X410707Y660788D01*
X412503Y661145D01*
X414025Y662162D01*
X415042Y663684D01*
X415400Y665480D01*
X415042Y667276D01*
X414025Y668798D01*
X412503Y669815D01*
X410707Y670172D01*
D02*
G37*
G36*
X461010Y665092D02*
X459214Y664735D01*
X457692Y663718D01*
X456675Y662196D01*
X456318Y660400D01*
X456675Y658604D01*
X457692Y657082D01*
X459214Y656065D01*
X461010Y655708D01*
X462806Y656065D01*
X464328Y657082D01*
X465345Y658604D01*
X465702Y660400D01*
X465345Y662196D01*
X464328Y663718D01*
X462806Y664735D01*
X461010Y665092D01*
D02*
G37*
G36*
X355918Y662870D02*
X354122Y662513D01*
X352600Y661495D01*
X351582Y659973D01*
X351225Y658177D01*
X351582Y656382D01*
X352600Y654860D01*
X354122Y653842D01*
X355918Y653485D01*
X357713Y653842D01*
X359235Y654860D01*
X360252Y656382D01*
X360610Y658177D01*
X360252Y659973D01*
X359235Y661495D01*
X357713Y662513D01*
X355918Y662870D01*
D02*
G37*
G36*
X369566Y660296D02*
X367770Y659939D01*
X366248Y658922D01*
X365231Y657399D01*
X364874Y655604D01*
X365231Y653808D01*
X366248Y652286D01*
X367770Y651269D01*
X369566Y650911D01*
X371362Y651269D01*
X372884Y652286D01*
X373901Y653808D01*
X374258Y655604D01*
X373901Y657399D01*
X372884Y658922D01*
X371362Y659939D01*
X369566Y660296D01*
D02*
G37*
G36*
X44550Y659805D02*
X42846Y659581D01*
X41258Y658923D01*
X39894Y657877D01*
X38848Y656513D01*
X38190Y654925D01*
X37966Y653221D01*
X38190Y651517D01*
X38848Y649929D01*
X39894Y648565D01*
X41258Y647519D01*
X42846Y646861D01*
X44550Y646636D01*
X46254Y646861D01*
X47842Y647519D01*
X49206Y648565D01*
X50252Y649929D01*
X50910Y651517D01*
X51134Y653221D01*
X50910Y654925D01*
X50252Y656513D01*
X49206Y657877D01*
X47842Y658923D01*
X46254Y659581D01*
X44550Y659805D01*
D02*
G37*
G36*
X461328Y653980D02*
X459532Y653623D01*
X458010Y652605D01*
X456992Y651083D01*
X456635Y649287D01*
X456992Y647492D01*
X458010Y645970D01*
X459532Y644952D01*
X461328Y644595D01*
X463123Y644952D01*
X464645Y645970D01*
X465662Y647492D01*
X466020Y649287D01*
X465662Y651083D01*
X464645Y652605D01*
X463123Y653623D01*
X461328Y653980D01*
D02*
G37*
G36*
X156210Y653662D02*
X154414Y653305D01*
X152892Y652288D01*
X151875Y650766D01*
X151518Y648970D01*
X151875Y647174D01*
X152892Y645652D01*
X154414Y644635D01*
X156210Y644278D01*
X158006Y644635D01*
X159528Y645652D01*
X160545Y647174D01*
X160902Y648970D01*
X160545Y650766D01*
X159528Y652288D01*
X158006Y653305D01*
X156210Y653662D01*
D02*
G37*
G36*
X363220Y647004D02*
X361424Y646647D01*
X359902Y645630D01*
X358885Y644107D01*
X358528Y642312D01*
X358531Y642298D01*
X357475Y641593D01*
X357396Y641645D01*
X355600Y642003D01*
X353804Y641645D01*
X352282Y640628D01*
X351265Y639106D01*
X350908Y637310D01*
X351265Y635515D01*
X352282Y633993D01*
X353804Y632975D01*
X355600Y632618D01*
X357396Y632975D01*
X358918Y633993D01*
X359935Y635515D01*
X360292Y637310D01*
X360289Y637324D01*
X361345Y638029D01*
X361424Y637977D01*
X363220Y637620D01*
X365016Y637977D01*
X366538Y638994D01*
X367555Y640516D01*
X367912Y642312D01*
X367555Y644107D01*
X366538Y645630D01*
X365016Y646647D01*
X363220Y647004D01*
D02*
G37*
G36*
X391160Y647312D02*
X389364Y646955D01*
X387842Y645938D01*
X386825Y644416D01*
X386468Y642620D01*
X386825Y640824D01*
X387842Y639302D01*
X389364Y638285D01*
X391160Y637928D01*
X392956Y638285D01*
X394478Y639302D01*
X395495Y640824D01*
X395852Y642620D01*
X395495Y644416D01*
X394478Y645938D01*
X392956Y646955D01*
X391160Y647312D01*
D02*
G37*
G36*
X398780Y638422D02*
X396984Y638065D01*
X395462Y637048D01*
X394445Y635526D01*
X394088Y633730D01*
X394445Y631934D01*
X395462Y630412D01*
X396984Y629395D01*
X398780Y629038D01*
X400576Y629395D01*
X402098Y630412D01*
X403115Y631934D01*
X403472Y633730D01*
X403115Y635526D01*
X402098Y637048D01*
X400576Y638065D01*
X398780Y638422D01*
D02*
G37*
G36*
X295703Y633507D02*
X293907Y633149D01*
X292385Y632132D01*
X291368Y630610D01*
X291011Y628814D01*
X291368Y627019D01*
X292385Y625496D01*
X293907Y624479D01*
X295703Y624122D01*
X297499Y624479D01*
X299021Y625496D01*
X300038Y627019D01*
X300395Y628814D01*
X300038Y630610D01*
X299021Y632132D01*
X297499Y633149D01*
X295703Y633507D01*
D02*
G37*
G36*
X418310Y621432D02*
X416515Y621075D01*
X414992Y620057D01*
X413975Y618535D01*
X413618Y616740D01*
X413975Y614944D01*
X414992Y613422D01*
X416515Y612405D01*
X418310Y612047D01*
X420106Y612405D01*
X421628Y613422D01*
X422645Y614944D01*
X423003Y616740D01*
X422645Y618535D01*
X421628Y620057D01*
X420106Y621075D01*
X418310Y621432D01*
D02*
G37*
G36*
X463550Y620642D02*
X461754Y620285D01*
X460232Y619268D01*
X459215Y617746D01*
X458858Y615950D01*
X459215Y614154D01*
X460232Y612632D01*
X461754Y611615D01*
X463550Y611258D01*
X465346Y611615D01*
X466868Y612632D01*
X467885Y614154D01*
X468242Y615950D01*
X467885Y617746D01*
X466868Y619268D01*
X465346Y620285D01*
X463550Y620642D01*
D02*
G37*
G36*
X488950Y620417D02*
X487154Y620060D01*
X485632Y619043D01*
X484615Y617521D01*
X484258Y615725D01*
X484615Y613930D01*
X485632Y612407D01*
X487154Y611390D01*
X488950Y611033D01*
X490746Y611390D01*
X492268Y612407D01*
X493285Y613930D01*
X493642Y615725D01*
X493285Y617521D01*
X492268Y619043D01*
X490746Y620060D01*
X488950Y620417D01*
D02*
G37*
G36*
X492121Y608446D02*
X490325Y608089D01*
X488803Y607072D01*
X488474Y606580D01*
X487188Y606219D01*
X485666Y607236D01*
X483870Y607593D01*
X482074Y607236D01*
X480552Y606219D01*
X479535Y604697D01*
X479178Y602901D01*
X479535Y601105D01*
X480552Y599583D01*
X482074Y598566D01*
X483870Y598209D01*
X485666Y598566D01*
X487188Y599583D01*
X487517Y600075D01*
X488803Y600436D01*
X490325Y599419D01*
X492121Y599062D01*
X493917Y599419D01*
X495439Y600436D01*
X496456Y601958D01*
X496813Y603754D01*
X496456Y605549D01*
X495439Y607072D01*
X493917Y608089D01*
X492121Y608446D01*
D02*
G37*
G36*
X516125Y612387D02*
X514330Y612030D01*
X512808Y611013D01*
X511791Y609491D01*
X511433Y607695D01*
X511791Y605899D01*
X512808Y604377D01*
X514330Y603360D01*
X516125Y603003D01*
X517921Y603360D01*
X519443Y604377D01*
X520461Y605899D01*
X520818Y607695D01*
X520461Y609491D01*
X519443Y611013D01*
X517921Y612030D01*
X516125Y612387D01*
D02*
G37*
G36*
X72644Y607688D02*
X70848Y607331D01*
X69326Y606314D01*
X68309Y604792D01*
X67952Y602996D01*
X68309Y601200D01*
X69326Y599678D01*
X70848Y598661D01*
X72644Y598304D01*
X74440Y598661D01*
X75962Y599678D01*
X76979Y601200D01*
X77336Y602996D01*
X76979Y604792D01*
X75962Y606314D01*
X74440Y607331D01*
X72644Y607688D01*
D02*
G37*
G36*
X156130Y598290D02*
X154334Y597933D01*
X152812Y596916D01*
X151795Y595394D01*
X151438Y593598D01*
X151795Y591802D01*
X152812Y590280D01*
X154334Y589263D01*
X156130Y588906D01*
X157926Y589263D01*
X159448Y590280D01*
X160465Y591802D01*
X160822Y593598D01*
X160465Y595394D01*
X159448Y596916D01*
X157926Y597933D01*
X156130Y598290D01*
D02*
G37*
G36*
X391160Y593972D02*
X389364Y593615D01*
X387842Y592598D01*
X386825Y591076D01*
X386468Y589280D01*
X386825Y587484D01*
X387842Y585962D01*
X389364Y584945D01*
X391160Y584588D01*
X392956Y584945D01*
X394478Y585962D01*
X395495Y587484D01*
X395852Y589280D01*
X395495Y591076D01*
X394478Y592598D01*
X392956Y593615D01*
X391160Y593972D01*
D02*
G37*
G36*
X298450Y585082D02*
X296654Y584725D01*
X295132Y583708D01*
X294115Y582186D01*
X293758Y580390D01*
X294115Y578594D01*
X295132Y577072D01*
X296654Y576055D01*
X298450Y575698D01*
X300246Y576055D01*
X301768Y577072D01*
X302785Y578594D01*
X303142Y580390D01*
X302785Y582186D01*
X301768Y583708D01*
X300246Y584725D01*
X298450Y585082D01*
D02*
G37*
G36*
X474980Y582542D02*
X473184Y582185D01*
X471662Y581168D01*
X470645Y579646D01*
X470288Y577850D01*
X470645Y576054D01*
X471662Y574532D01*
X473184Y573515D01*
X474980Y573158D01*
X476776Y573515D01*
X478298Y574532D01*
X479315Y576054D01*
X479672Y577850D01*
X479315Y579646D01*
X478298Y581168D01*
X476776Y582185D01*
X474980Y582542D01*
D02*
G37*
G36*
X65532Y581526D02*
X63736Y581169D01*
X62214Y580152D01*
X61197Y578630D01*
X60840Y576834D01*
X61197Y575038D01*
X62214Y573516D01*
X63736Y572499D01*
X65532Y572142D01*
X67328Y572499D01*
X68850Y573516D01*
X69867Y575038D01*
X70224Y576834D01*
X69867Y578630D01*
X68850Y580152D01*
X67328Y581169D01*
X65532Y581526D01*
D02*
G37*
G36*
X485140Y577176D02*
X483344Y576819D01*
X481822Y575802D01*
X480805Y574280D01*
X480448Y572484D01*
X480805Y570688D01*
X481822Y569166D01*
X483344Y568149D01*
X485140Y567792D01*
X486936Y568149D01*
X488458Y569166D01*
X489475Y570688D01*
X489832Y572484D01*
X489475Y574280D01*
X488458Y575802D01*
X486936Y576819D01*
X485140Y577176D01*
D02*
G37*
G36*
X426720Y576192D02*
X424924Y575835D01*
X423402Y574818D01*
X422385Y573296D01*
X422028Y571500D01*
X422385Y569704D01*
X423402Y568182D01*
X424924Y567165D01*
X426720Y566808D01*
X428516Y567165D01*
X430038Y568182D01*
X431055Y569704D01*
X431412Y571500D01*
X431055Y573296D01*
X430038Y574818D01*
X428516Y575835D01*
X426720Y576192D01*
D02*
G37*
G36*
X525780Y582542D02*
X523984Y582185D01*
X522462Y581168D01*
X521445Y579646D01*
X521088Y577850D01*
X521445Y576054D01*
X522462Y574532D01*
X523984Y573515D01*
X524636Y573385D01*
X525255Y572026D01*
X524898Y570230D01*
X525255Y568434D01*
X526272Y566912D01*
X527794Y565895D01*
X529590Y565538D01*
X531386Y565895D01*
X532908Y566912D01*
X533925Y568434D01*
X534282Y570230D01*
X533925Y572026D01*
X532908Y573548D01*
X531386Y574565D01*
X530734Y574695D01*
X530115Y576054D01*
X530472Y577850D01*
X530115Y579646D01*
X529098Y581168D01*
X527576Y582185D01*
X525780Y582542D01*
D02*
G37*
G36*
X154686Y564254D02*
X152890Y563897D01*
X151368Y562880D01*
X150351Y561358D01*
X149994Y559562D01*
X150351Y557766D01*
X151368Y556244D01*
X152890Y555227D01*
X154686Y554870D01*
X156482Y555227D01*
X158004Y556244D01*
X159021Y557766D01*
X159378Y559562D01*
X159021Y561358D01*
X158004Y562880D01*
X156482Y563897D01*
X154686Y564254D01*
D02*
G37*
G36*
X114300Y563492D02*
X112504Y563135D01*
X110982Y562118D01*
X109965Y560596D01*
X109608Y558800D01*
X109965Y557004D01*
X110982Y555482D01*
X112504Y554465D01*
X114300Y554108D01*
X116096Y554465D01*
X117618Y555482D01*
X118635Y557004D01*
X118992Y558800D01*
X118635Y560596D01*
X117618Y562118D01*
X116096Y563135D01*
X114300Y563492D01*
D02*
G37*
G36*
X435610Y560952D02*
X433814Y560595D01*
X432292Y559578D01*
X431275Y558056D01*
X430918Y556260D01*
X431275Y554464D01*
X432292Y552942D01*
X433814Y551925D01*
X435610Y551568D01*
X437406Y551925D01*
X438928Y552942D01*
X439945Y554464D01*
X440302Y556260D01*
X439945Y558056D01*
X438928Y559578D01*
X437406Y560595D01*
X435610Y560952D01*
D02*
G37*
G36*
X514064Y559012D02*
X512268Y558655D01*
X510746Y557638D01*
X509729Y556116D01*
X509372Y554320D01*
X509729Y552525D01*
X510746Y551002D01*
X512268Y549985D01*
X514064Y549628D01*
X515860Y549985D01*
X517382Y551002D01*
X518399Y552525D01*
X518756Y554320D01*
X518399Y556116D01*
X517382Y557638D01*
X515860Y558655D01*
X514064Y559012D01*
D02*
G37*
G36*
X328930Y558412D02*
X327134Y558055D01*
X325612Y557038D01*
X324595Y555516D01*
X324238Y553720D01*
X324595Y551924D01*
X325612Y550402D01*
X327134Y549385D01*
X328930Y549028D01*
X330726Y549385D01*
X332248Y550402D01*
X333265Y551924D01*
X333622Y553720D01*
X333265Y555516D01*
X332248Y557038D01*
X330726Y558055D01*
X328930Y558412D01*
D02*
G37*
G36*
X155702Y553078D02*
X153906Y552721D01*
X152384Y551704D01*
X151367Y550181D01*
X151010Y548386D01*
X151367Y546590D01*
X152384Y545068D01*
X153906Y544051D01*
X155702Y543694D01*
X157498Y544051D01*
X159020Y545068D01*
X160037Y546590D01*
X160394Y548386D01*
X160037Y550181D01*
X159020Y551704D01*
X157498Y552721D01*
X155702Y553078D01*
D02*
G37*
G36*
X477757Y553058D02*
X475962Y552701D01*
X474439Y551683D01*
X473422Y550161D01*
X473065Y548366D01*
X473422Y546570D01*
X474439Y545048D01*
X475962Y544030D01*
X477757Y543673D01*
X479553Y544030D01*
X481075Y545048D01*
X482092Y546570D01*
X482449Y548366D01*
X482092Y550161D01*
X481075Y551683D01*
X479553Y552701D01*
X477757Y553058D01*
D02*
G37*
G36*
X527378Y550778D02*
X525583Y550421D01*
X524060Y549404D01*
X523043Y547882D01*
X522686Y546086D01*
X523043Y544290D01*
X524060Y542768D01*
X525583Y541751D01*
X527378Y541394D01*
X529174Y541751D01*
X530696Y542768D01*
X531713Y544290D01*
X532070Y546086D01*
X531713Y547882D01*
X530696Y549404D01*
X529174Y550421D01*
X527378Y550778D01*
D02*
G37*
G36*
X271780Y546982D02*
X269984Y546625D01*
X268462Y545608D01*
X267445Y544086D01*
X267088Y542290D01*
X267445Y540494D01*
X268462Y538972D01*
X269984Y537955D01*
X271780Y537598D01*
X273576Y537955D01*
X275098Y538972D01*
X276115Y540494D01*
X276472Y542290D01*
X276115Y544086D01*
X275098Y545608D01*
X273576Y546625D01*
X271780Y546982D01*
D02*
G37*
G36*
X425450Y544442D02*
X423654Y544085D01*
X422132Y543068D01*
X421115Y541546D01*
X420758Y539750D01*
X421115Y537954D01*
X422132Y536432D01*
X423654Y535415D01*
X425450Y535058D01*
X427246Y535415D01*
X428768Y536432D01*
X429785Y537954D01*
X430142Y539750D01*
X429785Y541546D01*
X428768Y543068D01*
X427246Y544085D01*
X425450Y544442D01*
D02*
G37*
G36*
X57912Y540886D02*
X56116Y540529D01*
X54594Y539512D01*
X53577Y537990D01*
X53220Y536194D01*
X53577Y534398D01*
X54594Y532876D01*
X56116Y531859D01*
X57912Y531502D01*
X59708Y531859D01*
X61230Y532876D01*
X62247Y534398D01*
X62604Y536194D01*
X62247Y537990D01*
X61230Y539512D01*
X59708Y540529D01*
X57912Y540886D01*
D02*
G37*
G36*
X49530Y533012D02*
X47734Y532655D01*
X46212Y531638D01*
X45195Y530116D01*
X44838Y528320D01*
X45195Y526524D01*
X46212Y525002D01*
X47734Y523985D01*
X49530Y523628D01*
X51326Y523985D01*
X52848Y525002D01*
X53865Y526524D01*
X54222Y528320D01*
X53865Y530116D01*
X52848Y531638D01*
X51326Y532655D01*
X49530Y533012D01*
D02*
G37*
G36*
X505460Y519042D02*
X503664Y518685D01*
X502142Y517668D01*
X501125Y516146D01*
X500768Y514350D01*
X501125Y512554D01*
X502142Y511032D01*
X503664Y510015D01*
X505460Y509658D01*
X507256Y510015D01*
X508778Y511032D01*
X509795Y512554D01*
X510152Y514350D01*
X509795Y516146D01*
X508778Y517668D01*
X507256Y518685D01*
X505460Y519042D01*
D02*
G37*
G36*
X419100D02*
X417304Y518685D01*
X415782Y517668D01*
X414765Y516146D01*
X414408Y514350D01*
X414765Y512554D01*
X415782Y511032D01*
X417304Y510015D01*
X419100Y509658D01*
X420896Y510015D01*
X422418Y511032D01*
X423435Y512554D01*
X423792Y514350D01*
X423435Y516146D01*
X422418Y517668D01*
X420896Y518685D01*
X419100Y519042D01*
D02*
G37*
G36*
X398780D02*
X396984Y518685D01*
X395462Y517668D01*
X394445Y516146D01*
X394088Y514350D01*
X394445Y512554D01*
X395462Y511032D01*
X396984Y510015D01*
X398780Y509658D01*
X400576Y510015D01*
X402098Y511032D01*
X403115Y512554D01*
X403472Y514350D01*
X403115Y516146D01*
X402098Y517668D01*
X400576Y518685D01*
X398780Y519042D01*
D02*
G37*
G36*
X148590Y515232D02*
X146794Y514875D01*
X145272Y513858D01*
X144255Y512336D01*
X143898Y510540D01*
X144255Y508744D01*
X145272Y507222D01*
X146794Y506205D01*
X148590Y505848D01*
X150386Y506205D01*
X151908Y507222D01*
X152925Y508744D01*
X153282Y510540D01*
X152925Y512336D01*
X151908Y513858D01*
X150386Y514875D01*
X148590Y515232D01*
D02*
G37*
G36*
X548640Y513962D02*
X546844Y513605D01*
X545322Y512588D01*
X544305Y511066D01*
X543948Y509270D01*
X544305Y507474D01*
X545322Y505952D01*
X546844Y504935D01*
X548640Y504578D01*
X550436Y504935D01*
X551958Y505952D01*
X552975Y507474D01*
X553332Y509270D01*
X552975Y511066D01*
X551958Y512588D01*
X550436Y513605D01*
X548640Y513962D01*
D02*
G37*
G36*
X285750Y506342D02*
X283954Y505985D01*
X282432Y504968D01*
X281415Y503446D01*
X281058Y501650D01*
X281415Y499854D01*
X282432Y498332D01*
X283954Y497315D01*
X285750Y496958D01*
X287546Y497315D01*
X289068Y498332D01*
X290085Y499854D01*
X290442Y501650D01*
X290085Y503446D01*
X289068Y504968D01*
X287546Y505985D01*
X285750Y506342D01*
D02*
G37*
G36*
X274955D02*
X273159Y505985D01*
X271637Y504968D01*
X270620Y503446D01*
X270263Y501650D01*
X270620Y499854D01*
X271637Y498332D01*
X273159Y497315D01*
X274955Y496958D01*
X276751Y497315D01*
X278273Y498332D01*
X279290Y499854D01*
X279647Y501650D01*
X279290Y503446D01*
X278273Y504968D01*
X276751Y505985D01*
X274955Y506342D01*
D02*
G37*
G36*
X200133Y494941D02*
X198337Y494584D01*
X196815Y493566D01*
X195798Y492044D01*
X195440Y490248D01*
X195798Y488453D01*
X196815Y486931D01*
X198337Y485914D01*
X200133Y485556D01*
X201928Y485914D01*
X203450Y486931D01*
X204468Y488453D01*
X204825Y490248D01*
X204468Y492044D01*
X203450Y493566D01*
X201928Y494584D01*
X200133Y494941D01*
D02*
G37*
G36*
X209550Y484752D02*
X207754Y484395D01*
X206232Y483378D01*
X205215Y481856D01*
X204858Y480060D01*
X205215Y478264D01*
X206232Y476742D01*
X207754Y475725D01*
X209550Y475368D01*
X211346Y475725D01*
X212868Y476742D01*
X213885Y478264D01*
X214242Y480060D01*
X213885Y481856D01*
X212868Y483378D01*
X211346Y484395D01*
X209550Y484752D01*
D02*
G37*
G36*
X49710Y483290D02*
X47914Y482933D01*
X46392Y481916D01*
X45375Y480394D01*
X45017Y478598D01*
X45375Y476802D01*
X46392Y475280D01*
X47914Y474263D01*
X49710Y473906D01*
X51505Y474263D01*
X53028Y475280D01*
X54045Y476802D01*
X54402Y478598D01*
X54045Y480394D01*
X53028Y481916D01*
X51505Y482933D01*
X49710Y483290D01*
D02*
G37*
G36*
X104140Y468242D02*
X102344Y467885D01*
X100822Y466868D01*
X99805Y465346D01*
X99448Y463550D01*
X99805Y461754D01*
X100822Y460232D01*
X102344Y459215D01*
X104140Y458858D01*
X105936Y459215D01*
X107458Y460232D01*
X108475Y461754D01*
X108832Y463550D01*
X108475Y465346D01*
X107458Y466868D01*
X105936Y467885D01*
X104140Y468242D01*
D02*
G37*
G36*
X127478Y460144D02*
X125682Y459787D01*
X124160Y458770D01*
X123143Y457248D01*
X122786Y455452D01*
X123143Y453657D01*
X124160Y452134D01*
X125682Y451117D01*
X127478Y450760D01*
X129274Y451117D01*
X130796Y452134D01*
X131813Y453657D01*
X132170Y455452D01*
X131813Y457248D01*
X130796Y458770D01*
X129274Y459787D01*
X127478Y460144D01*
D02*
G37*
G36*
X100330Y447922D02*
X98534Y447565D01*
X97012Y446548D01*
X95995Y445026D01*
X95638Y443230D01*
X95995Y441434D01*
X97012Y439912D01*
X98534Y438895D01*
X100330Y438538D01*
X102126Y438895D01*
X103648Y439912D01*
X104665Y441434D01*
X105022Y443230D01*
X104665Y445026D01*
X103648Y446548D01*
X102126Y447565D01*
X100330Y447922D01*
D02*
G37*
G36*
X383540Y440302D02*
X381744Y439945D01*
X380222Y438928D01*
X379205Y437406D01*
X378848Y435610D01*
X379205Y433814D01*
X380222Y432292D01*
X381744Y431275D01*
X383540Y430918D01*
X385336Y431275D01*
X386858Y432292D01*
X387875Y433814D01*
X388232Y435610D01*
X387875Y437406D01*
X386858Y438928D01*
X385336Y439945D01*
X383540Y440302D01*
D02*
G37*
G36*
X412750Y433952D02*
X410954Y433595D01*
X409432Y432578D01*
X408415Y431056D01*
X408058Y429260D01*
X408415Y427464D01*
X409432Y425942D01*
X410954Y424925D01*
X412750Y424568D01*
X414546Y424925D01*
X416068Y425942D01*
X417085Y427464D01*
X417442Y429260D01*
X417085Y431056D01*
X416068Y432578D01*
X414546Y433595D01*
X412750Y433952D01*
D02*
G37*
G36*
X125730Y427602D02*
X123934Y427245D01*
X122412Y426228D01*
X121395Y424706D01*
X121038Y422910D01*
X121395Y421114D01*
X122412Y419592D01*
X123934Y418575D01*
X125730Y418218D01*
X127526Y418575D01*
X129048Y419592D01*
X130065Y421114D01*
X130422Y422910D01*
X130065Y424706D01*
X129048Y426228D01*
X127526Y427245D01*
X125730Y427602D01*
D02*
G37*
G36*
X384434Y422522D02*
X382639Y422165D01*
X381116Y421148D01*
X380099Y419626D01*
X379742Y417830D01*
X380099Y416034D01*
X381116Y414512D01*
X382639Y413495D01*
X384434Y413138D01*
X386230Y413495D01*
X387752Y414512D01*
X388769Y416034D01*
X389126Y417830D01*
X388769Y419626D01*
X387752Y421148D01*
X386230Y422165D01*
X384434Y422522D01*
D02*
G37*
G36*
X125730Y392042D02*
X123934Y391685D01*
X122412Y390668D01*
X121395Y389146D01*
X121038Y387350D01*
X121395Y385554D01*
X122412Y384032D01*
X123934Y383015D01*
X125730Y382658D01*
X127526Y383015D01*
X129048Y384032D01*
X130065Y385554D01*
X130422Y387350D01*
X130065Y389146D01*
X129048Y390668D01*
X127526Y391685D01*
X125730Y392042D01*
D02*
G37*
G36*
X484450Y381040D02*
X482654Y380683D01*
X481132Y379666D01*
X480115Y378144D01*
X479758Y376348D01*
X480115Y374552D01*
X481132Y373030D01*
X482654Y372013D01*
X484450Y371656D01*
X486246Y372013D01*
X487768Y373030D01*
X488785Y374552D01*
X489142Y376348D01*
X488785Y378144D01*
X487768Y379666D01*
X486246Y380683D01*
X484450Y381040D01*
D02*
G37*
G36*
X209550Y378072D02*
X207754Y377715D01*
X206232Y376698D01*
X205215Y375176D01*
X204858Y373380D01*
X205215Y371584D01*
X206232Y370062D01*
X207754Y369045D01*
X209550Y368688D01*
X211346Y369045D01*
X212868Y370062D01*
X213885Y371584D01*
X214242Y373380D01*
X213885Y375176D01*
X212868Y376698D01*
X211346Y377715D01*
X209550Y378072D01*
D02*
G37*
G36*
X74930Y364102D02*
X73134Y363745D01*
X71612Y362728D01*
X70595Y361206D01*
X70238Y359410D01*
X70595Y357614D01*
X71612Y356092D01*
X73134Y355075D01*
X74930Y354718D01*
X76726Y355075D01*
X78248Y356092D01*
X79265Y357614D01*
X79622Y359410D01*
X79265Y361206D01*
X78248Y362728D01*
X76726Y363745D01*
X74930Y364102D01*
D02*
G37*
G36*
X532130Y347592D02*
X530334Y347235D01*
X528812Y346218D01*
X527795Y344696D01*
X527438Y342900D01*
X527795Y341104D01*
X528812Y339582D01*
X530334Y338565D01*
X532130Y338208D01*
X533926Y338565D01*
X535448Y339582D01*
X536465Y341104D01*
X536822Y342900D01*
X536465Y344696D01*
X535448Y346218D01*
X533926Y347235D01*
X532130Y347592D01*
D02*
G37*
G36*
X209550Y343782D02*
X207754Y343425D01*
X206232Y342408D01*
X205215Y340886D01*
X204858Y339090D01*
X205215Y337294D01*
X206232Y335772D01*
X207754Y334755D01*
X209550Y334398D01*
X211346Y334755D01*
X212868Y335772D01*
X213885Y337294D01*
X214242Y339090D01*
X213885Y340886D01*
X212868Y342408D01*
X211346Y343425D01*
X209550Y343782D01*
D02*
G37*
G36*
X379730Y328542D02*
X377934Y328185D01*
X376412Y327168D01*
X375395Y325646D01*
X375038Y323850D01*
X375395Y322054D01*
X376412Y320532D01*
X377934Y319515D01*
X379730Y319158D01*
X381526Y319515D01*
X383048Y320532D01*
X384065Y322054D01*
X384422Y323850D01*
X384065Y325646D01*
X383048Y327168D01*
X381526Y328185D01*
X379730Y328542D01*
D02*
G37*
G36*
X211012Y328511D02*
X209217Y328154D01*
X207695Y327137D01*
X206677Y325615D01*
X206320Y323819D01*
X206677Y322024D01*
X207695Y320501D01*
X209217Y319484D01*
X211012Y319127D01*
X212808Y319484D01*
X214330Y320501D01*
X215347Y322024D01*
X215705Y323819D01*
X215347Y325615D01*
X214330Y327137D01*
X212808Y328154D01*
X211012Y328511D01*
D02*
G37*
G36*
X521970Y327510D02*
X520174Y327153D01*
X518652Y326136D01*
X517635Y324614D01*
X517278Y322818D01*
X517635Y321022D01*
X518652Y319500D01*
X520174Y318483D01*
X521970Y318126D01*
X523766Y318483D01*
X525288Y319500D01*
X526305Y321022D01*
X526662Y322818D01*
X526305Y324614D01*
X525288Y326136D01*
X523766Y327153D01*
X521970Y327510D01*
D02*
G37*
G36*
X496316Y334892D02*
X494520Y334535D01*
X492998Y333518D01*
X491981Y331996D01*
X491624Y330200D01*
X491981Y328404D01*
X492998Y326882D01*
X494520Y325865D01*
X496316Y325508D01*
X497082Y325660D01*
X497846Y324517D01*
X497339Y323759D01*
X496982Y321964D01*
X497339Y320168D01*
X498356Y318646D01*
X499879Y317629D01*
X501674Y317271D01*
X503470Y317629D01*
X504992Y318646D01*
X506009Y320168D01*
X506366Y321964D01*
X506009Y323759D01*
X504992Y325281D01*
X503470Y326299D01*
X501674Y326656D01*
X500908Y326503D01*
X500145Y327646D01*
X500651Y328404D01*
X501008Y330200D01*
X500651Y331996D01*
X499634Y333518D01*
X498112Y334535D01*
X496316Y334892D01*
D02*
G37*
G36*
X535225Y322192D02*
X533429Y321835D01*
X531907Y320818D01*
X530890Y319296D01*
X530533Y317500D01*
X530890Y315704D01*
X531907Y314182D01*
X533429Y313165D01*
X535225Y312808D01*
X537020Y313165D01*
X538543Y314182D01*
X539560Y315704D01*
X539917Y317500D01*
X539560Y319296D01*
X538543Y320818D01*
X537020Y321835D01*
X535225Y322192D01*
D02*
G37*
G36*
X208960Y313892D02*
X207164Y313535D01*
X205642Y312518D01*
X204625Y310996D01*
X204268Y309200D01*
X204625Y307404D01*
X205642Y305882D01*
X207164Y304865D01*
X208960Y304508D01*
X210756Y304865D01*
X212278Y305882D01*
X213295Y307404D01*
X213652Y309200D01*
X213295Y310996D01*
X212278Y312518D01*
X210756Y313535D01*
X208960Y313892D01*
D02*
G37*
G36*
X51528Y310966D02*
X49732Y310609D01*
X48210Y309592D01*
X47193Y308070D01*
X46836Y306274D01*
X47193Y304479D01*
X48210Y302956D01*
X49732Y301939D01*
X51528Y301582D01*
X53324Y301939D01*
X54846Y302956D01*
X55863Y304479D01*
X56220Y306274D01*
X55863Y308070D01*
X54846Y309592D01*
X53324Y310609D01*
X51528Y310966D01*
D02*
G37*
G36*
X503936Y310762D02*
X502140Y310405D01*
X500618Y309388D01*
X499601Y307866D01*
X499244Y306070D01*
X499601Y304274D01*
X500618Y302752D01*
X502140Y301735D01*
X503936Y301378D01*
X505732Y301735D01*
X507254Y302752D01*
X508271Y304274D01*
X508628Y306070D01*
X508271Y307866D01*
X507254Y309388D01*
X505732Y310405D01*
X503936Y310762D01*
D02*
G37*
G36*
X40124Y309473D02*
X38329Y309116D01*
X36806Y308099D01*
X35789Y306576D01*
X35432Y304781D01*
X35789Y302985D01*
X36806Y301463D01*
X38329Y300446D01*
X40124Y300089D01*
X41920Y300446D01*
X43442Y301463D01*
X44459Y302985D01*
X44816Y304781D01*
X44459Y306576D01*
X43442Y308099D01*
X41920Y309116D01*
X40124Y309473D01*
D02*
G37*
G36*
X483616Y296792D02*
X481820Y296435D01*
X480298Y295418D01*
X479281Y293896D01*
X478924Y292100D01*
X479281Y290304D01*
X480298Y288782D01*
X481820Y287765D01*
X483616Y287408D01*
X485412Y287765D01*
X486934Y288782D01*
X487951Y290304D01*
X488308Y292100D01*
X487951Y293896D01*
X486934Y295418D01*
X485412Y296435D01*
X483616Y296792D01*
D02*
G37*
G36*
X384810D02*
X383014Y296435D01*
X381492Y295418D01*
X380475Y293896D01*
X380118Y292100D01*
X380475Y290304D01*
X381492Y288782D01*
X383014Y287765D01*
X384810Y287408D01*
X386606Y287765D01*
X388128Y288782D01*
X389145Y290304D01*
X389502Y292100D01*
X389145Y293896D01*
X388128Y295418D01*
X386606Y296435D01*
X384810Y296792D01*
D02*
G37*
G36*
X60582Y286532D02*
X58787Y286175D01*
X57264Y285157D01*
X56247Y283635D01*
X55890Y281840D01*
X56247Y280044D01*
X57264Y278522D01*
X58787Y277505D01*
X60582Y277147D01*
X62378Y277505D01*
X63900Y278522D01*
X64917Y280044D01*
X65274Y281840D01*
X64917Y283635D01*
X63900Y285157D01*
X62378Y286175D01*
X60582Y286532D01*
D02*
G37*
G36*
X96520Y271392D02*
X94724Y271035D01*
X93202Y270018D01*
X92839Y269474D01*
X91311D01*
X90948Y270018D01*
X89426Y271035D01*
X87630Y271392D01*
X85834Y271035D01*
X84312Y270018D01*
X83295Y268496D01*
X82938Y266700D01*
X83295Y264904D01*
X84312Y263382D01*
X85834Y262365D01*
X87630Y262008D01*
X89426Y262365D01*
X90948Y263382D01*
X91311Y263926D01*
X92839D01*
X93202Y263382D01*
X94724Y262365D01*
X96520Y262008D01*
X98316Y262365D01*
X99838Y263382D01*
X100855Y264904D01*
X101212Y266700D01*
X100855Y268496D01*
X99838Y270018D01*
X98316Y271035D01*
X96520Y271392D01*
D02*
G37*
G36*
X568960Y253007D02*
X568383Y252931D01*
X565480Y251728D01*
X562986Y249814D01*
X561072Y247320D01*
X559869Y244417D01*
X559793Y243840D01*
X568960D01*
Y253007D01*
D02*
G37*
G36*
X268224Y258318D02*
X258826D01*
Y241808D01*
X268224D01*
Y258318D01*
D02*
G37*
G36*
X334518Y258572D02*
X324612D01*
Y241554D01*
X334518D01*
Y258572D01*
D02*
G37*
G36*
X568960Y238760D02*
X559793D01*
X559869Y238183D01*
X561072Y235280D01*
X562986Y232786D01*
X565480Y230872D01*
X568383Y229669D01*
X568960Y229593D01*
Y238760D01*
D02*
G37*
G36*
X486503Y218527D02*
X484708Y218169D01*
X483186Y217152D01*
X482169Y215630D01*
X481811Y213834D01*
X482169Y212039D01*
X483186Y210517D01*
X484708Y209499D01*
X486503Y209142D01*
X488299Y209499D01*
X489821Y210517D01*
X490839Y212039D01*
X491196Y213834D01*
X490839Y215630D01*
X489821Y217152D01*
X488299Y218169D01*
X486503Y218527D01*
D02*
G37*
G36*
X439166Y215512D02*
X437370Y215155D01*
X435848Y214138D01*
X434831Y212616D01*
X434474Y210820D01*
X434831Y209024D01*
X435848Y207502D01*
X437370Y206485D01*
X439166Y206128D01*
X440962Y206485D01*
X442484Y207502D01*
X443501Y209024D01*
X443858Y210820D01*
X443501Y212616D01*
X442484Y214138D01*
X440962Y215155D01*
X439166Y215512D01*
D02*
G37*
G36*
X311404Y206876D02*
X309608Y206519D01*
X308086Y205502D01*
X307069Y203980D01*
X306712Y202184D01*
X307069Y200388D01*
X308086Y198866D01*
X309608Y197849D01*
X311404Y197492D01*
X313200Y197849D01*
X314722Y198866D01*
X315739Y200388D01*
X316096Y202184D01*
X315739Y203980D01*
X314722Y205502D01*
X313200Y206519D01*
X311404Y206876D01*
D02*
G37*
G36*
X250190Y177412D02*
X248394Y177055D01*
X246872Y176038D01*
X245855Y174516D01*
X245498Y172720D01*
X245855Y170924D01*
X246872Y169402D01*
X248394Y168385D01*
X250190Y168028D01*
X251986Y168385D01*
X253508Y169402D01*
X254525Y170924D01*
X254882Y172720D01*
X254525Y174516D01*
X253508Y176038D01*
X251986Y177055D01*
X250190Y177412D01*
D02*
G37*
G36*
X448903Y153314D02*
X447108Y152957D01*
X445585Y151940D01*
X444568Y150418D01*
X444211Y148622D01*
X444406Y147642D01*
X444266Y147413D01*
X443306Y146664D01*
X441960Y146932D01*
X440164Y146575D01*
X438642Y145558D01*
X437625Y144036D01*
X437268Y142240D01*
X437625Y140444D01*
X438642Y138922D01*
X440164Y137905D01*
X441960Y137548D01*
X443756Y137905D01*
X445278Y138922D01*
X446295Y140444D01*
X446652Y142240D01*
X446457Y143220D01*
X446597Y143449D01*
X447558Y144198D01*
X448903Y143930D01*
X450699Y144287D01*
X452221Y145304D01*
X453238Y146826D01*
X453595Y148622D01*
X453238Y150418D01*
X452221Y151940D01*
X450699Y152957D01*
X448903Y153314D01*
D02*
G37*
G36*
X356870Y146932D02*
X355074Y146575D01*
X353552Y145558D01*
X352568D01*
X351046Y146575D01*
X349250Y146932D01*
X347454Y146575D01*
X345932Y145558D01*
X344948D01*
X343426Y146575D01*
X341630Y146932D01*
X339834Y146575D01*
X338312Y145558D01*
X337328D01*
X335806Y146575D01*
X334010Y146932D01*
X332214Y146575D01*
X330692Y145558D01*
X329675Y144036D01*
X329318Y142240D01*
X329675Y140444D01*
X330692Y138922D01*
X332214Y137905D01*
X334010Y137548D01*
X335806Y137905D01*
X337328Y138922D01*
X338312D01*
X339834Y137905D01*
X341630Y137548D01*
X343426Y137905D01*
X344948Y138922D01*
X345932D01*
X347454Y137905D01*
X349250Y137548D01*
X351046Y137905D01*
X352568Y138922D01*
X353552D01*
X355074Y137905D01*
X356870Y137548D01*
X358666Y137905D01*
X360188Y138922D01*
X361205Y140444D01*
X361562Y142240D01*
X361205Y144036D01*
X360188Y145558D01*
X358666Y146575D01*
X356870Y146932D01*
D02*
G37*
G36*
X107442Y153536D02*
X105646Y153179D01*
X104124Y152162D01*
X103107Y150640D01*
X102750Y148844D01*
X103107Y147048D01*
X104124Y145526D01*
X105646Y144509D01*
X107442Y144152D01*
X109238Y144509D01*
X110760Y145526D01*
X111777Y147048D01*
X112134Y148844D01*
X111777Y150640D01*
X110760Y152162D01*
X109238Y153179D01*
X107442Y153536D01*
D02*
G37*
G36*
X217170Y152012D02*
X215374Y151655D01*
X213852Y150638D01*
X212835Y149116D01*
X212478Y147320D01*
X212835Y145524D01*
X213852Y144002D01*
X215374Y142985D01*
X217170Y142628D01*
X218966Y142985D01*
X220488Y144002D01*
X221505Y145524D01*
X221862Y147320D01*
X221505Y149116D01*
X220488Y150638D01*
X218966Y151655D01*
X217170Y152012D01*
D02*
G37*
G36*
X143002Y142614D02*
X141206Y142257D01*
X139684Y141240D01*
X138667Y139718D01*
X138310Y137922D01*
X138667Y136126D01*
X139684Y134604D01*
X141206Y133587D01*
X143002Y133230D01*
X144798Y133587D01*
X146320Y134604D01*
X147337Y136126D01*
X147694Y137922D01*
X147337Y139718D01*
X146320Y141240D01*
X144798Y142257D01*
X143002Y142614D01*
D02*
G37*
G36*
X285728Y141830D02*
X283932Y141473D01*
X282410Y140455D01*
X281392Y138933D01*
X281035Y137137D01*
X281392Y135342D01*
X282410Y133820D01*
X283932Y132802D01*
X285728Y132445D01*
X287523Y132802D01*
X289045Y133820D01*
X290063Y135342D01*
X290420Y137137D01*
X290063Y138933D01*
X289045Y140455D01*
X287523Y141473D01*
X285728Y141830D01*
D02*
G37*
G36*
X107696Y139031D02*
X106105Y138715D01*
X104756Y137814D01*
X103855Y136465D01*
X103539Y134874D01*
X103855Y133283D01*
X104756Y131934D01*
X106105Y131033D01*
X107696Y130717D01*
X109287Y131033D01*
X110636Y131934D01*
X111537Y133283D01*
X111853Y134874D01*
X111537Y136465D01*
X110636Y137814D01*
X109287Y138715D01*
X107696Y139031D01*
D02*
G37*
G36*
X89550Y137168D02*
X87754Y136810D01*
X86232Y135793D01*
X85215Y134271D01*
X84857Y132476D01*
X85215Y130680D01*
X86232Y129158D01*
X87754Y128140D01*
X89550Y127783D01*
X91345Y128140D01*
X92867Y129158D01*
X93884Y130680D01*
X94242Y132476D01*
X93884Y134271D01*
X92867Y135793D01*
X91345Y136810D01*
X89550Y137168D01*
D02*
G37*
G36*
X199898Y125342D02*
X198102Y124985D01*
X197307Y124453D01*
X196342Y124064D01*
X195377Y124453D01*
X194582Y124985D01*
X192786Y125342D01*
X190990Y124985D01*
X189468Y123968D01*
X188451Y122446D01*
X188094Y120650D01*
X188451Y118854D01*
X189468Y117332D01*
X190990Y116315D01*
X192786Y115958D01*
X194582Y116315D01*
X195377Y116847D01*
X196342Y117236D01*
X197307Y116847D01*
X198102Y116315D01*
X199898Y115958D01*
X201694Y116315D01*
X203216Y117332D01*
X204233Y118854D01*
X204590Y120650D01*
X204233Y122446D01*
X203216Y123968D01*
X201694Y124985D01*
X199898Y125342D01*
D02*
G37*
G36*
X99568Y122802D02*
X97772Y122445D01*
X96266Y121439D01*
X94760Y122445D01*
X92964Y122802D01*
X91168Y122445D01*
X89646Y121428D01*
X88629Y119906D01*
X88272Y118110D01*
X88629Y116314D01*
X89635Y114808D01*
X88629Y113302D01*
X88272Y111506D01*
X88629Y109710D01*
X89646Y108188D01*
X91168Y107171D01*
X92899Y106827D01*
X93046Y106778D01*
X94244Y105773D01*
X94471Y104630D01*
X95488Y103108D01*
Y102632D01*
X94471Y101110D01*
X94114Y99314D01*
X94471Y97518D01*
X95488Y95996D01*
X97010Y94979D01*
X98806Y94622D01*
X100602Y94979D01*
X102124Y95996D01*
X103141Y97518D01*
X103498Y99314D01*
X103141Y101110D01*
X102124Y102632D01*
Y103108D01*
X103141Y104630D01*
X103498Y106426D01*
X103141Y108222D01*
X102124Y109744D01*
X100602Y110761D01*
X98871Y111105D01*
X98724Y111154D01*
X98172Y111617D01*
X98119Y112469D01*
X99250Y113481D01*
X99568Y113418D01*
X101364Y113775D01*
X102886Y114792D01*
X103903Y116314D01*
X104260Y118110D01*
X103903Y119906D01*
X102886Y121428D01*
X101364Y122445D01*
X99568Y122802D01*
D02*
G37*
G36*
X419100Y129152D02*
X417304Y128795D01*
X415782Y127778D01*
X414765Y126256D01*
X414408Y124460D01*
X414765Y122664D01*
X415782Y121142D01*
X417304Y120125D01*
X419100Y119768D01*
X420896Y120125D01*
X422418Y121142D01*
X423435Y122664D01*
X423792Y124460D01*
X423435Y126256D01*
X422418Y127778D01*
X420896Y128795D01*
X419100Y129152D01*
D02*
G37*
G36*
X170737Y126587D02*
X169146Y126271D01*
X167797Y125370D01*
X166896Y124021D01*
X166579Y122430D01*
X165412Y121787D01*
X164409Y121588D01*
X163061Y120687D01*
X162159Y119338D01*
X161843Y117747D01*
X162159Y116156D01*
X163061Y114807D01*
X164409Y113906D01*
X166000Y113590D01*
X167591Y113906D01*
X168940Y114807D01*
X169841Y116156D01*
X170158Y117747D01*
X171325Y118390D01*
X172328Y118589D01*
X173676Y119490D01*
X174578Y120839D01*
X174894Y122430D01*
X174578Y124021D01*
X173676Y125370D01*
X172328Y126271D01*
X170737Y126587D01*
D02*
G37*
G36*
X485140Y113912D02*
X483344Y113555D01*
X481822Y112538D01*
X480805Y111016D01*
X480448Y109220D01*
X480805Y107424D01*
X481822Y105902D01*
X483344Y104885D01*
X485140Y104528D01*
X486936Y104885D01*
X488458Y105902D01*
X489475Y107424D01*
X489832Y109220D01*
X489475Y111016D01*
X488458Y112538D01*
X486936Y113555D01*
X485140Y113912D01*
D02*
G37*
G36*
X110744Y111626D02*
X108948Y111269D01*
X107426Y110252D01*
X106409Y108730D01*
X106052Y106934D01*
X106409Y105138D01*
X107426Y103616D01*
X108948Y102599D01*
X110744Y102242D01*
X112540Y102599D01*
X114062Y103616D01*
X115079Y105138D01*
X115436Y106934D01*
X115079Y108730D01*
X114062Y110252D01*
X112540Y111269D01*
X110744Y111626D01*
D02*
G37*
G36*
X391160Y127882D02*
X389364Y127525D01*
X387842Y126508D01*
X386825Y124986D01*
X386468Y123190D01*
X386825Y121394D01*
X387842Y119872D01*
X388386Y119509D01*
Y117981D01*
X387842Y117618D01*
X386825Y116096D01*
X386468Y114300D01*
X386825Y112504D01*
X387811Y111029D01*
X387985Y110698D01*
Y109806D01*
X387811Y109475D01*
X386825Y108000D01*
X386468Y106204D01*
X386825Y104408D01*
X387842Y102886D01*
X389364Y101869D01*
X391160Y101512D01*
X392956Y101869D01*
X394478Y102886D01*
X395495Y104408D01*
X395852Y106204D01*
X395495Y108000D01*
X394509Y109475D01*
X394336Y109806D01*
Y110698D01*
X394509Y111029D01*
X395495Y112504D01*
X395852Y114300D01*
X395495Y116096D01*
X394478Y117618D01*
X393934Y117981D01*
Y119509D01*
X394478Y119872D01*
X395495Y121394D01*
X395852Y123190D01*
X395495Y124986D01*
X394478Y126508D01*
X392956Y127525D01*
X391160Y127882D01*
D02*
G37*
G36*
X295910Y108062D02*
X294114Y107705D01*
X292592Y106688D01*
X291575Y105166D01*
X291218Y103370D01*
X291575Y101574D01*
X292592Y100052D01*
X294114Y99035D01*
X295910Y98678D01*
X297706Y99035D01*
X299228Y100052D01*
X300245Y101574D01*
X300602Y103370D01*
X300245Y105166D01*
X299228Y106688D01*
X297706Y107705D01*
X295910Y108062D01*
D02*
G37*
G36*
X269240Y97402D02*
X267444Y97045D01*
X265922Y96028D01*
X264938D01*
X263416Y97045D01*
X261620Y97402D01*
X259824Y97045D01*
X258302Y96028D01*
X257285Y94506D01*
X256928Y92710D01*
X257285Y90914D01*
X258302Y89392D01*
X259824Y88375D01*
X261620Y88018D01*
X263416Y88375D01*
X264109Y88839D01*
X265078Y88574D01*
X265369Y87580D01*
X264905Y86886D01*
X264548Y85090D01*
X264905Y83294D01*
X265671Y82148D01*
X265831Y81280D01*
X265671Y80412D01*
X264905Y79266D01*
X264653Y78001D01*
X262890Y78352D01*
X261094Y77995D01*
X259572Y76978D01*
X258555Y75456D01*
X258198Y73660D01*
X258555Y71864D01*
X259572Y70342D01*
X261094Y69325D01*
X262890Y68968D01*
X264686Y69325D01*
X266208Y70342D01*
X267225Y71864D01*
X267477Y73129D01*
X269240Y72778D01*
X271036Y73135D01*
X272558Y74152D01*
X273575Y75674D01*
X274801Y75397D01*
X274708Y74930D01*
X275065Y73134D01*
X276082Y71612D01*
X277604Y70595D01*
X279400Y70238D01*
X281196Y70595D01*
X282718Y71612D01*
X283702D01*
X285224Y70595D01*
X287020Y70238D01*
X288816Y70595D01*
X290338Y71612D01*
X291355Y73134D01*
X291712Y74930D01*
X291355Y76726D01*
X290589Y77872D01*
X290429Y78740D01*
X290589Y79608D01*
X291355Y80754D01*
X291712Y82550D01*
X291355Y84346D01*
X290589Y85492D01*
X290429Y86360D01*
X290589Y87228D01*
X291355Y88374D01*
X291712Y90170D01*
X291355Y91966D01*
X290338Y93488D01*
X288816Y94505D01*
X287020Y94862D01*
X285224Y94505D01*
X284078Y93739D01*
X283210Y93579D01*
X282342Y93739D01*
X281196Y94505D01*
X279400Y94862D01*
X277604Y94505D01*
X276082Y93488D01*
X275065Y91966D01*
X273839Y92243D01*
X273932Y92710D01*
X273575Y94506D01*
X272558Y96028D01*
X271036Y97045D01*
X269240Y97402D01*
D02*
G37*
G36*
X500380Y102482D02*
X498584Y102125D01*
X497062Y101108D01*
X496045Y99586D01*
X495688Y97790D01*
X496045Y95994D01*
X497062Y94472D01*
X498584Y93455D01*
X500380Y93098D01*
X502176Y93455D01*
X503698Y94472D01*
X504715Y95994D01*
X505072Y97790D01*
X504715Y99586D01*
X503698Y101108D01*
X502176Y102125D01*
X500380Y102482D01*
D02*
G37*
G36*
X572770Y97402D02*
X570974Y97045D01*
X569452Y96028D01*
X568435Y94506D01*
X568078Y92710D01*
X568435Y90914D01*
X569452Y89392D01*
X570974Y88375D01*
X572770Y88018D01*
X574566Y88375D01*
X576088Y89392D01*
X577105Y90914D01*
X577462Y92710D01*
X577105Y94506D01*
X576088Y96028D01*
X574566Y97045D01*
X572770Y97402D01*
D02*
G37*
G36*
X181610Y94862D02*
X179814Y94505D01*
X178292Y93488D01*
X177275Y91966D01*
X176918Y90170D01*
X177275Y88374D01*
X178292Y86852D01*
X179814Y85835D01*
X181610Y85478D01*
X183406Y85835D01*
X184928Y86852D01*
X185945Y88374D01*
X186302Y90170D01*
X185945Y91966D01*
X184928Y93488D01*
X183406Y94505D01*
X181610Y94862D01*
D02*
G37*
G36*
X532130Y92051D02*
X530334Y91694D01*
X528812Y90677D01*
X527795Y89155D01*
X527438Y87359D01*
X527795Y85564D01*
X528812Y84041D01*
X530334Y83024D01*
X532130Y82667D01*
X533926Y83024D01*
X535448Y84041D01*
X536465Y85564D01*
X536822Y87359D01*
X536465Y89155D01*
X535448Y90677D01*
X533926Y91694D01*
X532130Y92051D01*
D02*
G37*
G36*
X155956Y81908D02*
X154160Y81551D01*
X152638Y80534D01*
X151621Y79012D01*
X150211Y78435D01*
X149352Y78606D01*
X147556Y78249D01*
X146034Y77232D01*
X145017Y75710D01*
X144660Y73914D01*
X145017Y72118D01*
X146034Y70596D01*
X147556Y69579D01*
X149352Y69222D01*
X151148Y69579D01*
X152670Y70596D01*
X153687Y72118D01*
X155097Y72695D01*
X155956Y72524D01*
X157752Y72881D01*
X159274Y73898D01*
X160291Y75420D01*
X160648Y77216D01*
X160291Y79012D01*
X159274Y80534D01*
X157752Y81551D01*
X155956Y81908D01*
D02*
G37*
G36*
X205740Y76547D02*
X204149Y76231D01*
X202800Y75330D01*
X201972Y74089D01*
X200667Y74961D01*
X199076Y75277D01*
X197486Y74961D01*
X196137Y74060D01*
X195236Y72711D01*
X194919Y71120D01*
X195236Y69529D01*
X196137Y68180D01*
X197486Y67279D01*
X199076Y66963D01*
X200667Y67279D01*
X202016Y68180D01*
X202845Y69420D01*
X204149Y68549D01*
X205740Y68233D01*
X207331Y68549D01*
X208680Y69450D01*
X209581Y70799D01*
X209897Y72390D01*
X209581Y73981D01*
X208680Y75330D01*
X207331Y76231D01*
X205740Y76547D01*
D02*
G37*
G36*
X490474Y83432D02*
X488678Y83075D01*
X487156Y82058D01*
X486139Y80536D01*
X485782Y78740D01*
X486139Y76944D01*
X487156Y75422D01*
X488678Y74405D01*
X490474Y74048D01*
X492270Y74405D01*
X493792Y75422D01*
X494809Y76944D01*
X495166Y78740D01*
X494809Y80536D01*
X493792Y82058D01*
X492270Y83075D01*
X490474Y83432D01*
D02*
G37*
G36*
X185353Y76547D02*
X183762Y76231D01*
X182414Y75330D01*
X181513Y73981D01*
X181196Y72390D01*
X181513Y70799D01*
X182414Y69450D01*
X183762Y68549D01*
X185353Y68233D01*
X186944Y68549D01*
X188293Y69450D01*
X189194Y70799D01*
X189511Y72390D01*
X189194Y73981D01*
X188293Y75330D01*
X186944Y76231D01*
X185353Y76547D01*
D02*
G37*
G36*
X225552Y76574D02*
X223756Y76217D01*
X222234Y75200D01*
X221217Y73678D01*
X220860Y71882D01*
X221217Y70086D01*
X222234Y68564D01*
X223756Y67547D01*
X225552Y67190D01*
X227348Y67547D01*
X228870Y68564D01*
X229887Y70086D01*
X230244Y71882D01*
X229887Y73678D01*
X228870Y75200D01*
X227348Y76217D01*
X225552Y76574D01*
D02*
G37*
G36*
X99314Y64101D02*
X97723Y63785D01*
X96374Y62884D01*
X95473Y61535D01*
X95339Y60860D01*
X94044D01*
X94011Y61027D01*
X93110Y62376D01*
X91761Y63277D01*
X90170Y63593D01*
X88579Y63277D01*
X87230Y62376D01*
X86329Y61027D01*
X86013Y59436D01*
X86329Y57845D01*
X87230Y56496D01*
X88579Y55595D01*
X90170Y55279D01*
X91761Y55595D01*
X93110Y56496D01*
X94011Y57845D01*
X94145Y58520D01*
X95440D01*
X95473Y58353D01*
X96374Y57004D01*
X97723Y56103D01*
X99314Y55787D01*
X100905Y56103D01*
X102254Y57004D01*
X103155Y58353D01*
X103471Y59944D01*
X103155Y61535D01*
X102254Y62884D01*
X100905Y63785D01*
X99314Y64101D01*
D02*
G37*
G36*
X41402Y103498D02*
X39606Y103141D01*
X38084Y102124D01*
X37067Y100602D01*
X36710Y98806D01*
X37067Y97010D01*
X38084Y95488D01*
X39606Y94471D01*
X40889Y94216D01*
X41431Y94030D01*
X41824Y92903D01*
X41652Y92036D01*
X42009Y90240D01*
X42521Y89474D01*
X42405Y88204D01*
X42118Y87966D01*
X40878Y87138D01*
X39861Y85616D01*
X39504Y83820D01*
X39861Y82024D01*
X40878Y80502D01*
X42079Y79700D01*
X42153Y79424D01*
Y78564D01*
X42079Y78288D01*
X40878Y77486D01*
X39861Y75964D01*
X39504Y74168D01*
X39861Y72372D01*
X40878Y70850D01*
X42079Y70048D01*
X42153Y69772D01*
Y68912D01*
X42079Y68636D01*
X40878Y67834D01*
X39861Y66312D01*
X39504Y64516D01*
X39861Y62720D01*
X40878Y61198D01*
X42400Y60181D01*
X44196Y59824D01*
X45992Y60181D01*
X47514Y61198D01*
X48531Y62720D01*
X48888Y64516D01*
X48531Y66312D01*
X47514Y67834D01*
X46313Y68636D01*
X46239Y68912D01*
Y69772D01*
X46313Y70048D01*
X47514Y70850D01*
X48531Y72372D01*
X48888Y74168D01*
X48531Y75964D01*
X47514Y77486D01*
X46313Y78288D01*
X46239Y78564D01*
Y79424D01*
X46313Y79700D01*
X47514Y80502D01*
X48531Y82024D01*
X48888Y83820D01*
X48531Y85616D01*
X48019Y86382D01*
X48135Y87652D01*
X48422Y87890D01*
X49662Y88718D01*
X50679Y90240D01*
X51036Y92036D01*
X50679Y93832D01*
X49662Y95354D01*
X48140Y96371D01*
X46857Y96626D01*
X46315Y96812D01*
X45922Y97939D01*
X46094Y98806D01*
X45737Y100602D01*
X44720Y102124D01*
X43198Y103141D01*
X41402Y103498D01*
D02*
G37*
G36*
X141478Y65625D02*
X139887Y65309D01*
X138538Y64408D01*
X137637Y63059D01*
X137321Y61468D01*
X137637Y59877D01*
X138538Y58528D01*
X139887Y57627D01*
X141478Y57311D01*
X143069Y57627D01*
X144418Y58528D01*
X145319Y59877D01*
X145635Y61468D01*
X145319Y63059D01*
X144418Y64408D01*
X143069Y65309D01*
X141478Y65625D01*
D02*
G37*
G36*
X492760Y64382D02*
X490964Y64025D01*
X489442Y63008D01*
X488425Y61486D01*
X488068Y59690D01*
X488425Y57894D01*
X489442Y56372D01*
X490964Y55355D01*
X492760Y54998D01*
X494556Y55355D01*
X496078Y56372D01*
X497095Y57894D01*
X497452Y59690D01*
X497095Y61486D01*
X496078Y63008D01*
X494556Y64025D01*
X492760Y64382D01*
D02*
G37*
G36*
X320040Y69962D02*
X318244Y69605D01*
X316722Y68588D01*
X315705Y67066D01*
X315348Y65270D01*
X315705Y63474D01*
X316471Y62328D01*
X316631Y61460D01*
X316471Y60592D01*
X315705Y59446D01*
X315348Y57650D01*
X315705Y55854D01*
X316478Y54698D01*
X316384Y54224D01*
X316061Y53541D01*
X315938Y53394D01*
X314434Y53095D01*
X313288Y52329D01*
X312420Y52169D01*
X311552Y52329D01*
X310406Y53095D01*
X308610Y53452D01*
X306814Y53095D01*
X305292Y52078D01*
X304275Y50556D01*
X303918Y48760D01*
X304275Y46964D01*
X305292Y45442D01*
X306814Y44425D01*
X308610Y44068D01*
X310406Y44425D01*
X311552Y45191D01*
X312420Y45351D01*
X313288Y45191D01*
X314434Y44425D01*
X316230Y44068D01*
X318026Y44425D01*
X319548Y45442D01*
X320565Y46964D01*
X320922Y48760D01*
X320565Y50556D01*
X319792Y51712D01*
X319886Y52186D01*
X320210Y52869D01*
X320332Y53016D01*
X321836Y53315D01*
X323358Y54332D01*
X324375Y55854D01*
X324732Y57650D01*
X324375Y59446D01*
X323609Y60592D01*
X323449Y61460D01*
X323609Y62328D01*
X324375Y63474D01*
X324732Y65270D01*
X324375Y67066D01*
X323358Y68588D01*
X321836Y69605D01*
X320040Y69962D01*
D02*
G37*
G36*
X225750Y54406D02*
X223788Y54016D01*
X222125Y52905D01*
X221014Y51242D01*
X220623Y49280D01*
X221014Y47318D01*
X222125Y45655D01*
X223788Y44544D01*
X225750Y44153D01*
X227712Y44544D01*
X229375Y45655D01*
X230486Y47318D01*
X230877Y49280D01*
X230486Y51242D01*
X229375Y52905D01*
X227712Y54016D01*
X225750Y54406D01*
D02*
G37*
G36*
X167950D02*
X165988Y54016D01*
X164325Y52905D01*
X163214Y51242D01*
X162824Y49280D01*
X163214Y47318D01*
X164325Y45655D01*
X165988Y44544D01*
X167950Y44153D01*
X169912Y44544D01*
X171575Y45655D01*
X172686Y47318D01*
X173076Y49280D01*
X172686Y51242D01*
X171575Y52905D01*
X169912Y54016D01*
X167950Y54406D01*
D02*
G37*
G36*
X240050Y66617D02*
X238281Y66384D01*
X236632Y65701D01*
X235216Y64614D01*
X234129Y63198D01*
X233446Y61549D01*
X233214Y59780D01*
Y48780D01*
X233446Y47010D01*
X234129Y45362D01*
X235216Y43946D01*
X236632Y42859D01*
X238281Y42176D01*
X240050Y41943D01*
X241819Y42176D01*
X243468Y42859D01*
X244884Y43946D01*
X245971Y45362D01*
X246653Y47010D01*
X246887Y48780D01*
Y59780D01*
X246653Y61549D01*
X245971Y63198D01*
X244884Y64614D01*
X243468Y65701D01*
X241819Y66384D01*
X240050Y66617D01*
D02*
G37*
G36*
X153650D02*
X151881Y66384D01*
X150232Y65701D01*
X148816Y64614D01*
X147729Y63198D01*
X147046Y61549D01*
X146813Y59780D01*
Y48780D01*
X147046Y47010D01*
X147729Y45362D01*
X148816Y43946D01*
X150232Y42859D01*
X151881Y42176D01*
X153650Y41943D01*
X155419Y42176D01*
X157068Y42859D01*
X158484Y43946D01*
X159571Y45362D01*
X160254Y47010D01*
X160487Y48780D01*
Y59780D01*
X160254Y61549D01*
X159571Y63198D01*
X158484Y64614D01*
X157068Y65701D01*
X155419Y66384D01*
X153650Y66617D01*
D02*
G37*
G36*
X39116Y49322D02*
X37320Y48965D01*
X35798Y47948D01*
X34781Y46426D01*
X34424Y44630D01*
X34781Y42834D01*
X35798Y41312D01*
X37320Y40295D01*
X39116Y39938D01*
X40912Y40295D01*
X41373Y39415D01*
X41385Y39352D01*
X42402Y37830D01*
X43924Y36813D01*
X45720Y36456D01*
X47516Y36813D01*
X49038Y37830D01*
X50055Y39352D01*
X50191Y39409D01*
X50274Y39353D01*
X52070Y38996D01*
X53866Y39353D01*
X55388Y40370D01*
X56405Y41892D01*
X56762Y43688D01*
X56405Y45484D01*
X55388Y47006D01*
X53866Y48023D01*
X52070Y48380D01*
X50274Y48023D01*
X48752Y47006D01*
X47735Y45484D01*
X47599Y45427D01*
X47516Y45483D01*
X45720Y45840D01*
X43924Y45483D01*
X43463Y46363D01*
X43451Y46426D01*
X42434Y47948D01*
X40912Y48965D01*
X39116Y49322D01*
D02*
G37*
G36*
X269240Y47872D02*
X267444Y47515D01*
X265922Y46498D01*
X264905Y44976D01*
X264548Y43180D01*
X264905Y41384D01*
X265922Y39862D01*
X267444Y38845D01*
X269240Y38488D01*
X271036Y38845D01*
X272558Y39862D01*
X273575Y41384D01*
X273932Y43180D01*
X273575Y44976D01*
X272558Y46498D01*
X271036Y47515D01*
X269240Y47872D01*
D02*
G37*
G36*
X99822Y49904D02*
X98026Y49547D01*
X96504Y48530D01*
X95487Y47008D01*
X95130Y45212D01*
X95487Y43416D01*
X96504Y41894D01*
Y41418D01*
X95487Y39896D01*
X95130Y38100D01*
X95487Y36304D01*
X96504Y34782D01*
X98026Y33765D01*
X99822Y33408D01*
X101618Y33765D01*
X103140Y34782D01*
X104157Y36304D01*
X104514Y38100D01*
X104157Y39896D01*
X103140Y41418D01*
Y41894D01*
X104157Y43416D01*
X104514Y45212D01*
X104157Y47008D01*
X103140Y48530D01*
X101618Y49547D01*
X99822Y49904D01*
D02*
G37*
G36*
X146558Y37458D02*
X144762Y37101D01*
X143240Y36084D01*
X142223Y34562D01*
X141866Y32766D01*
X142223Y30970D01*
X143240Y29448D01*
X144762Y28431D01*
X146558Y28074D01*
X148354Y28431D01*
X149876Y29448D01*
X150893Y30970D01*
X151250Y32766D01*
X150893Y34562D01*
X149876Y36084D01*
X148354Y37101D01*
X146558Y37458D01*
D02*
G37*
G36*
X53074D02*
X51279Y37101D01*
X49756Y36084D01*
X48739Y34562D01*
X48382Y32766D01*
X48739Y30970D01*
X49756Y29448D01*
X51279Y28431D01*
X53074Y28074D01*
X54870Y28431D01*
X56392Y29448D01*
X57409Y30970D01*
X57766Y32766D01*
X57409Y34562D01*
X56392Y36084D01*
X54870Y37101D01*
X53074Y37458D01*
D02*
G37*
G36*
X433832Y37174D02*
Y27432D01*
X443573D01*
X443431Y28516D01*
X442228Y31421D01*
X440314Y33914D01*
X437821Y35828D01*
X434916Y37031D01*
X433832Y37174D01*
D02*
G37*
G36*
X429768D02*
X428684Y37031D01*
X425779Y35828D01*
X423286Y33914D01*
X421372Y31421D01*
X420169Y28516D01*
X420027Y27432D01*
X429768D01*
Y37174D01*
D02*
G37*
G36*
X99568Y27806D02*
X97772Y27449D01*
X96250Y26432D01*
X95378Y25127D01*
X94471Y24949D01*
X93951Y24976D01*
X93488Y25670D01*
X91966Y26687D01*
X90170Y27044D01*
X88374Y26687D01*
X86852Y25670D01*
X85835Y24148D01*
X85478Y22352D01*
X85835Y20556D01*
X86852Y19034D01*
X88374Y18017D01*
X90170Y17660D01*
X91966Y18017D01*
X93488Y19034D01*
X94360Y20339D01*
X95267Y20517D01*
X95529Y20503D01*
X96106Y19358D01*
X95233Y18052D01*
X94876Y16256D01*
X95233Y14460D01*
X96240Y12954D01*
X95233Y11448D01*
X94876Y9652D01*
X95233Y7856D01*
X96250Y6334D01*
X97772Y5317D01*
X99568Y4960D01*
X101364Y5317D01*
X102886Y6334D01*
X103903Y7856D01*
X104260Y9652D01*
X103903Y11448D01*
X102896Y12954D01*
X103903Y14460D01*
X104260Y16256D01*
X103903Y18052D01*
X103871Y18100D01*
X104787Y19015D01*
X105900Y18271D01*
X107696Y17914D01*
X109492Y18271D01*
X111014Y19288D01*
X112031Y20810D01*
X112388Y22606D01*
X112031Y24402D01*
X111014Y25924D01*
X109492Y26941D01*
X107696Y27298D01*
X105900Y26941D01*
X104637Y26097D01*
X103163Y26017D01*
X102886Y26432D01*
X101364Y27449D01*
X99568Y27806D01*
D02*
G37*
G36*
X61456Y30854D02*
X59661Y30497D01*
X58138Y29480D01*
X57121Y27958D01*
X56764Y26162D01*
X57121Y24366D01*
X58138Y22844D01*
X59661Y21827D01*
X61456Y21470D01*
X63252Y21827D01*
X64774Y22844D01*
X65791Y24366D01*
X66149Y26162D01*
X65791Y27958D01*
X64774Y29480D01*
X63252Y30497D01*
X61456Y30854D01*
D02*
G37*
G36*
X278384Y28287D02*
X276793Y27971D01*
X275444Y27070D01*
X274543Y25721D01*
X274227Y24130D01*
X274543Y22539D01*
X275444Y21190D01*
X276793Y20289D01*
X278384Y19973D01*
X279975Y20289D01*
X281324Y21190D01*
X282225Y22539D01*
X282541Y24130D01*
X282225Y25721D01*
X281324Y27070D01*
X279975Y27971D01*
X278384Y28287D01*
D02*
G37*
G36*
X136652Y28060D02*
X134856Y27703D01*
X133334Y26686D01*
X132317Y25164D01*
X131960Y23368D01*
X132317Y21572D01*
X133334Y20050D01*
X134856Y19033D01*
X136652Y18676D01*
X138448Y19033D01*
X139970Y20050D01*
X140987Y21572D01*
X141344Y23368D01*
X140987Y25164D01*
X139970Y26686D01*
X138448Y27703D01*
X136652Y28060D01*
D02*
G37*
G36*
X406400Y36672D02*
X403483Y36288D01*
X400764Y35162D01*
X398429Y33371D01*
X396638Y31036D01*
X395512Y28317D01*
X395128Y25400D01*
X395512Y22483D01*
X396638Y19764D01*
X398429Y17429D01*
X400764Y15638D01*
X403483Y14512D01*
X406400Y14128D01*
X409318Y14512D01*
X412036Y15638D01*
X414371Y17429D01*
X416162Y19764D01*
X417288Y22483D01*
X417672Y25400D01*
X417288Y28317D01*
X416162Y31036D01*
X414371Y33371D01*
X412036Y35162D01*
X409318Y36288D01*
X406400Y36672D01*
D02*
G37*
G36*
X443573Y23368D02*
X433832D01*
Y13627D01*
X434916Y13769D01*
X437821Y14972D01*
X440314Y16886D01*
X442228Y19380D01*
X443431Y22283D01*
X443573Y23368D01*
D02*
G37*
G36*
X429768D02*
X420027D01*
X420169Y22283D01*
X421372Y19380D01*
X423286Y16886D01*
X425779Y14972D01*
X428684Y13769D01*
X429768Y13627D01*
Y23368D01*
D02*
G37*
G36*
X26901Y42679D02*
X23899D01*
X23702Y42640D01*
X23501D01*
X20557Y42054D01*
X20371Y41978D01*
X20174Y41938D01*
X17401Y40789D01*
X17234Y40678D01*
X17048Y40601D01*
X14552Y38933D01*
X14410Y38791D01*
X14243Y38680D01*
X12120Y36557D01*
X12009Y36390D01*
X11867Y36248D01*
X10199Y33752D01*
X10122Y33566D01*
X10010Y33399D01*
X8862Y30626D01*
X8823Y30429D01*
X8746Y30243D01*
X8160Y27299D01*
Y27098D01*
X8121Y26901D01*
X8121Y25400D01*
Y23899D01*
X8160Y23702D01*
Y23501D01*
X8746Y20557D01*
X8823Y20371D01*
X8862Y20174D01*
X10010Y17401D01*
X10122Y17234D01*
X10199Y17048D01*
X11867Y14552D01*
X12009Y14410D01*
X12120Y14243D01*
X14243Y12120D01*
X14410Y12009D01*
X14552Y11867D01*
X17048Y10199D01*
X17234Y10122D01*
X17401Y10010D01*
X20174Y8862D01*
X20371Y8823D01*
X20557Y8746D01*
X23501Y8160D01*
X23702D01*
X23899Y8121D01*
X25400Y8121D01*
X26901D01*
X27098Y8160D01*
X27299D01*
X30243Y8746D01*
X30429Y8823D01*
X30626Y8862D01*
X33399Y10010D01*
X33566Y10122D01*
X33752Y10199D01*
X36248Y11867D01*
X36390Y12009D01*
X36557Y12120D01*
X38680Y14243D01*
X38791Y14410D01*
X38933Y14552D01*
X40601Y17048D01*
X40678Y17234D01*
X40789Y17401D01*
X41938Y20174D01*
X41978Y20371D01*
X42054Y20557D01*
X42640Y23501D01*
Y23702D01*
X42679Y23899D01*
Y26901D01*
X42640Y27098D01*
Y27299D01*
X42054Y30243D01*
X41978Y30429D01*
X41938Y30626D01*
X40789Y33399D01*
X40678Y33566D01*
X40601Y33752D01*
X38933Y36248D01*
X38791Y36390D01*
X38680Y36557D01*
X36557Y38680D01*
X36390Y38791D01*
X36248Y38933D01*
X33752Y40601D01*
X33566Y40678D01*
X33399Y40789D01*
X30626Y41938D01*
X30429Y41978D01*
X30243Y42054D01*
X27299Y42640D01*
X27098D01*
X26901Y42679D01*
D02*
G37*
G36*
X360680Y39482D02*
X358884Y39125D01*
X357362Y38108D01*
X356345Y36586D01*
X355988Y34790D01*
X356345Y32994D01*
X357111Y31848D01*
X357271Y30980D01*
X357111Y30112D01*
X356345Y28966D01*
X355988Y27170D01*
X356345Y25374D01*
X357111Y24228D01*
X357271Y23360D01*
X357111Y22492D01*
X356345Y21346D01*
X355988Y19550D01*
X356345Y17754D01*
X357111Y16608D01*
X357271Y15740D01*
X357111Y14872D01*
X356345Y13726D01*
X355988Y11930D01*
X356345Y10134D01*
X357362Y8612D01*
X358884Y7595D01*
X360680Y7238D01*
X362476Y7595D01*
X363998Y8612D01*
X365015Y10134D01*
X365372Y11930D01*
X365015Y13726D01*
X364249Y14872D01*
X364089Y15740D01*
X364249Y16608D01*
X365015Y17754D01*
X365372Y19550D01*
X365015Y21346D01*
X364249Y22492D01*
X364089Y23360D01*
X364249Y24228D01*
X365015Y25374D01*
X365372Y27170D01*
X365015Y28966D01*
X364249Y30112D01*
X364089Y30980D01*
X364249Y31848D01*
X365015Y32994D01*
X365372Y34790D01*
X365015Y36586D01*
X363998Y38108D01*
X362476Y39125D01*
X360680Y39482D01*
D02*
G37*
G36*
X560301Y41409D02*
X557299D01*
X557102Y41370D01*
X556901D01*
X553957Y40784D01*
X553771Y40708D01*
X553574Y40668D01*
X550801Y39520D01*
X550634Y39408D01*
X550448Y39331D01*
X547952Y37663D01*
X547810Y37521D01*
X547643Y37410D01*
X545520Y35287D01*
X545409Y35120D01*
X545267Y34978D01*
X543599Y32482D01*
X543522Y32296D01*
X543410Y32129D01*
X542262Y29356D01*
X542223Y29159D01*
X542146Y28973D01*
X541560Y26029D01*
Y25828D01*
X541521Y25631D01*
Y22629D01*
X541560Y22432D01*
Y22231D01*
X542146Y19287D01*
X542223Y19101D01*
X542262Y18904D01*
X543410Y16131D01*
X543522Y15964D01*
X543599Y15778D01*
X545267Y13282D01*
X545409Y13140D01*
X545520Y12973D01*
X547643Y10850D01*
X547810Y10739D01*
X547952Y10597D01*
X550448Y8929D01*
X550634Y8852D01*
X550801Y8741D01*
X553574Y7592D01*
X553771Y7552D01*
X553957Y7476D01*
X556901Y6890D01*
X557102D01*
X557299Y6851D01*
X558800Y6851D01*
X560301D01*
X560498Y6890D01*
X560699D01*
X563643Y7476D01*
X563829Y7552D01*
X564026Y7592D01*
X566799Y8741D01*
X566966Y8852D01*
X567152Y8929D01*
X569648Y10597D01*
X569790Y10739D01*
X569957Y10850D01*
X572080Y12973D01*
X572191Y13140D01*
X572333Y13282D01*
X574001Y15778D01*
X574078Y15964D01*
X574189Y16131D01*
X575338Y18904D01*
X575378Y19101D01*
X575454Y19287D01*
X576040Y22231D01*
Y22432D01*
X576079Y22629D01*
Y25631D01*
X576040Y25828D01*
Y26029D01*
X575454Y28973D01*
X575378Y29159D01*
X575338Y29356D01*
X574189Y32129D01*
X574078Y32296D01*
X574001Y32482D01*
X572333Y34978D01*
X572191Y35120D01*
X572080Y35287D01*
X569957Y37410D01*
X569790Y37521D01*
X569648Y37663D01*
X567152Y39331D01*
X566966Y39408D01*
X566799Y39520D01*
X564026Y40668D01*
X563829Y40708D01*
X563643Y40784D01*
X560699Y41370D01*
X560498D01*
X560301Y41409D01*
D02*
G37*
%LPD*%
D149*
X225750Y49280D02*
D03*
X167950D02*
D03*
D150*
X240050Y54280D02*
D03*
X153650D02*
D03*
D151*
X240050Y12480D02*
D03*
X153650D02*
D03*
D169*
X44550Y653221D02*
D03*
X44550Y721221D02*
D03*
D170*
X571500Y723900D02*
D03*
Y749300D02*
D03*
Y774700D02*
D03*
Y800100D02*
D03*
Y825500D02*
D03*
Y850900D02*
D03*
Y876300D02*
D03*
Y901700D02*
D03*
Y927100D02*
D03*
Y952500D02*
D03*
Y977900D02*
D03*
Y1003300D02*
D03*
X12700Y774700D02*
D03*
Y800100D02*
D03*
Y825500D02*
D03*
Y850900D02*
D03*
Y876300D02*
D03*
Y901700D02*
D03*
Y927100D02*
D03*
Y952500D02*
D03*
Y977900D02*
D03*
Y1003300D02*
D03*
X431800Y25400D02*
D03*
X406400D02*
D03*
X571500Y520700D02*
D03*
Y495300D02*
D03*
Y469900D02*
D03*
Y444500D02*
D03*
Y419100D02*
D03*
Y393700D02*
D03*
Y368300D02*
D03*
Y342900D02*
D03*
Y317500D02*
D03*
Y292100D02*
D03*
Y266700D02*
D03*
Y241300D02*
D03*
D171*
X558800Y1054100D02*
D03*
X25400Y25400D02*
D03*
X558800Y24130D02*
D03*
X25400Y1054100D02*
D03*
D172*
X259472Y950027D02*
D03*
X263652Y937006D02*
D03*
X299720Y1009650D02*
D03*
X286277Y999204D02*
D03*
X327192Y949941D02*
D03*
X314592D02*
D03*
X301992D02*
D03*
X302210Y936868D02*
D03*
X314810D02*
D03*
X327410D02*
D03*
X252868Y937073D02*
D03*
X240268D02*
D03*
X237236Y950214D02*
D03*
X247914Y950147D02*
D03*
D173*
X126296Y187561D02*
D03*
X93154Y184144D02*
D03*
X121341Y168039D02*
D03*
X241497Y209072D02*
D03*
X215892Y192869D02*
D03*
X128940Y168039D02*
D03*
X173518Y171457D02*
D03*
X101028Y184144D02*
D03*
X203617Y175182D02*
D03*
X173518Y184144D02*
D03*
X218007Y180054D02*
D03*
X224960Y183124D02*
D03*
X244307Y195113D02*
D03*
X255800Y205049D02*
D03*
X235551Y204338D02*
D03*
X201596Y187738D02*
D03*
X148701Y184144D02*
D03*
X256907Y234427D02*
D03*
X250210Y199900D02*
D03*
X264639Y217358D02*
D03*
X181113Y184287D02*
D03*
X141101Y184144D02*
D03*
X229280Y200045D02*
D03*
X269309Y231775D02*
D03*
X208845Y190024D02*
D03*
X181113Y171713D02*
D03*
X231701Y186633D02*
D03*
X66656Y184144D02*
D03*
X222715Y196216D02*
D03*
X113741Y168039D02*
D03*
X165918Y184144D02*
D03*
X247087Y214220D02*
D03*
X210884Y177404D02*
D03*
X238130Y190686D02*
D03*
X267530Y224386D02*
D03*
X255108Y227043D02*
D03*
X118697Y187438D02*
D03*
X85554Y184144D02*
D03*
X165918Y171457D02*
D03*
X85640D02*
D03*
X135729D02*
D03*
X133650Y185643D02*
D03*
X251741Y220229D02*
D03*
X66656Y171457D02*
D03*
X260703Y210856D02*
D03*
X451325Y186517D02*
D03*
X348651Y196324D02*
D03*
X474053Y187561D02*
D03*
X357602Y205399D02*
D03*
X346220Y215457D02*
D03*
X332510Y212326D02*
D03*
X336350Y235679D02*
D03*
X496037Y184144D02*
D03*
X354747Y191786D02*
D03*
X338279Y228327D02*
D03*
X351719Y210212D02*
D03*
X374730Y180874D02*
D03*
X458853Y187561D02*
D03*
X342825Y201205D02*
D03*
X337310Y206433D02*
D03*
X471284Y168039D02*
D03*
X436508Y184331D02*
D03*
X488439D02*
D03*
X396428Y174003D02*
D03*
X456088Y168039D02*
D03*
X403909Y172664D02*
D03*
X463686Y168215D02*
D03*
X389036Y175772D02*
D03*
X466453Y187561D02*
D03*
X480841Y184144D02*
D03*
X361157Y187703D02*
D03*
X515940Y171457D02*
D03*
X406159Y185126D02*
D03*
X444105Y184144D02*
D03*
X398677Y186461D02*
D03*
X391308Y188319D02*
D03*
X328627Y218859D02*
D03*
X413716Y184319D02*
D03*
X518686Y184144D02*
D03*
X384087Y190689D02*
D03*
X419047Y171425D02*
D03*
X426647Y171385D02*
D03*
X511177Y185312D02*
D03*
X428912Y184072D02*
D03*
X503581Y185065D02*
D03*
X500380Y170434D02*
D03*
X421312Y184072D02*
D03*
X325747Y225893D02*
D03*
X370306Y197072D02*
D03*
X411455Y171757D02*
D03*
X367845Y184093D02*
D03*
X449300Y171457D02*
D03*
X381788Y178057D02*
D03*
X363807Y201012D02*
D03*
X341599Y221491D02*
D03*
X323932Y233272D02*
D03*
X478559Y170239D02*
D03*
X377066Y193598D02*
D03*
D175*
X107696Y134874D02*
D03*
X99314Y59944D02*
D03*
X90170Y59436D02*
D03*
X278384Y24130D02*
D03*
X141478Y61468D02*
D03*
X199076Y71120D02*
D03*
X166000Y117747D02*
D03*
X170737Y122430D02*
D03*
X185353Y72390D02*
D03*
X205740D02*
D03*
D176*
X142748Y637540D02*
D03*
X143002Y137922D02*
D03*
X328868Y905469D02*
D03*
X347374Y1041761D02*
D03*
X44196Y64516D02*
D03*
Y83820D02*
D03*
X46344Y92036D02*
D03*
X44196Y74168D02*
D03*
X99822Y45212D02*
D03*
X99568Y23114D02*
D03*
X99822Y38100D02*
D03*
X92964Y111506D02*
D03*
X99568Y118110D02*
D03*
X98806Y106426D02*
D03*
X110744Y106934D02*
D03*
X92964Y118110D02*
D03*
X98806Y99314D02*
D03*
X53074Y32766D02*
D03*
X89550Y132476D02*
D03*
X155956Y77216D02*
D03*
X149352Y73914D02*
D03*
X96774Y138684D02*
D03*
X39116Y44630D02*
D03*
X45720Y41148D02*
D03*
X52070Y43688D02*
D03*
X41402Y98806D02*
D03*
X128270Y783590D02*
D03*
X57912Y536194D02*
D03*
X532130Y87359D02*
D03*
X433898Y201889D02*
D03*
X419100Y212090D02*
D03*
X499110Y209804D02*
D03*
X439166Y210820D02*
D03*
X486503Y213834D02*
D03*
X444246Y234950D02*
D03*
X497586Y242570D02*
D03*
X469646Y259080D02*
D03*
Y271780D02*
D03*
X406146Y256794D02*
D03*
X469646Y283210D02*
D03*
X483616Y292100D02*
D03*
X503936Y306070D02*
D03*
X417830Y323850D02*
D03*
X501674Y321964D02*
D03*
X496316Y330200D02*
D03*
X415290Y337820D02*
D03*
X509016Y243840D02*
D03*
X509270Y328168D02*
D03*
X474726Y365760D02*
D03*
X468376Y374650D02*
D03*
X484450Y376348D02*
D03*
X416814Y362458D02*
D03*
X145034Y160274D02*
D03*
X134874Y160528D02*
D03*
X430421Y45466D02*
D03*
X439420Y115824D02*
D03*
X364490Y111760D02*
D03*
X357124D02*
D03*
X156130Y593598D02*
D03*
X72644Y602996D02*
D03*
X225552Y71882D02*
D03*
X311404Y202184D02*
D03*
X215900Y165100D02*
D03*
X192786Y120650D02*
D03*
X199898D02*
D03*
X210820Y114300D02*
D03*
X167640Y154686D02*
D03*
X176530Y157480D02*
D03*
X176276Y146558D02*
D03*
X429260Y142494D02*
D03*
X49022Y282448D02*
D03*
X120904Y284480D02*
D03*
X119126Y689610D02*
D03*
X154686Y559562D02*
D03*
X155702Y548386D02*
D03*
X301752Y502920D02*
D03*
X240030Y796290D02*
D03*
X360172Y1004824D02*
D03*
X359918Y1028954D02*
D03*
X370838Y1052195D02*
D03*
X419100Y124460D02*
D03*
X65532Y576834D02*
D03*
X107442Y148844D02*
D03*
X127000Y25146D02*
D03*
X79756Y24892D02*
D03*
X118618Y25146D02*
D03*
X71882Y24638D02*
D03*
X136652Y23368D02*
D03*
X61456Y26162D02*
D03*
X146558Y32766D02*
D03*
X136652Y101346D02*
D03*
Y93980D02*
D03*
Y86614D02*
D03*
Y79248D02*
D03*
Y71882D02*
D03*
X139337Y9144D02*
D03*
X61359Y10160D02*
D03*
X107696Y22606D02*
D03*
X99568Y9652D02*
D03*
Y16256D02*
D03*
X90170Y22352D02*
D03*
X164338Y71120D02*
D03*
X60325Y668020D02*
D03*
X110998Y511048D02*
D03*
X306050Y1054100D02*
D03*
Y1041400D02*
D03*
Y1028700D02*
D03*
X278150Y1054100D02*
D03*
Y1041400D02*
D03*
Y1028700D02*
D03*
X348245Y167760D02*
D03*
X60325Y693420D02*
D03*
X398780Y514350D02*
D03*
X134089Y705766D02*
D03*
X145524Y683867D02*
D03*
X198120Y683260D02*
D03*
X207010D02*
D03*
X261620Y92710D02*
D03*
X262890Y73660D02*
D03*
X269240Y85090D02*
D03*
Y77470D02*
D03*
Y92710D02*
D03*
X426720Y571500D02*
D03*
X391160Y106204D02*
D03*
X485140Y109220D02*
D03*
X285750Y501650D02*
D03*
X274955D02*
D03*
X70076Y995467D02*
D03*
X76835Y668020D02*
D03*
Y718820D02*
D03*
X60325D02*
D03*
X76835Y693420D02*
D03*
X118110Y706120D02*
D03*
X425450Y539750D02*
D03*
X74930Y869950D02*
D03*
X83375Y880512D02*
D03*
X499885Y769620D02*
D03*
X515620Y826516D02*
D03*
X398780Y633730D02*
D03*
X444500Y695960D02*
D03*
X317500Y1009650D02*
D03*
X285728Y137137D02*
D03*
X189738Y146050D02*
D03*
X247650Y135890D02*
D03*
X232410Y133350D02*
D03*
X463695Y57150D02*
D03*
X12845Y354330D02*
D03*
X294785Y217170D02*
D03*
X405275Y227330D02*
D03*
X431038Y195072D02*
D03*
X379875Y212090D02*
D03*
X404005Y198120D02*
D03*
X501795Y48260D02*
D03*
X505605Y67310D02*
D03*
X472585Y80010D02*
D03*
X429260Y115824D02*
D03*
X534815Y44450D02*
D03*
X575455Y45720D02*
D03*
X476395Y10160D02*
D03*
X482346Y24892D02*
D03*
X476395Y36830D02*
D03*
X443375Y52832D02*
D03*
Y62992D02*
D03*
Y73152D02*
D03*
Y83312D02*
D03*
X527195Y67310D02*
D03*
X528465Y100330D02*
D03*
X511955Y86360D02*
D03*
X572915Y121920D02*
D03*
X557530Y115570D02*
D03*
X541020Y121920D02*
D03*
X523240D02*
D03*
X282085Y219710D02*
D03*
X321455Y210820D02*
D03*
X10305Y48260D02*
D03*
X49675Y10160D02*
D03*
X31750Y115570D02*
D03*
X237635Y97790D02*
D03*
X8890D02*
D03*
X11430Y127000D02*
D03*
X41910Y115570D02*
D03*
X62230Y128270D02*
D03*
X217170Y147320D02*
D03*
X490474Y78740D02*
D03*
X572770Y92710D02*
D03*
X500380Y97790D02*
D03*
X521970Y322818D02*
D03*
X532130Y342900D02*
D03*
X535225Y317500D02*
D03*
X181610Y90170D02*
D03*
X269240Y43180D02*
D03*
X492760Y59690D02*
D03*
X441960Y142240D02*
D03*
X448903Y148622D02*
D03*
X250190Y172720D02*
D03*
X292572Y118618D02*
D03*
X209550Y373380D02*
D03*
X100330Y443230D02*
D03*
X40124Y304781D02*
D03*
X51528Y306274D02*
D03*
X304800Y133350D02*
D03*
Y99060D02*
D03*
X54864Y515874D02*
D03*
X78146Y548508D02*
D03*
X114300Y200660D02*
D03*
X139700D02*
D03*
X101600D02*
D03*
X127000D02*
D03*
X147955D02*
D03*
X86360Y834390D02*
D03*
X114300Y558800D02*
D03*
X104140Y750570D02*
D03*
X144780Y749300D02*
D03*
X86360Y811530D02*
D03*
X123190Y775970D02*
D03*
X419100Y514350D02*
D03*
X506730Y943610D02*
D03*
X506965Y933243D02*
D03*
X289747Y867725D02*
D03*
X298768Y865823D02*
D03*
X391160Y123190D02*
D03*
Y114300D02*
D03*
X474980Y162560D02*
D03*
X125730Y422910D02*
D03*
Y387350D02*
D03*
X19050Y97790D02*
D03*
X349250Y90170D02*
D03*
X358249Y129595D02*
D03*
X350629D02*
D03*
X353060Y83820D02*
D03*
X361950D02*
D03*
X358140Y90170D02*
D03*
X361950Y97790D02*
D03*
X353060D02*
D03*
X287020Y90170D02*
D03*
X279400D02*
D03*
X287020Y82550D02*
D03*
X279400D02*
D03*
X287020Y74930D02*
D03*
X279400D02*
D03*
X257810Y8890D02*
D03*
X250190Y6350D02*
D03*
X84328Y64262D02*
D03*
Y71628D02*
D03*
Y78994D02*
D03*
Y86360D02*
D03*
Y93726D02*
D03*
Y101092D02*
D03*
X360680Y27170D02*
D03*
X320040Y65270D02*
D03*
X360680Y19550D02*
D03*
X341630Y142240D02*
D03*
X308610Y48760D02*
D03*
X316230D02*
D03*
X320040Y57650D02*
D03*
X360680Y34790D02*
D03*
Y11930D02*
D03*
X356870Y142240D02*
D03*
X349250D02*
D03*
X295910Y103370D02*
D03*
X334010Y142240D02*
D03*
X485140Y572484D02*
D03*
X485264Y581481D02*
D03*
X171450Y718820D02*
D03*
X86360Y825500D02*
D03*
X49530Y528320D02*
D03*
X49710Y478598D02*
D03*
X121158Y473456D02*
D03*
X127478Y455452D02*
D03*
X55337Y491813D02*
D03*
X104140Y463550D02*
D03*
X457200Y535940D02*
D03*
X486410Y717550D02*
D03*
X476250Y711200D02*
D03*
X467838Y704058D02*
D03*
X486501Y701326D02*
D03*
X492284Y687070D02*
D03*
X512477Y716946D02*
D03*
X505460Y514350D02*
D03*
X548640Y509270D02*
D03*
X203200Y213360D02*
D03*
X412750Y429260D02*
D03*
X384434Y417830D02*
D03*
X391160Y642620D02*
D03*
X266774Y711274D02*
D03*
X410707Y665480D02*
D03*
X72073Y849630D02*
D03*
X462280Y998220D02*
D03*
X509044Y702569D02*
D03*
X506730Y687070D02*
D03*
X510094Y760730D02*
D03*
X509625Y733468D02*
D03*
X505460Y740410D02*
D03*
X430219Y690883D02*
D03*
X363220Y642312D02*
D03*
X516890Y662940D02*
D03*
X523566Y686643D02*
D03*
X369566Y655604D02*
D03*
X488950Y615725D02*
D03*
X391160Y589280D02*
D03*
X435610Y556260D02*
D03*
X527378Y546086D02*
D03*
X514064Y554320D02*
D03*
X127583Y981002D02*
D03*
X295703Y628814D02*
D03*
X355600Y637310D02*
D03*
X328930Y553720D02*
D03*
X66040Y900430D02*
D03*
X236220Y880110D02*
D03*
X418310Y616740D02*
D03*
X143510Y673100D02*
D03*
X156210Y648970D02*
D03*
X379730Y323850D02*
D03*
X211012Y323819D02*
D03*
X171450Y458470D02*
D03*
X77470Y842010D02*
D03*
X519430Y982726D02*
D03*
X510697Y988217D02*
D03*
X142240Y538480D02*
D03*
X208960Y309200D02*
D03*
X227330Y676910D02*
D03*
X231140Y683260D02*
D03*
X172363Y683140D02*
D03*
X463550Y615950D02*
D03*
X21590Y668020D02*
D03*
X35560Y693420D02*
D03*
X135890Y730250D02*
D03*
X461010Y660400D02*
D03*
X196850Y1019810D02*
D03*
X226060D02*
D03*
Y1040130D02*
D03*
X201930D02*
D03*
X209550Y480060D02*
D03*
X401320Y1028700D02*
D03*
X411480D02*
D03*
X394970Y1054100D02*
D03*
X148590Y510540D02*
D03*
X271780Y542290D02*
D03*
X298450Y580390D02*
D03*
X474980Y577850D02*
D03*
X477757Y548366D02*
D03*
X441753Y964545D02*
D03*
X420806Y943615D02*
D03*
X399864Y922683D02*
D03*
X378390Y902420D02*
D03*
X356450Y882822D02*
D03*
X240030Y910590D02*
D03*
X69850Y932180D02*
D03*
X77470Y915670D02*
D03*
X127000Y906748D02*
D03*
X177800D02*
D03*
X152400D02*
D03*
X407670Y999490D02*
D03*
X396240D02*
D03*
X462280Y1022350D02*
D03*
X523240D02*
D03*
X533400Y1014730D02*
D03*
X419100Y967740D02*
D03*
X397812Y946281D02*
D03*
X462280Y1055370D02*
D03*
X492760Y1032510D02*
D03*
X532130Y887730D02*
D03*
X452120Y997986D02*
D03*
X554736Y1003300D02*
D03*
X265430Y863600D02*
D03*
X236220Y835660D02*
D03*
Y847090D02*
D03*
X236616Y857125D02*
D03*
X383540Y435610D02*
D03*
X384810Y292100D02*
D03*
X524510Y866140D02*
D03*
Y857250D02*
D03*
X200133Y490248D02*
D03*
X68580Y618490D02*
D03*
X559228Y690540D02*
D03*
X242167Y680222D02*
D03*
X404837Y769969D02*
D03*
X394970D02*
D03*
X429260D02*
D03*
X440690D02*
D03*
X87630Y266700D02*
D03*
X96520D02*
D03*
X12700Y269240D02*
D03*
X60582Y281840D02*
D03*
X74930Y359410D02*
D03*
X483870Y602901D02*
D03*
X492121Y603754D02*
D03*
X539750Y330200D02*
D03*
X386080Y486410D02*
D03*
X412750Y482600D02*
D03*
X458470Y576580D02*
D03*
X443230Y579120D02*
D03*
X355918Y658177D02*
D03*
X209550Y339090D02*
D03*
X516125Y607695D02*
D03*
X461328Y649287D02*
D03*
X253627Y733905D02*
D03*
X234315Y734060D02*
D03*
X360045Y1052195D02*
D03*
X526415Y663390D02*
D03*
X368300Y704850D02*
D03*
X191770Y800735D02*
D03*
X292735Y789940D02*
D03*
X283210Y789305D02*
D03*
X508317Y887412D02*
D03*
X529590Y570230D02*
D03*
X525780Y577850D02*
D03*
X300228Y671322D02*
D03*
X293116D02*
D03*
X119380Y495300D02*
D03*
X102616Y475996D02*
D03*
X162560Y756920D02*
D03*
X476250Y720090D02*
D03*
X441960Y744220D02*
D03*
X491490Y745490D02*
D03*
X502920Y791210D02*
D03*
X189230Y596900D02*
D03*
X110490Y684530D02*
D03*
X132080Y748030D02*
D03*
X63500Y635000D02*
D03*
X59690Y590550D02*
D03*
X38354Y541528D02*
D03*
X90170Y655320D02*
D03*
X55880Y774700D02*
D03*
X10160Y671830D02*
D03*
X41910Y867410D02*
D03*
X20955Y812800D02*
D03*
Y787400D02*
D03*
X192405Y579120D02*
D03*
X296545Y285750D02*
D03*
X338455Y278765D02*
D03*
X275590Y444500D02*
D03*
X488315Y633095D02*
D03*
X465455D02*
D03*
X281940Y681990D02*
D03*
X515620Y1033780D02*
D03*
X482600Y1054100D02*
D03*
X185420Y673100D02*
D03*
X461010Y770255D02*
D03*
X380365D02*
D03*
X359410D02*
D03*
X322580Y777240D02*
D03*
X292100D02*
D03*
X190500Y647700D02*
D03*
X110490Y535940D02*
D03*
X35560Y480060D02*
D03*
X12700Y571500D02*
D03*
X445770Y1026160D02*
D03*
X381000Y1028700D02*
D03*
Y1054100D02*
D03*
X431800D02*
D03*
X429260Y1026160D02*
D03*
X391160Y1028700D02*
D03*
X406400Y1054100D02*
D03*
X38100Y254000D02*
D03*
X275590Y266700D02*
D03*
X338455Y266065D02*
D03*
X275590Y284480D02*
D03*
X101600Y292100D02*
D03*
X114300Y325120D02*
D03*
X147320Y349885D02*
D03*
X165100D02*
D03*
X180340Y392430D02*
D03*
X176530Y417830D02*
D03*
X177800Y469900D02*
D03*
X508000Y431800D02*
D03*
Y457200D02*
D03*
X399288Y339344D02*
D03*
X166370Y364490D02*
D03*
X469900Y419100D02*
D03*
X63500Y355600D02*
D03*
X20320Y762000D02*
D03*
X372110Y671830D02*
D03*
X93980Y798830D02*
D03*
X134620Y615950D02*
D03*
X125476Y626872D02*
D03*
X194310Y725170D02*
D03*
Y711200D02*
D03*
X12700Y718820D02*
D03*
Y635000D02*
D03*
X57150Y735330D02*
D03*
X70485Y706120D02*
D03*
Y680720D02*
D03*
X71120Y655320D02*
D03*
X190500Y562610D02*
D03*
X541020Y558800D02*
D03*
X547370Y542290D02*
D03*
X339090Y1045210D02*
D03*
X344170Y1069340D02*
D03*
Y1056640D02*
D03*
X528983Y704617D02*
D03*
X520700Y12700D02*
D03*
Y38100D02*
D03*
X240030Y1066800D02*
D03*
X215900D02*
D03*
X190500D02*
D03*
X317500Y444500D02*
D03*
X330200Y431800D02*
D03*
Y304800D02*
D03*
X321310Y193040D02*
D03*
X337820Y168910D02*
D03*
X86614Y158750D02*
D03*
X417068Y164084D02*
D03*
X323850Y168910D02*
D03*
X50800Y228600D02*
D03*
X38100Y219900D02*
D03*
Y191500D02*
D03*
Y164100D02*
D03*
Y135700D02*
D03*
X147955Y215900D02*
D03*
X236220Y173990D02*
D03*
X166370Y293370D02*
D03*
X179070Y292100D02*
D03*
X330200Y977900D02*
D03*
Y988060D02*
D03*
X228600Y981075D02*
D03*
X279400Y863600D02*
D03*
X177800Y241300D02*
D03*
X165100Y228600D02*
D03*
X177800D02*
D03*
Y213360D02*
D03*
X479425Y749300D02*
D03*
X471170Y742950D02*
D03*
X462280Y720090D02*
D03*
X457200Y749300D02*
D03*
X431800D02*
D03*
X425450Y723900D02*
D03*
X406400D02*
D03*
X289560Y731520D02*
D03*
Y697230D02*
D03*
X335280Y748030D02*
D03*
X351790Y688340D02*
D03*
X313055Y760730D02*
D03*
X114300Y635000D02*
D03*
X167005Y322580D02*
D03*
X375920Y228600D02*
D03*
X406400Y163830D02*
D03*
X103632Y158496D02*
D03*
X167386Y163322D02*
D03*
X539750Y252730D02*
D03*
Y279400D02*
D03*
X537210Y354330D02*
D03*
X558800Y254000D02*
D03*
Y279400D02*
D03*
Y304800D02*
D03*
Y330200D02*
D03*
X557530Y354330D02*
D03*
X558800Y381000D02*
D03*
X538734Y408940D02*
D03*
X558800Y431800D02*
D03*
X558165Y457200D02*
D03*
X558800Y482600D02*
D03*
Y508000D02*
D03*
X561340Y541020D02*
D03*
X508000Y482600D02*
D03*
X490220Y407670D02*
D03*
X495300Y419100D02*
D03*
X500380Y524510D02*
D03*
X463550Y468630D02*
D03*
X416560Y494030D02*
D03*
X426720Y659130D02*
D03*
X424180Y650240D02*
D03*
X488950Y660400D02*
D03*
X426720Y604520D02*
D03*
X375920Y615950D02*
D03*
X407670Y652780D02*
D03*
X375920Y631190D02*
D03*
X361950Y619760D02*
D03*
X394970Y717550D02*
D03*
Y697230D02*
D03*
X364490Y685800D02*
D03*
X355600Y673100D02*
D03*
X358140Y697230D02*
D03*
X381000Y688340D02*
D03*
X406400Y749300D02*
D03*
X381000Y723900D02*
D03*
X355600D02*
D03*
X381000Y749300D02*
D03*
X355600D02*
D03*
X528320Y901700D02*
D03*
X508000Y960120D02*
D03*
X532765Y965200D02*
D03*
X527050Y944880D02*
D03*
X532130Y935990D02*
D03*
X533400Y863600D02*
D03*
Y787400D02*
D03*
X528320Y808990D02*
D03*
X509270Y838200D02*
D03*
X528320Y831850D02*
D03*
X560705Y698500D02*
D03*
X537210Y762000D02*
D03*
X533400Y736600D02*
D03*
X560705Y711200D02*
D03*
X558800Y762000D02*
D03*
Y812800D02*
D03*
Y965200D02*
D03*
Y939800D02*
D03*
Y914400D02*
D03*
Y889000D02*
D03*
Y863600D02*
D03*
Y736600D02*
D03*
Y787400D02*
D03*
Y838200D02*
D03*
X570865Y1022350D02*
D03*
X546100Y1026160D02*
D03*
X530860Y1042670D02*
D03*
X466090Y1069340D02*
D03*
X514350Y1054100D02*
D03*
X523240Y1069340D02*
D03*
X419735Y881380D02*
D03*
X461852Y923876D02*
D03*
X441488Y903475D02*
D03*
X494030Y966470D02*
D03*
X463550Y797560D02*
D03*
X480695Y798195D02*
D03*
X479953Y820341D02*
D03*
X480508Y924774D02*
D03*
X481096Y903509D02*
D03*
X481829Y884004D02*
D03*
X357505Y819150D02*
D03*
X356544Y841421D02*
D03*
X356679Y861881D02*
D03*
X356235Y798830D02*
D03*
X419174Y798617D02*
D03*
X398215D02*
D03*
X377415Y798933D02*
D03*
X377148Y819962D02*
D03*
X398098Y819867D02*
D03*
X419095Y820152D02*
D03*
X440139Y819962D02*
D03*
X461067Y840994D02*
D03*
X440180Y840766D02*
D03*
X419100Y840740D02*
D03*
X398780D02*
D03*
X379110Y839938D02*
D03*
X377117Y861835D02*
D03*
X398145Y862330D02*
D03*
X419100Y861695D02*
D03*
X439876Y862033D02*
D03*
X461010Y861695D02*
D03*
X440067Y882906D02*
D03*
X461043Y882943D02*
D03*
X461010Y904240D02*
D03*
X419100Y924560D02*
D03*
X398245Y903755D02*
D03*
X377102Y883057D02*
D03*
X398153Y883095D02*
D03*
X418465Y904240D02*
D03*
X440055Y925195D02*
D03*
Y945515D02*
D03*
X482600Y966470D02*
D03*
X481180Y946165D02*
D03*
X461092Y946165D02*
D03*
X461010Y965835D02*
D03*
X398235Y967461D02*
D03*
X377074Y925086D02*
D03*
X377190Y945515D02*
D03*
X356870Y946150D02*
D03*
X377190Y967740D02*
D03*
X497205Y781050D02*
D03*
X495300Y800100D02*
D03*
X342900Y787400D02*
D03*
Y800100D02*
D03*
X356870Y995680D02*
D03*
X356839Y925162D02*
D03*
X355600Y966470D02*
D03*
X317500Y800100D02*
D03*
X328930Y862330D02*
D03*
X330200Y838200D02*
D03*
Y812800D02*
D03*
X304800Y800100D02*
D03*
Y812800D02*
D03*
X252730Y871220D02*
D03*
X266700Y901700D02*
D03*
X304800Y882650D02*
D03*
X279400D02*
D03*
X72390Y965200D02*
D03*
X177800Y952500D02*
D03*
X152400D02*
D03*
X127000D02*
D03*
X177800Y927100D02*
D03*
X152400D02*
D03*
X127000D02*
D03*
Y876300D02*
D03*
X152400D02*
D03*
X177800D02*
D03*
X203200D02*
D03*
X190500Y863600D02*
D03*
X165100D02*
D03*
X139700D02*
D03*
X127000Y850900D02*
D03*
X152400D02*
D03*
X177800D02*
D03*
X203200D02*
D03*
X190500Y838200D02*
D03*
X165100D02*
D03*
X139700D02*
D03*
X127000Y825500D02*
D03*
X152400D02*
D03*
X177800D02*
D03*
X203200D02*
D03*
X190500Y812800D02*
D03*
X165100D02*
D03*
X139700D02*
D03*
X321310Y727710D02*
D03*
X223520Y736600D02*
D03*
X194310D02*
D03*
X249555Y676910D02*
D03*
Y663575D02*
D03*
X266700Y609600D02*
D03*
X342900D02*
D03*
X317500D02*
D03*
X292100D02*
D03*
X396240Y580390D02*
D03*
X393700Y495300D02*
D03*
X424180Y506730D02*
D03*
X469900Y444500D02*
D03*
X419100Y584200D02*
D03*
Y561340D02*
D03*
X394970Y558800D02*
D03*
X363220Y581660D02*
D03*
X363855Y558800D02*
D03*
X302260Y546100D02*
D03*
X227965Y584200D02*
D03*
X241300D02*
D03*
Y558800D02*
D03*
X215900Y556260D02*
D03*
X393700Y393700D02*
D03*
X425450Y492760D02*
D03*
X393700Y477520D02*
D03*
X425450Y478790D02*
D03*
X444500Y419100D02*
D03*
X393700Y455930D02*
D03*
X425450Y454660D02*
D03*
X424180Y416560D02*
D03*
X392430Y419100D02*
D03*
X393700Y368300D02*
D03*
Y346710D02*
D03*
X387350Y509270D02*
D03*
X393700Y539750D02*
D03*
X368300Y508000D02*
D03*
Y539750D02*
D03*
X342900D02*
D03*
X292100D02*
D03*
X342900Y508000D02*
D03*
X322580Y504190D02*
D03*
X332740Y516890D02*
D03*
X241300Y504190D02*
D03*
X264160D02*
D03*
X260350Y539750D02*
D03*
X241300D02*
D03*
X215900D02*
D03*
X41910Y788670D02*
D03*
X86360Y706120D02*
D03*
X209550Y469900D02*
D03*
X208280Y447040D02*
D03*
X208915Y494030D02*
D03*
X254635Y462915D02*
D03*
X275590D02*
D03*
X338455D02*
D03*
X317500D02*
D03*
X296545D02*
D03*
X266700Y431800D02*
D03*
X330200Y419100D02*
D03*
X304800D02*
D03*
X279400D02*
D03*
X254000D02*
D03*
X266700Y406400D02*
D03*
X292100D02*
D03*
X317500D02*
D03*
X349250Y412115D02*
D03*
X330200Y393700D02*
D03*
X304800D02*
D03*
X279400D02*
D03*
X254000D02*
D03*
X241300Y381000D02*
D03*
X266700D02*
D03*
X292100D02*
D03*
X317500D02*
D03*
X342900D02*
D03*
X330200Y368300D02*
D03*
X304800Y367030D02*
D03*
X279400D02*
D03*
X254000D02*
D03*
X241300Y355600D02*
D03*
X266700D02*
D03*
X292100D02*
D03*
X317500D02*
D03*
X342900D02*
D03*
X317500Y278765D02*
D03*
Y266065D02*
D03*
X368300Y241300D02*
D03*
X228600Y228600D02*
D03*
X292100D02*
D03*
X311150D02*
D03*
X254000Y266700D02*
D03*
X339090Y330200D02*
D03*
X330200Y317500D02*
D03*
X304800D02*
D03*
X279400D02*
D03*
X254000D02*
D03*
Y285115D02*
D03*
X266700Y304800D02*
D03*
X317500Y330200D02*
D03*
X292100D02*
D03*
X266700D02*
D03*
X255270D02*
D03*
X203200Y965200D02*
D03*
X228600D02*
D03*
X334200Y1054100D02*
D03*
X334264Y1040638D02*
D03*
X330200Y1016000D02*
D03*
X250000D02*
D03*
Y1054100D02*
D03*
Y1041400D02*
D03*
Y1028700D02*
D03*
X330200Y914400D02*
D03*
X304800D02*
D03*
X279400D02*
D03*
X254000D02*
D03*
X203200Y927100D02*
D03*
Y939800D02*
D03*
Y952500D02*
D03*
X241300Y965200D02*
D03*
X266700Y1016000D02*
D03*
X86360D02*
D03*
Y1041400D02*
D03*
X115570D02*
D03*
X165100Y1066800D02*
D03*
X38100Y1016000D02*
D03*
X63500D02*
D03*
Y1041400D02*
D03*
X88900Y1066800D02*
D03*
X139700D02*
D03*
X241300Y990600D02*
D03*
X215900Y965200D02*
D03*
Y990600D02*
D03*
X50800Y889000D02*
D03*
Y965200D02*
D03*
X25400Y863600D02*
D03*
X50800Y914400D02*
D03*
X25400D02*
D03*
Y965200D02*
D03*
X39370Y839470D02*
D03*
X139700Y1041400D02*
D03*
X165100D02*
D03*
X116840Y1016000D02*
D03*
X165100D02*
D03*
Y990600D02*
D03*
X114300Y965200D02*
D03*
X139700D02*
D03*
X165100D02*
D03*
X190500D02*
D03*
Y939800D02*
D03*
X165100D02*
D03*
X139700D02*
D03*
X190500Y914400D02*
D03*
X165100D02*
D03*
X139700D02*
D03*
X114300Y797560D02*
D03*
X34290Y819150D02*
D03*
X55880Y797560D02*
D03*
X64770Y786130D02*
D03*
X110744Y655574D02*
D03*
X139700Y717550D02*
D03*
X119380Y734060D02*
D03*
X139700Y741045D02*
D03*
X88900Y685800D02*
D03*
X173990Y660400D02*
D03*
X189230Y571500D02*
D03*
X101600Y617220D02*
D03*
X41910Y635000D02*
D03*
X88900D02*
D03*
X114300Y617220D02*
D03*
X90170Y615950D02*
D03*
X40640Y590550D02*
D03*
X33020Y532130D02*
D03*
X100330Y535940D02*
D03*
X181610Y509270D02*
D03*
X176530Y480060D02*
D03*
X72390Y469900D02*
D03*
X12700Y553720D02*
D03*
Y457200D02*
D03*
X171450Y410210D02*
D03*
X208280Y458470D02*
D03*
X212090Y436880D02*
D03*
X165735Y482600D02*
D03*
X99060Y485140D02*
D03*
X165100Y431800D02*
D03*
Y381000D02*
D03*
X118110Y430530D02*
D03*
X95250Y453390D02*
D03*
X38100Y457200D02*
D03*
X63500Y431800D02*
D03*
X38100D02*
D03*
X12700D02*
D03*
Y406400D02*
D03*
X38100D02*
D03*
X63500D02*
D03*
X147320Y412750D02*
D03*
X88900Y406400D02*
D03*
X74930Y419100D02*
D03*
X180340Y364490D02*
D03*
X208280D02*
D03*
X88900Y355600D02*
D03*
X114300Y381000D02*
D03*
X88900D02*
D03*
X63500D02*
D03*
X12700D02*
D03*
X38100D02*
D03*
Y355600D02*
D03*
X12700Y330200D02*
D03*
Y304800D02*
D03*
X208280Y351790D02*
D03*
X200660Y293370D02*
D03*
X209550D02*
D03*
X166370Y281940D02*
D03*
X127000Y266700D02*
D03*
X147955D02*
D03*
X147320Y285750D02*
D03*
X38100Y241300D02*
D03*
X12700Y279400D02*
D03*
X558800Y558800D02*
D03*
Y228600D02*
D03*
X379730Y303530D02*
D03*
X393700Y266065D02*
D03*
X392430Y242570D02*
D03*
X412750Y243840D02*
D03*
X520700Y241300D02*
D03*
X446278Y193802D02*
D03*
X393700Y213360D02*
D03*
X215900Y228600D02*
D03*
X546100Y135700D02*
D03*
X533400D02*
D03*
X520700Y152400D02*
D03*
Y203200D02*
D03*
X558800Y219900D02*
D03*
X546100D02*
D03*
X533400D02*
D03*
X520700D02*
D03*
X558800Y191800D02*
D03*
X546100D02*
D03*
X533400D02*
D03*
X558800Y163700D02*
D03*
X546100D02*
D03*
X533400D02*
D03*
X523240Y135700D02*
D03*
X495300Y160020D02*
D03*
X510540Y157480D02*
D03*
X260350Y196850D02*
D03*
X271780Y210820D02*
D03*
X250190Y184150D02*
D03*
X203200Y228600D02*
D03*
X215900Y241300D02*
D03*
X228600D02*
D03*
X203200D02*
D03*
X165100Y213360D02*
D03*
X127000Y215900D02*
D03*
X101600D02*
D03*
X12700Y229870D02*
D03*
X63500Y228600D02*
D03*
X38100D02*
D03*
X25400D02*
D03*
X139700Y215900D02*
D03*
X114300D02*
D03*
X88900D02*
D03*
X63500Y219900D02*
D03*
X224536Y171196D02*
D03*
X63500Y203200D02*
D03*
Y152400D02*
D03*
X50800Y219900D02*
D03*
X25400D02*
D03*
X50800Y135700D02*
D03*
X25400D02*
D03*
X50800Y164100D02*
D03*
X25400D02*
D03*
X50800Y191500D02*
D03*
X25400D02*
D03*
X190500Y990600D02*
D03*
X151130Y980440D02*
D03*
X558800Y135700D02*
D03*
X554990Y589280D02*
D03*
X547370D02*
D03*
X554990Y676910D02*
D03*
X546100D02*
D03*
X514985Y622935D02*
D03*
X549910Y552450D02*
D03*
X524510Y603250D02*
D03*
X515620Y651510D02*
D03*
X332740Y641350D02*
D03*
X313690D02*
D03*
Y660400D02*
D03*
X332740D02*
D03*
X288925Y753745D02*
D03*
X313690Y736600D02*
D03*
X334645Y729615D02*
D03*
X325120Y693420D02*
D03*
X63500Y139700D02*
D03*
X12700Y609600D02*
D03*
Y1021715D02*
D03*
X114300Y1066800D02*
D03*
X63500D02*
D03*
X303548Y630816D02*
D03*
X438150Y603885D02*
D03*
X534670Y662940D02*
D03*
Y603885D02*
D03*
X514985Y640080D02*
D03*
X488315Y649605D02*
D03*
X339090Y681990D02*
D03*
X383540Y998220D02*
D03*
X233680Y789940D02*
D03*
X309245Y838200D02*
D03*
M02*
