G04*
G04 #@! TF.GenerationSoftware,Altium Limited,Altium Designer,23.1.1 (15)*
G04*
G04 Layer_Color=8421504*
%FSLAX44Y44*%
%MOMM*%
G71*
G04*
G04 #@! TF.SameCoordinates,52DFFBC7-DF18-43FC-A01C-1C5016B87F82*
G04*
G04*
G04 #@! TF.FilePolarity,Positive*
G04*
G01*
G75*
%ADD20C,0.5334*%
%ADD21R,1.1001X1.1001*%
%ADD22R,1.5001X0.8001*%
%ADD23R,0.8001X1.5001*%
%ADD24R,1.1500X0.6000*%
%ADD25R,1.2000X0.4000*%
%ADD26R,1.0000X0.4000*%
%ADD27R,0.7000X0.7000*%
%ADD28R,1.4750X0.4500*%
%ADD29R,0.8500X0.3000*%
%ADD30R,0.6500X0.4500*%
%ADD31R,1.1032X2.0032*%
%ADD32R,0.6299X0.8301*%
%ADD33R,0.3000X0.8499*%
%ADD34R,0.8499X0.3000*%
%ADD35R,1.0000X0.7000*%
%ADD36R,0.6000X0.7000*%
%ADD37R,0.4100X0.3300*%
%ADD38R,0.7000X0.7000*%
%ADD39R,1.1501X0.7000*%
%ADD40R,0.7000X1.1501*%
%ADD41R,1.8001X0.8001*%
%ADD42R,0.7000X0.2500*%
%ADD43R,0.2500X0.7000*%
%ADD44R,0.2500X1.4000*%
%ADD45R,1.7000X4.1999*%
%ADD46R,1.0000X1.0000*%
%ADD47R,2.4000X1.1000*%
%ADD48R,1.4000X0.6200*%
G04:AMPARAMS|DCode=49|XSize=1mm|YSize=1mm|CornerRadius=0.15mm|HoleSize=0mm|Usage=FLASHONLY|Rotation=270.000|XOffset=0mm|YOffset=0mm|HoleType=Round|Shape=RoundedRectangle|*
%AMROUNDEDRECTD49*
21,1,1.0000,0.7000,0,0,270.0*
21,1,0.7000,1.0000,0,0,270.0*
1,1,0.3000,-0.3500,-0.3500*
1,1,0.3000,-0.3500,0.3500*
1,1,0.3000,0.3500,0.3500*
1,1,0.3000,0.3500,-0.3500*
%
%ADD49ROUNDEDRECTD49*%
%ADD50R,0.8001X1.5001*%
%ADD51R,0.7500X0.6000*%
%ADD52R,1.6000X0.5000*%
%ADD53R,2.0000X0.5000*%
%ADD54R,1.5000X0.7000*%
%ADD55R,1.9500X0.5000*%
%ADD56R,1.6000X3.4000*%
%ADD57R,1.0000X4.5999*%
%ADD58R,2.0000X1.1999*%
%ADD59R,1.3500X0.6000*%
%ADD60R,0.9000X0.7500*%
%ADD61R,0.4900X0.5200*%
%ADD62R,1.8200X1.1600*%
%ADD63R,0.6000X1.1500*%
%ADD64R,0.3000X1.1500*%
%ADD65R,0.3500X1.5001*%
%ADD66R,1.1500X1.1500*%
%ADD67R,1.6000X1.4001*%
%ADD68R,0.9500X2.8000*%
%ADD69R,1.1001X1.8999*%
%ADD70R,2.5603X2.5001*%
%ADD71R,2.8000X1.4000*%
%ADD72R,1.7000X0.9500*%
%ADD73R,0.7500X0.9000*%
%ADD74R,1.0000X2.8001*%
%ADD75R,1.1001X1.0000*%
%ADD76R,1.0000X1.1001*%
%ADD77R,0.6000X0.6000*%
%ADD78R,0.4500X0.6000*%
%ADD79R,0.6604X0.3556*%
G04:AMPARAMS|DCode=80|XSize=1mm|YSize=1mm|CornerRadius=0.15mm|HoleSize=0mm|Usage=FLASHONLY|Rotation=180.000|XOffset=0mm|YOffset=0mm|HoleType=Round|Shape=RoundedRectangle|*
%AMROUNDEDRECTD80*
21,1,1.0000,0.7000,0,0,180.0*
21,1,0.7000,1.0000,0,0,180.0*
1,1,0.3000,-0.3500,0.3500*
1,1,0.3000,0.3500,0.3500*
1,1,0.3000,0.3500,-0.3500*
1,1,0.3000,-0.3500,-0.3500*
%
%ADD80ROUNDEDRECTD80*%
%ADD81R,0.6000X0.6000*%
%ADD82R,0.6000X0.6000*%
%ADD83R,0.9500X1.7000*%
G36*
X146814Y1008251D02*
X122814D01*
X146814Y1032251D01*
Y1008251D01*
D02*
G37*
G36*
X110015Y1008050D02*
X93015D01*
Y1050051D01*
X110015D01*
Y1008050D01*
D02*
G37*
G36*
X233655Y950554D02*
X221656D01*
Y951555D01*
X212654D01*
Y957555D01*
X221656D01*
Y958555D01*
X233655D01*
Y950554D01*
D02*
G37*
G36*
X99654Y957555D02*
X108656D01*
Y951555D01*
X99654D01*
Y950554D01*
X87655D01*
Y958555D01*
X99654D01*
Y957555D01*
D02*
G37*
G36*
X233655Y939556D02*
X221656D01*
Y940554D01*
X212654D01*
Y946554D01*
X221656D01*
Y947555D01*
X233655D01*
Y939556D01*
D02*
G37*
G36*
X99654Y946554D02*
X108656D01*
Y940554D01*
X99654D01*
Y939556D01*
X87655D01*
Y947555D01*
X99654D01*
Y946554D01*
D02*
G37*
G36*
X233655Y928555D02*
X221656D01*
Y929556D01*
X212654D01*
Y935556D01*
X221656D01*
Y936554D01*
X233655D01*
Y928555D01*
D02*
G37*
G36*
X99654Y935556D02*
X108656D01*
Y929556D01*
X99654D01*
Y928555D01*
X87655D01*
Y936554D01*
X99654D01*
Y935556D01*
D02*
G37*
G36*
X233655Y917555D02*
X221656D01*
Y918555D01*
X212654D01*
Y924555D01*
X221656D01*
Y925556D01*
X233655D01*
Y917555D01*
D02*
G37*
G36*
X99654Y924555D02*
X108656D01*
Y918555D01*
X99654D01*
Y917555D01*
X87655D01*
Y925556D01*
X99654D01*
Y924555D01*
D02*
G37*
G36*
X233655Y906554D02*
X221656D01*
Y907555D01*
X212654D01*
Y913554D01*
X221656D01*
Y914555D01*
X233655D01*
Y906554D01*
D02*
G37*
G36*
X99654Y913554D02*
X108656D01*
Y907555D01*
X99654D01*
Y906554D01*
X87655D01*
Y914555D01*
X99654D01*
Y913554D01*
D02*
G37*
G36*
X233655Y876554D02*
X221656D01*
Y877555D01*
X212654D01*
Y883554D01*
X221656D01*
Y884555D01*
X233655D01*
Y876554D01*
D02*
G37*
G36*
X99654Y883554D02*
X108656D01*
Y877555D01*
X99654D01*
Y876554D01*
X87655D01*
Y884555D01*
X99654D01*
Y883554D01*
D02*
G37*
G36*
X233655Y865556D02*
X221656D01*
Y866554D01*
X212654D01*
Y872556D01*
X221656D01*
Y873554D01*
X233655D01*
Y865556D01*
D02*
G37*
G36*
X99654Y872556D02*
X108656D01*
Y866554D01*
X99654D01*
Y865556D01*
X87655D01*
Y873554D01*
X99654D01*
Y872556D01*
D02*
G37*
G36*
X233655Y854555D02*
X221656D01*
Y855556D01*
X212654D01*
Y861555D01*
X221656D01*
Y862556D01*
X233655D01*
Y854555D01*
D02*
G37*
G36*
X99654Y861555D02*
X108656D01*
Y855556D01*
X99654D01*
Y854555D01*
X87655D01*
Y862556D01*
X99654D01*
Y861555D01*
D02*
G37*
G36*
X233655Y843554D02*
X221656D01*
Y844555D01*
X212654D01*
Y850555D01*
X221656D01*
Y851555D01*
X233655D01*
Y843554D01*
D02*
G37*
G36*
X99654Y850555D02*
X108656D01*
Y844555D01*
X99654D01*
Y843554D01*
X87655D01*
Y851555D01*
X99654D01*
Y850555D01*
D02*
G37*
G36*
X233655Y832556D02*
X221656D01*
Y833554D01*
X212654D01*
Y839554D01*
X221656D01*
Y840555D01*
X233655D01*
Y832556D01*
D02*
G37*
G36*
X99654Y839554D02*
X108656D01*
Y833554D01*
X99654D01*
Y832556D01*
X87655D01*
Y840555D01*
X99654D01*
Y839554D01*
D02*
G37*
G36*
X233655Y821555D02*
X221656D01*
Y822556D01*
X212654D01*
Y828556D01*
X221656D01*
Y829554D01*
X233655D01*
Y821555D01*
D02*
G37*
G36*
X99654Y828556D02*
X108656D01*
Y822556D01*
X99654D01*
Y821555D01*
X87655D01*
Y829554D01*
X99654D01*
Y828556D01*
D02*
G37*
G36*
X233655Y810555D02*
X221656D01*
Y811555D01*
X212654D01*
Y817555D01*
X221656D01*
Y818556D01*
X233655D01*
Y810555D01*
D02*
G37*
G36*
X99654Y817555D02*
X108656D01*
Y811555D01*
X99654D01*
Y810555D01*
X87655D01*
Y818556D01*
X99654D01*
Y817555D01*
D02*
G37*
G36*
X336916Y667474D02*
X334515D01*
Y675274D01*
X336916D01*
Y667474D01*
D02*
G37*
G36*
X331914D02*
X329514D01*
Y675274D01*
X331914D01*
Y667474D01*
D02*
G37*
G36*
X326916D02*
X324515D01*
Y675274D01*
X326916D01*
Y667474D01*
D02*
G37*
G36*
X321914D02*
X319514D01*
Y675274D01*
X321914D01*
Y667474D01*
D02*
G37*
G36*
X316916D02*
X314515D01*
Y675274D01*
X316916D01*
Y667474D01*
D02*
G37*
G36*
X311915D02*
X309514D01*
Y675274D01*
X311915D01*
Y667474D01*
D02*
G37*
G36*
X347614Y662176D02*
X339814D01*
Y664576D01*
X347614D01*
Y662176D01*
D02*
G37*
G36*
X306616D02*
X298816D01*
Y664576D01*
X306616D01*
Y662176D01*
D02*
G37*
G36*
X347614Y657174D02*
X339814D01*
Y659575D01*
X347614D01*
Y657174D01*
D02*
G37*
G36*
X306616D02*
X298816D01*
Y659575D01*
X306616D01*
Y657174D01*
D02*
G37*
G36*
X333215Y653374D02*
X325714D01*
Y660875D01*
X333215D01*
Y653374D01*
D02*
G37*
G36*
X320716D02*
X313215D01*
Y660875D01*
X320716D01*
Y653374D01*
D02*
G37*
G36*
X347614Y652176D02*
X339814D01*
Y654576D01*
X347614D01*
Y652176D01*
D02*
G37*
G36*
X306616D02*
X298816D01*
Y654576D01*
X306616D01*
Y652176D01*
D02*
G37*
G36*
X347614Y647174D02*
X339814D01*
Y649575D01*
X347614D01*
Y647174D01*
D02*
G37*
G36*
X306616D02*
X298816D01*
Y649575D01*
X306616D01*
Y647174D01*
D02*
G37*
G36*
X347614Y642176D02*
X339814D01*
Y644576D01*
X347614D01*
Y642176D01*
D02*
G37*
G36*
X306616D02*
X298816D01*
Y644576D01*
X306616D01*
Y642176D01*
D02*
G37*
G36*
X333215Y640875D02*
X325714D01*
Y648376D01*
X333215D01*
Y640875D01*
D02*
G37*
G36*
X320716D02*
X313215D01*
Y648376D01*
X320716D01*
Y640875D01*
D02*
G37*
G36*
X347614Y637174D02*
X339814D01*
Y639575D01*
X347614D01*
Y637174D01*
D02*
G37*
G36*
X306616D02*
X298816D01*
Y639575D01*
X306616D01*
Y637174D01*
D02*
G37*
G36*
X336916Y626476D02*
X334515D01*
Y634276D01*
X336916D01*
Y626476D01*
D02*
G37*
G36*
X331914D02*
X329514D01*
Y634276D01*
X331914D01*
Y626476D01*
D02*
G37*
G36*
X326916D02*
X324515D01*
Y634276D01*
X326916D01*
Y626476D01*
D02*
G37*
G36*
X321914D02*
X319514D01*
Y634276D01*
X321914D01*
Y626476D01*
D02*
G37*
G36*
X316916D02*
X314515D01*
Y634276D01*
X316916D01*
Y626476D01*
D02*
G37*
G36*
X311915D02*
X309514D01*
Y634276D01*
X311915D01*
Y626476D01*
D02*
G37*
G36*
X355295Y481820D02*
X347795D01*
Y497319D01*
X355295D01*
Y481820D01*
D02*
G37*
G36*
X344295D02*
X336794D01*
Y497319D01*
X344295D01*
Y481820D01*
D02*
G37*
G36*
X333296D02*
X325796D01*
Y497319D01*
X333296D01*
Y481820D01*
D02*
G37*
G36*
X322295D02*
X314795D01*
Y497319D01*
X322295D01*
Y481820D01*
D02*
G37*
G36*
X311295D02*
X303794D01*
Y497319D01*
X311295D01*
Y481820D01*
D02*
G37*
G36*
X300294D02*
X292796D01*
Y497319D01*
X300294D01*
Y481820D01*
D02*
G37*
G36*
X289296D02*
X281795D01*
Y497319D01*
X289296D01*
Y481820D01*
D02*
G37*
G36*
X278295D02*
X270795D01*
Y497319D01*
X278295D01*
Y481820D01*
D02*
G37*
G36*
X267294D02*
X259794D01*
Y497319D01*
X267294D01*
Y481820D01*
D02*
G37*
G36*
X256296D02*
X248796D01*
Y497319D01*
X256296D01*
Y481820D01*
D02*
G37*
G36*
X245295D02*
X237795D01*
Y497319D01*
X245295D01*
Y481820D01*
D02*
G37*
G36*
X374294Y475821D02*
X358795D01*
Y483319D01*
X374294D01*
Y475821D01*
D02*
G37*
G36*
X234295D02*
X218796D01*
Y483319D01*
X234295D01*
Y475821D01*
D02*
G37*
G36*
X354294Y466819D02*
X343794D01*
Y477319D01*
X354294D01*
Y466819D01*
D02*
G37*
G36*
X333296D02*
X322796D01*
Y477319D01*
X333296D01*
Y466819D01*
D02*
G37*
G36*
X312295D02*
X301795D01*
Y477319D01*
X312295D01*
Y466819D01*
D02*
G37*
G36*
X291295D02*
X280795D01*
Y477319D01*
X291295D01*
Y466819D01*
D02*
G37*
G36*
X270294D02*
X259794D01*
Y477319D01*
X270294D01*
Y466819D01*
D02*
G37*
G36*
X249296D02*
X238796D01*
Y477319D01*
X249296D01*
Y466819D01*
D02*
G37*
G36*
X374294Y464820D02*
X358795D01*
Y472321D01*
X374294D01*
Y464820D01*
D02*
G37*
G36*
X234295D02*
X218796D01*
Y472321D01*
X234295D01*
Y464820D01*
D02*
G37*
G36*
X374294Y453819D02*
X358795D01*
Y461320D01*
X374294D01*
Y453819D01*
D02*
G37*
G36*
X234295D02*
X218796D01*
Y461320D01*
X234295D01*
Y453819D01*
D02*
G37*
G36*
X354294Y448820D02*
X343794D01*
Y459321D01*
X354294D01*
Y448820D01*
D02*
G37*
G36*
X333296D02*
X322796D01*
Y459321D01*
X333296D01*
Y448820D01*
D02*
G37*
G36*
X312295D02*
X301795D01*
Y459321D01*
X312295D01*
Y448820D01*
D02*
G37*
G36*
X291295D02*
X280795D01*
Y459321D01*
X291295D01*
Y448820D01*
D02*
G37*
G36*
X270294D02*
X259794D01*
Y459321D01*
X270294D01*
Y448820D01*
D02*
G37*
G36*
X249296D02*
X238796D01*
Y459321D01*
X249296D01*
Y448820D01*
D02*
G37*
G36*
X374294Y442821D02*
X358795D01*
Y450319D01*
X374294D01*
Y442821D01*
D02*
G37*
G36*
X234295D02*
X218796D01*
Y450319D01*
X234295D01*
Y442821D01*
D02*
G37*
G36*
X374294Y431820D02*
X358795D01*
Y439321D01*
X374294D01*
Y431820D01*
D02*
G37*
G36*
X234295D02*
X218796D01*
Y439321D01*
X234295D01*
Y431820D01*
D02*
G37*
G36*
X312295Y431320D02*
X301795D01*
Y441320D01*
X312295D01*
Y431320D01*
D02*
G37*
G36*
X291295D02*
X280795D01*
Y441320D01*
X291295D01*
Y431320D01*
D02*
G37*
G36*
X354294Y430820D02*
X343794D01*
Y441320D01*
X354294D01*
Y430820D01*
D02*
G37*
G36*
X249296D02*
X238796D01*
Y441320D01*
X249296D01*
Y430820D01*
D02*
G37*
G36*
X374294Y420820D02*
X358795D01*
Y428320D01*
X374294D01*
Y420820D01*
D02*
G37*
G36*
X234295D02*
X218796D01*
Y428320D01*
X234295D01*
Y420820D01*
D02*
G37*
G36*
X374294Y409819D02*
X358795D01*
Y417319D01*
X374294D01*
Y409819D01*
D02*
G37*
G36*
X234295D02*
X218796D01*
Y417319D01*
X234295D01*
Y409819D01*
D02*
G37*
G36*
X374294Y398821D02*
X358795D01*
Y406321D01*
X374294D01*
Y398821D01*
D02*
G37*
G36*
X234295D02*
X218796D01*
Y406321D01*
X234295D01*
Y398821D01*
D02*
G37*
G36*
X354294Y394820D02*
X343794D01*
Y405321D01*
X354294D01*
Y394820D01*
D02*
G37*
G36*
X249296D02*
X238796D01*
Y405321D01*
X249296D01*
Y394820D01*
D02*
G37*
G36*
X374294Y387820D02*
X358795D01*
Y395321D01*
X374294D01*
Y387820D01*
D02*
G37*
G36*
X234295D02*
X218796D01*
Y395321D01*
X234295D01*
Y387820D01*
D02*
G37*
G36*
X374294Y376819D02*
X358795D01*
Y384320D01*
X374294D01*
Y376819D01*
D02*
G37*
G36*
X234295D02*
X218796D01*
Y384320D01*
X234295D01*
Y376819D01*
D02*
G37*
G36*
X374294Y365821D02*
X358795D01*
Y373319D01*
X374294D01*
Y365821D01*
D02*
G37*
G36*
X234295D02*
X218796D01*
Y373319D01*
X234295D01*
Y365821D01*
D02*
G37*
G36*
X374294Y354820D02*
X358795D01*
Y362321D01*
X374294D01*
Y354820D01*
D02*
G37*
G36*
X234295D02*
X218796D01*
Y362321D01*
X234295D01*
Y354820D01*
D02*
G37*
G36*
X374294Y343820D02*
X358795D01*
Y351320D01*
X374294D01*
Y343820D01*
D02*
G37*
G36*
X234295D02*
X218796D01*
Y351320D01*
X234295D01*
Y343820D01*
D02*
G37*
G36*
X354294Y333820D02*
X343794D01*
Y344320D01*
X354294D01*
Y333820D01*
D02*
G37*
G36*
X249296D02*
X238796D01*
Y344320D01*
X249296D01*
Y333820D01*
D02*
G37*
G36*
X374294Y332819D02*
X358795D01*
Y340319D01*
X374294D01*
Y332819D01*
D02*
G37*
G36*
X234295D02*
X218796D01*
Y340319D01*
X234295D01*
Y332819D01*
D02*
G37*
G36*
X374294Y321820D02*
X358795D01*
Y329321D01*
X374294D01*
Y321820D01*
D02*
G37*
G36*
X234295D02*
X218796D01*
Y329321D01*
X234295D01*
Y321820D01*
D02*
G37*
G36*
X374294Y310820D02*
X358795D01*
Y318320D01*
X374294D01*
Y310820D01*
D02*
G37*
G36*
X234295D02*
X218796D01*
Y318320D01*
X234295D01*
Y310820D01*
D02*
G37*
G36*
X374294Y299819D02*
X358795D01*
Y307320D01*
X374294D01*
Y299819D01*
D02*
G37*
G36*
X234295D02*
X218796D01*
Y307320D01*
X234295D01*
Y299819D01*
D02*
G37*
G36*
X354294Y297820D02*
X343794D01*
Y308320D01*
X354294D01*
Y297820D01*
D02*
G37*
G36*
X312295D02*
X301795D01*
Y307820D01*
X312295D01*
Y297820D01*
D02*
G37*
G36*
X291295D02*
X280795D01*
Y307820D01*
X291295D01*
Y297820D01*
D02*
G37*
G36*
X249296D02*
X238796D01*
Y308320D01*
X249296D01*
Y297820D01*
D02*
G37*
G36*
X374294Y288821D02*
X358795D01*
Y296319D01*
X374294D01*
Y288821D01*
D02*
G37*
G36*
X234295D02*
X218796D01*
Y296319D01*
X234295D01*
Y288821D01*
D02*
G37*
G36*
X354294Y279819D02*
X343794D01*
Y290319D01*
X354294D01*
Y279819D01*
D02*
G37*
G36*
X333296D02*
X322796D01*
Y290319D01*
X333296D01*
Y279819D01*
D02*
G37*
G36*
X312295D02*
X301795D01*
Y290319D01*
X312295D01*
Y279819D01*
D02*
G37*
G36*
X291295D02*
X280795D01*
Y290319D01*
X291295D01*
Y279819D01*
D02*
G37*
G36*
X270294D02*
X259794D01*
Y290319D01*
X270294D01*
Y279819D01*
D02*
G37*
G36*
X249296D02*
X238796D01*
Y290319D01*
X249296D01*
Y279819D01*
D02*
G37*
G36*
X374294Y277820D02*
X358795D01*
Y285321D01*
X374294D01*
Y277820D01*
D02*
G37*
G36*
X234295D02*
X218796D01*
Y285321D01*
X234295D01*
Y277820D01*
D02*
G37*
G36*
X374294Y266819D02*
X358795D01*
Y274320D01*
X374294D01*
Y266819D01*
D02*
G37*
G36*
X234295D02*
X218796D01*
Y274320D01*
X234295D01*
Y266819D01*
D02*
G37*
G36*
X354294Y261821D02*
X343794D01*
Y272321D01*
X354294D01*
Y261821D01*
D02*
G37*
G36*
X333296D02*
X322796D01*
Y272321D01*
X333296D01*
Y261821D01*
D02*
G37*
G36*
X312295D02*
X301795D01*
Y272321D01*
X312295D01*
Y261821D01*
D02*
G37*
G36*
X291295D02*
X280795D01*
Y272321D01*
X291295D01*
Y261821D01*
D02*
G37*
G36*
X270294D02*
X259794D01*
Y272321D01*
X270294D01*
Y261821D01*
D02*
G37*
G36*
X249296D02*
X238796D01*
Y272321D01*
X249296D01*
Y261821D01*
D02*
G37*
G36*
X374294Y255821D02*
X358795D01*
Y263319D01*
X374294D01*
Y255821D01*
D02*
G37*
G36*
X234295D02*
X218796D01*
Y263319D01*
X234295D01*
Y255821D01*
D02*
G37*
G36*
X355295Y241821D02*
X347795D01*
Y257320D01*
X355295D01*
Y241821D01*
D02*
G37*
G36*
X344295D02*
X336794D01*
Y257320D01*
X344295D01*
Y241821D01*
D02*
G37*
G36*
X333296D02*
X325796D01*
Y257320D01*
X333296D01*
Y241821D01*
D02*
G37*
G36*
X322295D02*
X314795D01*
Y257320D01*
X322295D01*
Y241821D01*
D02*
G37*
G36*
X311295D02*
X303794D01*
Y257320D01*
X311295D01*
Y241821D01*
D02*
G37*
G36*
X300294D02*
X292796D01*
Y257320D01*
X300294D01*
Y241821D01*
D02*
G37*
G36*
X289296D02*
X281795D01*
Y257320D01*
X289296D01*
Y241821D01*
D02*
G37*
G36*
X278295D02*
X270795D01*
Y257320D01*
X278295D01*
Y241821D01*
D02*
G37*
G36*
X267294D02*
X259794D01*
Y257320D01*
X267294D01*
Y241821D01*
D02*
G37*
G36*
X256296D02*
X248796D01*
Y257320D01*
X256296D01*
Y241821D01*
D02*
G37*
G36*
X245295D02*
X237795D01*
Y257320D01*
X245295D01*
Y241821D01*
D02*
G37*
D20*
X156210Y59690D02*
G03*
X153670Y62230I-2540J0D01*
G01*
Y46228D02*
G03*
X156210Y48768I0J2540D01*
G01*
X153670Y62230D02*
G03*
X151130Y59690I0J-2540D01*
G01*
Y48768D02*
G03*
X153670Y46228I2540J0D01*
G01*
X242570Y59690D02*
G03*
X240030Y62230I-2540J0D01*
G01*
Y46228D02*
G03*
X242570Y48768I0J2540D01*
G01*
X240030Y62230D02*
G03*
X237490Y59690I0J-2540D01*
G01*
Y48768D02*
G03*
X240030Y46228I2540J0D01*
G01*
X156210Y16510D02*
G03*
X153670Y19050I-2540J0D01*
G01*
Y6096D02*
G03*
X156210Y8636I0J2540D01*
G01*
X153670Y19050D02*
G03*
X151130Y16510I0J-2540D01*
G01*
Y8636D02*
G03*
X153670Y6096I2540J0D01*
G01*
X242570Y16510D02*
G03*
X240030Y19050I-2540J0D01*
G01*
Y6096D02*
G03*
X242570Y8636I0J2540D01*
G01*
X240030Y19050D02*
G03*
X237490Y16510I0J-2540D01*
G01*
Y8636D02*
G03*
X240030Y6096I2540J0D01*
G01*
X156210Y48768D02*
Y59690D01*
X151130Y48768D02*
Y59690D01*
X242570Y48768D02*
Y59690D01*
X237490Y48768D02*
Y59690D01*
X156210Y8636D02*
Y16510D01*
X151130Y8636D02*
Y16510D01*
X242570Y8636D02*
Y16510D01*
X237490Y8636D02*
Y16510D01*
D21*
X366669Y956404D02*
D03*
Y935406D02*
D03*
Y914405D02*
D03*
Y893404D02*
D03*
Y872406D02*
D03*
Y851405D02*
D03*
Y830405D02*
D03*
Y809404D02*
D03*
X387670D02*
D03*
Y830405D02*
D03*
Y851405D02*
D03*
Y872406D02*
D03*
Y893404D02*
D03*
Y914405D02*
D03*
Y935406D02*
D03*
Y956404D02*
D03*
X408671D02*
D03*
Y935406D02*
D03*
Y914405D02*
D03*
Y893404D02*
D03*
Y872406D02*
D03*
Y851405D02*
D03*
Y830405D02*
D03*
Y809404D02*
D03*
X429669D02*
D03*
Y830405D02*
D03*
Y851405D02*
D03*
Y872406D02*
D03*
Y893404D02*
D03*
Y914405D02*
D03*
Y935406D02*
D03*
Y956404D02*
D03*
X450670D02*
D03*
Y935406D02*
D03*
Y914405D02*
D03*
Y893404D02*
D03*
Y872406D02*
D03*
Y851405D02*
D03*
Y830405D02*
D03*
Y809404D02*
D03*
X471670D02*
D03*
Y830405D02*
D03*
Y851405D02*
D03*
Y872406D02*
D03*
Y893404D02*
D03*
Y914405D02*
D03*
Y935406D02*
D03*
Y956404D02*
D03*
X286045Y436070D02*
D03*
X307045D02*
D03*
X286045Y303070D02*
D03*
X307045D02*
D03*
X244046Y472069D02*
D03*
X265044D02*
D03*
X286045D02*
D03*
X307045D02*
D03*
X328046D02*
D03*
X349044D02*
D03*
X244046Y454071D02*
D03*
X265044D02*
D03*
X286045D02*
D03*
X307045D02*
D03*
X328046D02*
D03*
X349044D02*
D03*
X244046Y436070D02*
D03*
X349044D02*
D03*
X244046Y400070D02*
D03*
X349044D02*
D03*
X244046Y339070D02*
D03*
X349044D02*
D03*
X244046Y303070D02*
D03*
X349044D02*
D03*
X244046Y285069D02*
D03*
X265044D02*
D03*
X286045D02*
D03*
X307045D02*
D03*
X328046D02*
D03*
X349044D02*
D03*
X244046Y267071D02*
D03*
X265044D02*
D03*
X286045D02*
D03*
X307045D02*
D03*
X328046D02*
D03*
X349044D02*
D03*
D22*
X344170Y954405D02*
D03*
Y943404D02*
D03*
Y932406D02*
D03*
Y921405D02*
D03*
Y910405D02*
D03*
Y899404D02*
D03*
Y888406D02*
D03*
Y877405D02*
D03*
Y866404D02*
D03*
Y855406D02*
D03*
Y844405D02*
D03*
Y833404D02*
D03*
Y822404D02*
D03*
Y811405D02*
D03*
X493669D02*
D03*
Y822404D02*
D03*
Y833404D02*
D03*
Y844405D02*
D03*
Y855406D02*
D03*
Y866404D02*
D03*
Y877405D02*
D03*
Y888406D02*
D03*
Y899404D02*
D03*
Y910405D02*
D03*
Y921405D02*
D03*
Y932406D02*
D03*
Y943404D02*
D03*
Y954405D02*
D03*
X227045Y259570D02*
D03*
Y270571D02*
D03*
Y281569D02*
D03*
Y292570D02*
D03*
Y303571D02*
D03*
Y314569D02*
D03*
Y325570D02*
D03*
Y336570D02*
D03*
Y347571D02*
D03*
Y358569D02*
D03*
Y369570D02*
D03*
Y380571D02*
D03*
Y391569D02*
D03*
Y402570D02*
D03*
Y413570D02*
D03*
Y424571D02*
D03*
Y435569D02*
D03*
Y446570D02*
D03*
Y457571D02*
D03*
Y468569D02*
D03*
Y479570D02*
D03*
X366045D02*
D03*
Y468569D02*
D03*
Y457571D02*
D03*
Y446570D02*
D03*
Y435569D02*
D03*
Y424571D02*
D03*
Y413570D02*
D03*
Y402570D02*
D03*
Y391569D02*
D03*
Y380571D02*
D03*
Y369570D02*
D03*
Y358569D02*
D03*
Y347571D02*
D03*
Y336570D02*
D03*
Y325570D02*
D03*
Y314569D02*
D03*
Y303571D02*
D03*
Y292570D02*
D03*
Y281569D02*
D03*
Y270571D02*
D03*
Y259570D02*
D03*
D23*
X352669Y783405D02*
D03*
X363670D02*
D03*
X374670D02*
D03*
X385671D02*
D03*
X396669D02*
D03*
X407670D02*
D03*
X418671D02*
D03*
X429669D02*
D03*
X440670D02*
D03*
X451670D02*
D03*
X462671D02*
D03*
X473669D02*
D03*
X484670D02*
D03*
Y982406D02*
D03*
X473669D02*
D03*
X462671D02*
D03*
X451670D02*
D03*
X440670D02*
D03*
X429669D02*
D03*
X418671D02*
D03*
X407670D02*
D03*
X396669D02*
D03*
X385671D02*
D03*
X374670D02*
D03*
X363670D02*
D03*
X352669D02*
D03*
D24*
X105710Y789280D02*
D03*
Y779780D02*
D03*
Y770280D02*
D03*
X79710D02*
D03*
Y779780D02*
D03*
Y789280D02*
D03*
X209350Y81940D02*
D03*
Y91440D02*
D03*
Y100940D02*
D03*
X184350D02*
D03*
Y81940D02*
D03*
X41776Y518836D02*
D03*
Y509336D02*
D03*
Y499836D02*
D03*
X67776D02*
D03*
Y509336D02*
D03*
Y518836D02*
D03*
D25*
X329096Y574517D02*
D03*
Y568017D02*
D03*
Y561517D02*
D03*
X310096D02*
D03*
Y568017D02*
D03*
Y574517D02*
D03*
D26*
X447294Y548294D02*
D03*
Y541794D02*
D03*
Y535294D02*
D03*
X467294D02*
D03*
Y548294D02*
D03*
D27*
X103779Y311785D02*
D03*
X122281Y318285D02*
D03*
Y305285D02*
D03*
Y331955D02*
D03*
Y344955D02*
D03*
X103779Y338455D02*
D03*
D28*
X502836Y298340D02*
D03*
Y291840D02*
D03*
Y285340D02*
D03*
Y278840D02*
D03*
Y272340D02*
D03*
Y265840D02*
D03*
Y259340D02*
D03*
Y252840D02*
D03*
X444076D02*
D03*
Y259340D02*
D03*
Y265840D02*
D03*
Y272340D02*
D03*
Y278840D02*
D03*
Y285340D02*
D03*
Y291840D02*
D03*
Y298340D02*
D03*
Y387240D02*
D03*
Y380740D02*
D03*
Y374240D02*
D03*
Y367740D02*
D03*
Y361240D02*
D03*
Y354740D02*
D03*
Y348240D02*
D03*
Y341740D02*
D03*
X502836D02*
D03*
Y348240D02*
D03*
Y354740D02*
D03*
Y361240D02*
D03*
Y367740D02*
D03*
Y374240D02*
D03*
Y380740D02*
D03*
Y387240D02*
D03*
D29*
X130050Y543680D02*
D03*
Y548680D02*
D03*
Y553680D02*
D03*
Y558680D02*
D03*
X98550D02*
D03*
Y553680D02*
D03*
Y548680D02*
D03*
Y543680D02*
D03*
D30*
X137632Y33472D02*
D03*
Y42972D02*
D03*
Y52472D02*
D03*
X108632D02*
D03*
Y42972D02*
D03*
Y33472D02*
D03*
X61642Y33218D02*
D03*
Y42718D02*
D03*
Y52218D02*
D03*
X90642D02*
D03*
Y42718D02*
D03*
Y33218D02*
D03*
D31*
X123132Y42972D02*
D03*
X76142Y42718D02*
D03*
D32*
X79304Y995680D02*
D03*
X102306D02*
D03*
D33*
X335714Y671375D02*
D03*
X330716D02*
D03*
X325714D02*
D03*
X320716D02*
D03*
X315714D02*
D03*
X310716D02*
D03*
Y630375D02*
D03*
X315714D02*
D03*
X320716D02*
D03*
X325714D02*
D03*
X330716D02*
D03*
X335714D02*
D03*
D34*
X302715Y663374D02*
D03*
Y658376D02*
D03*
Y653374D02*
D03*
Y648376D02*
D03*
Y643374D02*
D03*
Y638376D02*
D03*
X343715D02*
D03*
Y643374D02*
D03*
Y648376D02*
D03*
Y653374D02*
D03*
Y658376D02*
D03*
Y663374D02*
D03*
D35*
X443710Y445220D02*
D03*
X503710D02*
D03*
X443710Y408220D02*
D03*
X503710D02*
D03*
X68700Y548800D02*
D03*
X257330Y551730D02*
D03*
X197330D02*
D03*
X257330Y588730D02*
D03*
X197330D02*
D03*
X408460Y551730D02*
D03*
X348460D02*
D03*
X408460Y588730D02*
D03*
X348460D02*
D03*
D36*
X66700Y568800D02*
D03*
X85700D02*
D03*
Y548800D02*
D03*
D37*
X289075Y966718D02*
D03*
X282575D02*
D03*
X276075D02*
D03*
Y956818D02*
D03*
X282575D02*
D03*
X289075D02*
D03*
D38*
X537545Y676595D02*
D03*
X564045D02*
D03*
X537545Y589595D02*
D03*
X564045D02*
D03*
X465346Y639095D02*
D03*
Y627596D02*
D03*
X476844Y650596D02*
D03*
Y639095D02*
D03*
Y627596D02*
D03*
Y616095D02*
D03*
X488345Y639095D02*
D03*
Y627596D02*
D03*
X499844Y650596D02*
D03*
Y639095D02*
D03*
Y627596D02*
D03*
Y616095D02*
D03*
X452044Y660596D02*
D03*
Y649595D02*
D03*
Y638594D02*
D03*
Y627596D02*
D03*
Y616595D02*
D03*
Y605594D02*
D03*
X486560Y489946D02*
D03*
X473560D02*
D03*
X480060Y471444D02*
D03*
X450850D02*
D03*
X444350Y489946D02*
D03*
X457350D02*
D03*
D39*
X438295Y613095D02*
D03*
Y623095D02*
D03*
Y633095D02*
D03*
Y643095D02*
D03*
Y653095D02*
D03*
X526796D02*
D03*
Y643095D02*
D03*
Y633095D02*
D03*
Y623095D02*
D03*
Y613095D02*
D03*
D40*
X437546Y674345D02*
D03*
X447546D02*
D03*
X457545D02*
D03*
X467545D02*
D03*
X477545D02*
D03*
X487545D02*
D03*
X497545D02*
D03*
X507545D02*
D03*
X517545D02*
D03*
X527545D02*
D03*
Y591845D02*
D03*
X517545D02*
D03*
X507545D02*
D03*
X497545D02*
D03*
X487545D02*
D03*
X477545D02*
D03*
X467545D02*
D03*
X457545D02*
D03*
X447546D02*
D03*
X437546D02*
D03*
D41*
X220655Y814555D02*
D03*
Y825556D02*
D03*
Y836554D02*
D03*
Y847555D02*
D03*
Y858556D02*
D03*
Y869554D02*
D03*
Y880555D02*
D03*
Y910554D02*
D03*
Y921555D02*
D03*
Y932556D02*
D03*
Y943554D02*
D03*
Y954555D02*
D03*
X100655D02*
D03*
Y943554D02*
D03*
Y932556D02*
D03*
Y921555D02*
D03*
Y910554D02*
D03*
Y880555D02*
D03*
Y869554D02*
D03*
Y858556D02*
D03*
Y847555D02*
D03*
Y836554D02*
D03*
Y825556D02*
D03*
Y814555D02*
D03*
D42*
X309430Y107300D02*
D03*
Y112300D02*
D03*
Y117300D02*
D03*
Y122300D02*
D03*
X348430D02*
D03*
Y117300D02*
D03*
Y112300D02*
D03*
Y107300D02*
D03*
D43*
X316430Y129300D02*
D03*
X341430D02*
D03*
Y100300D02*
D03*
X316430D02*
D03*
D44*
X321430Y125800D02*
D03*
X326430D02*
D03*
X331430D02*
D03*
X336430D02*
D03*
Y103800D02*
D03*
X331430D02*
D03*
X326430D02*
D03*
X321430D02*
D03*
D45*
X101516Y1029051D02*
D03*
D46*
X140335Y1014829D02*
D03*
D47*
X138750Y603731D02*
D03*
X48750Y761613D02*
D03*
X138750D02*
D03*
X48750Y603731D02*
D03*
D48*
X158750Y749421D02*
D03*
Y738421D02*
D03*
Y727421D02*
D03*
Y716421D02*
D03*
Y705421D02*
D03*
Y694421D02*
D03*
Y683421D02*
D03*
Y672421D02*
D03*
Y661421D02*
D03*
D49*
X561221Y92710D02*
D03*
X543679D02*
D03*
Y76700D02*
D03*
X561221D02*
D03*
X543679Y58920D02*
D03*
X561221D02*
D03*
X57666Y337185D02*
D03*
X40124D02*
D03*
X411996Y1016000D02*
D03*
X394454D02*
D03*
X533916Y694690D02*
D03*
X516374D02*
D03*
X394454Y1066165D02*
D03*
X411996D02*
D03*
Y1040765D02*
D03*
X394454D02*
D03*
X40124Y292100D02*
D03*
X57666D02*
D03*
Y314960D02*
D03*
X40124D02*
D03*
D50*
X351546Y250071D02*
D03*
X340545D02*
D03*
X329545D02*
D03*
X318544D02*
D03*
X307546D02*
D03*
X296545D02*
D03*
X285544D02*
D03*
X274546D02*
D03*
X263545D02*
D03*
X252545D02*
D03*
X241544D02*
D03*
Y489069D02*
D03*
X252545D02*
D03*
X263545D02*
D03*
X274546D02*
D03*
X285544D02*
D03*
X296545D02*
D03*
X307546D02*
D03*
X318544D02*
D03*
X329545D02*
D03*
X340545D02*
D03*
X351546D02*
D03*
D51*
X136370Y422942D02*
D03*
Y455942D02*
D03*
Y433942D02*
D03*
Y411942D02*
D03*
Y466942D02*
D03*
Y444942D02*
D03*
Y400942D02*
D03*
D52*
X111120Y367942D02*
D03*
X69120D02*
D03*
D53*
X16120D02*
D03*
X67120Y481942D02*
D03*
D54*
X13620Y478442D02*
D03*
D55*
X128370Y481942D02*
D03*
D56*
X385100Y23099D02*
D03*
X453100D02*
D03*
D57*
X409100Y75100D02*
D03*
X429100D02*
D03*
D58*
X13541Y590611D02*
D03*
Y534609D02*
D03*
D59*
X50292Y547609D02*
D03*
Y557609D02*
D03*
Y567611D02*
D03*
Y577611D02*
D03*
D60*
X256540Y30630D02*
D03*
Y17630D02*
D03*
D61*
X293130Y996950D02*
D03*
X301230D02*
D03*
D62*
X406400Y136670D02*
D03*
Y107170D02*
D03*
D63*
X228850Y60030D02*
D03*
X164850D02*
D03*
X220850D02*
D03*
X172850D02*
D03*
D64*
X214350D02*
D03*
X209350D02*
D03*
X204350D02*
D03*
X199350D02*
D03*
X194350D02*
D03*
X189350D02*
D03*
X184350D02*
D03*
X179350D02*
D03*
D65*
X281630Y696265D02*
D03*
X275229D02*
D03*
X268831D02*
D03*
X262430D02*
D03*
X256029D02*
D03*
X249631D02*
D03*
X243030D02*
D03*
X236830D02*
D03*
X230429D02*
D03*
X224030D02*
D03*
X217630D02*
D03*
X211229D02*
D03*
X204831D02*
D03*
X198430D02*
D03*
Y750265D02*
D03*
X204831D02*
D03*
X211229D02*
D03*
X217630D02*
D03*
X224030D02*
D03*
X230429D02*
D03*
X236830D02*
D03*
X243230D02*
D03*
X249631D02*
D03*
X256029D02*
D03*
X262430D02*
D03*
X268831D02*
D03*
X275229D02*
D03*
X281630D02*
D03*
D66*
X341630Y1027750D02*
D03*
Y1004250D02*
D03*
D67*
X151638Y117633D02*
D03*
Y89632D02*
D03*
D68*
X350300Y23360D02*
D03*
X322800D02*
D03*
D69*
X324556Y709846D02*
D03*
Y746844D02*
D03*
X301554D02*
D03*
Y709846D02*
D03*
D70*
X16459Y250825D02*
D03*
X69901D02*
D03*
D71*
X196088Y132050D02*
D03*
Y160050D02*
D03*
D72*
X330200Y154410D02*
D03*
Y183410D02*
D03*
X355600Y73420D02*
D03*
Y44420D02*
D03*
D73*
X275740Y151630D02*
D03*
X262740D02*
D03*
X295760Y83050D02*
D03*
X308760D02*
D03*
X324970Y79240D02*
D03*
X337970D02*
D03*
X275740Y138930D02*
D03*
X262740D02*
D03*
X254150Y78740D02*
D03*
X241150D02*
D03*
D74*
X285511Y55880D02*
D03*
X255509D02*
D03*
D75*
X118501Y149098D02*
D03*
X135499D02*
D03*
X266309Y881380D02*
D03*
X249311D02*
D03*
X127117Y12700D02*
D03*
X110119D02*
D03*
X72273D02*
D03*
X89271D02*
D03*
X245989Y161290D02*
D03*
X228991D02*
D03*
X245989Y147320D02*
D03*
X228991D02*
D03*
X109812Y97075D02*
D03*
X126810D02*
D03*
Y83105D02*
D03*
X109812D02*
D03*
Y69135D02*
D03*
X126810D02*
D03*
X71257Y589788D02*
D03*
X88255D02*
D03*
X85969Y535940D02*
D03*
X68971D02*
D03*
X99431Y496570D02*
D03*
X82433D02*
D03*
X82179Y518160D02*
D03*
X99177D02*
D03*
X9994Y516890D02*
D03*
X26991D02*
D03*
Y501650D02*
D03*
X9994D02*
D03*
X468767Y313690D02*
D03*
X485765D02*
D03*
X74051Y330200D02*
D03*
X91049D02*
D03*
X468767Y328930D02*
D03*
X485765D02*
D03*
X475605Y238760D02*
D03*
X458607D02*
D03*
X74051Y299720D02*
D03*
X91049D02*
D03*
X274076Y943229D02*
D03*
X291074D02*
D03*
X123581Y995680D02*
D03*
X140579D02*
D03*
X221224Y779145D02*
D03*
X204226D02*
D03*
X221224Y794385D02*
D03*
X204226D02*
D03*
X74051Y345440D02*
D03*
X91049D02*
D03*
Y314960D02*
D03*
X74051D02*
D03*
X280279Y669925D02*
D03*
X263281D02*
D03*
X295031Y685800D02*
D03*
X312029D02*
D03*
X298694Y589915D02*
D03*
X281696D02*
D03*
X331079Y543560D02*
D03*
X314081D02*
D03*
X222494Y666750D02*
D03*
X205496D02*
D03*
X292344Y981075D02*
D03*
X275346D02*
D03*
X73269Y66548D02*
D03*
X56271D02*
D03*
Y94488D02*
D03*
X73269D02*
D03*
Y80518D02*
D03*
X56271D02*
D03*
X540776Y573405D02*
D03*
X557774D02*
D03*
X359801Y1066165D02*
D03*
X376799D02*
D03*
Y1040765D02*
D03*
X359801D02*
D03*
Y1016000D02*
D03*
X376799D02*
D03*
X141361Y778510D02*
D03*
X158359D02*
D03*
X332349Y589915D02*
D03*
X315351D02*
D03*
X91049Y284480D02*
D03*
X74051D02*
D03*
X458607Y222250D02*
D03*
X475605D02*
D03*
X458607Y204470D02*
D03*
X475605D02*
D03*
X275199Y110490D02*
D03*
X258201D02*
D03*
Y124960D02*
D03*
X275199D02*
D03*
X31359Y71374D02*
D03*
X14361D02*
D03*
Y86360D02*
D03*
X31359D02*
D03*
X96383Y149098D02*
D03*
X79385D02*
D03*
D76*
X120650Y227086D02*
D03*
Y244084D02*
D03*
X168910Y84211D02*
D03*
Y101209D02*
D03*
X227076Y103495D02*
D03*
Y86497D02*
D03*
X180340Y693811D02*
D03*
Y710809D02*
D03*
X455930Y139309D02*
D03*
Y122311D02*
D03*
X469900D02*
D03*
Y139309D02*
D03*
X273685Y571744D02*
D03*
Y554746D02*
D03*
X289560D02*
D03*
Y571744D02*
D03*
X121920Y510296D02*
D03*
Y527294D02*
D03*
X106045Y244084D02*
D03*
Y227086D02*
D03*
X91440D02*
D03*
Y244084D02*
D03*
X132334Y589143D02*
D03*
Y572145D02*
D03*
X444246Y312811D02*
D03*
Y329809D02*
D03*
X482600Y519674D02*
D03*
Y502676D02*
D03*
X450850D02*
D03*
Y519674D02*
D03*
X134620Y341874D02*
D03*
Y324876D02*
D03*
X466725Y519674D02*
D03*
Y502676D02*
D03*
X146812Y589143D02*
D03*
Y572145D02*
D03*
X134620Y289951D02*
D03*
Y306949D02*
D03*
X135255Y244084D02*
D03*
Y227086D02*
D03*
X249555Y834781D02*
D03*
Y851779D02*
D03*
X265430D02*
D03*
Y834781D02*
D03*
X511810Y855101D02*
D03*
Y872099D02*
D03*
X318262Y997067D02*
D03*
Y980069D02*
D03*
X76200Y808111D02*
D03*
Y825109D02*
D03*
X283210Y834781D02*
D03*
Y851779D02*
D03*
X299085D02*
D03*
Y834781D02*
D03*
X173355Y778754D02*
D03*
Y761756D02*
D03*
X187452Y778627D02*
D03*
Y761629D02*
D03*
X234315Y632851D02*
D03*
Y649849D02*
D03*
X217805D02*
D03*
Y632851D02*
D03*
X201295Y649849D02*
D03*
Y632851D02*
D03*
X286385D02*
D03*
Y649849D02*
D03*
X250825Y632851D02*
D03*
Y649849D02*
D03*
X267335Y632851D02*
D03*
Y649849D02*
D03*
X180340Y726831D02*
D03*
Y743829D02*
D03*
X549910Y708904D02*
D03*
Y691906D02*
D03*
X149860Y227086D02*
D03*
Y244084D02*
D03*
X270510Y15631D02*
D03*
Y32629D02*
D03*
X488950Y535061D02*
D03*
Y552059D02*
D03*
X137160Y527294D02*
D03*
Y510296D02*
D03*
X103378Y572145D02*
D03*
Y589143D02*
D03*
X117856Y572145D02*
D03*
Y589143D02*
D03*
X511810Y139309D02*
D03*
Y122311D02*
D03*
X483870Y139309D02*
D03*
Y122311D02*
D03*
X295910Y168531D02*
D03*
Y185529D02*
D03*
X281940D02*
D03*
Y168531D02*
D03*
X267970Y185529D02*
D03*
Y168531D02*
D03*
X309880Y185529D02*
D03*
Y168531D02*
D03*
X497840Y139309D02*
D03*
Y122311D02*
D03*
X517354Y902829D02*
D03*
Y919826D02*
D03*
X73660Y126355D02*
D03*
Y109357D02*
D03*
X94742Y88001D02*
D03*
Y71003D02*
D03*
X132588Y134229D02*
D03*
Y117231D02*
D03*
X118110D02*
D03*
Y134229D02*
D03*
D77*
X305562Y971121D02*
D03*
Y981123D02*
D03*
X76200Y167719D02*
D03*
X508000Y167084D02*
D03*
Y177086D02*
D03*
X261366Y991029D02*
D03*
Y981027D02*
D03*
D78*
X470350Y177800D02*
D03*
X458350D02*
D03*
X113630D02*
D03*
X125630D02*
D03*
D79*
X439000Y168656D02*
D03*
Y177292D02*
D03*
X94500Y168402D02*
D03*
Y177038D02*
D03*
X489700Y168656D02*
D03*
Y177292D02*
D03*
X144990Y168402D02*
D03*
Y177038D02*
D03*
D80*
X284480Y32901D02*
D03*
Y15359D02*
D03*
D81*
X282654Y1007110D02*
D03*
X292656D02*
D03*
D82*
X76200Y177721D02*
D03*
D83*
X310366Y62738D02*
D03*
X339366D02*
D03*
M02*
