G04*
G04 #@! TF.GenerationSoftware,Altium Limited,Altium Designer,23.1.1 (15)*
G04*
G04 Layer_Physical_Order=4*
G04 Layer_Color=16711680*
%FSLAX44Y44*%
%MOMM*%
G71*
G04*
G04 #@! TF.SameCoordinates,52DFFBC7-DF18-43FC-A01C-1C5016B87F82*
G04*
G04*
G04 #@! TF.FilePolarity,Positive*
G04*
G01*
G75*
%ADD14C,0.2032*%
%ADD149C,0.6500*%
G04:AMPARAMS|DCode=150|XSize=1mm|YSize=2.1mm|CornerRadius=0.5mm|HoleSize=0mm|Usage=FLASHONLY|Rotation=0.000|XOffset=0mm|YOffset=0mm|HoleType=Round|Shape=RoundedRectangle|*
%AMROUNDEDRECTD150*
21,1,1.0000,1.1000,0,0,0.0*
21,1,0.0000,2.1000,0,0,0.0*
1,1,1.0000,0.0000,-0.5500*
1,1,1.0000,0.0000,-0.5500*
1,1,1.0000,0.0000,0.5500*
1,1,1.0000,0.0000,0.5500*
%
%ADD150ROUNDEDRECTD150*%
G04:AMPARAMS|DCode=151|XSize=1mm|YSize=1.8mm|CornerRadius=0.5mm|HoleSize=0mm|Usage=FLASHONLY|Rotation=0.000|XOffset=0mm|YOffset=0mm|HoleType=Round|Shape=RoundedRectangle|*
%AMROUNDEDRECTD151*
21,1,1.0000,0.8000,0,0,0.0*
21,1,0.0000,1.8000,0,0,0.0*
1,1,1.0000,0.0000,-0.4000*
1,1,1.0000,0.0000,-0.4000*
1,1,1.0000,0.0000,0.4000*
1,1,1.0000,0.0000,0.4000*
%
%ADD151ROUNDEDRECTD151*%
%ADD156R,1.6000X3.9500*%
%ADD158R,3.9500X1.6000*%
G04:AMPARAMS|DCode=160|XSize=0.635mm|YSize=0.635mm|CornerRadius=0.3175mm|HoleSize=0mm|Usage=FLASHONLY|Rotation=0.000|XOffset=0mm|YOffset=0mm|HoleType=Round|Shape=RoundedRectangle|*
%AMROUNDEDRECTD160*
21,1,0.6350,0.0000,0,0,0.0*
21,1,0.0000,0.6350,0,0,0.0*
1,1,0.6350,0.0000,0.0000*
1,1,0.6350,0.0000,0.0000*
1,1,0.6350,0.0000,0.0000*
1,1,0.6350,0.0000,0.0000*
%
%ADD160ROUNDEDRECTD160*%
%ADD161C,0.2540*%
%ADD163C,0.4064*%
%ADD164C,0.4060*%
%ADD165C,0.2030*%
%ADD166C,0.2037*%
%ADD167C,0.3048*%
%ADD168C,0.8128*%
%ADD169C,0.4750*%
%ADD170C,1.8796*%
%ADD171C,3.0480*%
%ADD172C,0.5000*%
%ADD173C,0.6000*%
%ADD174C,0.6096*%
%ADD175C,0.4599*%
%ADD177C,0.9000*%
%ADD178R,1.2700X0.6604*%
%ADD179R,0.6350X1.2700*%
%ADD180R,4.0000X1.6000*%
%ADD181R,2.4000X0.7600*%
%ADD182R,2.5000X1.0000*%
%ADD183R,0.6604X1.2700*%
%ADD184C,0.3050*%
%ADD185C,0.8130*%
G36*
X573346Y1075640D02*
X572549Y1074448D01*
X572165Y1072515D01*
X572549Y1070582D01*
X573644Y1068944D01*
X575282Y1067849D01*
X577215Y1067465D01*
X579148Y1067849D01*
X580340Y1068646D01*
X581610Y1068066D01*
Y1011710D01*
X580408Y1011302D01*
X580014Y1011814D01*
X577520Y1013728D01*
X574617Y1014931D01*
X572516Y1015207D01*
Y1003300D01*
Y991393D01*
X574617Y991669D01*
X577520Y992872D01*
X580014Y994786D01*
X580408Y995298D01*
X581610Y994890D01*
Y985169D01*
X580340Y984738D01*
X579471Y985871D01*
X577136Y987662D01*
X574417Y988788D01*
X571500Y989172D01*
X568582Y988788D01*
X565864Y987662D01*
X563529Y985871D01*
X561738Y983536D01*
X560612Y980817D01*
X560228Y977900D01*
X560612Y974983D01*
X561738Y972264D01*
X563529Y969929D01*
X565864Y968138D01*
X568582Y967012D01*
X571500Y966628D01*
X574417Y967012D01*
X577136Y968138D01*
X579471Y969929D01*
X580340Y971062D01*
X581610Y970631D01*
Y959769D01*
X580340Y959338D01*
X579471Y960471D01*
X577136Y962262D01*
X574417Y963388D01*
X571500Y963772D01*
X568582Y963388D01*
X565864Y962262D01*
X563529Y960471D01*
X561738Y958136D01*
X560612Y955417D01*
X560228Y952500D01*
X560612Y949583D01*
X561738Y946864D01*
X563529Y944529D01*
X565864Y942738D01*
X568582Y941612D01*
X571500Y941228D01*
X574417Y941612D01*
X577136Y942738D01*
X579471Y944529D01*
X580340Y945662D01*
X581610Y945231D01*
Y934369D01*
X580340Y933938D01*
X579471Y935071D01*
X577136Y936862D01*
X574417Y937988D01*
X571500Y938372D01*
X568582Y937988D01*
X565864Y936862D01*
X563529Y935071D01*
X561738Y932736D01*
X560917Y930754D01*
X559438Y930490D01*
X555299Y934630D01*
Y985520D01*
X555082Y986610D01*
X554464Y987534D01*
X554464Y987534D01*
X524420Y1017578D01*
X523496Y1018196D01*
X522406Y1018413D01*
X522406Y1018413D01*
X516807D01*
X516208Y1019533D01*
X516454Y1019900D01*
X516941Y1022350D01*
X516454Y1024800D01*
X515066Y1026876D01*
X512990Y1028264D01*
X510540Y1028751D01*
X508090Y1028264D01*
X507816Y1028080D01*
X507179Y1028506D01*
X506089Y1028723D01*
X506089Y1028723D01*
X472636D01*
X466834Y1034524D01*
X465910Y1035142D01*
X464820Y1035359D01*
X464820Y1035359D01*
X415290D01*
X415290Y1035359D01*
X414200Y1035142D01*
X413276Y1034524D01*
X412224Y1033473D01*
X411480Y1033621D01*
X409597Y1033246D01*
X408001Y1032179D01*
X407106Y1030840D01*
X406580Y1030731D01*
X406220D01*
X405694Y1030840D01*
X404799Y1032179D01*
X405203Y1033329D01*
X409155Y1037281D01*
X478223D01*
X479344Y1035604D01*
X481420Y1034216D01*
X483870Y1033729D01*
X486320Y1034216D01*
X488396Y1035604D01*
X489784Y1037680D01*
X490271Y1040130D01*
X489784Y1042580D01*
X489432Y1043106D01*
X489879Y1044723D01*
X490097Y1044868D01*
X504751Y1059523D01*
X506730Y1059129D01*
X509180Y1059616D01*
X511256Y1061004D01*
X512644Y1063080D01*
X513131Y1065530D01*
X512644Y1067980D01*
X511256Y1070056D01*
X509180Y1071444D01*
X506730Y1071931D01*
X504280Y1071444D01*
X502204Y1070056D01*
X500816Y1067980D01*
X500329Y1065530D01*
X500723Y1063551D01*
X486902Y1049731D01*
X486851D01*
X486681Y1049765D01*
X486681Y1049765D01*
X403334D01*
X399743Y1053356D01*
X399891Y1054100D01*
X399516Y1055983D01*
X398449Y1057579D01*
X396853Y1058646D01*
X394970Y1059020D01*
X393087Y1058646D01*
X391491Y1057579D01*
X390424Y1055983D01*
X390050Y1054100D01*
X390424Y1052217D01*
X391491Y1050621D01*
X393087Y1049554D01*
X394970Y1049180D01*
X395714Y1049327D01*
X400140Y1044902D01*
X400140Y1044902D01*
X401064Y1044284D01*
X402154Y1044067D01*
X402154Y1044067D01*
X406937D01*
X407063Y1042797D01*
X406885Y1042762D01*
X405961Y1042144D01*
X405961Y1042144D01*
X399865Y1036048D01*
X399247Y1035124D01*
X399030Y1034034D01*
X399030Y1034034D01*
Y1032974D01*
X397841Y1032179D01*
X396774Y1030583D01*
X396399Y1028700D01*
X396774Y1026817D01*
X397841Y1025221D01*
X399437Y1024154D01*
X401320Y1023780D01*
X403203Y1024154D01*
X404799Y1025221D01*
X405694Y1026560D01*
X406220Y1026669D01*
X406580D01*
X407106Y1026560D01*
X408001Y1025221D01*
X409597Y1024154D01*
X411480Y1023780D01*
X413363Y1024154D01*
X414959Y1025221D01*
X416026Y1026817D01*
X416400Y1028700D01*
X417504Y1029661D01*
X463640D01*
X469442Y1023860D01*
X469442Y1023860D01*
X470366Y1023242D01*
X471456Y1023025D01*
X503585D01*
X504139Y1022350D01*
X504626Y1019900D01*
X504872Y1019533D01*
X504273Y1018413D01*
X412314D01*
X411224Y1018196D01*
X410300Y1017578D01*
X410300Y1017578D01*
X396984Y1004263D01*
X396240Y1004410D01*
X394357Y1004036D01*
X392761Y1002969D01*
X391694Y1001373D01*
X391320Y999490D01*
X391694Y997607D01*
X392761Y996011D01*
X394357Y994944D01*
X396240Y994569D01*
X398123Y994944D01*
X399719Y996011D01*
X400786Y997607D01*
X401161Y999490D01*
X401069Y999949D01*
X401650Y1000473D01*
X402813Y999812D01*
X402749Y999490D01*
X403124Y997607D01*
X404191Y996011D01*
X405787Y994944D01*
X407670Y994569D01*
X409553Y994944D01*
X411149Y996011D01*
X412216Y997607D01*
X412590Y999490D01*
X412324Y1000830D01*
X419565Y1008071D01*
X451824D01*
X452209Y1006801D01*
X451884Y1006584D01*
X451884Y1006584D01*
X450106Y1004806D01*
X449488Y1003881D01*
X449271Y1002791D01*
X449271Y1002791D01*
Y1001887D01*
X448641Y1001465D01*
X447574Y999869D01*
X447200Y997986D01*
X447574Y996103D01*
X448641Y994507D01*
X448714Y993763D01*
X441986Y987035D01*
X440609Y987454D01*
X440254Y989240D01*
X438866Y991316D01*
X436790Y992704D01*
X434340Y993191D01*
X431890Y992704D01*
X429814Y991316D01*
X428426Y989240D01*
X427939Y986790D01*
X428426Y984340D01*
X429814Y982264D01*
X431890Y980876D01*
X434340Y980389D01*
X435324Y980585D01*
X435950Y979414D01*
X353464Y896929D01*
X236725D01*
X236633Y897168D01*
X236514Y898199D01*
X237218Y898670D01*
X242044Y903496D01*
X242044Y903496D01*
X242662Y904420D01*
X242879Y905510D01*
X242879Y905510D01*
Y906689D01*
X243509Y907111D01*
X244576Y908707D01*
X244951Y910590D01*
X244576Y912473D01*
X243509Y914069D01*
X241913Y915136D01*
X240030Y915510D01*
X238147Y915136D01*
X236551Y914069D01*
X235484Y912473D01*
X235110Y910590D01*
X235484Y908707D01*
X236551Y907111D01*
X236645Y906154D01*
X234024Y903533D01*
X83162D01*
X72699Y913996D01*
Y928279D01*
X73329Y928701D01*
X74396Y930297D01*
X74770Y932180D01*
X74396Y934063D01*
X73329Y935659D01*
X71733Y936726D01*
X69850Y937101D01*
X67967Y936726D01*
X66371Y935659D01*
X65304Y934063D01*
X64929Y932180D01*
X65304Y930297D01*
X66371Y928701D01*
X67001Y928279D01*
Y912816D01*
X67001Y912816D01*
X67218Y911726D01*
X67836Y910801D01*
X79967Y898670D01*
X79967Y898670D01*
X80672Y898199D01*
X80553Y897168D01*
X80461Y896929D01*
X78740D01*
X78740Y896929D01*
X77650Y896712D01*
X76726Y896094D01*
X72916Y892284D01*
X72298Y891360D01*
X72081Y890270D01*
X72081Y890270D01*
Y873851D01*
X71451Y873429D01*
X70384Y871833D01*
X70127Y870542D01*
X68857Y870667D01*
Y872335D01*
X68889Y872493D01*
X68889Y872493D01*
Y896529D01*
X69519Y896951D01*
X70586Y898547D01*
X70960Y900430D01*
X70586Y902313D01*
X69519Y903909D01*
X67923Y904976D01*
X66040Y905350D01*
X64157Y904976D01*
X63575Y904587D01*
X62305Y905266D01*
Y964861D01*
X74561Y977117D01*
X124710D01*
X125700Y976456D01*
X127583Y976081D01*
X129466Y976456D01*
X131062Y977523D01*
X132128Y979119D01*
X132503Y981002D01*
X132128Y982885D01*
X131062Y984481D01*
X129466Y985548D01*
X127583Y985922D01*
X125700Y985548D01*
X124710Y984886D01*
X119455D01*
Y997075D01*
X120096Y997504D01*
X121484Y999580D01*
X121971Y1002030D01*
X121484Y1004480D01*
X120096Y1006556D01*
X118020Y1007944D01*
X115570Y1008431D01*
X113120Y1007944D01*
X111044Y1006556D01*
X109656Y1004480D01*
X109169Y1002030D01*
X109656Y999580D01*
X111044Y997504D01*
X111685Y997075D01*
Y984886D01*
X72952D01*
X71465Y984591D01*
X70205Y983749D01*
X55673Y969217D01*
X54831Y967957D01*
X54535Y966470D01*
Y817880D01*
X54831Y816393D01*
X55673Y815133D01*
X109267Y761539D01*
X110527Y760697D01*
X112014Y760401D01*
X292628D01*
X294115Y760697D01*
X295375Y761539D01*
X380087Y846251D01*
X470856D01*
X471382Y844981D01*
X407760Y781359D01*
X402590D01*
X402590Y781359D01*
X401500Y781142D01*
X400576Y780524D01*
X394934Y774882D01*
X393087Y774515D01*
X391491Y773448D01*
X390424Y771852D01*
X390050Y769969D01*
X390424Y768086D01*
X391491Y766490D01*
X393087Y765423D01*
X394970Y765049D01*
X396853Y765423D01*
X398449Y766490D01*
X399191Y767599D01*
X400616D01*
X401357Y766490D01*
X402953Y765423D01*
X403180Y765378D01*
X403549Y764163D01*
X357166Y717780D01*
X304571D01*
X304246Y718266D01*
X302170Y719654D01*
X299720Y720141D01*
X297270Y719654D01*
X295194Y718266D01*
X294765Y717625D01*
X269790D01*
X268303Y717329D01*
X267043Y716487D01*
X266745Y716188D01*
X264891Y715820D01*
X263294Y714753D01*
X263199Y714610D01*
X261929Y714995D01*
Y717005D01*
X266174Y721251D01*
X266174Y721251D01*
X266792Y722175D01*
X267009Y723265D01*
X267009Y723265D01*
Y741680D01*
X266792Y742770D01*
X266174Y743694D01*
X266174Y743694D01*
X257919Y751949D01*
X256995Y752567D01*
X255905Y752784D01*
X255905Y752784D01*
X148253D01*
X146663Y753846D01*
X144780Y754221D01*
X142897Y753846D01*
X141301Y752779D01*
X140234Y751183D01*
X139860Y749300D01*
X140234Y747417D01*
X141301Y745821D01*
X142897Y744754D01*
X144780Y744380D01*
X146663Y744754D01*
X148259Y745821D01*
X149105Y747086D01*
X254725D01*
X261311Y740500D01*
Y724445D01*
X257066Y720199D01*
X256448Y719275D01*
X256231Y718185D01*
X256231Y718185D01*
Y708660D01*
X256231Y708660D01*
X256448Y707570D01*
X257066Y706646D01*
X260876Y702836D01*
X261800Y702218D01*
X262890Y702001D01*
X262890Y702001D01*
X364399D01*
X364821Y701371D01*
X366417Y700304D01*
X368300Y699930D01*
X370183Y700304D01*
X371779Y701371D01*
X372846Y702967D01*
X373220Y704850D01*
X372846Y706733D01*
X371779Y708329D01*
X370183Y709396D01*
X368300Y709771D01*
X366417Y709396D01*
X364821Y708329D01*
X364399Y707699D01*
X304265D01*
X303879Y708969D01*
X304246Y709214D01*
X304778Y710010D01*
X358775D01*
X360262Y710306D01*
X361522Y711148D01*
X518860Y868486D01*
X518901Y868469D01*
X519907Y867737D01*
X519590Y866140D01*
X519964Y864257D01*
X521031Y862661D01*
X521525Y862330D01*
Y861060D01*
X521031Y860729D01*
X519964Y859133D01*
X519590Y857250D01*
X519964Y855367D01*
X521031Y853771D01*
X522627Y852704D01*
X524510Y852329D01*
X526393Y852704D01*
X527989Y853771D01*
X529056Y855367D01*
X529431Y857250D01*
X529056Y859133D01*
X527989Y860729D01*
X527495Y861060D01*
Y862330D01*
X527989Y862661D01*
X529056Y864257D01*
X529431Y866140D01*
X529056Y868023D01*
X527989Y869619D01*
X526393Y870686D01*
X524510Y871060D01*
X522913Y870743D01*
X522181Y871749D01*
X522164Y871790D01*
X533445Y883071D01*
X534013Y883184D01*
X535609Y884251D01*
X535631Y884283D01*
X536901Y883898D01*
Y811440D01*
X518178Y792716D01*
X517560Y791792D01*
X517343Y790702D01*
X517343Y790702D01*
Y736002D01*
X515670Y734328D01*
X514292Y734746D01*
X514171Y735351D01*
X513105Y736947D01*
X511508Y738014D01*
X511125Y738090D01*
X510213Y739566D01*
X510381Y740410D01*
X510006Y742293D01*
X508939Y743889D01*
X507343Y744956D01*
X507093Y745006D01*
X506724Y746221D01*
X512109Y751606D01*
X512726Y752530D01*
X512943Y753620D01*
X512943Y753620D01*
Y756829D01*
X513574Y757251D01*
X514641Y758847D01*
X515015Y760730D01*
X514641Y762613D01*
X513574Y764209D01*
X511978Y765276D01*
X510280Y765614D01*
X509935Y766212D01*
X509746Y766876D01*
X511284Y768414D01*
X511902Y769339D01*
X512119Y770429D01*
X512119Y770429D01*
Y818986D01*
X514876Y821743D01*
X515620Y821596D01*
X517503Y821970D01*
X519099Y823037D01*
X520166Y824633D01*
X520541Y826516D01*
X520166Y828399D01*
X519099Y829995D01*
X517503Y831062D01*
X515620Y831436D01*
X513737Y831062D01*
X512141Y829995D01*
X511074Y828399D01*
X510700Y826516D01*
X510847Y825772D01*
X507256Y822180D01*
X506638Y821256D01*
X506421Y820166D01*
X506421Y820166D01*
Y771807D01*
X505662Y771174D01*
X504749Y771418D01*
X504398Y771553D01*
X503365Y773099D01*
X501768Y774166D01*
X499885Y774540D01*
X498003Y774166D01*
X496406Y773099D01*
X495340Y771503D01*
X494965Y769620D01*
X495113Y768876D01*
X491086Y764849D01*
X445680D01*
X444158Y766371D01*
X444169Y766490D01*
X445236Y768086D01*
X445611Y769969D01*
X445236Y771852D01*
X444169Y773448D01*
X442573Y774515D01*
X440690Y774890D01*
X438807Y774515D01*
X437211Y773448D01*
X436144Y771852D01*
X435770Y769969D01*
X436144Y768086D01*
X437211Y766490D01*
X437882Y766041D01*
Y765769D01*
X437882Y765769D01*
X438099Y764679D01*
X438717Y763754D01*
X441739Y760732D01*
X441739Y760732D01*
X441739Y760732D01*
X442486Y759986D01*
X442486Y759986D01*
X442810Y759769D01*
X442425Y758499D01*
X438060D01*
X432109Y764450D01*
Y766068D01*
X432739Y766490D01*
X433806Y768086D01*
X434180Y769969D01*
X433806Y771852D01*
X432739Y773448D01*
X431143Y774515D01*
X429260Y774890D01*
X427377Y774515D01*
X425781Y773448D01*
X424714Y771852D01*
X424339Y769969D01*
X424714Y768086D01*
X425781Y766490D01*
X426411Y766068D01*
Y763270D01*
X426411Y763270D01*
X426628Y762180D01*
X427246Y761256D01*
X434866Y753636D01*
X435790Y753018D01*
X436880Y752801D01*
X436880Y752801D01*
X494491D01*
X494491Y752801D01*
X495581Y753018D01*
X496506Y753636D01*
X503948Y761078D01*
X504612Y760890D01*
X505211Y760545D01*
X505549Y758847D01*
X506615Y757251D01*
X507246Y756829D01*
Y754800D01*
X491894Y739449D01*
X447040D01*
X447040Y739449D01*
X445950Y739232D01*
X445026Y738614D01*
X445026Y738614D01*
X389146Y682734D01*
X388528Y681810D01*
X388311Y680720D01*
X388311Y680720D01*
Y646521D01*
X387681Y646099D01*
X386614Y644503D01*
X386240Y642620D01*
X386614Y640737D01*
X387681Y639141D01*
X388311Y638719D01*
Y620327D01*
X386634Y619206D01*
X385246Y617130D01*
X384759Y614680D01*
X385246Y612230D01*
X386634Y610154D01*
X388311Y609033D01*
Y593181D01*
X387681Y592759D01*
X386614Y591163D01*
X386240Y589280D01*
X386614Y587397D01*
X387681Y585801D01*
X389277Y584734D01*
X391160Y584360D01*
X393043Y584734D01*
X394639Y585801D01*
X395706Y587397D01*
X396081Y589280D01*
X395706Y591163D01*
X394639Y592759D01*
X394009Y593181D01*
Y609033D01*
X395686Y610154D01*
X397074Y612230D01*
X397561Y614680D01*
X397074Y617130D01*
X395686Y619206D01*
X394009Y620327D01*
Y629898D01*
X395279Y630283D01*
X395301Y630251D01*
X396897Y629184D01*
X398780Y628810D01*
X400663Y629184D01*
X402259Y630251D01*
X403326Y631847D01*
X403700Y633730D01*
X403326Y635613D01*
X402259Y637209D01*
X401629Y637631D01*
Y679540D01*
X406589Y684500D01*
X407859Y683974D01*
Y669381D01*
X407228Y668959D01*
X406161Y667363D01*
X405787Y665480D01*
X406161Y663597D01*
X407228Y662001D01*
X408824Y660934D01*
X410707Y660559D01*
X412590Y660934D01*
X414187Y662001D01*
X415253Y663597D01*
X415628Y665480D01*
X415253Y667363D01*
X414187Y668959D01*
X413556Y669381D01*
Y683847D01*
X453300Y723591D01*
X485534D01*
X485659Y722321D01*
X484527Y722096D01*
X482931Y721029D01*
X481864Y719433D01*
X481489Y717550D01*
X481864Y715667D01*
X482097Y715319D01*
X481418Y714049D01*
X480151D01*
X479729Y714679D01*
X478133Y715746D01*
X476250Y716121D01*
X474367Y715746D01*
X472771Y714679D01*
X471704Y713083D01*
X471329Y711200D01*
X471704Y709317D01*
X472771Y707721D01*
X474367Y706654D01*
X476250Y706280D01*
X477105Y706450D01*
X477730Y705279D01*
X472472Y700021D01*
X471485Y700830D01*
X472384Y702175D01*
X472758Y704058D01*
X472384Y705941D01*
X471317Y707537D01*
X469721Y708604D01*
X467838Y708978D01*
X465955Y708604D01*
X464359Y707537D01*
X463809Y706715D01*
X443202D01*
X443202Y706715D01*
X442112Y706498D01*
X441187Y705880D01*
X441187Y705880D01*
X430962Y695655D01*
X430219Y695803D01*
X428336Y695429D01*
X426739Y694362D01*
X425673Y692766D01*
X425298Y690883D01*
X425673Y689000D01*
X426739Y687403D01*
X428336Y686337D01*
X430219Y685962D01*
X432102Y686337D01*
X433698Y687403D01*
X434765Y689000D01*
X435139Y690883D01*
X434991Y691627D01*
X438457Y695093D01*
X439835Y694675D01*
X439954Y694077D01*
X441021Y692481D01*
X442617Y691414D01*
X444500Y691040D01*
X446383Y691414D01*
X447979Y692481D01*
X448401Y693111D01*
X472440D01*
X472440Y693111D01*
X473530Y693328D01*
X474454Y693946D01*
X480670Y700162D01*
X481886Y699793D01*
X481955Y699443D01*
X483022Y697847D01*
X484618Y696780D01*
X486501Y696405D01*
X488384Y696780D01*
X489981Y697847D01*
X490402Y698477D01*
X493834D01*
X495499Y696812D01*
Y692073D01*
X494379Y691474D01*
X494167Y691616D01*
X492284Y691991D01*
X490401Y691616D01*
X488805Y690549D01*
X487738Y688953D01*
X487364Y687070D01*
X487511Y686326D01*
X484754Y683569D01*
X439166D01*
X438076Y683352D01*
X437152Y682734D01*
X437152Y682734D01*
X416102Y661684D01*
X415484Y660760D01*
X415267Y659670D01*
X415267Y659670D01*
Y620510D01*
X414831Y620219D01*
X413764Y618623D01*
X413390Y616740D01*
X413764Y614857D01*
X414831Y613260D01*
X416427Y612194D01*
X418310Y611819D01*
X420193Y612194D01*
X421790Y613260D01*
X422199Y613872D01*
X432836D01*
X433624Y612694D01*
X435700Y611306D01*
X438150Y610819D01*
X440600Y611306D01*
X442676Y612694D01*
X444064Y614770D01*
X444551Y617220D01*
X444064Y619670D01*
X442676Y621746D01*
X440600Y623134D01*
X438150Y623621D01*
X435700Y623134D01*
X433624Y621746D01*
X432515Y620088D01*
X421878D01*
X421790Y620219D01*
X420965Y620770D01*
Y658490D01*
X440346Y677871D01*
X485934D01*
X485934Y677871D01*
X487024Y678088D01*
X487948Y678706D01*
X491540Y682297D01*
X492284Y682150D01*
X494167Y682524D01*
X494379Y682666D01*
X495499Y682067D01*
Y618908D01*
X495165Y618574D01*
X492851D01*
X492429Y619205D01*
X490833Y620271D01*
X488950Y620646D01*
X487067Y620271D01*
X485471Y619205D01*
X484404Y617608D01*
X484030Y615725D01*
X484404Y613842D01*
X485471Y612246D01*
X487067Y611179D01*
X488950Y610805D01*
X490833Y611179D01*
X492429Y612246D01*
X492851Y612877D01*
X496345D01*
X496345Y612876D01*
X497435Y613093D01*
X497531Y613157D01*
X498801Y612478D01*
Y598327D01*
X497628Y597841D01*
X495564Y599906D01*
X495600Y600274D01*
X496667Y601871D01*
X497041Y603754D01*
X496667Y605637D01*
X495600Y607233D01*
X494004Y608300D01*
X492121Y608674D01*
X490238Y608300D01*
X488642Y607233D01*
X488416Y606896D01*
X486931Y606660D01*
X485753Y607447D01*
X483870Y607822D01*
X481987Y607447D01*
X481775Y607305D01*
X480655Y607904D01*
Y645734D01*
X480655Y645734D01*
X480438Y646824D01*
X479820Y647748D01*
X479820Y647748D01*
X465932Y661637D01*
X465647Y661827D01*
X465556Y662283D01*
X464489Y663879D01*
X462893Y664946D01*
X461010Y665321D01*
X459127Y664946D01*
X457531Y663879D01*
X456464Y662283D01*
X456090Y660400D01*
X456464Y658517D01*
X457531Y656921D01*
X459127Y655854D01*
X461010Y655480D01*
X462893Y655854D01*
X463351Y656160D01*
X465308Y654203D01*
X465292Y653784D01*
X464839Y652876D01*
X464646Y652874D01*
X463210Y653833D01*
X461328Y654208D01*
X459445Y653833D01*
X457848Y652767D01*
X456782Y651171D01*
X456407Y649287D01*
X456782Y647404D01*
X457848Y645808D01*
X459445Y644742D01*
X461328Y644367D01*
X463210Y644742D01*
X464807Y645808D01*
X465228Y646439D01*
X467132D01*
X471655Y641916D01*
Y599022D01*
X471655Y599021D01*
X471872Y597931D01*
X472490Y597007D01*
X478421Y591076D01*
X478421Y591076D01*
X479345Y590458D01*
X480435Y590241D01*
X480436Y590241D01*
X482690D01*
X491435Y581496D01*
Y540727D01*
X491435Y540727D01*
X491652Y539637D01*
X492270Y538713D01*
X512771Y518211D01*
Y316793D01*
X504908D01*
X504523Y318063D01*
X505154Y318484D01*
X506220Y320081D01*
X506595Y321964D01*
X506220Y323847D01*
X505229Y325331D01*
Y334296D01*
X505012Y335386D01*
X504394Y336310D01*
X504394Y336311D01*
X499600Y341104D01*
X498676Y341722D01*
X497586Y341939D01*
X497586Y341939D01*
X490224D01*
Y347208D01*
X462668D01*
Y336052D01*
X490224D01*
Y336241D01*
X495440D01*
X495565Y334971D01*
X494433Y334746D01*
X492837Y333679D01*
X491770Y332083D01*
X491665Y331556D01*
X490224D01*
Y334508D01*
X462668D01*
Y323352D01*
X490224D01*
Y325858D01*
X493723D01*
X493723Y325858D01*
X494035Y325920D01*
X494433Y325654D01*
X496316Y325280D01*
X496595Y325335D01*
X497359Y324192D01*
X497128Y323847D01*
X496754Y321964D01*
X497075Y320349D01*
X496386Y319079D01*
X490224D01*
Y321808D01*
X462668D01*
Y310652D01*
X490224D01*
Y313381D01*
X497652D01*
X499104Y311930D01*
X499104Y311930D01*
X500028Y311312D01*
X500630Y311192D01*
X500921Y309860D01*
X500457Y309549D01*
X499390Y307953D01*
X499077Y306381D01*
X490224D01*
Y309108D01*
X462668D01*
Y298748D01*
X461398Y298222D01*
X453932Y305687D01*
X452672Y306529D01*
X451224Y306817D01*
X451224Y308936D01*
X451986Y309890D01*
X451986Y310062D01*
Y315214D01*
X422906D01*
X422906Y309890D01*
X423668Y308936D01*
X423668Y308620D01*
Y297952D01*
X450680D01*
X459279Y289353D01*
X460539Y288511D01*
X462026Y288215D01*
X480743D01*
X481733Y287554D01*
X483616Y287180D01*
X485499Y287554D01*
X487095Y288621D01*
X488162Y290217D01*
X488536Y292100D01*
X488162Y293983D01*
X487095Y295579D01*
X485499Y296646D01*
X485318Y296682D01*
X485443Y297952D01*
X490224D01*
Y300679D01*
X500298D01*
X501389Y300896D01*
X502266Y301482D01*
X503936Y301150D01*
X505819Y301524D01*
X507415Y302591D01*
X508482Y304187D01*
X508857Y306070D01*
X508482Y307953D01*
X507415Y309549D01*
X507002Y309825D01*
X507388Y311095D01*
X512771D01*
Y275590D01*
X512771Y275590D01*
X512988Y274500D01*
X513606Y273576D01*
X522496Y264686D01*
X522496Y264686D01*
X523420Y264068D01*
X524510Y263851D01*
X524510Y263851D01*
X560603D01*
X560612Y263783D01*
X561738Y261064D01*
X563529Y258729D01*
X565864Y256938D01*
X568582Y255812D01*
X571500Y255428D01*
X574417Y255812D01*
X577136Y256938D01*
X579471Y258729D01*
X580340Y259862D01*
X581610Y259431D01*
Y249710D01*
X580408Y249302D01*
X580014Y249814D01*
X577520Y251728D01*
X574617Y252931D01*
X572770Y253174D01*
Y241300D01*
Y229426D01*
X574617Y229669D01*
X577520Y230872D01*
X580014Y232786D01*
X580408Y233298D01*
X581610Y232890D01*
Y223570D01*
X568960D01*
X567969Y223373D01*
X567129Y222811D01*
X566567Y221971D01*
X566370Y220980D01*
Y216040D01*
X547556D01*
Y205500D01*
Y194960D01*
X566370D01*
Y160640D01*
X547556D01*
Y150100D01*
Y139560D01*
X566370D01*
Y134620D01*
X566567Y133629D01*
X567129Y132789D01*
X567969Y132227D01*
X568960Y132030D01*
X581610D01*
Y2590D01*
X265624D01*
X264703Y3810D01*
Y15240D01*
X264565Y15934D01*
X264172Y16522D01*
X263584Y16915D01*
X262890Y17053D01*
X254751D01*
X249463Y22341D01*
Y64770D01*
X249325Y65464D01*
X248932Y66052D01*
X246392Y68592D01*
X245804Y68985D01*
X245110Y69123D01*
X234950D01*
X234256Y68985D01*
X233668Y68592D01*
X231128Y66052D01*
X230735Y65464D01*
X230597Y64770D01*
Y53362D01*
X229610Y52993D01*
X229327Y52937D01*
X227712Y54016D01*
X225750Y54406D01*
X223788Y54016D01*
X222125Y52905D01*
X221014Y51242D01*
X220623Y49280D01*
X221014Y47318D01*
X222125Y45655D01*
X223788Y44544D01*
X225750Y44153D01*
X227712Y44544D01*
X229327Y45623D01*
X229610Y45567D01*
X230597Y45198D01*
Y22341D01*
X229119Y20863D01*
X164581D01*
X163103Y22341D01*
Y45198D01*
X164090Y45567D01*
X164373Y45623D01*
X165988Y44544D01*
X167950Y44153D01*
X169912Y44544D01*
X171575Y45655D01*
X172686Y47318D01*
X173076Y49280D01*
X172686Y51242D01*
X171575Y52905D01*
X169912Y54016D01*
X167950Y54406D01*
X165988Y54016D01*
X164373Y52937D01*
X164090Y52993D01*
X163103Y53362D01*
Y64770D01*
X162965Y65464D01*
X162572Y66052D01*
X162572Y66052D01*
X160032Y68592D01*
X159444Y68985D01*
X158750Y69123D01*
X153154D01*
X152769Y70393D01*
X152831Y70435D01*
X153590Y71570D01*
X153898Y72031D01*
X155273Y72431D01*
X155956Y72295D01*
X157839Y72670D01*
X159435Y73737D01*
X160502Y75333D01*
X160877Y77216D01*
X160502Y79099D01*
X159435Y80695D01*
X157839Y81762D01*
X155956Y82136D01*
X154073Y81762D01*
X152477Y80695D01*
X151718Y79560D01*
X151410Y79099D01*
X150035Y78699D01*
X149352Y78835D01*
X147469Y78460D01*
X147257Y78318D01*
X146137Y78917D01*
Y110019D01*
X147112Y110416D01*
X147407Y110439D01*
X176040Y81806D01*
X176040Y81806D01*
X176964Y81188D01*
X178054Y80971D01*
X178054Y80971D01*
X250280D01*
X252421Y78830D01*
Y46990D01*
X252421Y46990D01*
X252638Y45900D01*
X253256Y44976D01*
X257066Y41166D01*
X257990Y40548D01*
X259080Y40331D01*
X259080Y40331D01*
X265339D01*
X265761Y39701D01*
X267357Y38634D01*
X269240Y38259D01*
X271123Y38634D01*
X272719Y39701D01*
X273786Y41297D01*
X274160Y43180D01*
X273786Y45063D01*
X272719Y46659D01*
X271123Y47726D01*
X269240Y48101D01*
X267357Y47726D01*
X265761Y46659D01*
X265339Y46029D01*
X260260D01*
X258119Y48170D01*
Y49163D01*
X259080Y50257D01*
X267970D01*
X268664Y50395D01*
X269252Y50788D01*
X270026Y51562D01*
X270994D01*
X271768Y50788D01*
X272356Y50395D01*
X273050Y50257D01*
X290079D01*
X297168Y43168D01*
X297756Y42775D01*
X298450Y42637D01*
X318770D01*
X319464Y42775D01*
X320052Y43168D01*
X325132Y48248D01*
X325525Y48836D01*
X325663Y49530D01*
Y68580D01*
X325525Y69274D01*
X325132Y69862D01*
X324544Y70255D01*
X323850Y70393D01*
X295391D01*
X292643Y73141D01*
Y79315D01*
X295177D01*
X296210Y77770D01*
X298286Y76382D01*
X300736Y75895D01*
X303186Y76382D01*
X305262Y77770D01*
X306650Y79846D01*
X307137Y82296D01*
X306650Y84746D01*
X305262Y86822D01*
X303186Y88210D01*
X300736Y88697D01*
X298286Y88210D01*
X296210Y86822D01*
X295347Y85531D01*
X292643D01*
Y98402D01*
X293763Y99001D01*
X294027Y98824D01*
X295910Y98449D01*
X297793Y98824D01*
X299389Y99891D01*
X300456Y101487D01*
X300830Y103370D01*
X300743Y103808D01*
X301087Y104152D01*
X301761Y105161D01*
X301998Y106350D01*
Y123975D01*
X301761Y125165D01*
X301087Y126173D01*
X290561Y136699D01*
X290648Y137137D01*
X290273Y139021D01*
X289207Y140617D01*
X288858Y140850D01*
Y175243D01*
X310966Y197351D01*
X311404Y197264D01*
X313287Y197638D01*
X314883Y198705D01*
X315950Y200301D01*
X316325Y202184D01*
X315950Y204067D01*
X314883Y205663D01*
X313287Y206730D01*
X311404Y207104D01*
X309521Y206730D01*
X307925Y205663D01*
X306858Y204067D01*
X306483Y202184D01*
X306571Y201746D01*
X283552Y178727D01*
X282879Y177719D01*
X282642Y176530D01*
Y140880D01*
X282248Y140617D01*
X281182Y139021D01*
X280807Y137137D01*
X281182Y135254D01*
X282248Y133658D01*
X283845Y132591D01*
X285728Y132217D01*
X286166Y132304D01*
X295782Y122688D01*
Y108265D01*
X294027Y107916D01*
X292431Y106849D01*
X291942Y106118D01*
X290923Y105473D01*
X290305Y105780D01*
X290254Y105815D01*
X289560Y105953D01*
X281940D01*
X281246Y105815D01*
X280658Y105422D01*
X274308Y99072D01*
X273964Y98556D01*
X273744Y98703D01*
X273050Y98841D01*
X260103D01*
X237892Y121052D01*
X217728Y141216D01*
X218146Y142594D01*
X219053Y142774D01*
X220649Y143841D01*
X221716Y145437D01*
X222090Y147320D01*
X221716Y149203D01*
X220649Y150799D01*
X219053Y151866D01*
X217170Y152240D01*
X215287Y151866D01*
X213691Y150799D01*
X212624Y149203D01*
X212444Y148296D01*
X211066Y147878D01*
X196710Y162233D01*
Y314267D01*
X197693Y314664D01*
X197980Y314686D01*
X204182Y308484D01*
X204414Y307317D01*
X205481Y305721D01*
X207077Y304654D01*
X208061Y304458D01*
X220626Y291893D01*
X221886Y291051D01*
X223373Y290755D01*
X380157D01*
X380264Y290217D01*
X381331Y288621D01*
X382927Y287554D01*
X384810Y287180D01*
X386693Y287554D01*
X388289Y288621D01*
X389356Y290217D01*
X389730Y292100D01*
X389356Y293983D01*
X388289Y295579D01*
X386693Y296646D01*
X385478Y296888D01*
X384979Y297387D01*
X383718Y298229D01*
X382232Y298525D01*
X224982D01*
X213775Y309731D01*
X213506Y311083D01*
X212439Y312679D01*
X210843Y313746D01*
X209676Y313978D01*
X204545Y319109D01*
Y335608D01*
X205815Y335994D01*
X206071Y335611D01*
X207667Y334544D01*
X209550Y334170D01*
X211433Y334544D01*
X213029Y335611D01*
X213875Y336876D01*
X314325D01*
X314325Y336876D01*
X315415Y337093D01*
X316339Y337711D01*
X386449Y407820D01*
X386449Y407820D01*
X387066Y408744D01*
X387283Y409834D01*
X387283Y409834D01*
Y413929D01*
X387914Y414351D01*
X388980Y415947D01*
X389355Y417830D01*
X388980Y419713D01*
X387914Y421309D01*
X387881Y421331D01*
X388266Y422601D01*
X394970D01*
X394970Y422601D01*
X396060Y422818D01*
X396984Y423436D01*
X402064Y428516D01*
X402064Y428516D01*
X402281Y428840D01*
X403551Y428455D01*
Y294550D01*
X383979Y274978D01*
X314988D01*
X314988Y274978D01*
X313898Y274761D01*
X312974Y274143D01*
X300246Y261415D01*
X299628Y260491D01*
X299411Y259401D01*
X299411Y259401D01*
Y209460D01*
X290637Y200686D01*
X289561Y201406D01*
X290069Y202632D01*
X290177Y203454D01*
X284226D01*
Y197503D01*
X285048Y197611D01*
X286275Y198119D01*
X286994Y197043D01*
X265520Y175569D01*
X254091D01*
X253669Y176199D01*
X252073Y177266D01*
X250190Y177640D01*
X248307Y177266D01*
X246711Y176199D01*
X245644Y174603D01*
X245270Y172720D01*
X245644Y170837D01*
X246711Y169241D01*
X248307Y168174D01*
X250190Y167799D01*
X252073Y168174D01*
X253669Y169241D01*
X254091Y169871D01*
X266700D01*
X266700Y169871D01*
X267790Y170088D01*
X268714Y170706D01*
X304274Y206266D01*
X304892Y207190D01*
X305109Y208280D01*
X305109Y208280D01*
Y258221D01*
X316168Y269280D01*
X385159D01*
X385159Y269280D01*
X386249Y269497D01*
X387173Y270115D01*
X408414Y291356D01*
X408414Y291356D01*
X409032Y292280D01*
X409249Y293370D01*
Y424268D01*
X410519Y424947D01*
X410867Y424714D01*
X412750Y424339D01*
X414633Y424714D01*
X416229Y425781D01*
X416478Y426152D01*
X427596D01*
X428544Y424734D01*
X430620Y423346D01*
X433070Y422859D01*
X435520Y423346D01*
X437596Y424734D01*
X438984Y426810D01*
X439471Y429260D01*
X438984Y431710D01*
X437596Y433786D01*
X435520Y435174D01*
X433070Y435661D01*
X430620Y435174D01*
X428544Y433786D01*
X427596Y432368D01*
X416478D01*
X416229Y432739D01*
X414633Y433806D01*
X412750Y434180D01*
X410867Y433806D01*
X410519Y433573D01*
X409249Y434252D01*
Y501866D01*
X410519Y502393D01*
X414546Y498366D01*
X414546Y498366D01*
X415470Y497748D01*
X416560Y497531D01*
X425540D01*
X454637Y468434D01*
Y466118D01*
X454637Y466118D01*
X454854Y465028D01*
X454859Y465020D01*
Y357886D01*
X454859Y357886D01*
X455076Y356796D01*
X455694Y355872D01*
X459250Y352316D01*
X459250Y352316D01*
X460174Y351698D01*
X461264Y351481D01*
X461264Y351481D01*
X462668D01*
Y348752D01*
X490224D01*
Y359908D01*
X462668D01*
Y358751D01*
X461398Y358225D01*
X460557Y359066D01*
Y465896D01*
X460340Y466986D01*
X460335Y466994D01*
Y469614D01*
X460118Y470704D01*
X459500Y471628D01*
X459500Y471628D01*
X428734Y502394D01*
X427810Y503012D01*
X426720Y503229D01*
X426720Y503229D01*
X417740D01*
X414329Y506640D01*
Y510518D01*
X415599Y510903D01*
X415621Y510871D01*
X417217Y509804D01*
X419100Y509430D01*
X420983Y509804D01*
X422579Y510871D01*
X423001Y511501D01*
X501559D01*
X501981Y510871D01*
X503577Y509804D01*
X505460Y509430D01*
X507343Y509804D01*
X508939Y510871D01*
X510006Y512467D01*
X510381Y514350D01*
X510006Y516233D01*
X508939Y517829D01*
X507343Y518896D01*
X505460Y519271D01*
X503577Y518896D01*
X501981Y517829D01*
X501559Y517199D01*
X423001D01*
X422579Y517829D01*
X420983Y518896D01*
X419100Y519271D01*
X417217Y518896D01*
X415621Y517829D01*
X415599Y517797D01*
X414329Y518182D01*
Y539526D01*
X428734Y553931D01*
X428734Y553931D01*
X429352Y554856D01*
X429513Y555665D01*
X430808Y555665D01*
X431064Y554377D01*
X432131Y552781D01*
X433727Y551714D01*
X435610Y551339D01*
X437493Y551714D01*
X439089Y552781D01*
X439511Y553411D01*
X449933D01*
X450419Y552238D01*
X440780Y542599D01*
X429351D01*
X428929Y543229D01*
X427333Y544296D01*
X425450Y544670D01*
X423567Y544296D01*
X421971Y543229D01*
X420904Y541633D01*
X420530Y539750D01*
X420904Y537867D01*
X421971Y536271D01*
X423567Y535204D01*
X425450Y534829D01*
X427333Y535204D01*
X428929Y536271D01*
X429351Y536901D01*
X441960D01*
X441960Y536901D01*
X443050Y537118D01*
X443974Y537736D01*
X475176Y568937D01*
X481762D01*
X483257Y567938D01*
X485140Y567564D01*
X487023Y567938D01*
X488619Y569005D01*
X489686Y570601D01*
X490061Y572484D01*
X489686Y574367D01*
X488619Y575963D01*
X487023Y577030D01*
X485140Y577405D01*
X483257Y577030D01*
X481661Y575963D01*
X481112Y575142D01*
X480515Y575162D01*
X480287Y575348D01*
X479615Y576415D01*
X479901Y577850D01*
X479526Y579733D01*
X478459Y581329D01*
X476863Y582396D01*
X474980Y582771D01*
X473097Y582396D01*
X471501Y581329D01*
X470434Y579733D01*
X470060Y577850D01*
X470207Y577106D01*
X452210Y559109D01*
X439511D01*
X439089Y559739D01*
X437493Y560806D01*
X435610Y561180D01*
X433727Y560806D01*
X432131Y559739D01*
X431064Y558143D01*
X430839Y557010D01*
X429569Y557136D01*
Y567599D01*
X430199Y568021D01*
X431266Y569617D01*
X431641Y571500D01*
X431266Y573383D01*
X430199Y574979D01*
X428603Y576046D01*
X426720Y576421D01*
X425865Y576250D01*
X425240Y577421D01*
X460202Y612383D01*
X461667Y611404D01*
X463550Y611030D01*
X465433Y611404D01*
X467029Y612471D01*
X468096Y614067D01*
X468470Y615950D01*
X468096Y617833D01*
X467029Y619429D01*
X465433Y620496D01*
X463550Y620871D01*
X461667Y620496D01*
X460071Y619429D01*
X459502Y618579D01*
X458434Y618366D01*
X457510Y617749D01*
X404386Y564624D01*
X403768Y563700D01*
X403551Y562610D01*
X403551Y562610D01*
Y518182D01*
X402281Y517797D01*
X402259Y517829D01*
X400663Y518896D01*
X398780Y519271D01*
X396897Y518896D01*
X395301Y517829D01*
X394234Y516233D01*
X393859Y514350D01*
X394234Y512467D01*
X395301Y510871D01*
X396280Y510216D01*
Y509016D01*
X396280Y509016D01*
X396497Y507926D01*
X397114Y507002D01*
X397201Y506915D01*
Y431710D01*
X393790Y428299D01*
X372520D01*
X372520Y428299D01*
X371430Y428082D01*
X370506Y427464D01*
X370506Y427464D01*
X319270Y376229D01*
X213451D01*
X213029Y376859D01*
X211433Y377926D01*
X209550Y378301D01*
X207667Y377926D01*
X206071Y376859D01*
X205815Y376476D01*
X204545Y376861D01*
Y415215D01*
X214094D01*
X214279Y414939D01*
X216355Y413551D01*
X218805Y413064D01*
X221255Y413551D01*
X223331Y414939D01*
X224719Y417015D01*
X225206Y419465D01*
X224719Y421914D01*
X223331Y423991D01*
X223055Y424176D01*
Y437642D01*
X232537D01*
Y453898D01*
X230565D01*
Y459431D01*
X231856Y460294D01*
X233244Y462370D01*
X233731Y464820D01*
X233244Y467270D01*
X231856Y469346D01*
X229780Y470734D01*
X227330Y471221D01*
X225657Y470888D01*
X214968Y481577D01*
X213960Y482251D01*
X213880Y482267D01*
X213029Y483539D01*
X211433Y484606D01*
X209550Y484981D01*
X207667Y484606D01*
X206071Y483539D01*
X205815Y483156D01*
X204545Y483541D01*
Y488165D01*
X204678Y488366D01*
X205053Y490248D01*
X204678Y492132D01*
X203612Y493728D01*
X202015Y494795D01*
X200133Y495169D01*
X198249Y494795D01*
X197831Y494515D01*
X196710Y495113D01*
Y498025D01*
X205493Y506808D01*
X230103Y482198D01*
X230103Y482198D01*
X232036Y480907D01*
X234315Y480453D01*
X234315Y480453D01*
X367103D01*
X377584Y469973D01*
Y435610D01*
X378037Y433331D01*
X379328Y431398D01*
X381261Y430107D01*
X383540Y429654D01*
X385819Y430107D01*
X387752Y431398D01*
X389043Y433331D01*
X389496Y435610D01*
Y472440D01*
X389043Y474720D01*
X387752Y476652D01*
X373782Y490622D01*
X371850Y491913D01*
X369570Y492366D01*
X236782D01*
X211696Y517452D01*
Y640153D01*
X227021Y655477D01*
X227389Y655550D01*
X227977Y655943D01*
X238772Y666738D01*
X239165Y667326D01*
X239303Y668020D01*
X239303Y674921D01*
X240573Y675619D01*
X242167Y675302D01*
X244051Y675676D01*
X245647Y676743D01*
X246714Y678339D01*
X247088Y680222D01*
X246714Y682105D01*
X245647Y683701D01*
X244809Y684261D01*
Y686572D01*
X244809Y686572D01*
X244592Y687662D01*
X243975Y688586D01*
X232682Y699879D01*
X231758Y700497D01*
X230668Y700714D01*
X230667Y700714D01*
X197485D01*
X197485Y700714D01*
X196395Y700497D01*
X195471Y699879D01*
X195471Y699879D01*
X178418Y682827D01*
X177226Y683431D01*
X176909Y685023D01*
X175843Y686619D01*
X174246Y687686D01*
X172363Y688061D01*
X170480Y687686D01*
X168884Y686619D01*
X167817Y685023D01*
X167443Y683140D01*
X167817Y681257D01*
X168884Y679661D01*
X170480Y678594D01*
X172073Y678277D01*
X172677Y677085D01*
X160546Y664954D01*
X160329Y664630D01*
X159059Y665015D01*
Y716280D01*
X159059Y716280D01*
X158842Y717370D01*
X158224Y718294D01*
X144254Y732264D01*
X143330Y732882D01*
X142240Y733099D01*
X142240Y733099D01*
X139791D01*
X139369Y733729D01*
X137773Y734796D01*
X135890Y735171D01*
X134007Y734796D01*
X133303Y734326D01*
X22420Y845209D01*
X22462Y845264D01*
X23588Y847982D01*
X23972Y850900D01*
X23588Y853818D01*
X22462Y856536D01*
X20671Y858871D01*
X18336Y860662D01*
X15618Y861788D01*
X12700Y862172D01*
X9783Y861788D01*
X7064Y860662D01*
X4729Y858871D01*
X3860Y857738D01*
X2590Y858169D01*
Y867890D01*
X3792Y868298D01*
X4186Y867786D01*
X6679Y865872D01*
X9584Y864669D01*
X11684Y864393D01*
Y876300D01*
Y888207D01*
X9584Y887931D01*
X6679Y886728D01*
X4186Y884814D01*
X3792Y884302D01*
X2590Y884710D01*
Y894431D01*
X3860Y894862D01*
X4729Y893729D01*
X7064Y891938D01*
X9783Y890812D01*
X12700Y890428D01*
X15618Y890812D01*
X18336Y891938D01*
X20671Y893729D01*
X22462Y896064D01*
X23588Y898783D01*
X23972Y901700D01*
X23588Y904617D01*
X22462Y907336D01*
X20671Y909671D01*
X18336Y911462D01*
X15618Y912588D01*
X12700Y912972D01*
X9783Y912588D01*
X7064Y911462D01*
X4729Y909671D01*
X3860Y908538D01*
X2590Y908969D01*
Y919831D01*
X3860Y920262D01*
X4729Y919129D01*
X7064Y917338D01*
X9783Y916212D01*
X12700Y915828D01*
X15618Y916212D01*
X18336Y917338D01*
X20671Y919129D01*
X22462Y921464D01*
X23588Y924183D01*
X23972Y927100D01*
X23588Y930017D01*
X22462Y932736D01*
X20671Y935071D01*
X18336Y936862D01*
X15618Y937988D01*
X12700Y938372D01*
X9783Y937988D01*
X7064Y936862D01*
X4729Y935071D01*
X3860Y933938D01*
X2590Y934369D01*
Y945231D01*
X3860Y945662D01*
X4729Y944529D01*
X7064Y942738D01*
X9783Y941612D01*
X12700Y941228D01*
X15618Y941612D01*
X18336Y942738D01*
X20671Y944529D01*
X22462Y946864D01*
X23588Y949583D01*
X23972Y952500D01*
X23588Y955417D01*
X22462Y958136D01*
X20671Y960471D01*
X18336Y962262D01*
X15618Y963388D01*
X12700Y963772D01*
X9783Y963388D01*
X7064Y962262D01*
X4729Y960471D01*
X3860Y959338D01*
X2590Y959769D01*
Y970631D01*
X3860Y971062D01*
X4729Y969929D01*
X7064Y968138D01*
X9783Y967012D01*
X12700Y966628D01*
X15618Y967012D01*
X18336Y968138D01*
X20671Y969929D01*
X22462Y972264D01*
X23588Y974983D01*
X23972Y977900D01*
X23588Y980817D01*
X22462Y983536D01*
X20671Y985871D01*
X18336Y987662D01*
X15618Y988788D01*
X12700Y989172D01*
X9783Y988788D01*
X7064Y987662D01*
X4729Y985871D01*
X3860Y984738D01*
X2590Y985169D01*
Y996031D01*
X3860Y996462D01*
X4729Y995329D01*
X7064Y993538D01*
X9783Y992412D01*
X12700Y992028D01*
X15618Y992412D01*
X18336Y993538D01*
X20671Y995329D01*
X22462Y997664D01*
X23588Y1000383D01*
X23972Y1003300D01*
X23588Y1006217D01*
X22462Y1008936D01*
X20671Y1011271D01*
X18336Y1013062D01*
X15618Y1014188D01*
X12700Y1014572D01*
X9783Y1014188D01*
X7064Y1013062D01*
X4729Y1011271D01*
X3860Y1010138D01*
X2590Y1010569D01*
Y1076910D01*
X246330D01*
Y1064260D01*
X246527Y1063269D01*
X247089Y1062429D01*
X247929Y1061867D01*
X248920Y1061670D01*
X253860D01*
Y1043406D01*
X274940D01*
Y1061670D01*
X309260D01*
Y1043406D01*
X330340D01*
Y1061670D01*
X335280D01*
X336271Y1061867D01*
X337111Y1062429D01*
X337673Y1063269D01*
X337870Y1064260D01*
Y1076910D01*
X572766D01*
X573346Y1075640D01*
D02*
G37*
G36*
X536901Y975450D02*
Y891562D01*
X535631Y891177D01*
X535609Y891209D01*
X534013Y892276D01*
X532130Y892651D01*
X530247Y892276D01*
X528651Y891209D01*
X527584Y889613D01*
X527233Y887846D01*
X523515Y884129D01*
X523181Y884183D01*
X522279Y884688D01*
Y978825D01*
X522909Y979247D01*
X523976Y980843D01*
X524351Y982726D01*
X523976Y984609D01*
X522909Y986205D01*
X521313Y987272D01*
X519430Y987646D01*
X517547Y987272D01*
X516599Y986638D01*
X515456Y987402D01*
X515618Y988217D01*
X515243Y990100D01*
X514176Y991696D01*
X512580Y992763D01*
X510697Y993138D01*
X508814Y992763D01*
X507218Y991696D01*
X506151Y990100D01*
X505777Y988217D01*
X506151Y986334D01*
X507218Y984738D01*
X507848Y984316D01*
Y977743D01*
X507848Y977743D01*
X508065Y976653D01*
X508683Y975729D01*
X512136Y972275D01*
Y946491D01*
X510866Y946106D01*
X510209Y947089D01*
X508613Y948156D01*
X506730Y948531D01*
X504847Y948156D01*
X503251Y947089D01*
X502184Y945493D01*
X501810Y943610D01*
X501284Y942970D01*
X490523D01*
X490348Y942935D01*
X477687D01*
X477512Y942970D01*
X464164D01*
X463073Y942753D01*
X462148Y942134D01*
X398118Y878105D01*
X303414D01*
X302323Y877888D01*
X301398Y877270D01*
X299322Y875194D01*
X294365D01*
X293273Y874977D01*
X292348Y874358D01*
X290488Y872498D01*
X289747Y872645D01*
X287864Y872271D01*
X286268Y871204D01*
X285201Y869608D01*
X284827Y867725D01*
X285201Y865842D01*
X286268Y864246D01*
X287864Y863179D01*
X289747Y862804D01*
X291630Y863179D01*
X292908Y864033D01*
X293808Y863969D01*
X294386Y863694D01*
X295288Y862343D01*
X296884Y861276D01*
X298768Y860902D01*
X300651Y861276D01*
X302247Y862343D01*
X303314Y863940D01*
X303688Y865823D01*
X303541Y866563D01*
X305997Y869019D01*
X400701D01*
X401792Y869236D01*
X402717Y869855D01*
X466746Y933884D01*
X475971D01*
X476146Y933849D01*
X491890D01*
X492064Y933884D01*
X501519D01*
X502044Y933243D01*
X502419Y931360D01*
X503485Y929764D01*
X505082Y928697D01*
X506965Y928323D01*
X508848Y928697D01*
X510444Y929764D01*
X510866Y930396D01*
X512136Y930011D01*
Y892193D01*
X510866Y891514D01*
X510201Y891958D01*
X508317Y892333D01*
X506435Y891958D01*
X504838Y890892D01*
X503772Y889296D01*
X503397Y887412D01*
X503513Y886831D01*
X470701Y854020D01*
X378478D01*
X376991Y853724D01*
X375731Y852882D01*
X291019Y768171D01*
X229029D01*
X228543Y769344D01*
X242044Y782846D01*
X242044Y782846D01*
X242662Y783770D01*
X242879Y784860D01*
X242879Y784860D01*
Y792389D01*
X243509Y792811D01*
X244576Y794407D01*
X244951Y796290D01*
X244597Y798068D01*
X244630Y798375D01*
X245145Y799338D01*
X251968D01*
Y799654D01*
X253141Y800141D01*
X272341Y780941D01*
X272341Y780941D01*
X273265Y780323D01*
X274356Y780106D01*
X285750D01*
X285750Y780106D01*
X286840Y780323D01*
X287764Y780941D01*
X291991Y785167D01*
X292735Y785020D01*
X294618Y785394D01*
X296214Y786461D01*
X297281Y788057D01*
X297656Y789940D01*
X297281Y791823D01*
X296214Y793419D01*
X294618Y794486D01*
X292735Y794861D01*
X290852Y794486D01*
X289256Y793419D01*
X288524Y792325D01*
X287111Y792217D01*
X287055Y792237D01*
X286689Y792784D01*
X285093Y793851D01*
X283210Y794225D01*
X281327Y793851D01*
X279731Y792784D01*
X279309Y792154D01*
X275500D01*
X270184Y797470D01*
Y799338D01*
X275463D01*
Y801061D01*
X276860D01*
X276860Y801061D01*
X277950Y801278D01*
X278874Y801896D01*
X295384Y818406D01*
X295384Y818406D01*
X296002Y819330D01*
X296219Y820420D01*
X296219Y820420D01*
Y823663D01*
X297896Y824784D01*
X299284Y826860D01*
X299771Y829310D01*
X299284Y831760D01*
X297896Y833836D01*
X295820Y835224D01*
X293370Y835711D01*
X290920Y835224D01*
X288844Y833836D01*
X287456Y831760D01*
X286969Y829310D01*
X287456Y826860D01*
X288844Y824784D01*
X290521Y823663D01*
Y821600D01*
X276733Y807812D01*
X275596Y808283D01*
X275463Y809498D01*
Y809752D01*
X275463D01*
Y819912D01*
X270184D01*
Y829945D01*
X270184Y829945D01*
X269967Y831035D01*
X269349Y831959D01*
X269349Y831959D01*
X252204Y849104D01*
X251280Y849722D01*
X250190Y849939D01*
X250190Y849939D01*
X240121D01*
X239699Y850569D01*
X238599Y851304D01*
X238558Y851830D01*
X238700Y852713D01*
X240096Y853646D01*
X241162Y855242D01*
X241537Y857125D01*
X241389Y857869D01*
X244271Y860751D01*
X261529D01*
X261951Y860121D01*
X263547Y859054D01*
X265430Y858680D01*
X267313Y859054D01*
X268909Y860121D01*
X269976Y861717D01*
X270350Y863600D01*
X269976Y865483D01*
X268909Y867079D01*
X267313Y868146D01*
X265430Y868521D01*
X263547Y868146D01*
X261951Y867079D01*
X261529Y866449D01*
X243091D01*
X242001Y866232D01*
X241077Y865614D01*
X241077Y865614D01*
X237360Y861898D01*
X236616Y862046D01*
X234733Y861671D01*
X233137Y860605D01*
X232070Y859008D01*
X231696Y857125D01*
X232070Y855242D01*
X233137Y853646D01*
X234237Y852911D01*
X234278Y852385D01*
X234136Y851502D01*
X232741Y850569D01*
X231674Y848973D01*
X231299Y847090D01*
X231674Y845207D01*
X232741Y843611D01*
X234337Y842544D01*
X236220Y842169D01*
X238103Y842544D01*
X239699Y843611D01*
X240121Y844241D01*
X249010D01*
X264486Y828765D01*
Y819912D01*
X259207D01*
Y809752D01*
X259207D01*
Y809498D01*
X259207D01*
Y803792D01*
X258034Y803306D01*
X254907Y806432D01*
X253983Y807050D01*
X252893Y807267D01*
X251968Y808060D01*
Y809498D01*
X251968D01*
Y809752D01*
X251968D01*
Y819912D01*
X246689D01*
Y829140D01*
X246472Y830230D01*
X245854Y831154D01*
X245854Y831154D01*
X241089Y835919D01*
X240766Y837543D01*
X239699Y839139D01*
X238103Y840206D01*
X236220Y840581D01*
X234337Y840206D01*
X232741Y839139D01*
X231674Y837543D01*
X231299Y835660D01*
X231674Y833777D01*
X232741Y832181D01*
X234337Y831114D01*
X236220Y830740D01*
X237881Y831070D01*
X240991Y827960D01*
Y819912D01*
X235712D01*
Y819912D01*
X234528Y820121D01*
Y821150D01*
X234312Y822241D01*
X233694Y823165D01*
X233694Y823165D01*
X229527Y827331D01*
X229921Y829310D01*
X229434Y831760D01*
X228046Y833836D01*
X225970Y835224D01*
X223520Y835711D01*
X221070Y835224D01*
X218994Y833836D01*
X217606Y831760D01*
X217119Y829310D01*
X217606Y826860D01*
X218994Y824784D01*
X221070Y823396D01*
X223520Y822909D01*
X225499Y823303D01*
X228831Y819970D01*
Y809502D01*
X228831Y809502D01*
X229048Y808411D01*
X229665Y807487D01*
X234157Y802996D01*
X234157Y802996D01*
X235081Y802378D01*
X235712Y802253D01*
Y799338D01*
X235712Y799338D01*
X235482Y798163D01*
X235110Y796290D01*
X235484Y794407D01*
X236551Y792811D01*
X237181Y792389D01*
Y786040D01*
X222626Y771485D01*
X159323D01*
X123614Y807194D01*
X122689Y807812D01*
X121599Y808029D01*
X121599Y808029D01*
X85000D01*
X77779Y815250D01*
Y830580D01*
X77779Y830580D01*
X77562Y831670D01*
X76944Y832594D01*
X76944Y832594D01*
X68889Y840650D01*
Y844606D01*
X70009Y845205D01*
X70189Y845084D01*
X71957Y844732D01*
X72206Y844517D01*
X72860Y843571D01*
X72550Y842010D01*
X72924Y840127D01*
X73991Y838531D01*
X75587Y837464D01*
X77470Y837089D01*
X79353Y837464D01*
X80949Y838531D01*
X82016Y840127D01*
X82390Y842010D01*
X82243Y842754D01*
X85389Y845900D01*
X85389Y845900D01*
X86007Y846825D01*
X86224Y847915D01*
Y876611D01*
X86854Y877033D01*
X87921Y878629D01*
X88295Y880512D01*
X87921Y882395D01*
X86854Y883991D01*
X86869Y885481D01*
X87425Y886037D01*
X234769D01*
X234894Y884767D01*
X234337Y884656D01*
X232741Y883589D01*
X231674Y881993D01*
X231442Y880826D01*
X208708Y858092D01*
X207866Y856832D01*
X207570Y855345D01*
Y822029D01*
X191054Y805513D01*
X189887Y805281D01*
X188291Y804214D01*
X187224Y802618D01*
X186849Y800735D01*
X187224Y798852D01*
X188291Y797256D01*
X189887Y796189D01*
X191770Y795815D01*
X193653Y796189D01*
X195249Y797256D01*
X196316Y798852D01*
X196548Y800020D01*
X214202Y817673D01*
X215044Y818933D01*
X215340Y820420D01*
Y853736D01*
X236936Y875332D01*
X238103Y875564D01*
X239699Y876631D01*
X240766Y878227D01*
X241140Y880110D01*
X240766Y881993D01*
X239699Y883589D01*
X238103Y884656D01*
X237546Y884767D01*
X237671Y886037D01*
X356279D01*
X356280Y886037D01*
X357370Y886254D01*
X358294Y886871D01*
X463517Y992094D01*
X463517Y992094D01*
X464134Y993018D01*
X464280Y993752D01*
X465759Y994741D01*
X466447Y995769D01*
X491181D01*
Y994040D01*
X489934Y992995D01*
X488950Y993191D01*
X486500Y992704D01*
X484424Y991316D01*
X483036Y989240D01*
X482549Y986790D01*
X483036Y984340D01*
X484424Y982264D01*
X486500Y980876D01*
X488950Y980389D01*
X491400Y980876D01*
X493476Y982264D01*
X494864Y984340D01*
X495351Y986790D01*
X494957Y988769D01*
X496044Y989856D01*
X496044Y989856D01*
X496662Y990780D01*
X496879Y991870D01*
X496879Y991870D01*
Y995769D01*
X516582D01*
X536901Y975450D01*
D02*
G37*
G36*
X556786Y925086D02*
X556786Y925086D01*
X557710Y924468D01*
X558800Y924251D01*
X560603D01*
X560612Y924183D01*
X561738Y921464D01*
X563529Y919129D01*
X565864Y917338D01*
X568582Y916212D01*
X571500Y915828D01*
X574417Y916212D01*
X577136Y917338D01*
X579471Y919129D01*
X580340Y920262D01*
X581610Y919831D01*
Y908969D01*
X580340Y908538D01*
X579471Y909671D01*
X577136Y911462D01*
X574417Y912588D01*
X571500Y912972D01*
X568582Y912588D01*
X565864Y911462D01*
X563529Y909671D01*
X562061Y907757D01*
X560557Y907464D01*
X551806Y916215D01*
Y928406D01*
X552980Y928892D01*
X556786Y925086D01*
D02*
G37*
G36*
X560278Y899686D02*
X560278Y899686D01*
X560513Y899528D01*
X560612Y898783D01*
X561738Y896064D01*
X563529Y893729D01*
X565864Y891938D01*
X568582Y890812D01*
X571500Y890428D01*
X574417Y890812D01*
X577136Y891938D01*
X579471Y893729D01*
X580340Y894862D01*
X581610Y894431D01*
Y883569D01*
X580340Y883138D01*
X579471Y884271D01*
X577136Y886062D01*
X574417Y887188D01*
X571500Y887572D01*
X568582Y887188D01*
X565864Y886062D01*
X563529Y884271D01*
X561738Y881936D01*
X560612Y879218D01*
X560228Y876300D01*
X560612Y873382D01*
X561738Y870664D01*
X563529Y868329D01*
X565864Y866538D01*
X568582Y865412D01*
X571500Y865028D01*
X574417Y865412D01*
X577136Y866538D01*
X579471Y868329D01*
X580340Y869462D01*
X581610Y869031D01*
Y858169D01*
X580340Y857738D01*
X579471Y858871D01*
X577136Y860662D01*
X574417Y861788D01*
X571500Y862172D01*
X568582Y861788D01*
X565864Y860662D01*
X563529Y858871D01*
X561738Y856536D01*
X560612Y853818D01*
X560228Y850900D01*
X560612Y847982D01*
X561738Y845264D01*
X563529Y842929D01*
X565864Y841138D01*
X568582Y840012D01*
X571500Y839628D01*
X574417Y840012D01*
X577136Y841138D01*
X579471Y842929D01*
X580340Y844062D01*
X581610Y843631D01*
Y832769D01*
X580340Y832338D01*
X579471Y833471D01*
X577136Y835262D01*
X574417Y836388D01*
X571500Y836772D01*
X568582Y836388D01*
X565864Y835262D01*
X563529Y833471D01*
X561738Y831136D01*
X560612Y828418D01*
X560228Y825500D01*
X560612Y822582D01*
X561738Y819864D01*
X563529Y817529D01*
X565864Y815738D01*
X568582Y814612D01*
X571500Y814228D01*
X574417Y814612D01*
X577136Y815738D01*
X579471Y817529D01*
X580340Y818662D01*
X581610Y818231D01*
Y807369D01*
X580340Y806938D01*
X579471Y808071D01*
X577136Y809862D01*
X574417Y810988D01*
X571500Y811372D01*
X568582Y810988D01*
X565864Y809862D01*
X563529Y808071D01*
X561738Y805736D01*
X560612Y803018D01*
X560228Y800100D01*
X560612Y797182D01*
X561738Y794464D01*
X563529Y792129D01*
X565864Y790338D01*
X568582Y789212D01*
X571500Y788828D01*
X574417Y789212D01*
X577136Y790338D01*
X579471Y792129D01*
X580340Y793262D01*
X581610Y792831D01*
Y781969D01*
X580340Y781538D01*
X579471Y782671D01*
X577136Y784462D01*
X574417Y785588D01*
X571500Y785972D01*
X568582Y785588D01*
X565864Y784462D01*
X563529Y782671D01*
X561738Y780336D01*
X560612Y777617D01*
X560228Y774700D01*
X560612Y771783D01*
X561738Y769064D01*
X563529Y766729D01*
X565864Y764938D01*
X568582Y763812D01*
X571500Y763428D01*
X574417Y763812D01*
X577136Y764938D01*
X579471Y766729D01*
X580340Y767862D01*
X581610Y767431D01*
Y756569D01*
X580340Y756138D01*
X579471Y757271D01*
X577136Y759062D01*
X574417Y760188D01*
X571500Y760572D01*
X568582Y760188D01*
X565864Y759062D01*
X563529Y757271D01*
X561738Y754936D01*
X560612Y752217D01*
X560228Y749300D01*
X560612Y746383D01*
X561738Y743664D01*
X563529Y741329D01*
X565864Y739538D01*
X568582Y738412D01*
X571500Y738028D01*
X574417Y738412D01*
X577136Y739538D01*
X579471Y741329D01*
X580340Y742462D01*
X581610Y742031D01*
Y731169D01*
X580340Y730738D01*
X579471Y731871D01*
X577136Y733662D01*
X574417Y734788D01*
X571500Y735172D01*
X568582Y734788D01*
X565864Y733662D01*
X563529Y731871D01*
X561738Y729536D01*
X560612Y726817D01*
X560228Y723900D01*
X560612Y720983D01*
X561738Y718264D01*
X563529Y715929D01*
X565864Y714138D01*
X568582Y713012D01*
X569180Y712933D01*
X569595Y711835D01*
X569595D01*
Y673100D01*
X539115D01*
Y592455D01*
X569595D01*
Y532130D01*
X568554Y531577D01*
X565864Y530462D01*
X563529Y528671D01*
X561738Y526336D01*
X560612Y523618D01*
X560228Y520700D01*
X560612Y517783D01*
X561738Y515064D01*
X563529Y512729D01*
X565864Y510938D01*
X568582Y509812D01*
X571500Y509428D01*
X574417Y509812D01*
X577136Y510938D01*
X579471Y512729D01*
X580340Y513862D01*
X581610Y513431D01*
Y502569D01*
X580340Y502138D01*
X579471Y503271D01*
X577136Y505062D01*
X574417Y506188D01*
X571500Y506572D01*
X568582Y506188D01*
X565864Y505062D01*
X563529Y503271D01*
X561738Y500936D01*
X560612Y498218D01*
X560603Y498149D01*
X553630D01*
X548622Y503157D01*
X549128Y504447D01*
X550523Y504724D01*
X552119Y505791D01*
X553186Y507387D01*
X553560Y509270D01*
X553186Y511153D01*
X552119Y512749D01*
X550523Y513816D01*
X548640Y514190D01*
X548441Y514354D01*
Y531446D01*
X548224Y532537D01*
X547606Y533461D01*
X547606Y533461D01*
X540059Y541008D01*
Y549910D01*
X540059Y549910D01*
X539842Y551000D01*
X539224Y551924D01*
X539224Y551924D01*
X525553Y565596D01*
X526362Y566582D01*
X527707Y565684D01*
X529590Y565309D01*
X531473Y565684D01*
X533069Y566751D01*
X534136Y568347D01*
X534510Y570230D01*
X534136Y572113D01*
X533069Y573709D01*
X531473Y574776D01*
X530761Y574918D01*
X530326Y575967D01*
X530700Y577850D01*
X530326Y579733D01*
X529259Y581329D01*
X527663Y582396D01*
X525780Y582771D01*
X523897Y582396D01*
X522565Y581506D01*
X521295Y581936D01*
Y604696D01*
X521295Y604696D01*
X521078Y605786D01*
X520761Y606261D01*
X521046Y607695D01*
X520672Y609578D01*
X519605Y611174D01*
X518008Y612241D01*
X516125Y612616D01*
X514243Y612241D01*
X513040Y611437D01*
X511770Y611975D01*
Y659220D01*
X511934Y659384D01*
X513411Y659461D01*
X515007Y658394D01*
X516890Y658019D01*
X518773Y658394D01*
X520369Y659461D01*
X521039Y660463D01*
X522526Y660523D01*
X522936Y659910D01*
X524532Y658844D01*
X526415Y658469D01*
X528298Y658844D01*
X529894Y659910D01*
X530961Y661507D01*
X531335Y663390D01*
X531005Y665051D01*
X531644Y665689D01*
X531644Y665689D01*
X532262Y666614D01*
X532478Y667704D01*
X532478Y667704D01*
Y692110D01*
X532478Y692110D01*
X532262Y693201D01*
X531644Y694125D01*
X514531Y711238D01*
X514842Y712723D01*
X515956Y713467D01*
X517023Y715063D01*
X517397Y716946D01*
X517249Y717690D01*
X527794Y728236D01*
X527794Y728236D01*
X528412Y729160D01*
X528629Y730250D01*
X528629Y730250D01*
Y787490D01*
X547670Y806531D01*
X547670Y806531D01*
X548287Y807455D01*
X548504Y808546D01*
X548504Y808546D01*
Y909800D01*
X549678Y910286D01*
X560278Y899686D01*
D02*
G37*
G36*
X268668Y807720D02*
X266001D01*
Y816674D01*
X268668D01*
Y807720D01*
D02*
G37*
G36*
X245173D02*
X242507D01*
Y816674D01*
X245173D01*
Y807720D01*
D02*
G37*
G36*
X64026Y837456D02*
X72081Y829400D01*
Y814070D01*
X72081Y814070D01*
X72298Y812980D01*
X72916Y812056D01*
X81806Y803166D01*
X81806Y803166D01*
X82730Y802548D01*
X83820Y802331D01*
X83820Y802331D01*
X120419D01*
X153406Y769344D01*
X152921Y768171D01*
X113623D01*
X62305Y819489D01*
Y837913D01*
X63575Y838131D01*
X64026Y837456D01*
D02*
G37*
G36*
X4729Y842929D02*
X7064Y841138D01*
X9783Y840012D01*
X12700Y839628D01*
X15618Y840012D01*
X18336Y841138D01*
X18391Y841180D01*
X131336Y728236D01*
X131336Y728236D01*
X131509Y728120D01*
X132411Y726771D01*
X134007Y725704D01*
X135890Y725330D01*
X137773Y725704D01*
X139369Y726771D01*
X139791Y727401D01*
X141060D01*
X153361Y715100D01*
Y652871D01*
X152731Y652449D01*
X151664Y650853D01*
X151290Y648970D01*
X151664Y647087D01*
X152731Y645491D01*
X154327Y644424D01*
X156210Y644050D01*
X158093Y644424D01*
X158441Y644657D01*
X159711Y643978D01*
Y598537D01*
X158441Y597858D01*
X158013Y598144D01*
X156130Y598518D01*
X154247Y598144D01*
X152651Y597077D01*
X151584Y595481D01*
X151209Y593598D01*
X151584Y591715D01*
X152651Y590119D01*
X154247Y589052D01*
X156130Y588677D01*
X158013Y589052D01*
X158441Y589338D01*
X159711Y588659D01*
Y563595D01*
X158441Y563071D01*
X157789Y563611D01*
Y572770D01*
X157572Y573860D01*
X156954Y574784D01*
X156954Y574784D01*
X152565Y579173D01*
X152959Y581152D01*
X152472Y583602D01*
X151084Y585678D01*
X149008Y587066D01*
X146558Y587553D01*
X144108Y587066D01*
X142032Y585678D01*
X140644Y583602D01*
X140157Y581152D01*
X140644Y578702D01*
X142032Y576626D01*
X144108Y575238D01*
X146558Y574751D01*
X148537Y575145D01*
X152091Y571590D01*
Y563632D01*
X151207Y563041D01*
X150140Y561445D01*
X149766Y559562D01*
X150140Y557679D01*
X151207Y556083D01*
X152803Y555016D01*
X154686Y554641D01*
X156569Y555016D01*
X158165Y556083D01*
X158441Y556496D01*
X159711Y556110D01*
Y553038D01*
X158441Y552360D01*
X157585Y552932D01*
X155702Y553306D01*
X153819Y552932D01*
X152223Y551865D01*
X151801Y551235D01*
X149411D01*
X148290Y552912D01*
X146214Y554300D01*
X143764Y554787D01*
X141314Y554300D01*
X139238Y552912D01*
X137850Y550836D01*
X137363Y548386D01*
X137850Y545936D01*
X139238Y543860D01*
X141314Y542472D01*
X143764Y541985D01*
X146214Y542472D01*
X148290Y543860D01*
X149411Y545537D01*
X151801D01*
X152223Y544906D01*
X153819Y543840D01*
X155702Y543465D01*
X157585Y543840D01*
X158441Y544412D01*
X159711Y543733D01*
Y509180D01*
X152169Y501638D01*
X150996Y502124D01*
Y506343D01*
X152069Y507061D01*
X153136Y508657D01*
X153511Y510540D01*
X153136Y512423D01*
X152069Y514019D01*
X150473Y515086D01*
X148590Y515461D01*
X146707Y515086D01*
X145111Y514019D01*
X144044Y512423D01*
X143670Y510540D01*
X144044Y508657D01*
X145111Y507061D01*
X145298Y506935D01*
Y499847D01*
X128196Y482744D01*
X127578Y481820D01*
X127361Y480730D01*
X127361Y480730D01*
Y473792D01*
X101489Y447920D01*
X100330Y448150D01*
X98447Y447776D01*
X96851Y446709D01*
X95784Y445113D01*
X95409Y443230D01*
X95557Y442486D01*
X90260Y437189D01*
X83117D01*
X81996Y438866D01*
X79920Y440254D01*
X77470Y440741D01*
X75020Y440254D01*
X72944Y438866D01*
X71556Y436790D01*
X71069Y434340D01*
X71556Y431890D01*
X72944Y429814D01*
X75020Y428426D01*
X77470Y427939D01*
X79920Y428426D01*
X81996Y429814D01*
X83117Y431491D01*
X91440D01*
X91440Y431491D01*
X92530Y431708D01*
X93454Y432326D01*
X99586Y438457D01*
X100330Y438310D01*
X102213Y438684D01*
X103606Y439615D01*
X104876Y439235D01*
Y180820D01*
X104876Y180819D01*
X104876Y180819D01*
Y165548D01*
X104876Y165547D01*
X105093Y164457D01*
X105710Y163533D01*
X117842Y151402D01*
X118766Y150784D01*
X119856Y150567D01*
X119856Y150567D01*
X138774D01*
X145661Y143680D01*
X145615Y143507D01*
X144885Y142468D01*
X143002Y142843D01*
X141119Y142468D01*
X139523Y141401D01*
X138456Y139805D01*
X138082Y137922D01*
X138456Y136039D01*
X139523Y134443D01*
X140441Y133829D01*
Y65419D01*
X139887Y65309D01*
X138538Y64408D01*
X137637Y63059D01*
X137321Y61468D01*
X137637Y59877D01*
X138538Y58528D01*
X139887Y57627D01*
X141478Y57311D01*
X142967Y57607D01*
X143269Y57578D01*
X144237Y57061D01*
Y37084D01*
X144249Y37027D01*
X143079Y36245D01*
X142012Y34649D01*
X141637Y32766D01*
X142012Y30883D01*
X143079Y29287D01*
X144249Y28505D01*
X144237Y28448D01*
Y3810D01*
X143316Y2590D01*
X11293D01*
X10908Y3860D01*
X11191Y4049D01*
X12286Y5687D01*
X12670Y7620D01*
X12286Y9553D01*
X11191Y11191D01*
X9553Y12286D01*
X7620Y12670D01*
X5687Y12286D01*
X4049Y11191D01*
X3860Y10908D01*
X2590Y11293D01*
Y132030D01*
X15240D01*
X16231Y132227D01*
X17071Y132789D01*
X17633Y133629D01*
X17830Y134620D01*
Y139560D01*
X36044D01*
Y150100D01*
Y160640D01*
X17830D01*
Y194960D01*
X36044D01*
Y205500D01*
Y216040D01*
X17830D01*
Y220980D01*
X17633Y221971D01*
X17071Y222811D01*
X16231Y223373D01*
X15240Y223570D01*
X2590D01*
Y767431D01*
X3860Y767862D01*
X4729Y766729D01*
X7064Y764938D01*
X9783Y763812D01*
X12700Y763428D01*
X15618Y763812D01*
X18336Y764938D01*
X20671Y766729D01*
X22462Y769064D01*
X23588Y771783D01*
X23597Y771851D01*
X33110D01*
X77428Y727533D01*
X76942Y726360D01*
X69846D01*
Y719836D01*
X84846D01*
X85043Y719918D01*
X114396Y690566D01*
X114206Y689610D01*
X114580Y687727D01*
X115647Y686131D01*
X117243Y685064D01*
X118414Y684831D01*
X132891Y670355D01*
X134150Y669513D01*
X135636Y669217D01*
X140634D01*
X141627Y668554D01*
X143510Y668179D01*
X145393Y668554D01*
X146989Y669621D01*
X148056Y671217D01*
X148431Y673100D01*
X148056Y674983D01*
X146989Y676579D01*
X145393Y677646D01*
X143510Y678020D01*
X141627Y677646D01*
X140634Y676983D01*
X137244D01*
X123905Y690322D01*
X123672Y691493D01*
X122605Y693089D01*
X121009Y694156D01*
X119126Y694530D01*
X118594Y694425D01*
X36304Y776714D01*
X35380Y777332D01*
X34290Y777549D01*
X34290Y777549D01*
X23597D01*
X23588Y777617D01*
X22462Y780336D01*
X20671Y782671D01*
X18336Y784462D01*
X15618Y785588D01*
X12700Y785972D01*
X9783Y785588D01*
X7064Y784462D01*
X4729Y782671D01*
X3860Y781538D01*
X2590Y781969D01*
Y792831D01*
X3860Y793262D01*
X4729Y792129D01*
X7064Y790338D01*
X9783Y789212D01*
X12700Y788828D01*
X15618Y789212D01*
X18336Y790338D01*
X19915Y791550D01*
X21132Y791450D01*
X22056Y790832D01*
X23146Y790615D01*
X25776D01*
X112070Y704321D01*
X112070Y704321D01*
X112994Y703704D01*
X114062Y703491D01*
X114631Y702641D01*
X116227Y701574D01*
X117398Y701341D01*
X137444Y681295D01*
X138704Y680453D01*
X140190Y680158D01*
X142389D01*
X143641Y679321D01*
X145524Y678947D01*
X147407Y679321D01*
X149003Y680388D01*
X150070Y681984D01*
X150444Y683867D01*
X150070Y685750D01*
X149003Y687346D01*
X147407Y688413D01*
X145524Y688788D01*
X143641Y688413D01*
X142907Y687923D01*
X141798D01*
X122889Y706832D01*
X122656Y708003D01*
X121589Y709599D01*
X119993Y710666D01*
X118110Y711040D01*
X116227Y710666D01*
X114762Y709687D01*
X28970Y795478D01*
X28046Y796096D01*
X26956Y796313D01*
X26956Y796313D01*
X24441D01*
X23602Y797283D01*
X23972Y800100D01*
X23588Y803018D01*
X22462Y805736D01*
X20671Y808071D01*
X18336Y809862D01*
X15618Y810988D01*
X12700Y811372D01*
X9783Y810988D01*
X7064Y809862D01*
X4729Y808071D01*
X3860Y806938D01*
X2590Y807369D01*
Y818231D01*
X3860Y818662D01*
X4729Y817529D01*
X7064Y815738D01*
X9783Y814612D01*
X12700Y814228D01*
X15618Y814612D01*
X18336Y815738D01*
X20671Y817529D01*
X21936Y819178D01*
X23232Y819321D01*
X24170Y818474D01*
Y812451D01*
X24170Y812451D01*
X24387Y811361D01*
X25005Y810437D01*
X129253Y706188D01*
X129169Y705766D01*
X129543Y703883D01*
X130610Y702286D01*
X132206Y701219D01*
X134089Y700845D01*
X135972Y701219D01*
X137569Y702286D01*
X138635Y703883D01*
X139010Y705766D01*
X138635Y707648D01*
X137569Y709245D01*
X135972Y710312D01*
X134089Y710686D01*
X133025Y710474D01*
X29868Y813631D01*
Y820071D01*
X29868Y820071D01*
X29651Y821161D01*
X29033Y822085D01*
X29033Y822085D01*
X25431Y825687D01*
X24507Y826305D01*
X23849Y826436D01*
X23588Y828418D01*
X22462Y831136D01*
X20671Y833471D01*
X18336Y835262D01*
X15618Y836388D01*
X12700Y836772D01*
X9783Y836388D01*
X7064Y835262D01*
X4729Y833471D01*
X3860Y832338D01*
X2590Y832769D01*
Y843631D01*
X3860Y844062D01*
X4729Y842929D01*
D02*
G37*
G36*
X234487Y690017D02*
X233861Y688847D01*
X233680Y688883D01*
X227330Y688883D01*
X226636Y688745D01*
X226048Y688352D01*
X222238Y684542D01*
X221845Y683954D01*
X221707Y683260D01*
Y667501D01*
X219063Y664857D01*
X218670Y664269D01*
X218597Y663901D01*
X201528Y646832D01*
X200237Y644899D01*
X199783Y642620D01*
Y517946D01*
X186542Y504704D01*
X185251Y502772D01*
X184797Y500492D01*
Y159766D01*
X185251Y157487D01*
X186542Y155554D01*
X229468Y112628D01*
X247386Y94710D01*
X246900Y93537D01*
X185165D01*
X185089Y93649D01*
X183493Y94716D01*
X181610Y95091D01*
X179727Y94716D01*
X178131Y93649D01*
X177064Y92053D01*
X176829Y90870D01*
X175451Y90452D01*
X156668Y109235D01*
X157086Y110613D01*
X158660Y110926D01*
X160736Y112314D01*
X161857Y113991D01*
X164282D01*
X164409Y113906D01*
X166000Y113590D01*
X167591Y113906D01*
X168940Y114807D01*
X169841Y116156D01*
X170158Y117747D01*
X171325Y118390D01*
X172328Y118589D01*
X173676Y119490D01*
X174578Y120839D01*
X174894Y122430D01*
X174764Y123087D01*
X176370Y124693D01*
X177800Y124409D01*
X180250Y124896D01*
X182326Y126284D01*
X183714Y128360D01*
X184201Y130810D01*
X183714Y133260D01*
X182326Y135336D01*
X180250Y136724D01*
X177800Y137211D01*
X175350Y136724D01*
X173274Y135336D01*
X171886Y133260D01*
X171399Y130810D01*
X171886Y128360D01*
X171924Y128304D01*
X170076Y126456D01*
X169146Y126271D01*
X168849Y126073D01*
X161780Y133141D01*
Y483649D01*
X176006Y497875D01*
X176624Y498800D01*
X176842Y499892D01*
Y642709D01*
X206273Y672140D01*
X206891Y673065D01*
X207108Y674156D01*
Y678359D01*
X208893Y678714D01*
X210489Y679781D01*
X211556Y681377D01*
X211931Y683260D01*
X211556Y685143D01*
X210489Y686739D01*
X208893Y687806D01*
X207010Y688180D01*
X205127Y687806D01*
X203531Y686739D01*
X203200Y686245D01*
X201930D01*
X201599Y686739D01*
X200003Y687806D01*
X198120Y688180D01*
X196237Y687806D01*
X194641Y686739D01*
X193574Y685143D01*
X193200Y683260D01*
X193574Y681377D01*
X194641Y679781D01*
X196237Y678714D01*
X198022Y678359D01*
Y676739D01*
X168591Y647308D01*
X167973Y646383D01*
X167756Y645291D01*
Y502474D01*
X153529Y488248D01*
X152911Y487323D01*
X152694Y486231D01*
Y146331D01*
X151424Y145946D01*
X151366Y146032D01*
X141968Y155430D01*
X141044Y156048D01*
X139954Y156265D01*
X139954Y156265D01*
X121036D01*
X110573Y166728D01*
Y180819D01*
X110573Y180819D01*
X110573Y180820D01*
Y444277D01*
X120826Y454530D01*
X121997Y453904D01*
X121847Y453153D01*
Y446916D01*
X121204Y446486D01*
X119816Y444410D01*
X119329Y441960D01*
X119816Y439510D01*
X121204Y437434D01*
X123280Y436046D01*
X125730Y435559D01*
X128180Y436046D01*
X130256Y437434D01*
X131644Y439510D01*
X132131Y441960D01*
X131644Y444410D01*
X130256Y446486D01*
X129613Y446916D01*
Y451074D01*
X130957Y451973D01*
X132024Y453569D01*
X132398Y455452D01*
X132024Y457335D01*
X130957Y458931D01*
X129361Y459998D01*
X128301Y460209D01*
X127883Y461587D01*
X135527Y469230D01*
X136144Y470154D01*
X136361Y471245D01*
X136361Y471245D01*
Y477772D01*
X164574Y505986D01*
X164574Y505986D01*
X165192Y506910D01*
X165409Y508000D01*
X165409Y508000D01*
Y661760D01*
X198665Y695016D01*
X229488D01*
X234487Y690017D01*
D02*
G37*
G36*
X233680Y687070D02*
X237490Y683260D01*
X237490Y668020D01*
X226695Y657225D01*
X220345Y663575D01*
X223520Y666750D01*
Y683260D01*
X227330Y687070D01*
X233680Y687070D01*
D02*
G37*
G36*
X421969Y572355D02*
X421800Y571500D01*
X422174Y569617D01*
X423241Y568021D01*
X423871Y567599D01*
Y557126D01*
X410519Y543773D01*
X409249Y544299D01*
Y561430D01*
X420799Y572980D01*
X421969Y572355D01*
D02*
G37*
G36*
X550436Y493286D02*
X550436Y493286D01*
X551360Y492668D01*
X552450Y492451D01*
X552450Y492451D01*
X560603D01*
X560612Y492383D01*
X561738Y489664D01*
X563529Y487329D01*
X565864Y485538D01*
X568582Y484412D01*
X571500Y484028D01*
X574417Y484412D01*
X577136Y485538D01*
X579471Y487329D01*
X580340Y488462D01*
X581610Y488031D01*
Y477169D01*
X580340Y476738D01*
X579471Y477871D01*
X577136Y479662D01*
X574417Y480788D01*
X571500Y481172D01*
X568582Y480788D01*
X565864Y479662D01*
X563529Y477871D01*
X561738Y475536D01*
X560612Y472817D01*
X560228Y469900D01*
X560612Y466982D01*
X561738Y464264D01*
X563529Y461929D01*
X565864Y460138D01*
X568582Y459012D01*
X571500Y458628D01*
X574417Y459012D01*
X577136Y460138D01*
X579471Y461929D01*
X580340Y463062D01*
X581610Y462631D01*
Y451769D01*
X580340Y451338D01*
X579471Y452471D01*
X577136Y454262D01*
X574417Y455388D01*
X571500Y455772D01*
X568582Y455388D01*
X565864Y454262D01*
X563529Y452471D01*
X561738Y450136D01*
X560612Y447417D01*
X560603Y447349D01*
X548550D01*
X541583Y454316D01*
Y500479D01*
X542756Y500965D01*
X550436Y493286D01*
D02*
G37*
G36*
X545356Y442486D02*
X545356Y442486D01*
X546280Y441868D01*
X547370Y441651D01*
X547370Y441651D01*
X560603D01*
X560612Y441582D01*
X561738Y438864D01*
X563529Y436529D01*
X565864Y434738D01*
X568582Y433612D01*
X571500Y433228D01*
X574417Y433612D01*
X577136Y434738D01*
X579471Y436529D01*
X580340Y437662D01*
X581610Y437231D01*
Y426369D01*
X580340Y425938D01*
X579471Y427071D01*
X577136Y428862D01*
X574417Y429988D01*
X571500Y430372D01*
X568582Y429988D01*
X565864Y428862D01*
X563529Y427071D01*
X561738Y424736D01*
X560612Y422018D01*
X560603Y421949D01*
X538390D01*
X538281Y422058D01*
Y447901D01*
X539454Y448387D01*
X545356Y442486D01*
D02*
G37*
G36*
X206071Y476581D02*
X207667Y475514D01*
X209550Y475140D01*
X211433Y475514D01*
X211917Y475838D01*
X221262Y466493D01*
X220929Y464820D01*
X221416Y462370D01*
X222804Y460294D01*
X224349Y459261D01*
Y453898D01*
X214503D01*
Y437642D01*
X215285D01*
Y424664D01*
X214279Y423991D01*
X213606Y422985D01*
X204545D01*
Y476578D01*
X205815Y476964D01*
X206071Y476581D01*
D02*
G37*
G36*
X537210Y416251D02*
X537210Y416251D01*
X560603D01*
X560612Y416183D01*
X561738Y413464D01*
X563529Y411129D01*
X565864Y409338D01*
X568582Y408212D01*
X571500Y407828D01*
X574417Y408212D01*
X577136Y409338D01*
X579471Y411129D01*
X580340Y412262D01*
X581610Y411831D01*
Y400969D01*
X580340Y400538D01*
X579471Y401671D01*
X577136Y403462D01*
X574417Y404588D01*
X571500Y404972D01*
X568582Y404588D01*
X565864Y403462D01*
X563529Y401671D01*
X561738Y399336D01*
X560612Y396618D01*
X560603Y396549D01*
X540930D01*
X534979Y402500D01*
Y415703D01*
X536011Y416395D01*
X536249Y416442D01*
X537210Y416251D01*
D02*
G37*
G36*
X537736Y391686D02*
X538660Y391068D01*
X539750Y390851D01*
X539750Y390851D01*
X560603D01*
X560612Y390783D01*
X561738Y388064D01*
X563529Y385729D01*
X565864Y383938D01*
X568582Y382812D01*
X571500Y382428D01*
X574417Y382812D01*
X577136Y383938D01*
X579471Y385729D01*
X580340Y386862D01*
X581610Y386431D01*
Y375569D01*
X580340Y375138D01*
X579471Y376271D01*
X577136Y378062D01*
X574417Y379188D01*
X571500Y379572D01*
X568582Y379188D01*
X565864Y378062D01*
X563529Y376271D01*
X561738Y373936D01*
X560612Y371217D01*
X560603Y371149D01*
X539660D01*
X531677Y379132D01*
Y396085D01*
X532850Y396571D01*
X537736Y391686D01*
D02*
G37*
G36*
X380988Y421331D02*
X380955Y421309D01*
X379888Y419713D01*
X379514Y417830D01*
X379888Y415947D01*
X380955Y414351D01*
X381586Y413929D01*
Y411014D01*
X313145Y342574D01*
X213023D01*
X211433Y343636D01*
X209550Y344011D01*
X207667Y343636D01*
X206071Y342569D01*
X205815Y342186D01*
X204545Y342571D01*
Y369898D01*
X205815Y370284D01*
X206071Y369901D01*
X207667Y368834D01*
X209550Y368460D01*
X211433Y368834D01*
X213029Y369901D01*
X213451Y370531D01*
X320450D01*
X320450Y370531D01*
X321540Y370748D01*
X322465Y371366D01*
X373700Y422601D01*
X380602D01*
X380988Y421331D01*
D02*
G37*
G36*
X536466Y366286D02*
X536466Y366286D01*
X537390Y365668D01*
X538480Y365451D01*
X538480Y365451D01*
X560603D01*
X560612Y365382D01*
X561738Y362664D01*
X563529Y360329D01*
X565864Y358538D01*
X568582Y357412D01*
X571500Y357028D01*
X574417Y357412D01*
X577136Y358538D01*
X579471Y360329D01*
X580340Y361462D01*
X581610Y361031D01*
Y350169D01*
X580340Y349738D01*
X579471Y350871D01*
X577136Y352662D01*
X574417Y353788D01*
X571500Y354172D01*
X568582Y353788D01*
X565864Y352662D01*
X563529Y350871D01*
X561738Y348536D01*
X560612Y345817D01*
X560603Y345749D01*
X536031D01*
X535609Y346379D01*
X534013Y347446D01*
X532130Y347821D01*
X531386Y347673D01*
X528375Y350684D01*
Y372717D01*
X529548Y373203D01*
X536466Y366286D01*
D02*
G37*
G36*
X527357Y343644D02*
X527210Y342900D01*
X527584Y341017D01*
X528651Y339421D01*
X530247Y338354D01*
X532130Y337980D01*
X534013Y338354D01*
X535609Y339421D01*
X536031Y340051D01*
X560603D01*
X560612Y339982D01*
X561738Y337264D01*
X563529Y334929D01*
X565864Y333138D01*
X568582Y332012D01*
X571500Y331628D01*
X574417Y332012D01*
X577136Y333138D01*
X579471Y334929D01*
X580340Y336062D01*
X581610Y335631D01*
Y324769D01*
X580340Y324338D01*
X579471Y325471D01*
X577136Y327262D01*
X574417Y328388D01*
X571500Y328772D01*
X568582Y328388D01*
X565864Y327262D01*
X563529Y325471D01*
X561738Y323136D01*
X560612Y320418D01*
X560603Y320349D01*
X539126D01*
X538704Y320979D01*
X538074Y321401D01*
Y323295D01*
X538074Y323295D01*
X537857Y324385D01*
X537239Y325309D01*
X537239Y325310D01*
X525073Y337476D01*
Y344269D01*
X526246Y344755D01*
X527357Y343644D01*
D02*
G37*
G36*
X531974Y322517D02*
X531863Y321058D01*
X531745Y320979D01*
X530679Y319383D01*
X530304Y317500D01*
X530679Y315617D01*
X531745Y314021D01*
X533342Y312954D01*
X535225Y312579D01*
X537108Y312954D01*
X538704Y314021D01*
X539126Y314651D01*
X560603D01*
X560612Y314583D01*
X561738Y311864D01*
X563529Y309529D01*
X565864Y307738D01*
X568582Y306612D01*
X571500Y306228D01*
X574417Y306612D01*
X577136Y307738D01*
X579471Y309529D01*
X580340Y310662D01*
X581610Y310231D01*
Y299369D01*
X580340Y298938D01*
X579471Y300071D01*
X577136Y301862D01*
X574417Y302988D01*
X571500Y303372D01*
X568582Y302988D01*
X565864Y301862D01*
X563529Y300071D01*
X561738Y297736D01*
X560612Y295018D01*
X560603Y294949D01*
X538390D01*
X521771Y311568D01*
Y317734D01*
X521970Y317898D01*
X523853Y318272D01*
X525449Y319339D01*
X526516Y320935D01*
X526890Y322818D01*
X526516Y324701D01*
X525449Y326297D01*
X523853Y327364D01*
X521970Y327739D01*
X521771Y327902D01*
Y331061D01*
X522944Y331547D01*
X531974Y322517D01*
D02*
G37*
G36*
X535196Y290086D02*
X535196Y290086D01*
X536120Y289468D01*
X537210Y289251D01*
X537210Y289251D01*
X560603D01*
X560612Y289182D01*
X561738Y286464D01*
X563529Y284129D01*
X565864Y282338D01*
X568582Y281212D01*
X571500Y280828D01*
X574417Y281212D01*
X577136Y282338D01*
X579471Y284129D01*
X580340Y285262D01*
X581610Y284831D01*
Y273969D01*
X580340Y273538D01*
X579471Y274671D01*
X577136Y276462D01*
X574417Y277588D01*
X571500Y277972D01*
X568582Y277588D01*
X565864Y276462D01*
X563529Y274671D01*
X561738Y272336D01*
X560612Y269618D01*
X560603Y269549D01*
X525690D01*
X518469Y276770D01*
Y305153D01*
X519642Y305639D01*
X535196Y290086D01*
D02*
G37*
G36*
X273050Y72390D02*
X269240Y68580D01*
Y53340D01*
X267970Y52070D01*
X259080D01*
Y97028D01*
X273050D01*
Y72390D01*
D02*
G37*
G36*
X290830Y102870D02*
Y72390D01*
X294640Y68580D01*
X323850D01*
Y49530D01*
X318770Y44450D01*
X298450D01*
X290830Y52070D01*
X273050D01*
X271780Y53340D01*
Y67310D01*
X275590Y71120D01*
Y97790D01*
X281940Y104140D01*
X289560D01*
X290830Y102870D01*
D02*
G37*
G36*
X247650Y64770D02*
Y21590D01*
X254000Y15240D01*
X262890D01*
Y3810D01*
X146050D01*
Y28448D01*
X147417D01*
X149004Y29105D01*
X150219Y30320D01*
X150876Y31907D01*
Y33625D01*
X150219Y35212D01*
X149004Y36427D01*
X147417Y37084D01*
X146050D01*
Y64770D01*
X148590Y67310D01*
X158750D01*
X161290Y64770D01*
Y21590D01*
X163830Y19050D01*
X229870D01*
X232410Y21590D01*
Y64770D01*
X234950Y67310D01*
X245110D01*
X247650Y64770D01*
D02*
G37*
%LPC*%
G36*
X560301Y1071379D02*
X557299D01*
X557102Y1071340D01*
X556901D01*
X553957Y1070754D01*
X553771Y1070677D01*
X553574Y1070638D01*
X550801Y1069490D01*
X550634Y1069378D01*
X550448Y1069301D01*
X547952Y1067633D01*
X547810Y1067491D01*
X547643Y1067380D01*
X545520Y1065257D01*
X545409Y1065090D01*
X545267Y1064948D01*
X543599Y1062452D01*
X543522Y1062266D01*
X543410Y1062099D01*
X542262Y1059326D01*
X542223Y1059129D01*
X542146Y1058943D01*
X541560Y1055999D01*
Y1055798D01*
X541521Y1055601D01*
Y1052599D01*
X541560Y1052402D01*
Y1052201D01*
X542146Y1049257D01*
X542223Y1049071D01*
X542262Y1048874D01*
X543410Y1046101D01*
X543522Y1045934D01*
X543599Y1045748D01*
X545267Y1043252D01*
X545409Y1043110D01*
X545520Y1042943D01*
X547643Y1040820D01*
X547810Y1040709D01*
X547952Y1040567D01*
X550448Y1038899D01*
X550634Y1038822D01*
X550801Y1038710D01*
X553574Y1037562D01*
X553771Y1037523D01*
X553957Y1037446D01*
X556901Y1036860D01*
X557102D01*
X557299Y1036821D01*
X560301D01*
X560498Y1036860D01*
X560699D01*
X563643Y1037446D01*
X563829Y1037523D01*
X564026Y1037562D01*
X566799Y1038710D01*
X566966Y1038822D01*
X567152Y1038899D01*
X569648Y1040567D01*
X569790Y1040709D01*
X569957Y1040820D01*
X572080Y1042943D01*
X572191Y1043110D01*
X572333Y1043252D01*
X574001Y1045748D01*
X574078Y1045934D01*
X574189Y1046101D01*
X575338Y1048874D01*
X575378Y1049071D01*
X575454Y1049257D01*
X576040Y1052201D01*
Y1052402D01*
X576079Y1052599D01*
Y1055601D01*
X576040Y1055798D01*
Y1055999D01*
X575454Y1058943D01*
X575378Y1059129D01*
X575338Y1059326D01*
X574189Y1062099D01*
X574078Y1062266D01*
X574001Y1062452D01*
X572333Y1064948D01*
X572191Y1065090D01*
X572080Y1065257D01*
X569957Y1067380D01*
X569790Y1067491D01*
X569648Y1067633D01*
X567152Y1069301D01*
X566966Y1069378D01*
X566799Y1069490D01*
X564026Y1070638D01*
X563829Y1070677D01*
X563643Y1070754D01*
X560699Y1071340D01*
X560498D01*
X560301Y1071379D01*
D02*
G37*
G36*
X26901D02*
X23899D01*
X23702Y1071340D01*
X23501D01*
X20557Y1070754D01*
X20371Y1070677D01*
X20174Y1070638D01*
X17401Y1069490D01*
X17234Y1069378D01*
X17048Y1069301D01*
X14552Y1067633D01*
X14410Y1067491D01*
X14243Y1067380D01*
X12120Y1065257D01*
X12009Y1065090D01*
X11867Y1064948D01*
X10199Y1062452D01*
X10122Y1062266D01*
X10010Y1062099D01*
X8862Y1059326D01*
X8823Y1059129D01*
X8746Y1058943D01*
X8160Y1055999D01*
Y1055798D01*
X8121Y1055601D01*
X8121Y1054100D01*
Y1052599D01*
X8160Y1052402D01*
Y1052201D01*
X8746Y1049257D01*
X8823Y1049071D01*
X8862Y1048874D01*
X10010Y1046101D01*
X10122Y1045934D01*
X10199Y1045748D01*
X11867Y1043252D01*
X12009Y1043110D01*
X12120Y1042943D01*
X14243Y1040820D01*
X14410Y1040709D01*
X14552Y1040567D01*
X17048Y1038899D01*
X17234Y1038822D01*
X17401Y1038710D01*
X20174Y1037562D01*
X20371Y1037523D01*
X20557Y1037446D01*
X23501Y1036860D01*
X23702D01*
X23899Y1036821D01*
X26901D01*
X27098Y1036860D01*
X27299D01*
X30243Y1037446D01*
X30429Y1037523D01*
X30626Y1037562D01*
X33399Y1038710D01*
X33566Y1038822D01*
X33752Y1038899D01*
X36248Y1040567D01*
X36390Y1040709D01*
X36557Y1040820D01*
X38680Y1042943D01*
X38791Y1043110D01*
X38933Y1043252D01*
X40601Y1045748D01*
X40678Y1045934D01*
X40789Y1046101D01*
X41938Y1048874D01*
X41978Y1049071D01*
X42054Y1049257D01*
X42640Y1052201D01*
Y1052402D01*
X42679Y1052599D01*
Y1055601D01*
X42640Y1055798D01*
Y1055999D01*
X42054Y1058943D01*
X41978Y1059129D01*
X41938Y1059326D01*
X40789Y1062099D01*
X40678Y1062266D01*
X40601Y1062452D01*
X38933Y1064948D01*
X38791Y1065090D01*
X38680Y1065257D01*
X36557Y1067380D01*
X36390Y1067491D01*
X36248Y1067633D01*
X33752Y1069301D01*
X33566Y1069378D01*
X33399Y1069490D01*
X30626Y1070638D01*
X30429Y1070677D01*
X30243Y1070754D01*
X27299Y1071340D01*
X27098D01*
X26901Y1071379D01*
D02*
G37*
G36*
X364998Y1072388D02*
Y1072388D01*
X364019Y1072388D01*
X354838D01*
Y1056132D01*
X355344D01*
X356023Y1054862D01*
X355499Y1054078D01*
X355125Y1052195D01*
X355499Y1050312D01*
X356023Y1049528D01*
X355344Y1048258D01*
X354838D01*
Y1032002D01*
X354838D01*
X355329Y1030936D01*
X355351Y1030732D01*
X354997Y1028954D01*
X355372Y1027071D01*
X356439Y1025475D01*
X356553Y1025398D01*
X356168Y1024128D01*
X354838D01*
Y1007872D01*
X355057D01*
X355572Y1006909D01*
X355605Y1006602D01*
X355252Y1004824D01*
X355626Y1002941D01*
X356693Y1001345D01*
X358289Y1000278D01*
X360172Y999903D01*
X362055Y1000278D01*
X363651Y1001345D01*
X364718Y1002941D01*
X365093Y1004824D01*
X364891Y1005840D01*
X365860Y1007110D01*
X376174D01*
Y1024890D01*
X364534D01*
X363612Y1025797D01*
X364464Y1027071D01*
X364838Y1028954D01*
X364485Y1030732D01*
X364527Y1031120D01*
X364998Y1032002D01*
X365252D01*
Y1032002D01*
X375412D01*
Y1048258D01*
X375412D01*
X374860Y1049528D01*
X375383Y1050312D01*
X375758Y1052195D01*
X375383Y1054078D01*
X374860Y1054862D01*
X375412Y1056132D01*
X375412D01*
Y1072388D01*
X366231D01*
X365252Y1072388D01*
Y1072388D01*
X364998D01*
D02*
G37*
G36*
X330340Y1041374D02*
X320816D01*
Y1020100D01*
X330340D01*
Y1041374D01*
D02*
G37*
G36*
X318784D02*
X309260D01*
Y1020100D01*
X318784D01*
Y1041374D01*
D02*
G37*
G36*
X274940D02*
X265416D01*
Y1020100D01*
X274940D01*
Y1041374D01*
D02*
G37*
G36*
X263384D02*
X253860D01*
Y1020100D01*
X263384D01*
Y1041374D01*
D02*
G37*
G36*
X570484Y1015207D02*
X568383Y1014931D01*
X565480Y1013728D01*
X562986Y1011814D01*
X561072Y1009321D01*
X559869Y1006416D01*
X559593Y1004316D01*
X570484D01*
Y1015207D01*
D02*
G37*
G36*
Y1002284D02*
X559593D01*
X559869Y1000183D01*
X561072Y997280D01*
X562986Y994786D01*
X565480Y992872D01*
X568383Y991669D01*
X570484Y991393D01*
Y1002284D01*
D02*
G37*
G36*
X70076Y1000387D02*
X68193Y1000013D01*
X66596Y998946D01*
X65530Y997350D01*
X65155Y995467D01*
X65530Y993584D01*
X66596Y991988D01*
X68193Y990921D01*
X70076Y990546D01*
X71959Y990921D01*
X73555Y991988D01*
X74622Y993584D01*
X74996Y995467D01*
X74622Y997350D01*
X73555Y998946D01*
X71959Y1000013D01*
X70076Y1000387D01*
D02*
G37*
G36*
X347374Y1046681D02*
X345491Y1046307D01*
X343895Y1045240D01*
X342828Y1043644D01*
X342460Y1041790D01*
X337867Y1037197D01*
X337025Y1035937D01*
X336729Y1034450D01*
Y910167D01*
X335642Y909079D01*
X332153D01*
X330751Y910015D01*
X328868Y910390D01*
X326986Y910015D01*
X325389Y908949D01*
X324323Y907352D01*
X323948Y905469D01*
X324323Y903586D01*
X325389Y901990D01*
X326986Y900923D01*
X328868Y900549D01*
X330751Y900923D01*
X331330Y901310D01*
X337251D01*
X338737Y901606D01*
X339997Y902448D01*
X343361Y905811D01*
X344203Y907071D01*
X344499Y908558D01*
Y1032841D01*
X348776Y1037119D01*
X349258Y1037215D01*
X350854Y1038281D01*
X351921Y1039878D01*
X352295Y1041761D01*
X351921Y1043644D01*
X350854Y1045240D01*
X349258Y1046307D01*
X347374Y1046681D01*
D02*
G37*
G36*
X13716Y888207D02*
Y877316D01*
X24607D01*
X24331Y879417D01*
X23128Y882320D01*
X21214Y884814D01*
X18721Y886728D01*
X15817Y887931D01*
X13716Y888207D01*
D02*
G37*
G36*
X24607Y875284D02*
X13716D01*
Y864393D01*
X15817Y864669D01*
X18721Y865872D01*
X21214Y867786D01*
X23128Y870279D01*
X24331Y873184D01*
X24607Y875284D01*
D02*
G37*
G36*
X234315Y738980D02*
X232432Y738606D01*
X230836Y737539D01*
X229769Y735943D01*
X229394Y734060D01*
X229769Y732177D01*
X230836Y730581D01*
X232432Y729514D01*
X234315Y729139D01*
X236198Y729514D01*
X237794Y730581D01*
X238214Y731208D01*
X239428D01*
Y702896D01*
X239645Y701805D01*
X240263Y700880D01*
X277992Y663152D01*
Y508719D01*
X275696Y506423D01*
X274955Y506571D01*
X273072Y506196D01*
X271476Y505129D01*
X270409Y503533D01*
X270035Y501650D01*
X270409Y499767D01*
X271476Y498171D01*
X273072Y497104D01*
X274955Y496730D01*
X276838Y497104D01*
X278434Y498171D01*
X279501Y499767D01*
X279705Y500793D01*
X281000D01*
X281204Y499767D01*
X282271Y498171D01*
X283867Y497104D01*
X285750Y496730D01*
X287633Y497104D01*
X289229Y498171D01*
X290296Y499767D01*
X290671Y501650D01*
X290296Y503533D01*
X289229Y505129D01*
X287633Y506196D01*
X287078Y506306D01*
Y665734D01*
X286860Y666825D01*
X286242Y667750D01*
X248514Y705479D01*
Y730960D01*
X249784Y730970D01*
X250147Y730426D01*
X251744Y729359D01*
X253627Y728985D01*
X255510Y729359D01*
X257106Y730426D01*
X258173Y732022D01*
X258547Y733905D01*
X258173Y735788D01*
X257106Y737384D01*
X255510Y738451D01*
X253627Y738826D01*
X251744Y738451D01*
X250147Y737384D01*
X249779Y736834D01*
X246631D01*
X245540Y736617D01*
X244615Y735999D01*
X243971Y735355D01*
X243249Y736076D01*
X242324Y736694D01*
X241233Y736911D01*
X238214D01*
X237794Y737539D01*
X236198Y738606D01*
X234315Y738980D01*
D02*
G37*
G36*
X300228Y676243D02*
X298345Y675868D01*
X297699Y675436D01*
X296672Y674846D01*
X295645Y675436D01*
X294999Y675868D01*
X293116Y676243D01*
X291233Y675868D01*
X289637Y674801D01*
X288570Y673205D01*
X288195Y671322D01*
X288570Y669439D01*
X289637Y667843D01*
X291233Y666776D01*
X293116Y666402D01*
X294999Y666776D01*
X295645Y667208D01*
X296672Y667798D01*
X297699Y667208D01*
X298345Y666776D01*
X300228Y666402D01*
X302111Y666776D01*
X303707Y667843D01*
X304774Y669439D01*
X305149Y671322D01*
X304774Y673205D01*
X303707Y674801D01*
X302111Y675868D01*
X300228Y676243D01*
D02*
G37*
G36*
X369566Y660524D02*
X367683Y660150D01*
X366087Y659083D01*
X365020Y657487D01*
X364645Y655604D01*
X364793Y654860D01*
X361206Y651272D01*
X360588Y650348D01*
X360371Y649258D01*
X360371Y649258D01*
Y646212D01*
X359741Y645791D01*
X358674Y644195D01*
X358392Y642776D01*
X357773Y642150D01*
X357079Y641937D01*
X355600Y642231D01*
X353717Y641856D01*
X352121Y640790D01*
X351054Y639193D01*
X350680Y637310D01*
X350827Y636567D01*
X332250Y617989D01*
X331632Y617065D01*
X331415Y615974D01*
X331415Y615974D01*
Y560234D01*
X329674Y558493D01*
X328930Y558641D01*
X327047Y558266D01*
X325451Y557199D01*
X324384Y555603D01*
X324010Y553720D01*
X324384Y551837D01*
X325451Y550241D01*
X327047Y549174D01*
X328930Y548800D01*
X330813Y549174D01*
X332409Y550241D01*
X333476Y551837D01*
X333851Y553720D01*
X333703Y554464D01*
X336278Y557040D01*
X336278Y557040D01*
X336896Y557964D01*
X337113Y559054D01*
X337113Y559054D01*
Y614794D01*
X354856Y632538D01*
X355600Y632390D01*
X357483Y632764D01*
X359079Y633831D01*
X360146Y635427D01*
X360428Y636846D01*
X361047Y637472D01*
X361741Y637685D01*
X363220Y637391D01*
X365103Y637766D01*
X366699Y638832D01*
X367766Y640429D01*
X368140Y642312D01*
X367766Y644195D01*
X366699Y645791D01*
X366069Y646212D01*
Y648078D01*
X368822Y650831D01*
X369566Y650683D01*
X371449Y651058D01*
X373045Y652124D01*
X374112Y653721D01*
X374487Y655604D01*
X374112Y657487D01*
X373045Y659083D01*
X371449Y660150D01*
X369566Y660524D01*
D02*
G37*
G36*
X295703Y633735D02*
X293820Y633360D01*
X292224Y632294D01*
X291157Y630697D01*
X290783Y628814D01*
X291157Y626931D01*
X292224Y625335D01*
X293820Y624268D01*
X295703Y623894D01*
X297586Y624268D01*
X299182Y625335D01*
X300249Y626931D01*
X300623Y628814D01*
X300249Y630697D01*
X299182Y632294D01*
X297586Y633360D01*
X295703Y633735D01*
D02*
G37*
G36*
X355918Y663098D02*
X354035Y662723D01*
X352438Y661657D01*
X351371Y660061D01*
X350997Y658177D01*
X351371Y656294D01*
X352351Y654829D01*
X323614Y626092D01*
X322996Y625168D01*
X322779Y624078D01*
X322779Y624078D01*
Y589698D01*
X316320Y583239D01*
X302351D01*
X301929Y583869D01*
X300333Y584936D01*
X298450Y585311D01*
X296567Y584936D01*
X294971Y583869D01*
X293904Y582273D01*
X293529Y580390D01*
X293904Y578507D01*
X294971Y576911D01*
X296567Y575844D01*
X298450Y575470D01*
X300333Y575844D01*
X301929Y576911D01*
X302351Y577541D01*
X317500D01*
X317500Y577541D01*
X318590Y577758D01*
X319514Y578376D01*
X327642Y586504D01*
X327642Y586504D01*
X328260Y587428D01*
X328477Y588518D01*
Y622898D01*
X357716Y652137D01*
X357716Y652137D01*
X358334Y653062D01*
X358546Y654130D01*
X359397Y654698D01*
X360463Y656294D01*
X360838Y658177D01*
X360463Y660061D01*
X359397Y661657D01*
X357800Y662723D01*
X355918Y663098D01*
D02*
G37*
G36*
X477757Y553286D02*
X475874Y552911D01*
X474278Y551845D01*
X473211Y550248D01*
X472837Y548366D01*
X473211Y546483D01*
X474278Y544886D01*
X475874Y543820D01*
X477757Y543445D01*
X479640Y543820D01*
X481236Y544886D01*
X482303Y546483D01*
X482678Y548366D01*
X482303Y550248D01*
X481236Y551845D01*
X479640Y552911D01*
X477757Y553286D01*
D02*
G37*
G36*
X271780Y547211D02*
X269897Y546836D01*
X268301Y545769D01*
X267234Y544173D01*
X266859Y542290D01*
X267234Y540407D01*
X268301Y538811D01*
X269897Y537744D01*
X271780Y537369D01*
X273663Y537744D01*
X275259Y538811D01*
X276326Y540407D01*
X276700Y542290D01*
X276326Y544173D01*
X275259Y545769D01*
X273663Y546836D01*
X271780Y547211D01*
D02*
G37*
G36*
X484450Y381269D02*
X482567Y380894D01*
X480971Y379827D01*
X479904Y378231D01*
X479529Y376348D01*
X479904Y374465D01*
X480971Y372869D01*
X482567Y371802D01*
X484450Y371427D01*
X486333Y371802D01*
X487929Y372869D01*
X488996Y374465D01*
X489370Y376348D01*
X488996Y378231D01*
X487929Y379827D01*
X486333Y380894D01*
X484450Y381269D01*
D02*
G37*
G36*
X451986Y360670D02*
X438462D01*
Y355346D01*
X451986D01*
Y360670D01*
D02*
G37*
G36*
X436430D02*
X422906D01*
Y355346D01*
X436430D01*
Y360670D01*
D02*
G37*
G36*
X451986Y353314D02*
X422906D01*
X422906Y347990D01*
X423668Y347036D01*
X423668Y346720D01*
X423668Y336224D01*
X422906Y335270D01*
X422906Y335098D01*
Y329946D01*
X451986D01*
X451986Y335270D01*
X451224Y336224D01*
X451224Y336540D01*
X451224Y347036D01*
X451986Y347990D01*
X451986Y348162D01*
Y353314D01*
D02*
G37*
G36*
X379730Y328770D02*
X377847Y328396D01*
X376251Y327329D01*
X375829Y326699D01*
X214893D01*
X214492Y327299D01*
X212896Y328365D01*
X211012Y328740D01*
X209130Y328365D01*
X207533Y327299D01*
X206467Y325702D01*
X206092Y323819D01*
X206467Y321936D01*
X207533Y320340D01*
X209130Y319273D01*
X211012Y318899D01*
X212896Y319273D01*
X214492Y320340D01*
X214934Y321001D01*
X375829D01*
X376251Y320371D01*
X377847Y319304D01*
X379730Y318930D01*
X381613Y319304D01*
X383209Y320371D01*
X384276Y321967D01*
X384650Y323850D01*
X384276Y325733D01*
X383209Y327329D01*
X381613Y328396D01*
X379730Y328770D01*
D02*
G37*
G36*
X451986Y327914D02*
X422906D01*
Y323840D01*
X422906Y322590D01*
X422906Y321320D01*
Y317246D01*
X451986D01*
Y321320D01*
X451986Y322570D01*
X451986Y323840D01*
Y327914D01*
D02*
G37*
G36*
X570230Y253174D02*
X568383Y252931D01*
X565480Y251728D01*
X562986Y249814D01*
X561072Y247320D01*
X559869Y244417D01*
X559626Y242570D01*
X570230D01*
Y253174D01*
D02*
G37*
G36*
Y240030D02*
X559626D01*
X559869Y238183D01*
X561072Y235280D01*
X562986Y232786D01*
X565480Y230872D01*
X568383Y229669D01*
X570230Y229426D01*
Y240030D01*
D02*
G37*
G36*
X545524Y216040D02*
X524000D01*
Y206516D01*
X545524D01*
Y216040D01*
D02*
G37*
G36*
X284226Y211437D02*
Y205486D01*
X290177D01*
X290069Y206308D01*
X289359Y208020D01*
X288231Y209491D01*
X286760Y210619D01*
X285048Y211329D01*
X284226Y211437D01*
D02*
G37*
G36*
X282194D02*
X281372Y211329D01*
X279660Y210619D01*
X278189Y209491D01*
X277061Y208020D01*
X276351Y206308D01*
X276243Y205486D01*
X282194D01*
Y211437D01*
D02*
G37*
G36*
Y203454D02*
X276243D01*
X276351Y202632D01*
X277061Y200920D01*
X278189Y199449D01*
X279660Y198321D01*
X281372Y197611D01*
X282194Y197503D01*
Y203454D01*
D02*
G37*
G36*
X475107Y230378D02*
X457073D01*
Y225617D01*
X451146D01*
X449857Y225360D01*
X448765Y224631D01*
X439757Y215623D01*
X439166Y215741D01*
X437283Y215366D01*
X435687Y214299D01*
X434620Y212703D01*
X434245Y210820D01*
X434620Y208937D01*
X435687Y207341D01*
X437283Y206274D01*
X439166Y205900D01*
X441049Y206274D01*
X442645Y207341D01*
X443712Y208937D01*
X443990Y210333D01*
X452540Y218883D01*
X457073D01*
Y214122D01*
X475107D01*
Y218883D01*
X476693D01*
X481609Y213967D01*
X481583Y213834D01*
X481958Y211952D01*
X483024Y210355D01*
X484621Y209289D01*
X485351Y209143D01*
X485387Y207861D01*
X484424Y207218D01*
X483036Y205142D01*
X482549Y202692D01*
X483036Y200242D01*
X484424Y198166D01*
X486500Y196778D01*
X488950Y196291D01*
X491400Y196778D01*
X493476Y198166D01*
X494864Y200242D01*
X495351Y202692D01*
X494864Y205142D01*
X493476Y207218D01*
X492317Y207993D01*
Y210563D01*
X492060Y211852D01*
X491331Y212944D01*
X491261Y213014D01*
X491424Y213834D01*
X491049Y215718D01*
X489983Y217314D01*
X488386Y218381D01*
X486503Y218755D01*
X486371Y218729D01*
X480469Y224631D01*
X479376Y225360D01*
X478088Y225617D01*
X475107D01*
Y230378D01*
D02*
G37*
G36*
X545524Y204484D02*
X524000D01*
Y194960D01*
X545524D01*
Y204484D01*
D02*
G37*
G36*
Y160640D02*
X524000D01*
Y151116D01*
X545524D01*
Y160640D01*
D02*
G37*
G36*
X434213Y166878D02*
Y166878D01*
X433234Y166878D01*
X424053D01*
Y162118D01*
X421324D01*
X420036Y161861D01*
X418943Y161131D01*
X415103Y157292D01*
X393954D01*
X392665Y157035D01*
X391573Y156305D01*
X388717Y153449D01*
X387350Y153721D01*
X384900Y153234D01*
X382824Y151846D01*
X381436Y149770D01*
X380949Y147320D01*
X381221Y145954D01*
X379515Y144248D01*
X375162Y148602D01*
X374574Y148995D01*
X373880Y149133D01*
X330200D01*
X329506Y148995D01*
X328918Y148602D01*
X327648Y147332D01*
X327255Y146744D01*
X327117Y146050D01*
X327117Y138430D01*
X327255Y137736D01*
X327648Y137148D01*
X328918Y135878D01*
X329506Y135485D01*
X330200Y135347D01*
X361699D01*
X367757Y129289D01*
Y54591D01*
X354318Y41152D01*
X353925Y40564D01*
X353787Y39870D01*
Y7620D01*
X353925Y6926D01*
X354318Y6338D01*
X354906Y5945D01*
X355600Y5807D01*
X364490D01*
X365184Y5945D01*
X365772Y6338D01*
X381012Y21578D01*
X381338Y22065D01*
X381915Y22210D01*
X382722Y22279D01*
X382790Y22178D01*
X384866Y20790D01*
X387316Y20303D01*
X389766Y20790D01*
X391842Y22178D01*
X392790Y23596D01*
X395365D01*
X395512Y22483D01*
X396638Y19764D01*
X398429Y17429D01*
X400764Y15638D01*
X403483Y14512D01*
X406400Y14128D01*
X409318Y14512D01*
X412036Y15638D01*
X414371Y17429D01*
X416162Y19764D01*
X417288Y22483D01*
X417672Y25400D01*
X417288Y28317D01*
X416162Y31036D01*
X414371Y33371D01*
X412036Y35162D01*
X409318Y36288D01*
X406400Y36672D01*
X403483Y36288D01*
X400764Y35162D01*
X398429Y33371D01*
X396638Y31036D01*
X396131Y29812D01*
X392790D01*
X391842Y31230D01*
X389766Y32618D01*
X387874Y32994D01*
X387422Y34127D01*
X387387Y34315D01*
X387755Y34866D01*
X387893Y35560D01*
Y101236D01*
X389013Y101834D01*
X389277Y101658D01*
X391160Y101284D01*
X391904Y101431D01*
X397560Y95776D01*
X397560Y95776D01*
X398484Y95158D01*
X399574Y94941D01*
X496479D01*
X496901Y94311D01*
X498497Y93244D01*
X500380Y92870D01*
X502263Y93244D01*
X503859Y94311D01*
X504926Y95907D01*
X505300Y97790D01*
X504926Y99673D01*
X503859Y101269D01*
X502263Y102336D01*
X500380Y102711D01*
X499525Y102541D01*
X498900Y103711D01*
X500290Y105101D01*
X567780D01*
X569921Y102960D01*
Y96611D01*
X569291Y96189D01*
X568224Y94593D01*
X567850Y92710D01*
X568224Y90827D01*
X569291Y89231D01*
X570887Y88164D01*
X572770Y87789D01*
X574653Y88164D01*
X576249Y89231D01*
X577316Y90827D01*
X577691Y92710D01*
X577316Y94593D01*
X576249Y96189D01*
X575619Y96611D01*
Y104140D01*
X575619Y104140D01*
X575402Y105230D01*
X574784Y106154D01*
X574784Y106154D01*
X570974Y109964D01*
X570050Y110582D01*
X568960Y110799D01*
X568960Y110799D01*
X499110D01*
X499110Y110799D01*
X498020Y110582D01*
X497096Y109964D01*
X497096Y109964D01*
X492850Y105719D01*
X490132D01*
X489453Y106989D01*
X489686Y107337D01*
X490061Y109220D01*
X489686Y111103D01*
X488619Y112699D01*
X487023Y113766D01*
X485140Y114141D01*
X483257Y113766D01*
X481661Y112699D01*
X481430Y112355D01*
X479993D01*
X479624Y114210D01*
X478236Y116286D01*
X476160Y117674D01*
X473710Y118161D01*
X471260Y117674D01*
X469184Y116286D01*
X467796Y114210D01*
X467427Y112355D01*
X406024D01*
X395933Y122446D01*
X396081Y123190D01*
X395706Y125073D01*
X394639Y126669D01*
X393043Y127736D01*
X391160Y128111D01*
X389277Y127736D01*
X389013Y127559D01*
X387893Y128158D01*
Y135120D01*
X387755Y135814D01*
X387362Y136402D01*
X384278Y139486D01*
X385984Y141191D01*
X387350Y140919D01*
X389800Y141406D01*
X391876Y142794D01*
X393264Y144870D01*
X393751Y147320D01*
X393479Y148687D01*
X395349Y150556D01*
X416498D01*
X417787Y150813D01*
X418880Y151543D01*
X422719Y155382D01*
X424053D01*
Y150622D01*
X434213D01*
Y150622D01*
X434467D01*
Y150622D01*
X443086D01*
X444128Y149352D01*
X443983Y148622D01*
X444102Y148024D01*
X443021Y146950D01*
X441960Y147161D01*
X440077Y146786D01*
X438481Y145719D01*
X437414Y144123D01*
X437039Y142240D01*
X437414Y140357D01*
X438481Y138761D01*
X440077Y137694D01*
X440208Y137668D01*
X440083Y136398D01*
X434467D01*
Y136398D01*
X434213D01*
Y136398D01*
X424053D01*
Y132155D01*
X422529D01*
X421042Y131859D01*
X419782Y131017D01*
X417909Y129144D01*
X417217Y129006D01*
X416227Y128345D01*
X413895D01*
X413466Y128986D01*
X411390Y130374D01*
X408940Y130861D01*
X406490Y130374D01*
X404414Y128986D01*
X403026Y126910D01*
X402539Y124460D01*
X403026Y122010D01*
X404414Y119934D01*
X406490Y118546D01*
X408940Y118059D01*
X411390Y118546D01*
X413466Y119934D01*
X413895Y120575D01*
X416227D01*
X417217Y119914D01*
X419100Y119539D01*
X420983Y119914D01*
X422579Y120981D01*
X422783Y121285D01*
X424053Y120900D01*
Y120142D01*
X434213D01*
Y120142D01*
X434467D01*
Y120142D01*
X444627D01*
Y125422D01*
X447089D01*
X447090Y125422D01*
X448179Y125639D01*
X449103Y126256D01*
X450070Y127223D01*
X450687Y128147D01*
X450904Y129236D01*
X450904Y129237D01*
Y136144D01*
X450687Y137234D01*
X450070Y138158D01*
X450070Y138158D01*
X446732Y141495D01*
X446880Y142240D01*
X446762Y142838D01*
X447843Y143912D01*
X448903Y143701D01*
X450786Y144076D01*
X452383Y145143D01*
X453449Y146739D01*
X453824Y148622D01*
X453449Y150505D01*
X452383Y152101D01*
X451752Y152523D01*
Y155617D01*
X451752Y155617D01*
X451535Y156707D01*
X450918Y157631D01*
X450918Y157631D01*
X447784Y160764D01*
X446860Y161382D01*
X445770Y161599D01*
X444627Y161867D01*
Y166878D01*
X435446D01*
X434467Y166878D01*
Y166878D01*
X434213D01*
D02*
G37*
G36*
X545524Y149084D02*
X524000D01*
Y139560D01*
X545524D01*
Y149084D01*
D02*
G37*
G36*
X500380Y85141D02*
X497930Y84654D01*
X495854Y83266D01*
X495318Y82464D01*
X494382Y82296D01*
X493728Y82370D01*
X492357Y83286D01*
X490474Y83660D01*
X488591Y83286D01*
X486995Y82219D01*
X485928Y80623D01*
X485554Y78740D01*
X485928Y76857D01*
X486995Y75261D01*
X488591Y74194D01*
X490474Y73819D01*
X492357Y74194D01*
X493728Y75110D01*
X494382Y75184D01*
X495318Y75016D01*
X495854Y74214D01*
X497930Y72826D01*
X500380Y72339D01*
X502830Y72826D01*
X504906Y74214D01*
X506294Y76290D01*
X506781Y78740D01*
X506294Y81190D01*
X504906Y83266D01*
X502830Y84654D01*
X500380Y85141D01*
D02*
G37*
G36*
X532130Y92280D02*
X530247Y91905D01*
X528651Y90838D01*
X527584Y89242D01*
X527210Y87359D01*
X527584Y85476D01*
X528651Y83880D01*
X530247Y82813D01*
X532130Y82439D01*
X532874Y82587D01*
X537470Y77991D01*
X537470Y77991D01*
X538394Y77373D01*
X539484Y77156D01*
X539484Y77156D01*
X541436D01*
X541456Y77052D01*
X542844Y74976D01*
X544920Y73588D01*
X547370Y73101D01*
X549820Y73588D01*
X551896Y74976D01*
X553284Y77052D01*
X553771Y79502D01*
X553284Y81952D01*
X551896Y84028D01*
X549820Y85416D01*
X547370Y85903D01*
X544920Y85416D01*
X542844Y84028D01*
X542059Y82854D01*
X540664D01*
X536903Y86615D01*
X537051Y87359D01*
X536676Y89242D01*
X535609Y90838D01*
X534013Y91905D01*
X532130Y92280D01*
D02*
G37*
G36*
X225552Y76803D02*
X223669Y76428D01*
X222073Y75361D01*
X221370Y74309D01*
X220300D01*
X219110Y74073D01*
X218102Y73399D01*
X215287Y70584D01*
X213614Y70917D01*
X211164Y70430D01*
X210617Y70064D01*
X209855Y70605D01*
X209604Y70914D01*
X209897Y72390D01*
X209581Y73981D01*
X208680Y75330D01*
X207331Y76231D01*
X205740Y76547D01*
X204149Y76231D01*
X202800Y75330D01*
X201972Y74089D01*
X200667Y74961D01*
X199076Y75277D01*
X197486Y74961D01*
X196137Y74060D01*
X196078Y73972D01*
X189196D01*
X189194Y73981D01*
X188293Y75330D01*
X186944Y76231D01*
X185353Y76547D01*
X183762Y76231D01*
X182414Y75330D01*
X181513Y73981D01*
X181196Y72390D01*
X181513Y70799D01*
X182414Y69450D01*
X183762Y68549D01*
X185353Y68233D01*
X186425Y68446D01*
X187317Y68268D01*
X196078D01*
X196137Y68180D01*
X197486Y67279D01*
X199076Y66963D01*
X200667Y67279D01*
X202016Y68180D01*
X202845Y69420D01*
X204149Y68549D01*
X205740Y68233D01*
X207216Y68526D01*
X207525Y68275D01*
X208066Y67513D01*
X207700Y66966D01*
X207213Y64516D01*
X207700Y62066D01*
X209088Y59990D01*
X211164Y58602D01*
X213614Y58115D01*
X216064Y58602D01*
X218140Y59990D01*
X219528Y62066D01*
X220015Y64516D01*
X219682Y66189D01*
X221587Y68094D01*
X222535D01*
X223669Y67336D01*
X225552Y66961D01*
X227435Y67336D01*
X229031Y68403D01*
X230098Y69999D01*
X230473Y71882D01*
X230098Y73765D01*
X229031Y75361D01*
X227435Y76428D01*
X225552Y76803D01*
D02*
G37*
G36*
X478790Y66091D02*
X476340Y65604D01*
X474264Y64216D01*
X472876Y62140D01*
X472389Y59690D01*
X472876Y57240D01*
X474264Y55164D01*
X476340Y53776D01*
X478790Y53289D01*
X481240Y53776D01*
X483316Y55164D01*
X484437Y56841D01*
X488859D01*
X489281Y56211D01*
X490877Y55144D01*
X492760Y54770D01*
X494643Y55144D01*
X496239Y56211D01*
X497306Y57807D01*
X497681Y59690D01*
X497306Y61573D01*
X496239Y63169D01*
X494643Y64236D01*
X492760Y64611D01*
X490877Y64236D01*
X489281Y63169D01*
X488859Y62539D01*
X484437D01*
X483316Y64216D01*
X481240Y65604D01*
X478790Y66091D01*
D02*
G37*
G36*
X295910Y38405D02*
X293460Y37918D01*
X291384Y36530D01*
X289996Y34454D01*
X289509Y32004D01*
X289570Y31696D01*
X285371Y27497D01*
X280685D01*
X279975Y27971D01*
X278384Y28287D01*
X276793Y27971D01*
X275444Y27070D01*
X274543Y25721D01*
X274227Y24130D01*
X274543Y22539D01*
X275444Y21190D01*
X276793Y20289D01*
X278384Y19973D01*
X279975Y20289D01*
X280685Y20763D01*
X286766D01*
X288054Y21020D01*
X289147Y21749D01*
X293483Y26086D01*
X295910Y25603D01*
X298360Y26090D01*
X300436Y27478D01*
X301824Y29554D01*
X302311Y32004D01*
X301824Y34454D01*
X300436Y36530D01*
X298360Y37918D01*
X295910Y38405D01*
D02*
G37*
G36*
X560301Y41409D02*
X557299D01*
X557102Y41370D01*
X556901D01*
X553957Y40784D01*
X553771Y40708D01*
X553574Y40668D01*
X550801Y39520D01*
X550634Y39408D01*
X550448Y39331D01*
X547952Y37663D01*
X547810Y37521D01*
X547643Y37410D01*
X545520Y35287D01*
X545409Y35120D01*
X545267Y34978D01*
X543599Y32482D01*
X543522Y32296D01*
X543410Y32129D01*
X542262Y29356D01*
X542223Y29159D01*
X542146Y28973D01*
X541560Y26029D01*
Y25828D01*
X541521Y25631D01*
Y22629D01*
X541560Y22432D01*
Y22231D01*
X542146Y19287D01*
X542223Y19101D01*
X542262Y18904D01*
X543410Y16131D01*
X543522Y15964D01*
X543599Y15778D01*
X545267Y13282D01*
X545409Y13140D01*
X545520Y12973D01*
X547643Y10850D01*
X547810Y10739D01*
X547952Y10597D01*
X550448Y8929D01*
X550634Y8852D01*
X550801Y8741D01*
X553574Y7592D01*
X553771Y7552D01*
X553957Y7476D01*
X556901Y6890D01*
X557102D01*
X557299Y6851D01*
X558800Y6851D01*
X560301D01*
X560498Y6890D01*
X560699D01*
X563643Y7476D01*
X563829Y7552D01*
X564026Y7592D01*
X566799Y8741D01*
X566966Y8852D01*
X567152Y8929D01*
X569648Y10597D01*
X569790Y10739D01*
X569957Y10850D01*
X572080Y12973D01*
X572191Y13140D01*
X572333Y13282D01*
X574001Y15778D01*
X574078Y15964D01*
X574189Y16131D01*
X575338Y18904D01*
X575378Y19101D01*
X575454Y19287D01*
X576040Y22231D01*
Y22432D01*
X576079Y22629D01*
Y25631D01*
X576040Y25828D01*
Y26029D01*
X575454Y28973D01*
X575378Y29159D01*
X575338Y29356D01*
X574189Y32129D01*
X574078Y32296D01*
X574001Y32482D01*
X572333Y34978D01*
X572191Y35120D01*
X572080Y35287D01*
X569957Y37410D01*
X569790Y37521D01*
X569648Y37663D01*
X567152Y39331D01*
X566966Y39408D01*
X566799Y39520D01*
X564026Y40668D01*
X563829Y40708D01*
X563643Y40784D01*
X560699Y41370D01*
X560498D01*
X560301Y41409D01*
D02*
G37*
%LPD*%
G36*
X372174Y1062926D02*
X363220D01*
Y1065593D01*
X372174D01*
Y1062926D01*
D02*
G37*
G36*
Y1038796D02*
X363220D01*
Y1041463D01*
X372174D01*
Y1038796D01*
D02*
G37*
G36*
Y1014667D02*
X363220D01*
Y1017334D01*
X372174D01*
Y1014667D01*
D02*
G37*
G36*
X441389Y157416D02*
X432435D01*
Y160084D01*
X441389D01*
Y157416D01*
D02*
G37*
G36*
Y126937D02*
X432435D01*
Y129604D01*
X441389D01*
Y126937D01*
D02*
G37*
G36*
X386080Y135120D02*
Y35560D01*
X379730Y29210D01*
X379730Y22860D01*
X364490Y7620D01*
X355600D01*
Y39870D01*
X369570Y53840D01*
Y130040D01*
X362450Y137160D01*
X330200D01*
X328930Y138430D01*
X328930Y146050D01*
X330200Y147320D01*
X373880D01*
X386080Y135120D01*
D02*
G37*
%LPC*%
G36*
X86360Y839311D02*
X84477Y838936D01*
X82881Y837869D01*
X81814Y836273D01*
X81440Y834390D01*
X81814Y832507D01*
X82881Y830911D01*
X83376Y830580D01*
Y829310D01*
X82881Y828979D01*
X81814Y827383D01*
X81440Y825500D01*
X81814Y823617D01*
X82881Y822021D01*
X84477Y820954D01*
X86360Y820580D01*
X88243Y820954D01*
X89839Y822021D01*
X90906Y823617D01*
X91280Y825500D01*
X90906Y827383D01*
X89839Y828979D01*
X89345Y829310D01*
Y830580D01*
X89839Y830911D01*
X90906Y832507D01*
X91280Y834390D01*
X90906Y836273D01*
X89839Y837869D01*
X88243Y838936D01*
X86360Y839311D01*
D02*
G37*
G36*
X541020Y712521D02*
X538570Y712034D01*
X536494Y710646D01*
X535106Y708570D01*
X534619Y706120D01*
X535106Y703670D01*
X536494Y701594D01*
X538570Y700206D01*
X541020Y699719D01*
X542693Y700052D01*
X553722Y689023D01*
X554730Y688349D01*
X554912Y688313D01*
X555749Y687060D01*
X557345Y685994D01*
X559228Y685619D01*
X561111Y685994D01*
X562707Y687060D01*
X563774Y688657D01*
X564148Y690540D01*
X563774Y692423D01*
X562707Y694019D01*
X561111Y695086D01*
X559228Y695460D01*
X557345Y695086D01*
X556808Y694727D01*
X547088Y704447D01*
X547421Y706120D01*
X546934Y708570D01*
X545546Y710646D01*
X543470Y712034D01*
X541020Y712521D01*
D02*
G37*
G36*
X123190Y780891D02*
X121307Y780516D01*
X119711Y779449D01*
X118644Y777853D01*
X118270Y775970D01*
X118644Y774087D01*
X119711Y772491D01*
X121307Y771424D01*
X123190Y771049D01*
X125073Y771424D01*
X126669Y772491D01*
X127736Y774087D01*
X128111Y775970D01*
X127736Y777853D01*
X126669Y779449D01*
X125073Y780516D01*
X123190Y780891D01*
D02*
G37*
G36*
X67814Y726360D02*
X53790D01*
Y719836D01*
X67814D01*
Y726360D01*
D02*
G37*
G36*
X44550Y727805D02*
X42846Y727581D01*
X41258Y726923D01*
X39894Y725877D01*
X38848Y724513D01*
X38190Y722925D01*
X37966Y721221D01*
X38190Y719517D01*
X38848Y717929D01*
X39894Y716565D01*
X41258Y715519D01*
X42846Y714861D01*
X44550Y714636D01*
X46254Y714861D01*
X47842Y715519D01*
X49206Y716565D01*
X50252Y717929D01*
X50910Y719517D01*
X51134Y721221D01*
X50910Y722925D01*
X50252Y724513D01*
X49206Y725877D01*
X47842Y726923D01*
X46254Y727581D01*
X44550Y727805D01*
D02*
G37*
G36*
X83870Y717804D02*
X69846D01*
Y711280D01*
X83870D01*
Y717804D01*
D02*
G37*
G36*
X67814D02*
X53790D01*
Y711280D01*
X67814D01*
Y717804D01*
D02*
G37*
G36*
X83108Y700198D02*
X54552D01*
Y696269D01*
X39461D01*
X39039Y696899D01*
X37443Y697966D01*
X35560Y698341D01*
X33677Y697966D01*
X32081Y696899D01*
X31014Y695303D01*
X30640Y693420D01*
X31014Y691537D01*
X32081Y689941D01*
X33677Y688874D01*
X35560Y688500D01*
X37443Y688874D01*
X39039Y689941D01*
X39461Y690571D01*
X54552D01*
Y686642D01*
X83108D01*
Y700198D01*
D02*
G37*
G36*
Y674798D02*
X54552D01*
Y670869D01*
X25491D01*
X25069Y671499D01*
X23473Y672566D01*
X21590Y672941D01*
X19707Y672566D01*
X18111Y671499D01*
X17044Y669903D01*
X16669Y668020D01*
X17044Y666137D01*
X18111Y664541D01*
X19707Y663474D01*
X21590Y663100D01*
X23473Y663474D01*
X25069Y664541D01*
X25491Y665171D01*
X54552D01*
Y661242D01*
X83108D01*
Y674798D01*
D02*
G37*
G36*
X44550Y659805D02*
X42846Y659581D01*
X41258Y658923D01*
X39894Y657877D01*
X38848Y656513D01*
X38190Y654925D01*
X37966Y653221D01*
X38190Y651517D01*
X38848Y649929D01*
X39894Y648565D01*
X41258Y647519D01*
X42846Y646861D01*
X44550Y646636D01*
X46254Y646861D01*
X47842Y647519D01*
X49206Y648565D01*
X50252Y649929D01*
X50910Y651517D01*
X51134Y653221D01*
X50910Y654925D01*
X50252Y656513D01*
X49206Y657877D01*
X47842Y658923D01*
X46254Y659581D01*
X44550Y659805D01*
D02*
G37*
G36*
X72644Y607916D02*
X70761Y607542D01*
X69165Y606475D01*
X68098Y604879D01*
X67723Y602996D01*
X68098Y601113D01*
X69165Y599517D01*
X70761Y598450D01*
X72644Y598075D01*
X73388Y598223D01*
X74621Y596990D01*
Y592074D01*
X69342D01*
Y581914D01*
X69342D01*
Y581660D01*
X68316Y581071D01*
X68072Y580941D01*
X67415Y581380D01*
X65532Y581754D01*
X63649Y581380D01*
X62053Y580313D01*
X60986Y578717D01*
X60612Y576834D01*
X60986Y574951D01*
X62053Y573355D01*
X63649Y572288D01*
X65532Y571913D01*
X67415Y572288D01*
X67939Y572638D01*
X69212Y572361D01*
X69342Y571500D01*
Y571246D01*
X69342D01*
Y561086D01*
X72798D01*
X73284Y559913D01*
X55898Y542526D01*
X55280Y541602D01*
X55063Y540512D01*
X55063Y540512D01*
Y540095D01*
X54433Y539673D01*
X53366Y538077D01*
X52991Y536194D01*
X53366Y534311D01*
X54433Y532715D01*
X56029Y531648D01*
X57912Y531273D01*
X59795Y531648D01*
X61391Y532715D01*
X62458Y534311D01*
X62832Y536194D01*
X62458Y538077D01*
X61391Y539673D01*
X61365Y539937D01*
X79484Y558056D01*
X79484Y558056D01*
X80102Y558980D01*
X80319Y560070D01*
Y561086D01*
X85598D01*
Y571246D01*
X85598D01*
Y571500D01*
X85598D01*
Y581660D01*
X85598D01*
Y581914D01*
X85598D01*
Y592074D01*
X80319D01*
Y598170D01*
X80319Y598170D01*
X80102Y599260D01*
X79484Y600184D01*
X79484Y600184D01*
X77417Y602252D01*
X77565Y602996D01*
X77190Y604879D01*
X76123Y606475D01*
X74527Y607542D01*
X72644Y607916D01*
D02*
G37*
G36*
X114300Y585521D02*
X111850Y585034D01*
X109774Y583646D01*
X108386Y581570D01*
X107899Y579120D01*
X108386Y576670D01*
X109774Y574594D01*
X111451Y573473D01*
Y562701D01*
X110821Y562279D01*
X109754Y560683D01*
X109380Y558800D01*
X109754Y556917D01*
X110821Y555321D01*
X112417Y554254D01*
X114300Y553880D01*
X116183Y554254D01*
X117779Y555321D01*
X118846Y556917D01*
X119221Y558800D01*
X118846Y560683D01*
X117779Y562279D01*
X117149Y562701D01*
Y573473D01*
X118826Y574594D01*
X120214Y576670D01*
X120701Y579120D01*
X120214Y581570D01*
X118826Y583646D01*
X116750Y585034D01*
X114300Y585521D01*
D02*
G37*
G36*
X49530Y533241D02*
X47647Y532866D01*
X46051Y531799D01*
X44984Y530203D01*
X44609Y528320D01*
X44842Y527152D01*
X38850Y521160D01*
X38354Y521259D01*
X35904Y520772D01*
X33828Y519384D01*
X32440Y517308D01*
X31953Y514858D01*
X32440Y512408D01*
X33828Y510332D01*
X35904Y508944D01*
X38354Y508457D01*
X40804Y508944D01*
X42880Y510332D01*
X44268Y512408D01*
X44755Y514858D01*
X44268Y517308D01*
X43782Y518035D01*
X49210Y523463D01*
X49530Y523400D01*
X51413Y523774D01*
X53009Y524841D01*
X54076Y526437D01*
X54450Y528320D01*
X54076Y530203D01*
X53009Y531799D01*
X51413Y532866D01*
X49530Y533241D01*
D02*
G37*
G36*
X49710Y483519D02*
X47827Y483144D01*
X46230Y482077D01*
X45164Y480481D01*
X44789Y478598D01*
X45164Y476715D01*
X45176Y476697D01*
X44924Y475221D01*
X43734Y474426D01*
X42346Y472350D01*
X41859Y469900D01*
X42346Y467450D01*
X43734Y465374D01*
X45810Y463986D01*
X48260Y463499D01*
X50710Y463986D01*
X52786Y465374D01*
X54174Y467450D01*
X54661Y469900D01*
X54174Y472350D01*
X52786Y474426D01*
X53450Y475510D01*
X54256Y476715D01*
X54630Y478598D01*
X54256Y480481D01*
X53189Y482077D01*
X51593Y483144D01*
X49710Y483519D01*
D02*
G37*
G36*
X92710Y469951D02*
X90260Y469464D01*
X88184Y468076D01*
X86796Y466000D01*
X86309Y463550D01*
X86796Y461100D01*
X88184Y459024D01*
X90260Y457636D01*
X92710Y457149D01*
X95160Y457636D01*
X97236Y459024D01*
X98357Y460701D01*
X100239D01*
X100661Y460071D01*
X102257Y459004D01*
X104140Y458629D01*
X106023Y459004D01*
X107619Y460071D01*
X108686Y461667D01*
X109060Y463550D01*
X108686Y465433D01*
X107619Y467029D01*
X106023Y468096D01*
X104140Y468470D01*
X102257Y468096D01*
X100661Y467029D01*
X100239Y466399D01*
X98357D01*
X97236Y468076D01*
X95160Y469464D01*
X92710Y469951D01*
D02*
G37*
G36*
X74930Y375971D02*
X72480Y375484D01*
X70404Y374096D01*
X69016Y372020D01*
X68529Y369570D01*
X69016Y367120D01*
X70404Y365044D01*
X71408Y364373D01*
X71450Y362899D01*
X71429Y362856D01*
X70384Y361293D01*
X70009Y359410D01*
X70384Y357527D01*
X71451Y355931D01*
X73047Y354864D01*
X74930Y354490D01*
X76813Y354864D01*
X78409Y355931D01*
X79476Y357527D01*
X79851Y359410D01*
X79476Y361293D01*
X78431Y362856D01*
X78410Y362899D01*
X78452Y364373D01*
X79456Y365044D01*
X80844Y367120D01*
X81331Y369570D01*
X80844Y372020D01*
X79456Y374096D01*
X77380Y375484D01*
X74930Y375971D01*
D02*
G37*
G36*
X46990Y323901D02*
X44540Y323414D01*
X42464Y322026D01*
X41076Y319950D01*
X40589Y317500D01*
X41076Y315050D01*
X42464Y312974D01*
X44540Y311586D01*
X45118Y311471D01*
Y310538D01*
X45355Y309349D01*
X46029Y308341D01*
X46854Y307515D01*
X46607Y306274D01*
X46982Y304391D01*
X48049Y302795D01*
X49645Y301728D01*
X51528Y301354D01*
X53411Y301728D01*
X55007Y302795D01*
X56074Y304391D01*
X56448Y306274D01*
X56074Y308157D01*
X55007Y309754D01*
X53411Y310820D01*
X52073Y311086D01*
X51476Y311684D01*
X51516Y312974D01*
X52904Y315050D01*
X53391Y317500D01*
X52904Y319950D01*
X51516Y322026D01*
X49440Y323414D01*
X46990Y323901D01*
D02*
G37*
G36*
X40124Y309701D02*
X38241Y309327D01*
X36645Y308260D01*
X35578Y306664D01*
X35204Y304781D01*
X35578Y302898D01*
X36645Y301301D01*
X38241Y300235D01*
X40124Y299860D01*
X42007Y300235D01*
X43604Y301301D01*
X44670Y302898D01*
X45045Y304781D01*
X44670Y306664D01*
X43604Y308260D01*
X42007Y309327D01*
X40124Y309701D01*
D02*
G37*
G36*
X60582Y286760D02*
X58699Y286385D01*
X57103Y285319D01*
X56036Y283722D01*
X55662Y281840D01*
X56036Y279956D01*
X57103Y278360D01*
X57203Y278294D01*
Y276820D01*
X56434Y276306D01*
X55046Y274230D01*
X54559Y271780D01*
X55046Y269330D01*
X56434Y267254D01*
X58510Y265866D01*
X60960Y265379D01*
X63410Y265866D01*
X65486Y267254D01*
X66874Y269330D01*
X67361Y271780D01*
X66874Y274230D01*
X65486Y276306D01*
X64380Y277045D01*
X64261Y277536D01*
X64258Y278654D01*
X65128Y279956D01*
X65503Y281840D01*
X65128Y283722D01*
X64061Y285319D01*
X62465Y286385D01*
X60582Y286760D01*
D02*
G37*
G36*
X97790Y272323D02*
X81280D01*
X80586Y272185D01*
X79998Y271792D01*
X79605Y271204D01*
X79467Y270510D01*
Y265692D01*
X72241Y258467D01*
X70950Y256534D01*
X70497Y254254D01*
Y249943D01*
X70243Y248666D01*
Y200660D01*
X70244Y200655D01*
Y126673D01*
X51301Y107731D01*
X31750D01*
X31056Y107593D01*
X30468Y107200D01*
X30075Y106612D01*
X29937Y105918D01*
Y45212D01*
X30075Y44518D01*
X30468Y43930D01*
X31410Y42988D01*
X30691Y41911D01*
X30626Y41938D01*
X30429Y41978D01*
X30243Y42054D01*
X27299Y42640D01*
X27098D01*
X26901Y42679D01*
X23899D01*
X23702Y42640D01*
X23501D01*
X20557Y42054D01*
X20371Y41978D01*
X20174Y41938D01*
X17401Y40789D01*
X17234Y40678D01*
X17048Y40601D01*
X14552Y38933D01*
X14410Y38791D01*
X14243Y38680D01*
X12120Y36557D01*
X12009Y36390D01*
X11867Y36248D01*
X10199Y33752D01*
X10122Y33566D01*
X10010Y33399D01*
X8862Y30626D01*
X8823Y30429D01*
X8746Y30243D01*
X8160Y27299D01*
Y27098D01*
X8121Y26901D01*
X8121Y25400D01*
Y23899D01*
X8160Y23702D01*
Y23501D01*
X8746Y20557D01*
X8823Y20371D01*
X8862Y20174D01*
X10010Y17401D01*
X10122Y17234D01*
X10199Y17048D01*
X11867Y14552D01*
X12009Y14410D01*
X12120Y14243D01*
X14243Y12120D01*
X14410Y12009D01*
X14552Y11867D01*
X17048Y10199D01*
X17234Y10122D01*
X17401Y10010D01*
X20174Y8862D01*
X20371Y8823D01*
X20557Y8746D01*
X23501Y8160D01*
X23702D01*
X23899Y8121D01*
X25400Y8121D01*
X26901D01*
X27098Y8160D01*
X27299D01*
X30243Y8746D01*
X30429Y8823D01*
X30626Y8862D01*
X33399Y10010D01*
X33566Y10122D01*
X33752Y10199D01*
X36248Y11867D01*
X36390Y12009D01*
X36557Y12120D01*
X38680Y14243D01*
X38791Y14410D01*
X38933Y14552D01*
X40601Y17048D01*
X40678Y17234D01*
X40789Y17401D01*
X41938Y20174D01*
X41978Y20371D01*
X42054Y20557D01*
X42640Y23501D01*
Y23702D01*
X42679Y23899D01*
Y26901D01*
X42640Y27098D01*
Y27299D01*
X42054Y30243D01*
X41978Y30429D01*
X41938Y30626D01*
X40789Y33399D01*
X40678Y33566D01*
X40601Y33752D01*
X40095Y34509D01*
X40774Y35779D01*
X47936D01*
X48407Y34899D01*
X48500Y34509D01*
X48154Y32766D01*
X48528Y30883D01*
X49595Y29287D01*
X51191Y28220D01*
X53074Y27845D01*
X54957Y28220D01*
X55937Y28875D01*
X56774Y28161D01*
X56899Y27990D01*
X56536Y26162D01*
X56910Y24279D01*
X57977Y22683D01*
X59573Y21616D01*
X61456Y21242D01*
X63339Y21616D01*
X64936Y22683D01*
X66002Y24279D01*
X66377Y26162D01*
X66002Y28045D01*
X64936Y29641D01*
X63339Y30708D01*
X61456Y31082D01*
X59573Y30708D01*
X58593Y30053D01*
X57757Y30767D01*
X57631Y30938D01*
X57995Y32766D01*
X57648Y34509D01*
X57742Y34899D01*
X58212Y35779D01*
X58674D01*
X59368Y35917D01*
X59956Y36310D01*
X60349Y36898D01*
X60487Y37592D01*
Y100069D01*
X80412Y119994D01*
X81703Y121927D01*
X82156Y124206D01*
Y197293D01*
X83599D01*
X84374Y196134D01*
X86450Y194746D01*
X88900Y194259D01*
X91350Y194746D01*
X93426Y196134D01*
X94814Y198210D01*
X95301Y200660D01*
X94814Y203110D01*
X93426Y205186D01*
X91350Y206574D01*
X88900Y207061D01*
X86450Y206574D01*
X84374Y205186D01*
X83599Y204027D01*
X82157D01*
Y247643D01*
X82411Y248920D01*
Y251786D01*
X84211Y253586D01*
X88888Y248908D01*
X89476Y248515D01*
X90170Y248377D01*
X96520Y248377D01*
X97214Y248515D01*
X97802Y248908D01*
X101612Y252718D01*
X102005Y253306D01*
X102143Y254000D01*
Y267970D01*
X102005Y268664D01*
X101612Y269252D01*
X99072Y271792D01*
X98484Y272185D01*
X97790Y272323D01*
D02*
G37*
G36*
X59350Y216040D02*
X38076D01*
Y206516D01*
X59350D01*
Y216040D01*
D02*
G37*
G36*
Y204484D02*
X38076D01*
Y194960D01*
X59350D01*
Y204484D01*
D02*
G37*
G36*
Y160640D02*
X38076D01*
Y151116D01*
X59350D01*
Y160640D01*
D02*
G37*
G36*
X107442Y153764D02*
X105559Y153390D01*
X103963Y152323D01*
X102896Y150727D01*
X102521Y148844D01*
X102896Y146961D01*
X103963Y145365D01*
X105559Y144298D01*
X107442Y143924D01*
X109325Y144298D01*
X110921Y145365D01*
X111988Y146961D01*
X112362Y148844D01*
X111988Y150727D01*
X110921Y152323D01*
X109325Y153390D01*
X107442Y153764D01*
D02*
G37*
G36*
X59350Y149084D02*
X38076D01*
Y139560D01*
X59350D01*
Y149084D01*
D02*
G37*
G36*
X107696Y139031D02*
X106105Y138715D01*
X104756Y137814D01*
X103855Y136465D01*
X103539Y134874D01*
X103855Y133283D01*
X104756Y131934D01*
X106105Y131033D01*
X107696Y130717D01*
X107803Y130738D01*
X115261Y123280D01*
Y110972D01*
X113991Y110568D01*
X112627Y111480D01*
X110744Y111854D01*
X108861Y111480D01*
X107265Y110413D01*
X106198Y108817D01*
X105823Y106934D01*
X106198Y105051D01*
X107265Y103455D01*
X108861Y102388D01*
X110744Y102014D01*
X112627Y102388D01*
X113991Y103300D01*
X115261Y102896D01*
Y89826D01*
X97300Y71864D01*
X96682Y70940D01*
X96465Y69850D01*
X96465Y69850D01*
Y62944D01*
X96374Y62884D01*
X95473Y61535D01*
X95339Y60860D01*
X94044D01*
X94011Y61027D01*
X93239Y62183D01*
Y96673D01*
X94509Y97059D01*
X95327Y95835D01*
X96923Y94768D01*
X98806Y94394D01*
X100689Y94768D01*
X102285Y95835D01*
X103352Y97431D01*
X103727Y99314D01*
X103352Y101197D01*
X102285Y102793D01*
Y102947D01*
X103352Y104543D01*
X103727Y106426D01*
X103352Y108309D01*
X102285Y109905D01*
X100689Y110972D01*
X98806Y111347D01*
X98449Y111695D01*
X98445Y112175D01*
X99568Y113189D01*
X101451Y113564D01*
X103047Y114631D01*
X104114Y116227D01*
X104488Y118110D01*
X104114Y119993D01*
X103047Y121589D01*
X101451Y122656D01*
X99568Y123031D01*
X97685Y122656D01*
X96266Y121708D01*
X94847Y122656D01*
X92964Y123031D01*
X92397Y124213D01*
Y128574D01*
X93029Y128996D01*
X94095Y130592D01*
X94470Y132476D01*
X94095Y134359D01*
X93029Y135955D01*
X91433Y137021D01*
X89550Y137396D01*
X87666Y137021D01*
X86070Y135955D01*
X85003Y134359D01*
X84629Y132476D01*
X85003Y130592D01*
X86070Y128996D01*
X86702Y128574D01*
Y125019D01*
X84633Y122951D01*
X84016Y122027D01*
X83799Y120937D01*
X83799Y120937D01*
Y107347D01*
X83799Y107347D01*
X84016Y106258D01*
X84633Y105334D01*
X87543Y102424D01*
Y62585D01*
X87230Y62376D01*
X86329Y61027D01*
X86013Y59436D01*
X86329Y57845D01*
X87230Y56496D01*
X88579Y55595D01*
X90170Y55279D01*
X91761Y55595D01*
X93110Y56496D01*
X94011Y57845D01*
X94145Y58520D01*
X95440D01*
X95473Y58353D01*
X96374Y57004D01*
X97723Y56103D01*
X99314Y55787D01*
X100905Y56103D01*
X102254Y57004D01*
X103155Y58353D01*
X103471Y59944D01*
X103155Y61535D01*
X102254Y62884D01*
X102163Y62944D01*
Y68670D01*
X120124Y86632D01*
X120742Y87556D01*
X120959Y88646D01*
X120959Y88646D01*
Y124460D01*
X120959Y124460D01*
X120742Y125550D01*
X120124Y126474D01*
X120124Y126474D01*
X111832Y134767D01*
X111853Y134874D01*
X111537Y136465D01*
X110636Y137814D01*
X109287Y138715D01*
X107696Y139031D01*
D02*
G37*
G36*
X99822Y50132D02*
X97939Y49758D01*
X96343Y48691D01*
X95276Y47095D01*
X94902Y45212D01*
X95276Y43329D01*
X96343Y41733D01*
Y41579D01*
X95276Y39983D01*
X94902Y38100D01*
X95276Y36217D01*
X96343Y34621D01*
X97939Y33554D01*
X99822Y33180D01*
X101705Y33554D01*
X103301Y34621D01*
X104368Y36217D01*
X104742Y38100D01*
X104368Y39983D01*
X103301Y41579D01*
Y41733D01*
X104368Y43329D01*
X104742Y45212D01*
X104368Y47095D01*
X103301Y48691D01*
X101705Y49758D01*
X99822Y50132D01*
D02*
G37*
G36*
X99568Y28035D02*
X97685Y27660D01*
X96089Y26593D01*
X95378Y25530D01*
X93923Y25437D01*
X93909Y25443D01*
X93649Y25831D01*
X92053Y26898D01*
X90170Y27273D01*
X88287Y26898D01*
X86691Y25831D01*
X85624Y24235D01*
X85250Y22352D01*
X85624Y20469D01*
X86691Y18873D01*
X88287Y17806D01*
X90170Y17431D01*
X92053Y17806D01*
X93649Y18873D01*
X93768Y19050D01*
X95262Y19000D01*
X95417Y18731D01*
X95022Y18139D01*
X94648Y16256D01*
X95022Y14373D01*
X95970Y12954D01*
X95022Y11535D01*
X94648Y9652D01*
X95022Y7769D01*
X96089Y6173D01*
X97685Y5106D01*
X99568Y4732D01*
X101451Y5106D01*
X103047Y6173D01*
X104114Y7769D01*
X104488Y9652D01*
X104114Y11535D01*
X103166Y12954D01*
X104114Y14373D01*
X104488Y16256D01*
X104222Y17596D01*
X105365Y18359D01*
X105813Y18060D01*
X107696Y17686D01*
X109579Y18060D01*
X111175Y19127D01*
X112242Y20723D01*
X112617Y22606D01*
X112242Y24489D01*
X111175Y26085D01*
X109579Y27152D01*
X107696Y27527D01*
X105813Y27152D01*
X104217Y26085D01*
X103859D01*
X103034Y26602D01*
X101451Y27660D01*
X99568Y28035D01*
D02*
G37*
G36*
X136652Y28289D02*
X134769Y27914D01*
X133173Y26847D01*
X132106Y25251D01*
X131732Y23368D01*
X132106Y21485D01*
X133173Y19889D01*
X134769Y18822D01*
X136652Y18448D01*
X138535Y18822D01*
X140131Y19889D01*
X141198Y21485D01*
X141573Y23368D01*
X141198Y25251D01*
X140131Y26847D01*
X138535Y27914D01*
X136652Y28289D01*
D02*
G37*
%LPD*%
G36*
X78804Y569468D02*
X76136D01*
Y583692D01*
X78804D01*
Y569468D01*
D02*
G37*
G36*
X100330Y267970D02*
Y254000D01*
X96520Y250190D01*
X90170Y250190D01*
X81280Y259080D01*
Y270510D01*
X97790D01*
X100330Y267970D01*
D02*
G37*
G36*
X58674Y37592D02*
X39370D01*
X31750Y45212D01*
Y105918D01*
X58674D01*
Y37592D01*
D02*
G37*
%LPC*%
G36*
X125730Y427831D02*
X123847Y427456D01*
X122251Y426389D01*
X121184Y424793D01*
X120809Y422910D01*
X121184Y421027D01*
X122251Y419431D01*
X122881Y419009D01*
Y391251D01*
X122251Y390829D01*
X121184Y389233D01*
X120809Y387350D01*
X121184Y385467D01*
X122251Y383871D01*
X123847Y382804D01*
X125730Y382430D01*
X127613Y382804D01*
X129209Y383871D01*
X130276Y385467D01*
X130651Y387350D01*
X130276Y389233D01*
X129209Y390829D01*
X128579Y391251D01*
Y419009D01*
X129209Y419431D01*
X130276Y421027D01*
X130651Y422910D01*
X130276Y424793D01*
X129209Y426389D01*
X127613Y427456D01*
X125730Y427831D01*
D02*
G37*
G36*
X199898Y125570D02*
X198015Y125196D01*
X196419Y124129D01*
X196265D01*
X194669Y125196D01*
X192786Y125570D01*
X190903Y125196D01*
X189307Y124129D01*
X188240Y122533D01*
X187866Y120650D01*
X188240Y118767D01*
X189307Y117171D01*
X190903Y116104D01*
X192786Y115730D01*
X194669Y116104D01*
X196265Y117171D01*
X196419D01*
X198015Y116104D01*
X199898Y115730D01*
X201781Y116104D01*
X203377Y117171D01*
X204444Y118767D01*
X204818Y120650D01*
X204444Y122533D01*
X203377Y124129D01*
X201781Y125196D01*
X199898Y125570D01*
D02*
G37*
%LPD*%
D14*
X149352Y112522D02*
Y144018D01*
X119856Y153416D02*
X139954D01*
X149352Y144018D01*
Y112522D02*
X178054Y83820D01*
X118110Y88646D02*
Y124460D01*
X107696Y134874D02*
X118110Y124460D01*
X99314Y59944D02*
Y69850D01*
X118110Y88646D01*
X418116Y618490D02*
Y659670D01*
X439166Y680720D02*
X485934D01*
X418116Y659670D02*
X439166Y680720D01*
X485934D02*
X492284Y687070D01*
X452120Y726440D02*
X502598D01*
X410707Y685027D02*
X452120Y726440D01*
X410707Y665480D02*
Y685027D01*
X520192Y734822D02*
Y790702D01*
X539750Y810260D01*
X502634Y717264D02*
X520192Y734822D01*
X525780Y788670D02*
X545656Y808546D01*
X525780Y730250D02*
Y788670D01*
X512477Y716946D02*
X525780Y730250D01*
X334264Y559054D02*
Y615974D01*
X328930Y553720D02*
X334264Y559054D01*
Y615974D02*
X355600Y637310D01*
X355702Y654152D02*
Y657962D01*
X325628Y588518D02*
Y624078D01*
X355702Y657962D02*
X355918Y658177D01*
X325628Y624078D02*
X355702Y654152D01*
X178054Y83820D02*
X251460D01*
X38354Y514858D02*
Y516636D01*
X49784Y528066D01*
X57912Y540512D02*
X77470Y560070D01*
X57912Y536194D02*
Y540512D01*
X77470Y560070D02*
Y566166D01*
X532130Y87359D02*
X539484Y80005D01*
X545851D01*
X547116Y78740D01*
X457486Y466118D02*
X457708Y465896D01*
Y357886D02*
X461264Y354330D01*
X457708Y357886D02*
Y465896D01*
X457486Y466118D02*
Y469614D01*
X426720Y500380D02*
X457486Y469614D01*
X461264Y354330D02*
X476446D01*
Y316230D02*
X498832D01*
X515620Y313944D02*
Y519391D01*
Y275590D02*
Y313944D01*
X498832Y316230D02*
X501118Y313944D01*
X515620D01*
X501674Y321964D02*
X502380Y322669D01*
Y334296D01*
X476669Y328707D02*
X493723D01*
X476446Y328930D02*
X476669Y328707D01*
X493723D02*
X495216Y330200D01*
X496316D01*
X497586Y339090D02*
X502380Y334296D01*
X478986Y339090D02*
X497586D01*
X476446Y341630D02*
X478986Y339090D01*
X146558Y580644D02*
X147066D01*
X72644Y602996D02*
X77470Y598170D01*
X72136Y603504D02*
X72644Y602996D01*
X77470Y586994D02*
Y598170D01*
X34290Y774700D02*
X119126Y689864D01*
Y689610D02*
Y689864D01*
X155702Y548386D02*
X155702Y548386D01*
X143764Y548386D02*
X143764Y548386D01*
X155702D01*
X154686Y559562D02*
X154940Y559816D01*
Y572770D01*
X147066Y580644D02*
X154940Y572770D01*
X162560Y508000D02*
Y662940D01*
X240030Y784860D02*
Y796290D01*
X223806Y768636D02*
X240030Y784860D01*
X359918Y1016000D02*
X360172Y1015746D01*
Y1004824D02*
Y1015746D01*
X359918Y1028954D02*
Y1040130D01*
X12700Y850900D02*
X133350Y730250D01*
X135890D01*
X142240D01*
X156210Y716280D01*
X107725Y165547D02*
X119856Y153416D01*
X107725Y180819D02*
Y445457D01*
X107725Y165547D02*
Y180819D01*
X107725Y180819D02*
X107725Y180819D01*
X107725Y445457D02*
X133512Y471245D01*
X35560Y693420D02*
X60960D01*
X83375Y847915D02*
Y886015D01*
X461502Y997442D02*
X462678Y998618D01*
X114084Y706336D02*
X117894D01*
X23146Y793464D02*
X26956D01*
X114084Y706336D01*
X16510Y800100D02*
X23146Y793464D01*
X12700Y800100D02*
X16510D01*
X21590Y668020D02*
X60960D01*
X399129Y509016D02*
Y514001D01*
X398780Y514350D02*
X399129Y514001D01*
Y509016D02*
X400050Y508095D01*
Y430530D02*
Y508095D01*
X394970Y425450D02*
X400050Y430530D01*
X83820Y805180D02*
X121599D01*
X74930Y814070D02*
X83820Y805180D01*
X121599D02*
X158143Y768636D01*
X133705Y705766D02*
X134089D01*
X27019Y812451D02*
X133705Y705766D01*
X27019Y812451D02*
Y820071D01*
X145351Y684040D02*
X145524Y683867D01*
X170408Y122759D02*
X177800Y130152D01*
X170180Y122532D02*
X170408Y122759D01*
X170180Y122430D02*
Y122532D01*
Y121920D02*
Y122430D01*
X156210Y116840D02*
X164399D01*
X177800Y130152D02*
Y130810D01*
X170042Y122430D02*
X170180D01*
X426720Y555946D02*
Y571500D01*
X459524Y615734D02*
X463334D01*
X406400Y293370D02*
Y562610D01*
X463334Y615734D02*
X463550Y615950D01*
X406400Y562610D02*
X459524Y615734D01*
X399574Y97790D02*
X500380D01*
X391160Y106204D02*
X399574Y97790D01*
X404844Y109506D02*
X484854D01*
X485140Y109220D01*
X441960Y539750D02*
X473996Y571786D01*
X425450Y539750D02*
X441960D01*
X74930Y890270D02*
X78740Y894080D01*
X74930Y868850D02*
Y890270D01*
X72073Y865993D02*
X74930Y868850D01*
X72073Y849630D02*
Y865993D01*
X83375Y886015D02*
X86245Y888885D01*
X77470Y842010D02*
X83375Y847915D01*
X86245Y888885D02*
X356280D01*
X66040Y839470D02*
Y847087D01*
X66009Y847118D02*
X66040Y847087D01*
X66009Y847118D02*
Y872462D01*
X66040Y872493D02*
Y900430D01*
X66009Y872462D02*
X66040Y872493D01*
Y839470D02*
X74930Y830580D01*
Y814070D02*
Y830580D01*
X23417Y823673D02*
X27019Y820071D01*
X12700Y825500D02*
X14527Y823673D01*
X23417D01*
X12700Y774700D02*
X34290D01*
X519430Y884330D02*
Y982726D01*
X405069Y769969D02*
X519430Y884330D01*
X558800Y927100D02*
X571500D01*
X552450Y933450D02*
X558800Y927100D01*
X552450Y933450D02*
Y985520D01*
X429260Y763270D02*
X436880Y755650D01*
X429260Y763270D02*
Y769969D01*
X436880Y755650D02*
X494491D01*
X492266Y762000D02*
X499885Y769620D01*
X444500Y762000D02*
X492266D01*
X509270Y820166D02*
X514350Y825246D01*
X494491Y755650D02*
X509270Y770429D01*
Y820166D01*
X514350Y825246D02*
Y826770D01*
X440731Y765769D02*
X443753Y762747D01*
X440690Y769969D02*
X440731Y769928D01*
Y765769D02*
Y769928D01*
X443753Y762747D02*
X444500Y762000D01*
X443753Y762747D02*
X443753D01*
X302260Y208280D02*
Y259401D01*
X266700Y172720D02*
X302260Y208280D01*
Y259401D02*
X314988Y272129D01*
X385159D01*
X406400Y293370D01*
X403546Y102870D02*
X494030D01*
X392126Y114290D02*
X403546Y102870D01*
X494030D02*
X499110Y107950D01*
X568960D01*
X572770Y104140D01*
X391171Y114290D02*
X392126D01*
X391160Y123190D02*
X404844Y109506D01*
X398780Y680720D02*
X449580Y731520D01*
X398780Y633730D02*
Y680720D01*
X449580Y731520D02*
X496570D01*
X391160Y642620D02*
Y680720D01*
X447040Y736600D02*
X493074D01*
X391160Y680720D02*
X447040Y736600D01*
X443202Y703866D02*
X467646D01*
X430219Y690883D02*
X443202Y703866D01*
X444500Y695960D02*
X472440D01*
X483870Y707390D01*
X496570Y731520D02*
X505460Y740410D01*
X502598Y726440D02*
X509625Y733468D01*
X493074Y736600D02*
X510094Y753620D01*
X391160Y614680D02*
Y642620D01*
Y589280D02*
Y614680D01*
X545656Y808546D02*
Y976664D01*
X539750Y810260D02*
Y976630D01*
X517762Y998618D02*
X539750Y976630D01*
X517750Y1004570D02*
X545656Y976664D01*
X78740Y894080D02*
X354644D01*
X259080Y43180D02*
X269240D01*
X255270Y46990D02*
X259080Y43180D01*
X255270Y46990D02*
Y80010D01*
X251460Y83820D02*
X255270Y80010D01*
X411480Y505460D02*
X416560Y500380D01*
X411480Y540706D02*
X426720Y555946D01*
X411480Y505460D02*
Y540706D01*
X416560Y500380D02*
X426720D01*
X464820Y1032510D02*
X471456Y1025874D01*
X415290Y1032510D02*
X464820D01*
X411480Y1028700D02*
X415290Y1032510D01*
X394970Y1054100D02*
X402154Y1046916D01*
X486681D01*
X418385Y1010920D02*
X519430D01*
X548957Y915035D02*
Y981393D01*
X519430Y1010920D02*
X548957Y981393D01*
X522406Y1015564D02*
X552450Y985520D01*
X412314Y1015564D02*
X522406D01*
X407670Y1000205D02*
X418385Y1010920D01*
X396240Y999490D02*
X412314Y1015564D01*
X471456Y1025874D02*
X506089D01*
X508343Y1023620D01*
X510540D01*
X494030Y998618D02*
X517762D01*
X440055Y979491D02*
Y981075D01*
X354644Y894080D02*
X440055Y979491D01*
X356280Y888885D02*
X461502Y994108D01*
Y997442D01*
X440055Y981075D02*
X452120Y993140D01*
Y1002791D01*
X434375Y986756D02*
X440055Y981075D01*
X490474Y78740D02*
X500380D01*
X572770Y92710D02*
Y104140D01*
X448903Y148622D02*
Y155617D01*
X445770Y158750D02*
X448903Y155617D01*
X439547Y158750D02*
X445770D01*
X250190Y172720D02*
X266700D01*
X209550Y339725D02*
X314325D01*
X384434Y409834D02*
Y417830D01*
X314325Y339725D02*
X384434Y409834D01*
X320450Y373380D02*
X372520Y425450D01*
X209550Y373380D02*
X320450D01*
X91440Y434340D02*
X100330Y443230D01*
X77470Y434340D02*
X91440D01*
X100330Y443230D02*
X100828D01*
X130210Y472612D01*
Y480730D01*
X478790Y59690D02*
X492760D01*
X114300Y558800D02*
Y579120D01*
X144780Y749300D02*
X145415Y749935D01*
X255905D01*
X264160Y741680D01*
X518922Y326255D02*
X521970Y323207D01*
X518922Y319381D02*
X521970Y322429D01*
Y322818D02*
Y323207D01*
X518922Y310388D02*
Y319381D01*
Y326255D02*
Y520759D01*
X497586Y542095D02*
X518922Y520759D01*
X522224Y336296D02*
Y522126D01*
X535225Y317500D02*
Y323295D01*
X522224Y336296D02*
X535225Y323295D01*
Y317500D02*
X571500D01*
X419100Y514350D02*
X505460D01*
X518922Y310388D02*
X537210Y292100D01*
X494284Y540727D02*
X515620Y519391D01*
Y275590D02*
X524510Y266700D01*
X158143Y768636D02*
X223806D01*
X264160Y723265D02*
Y741680D01*
X162560Y662940D02*
X197485Y697865D01*
X230668D01*
X156210Y648970D02*
Y716280D01*
X133512Y478952D02*
X162560Y508000D01*
X133512Y471245D02*
Y478952D01*
X148147Y498667D02*
Y510097D01*
X130210Y480730D02*
X148147Y498667D01*
X125730Y387350D02*
Y422910D01*
X473996Y571786D02*
X484442D01*
X485140Y572484D01*
X48260Y469900D02*
Y476049D01*
Y467360D02*
Y469900D01*
X49710Y477498D02*
Y478598D01*
X48260Y476049D02*
X49710Y477498D01*
X60642Y271780D02*
Y281779D01*
X92710Y463550D02*
X104140D01*
X486410Y717550D02*
X486696Y717264D01*
X502634D01*
X476250Y711200D02*
X510540D01*
X467646Y703866D02*
X467838Y704058D01*
X486501Y701326D02*
X495014D01*
X498348Y697992D01*
Y617728D02*
Y697992D01*
X483870Y707390D02*
X504190D01*
X537210Y539828D02*
X545592Y531446D01*
X518446Y568674D02*
X537210Y549910D01*
Y539828D02*
Y549910D01*
X533400Y538969D02*
Y543532D01*
X533442Y543574D02*
Y548598D01*
X533400Y543532D02*
X533442Y543574D01*
X515112Y566928D02*
X533442Y548598D01*
X533400Y538969D02*
X542036Y530333D01*
X545592Y512318D02*
Y531446D01*
Y512318D02*
X548640Y509270D01*
X372520Y425450D02*
X394970D01*
X262890Y704850D02*
X368300D01*
X259080Y708660D02*
X262890Y704850D01*
X259080Y708660D02*
Y718185D01*
X562293Y901700D02*
X571500D01*
X548957Y915035D02*
X562293Y901700D01*
X407670Y999490D02*
Y1000205D01*
X60582Y281840D02*
X60642Y281779D01*
X488950Y615725D02*
X496345D01*
X498348Y617728D01*
X501650Y681990D02*
X506730Y687070D01*
X501650Y595630D02*
Y681990D01*
X508921Y598109D02*
X515112Y591918D01*
Y566928D02*
Y591918D01*
X508921Y598109D02*
Y660400D01*
X508000Y545690D02*
Y589280D01*
X501650Y595630D02*
X508000Y589280D01*
X511810Y565150D02*
Y590550D01*
X505619Y596741D02*
Y668696D01*
Y596741D02*
X511810Y590550D01*
X462678Y998618D02*
X494030D01*
X504190Y707390D02*
X509011Y702569D01*
X509044D01*
X453899Y1004570D02*
X517750D01*
X452120Y1002791D02*
X453899Y1004570D01*
X510540Y711200D02*
X529630Y692110D01*
Y667704D02*
Y692110D01*
X510094Y753620D02*
Y760730D01*
X474504Y599021D02*
Y643096D01*
X461328Y649287D02*
X468312D01*
X474504Y643096D01*
X524510Y266700D02*
X571500D01*
X483870Y593090D02*
X494284Y582676D01*
Y540727D02*
Y582676D01*
X461010Y660400D02*
X461788Y659622D01*
X463917D01*
X477806Y645734D01*
X537210Y292100D02*
X571500D01*
X497586Y542095D02*
Y584044D01*
X485238Y596392D02*
X497586Y584044D01*
X481803Y596392D02*
X485238D01*
X477806Y600389D02*
X481803Y596392D01*
X477806Y600389D02*
Y645734D01*
X552450Y495300D02*
X571500D01*
X542036Y505714D02*
Y530333D01*
Y505714D02*
X552450Y495300D01*
X508921Y660400D02*
X511461Y662940D01*
X516890D01*
X537210Y419100D02*
X571500D01*
X535432Y420878D02*
Y527597D01*
X521314Y541715D02*
Y555646D01*
X511810Y565150D02*
X521314Y555646D01*
Y541715D02*
X535432Y527597D01*
Y420878D02*
X537210Y419100D01*
X505619Y668696D02*
X523566Y686643D01*
X526415Y663390D02*
Y664489D01*
X529630Y667704D01*
X363220Y642312D02*
Y649258D01*
X369566Y655604D01*
X474504Y599021D02*
X480435Y593090D01*
X483870D01*
Y602901D02*
X500888Y585883D01*
Y543462D02*
Y585883D01*
X492121Y599320D02*
Y603754D01*
Y599320D02*
X504190Y587251D01*
Y544830D02*
Y587251D01*
X435610Y556260D02*
X453390D01*
X474980Y577850D01*
X527963Y539736D02*
Y545501D01*
X527378Y546086D02*
X527963Y545501D01*
Y539736D02*
X538734Y528965D01*
X514064Y544295D02*
Y554320D01*
X317500Y580390D02*
X325628Y588518D01*
X298450Y580390D02*
X317500D01*
X240030Y905510D02*
Y910590D01*
X81982Y900684D02*
X235204D01*
X240030Y905510D01*
X516125Y607016D02*
X518446Y604696D01*
Y568674D02*
Y604696D01*
X516125Y607016D02*
Y607695D01*
X211012Y323850D02*
X211013Y323850D01*
X379730D01*
X259080Y718185D02*
X264160Y723265D01*
X510697Y977743D02*
Y988217D01*
Y977743D02*
X514985Y973455D01*
X293370Y820420D02*
Y829310D01*
X276860Y803910D02*
X293370Y820420D01*
X267335Y804418D02*
X267843Y803910D01*
X276860D01*
X236171Y805010D02*
X243248D01*
X231680Y809502D02*
Y821150D01*
X243248Y805010D02*
X243840Y804418D01*
X231680Y809502D02*
X236171Y805010D01*
X243840Y804418D02*
X252893D01*
X69850Y912816D02*
X81982Y900684D01*
X223520Y829310D02*
X231680Y821150D01*
X401320Y1028700D02*
X401879Y1029259D01*
Y1034034D02*
X407975Y1040130D01*
X401879Y1029259D02*
Y1034034D01*
X488082Y1046882D02*
X506730Y1065530D01*
X486715Y1046882D02*
X488082D01*
X486681Y1046916D02*
X486715Y1046882D01*
X407975Y1040130D02*
X483870D01*
X148147Y510097D02*
X148590Y510540D01*
X494030Y991870D02*
Y998618D01*
X488950Y986790D02*
X494030Y991870D01*
X69850Y912816D02*
Y932180D01*
X404837Y769969D02*
X405069D01*
X514985Y884555D02*
Y973455D01*
X236616Y857125D02*
X243091Y863600D01*
X265430D01*
X267335Y814832D02*
Y829945D01*
X250190Y847090D02*
X267335Y829945D01*
X236220Y847090D02*
X250190D01*
X237320Y835660D02*
X243840Y829140D01*
Y814832D02*
Y829140D01*
X236220Y835660D02*
X237320D01*
X241961Y680429D02*
Y686572D01*
Y680429D02*
X242167Y680222D01*
X230668Y697865D02*
X241961Y686572D01*
X394970Y770890D02*
X402590Y778510D01*
X394970Y769969D02*
Y770890D01*
X74930Y359410D02*
Y369570D01*
X538480Y368300D02*
X571500D01*
X528828Y377952D02*
Y524862D01*
Y377952D02*
X538480Y368300D01*
X532130Y342900D02*
X571500D01*
X525526Y349504D02*
X532130Y342900D01*
X525526Y349504D02*
Y523494D01*
X538734Y453136D02*
Y528965D01*
X547370Y444500D02*
X571500D01*
X538734Y453136D02*
X547370Y444500D01*
X514064Y544295D02*
X532130Y526229D01*
X508000Y545690D02*
X528828Y524862D01*
X532130Y401320D02*
Y526229D01*
Y401320D02*
X539750Y393700D01*
X571500D01*
X504190Y544830D02*
X525526Y523494D01*
X500888Y543462D02*
X522224Y522126D01*
X209550Y339090D02*
Y339725D01*
X359918Y1052322D02*
Y1064260D01*
Y1052322D02*
X360045Y1052195D01*
X265938Y814832D02*
X267335D01*
X402590Y778510D02*
X408940D01*
X514985Y884555D01*
X285750Y782955D02*
X292735Y789940D01*
X274356Y782955D02*
X285750D01*
X252893Y804418D02*
X274356Y782955D01*
X267335Y796290D02*
Y804418D01*
Y796290D02*
X274320Y789305D01*
X283210D01*
D149*
X225750Y49280D02*
D03*
X167950D02*
D03*
D150*
X240050Y54280D02*
D03*
X153650D02*
D03*
D151*
X240050Y12480D02*
D03*
X153650D02*
D03*
D156*
X319800Y1042390D02*
D03*
X264400D02*
D03*
D158*
X37060Y205500D02*
D03*
Y150100D02*
D03*
D160*
X7620Y7620D02*
D03*
X577215Y1072515D02*
D03*
D161*
X285750Y137115D02*
Y176530D01*
Y137115D02*
X298890Y123975D01*
Y106350D02*
Y123975D01*
X295910Y103370D02*
X298890Y106350D01*
X300355Y82423D02*
X300482Y82550D01*
X287147Y82423D02*
X300355D01*
X287020Y82550D02*
X287147Y82423D01*
X213614Y64516D02*
X220300Y71202D01*
X224872D02*
X225552Y71882D01*
X220300Y71202D02*
X224872D01*
X285750Y176530D02*
X311404Y202184D01*
X51528Y306274D02*
Y307236D01*
X46990Y317500D02*
X48226Y316264D01*
Y310538D02*
X51528Y307236D01*
X48226Y310538D02*
Y316264D01*
X386080Y27940D02*
X387316Y26704D01*
X412750Y429260D02*
X433070D01*
X418551Y616980D02*
X437910D01*
X418310Y616740D02*
X418551Y616980D01*
X437910D02*
X438150Y617220D01*
X418310Y616740D02*
Y617700D01*
X212770Y479380D02*
X227457Y464693D01*
X209550Y480060D02*
X210230Y479380D01*
X212770D01*
X227457Y448437D02*
Y464693D01*
Y448437D02*
X227584Y448310D01*
X370332Y1016000D02*
X382270D01*
X555920Y691220D02*
X558548D01*
X559228Y690540D01*
X541020Y706120D02*
X555920Y691220D01*
X405096Y26704D02*
X406400Y25400D01*
X387316Y26704D02*
X405096D01*
D163*
X329143Y905194D02*
X337251D01*
X340614Y908558D01*
X328868Y905469D02*
X329143Y905194D01*
X340614Y908558D02*
Y1034450D01*
X347374Y1041211D01*
Y1041761D01*
X208223Y309790D02*
X223373Y294640D01*
X462026Y292100D02*
X483616D01*
X451186Y302940D02*
X462026Y292100D01*
X440576Y302940D02*
X451186D01*
X439986Y303530D02*
X440576Y302940D01*
X370332Y1054100D02*
Y1064260D01*
X370838Y1052195D02*
Y1053595D01*
X370332Y1040130D02*
Y1054100D01*
X370838Y1053595D01*
X408940Y124714D02*
X409194Y124460D01*
X419100D01*
X419227Y124968D02*
X422529Y128270D01*
X429133D01*
X65786Y576580D02*
X77470D01*
X65532Y576834D02*
X65786Y576580D01*
X200133Y490248D02*
X200521Y489860D01*
Y488423D02*
X200660Y488284D01*
X200521Y488423D02*
Y489860D01*
X200660Y419100D02*
Y488284D01*
Y419100D02*
X218440D01*
X200660Y317500D02*
Y419100D01*
Y317500D02*
X208960Y309200D01*
X211455Y855345D02*
X236220Y880110D01*
X211455Y820420D02*
Y855345D01*
X269790Y713740D02*
X299565D01*
X299720Y713895D02*
X358775D01*
X299565Y713740D02*
X299720Y713895D01*
X267323Y711274D02*
X269790Y713740D01*
X266774Y711274D02*
X267323D01*
X115570Y981002D02*
X127583D01*
X115570D02*
Y1002030D01*
X72952Y981002D02*
X115570D01*
X58420Y966470D02*
X72952Y981002D01*
X292628Y764286D02*
X378478Y850135D01*
X472310D01*
X112014Y764286D02*
X292628D01*
X218805Y419465D02*
X219170Y419830D01*
X218440Y419100D02*
X218805Y419465D01*
X219170Y445484D02*
X219456Y445770D01*
X219170Y419830D02*
Y445484D01*
X208960Y309200D02*
Y309200D01*
X382232Y294640D02*
X384772Y292100D01*
X223373Y294640D02*
X382232D01*
X384772Y292100D02*
X384810D01*
X58420Y817880D02*
Y966470D01*
Y817880D02*
X112014Y764286D01*
X358775Y713895D02*
X532130Y887250D01*
Y887730D01*
X191770Y800735D02*
X211455Y820420D01*
X472310Y850135D02*
X508317Y886143D01*
Y887412D01*
D164*
X119126Y689610D02*
X135636Y673100D01*
X143510D01*
X125730Y453153D02*
X127762Y455185D01*
Y455676D01*
X125730Y441960D02*
Y453153D01*
X117894Y706336D02*
X140190Y684040D01*
X145351D01*
D165*
X143002Y137922D02*
X143289Y137635D01*
Y63974D02*
Y137635D01*
X141478Y62163D02*
X143289Y63974D01*
X141478Y61468D02*
Y62163D01*
X86647Y107347D02*
Y120937D01*
X90391Y59657D02*
Y103603D01*
X86647Y107347D02*
X90391Y103603D01*
X89550Y123840D02*
Y132476D01*
X86647Y120937D02*
X89550Y123840D01*
X90170Y59436D02*
X90391Y59657D01*
X441960Y142240D02*
X448056Y136144D01*
X439547Y128270D02*
X447090D01*
X448056Y129236D02*
Y136144D01*
X447090Y128270D02*
X448056Y129236D01*
D166*
X478986Y303530D02*
X500298D01*
X502838Y306070D01*
X503936D01*
X280843Y507538D02*
Y664333D01*
X284226Y504272D02*
X285750Y502748D01*
X274955Y501650D02*
X280843Y507538D01*
X242279Y702896D02*
X280843Y664333D01*
X284226Y504272D02*
Y665734D01*
X245662Y704298D02*
X284226Y665734D01*
X285750Y501650D02*
Y502748D01*
X294365Y872342D02*
X300503D01*
X303414Y875254D02*
X399300D01*
X304816Y871871D02*
X400701D01*
X298768Y865823D02*
X304816Y871871D01*
X300503Y872342D02*
X303414Y875254D01*
X198120Y683016D02*
X200874Y680262D01*
Y675558D02*
Y680262D01*
X198120Y683016D02*
Y683260D01*
X170607Y645291D02*
X200874Y675558D01*
X170607Y501293D02*
Y645291D01*
X155546Y486231D02*
X170607Y501293D01*
X155546Y130559D02*
X165510Y120594D01*
Y118237D02*
Y120594D01*
X155546Y130559D02*
Y486231D01*
X165510Y118237D02*
X166000Y117747D01*
X187317Y71120D02*
X198550D01*
X186047Y72390D02*
X187317Y71120D01*
X185420Y72390D02*
X186047D01*
X207010Y683016D02*
Y683260D01*
X204256Y680262D02*
X207010Y683016D01*
X204256Y674156D02*
Y680262D01*
X173990Y643890D02*
X204256Y674156D01*
X173990Y499892D02*
Y643890D01*
X158928Y484830D02*
X173990Y499892D01*
X158928Y131960D02*
X167968Y122920D01*
X170247D01*
X158928Y131960D02*
Y484830D01*
X170247Y122920D02*
X170408Y122759D01*
X170737Y122430D01*
X506730Y943493D02*
Y943610D01*
X503355Y940118D02*
X506730Y943493D01*
X464164Y940118D02*
X477512D01*
X490523D02*
X503355D01*
X490488Y940083D02*
X490523Y940118D01*
X477547Y940083D02*
X490488D01*
X477512Y940118D02*
X477547Y940083D01*
X399300Y875254D02*
X464164Y940118D01*
X491924Y936735D02*
X503355D01*
X491890Y936700D02*
X491924Y936735D01*
X503355D02*
X506847Y933243D01*
X476111Y936735D02*
X476146Y936700D01*
X465565Y936735D02*
X476111D01*
X476146Y936700D02*
X491890D01*
X506847Y933243D02*
X506965D01*
X400701Y871871D02*
X465565Y936735D01*
X289747Y867725D02*
X294365Y872342D01*
X245662Y733014D02*
X246631Y733982D01*
X253549D01*
X253627Y733905D01*
X242279Y702896D02*
Y733014D01*
X241233Y734060D02*
X242279Y733014D01*
X234315Y734060D02*
X241233D01*
X245662Y704298D02*
Y733014D01*
D167*
X488950Y203200D02*
X489204Y202946D01*
X486503Y213010D02*
Y213834D01*
X488950Y203200D02*
Y210563D01*
X486503Y213010D02*
X488950Y210563D01*
X439166Y210820D02*
X439716D01*
X451146Y222250D01*
X478088D02*
X486503Y213834D01*
X451146Y222250D02*
X462026D01*
X470154D02*
X478088D01*
X294132Y31496D02*
X295148D01*
X278384Y24130D02*
X286766D01*
X294132Y31496D01*
X181610Y90170D02*
X257810D01*
X76200Y200660D02*
X88900D01*
D168*
X46486Y92036D02*
X49784Y95334D01*
X46344Y92036D02*
X46486D01*
X49784Y95334D02*
Y97790D01*
X76200Y124206D01*
Y200660D01*
X190754Y500492D02*
X205493Y515232D01*
X206057Y514668D02*
X234315Y486410D01*
X205740Y514350D02*
Y642620D01*
X227330Y664210D01*
X257810Y92710D02*
X260350D01*
X233680Y116840D02*
X257810Y92710D01*
X190754Y159766D02*
Y500492D01*
Y159766D02*
X233680Y116840D01*
X234315Y486410D02*
X369570D01*
X383540Y435610D02*
Y472440D01*
X369570Y486410D02*
X383540Y472440D01*
D169*
X44550Y653221D02*
D03*
X44550Y721221D02*
D03*
D170*
X571500Y723900D02*
D03*
Y749300D02*
D03*
Y774700D02*
D03*
Y800100D02*
D03*
Y825500D02*
D03*
Y850900D02*
D03*
Y876300D02*
D03*
Y901700D02*
D03*
Y927100D02*
D03*
Y952500D02*
D03*
Y977900D02*
D03*
Y1003300D02*
D03*
X12700Y774700D02*
D03*
Y800100D02*
D03*
Y825500D02*
D03*
Y850900D02*
D03*
Y876300D02*
D03*
Y901700D02*
D03*
Y927100D02*
D03*
Y952500D02*
D03*
Y977900D02*
D03*
Y1003300D02*
D03*
X431800Y25400D02*
D03*
X406400D02*
D03*
X571500Y520700D02*
D03*
Y495300D02*
D03*
Y469900D02*
D03*
Y444500D02*
D03*
Y419100D02*
D03*
Y393700D02*
D03*
Y368300D02*
D03*
Y342900D02*
D03*
Y317500D02*
D03*
Y292100D02*
D03*
Y266700D02*
D03*
Y241300D02*
D03*
D171*
X558800Y1054100D02*
D03*
X25400Y25400D02*
D03*
X558800Y24130D02*
D03*
X25400Y1054100D02*
D03*
D172*
X259472Y950027D02*
D03*
X263652Y937006D02*
D03*
X299720Y1009650D02*
D03*
X286277Y999204D02*
D03*
X327192Y949941D02*
D03*
X314592D02*
D03*
X301992D02*
D03*
X302210Y936868D02*
D03*
X314810D02*
D03*
X327410D02*
D03*
X252868Y937073D02*
D03*
X240268D02*
D03*
X237236Y950214D02*
D03*
X247914Y950147D02*
D03*
D173*
X126296Y187561D02*
D03*
X93154Y184144D02*
D03*
X121341Y168039D02*
D03*
X241497Y209072D02*
D03*
X215892Y192869D02*
D03*
X128940Y168039D02*
D03*
X173518Y171457D02*
D03*
X101028Y184144D02*
D03*
X203617Y175182D02*
D03*
X173518Y184144D02*
D03*
X218007Y180054D02*
D03*
X224960Y183124D02*
D03*
X244307Y195113D02*
D03*
X255800Y205049D02*
D03*
X235551Y204338D02*
D03*
X201596Y187738D02*
D03*
X148701Y184144D02*
D03*
X256907Y234427D02*
D03*
X250210Y199900D02*
D03*
X264639Y217358D02*
D03*
X181113Y184287D02*
D03*
X141101Y184144D02*
D03*
X229280Y200045D02*
D03*
X269309Y231775D02*
D03*
X208845Y190024D02*
D03*
X181113Y171713D02*
D03*
X231701Y186633D02*
D03*
X66656Y184144D02*
D03*
X222715Y196216D02*
D03*
X113741Y168039D02*
D03*
X165918Y184144D02*
D03*
X247087Y214220D02*
D03*
X210884Y177404D02*
D03*
X238130Y190686D02*
D03*
X267530Y224386D02*
D03*
X255108Y227043D02*
D03*
X118697Y187438D02*
D03*
X85554Y184144D02*
D03*
X165918Y171457D02*
D03*
X85640D02*
D03*
X135729D02*
D03*
X133650Y185643D02*
D03*
X251741Y220229D02*
D03*
X66656Y171457D02*
D03*
X260703Y210856D02*
D03*
X451325Y186517D02*
D03*
X348651Y196324D02*
D03*
X474053Y187561D02*
D03*
X357602Y205399D02*
D03*
X346220Y215457D02*
D03*
X332510Y212326D02*
D03*
X336350Y235679D02*
D03*
X496037Y184144D02*
D03*
X354747Y191786D02*
D03*
X338279Y228327D02*
D03*
X351719Y210212D02*
D03*
X374730Y180874D02*
D03*
X458853Y187561D02*
D03*
X342825Y201205D02*
D03*
X337310Y206433D02*
D03*
X471284Y168039D02*
D03*
X436508Y184331D02*
D03*
X488439D02*
D03*
X396428Y174003D02*
D03*
X456088Y168039D02*
D03*
X403909Y172664D02*
D03*
X463686Y168215D02*
D03*
X389036Y175772D02*
D03*
X466453Y187561D02*
D03*
X480841Y184144D02*
D03*
X361157Y187703D02*
D03*
X515940Y171457D02*
D03*
X406159Y185126D02*
D03*
X444105Y184144D02*
D03*
X398677Y186461D02*
D03*
X391308Y188319D02*
D03*
X328627Y218859D02*
D03*
X413716Y184319D02*
D03*
X518686Y184144D02*
D03*
X384087Y190689D02*
D03*
X419047Y171425D02*
D03*
X426647Y171385D02*
D03*
X511177Y185312D02*
D03*
X428912Y184072D02*
D03*
X503581Y185065D02*
D03*
X500380Y170434D02*
D03*
X421312Y184072D02*
D03*
X325747Y225893D02*
D03*
X370306Y197072D02*
D03*
X411455Y171757D02*
D03*
X367845Y184093D02*
D03*
X449300Y171457D02*
D03*
X381788Y178057D02*
D03*
X363807Y201012D02*
D03*
X341599Y221491D02*
D03*
X323932Y233272D02*
D03*
X478559Y170239D02*
D03*
X377066Y193598D02*
D03*
D174*
X142748Y637540D02*
D03*
X143002Y137922D02*
D03*
X328868Y905469D02*
D03*
X347374Y1041761D02*
D03*
X44196Y64516D02*
D03*
Y83820D02*
D03*
X46344Y92036D02*
D03*
X44196Y74168D02*
D03*
X99822Y45212D02*
D03*
X99568Y23114D02*
D03*
X99822Y38100D02*
D03*
X92964Y111506D02*
D03*
X99568Y118110D02*
D03*
X98806Y106426D02*
D03*
X110744Y106934D02*
D03*
X92964Y118110D02*
D03*
X98806Y99314D02*
D03*
X53074Y32766D02*
D03*
X89550Y132476D02*
D03*
X155956Y77216D02*
D03*
X149352Y73914D02*
D03*
X96774Y138684D02*
D03*
X39116Y44630D02*
D03*
X45720Y41148D02*
D03*
X52070Y43688D02*
D03*
X41402Y98806D02*
D03*
X128270Y783590D02*
D03*
X57912Y536194D02*
D03*
X532130Y87359D02*
D03*
X433898Y201889D02*
D03*
X419100Y212090D02*
D03*
X499110Y209804D02*
D03*
X439166Y210820D02*
D03*
X486503Y213834D02*
D03*
X444246Y234950D02*
D03*
X497586Y242570D02*
D03*
X469646Y259080D02*
D03*
Y271780D02*
D03*
X406146Y256794D02*
D03*
X469646Y283210D02*
D03*
X483616Y292100D02*
D03*
X503936Y306070D02*
D03*
X417830Y323850D02*
D03*
X501674Y321964D02*
D03*
X496316Y330200D02*
D03*
X415290Y337820D02*
D03*
X509016Y243840D02*
D03*
X509270Y328168D02*
D03*
X474726Y365760D02*
D03*
X468376Y374650D02*
D03*
X484450Y376348D02*
D03*
X416814Y362458D02*
D03*
X145034Y160274D02*
D03*
X134874Y160528D02*
D03*
X430421Y45466D02*
D03*
X439420Y115824D02*
D03*
X364490Y111760D02*
D03*
X357124D02*
D03*
X156130Y593598D02*
D03*
X72644Y602996D02*
D03*
X225552Y71882D02*
D03*
X311404Y202184D02*
D03*
X215900Y165100D02*
D03*
X192786Y120650D02*
D03*
X199898D02*
D03*
X210820Y114300D02*
D03*
X167640Y154686D02*
D03*
X176530Y157480D02*
D03*
X176276Y146558D02*
D03*
X429260Y142494D02*
D03*
X49022Y282448D02*
D03*
X120904Y284480D02*
D03*
X119126Y689610D02*
D03*
X154686Y559562D02*
D03*
X155702Y548386D02*
D03*
X301752Y502920D02*
D03*
X240030Y796290D02*
D03*
X360172Y1004824D02*
D03*
X359918Y1028954D02*
D03*
X370838Y1052195D02*
D03*
X419100Y124460D02*
D03*
X65532Y576834D02*
D03*
X107442Y148844D02*
D03*
X127000Y25146D02*
D03*
X79756Y24892D02*
D03*
X118618Y25146D02*
D03*
X71882Y24638D02*
D03*
X136652Y23368D02*
D03*
X61456Y26162D02*
D03*
X146558Y32766D02*
D03*
X136652Y101346D02*
D03*
Y93980D02*
D03*
Y86614D02*
D03*
Y79248D02*
D03*
Y71882D02*
D03*
X139337Y9144D02*
D03*
X61359Y10160D02*
D03*
X107696Y22606D02*
D03*
X99568Y9652D02*
D03*
Y16256D02*
D03*
X90170Y22352D02*
D03*
X164338Y71120D02*
D03*
X60325Y668020D02*
D03*
X110998Y511048D02*
D03*
X306050Y1054100D02*
D03*
Y1041400D02*
D03*
Y1028700D02*
D03*
X278150Y1054100D02*
D03*
Y1041400D02*
D03*
Y1028700D02*
D03*
X348245Y167760D02*
D03*
X60325Y693420D02*
D03*
X398780Y514350D02*
D03*
X134089Y705766D02*
D03*
X145524Y683867D02*
D03*
X198120Y683260D02*
D03*
X207010D02*
D03*
X261620Y92710D02*
D03*
X262890Y73660D02*
D03*
X269240Y85090D02*
D03*
Y77470D02*
D03*
Y92710D02*
D03*
X426720Y571500D02*
D03*
X391160Y106204D02*
D03*
X485140Y109220D02*
D03*
X285750Y501650D02*
D03*
X274955D02*
D03*
X70076Y995467D02*
D03*
X76835Y668020D02*
D03*
Y718820D02*
D03*
X60325D02*
D03*
X76835Y693420D02*
D03*
X118110Y706120D02*
D03*
X425450Y539750D02*
D03*
X74930Y869950D02*
D03*
X83375Y880512D02*
D03*
X499885Y769620D02*
D03*
X515620Y826516D02*
D03*
X398780Y633730D02*
D03*
X444500Y695960D02*
D03*
X317500Y1009650D02*
D03*
X285728Y137137D02*
D03*
X189738Y146050D02*
D03*
X247650Y135890D02*
D03*
X232410Y133350D02*
D03*
X463695Y57150D02*
D03*
X12845Y354330D02*
D03*
X294785Y217170D02*
D03*
X405275Y227330D02*
D03*
X431038Y195072D02*
D03*
X379875Y212090D02*
D03*
X404005Y198120D02*
D03*
X501795Y48260D02*
D03*
X505605Y67310D02*
D03*
X472585Y80010D02*
D03*
X429260Y115824D02*
D03*
X534815Y44450D02*
D03*
X575455Y45720D02*
D03*
X476395Y10160D02*
D03*
X482346Y24892D02*
D03*
X476395Y36830D02*
D03*
X443375Y52832D02*
D03*
Y62992D02*
D03*
Y73152D02*
D03*
Y83312D02*
D03*
X527195Y67310D02*
D03*
X528465Y100330D02*
D03*
X511955Y86360D02*
D03*
X572915Y121920D02*
D03*
X557530Y115570D02*
D03*
X541020Y121920D02*
D03*
X523240D02*
D03*
X282085Y219710D02*
D03*
X321455Y210820D02*
D03*
X10305Y48260D02*
D03*
X49675Y10160D02*
D03*
X31750Y115570D02*
D03*
X237635Y97790D02*
D03*
X8890D02*
D03*
X11430Y127000D02*
D03*
X41910Y115570D02*
D03*
X62230Y128270D02*
D03*
X217170Y147320D02*
D03*
X490474Y78740D02*
D03*
X572770Y92710D02*
D03*
X500380Y97790D02*
D03*
X521970Y322818D02*
D03*
X532130Y342900D02*
D03*
X535225Y317500D02*
D03*
X181610Y90170D02*
D03*
X269240Y43180D02*
D03*
X492760Y59690D02*
D03*
X441960Y142240D02*
D03*
X448903Y148622D02*
D03*
X250190Y172720D02*
D03*
X292572Y118618D02*
D03*
X209550Y373380D02*
D03*
X100330Y443230D02*
D03*
X40124Y304781D02*
D03*
X51528Y306274D02*
D03*
X304800Y133350D02*
D03*
Y99060D02*
D03*
X54864Y515874D02*
D03*
X78146Y548508D02*
D03*
X114300Y200660D02*
D03*
X139700D02*
D03*
X101600D02*
D03*
X127000D02*
D03*
X147955D02*
D03*
X86360Y834390D02*
D03*
X114300Y558800D02*
D03*
X104140Y750570D02*
D03*
X144780Y749300D02*
D03*
X86360Y811530D02*
D03*
X123190Y775970D02*
D03*
X419100Y514350D02*
D03*
X506730Y943610D02*
D03*
X506965Y933243D02*
D03*
X289747Y867725D02*
D03*
X298768Y865823D02*
D03*
X391160Y123190D02*
D03*
Y114300D02*
D03*
X474980Y162560D02*
D03*
X125730Y422910D02*
D03*
Y387350D02*
D03*
X19050Y97790D02*
D03*
X349250Y90170D02*
D03*
X358249Y129595D02*
D03*
X350629D02*
D03*
X353060Y83820D02*
D03*
X361950D02*
D03*
X358140Y90170D02*
D03*
X361950Y97790D02*
D03*
X353060D02*
D03*
X287020Y90170D02*
D03*
X279400D02*
D03*
X287020Y82550D02*
D03*
X279400D02*
D03*
X287020Y74930D02*
D03*
X279400D02*
D03*
X257810Y8890D02*
D03*
X250190Y6350D02*
D03*
X84328Y64262D02*
D03*
Y71628D02*
D03*
Y78994D02*
D03*
Y86360D02*
D03*
Y93726D02*
D03*
Y101092D02*
D03*
X360680Y27170D02*
D03*
X320040Y65270D02*
D03*
X360680Y19550D02*
D03*
X341630Y142240D02*
D03*
X308610Y48760D02*
D03*
X316230D02*
D03*
X320040Y57650D02*
D03*
X360680Y34790D02*
D03*
Y11930D02*
D03*
X356870Y142240D02*
D03*
X349250D02*
D03*
X295910Y103370D02*
D03*
X334010Y142240D02*
D03*
X485140Y572484D02*
D03*
X485264Y581481D02*
D03*
X171450Y718820D02*
D03*
X86360Y825500D02*
D03*
X49530Y528320D02*
D03*
X49710Y478598D02*
D03*
X121158Y473456D02*
D03*
X127478Y455452D02*
D03*
X55337Y491813D02*
D03*
X104140Y463550D02*
D03*
X457200Y535940D02*
D03*
X486410Y717550D02*
D03*
X476250Y711200D02*
D03*
X467838Y704058D02*
D03*
X486501Y701326D02*
D03*
X492284Y687070D02*
D03*
X512477Y716946D02*
D03*
X505460Y514350D02*
D03*
X548640Y509270D02*
D03*
X203200Y213360D02*
D03*
X412750Y429260D02*
D03*
X384434Y417830D02*
D03*
X391160Y642620D02*
D03*
X266774Y711274D02*
D03*
X410707Y665480D02*
D03*
X72073Y849630D02*
D03*
X462280Y998220D02*
D03*
X509044Y702569D02*
D03*
X506730Y687070D02*
D03*
X510094Y760730D02*
D03*
X509625Y733468D02*
D03*
X505460Y740410D02*
D03*
X430219Y690883D02*
D03*
X363220Y642312D02*
D03*
X516890Y662940D02*
D03*
X523566Y686643D02*
D03*
X369566Y655604D02*
D03*
X488950Y615725D02*
D03*
X391160Y589280D02*
D03*
X435610Y556260D02*
D03*
X527378Y546086D02*
D03*
X514064Y554320D02*
D03*
X127583Y981002D02*
D03*
X295703Y628814D02*
D03*
X355600Y637310D02*
D03*
X328930Y553720D02*
D03*
X66040Y900430D02*
D03*
X236220Y880110D02*
D03*
X418310Y616740D02*
D03*
X143510Y673100D02*
D03*
X156210Y648970D02*
D03*
X379730Y323850D02*
D03*
X211012Y323819D02*
D03*
X171450Y458470D02*
D03*
X77470Y842010D02*
D03*
X519430Y982726D02*
D03*
X510697Y988217D02*
D03*
X142240Y538480D02*
D03*
X208960Y309200D02*
D03*
X227330Y676910D02*
D03*
X231140Y683260D02*
D03*
X172363Y683140D02*
D03*
X463550Y615950D02*
D03*
X21590Y668020D02*
D03*
X35560Y693420D02*
D03*
X135890Y730250D02*
D03*
X461010Y660400D02*
D03*
X196850Y1019810D02*
D03*
X226060D02*
D03*
Y1040130D02*
D03*
X201930D02*
D03*
X209550Y480060D02*
D03*
X401320Y1028700D02*
D03*
X411480D02*
D03*
X394970Y1054100D02*
D03*
X148590Y510540D02*
D03*
X271780Y542290D02*
D03*
X298450Y580390D02*
D03*
X474980Y577850D02*
D03*
X477757Y548366D02*
D03*
X441753Y964545D02*
D03*
X420806Y943615D02*
D03*
X399864Y922683D02*
D03*
X378390Y902420D02*
D03*
X356450Y882822D02*
D03*
X240030Y910590D02*
D03*
X69850Y932180D02*
D03*
X77470Y915670D02*
D03*
X127000Y906748D02*
D03*
X177800D02*
D03*
X152400D02*
D03*
X407670Y999490D02*
D03*
X396240D02*
D03*
X462280Y1022350D02*
D03*
X523240D02*
D03*
X533400Y1014730D02*
D03*
X419100Y967740D02*
D03*
X397812Y946281D02*
D03*
X462280Y1055370D02*
D03*
X492760Y1032510D02*
D03*
X532130Y887730D02*
D03*
X452120Y997986D02*
D03*
X554736Y1003300D02*
D03*
X265430Y863600D02*
D03*
X236220Y835660D02*
D03*
Y847090D02*
D03*
X236616Y857125D02*
D03*
X383540Y435610D02*
D03*
X384810Y292100D02*
D03*
X524510Y866140D02*
D03*
Y857250D02*
D03*
X200133Y490248D02*
D03*
X68580Y618490D02*
D03*
X559228Y690540D02*
D03*
X242167Y680222D02*
D03*
X404837Y769969D02*
D03*
X394970D02*
D03*
X429260D02*
D03*
X440690D02*
D03*
X87630Y266700D02*
D03*
X96520D02*
D03*
X12700Y269240D02*
D03*
X60582Y281840D02*
D03*
X74930Y359410D02*
D03*
X483870Y602901D02*
D03*
X492121Y603754D02*
D03*
X539750Y330200D02*
D03*
X386080Y486410D02*
D03*
X412750Y482600D02*
D03*
X458470Y576580D02*
D03*
X443230Y579120D02*
D03*
X355918Y658177D02*
D03*
X209550Y339090D02*
D03*
X516125Y607695D02*
D03*
X461328Y649287D02*
D03*
X253627Y733905D02*
D03*
X234315Y734060D02*
D03*
X360045Y1052195D02*
D03*
X526415Y663390D02*
D03*
X368300Y704850D02*
D03*
X191770Y800735D02*
D03*
X292735Y789940D02*
D03*
X283210Y789305D02*
D03*
X508317Y887412D02*
D03*
X529590Y570230D02*
D03*
X525780Y577850D02*
D03*
X300228Y671322D02*
D03*
X293116D02*
D03*
X119380Y495300D02*
D03*
X102616Y475996D02*
D03*
X162560Y756920D02*
D03*
X476250Y720090D02*
D03*
X441960Y744220D02*
D03*
X491490Y745490D02*
D03*
X502920Y791210D02*
D03*
X189230Y596900D02*
D03*
X110490Y684530D02*
D03*
X132080Y748030D02*
D03*
X63500Y635000D02*
D03*
X59690Y590550D02*
D03*
X38354Y541528D02*
D03*
X90170Y655320D02*
D03*
X55880Y774700D02*
D03*
X10160Y671830D02*
D03*
X41910Y867410D02*
D03*
X20955Y812800D02*
D03*
Y787400D02*
D03*
X192405Y579120D02*
D03*
X296545Y285750D02*
D03*
X338455Y278765D02*
D03*
X275590Y444500D02*
D03*
X488315Y633095D02*
D03*
X465455D02*
D03*
X281940Y681990D02*
D03*
X515620Y1033780D02*
D03*
X482600Y1054100D02*
D03*
X185420Y673100D02*
D03*
X461010Y770255D02*
D03*
X380365D02*
D03*
X359410D02*
D03*
X322580Y777240D02*
D03*
X292100D02*
D03*
X190500Y647700D02*
D03*
X110490Y535940D02*
D03*
X35560Y480060D02*
D03*
X12700Y571500D02*
D03*
X445770Y1026160D02*
D03*
X381000Y1028700D02*
D03*
Y1054100D02*
D03*
X431800D02*
D03*
X429260Y1026160D02*
D03*
X391160Y1028700D02*
D03*
X406400Y1054100D02*
D03*
X38100Y254000D02*
D03*
X275590Y266700D02*
D03*
X338455Y266065D02*
D03*
X275590Y284480D02*
D03*
X101600Y292100D02*
D03*
X114300Y325120D02*
D03*
X147320Y349885D02*
D03*
X165100D02*
D03*
X180340Y392430D02*
D03*
X176530Y417830D02*
D03*
X177800Y469900D02*
D03*
X508000Y431800D02*
D03*
Y457200D02*
D03*
X399288Y339344D02*
D03*
X166370Y364490D02*
D03*
X469900Y419100D02*
D03*
X63500Y355600D02*
D03*
X20320Y762000D02*
D03*
X372110Y671830D02*
D03*
X93980Y798830D02*
D03*
X134620Y615950D02*
D03*
X125476Y626872D02*
D03*
X194310Y725170D02*
D03*
Y711200D02*
D03*
X12700Y718820D02*
D03*
Y635000D02*
D03*
X57150Y735330D02*
D03*
X70485Y706120D02*
D03*
Y680720D02*
D03*
X71120Y655320D02*
D03*
X190500Y562610D02*
D03*
X541020Y558800D02*
D03*
X547370Y542290D02*
D03*
X339090Y1045210D02*
D03*
X344170Y1069340D02*
D03*
Y1056640D02*
D03*
X528983Y704617D02*
D03*
X520700Y12700D02*
D03*
Y38100D02*
D03*
X240030Y1066800D02*
D03*
X215900D02*
D03*
X190500D02*
D03*
X317500Y444500D02*
D03*
X330200Y431800D02*
D03*
Y304800D02*
D03*
X321310Y193040D02*
D03*
X337820Y168910D02*
D03*
X86614Y158750D02*
D03*
X417068Y164084D02*
D03*
X323850Y168910D02*
D03*
X50800Y228600D02*
D03*
X38100Y219900D02*
D03*
Y191500D02*
D03*
Y164100D02*
D03*
Y135700D02*
D03*
X147955Y215900D02*
D03*
X236220Y173990D02*
D03*
X166370Y293370D02*
D03*
X179070Y292100D02*
D03*
X330200Y977900D02*
D03*
Y988060D02*
D03*
X228600Y981075D02*
D03*
X279400Y863600D02*
D03*
X177800Y241300D02*
D03*
X165100Y228600D02*
D03*
X177800D02*
D03*
Y213360D02*
D03*
X479425Y749300D02*
D03*
X471170Y742950D02*
D03*
X462280Y720090D02*
D03*
X457200Y749300D02*
D03*
X431800D02*
D03*
X425450Y723900D02*
D03*
X406400D02*
D03*
X289560Y731520D02*
D03*
Y697230D02*
D03*
X335280Y748030D02*
D03*
X351790Y688340D02*
D03*
X313055Y760730D02*
D03*
X114300Y635000D02*
D03*
X167005Y322580D02*
D03*
X375920Y228600D02*
D03*
X406400Y163830D02*
D03*
X103632Y158496D02*
D03*
X167386Y163322D02*
D03*
X539750Y252730D02*
D03*
Y279400D02*
D03*
X537210Y354330D02*
D03*
X558800Y254000D02*
D03*
Y279400D02*
D03*
Y304800D02*
D03*
Y330200D02*
D03*
X557530Y354330D02*
D03*
X558800Y381000D02*
D03*
X538734Y408940D02*
D03*
X558800Y431800D02*
D03*
X558165Y457200D02*
D03*
X558800Y482600D02*
D03*
Y508000D02*
D03*
X561340Y541020D02*
D03*
X508000Y482600D02*
D03*
X490220Y407670D02*
D03*
X495300Y419100D02*
D03*
X500380Y524510D02*
D03*
X463550Y468630D02*
D03*
X416560Y494030D02*
D03*
X426720Y659130D02*
D03*
X424180Y650240D02*
D03*
X488950Y660400D02*
D03*
X426720Y604520D02*
D03*
X375920Y615950D02*
D03*
X407670Y652780D02*
D03*
X375920Y631190D02*
D03*
X361950Y619760D02*
D03*
X394970Y717550D02*
D03*
Y697230D02*
D03*
X364490Y685800D02*
D03*
X355600Y673100D02*
D03*
X358140Y697230D02*
D03*
X381000Y688340D02*
D03*
X406400Y749300D02*
D03*
X381000Y723900D02*
D03*
X355600D02*
D03*
X381000Y749300D02*
D03*
X355600D02*
D03*
X528320Y901700D02*
D03*
X508000Y960120D02*
D03*
X532765Y965200D02*
D03*
X527050Y944880D02*
D03*
X532130Y935990D02*
D03*
X533400Y863600D02*
D03*
Y787400D02*
D03*
X528320Y808990D02*
D03*
X509270Y838200D02*
D03*
X528320Y831850D02*
D03*
X560705Y698500D02*
D03*
X537210Y762000D02*
D03*
X533400Y736600D02*
D03*
X560705Y711200D02*
D03*
X558800Y762000D02*
D03*
Y812800D02*
D03*
Y965200D02*
D03*
Y939800D02*
D03*
Y914400D02*
D03*
Y889000D02*
D03*
Y863600D02*
D03*
Y736600D02*
D03*
Y787400D02*
D03*
Y838200D02*
D03*
X570865Y1022350D02*
D03*
X546100Y1026160D02*
D03*
X530860Y1042670D02*
D03*
X466090Y1069340D02*
D03*
X514350Y1054100D02*
D03*
X523240Y1069340D02*
D03*
X419735Y881380D02*
D03*
X461852Y923876D02*
D03*
X441488Y903475D02*
D03*
X494030Y966470D02*
D03*
X463550Y797560D02*
D03*
X480695Y798195D02*
D03*
X479953Y820341D02*
D03*
X480508Y924774D02*
D03*
X481096Y903509D02*
D03*
X481829Y884004D02*
D03*
X357505Y819150D02*
D03*
X356544Y841421D02*
D03*
X356679Y861881D02*
D03*
X356235Y798830D02*
D03*
X419174Y798617D02*
D03*
X398215D02*
D03*
X377415Y798933D02*
D03*
X377148Y819962D02*
D03*
X398098Y819867D02*
D03*
X419095Y820152D02*
D03*
X440139Y819962D02*
D03*
X461067Y840994D02*
D03*
X440180Y840766D02*
D03*
X419100Y840740D02*
D03*
X398780D02*
D03*
X379110Y839938D02*
D03*
X377117Y861835D02*
D03*
X398145Y862330D02*
D03*
X419100Y861695D02*
D03*
X439876Y862033D02*
D03*
X461010Y861695D02*
D03*
X440067Y882906D02*
D03*
X461043Y882943D02*
D03*
X461010Y904240D02*
D03*
X419100Y924560D02*
D03*
X398245Y903755D02*
D03*
X377102Y883057D02*
D03*
X398153Y883095D02*
D03*
X418465Y904240D02*
D03*
X440055Y925195D02*
D03*
Y945515D02*
D03*
X482600Y966470D02*
D03*
X481180Y946165D02*
D03*
X461092Y946165D02*
D03*
X461010Y965835D02*
D03*
X398235Y967461D02*
D03*
X377074Y925086D02*
D03*
X377190Y945515D02*
D03*
X356870Y946150D02*
D03*
X377190Y967740D02*
D03*
X497205Y781050D02*
D03*
X495300Y800100D02*
D03*
X342900Y787400D02*
D03*
Y800100D02*
D03*
X356870Y995680D02*
D03*
X356839Y925162D02*
D03*
X355600Y966470D02*
D03*
X317500Y800100D02*
D03*
X328930Y862330D02*
D03*
X330200Y838200D02*
D03*
Y812800D02*
D03*
X304800Y800100D02*
D03*
Y812800D02*
D03*
X252730Y871220D02*
D03*
X266700Y901700D02*
D03*
X304800Y882650D02*
D03*
X279400D02*
D03*
X72390Y965200D02*
D03*
X177800Y952500D02*
D03*
X152400D02*
D03*
X127000D02*
D03*
X177800Y927100D02*
D03*
X152400D02*
D03*
X127000D02*
D03*
Y876300D02*
D03*
X152400D02*
D03*
X177800D02*
D03*
X203200D02*
D03*
X190500Y863600D02*
D03*
X165100D02*
D03*
X139700D02*
D03*
X127000Y850900D02*
D03*
X152400D02*
D03*
X177800D02*
D03*
X203200D02*
D03*
X190500Y838200D02*
D03*
X165100D02*
D03*
X139700D02*
D03*
X127000Y825500D02*
D03*
X152400D02*
D03*
X177800D02*
D03*
X203200D02*
D03*
X190500Y812800D02*
D03*
X165100D02*
D03*
X139700D02*
D03*
X321310Y727710D02*
D03*
X223520Y736600D02*
D03*
X194310D02*
D03*
X249555Y676910D02*
D03*
Y663575D02*
D03*
X266700Y609600D02*
D03*
X342900D02*
D03*
X317500D02*
D03*
X292100D02*
D03*
X396240Y580390D02*
D03*
X393700Y495300D02*
D03*
X424180Y506730D02*
D03*
X469900Y444500D02*
D03*
X419100Y584200D02*
D03*
Y561340D02*
D03*
X394970Y558800D02*
D03*
X363220Y581660D02*
D03*
X363855Y558800D02*
D03*
X302260Y546100D02*
D03*
X227965Y584200D02*
D03*
X241300D02*
D03*
Y558800D02*
D03*
X215900Y556260D02*
D03*
X393700Y393700D02*
D03*
X425450Y492760D02*
D03*
X393700Y477520D02*
D03*
X425450Y478790D02*
D03*
X444500Y419100D02*
D03*
X393700Y455930D02*
D03*
X425450Y454660D02*
D03*
X424180Y416560D02*
D03*
X392430Y419100D02*
D03*
X393700Y368300D02*
D03*
Y346710D02*
D03*
X387350Y509270D02*
D03*
X393700Y539750D02*
D03*
X368300Y508000D02*
D03*
Y539750D02*
D03*
X342900D02*
D03*
X292100D02*
D03*
X342900Y508000D02*
D03*
X322580Y504190D02*
D03*
X332740Y516890D02*
D03*
X241300Y504190D02*
D03*
X264160D02*
D03*
X260350Y539750D02*
D03*
X241300D02*
D03*
X215900D02*
D03*
X41910Y788670D02*
D03*
X86360Y706120D02*
D03*
X209550Y469900D02*
D03*
X208280Y447040D02*
D03*
X208915Y494030D02*
D03*
X254635Y462915D02*
D03*
X275590D02*
D03*
X338455D02*
D03*
X317500D02*
D03*
X296545D02*
D03*
X266700Y431800D02*
D03*
X330200Y419100D02*
D03*
X304800D02*
D03*
X279400D02*
D03*
X254000D02*
D03*
X266700Y406400D02*
D03*
X292100D02*
D03*
X317500D02*
D03*
X349250Y412115D02*
D03*
X330200Y393700D02*
D03*
X304800D02*
D03*
X279400D02*
D03*
X254000D02*
D03*
X241300Y381000D02*
D03*
X266700D02*
D03*
X292100D02*
D03*
X317500D02*
D03*
X342900D02*
D03*
X330200Y368300D02*
D03*
X304800Y367030D02*
D03*
X279400D02*
D03*
X254000D02*
D03*
X241300Y355600D02*
D03*
X266700D02*
D03*
X292100D02*
D03*
X317500D02*
D03*
X342900D02*
D03*
X317500Y278765D02*
D03*
Y266065D02*
D03*
X368300Y241300D02*
D03*
X228600Y228600D02*
D03*
X292100D02*
D03*
X311150D02*
D03*
X254000Y266700D02*
D03*
X339090Y330200D02*
D03*
X330200Y317500D02*
D03*
X304800D02*
D03*
X279400D02*
D03*
X254000D02*
D03*
Y285115D02*
D03*
X266700Y304800D02*
D03*
X317500Y330200D02*
D03*
X292100D02*
D03*
X266700D02*
D03*
X255270D02*
D03*
X203200Y965200D02*
D03*
X228600D02*
D03*
X334200Y1054100D02*
D03*
X334264Y1040638D02*
D03*
X330200Y1016000D02*
D03*
X250000D02*
D03*
Y1054100D02*
D03*
Y1041400D02*
D03*
Y1028700D02*
D03*
X330200Y914400D02*
D03*
X304800D02*
D03*
X279400D02*
D03*
X254000D02*
D03*
X203200Y927100D02*
D03*
Y939800D02*
D03*
Y952500D02*
D03*
X241300Y965200D02*
D03*
X266700Y1016000D02*
D03*
X86360D02*
D03*
Y1041400D02*
D03*
X115570D02*
D03*
X165100Y1066800D02*
D03*
X38100Y1016000D02*
D03*
X63500D02*
D03*
Y1041400D02*
D03*
X88900Y1066800D02*
D03*
X139700D02*
D03*
X241300Y990600D02*
D03*
X215900Y965200D02*
D03*
Y990600D02*
D03*
X50800Y889000D02*
D03*
Y965200D02*
D03*
X25400Y863600D02*
D03*
X50800Y914400D02*
D03*
X25400D02*
D03*
Y965200D02*
D03*
X39370Y839470D02*
D03*
X139700Y1041400D02*
D03*
X165100D02*
D03*
X116840Y1016000D02*
D03*
X165100D02*
D03*
Y990600D02*
D03*
X114300Y965200D02*
D03*
X139700D02*
D03*
X165100D02*
D03*
X190500D02*
D03*
Y939800D02*
D03*
X165100D02*
D03*
X139700D02*
D03*
X190500Y914400D02*
D03*
X165100D02*
D03*
X139700D02*
D03*
X114300Y797560D02*
D03*
X34290Y819150D02*
D03*
X55880Y797560D02*
D03*
X64770Y786130D02*
D03*
X110744Y655574D02*
D03*
X139700Y717550D02*
D03*
X119380Y734060D02*
D03*
X139700Y741045D02*
D03*
X88900Y685800D02*
D03*
X173990Y660400D02*
D03*
X189230Y571500D02*
D03*
X101600Y617220D02*
D03*
X41910Y635000D02*
D03*
X88900D02*
D03*
X114300Y617220D02*
D03*
X90170Y615950D02*
D03*
X40640Y590550D02*
D03*
X33020Y532130D02*
D03*
X100330Y535940D02*
D03*
X181610Y509270D02*
D03*
X176530Y480060D02*
D03*
X72390Y469900D02*
D03*
X12700Y553720D02*
D03*
Y457200D02*
D03*
X171450Y410210D02*
D03*
X208280Y458470D02*
D03*
X212090Y436880D02*
D03*
X165735Y482600D02*
D03*
X99060Y485140D02*
D03*
X165100Y431800D02*
D03*
Y381000D02*
D03*
X118110Y430530D02*
D03*
X95250Y453390D02*
D03*
X38100Y457200D02*
D03*
X63500Y431800D02*
D03*
X38100D02*
D03*
X12700D02*
D03*
Y406400D02*
D03*
X38100D02*
D03*
X63500D02*
D03*
X147320Y412750D02*
D03*
X88900Y406400D02*
D03*
X74930Y419100D02*
D03*
X180340Y364490D02*
D03*
X208280D02*
D03*
X88900Y355600D02*
D03*
X114300Y381000D02*
D03*
X88900D02*
D03*
X63500D02*
D03*
X12700D02*
D03*
X38100D02*
D03*
Y355600D02*
D03*
X12700Y330200D02*
D03*
Y304800D02*
D03*
X208280Y351790D02*
D03*
X200660Y293370D02*
D03*
X209550D02*
D03*
X166370Y281940D02*
D03*
X127000Y266700D02*
D03*
X147955D02*
D03*
X147320Y285750D02*
D03*
X38100Y241300D02*
D03*
X12700Y279400D02*
D03*
X558800Y558800D02*
D03*
Y228600D02*
D03*
X379730Y303530D02*
D03*
X393700Y266065D02*
D03*
X392430Y242570D02*
D03*
X412750Y243840D02*
D03*
X520700Y241300D02*
D03*
X446278Y193802D02*
D03*
X393700Y213360D02*
D03*
X215900Y228600D02*
D03*
X546100Y135700D02*
D03*
X533400D02*
D03*
X520700Y152400D02*
D03*
Y203200D02*
D03*
X558800Y219900D02*
D03*
X546100D02*
D03*
X533400D02*
D03*
X520700D02*
D03*
X558800Y191800D02*
D03*
X546100D02*
D03*
X533400D02*
D03*
X558800Y163700D02*
D03*
X546100D02*
D03*
X533400D02*
D03*
X523240Y135700D02*
D03*
X495300Y160020D02*
D03*
X510540Y157480D02*
D03*
X260350Y196850D02*
D03*
X271780Y210820D02*
D03*
X250190Y184150D02*
D03*
X203200Y228600D02*
D03*
X215900Y241300D02*
D03*
X228600D02*
D03*
X203200D02*
D03*
X165100Y213360D02*
D03*
X127000Y215900D02*
D03*
X101600D02*
D03*
X12700Y229870D02*
D03*
X63500Y228600D02*
D03*
X38100D02*
D03*
X25400D02*
D03*
X139700Y215900D02*
D03*
X114300D02*
D03*
X88900D02*
D03*
X63500Y219900D02*
D03*
X224536Y171196D02*
D03*
X63500Y203200D02*
D03*
Y152400D02*
D03*
X50800Y219900D02*
D03*
X25400D02*
D03*
X50800Y135700D02*
D03*
X25400D02*
D03*
X50800Y164100D02*
D03*
X25400D02*
D03*
X50800Y191500D02*
D03*
X25400D02*
D03*
X190500Y990600D02*
D03*
X151130Y980440D02*
D03*
X558800Y135700D02*
D03*
X554990Y589280D02*
D03*
X547370D02*
D03*
X554990Y676910D02*
D03*
X546100D02*
D03*
X514985Y622935D02*
D03*
X549910Y552450D02*
D03*
X524510Y603250D02*
D03*
X515620Y651510D02*
D03*
X332740Y641350D02*
D03*
X313690D02*
D03*
Y660400D02*
D03*
X332740D02*
D03*
X288925Y753745D02*
D03*
X313690Y736600D02*
D03*
X334645Y729615D02*
D03*
X325120Y693420D02*
D03*
X63500Y139700D02*
D03*
X12700Y609600D02*
D03*
Y1021715D02*
D03*
X114300Y1066800D02*
D03*
X63500D02*
D03*
X303548Y630816D02*
D03*
X438150Y603885D02*
D03*
X534670Y662940D02*
D03*
Y603885D02*
D03*
X514985Y640080D02*
D03*
X488315Y649605D02*
D03*
X339090Y681990D02*
D03*
X383540Y998220D02*
D03*
X233680Y789940D02*
D03*
X309245Y838200D02*
D03*
D175*
X107696Y134874D02*
D03*
X99314Y59944D02*
D03*
X90170Y59436D02*
D03*
X278384Y24130D02*
D03*
X141478Y61468D02*
D03*
X199076Y71120D02*
D03*
X166000Y117747D02*
D03*
X170737Y122430D02*
D03*
X185353Y72390D02*
D03*
X205740D02*
D03*
D177*
X300736Y82296D02*
D03*
X283210Y204470D02*
D03*
X387350Y147320D02*
D03*
X408940Y124460D02*
D03*
X88900Y200660D02*
D03*
X387316Y26704D02*
D03*
X213614Y64516D02*
D03*
X177800Y130810D02*
D03*
X156210Y116840D02*
D03*
X299720Y713740D02*
D03*
X391160Y614680D02*
D03*
X438150Y617220D02*
D03*
X541020Y706120D02*
D03*
X478790Y59690D02*
D03*
X500380Y78740D02*
D03*
X60960Y271780D02*
D03*
X46990Y317500D02*
D03*
X74930Y369570D02*
D03*
X488950Y202692D02*
D03*
X115570Y1002030D02*
D03*
X434340Y986790D02*
D03*
X488950D02*
D03*
X506730Y1065530D02*
D03*
X483870Y1040130D02*
D03*
X510540Y1022350D02*
D03*
X227330Y464820D02*
D03*
X218805Y419465D02*
D03*
X433070Y429260D02*
D03*
X114300Y579120D02*
D03*
X143764Y548386D02*
D03*
X146558Y581152D02*
D03*
X293370Y829310D02*
D03*
X223520D02*
D03*
X48260Y469900D02*
D03*
X125730Y441960D02*
D03*
X38354Y514858D02*
D03*
X92710Y463550D02*
D03*
X77470Y434340D02*
D03*
X473710Y111760D02*
D03*
X295910Y32004D02*
D03*
X547370Y79502D02*
D03*
D178*
X77470Y586994D02*
D03*
Y576580D02*
D03*
Y566166D02*
D03*
X267335Y814832D02*
D03*
Y804418D02*
D03*
X243840Y814832D02*
D03*
Y804418D02*
D03*
D179*
X462026Y222250D02*
D03*
X470154D02*
D03*
X219456Y445770D02*
D03*
X227584D02*
D03*
X266446Y59690D02*
D03*
X274574D02*
D03*
D180*
X546540Y205500D02*
D03*
Y150100D02*
D03*
D181*
X437446Y303530D02*
D03*
Y316230D02*
D03*
Y328930D02*
D03*
Y341630D02*
D03*
Y354330D02*
D03*
X476446D02*
D03*
Y341630D02*
D03*
Y328930D02*
D03*
Y316230D02*
D03*
Y303530D02*
D03*
D182*
X68830Y718820D02*
D03*
Y693420D02*
D03*
Y668020D02*
D03*
D183*
X429133Y128270D02*
D03*
X439547D02*
D03*
X429133Y158750D02*
D03*
X439547D02*
D03*
X370332Y1064260D02*
D03*
X359918D02*
D03*
X370332Y1016000D02*
D03*
X359918D02*
D03*
X370332Y1040130D02*
D03*
X359918D02*
D03*
D184*
X387350Y147320D02*
X393954Y153924D01*
X377190Y137160D02*
X387350Y147320D01*
X416498Y153924D02*
X421324Y158750D01*
X429133D01*
X393954Y153924D02*
X416498D01*
X374650Y137160D02*
X377190D01*
D185*
X76454Y248920D02*
Y254254D01*
X87630Y265430D01*
X76200Y248666D02*
X76454Y248920D01*
X76200Y200660D02*
Y248666D01*
M02*
